<svg width="16" height="16" viewBox="0 0 16 16" fill="none" xmlns="http://www.w3.org/2000/svg">
<g clip-path="url(#clip0_201_104)">
<path d="M0 0.868353C0.0196627 0.819166 0.0344097 0.769979 0.0540724 0.720793C0.290024 0.00758723 1.16501 -0.233427 1.73523 0.258439C1.79913 0.312544 1.85812 0.376487 1.91711 0.435511C3.92762 2.44724 5.93813 4.45897 7.94864 6.47071C7.99288 6.51497 8.01746 6.574 8.05678 6.6281C8.08136 6.6281 8.10102 6.62318 8.1256 6.62318C8.16001 6.56908 8.1895 6.51497 8.23375 6.47071C10.2688 4.42946 12.3039 2.39314 14.3439 0.356812C14.7028 -0.00225008 15.1648 -0.0957046 15.5827 0.10596C16.1873 0.396161 16.3692 1.17331 15.9513 1.69961C15.8973 1.76355 15.8383 1.82749 15.7793 1.88651C13.759 3.90808 11.7337 5.93457 9.71336 7.95614C9.66912 8.00041 9.61505 8.03484 9.52657 8.1037C9.60522 8.16272 9.66421 8.19224 9.70845 8.2365C11.7484 10.2728 13.7835 12.3141 15.8186 14.3504C16.089 14.6209 16.2315 14.9357 16.1578 15.3194C16.0841 15.7375 15.8285 16.0129 15.4254 16.1506C15.4008 16.1605 15.3762 16.1703 15.3566 16.1801C15.1992 16.1801 15.0419 16.1801 14.8846 16.1801C14.5799 16.0768 14.3636 15.8604 14.1424 15.6391C12.1712 13.6618 10.2 11.6894 8.22391 9.71702C8.17967 9.67275 8.13543 9.6334 8.07153 9.57438C8.02237 9.6334 7.98305 9.68259 7.93881 9.72686C5.96271 11.7042 3.98169 13.6864 2.00559 15.6686C1.79422 15.8801 1.58285 16.0768 1.29774 16.1752C1.14044 16.1752 0.983134 16.1752 0.825832 16.1752C0.609543 16.0965 0.393254 16.0129 0.26053 15.8162C0.157301 15.6637 0.088482 15.4866 0 15.3194C0 15.2013 0 15.0882 0 14.9701C0.073735 14.6554 0.270362 14.4242 0.496483 14.2028C2.49224 12.2157 4.48309 10.2187 6.47394 8.22667C6.51818 8.1824 6.57717 8.1578 6.66073 8.09878C6.56733 8.025 6.51326 7.99057 6.46902 7.9463C4.47817 5.95916 2.49224 3.97203 0.501398 1.98489C0.275277 1.76355 0.073735 1.53237 0 1.21758C0 1.10445 0 0.9864 0 0.868353Z" fill="white"/>
</g>
<defs>
<clipPath id="clip0_201_104">
<rect width="16" height="16" fill="white"/>
</clipPath>
</defs>
</svg>
