<svg width="29" height="27" viewBox="0 0 29 27" fill="none" xmlns="http://www.w3.org/2000/svg">
<path d="M14.0299 21.6084C13.7399 21.7783 13.3865 21.7783 13.0965 21.6084C11.0535 20.4115 3 15.3108 3 9.2809C3 8.06008 3.43995 6.87698 4.245 5.93287C5.05005 4.98877 6.17047 4.34198 7.41563 4.10256C8.66079 3.86314 9.95378 4.04587 11.0746 4.61967C12.1954 5.19347 13.0748 6.12288 13.5632 7.24979L-nan -nanL-nan -nanL13.5632 7.24979C14.0516 6.12288 14.931 5.19347 16.0518 4.61967C17.1727 4.04587 18.4656 3.86314 19.7108 4.10256C20.956 4.34198 22.0764 4.98877 22.8814 5.93287C23.6865 6.87698 24.1264 8.06008 24.1264 9.2809C24.1264 15.3108 16.0729 20.4115 14.0299 21.6084Z" stroke="#2F1793" stroke-width="1.2" stroke-linecap="round" stroke-linejoin="round"/>
</svg>
