<svg width="58" height="50" viewBox="0 0 58 50" fill="none" xmlns="http://www.w3.org/2000/svg">
<path d="M9 13.4231C9.10772 12.8307 9.26929 12.1844 9.37701 11.5919C9.43087 11.4304 9.48473 11.2149 9.53858 11.0534C9.75402 10.5686 10.131 10.3532 10.6158 10.5148C11.0466 10.6764 11.2082 11.1072 11.0466 11.5919C10.7235 12.5614 10.5619 13.5308 10.5619 14.5542C10.6696 18.2704 13.6318 21.5019 17.2942 21.9328C21.4951 22.4175 25.1037 19.7246 25.8577 15.5775C26.6656 11.3765 23.5418 7.17556 19.287 6.63697C18.0482 6.4754 16.8095 6.63697 15.6246 7.06784C15.1399 7.22942 14.7628 7.1217 14.5474 6.74469C14.332 6.31382 14.4936 5.8291 14.9783 5.61366C16.2709 5.12894 17.6712 4.85965 19.0715 5.07508C23.2186 5.61366 25.9654 7.87572 27.2041 11.9151C27.2041 11.969 27.2041 11.969 27.258 12.0767C27.3657 11.969 27.4734 11.9151 27.5273 11.8074C28.2813 11.0534 29.0353 10.2993 29.7893 9.54533C30.9742 8.4143 32.5361 8.4143 33.721 9.54533C35.2829 11.1072 36.8448 12.6691 38.4605 14.2849C38.4605 14.1233 38.5144 14.0694 38.5144 13.9617C38.5144 13.5308 38.5144 13.1538 38.5144 12.723C38.5144 11.969 38.7837 11.6997 39.5377 11.6997C40.8303 11.6997 42.1229 11.6997 43.4155 11.6997C44.2234 11.6997 44.4388 11.969 44.4388 12.7768C44.4388 15.1466 44.4388 17.5164 44.4388 19.8861C44.4388 20.1554 44.4927 20.3709 44.7081 20.5863C46.0546 21.9328 47.401 23.2792 48.7475 24.6257C49.2861 25.1643 49.2861 25.5413 48.7475 26.0799C47.9396 26.8877 47.1856 27.7495 46.3239 28.4496C45.893 28.8266 45.8391 29.2036 45.8391 29.6884C45.8391 33.1892 45.8391 36.69 45.8391 40.1369C45.8391 40.2985 45.8391 40.46 45.8391 40.6216C46.27 40.6216 46.7009 40.6216 47.1317 40.6216C47.778 40.6216 48.0473 40.8909 48.0473 41.5372C48.0473 42.4528 48.0473 43.4222 48.0473 44.3378C48.0473 44.8226 47.8858 45.1457 47.4549 45.3612C36.8986 45.3612 26.3424 45.3612 15.84 45.3612C15.4091 45.0919 15.3014 44.7149 15.3014 44.2301C15.3014 43.3684 15.3014 42.4528 15.3014 41.5911C15.3014 40.8909 15.5707 40.6216 16.2709 40.6216C16.6479 40.6216 17.0788 40.6216 17.5096 40.6216C17.5096 40.4062 17.5096 40.2985 17.5096 40.1369C17.5096 36.6361 17.5096 33.1892 17.5096 29.6884C17.5096 29.2036 17.4558 28.7728 17.0249 28.4496C16.2709 27.8572 15.6784 27.1032 14.9244 26.403C14.0088 25.5413 14.0088 25.2181 14.9244 24.3564C15.2476 24.0871 15.5169 23.7639 15.84 23.4408C12.7701 22.3636 10.508 20.317 9.43087 17.0855C9.21543 16.4931 9.16158 15.7929 9 15.1466C9 14.608 9 14.0156 9 13.4231ZM31.8898 15.0927C31.7821 15.1466 31.7282 15.2005 31.6744 15.3082C27.5811 19.3476 23.5418 23.4408 19.4485 27.4802C19.3408 27.5879 19.2331 27.8033 19.2331 27.9649C19.2331 32.0581 19.2331 36.0975 19.2331 40.1907C19.2331 40.2985 19.2331 40.4062 19.2331 40.5139C21.926 40.5139 24.5651 40.5139 27.258 40.5139C27.258 40.3523 27.258 40.1907 27.258 40.0292C27.258 36.9054 27.258 33.8355 27.258 30.7117C27.258 29.9577 27.5273 29.6884 28.2813 29.6884C30.6511 29.6884 32.967 29.6884 35.3368 29.6884C36.1985 29.6884 36.4139 29.9038 36.4139 30.7655C36.4139 33.8355 36.4139 36.9592 36.4139 40.0292C36.4139 40.1907 36.4139 40.3523 36.4139 40.5139C39.1068 40.5139 41.7459 40.5139 44.4388 40.5139C44.4388 40.4062 44.4388 40.2985 44.4388 40.1907C44.4388 36.0975 44.4388 32.0043 44.4388 27.911C44.4388 27.6956 44.3311 27.4802 44.1695 27.3725C40.7765 23.9255 37.3295 20.5324 33.9364 17.1394C33.2363 16.4931 32.5361 15.7929 31.8898 15.0927ZM47.3472 25.272C47.2933 25.2181 47.2933 25.1643 47.2395 25.1643C42.3922 20.317 37.5449 15.4697 32.6977 10.6225C32.1052 10.0301 31.5128 10.0301 30.9204 10.6225C29.8971 11.6458 28.8199 12.723 27.7966 13.7463C27.6889 13.9079 27.5811 14.1233 27.5811 14.3387C27.5273 14.8234 27.5273 15.3082 27.4196 15.8468C27.3119 16.4392 27.1503 17.0855 26.9887 17.7318C28.389 16.3315 29.7355 14.985 31.0819 13.6386C31.7282 12.9923 32.0514 12.9923 32.6977 13.6386C37.0064 17.9472 41.2612 22.202 45.5698 26.5107C45.6776 26.6184 45.7314 26.78 45.7853 26.8877C46.3239 26.2953 46.8086 25.8106 47.3472 25.272ZM34.7982 31.3041C32.8054 31.3041 30.8126 31.3041 28.8737 31.3041C28.8737 34.374 28.8737 37.444 28.8737 40.5139C30.8665 40.5139 32.8593 40.5139 34.7982 40.5139C34.7982 37.444 34.7982 34.4279 34.7982 31.3041ZM17.0788 43.6915C26.9348 43.6915 36.7909 43.6915 46.5932 43.6915C46.5932 43.153 46.5932 42.6682 46.5932 42.1835C36.7371 42.1835 26.881 42.1835 17.0788 42.1835C17.0788 42.7221 17.0788 43.2068 17.0788 43.6915ZM40.184 13.2616C40.184 14.1233 40.184 14.9312 40.184 15.6852C40.184 15.7929 40.2917 15.9545 40.3456 16.0622C40.8303 16.6008 41.3689 17.0855 41.9075 17.6241C42.2306 17.9472 42.5538 18.3242 42.9846 18.7013C42.9846 16.8162 42.9846 15.0389 42.9846 13.2616C42.0152 13.2616 41.1535 13.2616 40.184 13.2616ZM17.8866 26.78C19.1254 25.5413 20.418 24.2487 21.6567 23.0099C21.6567 23.0099 21.6567 23.0099 21.6029 23.0099C20.5257 23.4408 19.3408 23.6562 18.2098 23.6024C18.1021 23.6024 17.9944 23.6562 17.8866 23.7101C17.3481 24.1948 16.8633 24.7334 16.3247 25.272C16.8633 25.7567 17.3481 26.2953 17.8866 26.78Z" fill="#20DEC2"/>
<path d="M17.5109 18.5398C17.0261 18.3244 16.5414 18.109 16.1106 17.8935C15.6797 17.6242 15.572 17.1934 15.7874 16.7625C16.0028 16.3855 16.4876 16.2778 16.9184 16.5471C17.3493 16.8164 17.834 16.9241 18.3726 16.8702C18.9112 16.8164 19.3421 16.4394 19.3959 15.9008C19.4498 15.4699 19.2343 15.1468 18.6958 14.9313C18.1033 14.662 17.5109 14.4466 16.9723 14.1773C16.2183 13.8003 15.8413 13.1001 15.8951 12.2923C15.949 11.3767 16.3798 10.6765 17.1877 10.2995C17.4032 10.1918 17.5109 10.0841 17.5647 9.81478C17.5647 9.38392 17.9417 9.11462 18.3726 9.11462C18.8035 9.11462 19.1266 9.43778 19.1266 9.86864C19.1266 10.0841 19.2343 10.1918 19.3959 10.2457C19.6652 10.3534 19.8806 10.4611 20.0961 10.5688C20.4731 10.8381 20.5808 11.269 20.3654 11.646C20.1499 12.023 19.7191 12.1307 19.2882 11.9153C18.965 11.7537 18.6419 11.646 18.3187 11.5921C17.8879 11.5383 17.6186 11.8075 17.5647 12.1846C17.457 12.5616 17.7263 12.777 17.9956 12.8847C18.4265 13.1001 18.8573 13.2617 19.2882 13.4233C20.3115 13.8003 20.9578 14.5543 21.0117 15.6853C21.0655 16.7087 20.4192 17.732 19.4498 18.2167C19.2882 18.3244 19.1805 18.3783 19.1805 18.5937C19.1805 19.0784 18.8573 19.4016 18.4265 19.4554C17.9956 19.4554 17.6724 19.1323 17.6186 18.6476C17.5109 18.5937 17.5109 18.5937 17.5109 18.5398Z" fill="#20DEC2"/>
<path d="M11.4766 8.30687C11.4766 7.87601 11.7997 7.55286 12.2306 7.55286C12.6614 7.55286 13.0385 7.87601 13.0385 8.30687C13.0385 8.73774 12.6614 9.11475 12.2306 9.11475C11.8536 9.06089 11.4766 8.73774 11.4766 8.30687Z" fill="#20DEC2"/>
<path d="M31.8887 21.0178C33.7737 21.0717 35.2279 22.5797 35.174 24.4109C35.1202 26.2421 33.6121 27.6963 31.781 27.6963C29.8959 27.6424 28.4417 26.1344 28.4956 24.2493C28.5494 22.472 30.1113 21.0178 31.8887 21.0178ZM31.8348 22.6336C30.8654 22.6336 30.0575 23.4414 30.0575 24.4109C30.0575 25.3804 30.8654 26.1344 31.8348 26.1344C32.8043 26.1344 33.6121 25.3265 33.6121 24.357C33.6121 23.3876 32.8043 22.6336 31.8348 22.6336Z" fill="#20DEC2"/>
</svg>
