<svg width="33" height="31" viewBox="0 0 33 31" fill="none" xmlns="http://www.w3.org/2000/svg">
<g filter="url(#filter0_d_555_115)">
<path d="M25.3639 19.9065C24.8609 19.9065 24.3514 19.913 23.8484 19.8999C23.6851 19.8933 23.6133 19.9524 23.5479 20.1034C22.9992 21.3835 21.6928 22.1318 20.3014 21.9743C18.9688 21.8233 17.8518 20.7795 17.5971 19.4338C17.2966 17.8714 18.2307 16.3222 19.7592 15.8364C21.2617 15.3638 22.9078 16.1121 23.5349 17.576C23.6198 17.7664 23.7112 17.8058 23.8942 17.7992C24.9132 17.7927 25.9322 17.7927 26.9578 17.7992C27.4934 17.8058 27.9049 18.1669 27.9899 18.6986C28.0683 19.1844 27.7743 19.6833 27.2974 19.8342C27.1537 19.8802 26.9904 19.8933 26.8402 19.8999C26.3372 19.9065 25.8538 19.9065 25.3639 19.9065Z" fill="white" stroke="#170A49" stroke-width="0.5"/>
<path d="M7.59622 10.4524C8.11226 10.4524 8.62178 10.4458 9.13782 10.4589C9.31419 10.4655 9.38605 10.4064 9.4579 10.2423C9.99355 8.99505 11.2935 8.227 12.6064 8.35829C13.9782 8.49615 15.0756 9.46114 15.3761 10.8003C15.7354 12.3692 14.847 13.971 13.3315 14.483C11.803 15.0016 10.1438 14.2861 9.48403 12.8156C9.38605 12.599 9.275 12.5399 9.04637 12.5399C8.04041 12.553 7.04098 12.5465 6.03501 12.5399C5.57122 12.5333 5.21195 12.2708 5.06171 11.8506C4.918 11.4436 5.02905 10.9907 5.35566 10.7084C5.55816 10.5246 5.79985 10.4458 6.07421 10.4458C6.58372 10.4524 7.0867 10.4524 7.59622 10.4524Z" fill="white" stroke="#170A49" stroke-width="0.5"/>
<path d="M24.8742 1.00021C26.6118 1.0199 28.0032 2.41815 27.9966 4.15776C27.9901 5.89736 26.5595 7.32187 24.8285 7.30218C23.104 7.28248 21.7126 5.85797 21.7257 4.12493C21.7518 2.3722 23.1497 0.980513 24.8742 1.00021Z" fill="white" stroke="#170A49" stroke-width="0.5"/>
<path d="M12.3058 5.19441C10.235 5.19441 8.1578 5.19441 6.08708 5.19441C5.362 5.19441 4.86555 4.5839 5.03539 3.89463C5.13337 3.48762 5.4012 3.23161 5.80619 3.12657C5.92377 3.10031 6.04789 3.09375 6.172 3.09375C10.2677 3.09375 14.3634 3.09375 18.4591 3.09375C18.6224 3.09375 18.7857 3.11344 18.936 3.16596C19.3998 3.32351 19.6872 3.80272 19.6219 4.2885C19.55 4.79397 19.132 5.18128 18.6159 5.19441C18.1195 5.20754 17.623 5.20097 17.12 5.20097C15.5196 5.19441 13.9127 5.19441 12.3058 5.19441Z" fill="white" stroke="#170A49" stroke-width="0.5"/>
<path d="M10.2415 17.7995C11.6264 17.7995 13.0177 17.793 14.4026 17.7995C14.9447 17.7995 15.3497 18.1671 15.4412 18.6923C15.5196 19.1847 15.2322 19.677 14.7553 19.8345C14.6181 19.8805 14.4679 19.9002 14.3242 19.9002C11.6002 19.9068 8.86977 19.9002 6.14583 19.9002C5.68204 19.9002 5.31623 19.7229 5.11373 19.2897C4.93083 18.9024 4.98309 18.5216 5.25091 18.1803C5.46647 17.9046 5.76043 17.793 6.11317 17.793C7.4784 17.7995 8.8567 17.7995 10.2415 17.7995Z" fill="white" stroke="#170A49" stroke-width="0.5"/>
<path d="M22.7638 12.5407C21.3855 12.5407 20.0072 12.5472 18.6289 12.5407C17.9104 12.5341 17.427 11.9498 17.5772 11.2671C17.6752 10.8207 18.0541 10.4859 18.5048 10.4597C18.5701 10.4531 18.6354 10.4531 18.7008 10.4531C21.4182 10.4531 24.1356 10.4531 26.853 10.4531C27.4605 10.4531 27.872 10.7682 27.9765 11.3C28.0941 11.9301 27.6499 12.521 27.0032 12.5341C26.3435 12.5538 25.6837 12.5407 25.0174 12.5407C24.2662 12.5472 23.515 12.5472 22.7638 12.5407Z" fill="white" stroke="#170A49" stroke-width="0.5"/>
</g>
<defs>
<filter id="filter0_d_555_115" x="-1" y="0" width="35" height="31" filterUnits="userSpaceOnUse" color-interpolation-filters="sRGB">
<feFlood flood-opacity="0" result="BackgroundImageFix"/>
<feColorMatrix in="SourceAlpha" type="matrix" values="0 0 0 0 0 0 0 0 0 0 0 0 0 0 0 0 0 0 127 0" result="hardAlpha"/>
<feOffset dy="4"/>
<feGaussianBlur stdDeviation="2"/>
<feComposite in2="hardAlpha" operator="out"/>
<feColorMatrix type="matrix" values="0 0 0 0 0 0 0 0 0 0 0 0 0 0 0 0 0 0 0.25 0"/>
<feBlend mode="normal" in2="BackgroundImageFix" result="effect1_dropShadow_555_115"/>
<feBlend mode="normal" in="SourceGraphic" in2="effect1_dropShadow_555_115" result="shape"/>
</filter>
</defs>
</svg>
