<svg width="31" height="30" viewBox="0 0 31 30" fill="none" xmlns="http://www.w3.org/2000/svg">
<path d="M18.1086 19.8658C18.0713 19.8933 18.0445 19.9131 18.0202 19.9331C15.8174 21.5447 13.3792 22.1165 10.6901 21.6274L10.69 21.6274C7.10218 20.9759 4.11864 18.0662 3.37309 14.4889C3.30869 14.1657 3.25982 13.8381 3.2104 13.5068C3.19069 13.3747 3.1709 13.242 3.15 13.1087V13.1079V13.1054V13.1028V13.1003V13.0978V13.0953V13.0928V13.0903V13.0877V13.0852V13.0827V13.0802V13.0777V13.0752V13.0726V13.0701V13.0676V13.0651V13.0626V13.0601V13.0576V13.055V13.0525V13.05V13.0475V13.045V13.0425V13.0399V13.0374V13.0349V13.0324V13.0299V13.0274V13.0248V13.0223V13.0198V13.0173V13.0148V13.0123V13.0098V13.0072V13.0047V13.0022V12.9997V12.9972V12.9947V12.9921V12.9896V12.9871V12.9846V12.9821V12.9796V12.977V12.9745V12.972V12.9695V12.967V12.9645V12.962V12.9594V12.9569V12.9544V12.9519V12.9494V12.9469V12.9443V12.9418V12.9393V12.9368V12.9343V12.9318V12.9292V12.9267V12.9242V12.9217V12.9192V12.9167V12.9142V12.9116V12.9091V12.9066V12.9041V12.9016V12.8991V12.8965V12.894V12.8915V12.889V12.8865V12.884V12.8815V12.8789V12.8764V12.8739V12.8714V12.8689V12.8664V12.8638V12.8613V12.8588V12.8563V12.8538V12.8513V12.8487V12.8462V12.8437V12.8412V12.8387V12.8362V12.8337V12.8311V12.8286V12.8261V12.8236V12.8211V12.8186V12.816V12.8135V12.811V12.8085V12.806V12.8035V12.8009V12.7984V12.7959V12.7934V12.7909V12.7884V12.7859V12.7833V12.7808V12.7783V12.7758V12.7733V12.7708V12.7682V12.7657V12.7632V12.7607V12.7582V12.7557V12.7531V12.7506V12.7481V12.7456V12.7431V12.7406V12.7381V12.7355V12.733V12.7305V12.728V12.7255V12.723V12.7204V12.7179V12.7154V12.7129V12.7104V12.7079V12.7053V12.7028V12.7003V12.6978V12.6953V12.6928V12.6903V12.6877V12.6852V12.6827V12.6802V12.6777V12.6752V12.6726V12.6701V12.6676V12.6651V12.6626V12.6601V12.6576V12.655V12.6525V12.65V12.6475V12.645V12.6425V12.6399V12.6374V12.6349V12.6324V12.6299V12.6274V12.6248V12.6223V12.6198V12.6173V12.6148V12.6123V12.6098V12.6072V12.6047V12.6022V12.5997V12.5972V12.5947V12.5921V12.5896V12.5871V12.5846V12.5821V12.5796V12.577V12.5745V12.572V12.5695V12.567V12.5645V12.562V12.5594V12.5569V12.5544V12.5519V12.5494V12.5469V12.5443V12.5418V12.5393V12.5368V12.5343V12.5318V12.5292V12.5267V12.5242V12.5217V12.5192V12.5167V12.5142V12.5116V12.5091V12.5066V12.5041V12.5016V12.4991V12.4965V12.494V12.4915V12.489V12.4865V12.484V12.4814V12.4789V12.4764V12.4739V12.4714V12.4689V12.4664V12.4638V12.4613V12.4588V12.4563V12.4538V12.4513V12.4487V12.4462V12.4437V12.4412V12.4387V12.4362V12.4337V12.4311V12.4286V12.4261V12.4236V12.4211V12.4186V12.416V12.4135V12.411V12.4085V12.406V12.4035V12.4009V12.3984V12.3959V12.3934V12.3909V12.3884V12.3859V12.3833V12.3808V12.3783V12.3758V12.3733V12.3708V12.3682V12.3657V12.3632V12.3607V12.3582V12.3557V12.3531V12.3506V12.3481V12.3456V12.3431V12.3406V12.3381V12.3355V12.333V12.3305V12.328V12.3255V12.323V12.3204V12.3179V12.3154V12.3129V12.3104V12.3079V12.3053V12.3028V12.3003V12.2978V12.2953V12.2928V12.2903V12.2877V12.2852V12.2827V12.2802V12.2777V12.2752V12.2726V12.2701V12.2676V12.2651V12.2626V12.2601V12.2575V12.255V12.2525V12.25V12.2475V12.245V12.2425V12.2399V12.2374V12.2349V12.2324V12.2299V12.2274V12.2248V12.2223V12.2198V12.2173V12.2148V12.2123V12.2098V12.2072V12.2047V12.2022V12.1997V12.1972V12.1947V12.1921V12.1896V12.1871V12.1846V12.1821V12.1796V12.177V12.1745V12.172V12.1695V12.167V12.1645V12.162V12.1594V12.1569V12.1544V12.1519V12.1494V12.1469V12.1443V12.1418V12.1393V12.1368V12.1343V12.1318V12.1292V12.1267V12.1242V12.1217V12.1192V12.1167V12.1142V12.1116V12.1091V12.1066V12.1041V12.1016V12.0991V12.0965V12.094V12.0915V12.089V12.0865V12.084V12.0814V12.0789V12.0764V12.0739V12.0714V12.0689V12.0664V12.0638V12.0613V12.0588V12.0563V12.0538V12.0513V12.0487V12.0462V12.0437V12.0412V12.0387V12.0362V12.0336V12.0311V12.0286V12.0261V12.0236V12.0211V12.0186V12.016V12.0135V12.011V12.0085V12.006V12.0035V12.0009V11.9984V11.9959V11.9934V11.9909V11.9884V11.9858V11.9833V11.9808V11.9783V11.9758V11.9733V11.9708V11.9682V11.9657V11.9632V11.9607V11.9582V11.9557V11.9531V11.9506V11.9481V11.9456V11.9431V11.9406V11.9381V11.9355V11.933V11.9305V11.928V11.9255V11.923V11.9204V11.9179V11.9154V11.9129V11.9104V11.9079V11.9053V11.9028V11.9003V11.8978V11.8953V11.8928V11.8903V11.8877V11.8852V11.8827V11.8802V11.8777V11.8752V11.8726V11.8701V11.8676V11.8651V11.8626V11.8601V11.8575V11.855V11.8525V11.85V11.8475V11.845V11.844C3.17368 11.6913 3.19523 11.5411 3.2166 11.3922C3.25059 11.1553 3.2841 10.9218 3.3249 10.6871C3.97426 7.11591 6.89203 4.10966 10.4307 3.37999C10.7327 3.31781 11.0327 3.27377 11.3383 3.2289C11.5083 3.20395 11.6801 3.17874 11.8549 3.15H11.8572H11.8597H11.8621H11.8645H11.867H11.8694H11.8718H11.8743H11.8767H11.8791H11.8816H11.884H11.8864H11.8889H11.8913H11.8937H11.8962H11.8986H11.901H11.9035H11.9059H11.9083H11.9108H11.9132H11.9156H11.9181H11.9205H11.9229H11.9253H11.9278H11.9302H11.9326H11.9351H11.9375H11.9399H11.9424H11.9448H11.9472H11.9496H11.9521H11.9545H11.9569H11.9594H11.9618H11.9642H11.9666H11.9691H11.9715H11.9739H11.9764H11.9788H11.9812H11.9836H11.9861H11.9885H11.9909H11.9934H11.9958H11.9982H12.0006H12.0031H12.0055H12.0079H12.0103H12.0128H12.0152H12.0176H12.02H12.0225H12.0249H12.0273H12.0297H12.0322H12.0346H12.037H12.0394H12.0419H12.0443H12.0467H12.0492H12.0516H12.054H12.0564H12.0588H12.0613H12.0637H12.0661H12.0685H12.071H12.0734H12.0758H12.0782H12.0807H12.0831H12.0855H12.0879H12.0904H12.0928H12.0952H12.0976H12.1001H12.1025H12.1049H12.1073H12.1097H12.1122H12.1146H12.117H12.1194H12.1219H12.1243H12.1267H12.1291H12.1315H12.134H12.1364H12.1388H12.1412H12.1437H12.1461H12.1485H12.1509H12.1533H12.1558H12.1582H12.1606H12.163H12.1655H12.1679H12.1703H12.1727H12.1751H12.1776H12.18H12.1824H12.1848H12.1872H12.1897H12.1921H12.1945H12.1969H12.1993H12.2018H12.2042H12.2066H12.209H12.2114H12.2139H12.2163H12.2187H12.2211H12.2235H12.226H12.2284H12.2308H12.2332H12.2356H12.2381H12.2405H12.2429H12.2453H12.2477H12.2502H12.2526H12.255H12.2574H12.2598H12.2622H12.2647H12.2671H12.2695H12.2719H12.2743H12.2768H12.2792H12.2816H12.284H12.2864H12.2888H12.2913H12.2937H12.2961H12.2985H12.3009H12.3034H12.3058H12.3082H12.3106H12.313H12.3154H12.3179H12.3203H12.3227H12.3251H12.3275H12.33H12.3324H12.3348H12.3372H12.3396H12.342H12.3445H12.3469H12.3493H12.3517H12.3541H12.3566H12.359H12.3614H12.3638H12.3662H12.3686H12.3711H12.3735H12.3759H12.3783H12.3807H12.3831H12.3856H12.388H12.3904H12.3928H12.3952H12.3976H12.4001H12.4025H12.4049H12.4073H12.4097H12.4121H12.4146H12.417H12.4194H12.4218H12.4242H12.4267H12.4291H12.4315H12.4339H12.4363H12.4387H12.4412H12.4436H12.446H12.4484H12.4508H12.4532H12.4557H12.4581H12.4605H12.4629H12.4653H12.4677H12.4702H12.4726H12.475H12.4774H12.4798H12.4822H12.4847H12.4871H12.4895H12.4919H12.4943H12.4967H12.4992H12.5016H12.504H12.5064H12.5088H12.5112H12.5137H12.5161H12.5185H12.5209H12.5233H12.5257H12.5282H12.5306H12.533H12.5354H12.5378H12.5402H12.5427H12.5451H12.5475H12.5499H12.5523H12.5548H12.5572H12.5596H12.562H12.5644H12.5668H12.5693H12.5717H12.5741H12.5765H12.5789H12.5813H12.5838H12.5862H12.5886H12.591H12.5934H12.5959H12.5983H12.6007H12.6031H12.6055H12.6079H12.6104H12.6128H12.6152H12.6176H12.62H12.6224H12.6249H12.6273H12.6297H12.6321H12.6345H12.637H12.6394H12.6418H12.6442H12.6466H12.6491H12.6515H12.6539H12.6563H12.6587H12.6611H12.6636H12.666H12.6684H12.6708H12.6732H12.6757H12.6781H12.6805H12.6829H12.6853H12.6878H12.6902H12.6926H12.695H12.6974H12.6999H12.7023H12.7047H12.7071H12.7095H12.712H12.7144H12.7168H12.7192H12.7216H12.7241H12.7265H12.7289H12.7313H12.7337H12.7362H12.7386H12.741H12.7434H12.7458H12.7483H12.7507H12.7531H12.7555H12.7579H12.7604H12.7628H12.7652H12.7676H12.77H12.7725H12.7749H12.7773H12.7797H12.7822H12.7846H12.787H12.7894H12.7918H12.7943H12.7967H12.7991H12.8015H12.804H12.8064H12.8088H12.8112H12.8136H12.8161H12.8185H12.8209H12.8233H12.8258H12.8282H12.8306H12.833H12.8354H12.8379H12.8403H12.8427H12.8451H12.8476H12.85H12.8524H12.8548H12.8573H12.8597H12.8621H12.8645H12.867H12.8694H12.8718H12.8742H12.8767H12.8791H12.8815H12.8839H12.8864H12.8888H12.8912H12.8936H12.8961H12.8985H12.9009H12.9033H12.9058H12.9082H12.9106H12.913H12.9155H12.9179H12.9203H12.9228H12.9252H12.9276H12.93H12.9325H12.9349H12.9373H12.9397H12.9422H12.9446H12.947H12.9495H12.9519H12.9543H12.9567H12.9592H12.9616H12.964H12.9665H12.9689H12.9713H12.9737H12.9762H12.9786H12.981H12.9835H12.9859H12.9883H12.9907H12.9932H12.9956H12.998H13.0005H13.0029H13.0053H13.0078H13.0102H13.0126H13.015H13.0175H13.0199H13.0223H13.0248H13.0272H13.0296H13.0321H13.0345H13.0369H13.0394H13.0418H13.0442H13.0467H13.0491H13.0515H13.054H13.0564H13.0588H13.0613H13.0637H13.0661H13.0675C13.0883 3.15459 13.1093 3.1601 13.1335 3.16649L13.1351 3.16692C13.1631 3.17433 13.1959 3.18297 13.2309 3.19L13.2309 3.19004L13.2342 3.19064C13.4239 3.22422 13.6092 3.25157 13.7917 3.2785C14.1261 3.32784 14.4511 3.37578 14.7754 3.45814C20.5476 4.94286 23.447 11.5105 20.6625 16.7982L20.6624 16.7986C20.4887 17.1305 20.2886 17.4479 20.076 17.7852C19.9779 17.9409 19.8771 18.1007 19.775 18.2682L19.7042 18.3843L19.8129 18.4661C19.8358 18.4834 19.8578 18.4987 19.8793 18.5136C19.9185 18.5408 19.9561 18.5668 19.995 18.602C21.9007 20.5147 23.8065 22.4276 25.7123 24.3343C25.9701 24.5931 26.1979 24.8358 26.3163 25.1504V25.1509V25.1518V25.1527V25.1536V25.1545V25.1554V25.1563V25.1572V25.1581V25.159V25.1598V25.1607V25.1616V25.1625V25.1634V25.1643V25.1652V25.1661V25.167V25.1679V25.1688V25.1697V25.1706V25.1715V25.1724V25.1733V25.1742V25.1751V25.176V25.1769V25.1778V25.1787V25.1796V25.1805V25.1814V25.1823V25.1832V25.1841V25.185V25.1859V25.1868V25.1877V25.1886V25.1895V25.1904V25.1913V25.1922V25.1931V25.194V25.1949V25.1958V25.1967V25.1976V25.1985V25.1994V25.2003V25.2012V25.2021V25.203V25.2039V25.2048V25.2057V25.2066V25.2075V25.2084V25.2093V25.2102V25.2111V25.212V25.2129V25.2138V25.2147V25.2156V25.2165V25.2174V25.2183V25.2191V25.22V25.2209V25.2218V25.2227V25.2236V25.2245V25.2254V25.2263V25.2272V25.2281V25.229V25.2299V25.2308V25.2317V25.2326V25.2335V25.2344V25.2353V25.2362V25.2371V25.238V25.2389V25.2398V25.2407V25.2416V25.2425V25.2434V25.2443V25.2452V25.2461V25.247V25.2479V25.2488V25.2497V25.2506V25.2515V25.2524V25.2533V25.2542V25.2551V25.256V25.2569V25.2578V25.2587V25.2596V25.2605V25.2614V25.2623V25.2632V25.2641V25.265V25.2659V25.2668V25.2677V25.2686V25.2695V25.2704V25.2713V25.2722V25.2731V25.274V25.2749V25.2758V25.2766V25.2775V25.2784V25.2793V25.2802V25.2811V25.282V25.2829V25.2838V25.2847V25.2856V25.2865V25.2874V25.2883V25.2892V25.2901V25.291V25.2919V25.2928V25.2937V25.2946V25.2955V25.2964V25.2973V25.2982V25.2991V25.3V25.3009V25.3018V25.3027V25.3036V25.3045V25.3054V25.3063V25.3072V25.3081V25.309V25.3099V25.3108V25.3117V25.3126V25.3135V25.3144V25.3153V25.3162V25.3171V25.318V25.3189V25.3198V25.3207V25.3216V25.3225V25.3234V25.3243V25.3252V25.3261V25.327V25.3279V25.3288V25.3297V25.3306V25.3315V25.3324V25.3333V25.3342V25.3351V25.3359V25.3368V25.3377V25.3386V25.3395V25.3404V25.3413V25.3422V25.3431V25.344V25.3449V25.3458V25.3467V25.3476V25.3485V25.3494V25.3503V25.3512V25.3521V25.353V25.3539V25.3548V25.3557V25.3566V25.3575V25.3584V25.3593V25.3602V25.3611V25.362V25.3629V25.3638V25.3647V25.3656V25.3665V25.3674V25.3683V25.3692V25.3701V25.371V25.3719V25.3728V25.3737V25.3746V25.3755V25.3764V25.3773V25.3782V25.3791V25.38V25.3809V25.3818V25.3827V25.3836V25.3845V25.3854V25.3863V25.3872V25.3881V25.389V25.3899V25.3908V25.3917V25.3926V25.3935V25.3944V25.3952V25.3961V25.397V25.3979V25.3988V25.3997V25.4006V25.4015V25.4024V25.4033V25.4042V25.4051V25.406V25.4069V25.4078V25.4087V25.4096V25.4105V25.4114V25.4123V25.4132V25.4141V25.415V25.4159V25.4168V25.4177V25.4186V25.4195V25.4204V25.4213V25.4222V25.4231V25.424V25.4249V25.4258V25.4267V25.4276V25.4285V25.4294V25.4303V25.4312V25.4321V25.433V25.4339V25.4348V25.4357V25.4366V25.4375V25.4384V25.4393V25.4402V25.4411V25.442V25.4429V25.4438V25.4447V25.4456V25.4465V25.4474V25.4483V25.4492V25.4501V25.451V25.4519V25.4528V25.4536V25.4545V25.4554V25.4563V25.4572V25.4581V25.459V25.4599V25.4608V25.4617V25.4626V25.4635V25.4644V25.4653V25.4662V25.4671V25.468V25.4689V25.4698V25.4707V25.4716V25.4725V25.4734V25.4743V25.4752V25.4761V25.477V25.4779V25.4788V25.4797V25.4806V25.4815V25.4824V25.4833V25.4842V25.4851V25.486V25.4869V25.4878V25.4887V25.4896V25.4905V25.4914V25.4923V25.4932V25.4941V25.495V25.4959V25.4968V25.4977V25.4986V25.4995V25.5004V25.5013V25.5022V25.5031V25.504V25.5049V25.5058V25.5067V25.5076V25.5085V25.5094V25.5103V25.5112V25.5121V25.5129V25.5138V25.5147V25.5156V25.5165V25.5174V25.5183V25.5192V25.5201V25.521V25.5219V25.5228V25.5237V25.5246V25.5255V25.5264V25.5273V25.5282V25.5291V25.53V25.5309V25.5318V25.5327V25.5336V25.5345V25.5354V25.5363V25.5372V25.5381V25.539V25.5399V25.5408V25.5417V25.5426V25.5435V25.5444V25.5453V25.5462V25.5471V25.548V25.5489V25.5498V25.5507V25.5516V25.5525V25.5534V25.5543V25.5552V25.5561V25.557V25.557C26.216 25.8252 26.1065 26.0479 25.9011 26.1989C25.4737 26.5114 24.9383 26.4632 24.5006 26.0297C24.5005 26.0296 24.5004 26.0295 24.5002 26.0294L18.5274 20.0345C18.4997 20.0029 18.4805 19.968 18.4539 19.9195C18.4423 19.8983 18.4292 19.8745 18.4133 19.8472L18.3284 19.7012L18.1934 19.8028C18.1597 19.8282 18.132 19.8485 18.1086 19.8658ZM12.4606 5.19917L12.4603 5.19917C8.47821 5.18664 5.20306 8.44962 5.19052 12.4513C5.17186 16.4474 8.41645 19.7225 12.4161 19.7475C16.3991 19.7726 19.6677 16.5089 19.6864 12.4955C19.7051 8.49334 16.4606 5.21796 12.4606 5.19917Z" fill="white" stroke="#092F52" stroke-width="0.3"/>
</svg>
