<svg width="59" height="57" viewBox="0 0 59 57" fill="none" xmlns="http://www.w3.org/2000/svg">
<circle cx="29.0859" cy="28.0859" r="27.0859" fill="#E92F24"/>
<path d="M12.7383 21.8806C12.9042 21.3061 13.0876 20.74 13.4894 20.2655C14.1794 19.4496 15.0528 18.9834 16.1445 18.9501C16.9044 18.9251 17.6555 18.9335 18.4153 18.9335C22.6251 18.9335 26.8436 18.9335 31.0533 18.9335C32.6342 18.9335 33.8132 19.5662 34.477 20.9398C34.6954 21.406 34.8002 21.9555 34.8002 22.4716C34.8264 26.2096 34.8176 29.9559 34.8089 33.7023C34.8089 35.4922 33.6298 36.8658 31.8481 37.1905C31.5774 37.2404 31.2979 37.2404 31.0184 37.2404C26.1885 37.2404 21.3587 37.2404 16.5288 37.2404C14.5462 37.2404 13.2099 36.2165 12.7907 34.3683C12.782 34.3433 12.7557 34.3183 12.7383 34.2933C12.7383 30.1558 12.7383 26.0182 12.7383 21.8806Z" fill="white"/>
<path d="M45.4247 28.0821C45.4247 29.8304 45.4334 31.5704 45.4247 33.3186C45.4159 34.7089 44.0534 35.6747 42.6822 35.2834C42.4551 35.2168 42.2281 35.1086 42.0184 34.992C40.2979 34.0596 38.586 33.1188 36.8654 32.1864C36.6645 32.0782 36.5859 31.9617 36.5859 31.7369C36.5947 29.2893 36.5947 26.85 36.5859 24.4024C36.5859 24.2359 36.5947 24.1027 36.7868 24.0028C38.5947 23.0205 40.3939 22.0131 42.2106 21.0391C43.4333 20.3814 44.9006 20.9558 45.3199 22.2296C45.3985 22.4627 45.4159 22.7291 45.4159 22.9788C45.4334 24.6688 45.4247 26.3755 45.4247 28.0821Z" fill="white"/>
</svg>
