<svg width="31" height="40" viewBox="0 0 31 40" fill="none" xmlns="http://www.w3.org/2000/svg">
<path d="M22.1723 4C22.7218 4.17413 23.2411 4.42398 23.4594 4.9918C23.5949 5.34764 23.625 5.7489 23.6777 6.13502C23.7078 6.33187 23.6852 6.53629 23.6852 6.78613C24.0465 6.78613 24.3928 6.78613 24.739 6.78613C25.01 6.78613 25.281 6.77856 25.5519 6.7937C26.5003 6.8467 27.2606 7.53566 27.2831 8.48203C27.3283 10.6246 26.8692 12.6309 25.4767 14.3268C24.7616 15.1975 23.8659 15.8032 22.7971 16.1439C22.5938 16.212 22.4583 16.3029 22.3605 16.5073C21.3669 18.5969 19.9293 20.3231 18.0325 21.6404C17.3475 22.1174 17.0389 22.7307 17.0615 23.5635C17.0841 24.5023 17.0615 25.4411 17.0765 26.3799C17.0765 26.4707 17.1443 26.6222 17.2196 26.6524C18.2583 27.0537 18.7852 27.8259 18.883 28.954C19.0712 28.954 19.2594 28.9465 19.4475 28.954C20.5089 28.9843 21.2691 29.7338 21.2766 30.8014C21.2917 31.9749 21.2841 33.1408 21.2766 34.3143C21.2766 34.7686 21.0357 35.0108 20.5841 35.0108C16.6325 35.0108 12.6733 35.0108 8.7216 35.0108C8.26998 35.0108 8.02911 34.7686 8.02911 34.3143C8.02159 33.1408 8.01406 31.9749 8.02911 30.8014C8.04417 29.7338 8.80439 28.9843 9.85817 28.954C10.0388 28.9465 10.2195 28.954 10.37 28.954C10.4754 28.583 10.5431 28.2272 10.6861 27.9017C10.9496 27.3035 11.4163 26.8947 12.0259 26.6752C12.1915 26.6146 12.2367 26.5464 12.2367 26.3723C12.2292 25.3654 12.2292 24.3509 12.2367 23.3439C12.2367 22.6322 11.9206 22.0947 11.341 21.6934C9.65494 20.5199 8.2775 19.0512 7.3291 17.219C6.97534 16.53 6.51619 16.1439 5.81618 15.841C4.28068 15.1824 3.3097 13.9332 2.69248 12.4038C2.1957 11.2152 2 9.95081 2 8.66374C2 7.58866 2.76775 6.81641 3.83658 6.7937C4.41616 6.77856 4.99574 6.7937 5.61295 6.7937C5.61295 6.52114 5.61295 6.2713 5.61295 6.02146C5.61295 4.96152 6.04199 4.37098 7.04308 4.053C7.07319 4.04543 7.09577 4.02271 7.11835 4.00757C12.1313 4 17.1518 4 22.1723 4ZM17.6411 28.9465C17.6034 28.2726 17.1819 27.8335 16.5497 27.7502C16.0152 27.6821 15.8496 27.5004 15.8496 26.9704C15.8496 25.7666 15.8421 24.5704 15.8572 23.3666C15.8572 23.0789 15.8948 22.7837 15.9626 22.5035C16.1583 21.6404 16.7529 21.0953 17.4303 20.5881C20.7121 18.1351 22.3906 14.8341 22.4734 10.7231C22.5035 9.14828 22.4809 7.57351 22.4809 5.99874C22.4809 5.43092 22.2626 5.21893 21.6906 5.21893C16.9938 5.21893 12.2969 5.21893 7.6076 5.21893C7.02802 5.21136 6.81727 5.42335 6.81727 5.99874C6.81727 7.56594 6.81727 9.12557 6.81727 10.6928C6.81727 11.889 6.98286 13.0625 7.33663 14.2133C8.17213 16.9313 9.74527 19.1042 12.0636 20.7319C13.012 21.3982 13.4561 22.3067 13.441 23.4651C13.426 24.6083 13.441 25.7439 13.441 26.8871C13.441 27.5155 13.3131 27.667 12.7034 27.7578C12.0786 27.8411 11.6195 28.3711 11.6722 28.954C13.6518 28.9465 15.6389 28.9465 17.6411 28.9465ZM20.0648 33.7843C20.0648 32.8077 20.0648 31.8537 20.0648 30.9073C20.0648 30.3849 19.839 30.1578 19.3045 30.1578C16.1959 30.1578 13.0872 30.1578 9.9786 30.1578C9.44419 30.1578 9.2259 30.3774 9.2259 30.9149C9.2259 31.7932 9.2259 32.6714 9.2259 33.5496C9.2259 33.6253 9.24096 33.701 9.24849 33.7843C12.8539 33.7843 16.4368 33.7843 20.0648 33.7843ZM6.23016 14.7357C5.89145 13.6076 5.66564 12.5174 5.64306 11.3969C5.61295 10.2688 5.63553 9.14828 5.63553 8.00506C4.98069 8.00506 4.39358 7.98992 3.80648 8.01263C3.4226 8.02777 3.20432 8.29276 3.21184 8.70159C3.23443 9.97352 3.43013 11.2076 3.9796 12.3735C4.4538 13.3805 5.16886 14.183 6.23016 14.7357ZM23.6702 8.00506C23.6702 10.2764 23.8057 12.5249 23.0981 14.7281C23.5573 14.4253 24.0089 14.1376 24.3627 13.7515C25.7175 12.2978 26.0487 10.4808 26.0638 8.57289C26.0638 8.2549 25.8229 8.0202 25.4992 8.01263C24.9046 7.98992 24.31 8.00506 23.6702 8.00506Z" fill="#6D6D6D"/>
<path d="M11.4233 16.2268C11.5513 15.4546 11.6943 14.6445 11.8147 13.8268C11.8298 13.7133 11.7771 13.5543 11.6943 13.471C11.175 12.941 10.6405 12.4186 10.1061 11.9038C9.88784 11.6918 9.7373 11.4647 9.83515 11.1543C9.933 10.8438 10.1889 10.753 10.49 10.7151C11.2126 10.6167 11.9352 10.5031 12.6653 10.4047C12.8535 10.382 12.9589 10.2912 13.0416 10.117C13.3578 9.45077 13.689 8.79967 14.0051 8.13342C14.1331 7.86843 14.2911 7.66402 14.6073 7.65645C14.9309 7.64888 15.104 7.86086 15.232 8.13342C15.5481 8.7921 15.8868 9.45077 16.1955 10.117C16.2783 10.2912 16.3836 10.3744 16.5718 10.3972C17.3094 10.4956 18.0396 10.6091 18.7772 10.7076C19.0557 10.7454 19.289 10.8363 19.3869 11.124C19.4923 11.4192 19.3718 11.6464 19.1611 11.8508C18.6342 12.358 18.1224 12.888 17.5804 13.3877C17.4073 13.5467 17.3697 13.6981 17.4148 13.9177C17.5503 14.6445 17.6557 15.3713 17.7912 16.0905C17.8439 16.3782 17.7987 16.6205 17.5654 16.7946C17.332 16.9688 17.0761 16.9234 16.8277 16.7946C16.1653 16.4388 15.4954 16.0981 14.8331 15.7347C14.6599 15.6439 14.532 15.6514 14.3664 15.7423C13.6965 16.1057 13.0266 16.4691 12.3492 16.8174C11.875 17.0748 11.3932 16.7946 11.4233 16.2268ZM17.4449 11.7524C16.9707 11.6842 16.4815 11.6009 15.9847 11.5404C15.646 11.5025 15.4428 11.3284 15.3073 11.0255C15.0965 10.5713 14.8707 10.1246 14.6223 9.63248C14.3739 10.1322 14.1481 10.5789 13.9374 11.0331C13.8019 11.3284 13.6062 11.4949 13.2825 11.5328C12.7782 11.5934 12.2814 11.6767 11.747 11.7599C12.0782 12.1006 12.3642 12.4338 12.6954 12.7214C13.0718 13.0394 13.1771 13.4028 13.0567 13.8722C12.9513 14.2962 12.9062 14.7278 12.8309 15.2047C13.1997 15.0155 13.5309 14.8792 13.8169 14.6823C14.3739 14.2886 14.8858 14.2811 15.4428 14.6748C15.7288 14.8792 16.06 15.0079 16.4363 15.2047C16.3385 14.6521 16.2632 14.1751 16.1729 13.6981C16.1051 13.3498 16.1804 13.0773 16.4438 12.8274C16.7901 12.5019 17.1062 12.1233 17.4449 11.7524Z" fill="#6D6D6D"/>
<path d="M13.4658 31.3764C13.8271 31.3764 14.1884 31.3688 14.5497 31.3764C14.9636 31.384 15.2346 31.6263 15.2421 31.9821C15.2421 32.3304 14.9712 32.5878 14.5572 32.5878C13.812 32.5953 13.0744 32.5953 12.3292 32.5878C11.9152 32.5878 11.6442 32.3379 11.6367 31.9897C11.6367 31.6414 11.9077 31.3916 12.3217 31.384C12.7056 31.3688 13.0894 31.3764 13.4658 31.3764Z" fill="#6D6D6D"/>
<path d="M17.0672 31.3849C17.3833 31.3925 17.6618 31.6802 17.6543 31.9906C17.6467 32.3086 17.3607 32.5887 17.0521 32.5811C16.736 32.5736 16.4575 32.2859 16.465 31.9755C16.465 31.6575 16.751 31.3773 17.0672 31.3849Z" fill="#6D6D6D"/>
</svg>
