<svg width="31" height="31" viewBox="0 0 31 31" fill="none" xmlns="http://www.w3.org/2000/svg">
<g clip-path="url(#clip0_1701_393)">
<path d="M14.5053 30.8314C12.2809 30.8314 10.0565 30.8314 7.82281 30.8314C4.79537 30.8314 2.32173 28.3738 2.3125 25.3661C2.3125 23.1654 2.3125 20.9646 2.3125 18.7638C2.3125 18.2503 2.5894 17.8652 3.03244 17.7001C3.45702 17.5442 3.95544 17.6268 4.22311 18.0027C4.38925 18.2411 4.50924 18.5621 4.51847 18.8463C4.54616 21.0013 4.5277 23.1562 4.5277 25.3111C4.5277 27.1909 5.99527 28.6398 7.88742 28.6398C12.2901 28.6398 16.7021 28.6398 21.1048 28.6398C22.9969 28.6398 24.4645 27.1909 24.4645 25.3203C24.4645 23.147 24.4645 20.9646 24.4645 18.7913C24.4645 18.1769 24.8706 17.7093 25.4429 17.6451C25.9875 17.5809 26.5043 17.9294 26.6428 18.4704C26.6797 18.5988 26.6797 18.7455 26.6797 18.8739C26.6797 21.0655 26.6889 23.2479 26.6797 25.4395C26.6705 28.3463 24.2153 30.8039 21.2802 30.8405C20.1541 30.8497 19.0188 30.8405 17.8927 30.8405C16.7667 30.8314 15.6406 30.8314 14.5053 30.8314Z" fill="#454545"/>
<path d="M14.4309 2.63405C14.3571 2.74408 14.2925 2.87246 14.2002 2.97333C9.81595 7.33819 5.4317 11.6939 1.04745 16.0587C0.715175 16.3889 0.355205 16.5998 -0.124755 16.4989C-0.955455 16.3247 -1.2785 15.3343 -0.724705 14.6924C-0.660095 14.6191 -0.577025 14.5457 -0.503185 14.4724C4.17642 9.82323 8.86526 5.16493 13.5449 0.515805C14.2371 -0.171935 14.7817 -0.171935 15.4739 0.515805C20.1535 5.1741 24.8516 9.8324 29.5405 14.4907C29.7989 14.7474 30.0204 15.0225 30.0112 15.4077C30.0112 15.8753 29.7897 16.2238 29.3651 16.4255C28.959 16.6181 28.5528 16.5631 28.2021 16.2788C28.0913 16.1963 27.999 16.0863 27.9067 15.9946C23.541 11.648 19.1752 7.31985 14.8186 2.97333C14.7263 2.88163 14.6617 2.75325 14.5786 2.63405C14.5325 2.64322 14.4771 2.63405 14.4309 2.63405Z" fill="#454545"/>
</g>
<defs>
<clipPath id="clip0_1701_393">
<rect width="31" height="31" fill="white"/>
</clipPath>
</defs>
</svg>
