<svg width="31" height="31" viewBox="0 0 31 31" fill="none" xmlns="http://www.w3.org/2000/svg">
<path d="M0.00762631 10.4775C0.099142 9.91314 0.152526 9.34117 0.2898 8.79207C1.51764 4.12477 4.49952 1.21915 9.21258 0.2201C13.7807 -0.748442 18.6006 1.5547 20.9647 5.65003C24.8541 12.3841 20.9876 20.4756 13.6053 22.2067C11.409 22.7177 9.25071 22.5423 7.15348 21.7187C6.99332 21.6577 6.88656 21.6729 6.74166 21.772C4.78169 23.0838 2.74547 23.221 0.632984 22.1457C0.114395 21.8788 -0.0533842 21.3526 0.244042 20.8721C1.28122 19.141 1.44137 17.3259 0.84652 15.4041C0.541468 14.4203 0.335558 13.4136 0.0915157 12.4146C0.0533842 12.2468 0.0305052 12.079 0 11.9112C0.00762631 11.4308 0.00762631 10.9579 0.00762631 10.4775ZM2.24213 20.9332C2.3184 20.956 2.40991 20.9865 2.50143 21.0018C3.85129 21.2763 5.05624 20.9713 6.08579 20.0561C6.45948 19.7206 6.83317 19.6672 7.29075 19.8807C9.02192 20.6815 10.837 20.9255 12.7283 20.6052C17.7312 19.774 21.5748 15.038 20.6139 9.58521C19.7674 4.78063 15.1916 1.2649 10.3336 1.80637C6.87893 2.18769 4.33174 3.9875 2.73784 7.06852C1.8837 8.71581 1.54814 10.4851 1.85319 12.3307C1.99047 13.1924 2.24976 14.0313 2.50143 14.8702C2.94375 16.3497 3.11153 17.8369 2.73784 19.3469C2.61582 19.8807 2.41754 20.3993 2.24213 20.9332Z" fill="#454545"/>
<path d="M25.3492 29.2989C25.0594 29.2379 24.7696 29.1921 24.4875 29.1159C23.8087 28.9405 23.1758 28.6659 22.6038 28.2465C22.4284 28.1168 22.2987 28.1092 22.0928 28.1778C17.967 29.6116 14.1843 28.9862 10.7601 26.2713C10.4246 26.0043 10.3102 25.6383 10.4322 25.2798C10.5542 24.929 10.8059 24.7307 11.1719 24.6926C11.4541 24.6621 11.6829 24.7765 11.9041 24.9595C13.2921 26.1187 14.8783 26.8203 16.6705 27.0796C18.5008 27.3466 20.2625 27.1178 21.9479 26.3628C22.4741 26.1264 22.8631 26.195 23.2978 26.5687C24.396 27.522 25.6696 27.7431 27.0804 27.3923C27.0652 27.3161 27.0575 27.2627 27.0347 27.2093C26.15 25.1654 26.1805 23.1368 26.9355 21.0396C28.1405 17.6917 27.6448 14.5572 25.4789 11.705C25.3569 11.5449 25.2349 11.3542 25.1891 11.1635C25.0976 10.7593 25.3111 10.3857 25.6696 10.2255C26.0509 10.0577 26.4322 10.1492 26.722 10.4924C27.4694 11.3847 28.0566 12.3685 28.476 13.4514C29.559 16.2427 29.5742 19.0415 28.4989 21.848C27.7973 23.6783 28.0108 25.4324 28.9489 27.1254C29.0328 27.2779 29.1243 27.4228 29.17 27.5906C29.2692 27.9872 29.0861 28.3532 28.7048 28.5668C28.0642 28.9252 27.3855 29.154 26.661 29.2455C26.5847 29.2531 26.5161 29.276 26.4398 29.2989C26.0737 29.2989 25.7077 29.2989 25.3492 29.2989Z" fill="#454545"/>
<path d="M6.19547 12.6657C5.42521 12.6733 4.81511 12.0632 4.81511 11.3006C4.81511 10.538 5.43284 9.92023 6.19547 9.92023C6.94285 9.92023 7.56058 10.538 7.5682 11.2777C7.5682 12.048 6.96572 12.6581 6.19547 12.6657Z" fill="#454545"/>
<path d="M11.2649 12.6658C10.4946 12.6734 9.88453 12.0709 9.88453 11.3007C9.88453 10.538 10.5023 9.91267 11.2573 9.9203C11.997 9.9203 12.6147 10.5304 12.63 11.2778C12.6453 12.0328 12.0275 12.6581 11.2649 12.6658Z" fill="#454545"/>
<path d="M17.691 11.293C17.691 12.0633 17.0885 12.6658 16.3183 12.6658C15.5557 12.6658 14.9379 12.0404 14.9455 11.2854C14.9532 10.538 15.5709 9.92793 16.3183 9.9203C17.0733 9.91267 17.691 10.5304 17.691 11.293Z" fill="#454545"/>
</svg>
