<svg width="31" height="31" viewBox="0 0 31 31" fill="none" xmlns="http://www.w3.org/2000/svg">
<path d="M14.4276 30.4715C11.6513 30.4243 8.80842 30.0937 6.08917 29.0452C4.9197 28.5918 3.82628 28.0156 2.96107 27.071C2.31453 26.372 1.98176 25.5596 2.00077 24.5961C2.08634 21.2712 3.28434 18.4185 5.62328 16.0381C6.11769 15.5375 6.80226 15.5091 7.27765 15.9531C7.76256 16.4065 7.76255 17.0961 7.24912 17.625C5.68983 19.212 4.72954 21.0917 4.39676 23.2832C4.33021 23.6893 4.33021 24.105 4.28267 24.5206C4.22562 25.0307 4.4443 25.4085 4.8056 25.7391C5.49968 26.372 6.33637 26.7593 7.22061 27.071C10.0159 28.0628 12.9158 28.299 15.8538 28.1762C17.917 28.0912 19.9517 27.7983 21.8818 27.0615C22.6044 26.7876 23.2985 26.4003 23.964 26.0036C24.6105 25.6163 24.8768 25.0307 24.8197 24.2372C24.6105 21.7057 23.6788 19.5048 21.8913 17.6817C21.5965 17.3794 21.3779 17.0583 21.4349 16.6238C21.492 16.1609 21.7487 15.8397 22.186 15.6792C22.6424 15.5186 23.0512 15.6319 23.3935 15.972C24.9243 17.4833 25.9987 19.2686 26.6072 21.3278C26.921 22.3952 27.0731 23.491 27.1111 24.6056C27.1491 25.7202 26.6833 26.6176 25.8846 27.3638C24.8387 28.3368 23.5647 28.913 22.2241 29.3569C19.733 30.1598 17.1563 30.4526 14.4276 30.4715Z" fill="#454545"/>
<path d="M6.56434 8.93463C6.55483 4.58949 10.1298 1.00946 14.5034 1.00002C18.9816 0.990573 22.5281 4.53281 22.5281 9.01964C22.5281 13.2987 18.9055 16.8692 14.57 16.8692C10.1488 16.8692 6.57385 13.327 6.56434 8.93463ZM8.84623 8.90629C8.84623 12.0329 11.3848 14.5928 14.5034 14.6022C17.6885 14.6117 20.2462 12.0801 20.2462 8.92518C20.2462 5.79857 17.679 3.26705 14.5129 3.26705C11.4134 3.26705 8.84623 5.81746 8.84623 8.90629Z" fill="#454545"/>
<path d="M14.4276 30.4715C11.6513 30.4243 8.80842 30.0937 6.08917 29.0452C4.9197 28.5918 3.82628 28.0156 2.96107 27.071C2.31453 26.372 1.98176 25.5596 2.00077 24.5961C2.08634 21.2712 3.28434 18.4185 5.62328 16.0381C6.11769 15.5375 6.80226 15.5091 7.27765 15.9531C7.76256 16.4065 7.76255 17.0961 7.24912 17.625C5.68983 19.212 4.72954 21.0917 4.39676 23.2832C4.33021 23.6893 4.33021 24.105 4.28267 24.5206C4.22562 25.0307 4.4443 25.4085 4.8056 25.7391C5.49968 26.372 6.33637 26.7593 7.22061 27.071C10.0159 28.0628 12.9158 28.299 15.8538 28.1762C17.917 28.0912 19.9517 27.7983 21.8818 27.0615C22.6044 26.7876 23.2985 26.4003 23.964 26.0036C24.6105 25.6163 24.8768 25.0307 24.8197 24.2372C24.6105 21.7057 23.6788 19.5048 21.8913 17.6817C21.5965 17.3794 21.3779 17.0583 21.4349 16.6238C21.492 16.1609 21.7487 15.8397 22.186 15.6792C22.6424 15.5186 23.0512 15.6319 23.3935 15.972C24.9243 17.4833 25.9987 19.2686 26.6072 21.3278C26.921 22.3952 27.0731 23.491 27.1111 24.6056C27.1491 25.7202 26.6833 26.6176 25.8846 27.3638C24.8387 28.3368 23.5647 28.913 22.2241 29.3569C19.733 30.1598 17.1563 30.4526 14.4276 30.4715Z" stroke="white" stroke-width="0.5"/>
<path d="M6.56434 8.93463C6.55483 4.58949 10.1298 1.00946 14.5034 1.00002C18.9816 0.990573 22.5281 4.53281 22.5281 9.01964C22.5281 13.2987 18.9055 16.8692 14.57 16.8692C10.1488 16.8692 6.57385 13.327 6.56434 8.93463ZM8.84623 8.90629C8.84623 12.0329 11.3848 14.5928 14.5034 14.6022C17.6885 14.6117 20.2462 12.0801 20.2462 8.92518C20.2462 5.79857 17.679 3.26705 14.5129 3.26705C11.4134 3.26705 8.84623 5.81746 8.84623 8.90629Z" stroke="white" stroke-width="0.5"/>
</svg>
