<svg width="31" height="31" viewBox="0 0 31 31" fill="none" xmlns="http://www.w3.org/2000/svg">
<path d="M20.776 25.1391C20.0251 27.8689 17.4595 29.1054 15.2247 28.993C13.0256 28.8886 10.8444 27.5317 10.2365 25.1391C10.1292 25.1391 10.013 25.1391 9.88787 25.1391C8.01954 25.1391 6.16016 25.1391 4.29184 25.1391C3.3532 25.1391 2.63805 24.8099 2.22684 24.0472C1.82457 23.3005 1.97654 22.602 2.53078 21.9356C3.1923 21.1407 3.80911 20.3138 4.42593 19.4948C4.68517 19.1576 4.77456 18.7642 4.77456 18.3547C4.77456 16.1307 4.72092 13.8987 4.7835 11.6747C4.89971 7.57195 7.03621 4.56915 11.1841 2.85097C17.2539 0.337933 24.5037 3.6378 25.9429 9.50691C26.1217 10.2456 26.2022 11.0163 26.2111 11.7711C26.2469 13.9388 26.229 16.1066 26.2201 18.2744C26.2201 18.7963 26.372 19.254 26.7028 19.6795C27.3375 20.4824 27.9632 21.2853 28.589 22.0962C29.0717 22.7305 29.1343 23.4049 28.7499 24.0873C28.3655 24.7698 27.7129 25.1311 26.8547 25.1391C24.9417 25.1552 23.0376 25.1472 21.1246 25.1472C21.0084 25.1391 20.8833 25.1391 20.776 25.1391ZM26.819 23.1961C26.1754 22.3611 25.5585 21.5502 24.9328 20.7473C24.3517 20.0087 24.0746 19.1978 24.0835 18.2905C24.0925 16.1227 24.0925 13.9549 24.0835 11.7871C24.0835 11.2973 24.0389 10.8076 23.9495 10.3178C23.2075 6.09464 18.4339 3.17213 13.7854 4.08742C9.68226 4.89031 6.92894 7.96536 6.92 11.7229C6.92 13.8184 6.89319 15.9139 6.92894 18.0175C6.94682 19.1255 6.61607 20.105 5.88304 20.9882C5.29304 21.6947 4.76562 22.4254 4.18456 23.1801C11.7294 23.1961 19.2384 23.1961 26.819 23.1961ZM18.4786 25.1552C16.4851 25.1552 14.5006 25.1552 12.5071 25.1552C12.8468 26.2471 14.1698 27.0741 15.5286 27.0661C16.8606 27.058 18.1657 26.215 18.4786 25.1552Z" fill="#858585" stroke="white" stroke-width="0.1"/>
</svg>
