<svg width="31" height="31" viewBox="0 0 31 31" fill="none" xmlns="http://www.w3.org/2000/svg">
<g clip-path="url(#clip0_1701_393)">
<path d="M30.8386 12.8321C30.7182 13.037 30.6338 13.2779 30.4712 13.4406C30.128 13.796 29.6884 13.8864 29.2247 13.7177C28.761 13.549 28.502 13.1936 28.4418 12.7056C28.4237 12.5851 28.4297 12.4646 28.4297 12.3441C28.4297 9.87411 28.4297 7.40407 28.4297 4.93404C28.4297 3.72915 27.7733 2.8315 26.6532 2.5122C26.4063 2.43991 26.1413 2.41581 25.8824 2.41581C18.9088 2.40979 11.9291 2.40979 4.95553 2.40979C3.45 2.40979 2.4142 3.43395 2.4142 4.94007C2.40818 9.47649 2.40818 14.0129 2.4142 18.5554C2.4142 20.0615 3.45 21.0856 4.95553 21.0856C11.9291 21.0856 18.9028 21.0856 25.8764 21.0856C27.3217 21.0856 28.3153 20.1639 28.4237 18.7421C28.4779 18.0192 28.8633 17.5613 29.4836 17.483C30.0678 17.4047 30.5495 17.736 30.8025 18.3867C30.8085 18.4048 30.8265 18.4168 30.8386 18.4349C30.8386 18.6939 30.8386 18.959 30.8386 19.2181C30.8205 19.2542 30.7904 19.2843 30.7904 19.3205C30.5134 21.5857 28.496 23.5135 25.8342 23.5015C18.8907 23.4713 11.9412 23.4954 4.99769 23.4894C4.63034 23.4894 4.25095 23.4653 3.88962 23.393C1.60724 22.9352 0.0234193 21.0013 0.00535299 18.6518C-0.00669124 17.0854 0.00535299 15.519 0.00535299 13.9527C0.00535299 10.9404 -0.00669124 7.9282 0.0113751 4.91597C0.0234193 2.84355 0.99298 1.33743 2.85381 0.433762C3.29945 0.222905 3.80531 0.144587 4.28106 0C11.7063 0 19.1376 0 26.5629 0C26.605 0.0180734 26.6532 0.0481958 26.6954 0.0542202C28.3876 0.325321 29.6221 1.23502 30.3628 2.77728C30.5857 3.24719 30.682 3.77734 30.8386 4.27737C30.8386 7.12695 30.8386 9.98255 30.8386 12.8321Z" fill="#454545"/>
<path d="M30.8391 28.6164C30.5922 29.3393 30.0804 29.5924 29.3336 29.5864C24.3353 29.5683 19.3429 29.5743 14.3446 29.5803C13.9351 29.5803 13.5617 29.502 13.2786 29.1887C12.9534 28.8333 12.8631 28.4116 13.0317 27.9597C13.2064 27.4959 13.5557 27.2368 14.0435 27.1766C14.1699 27.1585 14.3024 27.1645 14.4349 27.1645C19.4031 27.1645 24.3654 27.1705 29.3336 27.1585C30.0804 27.1585 30.5922 27.4115 30.8391 28.1284C30.8391 28.2971 30.8391 28.4538 30.8391 28.6164Z" fill="#454545"/>
<path d="M11.2678 11.7477C11.2678 10.7838 11.2618 9.81987 11.2678 8.85596C11.2738 6.87993 13.1708 5.77143 14.8811 6.75342C16.5492 7.71131 18.2173 8.67522 19.8734 9.65119C21.5776 10.6512 21.5776 12.8381 19.8794 13.8382C18.2173 14.8142 16.5552 15.7781 14.8871 16.736C13.1768 17.718 11.2798 16.6095 11.2678 14.6395C11.2618 13.6755 11.2678 12.7116 11.2678 11.7477ZM13.7007 8.85596C13.7007 10.8019 13.7007 12.7116 13.7007 14.6455C15.3688 13.6755 17.0008 12.7297 18.681 11.7537C17.0008 10.7717 15.3688 9.81987 13.7007 8.85596Z" fill="#454545"/>
<path d="M3.54135 27.1703C4.30616 27.1703 5.06495 27.1643 5.82976 27.1763C6.0044 27.1763 6.11882 27.1341 6.22721 26.9835C6.86556 26.1341 7.9375 25.8268 8.96728 26.1883C9.88866 26.5076 10.5571 27.4715 10.5391 28.4656C10.521 29.5379 9.82844 30.4356 8.77457 30.7488C7.80501 31.038 6.73307 30.6585 6.16097 29.803C6.04053 29.6283 5.92009 29.5801 5.72136 29.5801C4.23992 29.5861 2.75245 29.5921 1.26499 29.5801C0.38576 29.5741 -0.186341 28.821 0.0605657 28.0137C0.217141 27.5077 0.656755 27.1823 1.21681 27.1703C1.99367 27.1643 2.77052 27.1703 3.54135 27.1703Z" fill="#454545"/>
<path d="M30.8386 12.8321C30.7182 13.037 30.6338 13.2779 30.4712 13.4406C30.128 13.796 29.6884 13.8864 29.2247 13.7177C28.761 13.549 28.502 13.1936 28.4418 12.7056C28.4237 12.5851 28.4297 12.4646 28.4297 12.3441C28.4297 9.87411 28.4297 7.40407 28.4297 4.93404C28.4297 3.72915 27.7733 2.8315 26.6532 2.5122C26.4063 2.43991 26.1413 2.41581 25.8824 2.41581C18.9088 2.40979 11.9291 2.40979 4.95553 2.40979C3.45 2.40979 2.4142 3.43395 2.4142 4.94007C2.40818 9.47649 2.40818 14.0129 2.4142 18.5554C2.4142 20.0615 3.45 21.0856 4.95553 21.0856C11.9291 21.0856 18.9028 21.0856 25.8764 21.0856C27.3217 21.0856 28.3153 20.1639 28.4237 18.7421C28.4779 18.0192 28.8633 17.5613 29.4836 17.483C30.0678 17.4047 30.5495 17.736 30.8025 18.3867C30.8085 18.4048 30.8265 18.4168 30.8386 18.4349C30.8386 18.6939 30.8386 18.959 30.8386 19.2181C30.8205 19.2542 30.7904 19.2843 30.7904 19.3205C30.5134 21.5857 28.496 23.5135 25.8342 23.5015C18.8907 23.4713 11.9412 23.4954 4.99769 23.4894C4.63034 23.4894 4.25095 23.4653 3.88962 23.393C1.60724 22.9352 0.0234193 21.0013 0.00535299 18.6518C-0.00669124 17.0854 0.00535299 15.519 0.00535299 13.9527C0.00535299 10.9404 -0.00669124 7.9282 0.0113751 4.91597C0.0234193 2.84355 0.99298 1.33743 2.85381 0.433762C3.29945 0.222905 3.80531 0.144587 4.28106 0C11.7063 0 19.1376 0 26.5629 0C26.605 0.0180734 26.6532 0.0481958 26.6954 0.0542202C28.3876 0.325321 29.6221 1.23502 30.3628 2.77728C30.5857 3.24719 30.682 3.77734 30.8386 4.27737C30.8386 7.12695 30.8386 9.98255 30.8386 12.8321Z" stroke="white" stroke-width="0.7"/>
<path d="M30.8391 28.6164C30.5922 29.3393 30.0804 29.5924 29.3336 29.5864C24.3353 29.5683 19.3429 29.5743 14.3446 29.5803C13.9351 29.5803 13.5617 29.502 13.2786 29.1887C12.9534 28.8333 12.8631 28.4116 13.0317 27.9597C13.2064 27.4959 13.5557 27.2368 14.0435 27.1766C14.1699 27.1585 14.3024 27.1645 14.4349 27.1645C19.4031 27.1645 24.3654 27.1705 29.3336 27.1585C30.0804 27.1585 30.5922 27.4115 30.8391 28.1284C30.8391 28.2971 30.8391 28.4538 30.8391 28.6164Z" stroke="white" stroke-width="0.7"/>
<path d="M11.2678 11.7477C11.2678 10.7838 11.2618 9.81987 11.2678 8.85596C11.2738 6.87993 13.1708 5.77143 14.8811 6.75342C16.5492 7.71131 18.2173 8.67522 19.8734 9.65119C21.5776 10.6512 21.5776 12.8381 19.8794 13.8382C18.2173 14.8142 16.5552 15.7781 14.8871 16.736C13.1768 17.718 11.2798 16.6095 11.2678 14.6395C11.2618 13.6755 11.2678 12.7116 11.2678 11.7477ZM13.7007 8.85596C13.7007 10.8019 13.7007 12.7116 13.7007 14.6455C15.3688 13.6755 17.0008 12.7297 18.681 11.7537C17.0008 10.7717 15.3688 9.81987 13.7007 8.85596Z" stroke="white" stroke-width="0.7"/>
<path d="M3.54135 27.1703C4.30616 27.1703 5.06495 27.1643 5.82976 27.1763C6.0044 27.1763 6.11882 27.1341 6.22721 26.9835C6.86556 26.1341 7.9375 25.8268 8.96728 26.1883C9.88866 26.5076 10.5571 27.4715 10.5391 28.4656C10.521 29.5379 9.82844 30.4356 8.77457 30.7488C7.80501 31.038 6.73307 30.6585 6.16097 29.803C6.04053 29.6283 5.92009 29.5801 5.72136 29.5801C4.23992 29.5861 2.75245 29.5921 1.26499 29.5801C0.38576 29.5741 -0.186341 28.821 0.0605657 28.0137C0.217141 27.5077 0.656755 27.1823 1.21681 27.1703C1.99367 27.1643 2.77052 27.1703 3.54135 27.1703Z" stroke="white" stroke-width="0.7"/>
</g>
<defs>
<clipPath id="clip0_1701_393">
<rect width="31" height="31" fill="white"/>
</clipPath>
</defs>
</svg>
