<svg width="31" height="40" viewBox="0 0 31 40" fill="none" xmlns="http://www.w3.org/2000/svg">
<path d="M27.2725 32.888L20.2796 25.8692C20.2579 25.8438 20.2438 25.8181 20.2187 25.7723C20.2045 25.7465 20.1869 25.7143 20.1624 25.6721L19.9926 25.3799L19.7226 25.5832C19.687 25.6099 19.6562 25.6326 19.629 25.6527C19.5839 25.6859 19.5487 25.7119 19.5183 25.7369C16.9658 27.6032 14.1452 28.264 11.0302 27.6975L11.0301 27.6975C6.87751 26.9435 3.42203 23.5738 2.55882 19.4331C2.48406 19.0578 2.42755 18.6789 2.36987 18.2922C2.34715 18.1399 2.32426 17.9865 2.3 17.8315V17.8313V17.8284V17.8254V17.8225V17.8196V17.8166V17.8137V17.8107V17.8078V17.8048V17.8019V17.7989V17.796V17.793V17.7901V17.7871V17.7842V17.7812V17.7783V17.7753V17.7724V17.7695V17.7665V17.7636V17.7606V17.7577V17.7547V17.7518V17.7488V17.7459V17.7429V17.74V17.737V17.7341V17.7311V17.7282V17.7253V17.7223V17.7194V17.7164V17.7135V17.7105V17.7076V17.7046V17.7017V17.6987V17.6958V17.6928V17.6899V17.6869V17.684V17.681V17.6781V17.6752V17.6722V17.6693V17.6663V17.6634V17.6604V17.6575V17.6545V17.6516V17.6486V17.6457V17.6427V17.6398V17.6368V17.6339V17.6309V17.628V17.6251V17.6221V17.6192V17.6162V17.6133V17.6103V17.6074V17.6044V17.6015V17.5985V17.5956V17.5926V17.5897V17.5867V17.5838V17.5809V17.5779V17.575V17.572V17.5691V17.5661V17.5632V17.5602V17.5573V17.5543V17.5514V17.5484V17.5455V17.5425V17.5396V17.5366V17.5337V17.5308V17.5278V17.5249V17.5219V17.519V17.516V17.5131V17.5101V17.5072V17.5042V17.5013V17.4983V17.4954V17.4924V17.4895V17.4866V17.4836V17.4807V17.4777V17.4748V17.4718V17.4689V17.4659V17.463V17.46V17.4571V17.4541V17.4512V17.4482V17.4453V17.4423V17.4394V17.4365V17.4335V17.4306V17.4276V17.4247V17.4217V17.4188V17.4158V17.4129V17.4099V17.407V17.404V17.4011V17.3981V17.3952V17.3923V17.3893V17.3864V17.3834V17.3805V17.3775V17.3746V17.3716V17.3687V17.3657V17.3628V17.3598V17.3569V17.3539V17.351V17.348V17.3451V17.3422V17.3392V17.3363V17.3333V17.3304V17.3274V17.3245V17.3215V17.3186V17.3156V17.3127V17.3097V17.3068V17.3038V17.3009V17.298V17.295V17.2921V17.2891V17.2862V17.2832V17.2803V17.2773V17.2744V17.2714V17.2685V17.2655V17.2626V17.2596V17.2567V17.2537V17.2508V17.2479V17.2449V17.242V17.239V17.2361V17.2331V17.2302V17.2272V17.2243V17.2213V17.2184V17.2154V17.2125V17.2095V17.2066V17.2037V17.2007V17.1978V17.1948V17.1919V17.1889V17.186V17.183V17.1801V17.1771V17.1742V17.1712V17.1683V17.1653V17.1624V17.1594V17.1565V17.1536V17.1506V17.1477V17.1447V17.1418V17.1388V17.1359V17.1329V17.13V17.127V17.1241V17.1211V17.1182V17.1152V17.1123V17.1094V17.1064V17.1035V17.1005V17.0976V17.0946V17.0917V17.0887V17.0858V17.0828V17.0799V17.0769V17.074V17.071V17.0681V17.0651V17.0622V17.0593V17.0563V17.0534V17.0504V17.0475V17.0445V17.0416V17.0386V17.0357V17.0327V17.0298V17.0268V17.0239V17.0209V17.018V17.0151V17.0121V17.0092V17.0062V17.0033V17.0003V16.9974V16.9944V16.9915V16.9885V16.9856V16.9826V16.9797V16.9767V16.9738V16.9708V16.9679V16.965V16.962V16.9591V16.9561V16.9532V16.9502V16.9473V16.9443V16.9414V16.9384V16.9355V16.9325V16.9296V16.9266V16.9237V16.9208V16.9178V16.9149V16.9119V16.909V16.906V16.9031V16.9001V16.8972V16.8942V16.8913V16.8883V16.8854V16.8824V16.8795V16.8765V16.8736V16.8707V16.8677V16.8648V16.8618V16.8589V16.8559V16.853V16.85V16.8471V16.8441V16.8412V16.8382V16.8353V16.8323V16.8294V16.8264V16.8235V16.8206V16.8176V16.8147V16.8117V16.8088V16.8058V16.8029V16.7999V16.797V16.794V16.7911V16.7881V16.7852V16.7822V16.7793V16.7764V16.7734V16.7705V16.7675V16.7646V16.7616V16.7587V16.7557V16.7528V16.7498V16.7469V16.7439V16.741V16.738V16.7351V16.7321V16.7292V16.7263V16.7233V16.7204V16.7174V16.7145V16.7115V16.7086V16.7056V16.7027V16.6997V16.6968V16.6938V16.6909V16.6879V16.685V16.6821V16.6791V16.6762V16.6732V16.6703V16.6673V16.6644V16.6614V16.6585V16.6555V16.6526V16.6496V16.6467V16.6437V16.6408V16.6378V16.6349V16.632V16.629V16.6261V16.6231V16.6202V16.6172V16.6143V16.6113V16.6084V16.6054V16.6025V16.5995V16.5966V16.5936V16.5907V16.5878V16.5848V16.5819V16.5789V16.576V16.573V16.5701V16.5671V16.5642V16.5612V16.5583V16.5553V16.5524V16.5494V16.5465V16.5435V16.5406V16.5377V16.5347V16.5318V16.5288V16.5259V16.5229V16.52V16.517V16.5141V16.5111V16.5082V16.5052V16.5023V16.4993V16.4964V16.4935V16.4905V16.4876V16.4846V16.4817V16.4787V16.4758V16.4728V16.4699V16.4669V16.464V16.461V16.4581V16.4551V16.4522V16.4492V16.4463V16.4434V16.4404V16.4375V16.4345V16.4316V16.4286V16.4257V16.4227V16.4198V16.4168V16.4139V16.4109V16.408V16.405V16.4021V16.3992V16.3962V16.3933V16.3903V16.3874V16.3844V16.3815V16.3785V16.3756V16.3726V16.3697V16.3692C2.32765 16.1905 2.3526 16.0166 2.37723 15.8449C2.41674 15.5694 2.45539 15.2999 2.50296 15.0263C3.25479 10.8927 6.63448 7.41117 10.7293 6.56684C11.0801 6.49461 11.4248 6.44404 11.78 6.39194C11.9767 6.36308 12.1766 6.33375 12.3826 6.3H12.3838H12.3866H12.3895H12.3923H12.3952H12.398H12.4009H12.4037H12.4066H12.4094H12.4123H12.4151H12.418H12.4208H12.4237H12.4265H12.4294H12.4322H12.4351H12.4379H12.4408H12.4436H12.4465H12.4493H12.4521H12.455H12.4578H12.4607H12.4635H12.4664H12.4692H12.4721H12.4749H12.4778H12.4806H12.4835H12.4863H12.4891H12.492H12.4948H12.4977H12.5005H12.5034H12.5062H12.5091H12.5119H12.5147H12.5176H12.5204H12.5233H12.5261H12.529H12.5318H12.5347H12.5375H12.5403H12.5432H12.546H12.5489H12.5517H12.5546H12.5574H12.5602H12.5631H12.5659H12.5688H12.5716H12.5744H12.5773H12.5801H12.583H12.5858H12.5887H12.5915H12.5943H12.5972H12.6H12.6029H12.6057H12.6085H12.6114H12.6142H12.6171H12.6199H12.6227H12.6256H12.6284H12.6313H12.6341H12.6369H12.6398H12.6426H12.6455H12.6483H12.6511H12.654H12.6568H12.6596H12.6625H12.6653H12.6682H12.671H12.6738H12.6767H12.6795H12.6823H12.6852H12.688H12.6909H12.6937H12.6965H12.6994H12.7022H12.705H12.7079H12.7107H12.7136H12.7164H12.7192H12.7221H12.7249H12.7277H12.7306H12.7334H12.7362H12.7391H12.7419H12.7448H12.7476H12.7504H12.7533H12.7561H12.7589H12.7618H12.7646H12.7674H12.7703H12.7731H12.7759H12.7788H12.7816H12.7844H12.7873H12.7901H12.793H12.7958H12.7986H12.8015H12.8043H12.8071H12.81H12.8128H12.8156H12.8185H12.8213H12.8241H12.827H12.8298H12.8326H12.8355H12.8383H12.8411H12.844H12.8468H12.8496H12.8525H12.8553H12.8581H12.861H12.8638H12.8666H12.8695H12.8723H12.8751H12.878H12.8808H12.8836H12.8865H12.8893H12.8921H12.895H12.8978H12.9006H12.9035H12.9063H12.9091H12.912H12.9148H12.9176H12.9205H12.9233H12.9261H12.9289H12.9318H12.9346H12.9374H12.9403H12.9431H12.9459H12.9488H12.9516H12.9544H12.9573H12.9601H12.9629H12.9658H12.9686H12.9714H12.9743H12.9771H12.9799H12.9828H12.9856H12.9884H12.9912H12.9941H12.9969H12.9997H13.0026H13.0054H13.0082H13.0111H13.0139H13.0167H13.0196H13.0224H13.0252H13.0281H13.0309H13.0337H13.0366H13.0394H13.0422H13.045H13.0479H13.0507H13.0535H13.0564H13.0592H13.062H13.0649H13.0677H13.0705H13.0734H13.0762H13.079H13.0819H13.0847H13.0875H13.0903H13.0932H13.096H13.0988H13.1017H13.1045H13.1073H13.1102H13.113H13.1158H13.1187H13.1215H13.1243H13.1271H13.13H13.1328H13.1356H13.1385H13.1413H13.1441H13.147H13.1498H13.1526H13.1555H13.1583H13.1611H13.164H13.1668H13.1696H13.1725H13.1753H13.1781H13.1809H13.1838H13.1866H13.1894H13.1923H13.1951H13.1979H13.2008H13.2036H13.2064H13.2093H13.2121H13.2149H13.2178H13.2206H13.2234H13.2263H13.2291H13.2319H13.2347H13.2376H13.2404H13.2432H13.2461H13.2489H13.2517H13.2546H13.2574H13.2602H13.2631H13.2659H13.2687H13.2716H13.2744H13.2772H13.2801H13.2829H13.2857H13.2886H13.2914H13.2942H13.2971H13.2999H13.3027H13.3056H13.3084H13.3112H13.3141H13.3169H13.3197H13.3226H13.3254H13.3282H13.3311H13.3339H13.3367H13.3396H13.3424H13.3452H13.3481H13.3509H13.3537H13.3566H13.3594H13.3622H13.3651H13.3679H13.3707H13.3736H13.3764H13.3792H13.3821H13.3849H13.3877H13.3906H13.3934H13.3963H13.3991H13.4019H13.4048H13.4076H13.4104H13.4133H13.4161H13.4189H13.4218H13.4246H13.4274H13.4303H13.4331H13.436H13.4388H13.4416H13.4445H13.4473H13.4501H13.453H13.4558H13.4586H13.4615H13.4643H13.4672H13.47H13.4728H13.4757H13.4785H13.4813H13.4842H13.487H13.4899H13.4927H13.4955H13.4984H13.5012H13.504H13.5069H13.5097H13.5126H13.5154H13.5182H13.5211H13.5239H13.5268H13.5296H13.5324H13.5353H13.5381H13.5409H13.5438H13.5466H13.5495H13.5523H13.5551H13.558H13.5608H13.5637H13.5665H13.5693H13.5722H13.575H13.5779H13.5807H13.5836H13.5864H13.5892H13.5921H13.5949H13.5978H13.6006H13.6034H13.6063H13.6091H13.612H13.6148H13.6177H13.6205H13.6233H13.6262H13.629H13.6319H13.6347H13.6376H13.6404H13.6432H13.6461H13.6489H13.6518H13.6546H13.6575H13.6603H13.6631H13.666H13.6688H13.6717H13.6745H13.6774H13.6802H13.6831H13.6859H13.6888H13.6916H13.6944H13.6973H13.7001H13.703H13.7058H13.7087H13.7115H13.7144H13.7172H13.7201H13.7229H13.7258H13.7286H13.7315H13.7343H13.7372H13.74H13.7428H13.7457H13.7485H13.7514H13.7542H13.7571H13.7599H13.7628H13.7656H13.7685H13.7713H13.7742H13.777H13.7789C13.7964 6.30414 13.8153 6.30909 13.8384 6.3152L13.8412 6.31594C13.8736 6.3245 13.9151 6.33545 13.9598 6.34442L13.9598 6.3445L13.9665 6.34569C14.1965 6.38643 14.4171 6.41892 14.6322 6.45061C15.0191 6.50763 15.3883 6.56203 15.7628 6.65708C22.4459 8.37626 25.8041 15.9818 22.5796 22.105L22.5792 22.1058C22.3782 22.4901 22.1481 22.8551 21.9005 23.2477C21.785 23.431 21.6657 23.6202 21.5438 23.8202L21.4022 24.0525L21.6195 24.216C21.6404 24.2318 21.6711 24.2532 21.6975 24.2716C21.7107 24.2808 21.7228 24.2893 21.7322 24.296C21.7666 24.3206 21.7967 24.3435 21.8221 24.3661C24.0535 26.6058 26.2851 28.8456 28.5167 31.0783C28.8138 31.3766 29.0579 31.6392 29.188 31.9697V31.9703V31.9713V31.9724V31.9734V31.9745V31.9756V31.9766V31.9777V31.9787V31.9798V31.9808V31.9819V31.9829V31.984V31.985V31.9861V31.9871V31.9882V31.9892V31.9903V31.9913V31.9924V31.9934V31.9945V31.9955V31.9966V31.9977V31.9987V31.9998V32.0008V32.0019V32.0029V32.004V32.005V32.0061V32.0071V32.0082V32.0092V32.0103V32.0113V32.0124V32.0134V32.0145V32.0155V32.0166V32.0176V32.0187V32.0198V32.0208V32.0219V32.0229V32.024V32.025V32.0261V32.0271V32.0282V32.0292V32.0303V32.0313V32.0324V32.0334V32.0345V32.0355V32.0366V32.0376V32.0387V32.0398V32.0408V32.0419V32.0429V32.044V32.045V32.0461V32.0471V32.0482V32.0492V32.0503V32.0513V32.0524V32.0534V32.0545V32.0555V32.0566V32.0576V32.0587V32.0597V32.0608V32.0619V32.0629V32.064V32.065V32.0661V32.0671V32.0682V32.0692V32.0703V32.0713V32.0724V32.0734V32.0745V32.0755V32.0766V32.0776V32.0787V32.0797V32.0808V32.0819V32.0829V32.084V32.085V32.0861V32.0871V32.0882V32.0892V32.0903V32.0913V32.0924V32.0934V32.0945V32.0955V32.0966V32.0976V32.0987V32.0997V32.1008V32.1018V32.1029V32.104V32.105V32.1061V32.1071V32.1082V32.1092V32.1103V32.1113V32.1124V32.1134V32.1145V32.1155V32.1166V32.1176V32.1187V32.1197V32.1208V32.1218V32.1229V32.1239V32.125V32.1261V32.1271V32.1282V32.1292V32.1303V32.1313V32.1324V32.1334V32.1345V32.1355V32.1366V32.1376V32.1387V32.1397V32.1408V32.1418V32.1429V32.1439V32.145V32.146V32.1471V32.1482V32.1492V32.1503V32.1513V32.1524V32.1534V32.1545V32.1555V32.1566V32.1576V32.1587V32.1597V32.1608V32.1618V32.1629V32.1639V32.165V32.166V32.1671V32.1682V32.1692V32.1703V32.1713V32.1724V32.1734V32.1745V32.1755V32.1766V32.1776V32.1787V32.1797V32.1808V32.1818V32.1829V32.1839V32.185V32.186V32.1871V32.1881V32.1892V32.1903V32.1913V32.1924V32.1934V32.1945V32.1955V32.1966V32.1976V32.1987V32.1997V32.2008V32.2018V32.2029V32.2039V32.205V32.206V32.2071V32.2081V32.2092V32.2102V32.2113V32.2124V32.2134V32.2145V32.2155V32.2166V32.2176V32.2187V32.2197V32.2208V32.2218V32.2229V32.2239V32.225V32.226V32.2271V32.2281V32.2292V32.2302V32.2313V32.2324V32.2334V32.2345V32.2355V32.2366V32.2376V32.2387V32.2397V32.2408V32.2418V32.2429V32.2439V32.245V32.246V32.2471V32.2481V32.2492V32.2502V32.2513V32.2523V32.2534V32.2545V32.2555V32.2566V32.2576V32.2587V32.2597V32.2608V32.2618V32.2629V32.2639V32.265V32.266V32.2671V32.2681V32.2692V32.2702V32.2713V32.2723V32.2734V32.2744V32.2755V32.2766V32.2776V32.2787V32.2797V32.2808V32.2818V32.2829V32.2839V32.285V32.286V32.2871V32.2881V32.2892V32.2902V32.2913V32.2923V32.2934V32.2944V32.2955V32.2966V32.2976V32.2987V32.2997V32.3008V32.3018V32.3029V32.3039V32.305V32.306V32.3071V32.3081V32.3092V32.3102V32.3113V32.3123V32.3134V32.3144V32.3155V32.3165V32.3176V32.3187V32.3197V32.3208V32.3218V32.3229V32.3239V32.325V32.326V32.3271V32.3281V32.3292V32.3302V32.3313V32.3323V32.3334V32.3344V32.3355V32.3365V32.3376V32.3386V32.3397V32.3408V32.3418V32.3429V32.3439V32.345V32.346V32.3471V32.3481V32.3492V32.3502V32.3513V32.3523V32.3534V32.3544V32.3555V32.3565V32.3576V32.3586V32.3597V32.3608V32.3618V32.3629V32.3639V32.365V32.366V32.3671V32.3681V32.3692V32.3702V32.3713V32.3723V32.3734V32.3744V32.3755V32.3765V32.3776V32.3786V32.3797V32.3807V32.3818V32.3829V32.3839V32.385V32.386V32.3871V32.3881V32.3892V32.3902V32.3913V32.3923V32.3934V32.3944V32.3955V32.3965V32.3976V32.3986V32.3997V32.4003C29.0743 32.7004 28.9572 32.9241 28.7521 33.0748C28.3074 33.3995 27.7482 33.359 27.273 32.8885C27.2729 32.8883 27.2727 32.8881 27.2725 32.888ZM13.0825 8.45178L13.082 8.45178C8.34845 8.43688 4.4566 12.3149 4.44164 17.0706C4.41952 21.8203 8.27558 25.7123 13.0291 25.7421C17.7645 25.7718 21.6482 21.8923 21.6705 17.1235C21.6927 12.3668 17.8368 8.47411 13.0825 8.45178Z" fill="#6D6D6D" stroke="white" stroke-width="0.6"/>
</svg>
