<svg width="137" height="129" viewBox="0 0 137 129" fill="none" xmlns="http://www.w3.org/2000/svg">
<circle cx="68" cy="64" r="50" fill="#FFD039"/>
<path d="M85.875 68C86.9375 68 87.9688 68.1333 89 68.3V58C89 54.3333 86.2188 51.3333 82.75 51.3333H79.625V44.6667C79.625 35.4667 72.625 28 64 28C55.375 28 48.375 35.4667 48.375 44.6667V51.3333H45.25C41.8125 51.3333 39 54.3 39 58V91.3333C39 95.0333 41.7813 98 45.25 98H69.6563C68.0625 95.0667 67.125 91.6667 67.125 88C67.125 76.9667 75.5313 68 85.875 68ZM54.625 44.6667C54.625 39.1333 58.8125 34.6667 64 34.6667C69.1875 34.6667 73.375 39.1333 73.375 44.6667V51.3333H54.625V44.6667ZM64 81.3333C60.5625 81.3333 57.75 78.3667 57.75 74.6667C57.75 70.9667 60.5625 68 64 68C67.4375 68 70.25 70.9667 70.25 74.6667C70.25 78.3667 67.4688 81.3333 64 81.3333ZM90.2813 88L96.9375 95.0667L92.5 99.8L85.875 92.7L79.25 99.8L74.8438 95.0667L81.4688 88L74.8438 80.9333L79.25 76.2333L85.875 83.3L92.5 76.2333L96.9375 80.9333L90.2813 88Z" fill="#BB2026"/>
</svg>
