<svg width="378" height="240" viewBox="0 0 378 240" fill="none" xmlns="http://www.w3.org/2000/svg">
<path d="M50.9473 90.1113C50.9473 77.7723 59.6726 67.8008 72.5692 67.8008C85.3394 67.8008 93.9383 77.6477 93.9383 90.1113C93.9383 102.326 85.213 112.422 72.3164 112.422C59.5461 112.423 50.9473 102.577 50.9473 90.1113ZM124.412 68.7976H139.459L74.8461 156.048H59.799L124.412 68.7976ZM80.6624 90.1113C80.6624 84.2533 77.3742 79.1429 72.3164 79.1429C67.0057 79.1429 64.2231 84.1287 64.2231 90.1113C64.2231 95.9693 67.5113 101.08 72.5692 101.08C77.8815 101.081 80.6624 95.9709 80.6624 90.1113ZM105.32 134.734C105.32 122.395 114.045 112.423 126.942 112.423C139.714 112.423 148.311 122.27 148.311 134.734C148.311 146.948 139.585 157.044 126.689 157.044C113.917 157.044 105.32 147.198 105.32 134.734ZM135.033 134.734C135.033 128.876 131.747 123.766 126.689 123.766C121.378 123.766 118.596 128.751 118.596 134.734C118.596 140.592 121.884 145.702 126.94 145.702C132.252 145.702 135.033 140.592 135.033 134.734Z" fill="url(#paint0_linear_1659_5)"/>
<path d="M253.883 128.858L199.408 111.754L222.542 40.1655V40.1638L232.289 10L286.762 27.1038L268.565 83.4258L253.883 128.858Z" fill="url(#paint1_linear_1659_5)"/>
<path d="M249.674 121.128L207.383 107.849L236.936 16.3906L279.228 29.6699L249.674 121.128ZM212.983 108.209L244.878 118.224C247.043 118.904 249.358 117.726 250.047 115.591L276.258 34.4696C276.961 32.2966 275.742 29.9756 273.54 29.2828L241.773 19.308C239.587 18.6218 237.251 19.8114 236.555 21.9662L210.326 103.139C209.64 105.262 210.829 107.533 212.983 108.209Z" fill="url(#paint2_linear_1659_5)"/>
<path d="M231.924 65.1823C233.926 58.9887 240.643 55.5663 246.928 57.5384C253.211 59.5121 256.683 66.1326 254.682 72.3262C252.68 78.5214 245.963 81.9422 239.68 79.9701C233.394 77.9981 229.922 71.3775 231.924 65.1823Z" fill="url(#paint3_linear_1659_5)"/>
<path d="M258.845 149.898L220.729 107.894L277.539 57.8036H277.541L301.477 36.6992L339.592 78.7019L294.899 118.11L258.845 149.898Z" fill="url(#paint4_linear_1659_5)"/>
<path d="M259.2 141.131L229.609 108.52L302.186 44.5273L331.776 77.1383L259.2 141.131ZM234.248 111.633L256.564 136.227C258.079 137.896 260.68 138.039 262.373 136.546L326.747 79.7866C328.471 78.2664 328.618 75.6564 327.077 73.9568L304.85 49.4616C303.322 47.777 300.696 47.6324 298.987 49.1393L234.569 105.935C232.884 107.422 232.741 109.972 234.248 111.633Z" fill="url(#paint5_linear_1659_5)"/>
<path d="M272.729 84.0564C277.645 79.7219 285.194 80.1372 289.591 84.9818C293.988 89.828 293.567 97.2693 288.653 101.604C283.736 105.938 276.187 105.523 271.79 100.678C267.393 95.8322 267.814 88.3892 272.729 84.0564Z" fill="url(#paint6_linear_1659_5)"/>
<path d="M151.486 61.7912C156.986 54.28 170.32 62.212 170.32 62.212C170.32 62.212 174.452 80.4628 177.15 81.8616C179.848 83.2604 176.71 65.5784 176.71 65.5784C182.397 67.092 193.842 78.901 193.842 78.901C193.842 78.901 186.423 95.6516 189.389 96.3535C192.354 97.0554 195.19 81.1913 195.19 81.1913C199.898 84.7291 202.519 92.6678 202.519 92.6678C204.912 104.899 188.84 107.294 188.84 107.294C188.84 107.294 186.396 113.154 187.512 121.33C187.512 121.33 187.87 122.897 187.907 125.346L186.46 124.808C186.489 124.383 186.499 123.965 186.49 123.556C186.492 123.553 186.49 123.551 186.49 123.549C186.49 123.543 186.49 123.538 186.49 123.531C186.475 123.273 186.453 122.907 186.421 122.46V122.458C186.421 122.457 186.421 122.457 186.421 122.457C186.305 121.44 186.247 120.7 186.232 120.175C186.232 120.173 186.232 120.171 186.232 120.17C185.931 117.003 185.356 112.806 184.363 111.604C184.363 111.604 184.607 111.441 184.923 111.065C184.744 111.236 184.558 111.416 184.363 111.604C179.885 115.913 167.165 112.188 160.796 108.232C154.428 104.277 158.17 103.477 163.076 101.744C167.982 100.011 175.456 103.722 178.222 103.354C180.988 102.988 178.094 100.52 173.36 99.1611C168.626 97.8022 164.591 101.48 156.892 99.4189C149.192 97.3581 148.797 81.4891 148.797 81.4891C153.328 84.9619 163.598 85.5873 164.618 83.9756C165.638 82.3639 151.947 77.4823 150.023 76.1716C148.101 74.8643 145.985 69.3024 151.486 61.7912Z" fill="url(#paint7_linear_1659_5)"/>
<path d="M340.861 187.625C342.855 175.281 322.795 170.669 322.795 170.669C322.795 170.669 301.538 184.53 297.676 183.398C293.813 182.266 313.595 168.036 313.595 168.036C306.822 164.258 284.839 165.14 284.839 165.14C284.839 165.14 275.844 188.2 272.394 186.146C268.945 184.092 281.394 166.118 281.394 166.118C273.608 165.203 263.59 170.473 263.59 170.473C249.696 180.111 262.489 197.246 262.489 197.246C262.489 197.246 259.2 205.173 250.369 212.061C250.369 212.061 248.541 213.246 246.174 215.584L248.042 216.398C248.421 215.959 248.809 215.544 249.205 215.157C249.207 215.154 249.209 215.152 249.212 215.151C249.217 215.146 249.224 215.139 249.229 215.134C249.487 214.898 249.858 214.565 250.313 214.161L250.315 214.16C250.315 214.158 250.316 214.16 250.316 214.158C251.394 213.28 252.152 212.617 252.667 212.122C252.668 212.121 252.67 212.119 252.672 212.118C255.971 209.328 260.505 205.797 262.584 205.546C262.584 205.546 262.508 205.163 262.572 204.508C262.575 204.839 262.58 205.184 262.584 205.546C262.68 213.846 278.157 221.968 287.895 224.008C297.634 226.051 294.887 221.825 291.937 215.624C288.984 209.423 278.444 206.126 276.198 203.22C273.951 200.315 279.017 200.595 284.751 203.643C290.485 206.693 290.767 213.972 299.948 219.076C309.132 224.178 324.616 209.177 324.616 209.177C317.058 208.362 306.832 199.501 307.409 196.999C307.986 194.499 325.478 202.395 328.529 202.9C331.584 203.404 338.865 199.969 340.861 187.625Z" fill="url(#paint8_linear_1659_5)"/>
<path d="M216.284 129.164V228.12L145.831 228.514V129.164H216.284Z" fill="#01483F"/>
<path d="M271.08 129.332H216.283V228.183H271.08V129.332Z" fill="#067254"/>
<path d="M234.253 88.6289L211.121 135.646H205.084L149.75 128.069L145.506 135.646H140.85L177.487 88.8004L234.253 88.6289Z" fill="#E65924"/>
<path d="M237.1 88.6289L213.97 135.646H143.697L180.334 88.8004L237.1 88.6289Z" fill="#01483F"/>
<path d="M278.731 138.138H214.995L177.322 88.6289L198.53 88.6322L239.96 88.6389L278.731 138.138Z" fill="#FD9C28"/>
<path d="M278.729 138.138H267.045L198.491 88.6289L239.94 88.6356L278.729 138.138Z" fill="#E65924"/>
<path d="M231.585 189.303C231.521 189.393 231.25 189.82 231.598 190.301C231.62 190.331 231.635 190.356 231.645 190.377C235.812 192.851 248.31 202.86 248.31 209.916V224.531H210.593V209.911C210.593 202.81 223.261 192.642 227.335 190.303C227.336 190.303 227.336 190.303 227.336 190.303C227.468 190.123 227.51 189.948 227.51 189.799C227.51 189.497 227.336 189.286 227.336 189.286C223.251 186.894 210.593 176.8 210.593 169.701V155.086H248.31V169.706C248.308 176.794 235.682 186.94 231.585 189.303Z" fill="#EAF7F9"/>
<path d="M250.44 228.348H208.098V226.841C208.098 225.564 209.129 224.527 210.404 224.527H248.23C249.451 224.527 250.44 225.52 250.44 226.744V228.348Z" fill="#847D3D"/>
<path d="M243.418 164.887C241.132 164.922 237.2 165.327 230.84 166.91C226.486 167.995 218.98 167.178 215.009 166.616C213.616 166.419 212.369 167.485 212.369 168.874V170.555C212.369 175.19 225.006 185.229 228.347 187.804C228.854 188.195 229.15 188.793 229.15 189.426V215.198C229.15 216.079 228.711 216.898 227.98 217.403C225.353 219.219 220.924 224.53 220.924 224.53H237.671C237.671 224.53 233.18 219.403 230.66 217.501C230.085 217.066 229.746 216.395 229.746 215.68V189.419C229.746 188.789 230.036 188.193 230.536 187.799C233.811 185.209 246.172 175.134 246.172 170.502V167.56C246.169 166.068 244.93 164.864 243.418 164.887Z" fill="#E65D26"/>
<path d="M248.148 156.577H210.308C209.087 156.577 208.098 155.627 208.098 154.455V152.922H250.44V154.378C250.44 155.591 249.415 156.577 248.148 156.577Z" fill="#847D3D"/>
<path d="M297.628 158.408H264.457C263.669 158.408 263.027 157.773 263.027 156.999C263.027 156.223 263.671 155.59 264.457 155.59H297.628C298.415 155.59 299.058 156.224 299.058 156.999C299.058 157.773 298.415 158.408 297.628 158.408Z" fill="#002822"/>
<path d="M261.26 228.263H261.223C260.92 228.263 260.682 228.008 260.709 227.709L266.994 158.406H269.498L261.55 228.009C261.533 228.154 261.409 228.263 261.26 228.263Z" fill="#002822"/>
<path d="M300.839 228.263H300.876C301.179 228.263 301.417 228.008 301.39 227.709L295.105 158.406H292.601L300.549 228.009C300.566 228.154 300.69 228.263 300.839 228.263Z" fill="#002822"/>
<path d="M253.288 114.63C253.288 114.928 253.167 115.197 252.968 115.393C252.771 115.59 252.499 115.711 252.201 115.711H216.124C215.527 115.711 215.037 115.225 215.037 114.63C215.037 114.332 215.16 114.064 215.357 113.869C215.554 113.673 215.824 113.551 216.124 113.551H252.201C252.799 113.552 253.288 114.038 253.288 114.63Z" fill="#45391D"/>
<path d="M189.776 120.846V143.789H170.384V121.136C170.384 116.213 174.459 112.223 179.487 112.223H180.967C181.195 112.223 181.422 112.231 181.645 112.247C181.647 112.249 181.647 112.249 181.648 112.247C186.194 112.59 189.776 116.308 189.776 120.846Z" fill="#002822"/>
<path d="M189.774 120.827V143.789H173.229V121.117C173.229 116.424 176.934 112.576 181.636 112.223C181.638 112.224 181.638 112.224 181.639 112.223C186.189 112.564 189.774 116.285 189.774 120.827Z" fill="url(#paint9_linear_1659_5)"/>
<path d="M189.776 124.516H170.384V126.177H189.776V124.516Z" fill="#EAF7F9"/>
<path d="M180.879 143.787V124.848H179.1V143.787H180.879Z" fill="#EAF7F9"/>
<path d="M178.922 155.418L163.811 185.987H117.898L141.834 155.529L178.922 155.418Z" fill="#E65924"/>
<path d="M180.347 155.418L165.236 185.987H119.323L143.259 155.529L180.347 155.418Z" fill="#01483F"/>
<path d="M165.046 185.984V228.682L119.323 228.208V185.984H165.046Z" fill="#01483F"/>
<path d="M203.831 185.984V228.208L165.047 228.682V185.984H203.831Z" fill="#067254"/>
<path d="M208.101 187.815H166.505L141.918 155.418L154.308 155.42L182.799 155.425L208.101 187.815Z" fill="#FD9C28"/>
<path d="M208.1 187.815H200.188L154.193 155.418L182.745 155.423L208.1 187.815Z" fill="#E65924"/>
<path d="M149.743 191.104V212.234H132.13V191.37C132.13 186.837 135.832 183.16 140.398 183.16H141.741C141.949 183.16 142.155 183.168 142.358 183.183C142.36 183.185 142.36 183.185 142.361 183.183C146.489 183.498 149.743 186.923 149.743 191.104Z" fill="#002822"/>
<path d="M149.742 191.087V212.234H134.798V191.353C134.798 187.029 138.145 183.486 142.392 183.16C142.394 183.162 142.394 183.162 142.395 183.16C146.504 183.475 149.742 186.903 149.742 191.087Z" fill="url(#paint10_linear_1659_5)"/>
<path d="M149.743 194.461H132.13V196.122H149.743V194.461Z" fill="#EAF7F9"/>
<path d="M141.737 212.235V194.625H140.136V212.235H141.737Z" fill="#EAF7F9"/>
<path d="M208.1 187.812H166.469V188.975H208.1V187.812Z" fill="#E65924"/>
<path d="M166.469 188.978L141.206 156.283L141.88 155.418L166.469 187.857V188.978Z" fill="#E65924"/>
<path d="M278.373 138.137H215.037V140.13H278.373V138.137Z" fill="#E65924"/>
<path d="M251.599 102.088C251.594 102.59 251.565 103.088 251.511 103.585C251.12 107.311 249.423 110.858 246.622 113.53C246.054 114.076 245.439 114.581 244.781 115.048C244.473 115.268 244.156 115.477 243.827 115.675H226.589C226.266 115.477 225.947 115.268 225.639 115.048C224.993 114.591 224.38 114.085 223.802 113.53C222.664 112.443 221.67 111.172 220.864 109.734C216.494 101.918 219.377 92.0948 227.302 87.7869C235.23 83.4806 245.196 86.3232 249.566 94.135C250.491 95.7897 251.09 97.5358 251.385 99.2985V99.3002C251.395 99.345 251.402 99.3899 251.408 99.4364C251.408 99.4381 251.408 99.4381 251.408 99.4381C251.42 99.5095 251.43 99.5793 251.439 99.6507C251.491 100.008 251.531 100.37 251.558 100.729C251.568 100.867 251.577 101.005 251.584 101.143C251.584 101.158 251.585 101.173 251.585 101.187C251.597 101.488 251.602 101.789 251.599 102.088Z" fill="url(#paint11_linear_1659_5)"/>
<path d="M250.209 101.653C250.204 101.427 250.193 101.199 250.174 100.974C250.137 100.468 250.071 99.9651 249.977 99.4617C249.699 97.9366 249.166 96.433 248.367 95.0026C244.398 87.9052 235.309 85.3135 228.107 89.226C223.182 91.9025 220.396 96.9381 220.396 102.123C220.396 104.522 220.993 106.953 222.247 109.197C223.208 110.915 224.468 112.369 225.928 113.528C226.656 114.108 227.433 114.617 228.249 115.047C228.687 115.278 229.135 115.487 229.592 115.673H232.506C231.759 115.524 231.026 115.314 230.315 115.047C229.278 114.66 228.286 114.152 227.364 113.528C225.604 112.344 224.096 110.749 222.999 108.789C219.257 102.098 221.735 93.6519 228.522 89.9637C235.311 86.2754 243.879 88.7176 247.621 95.4096C248.367 96.7437 248.866 98.1476 249.131 99.5697C249.225 100.068 249.289 100.568 249.326 101.07C249.328 101.09 249.33 101.11 249.33 101.131V101.133C249.365 101.628 249.373 102.123 249.353 102.615C249.185 106.89 247.016 110.995 243.257 113.53C242.886 113.781 242.497 114.017 242.096 114.236C241.516 114.552 240.925 114.821 240.323 115.047C239.61 115.318 238.882 115.524 238.15 115.673H241.041C241.491 115.487 241.936 115.28 242.374 115.047C242.418 115.024 242.465 114.999 242.509 114.974C243.291 114.549 244.019 114.065 244.688 113.528C247.968 110.918 249.899 107.099 250.182 103.1C250.213 102.62 250.225 102.138 250.209 101.653Z" fill="#01483F"/>
<path d="M242.526 103.507C242.245 102.824 241.879 102.281 241.431 101.876C240.982 101.472 240.46 101.171 239.865 100.969C239.272 100.768 238.609 100.645 237.876 100.601C237.146 100.558 236.349 100.547 235.49 100.571C234.957 100.586 234.504 100.578 234.126 100.545C233.75 100.512 233.43 100.442 233.165 100.337C232.904 100.233 232.69 100.091 232.525 99.9086C232.36 99.7275 232.225 99.5065 232.117 99.2474C232.009 98.9865 231.947 98.7274 231.932 98.4698C231.915 98.214 231.954 97.9698 232.048 97.7388C232.141 97.5096 232.292 97.2969 232.505 97.1009C232.715 96.9048 232.993 96.7387 233.339 96.6008C233.979 96.345 234.576 96.3499 235.129 96.6174C235.683 96.8832 236.135 97.4398 236.484 98.2871L239.823 96.9497C239.531 96.2453 239.167 95.6488 238.729 95.1637C238.291 94.6786 237.799 94.3031 237.249 94.0373C236.701 93.7732 236.103 93.617 235.456 93.5721C234.81 93.5289 234.138 93.5954 233.442 93.7765L232.496 91.4805L230.649 92.2214L231.581 94.4842C230.914 94.8248 230.349 95.2219 229.884 95.6738C229.42 96.1273 229.065 96.6157 228.814 97.1424C228.564 97.6707 228.434 98.224 228.423 98.8038C228.411 99.3836 228.527 99.9734 228.773 100.571C229.06 101.263 229.425 101.811 229.874 102.215C230.324 102.618 230.845 102.919 231.438 103.117C232.029 103.314 232.693 103.434 233.428 103.472C234.16 103.51 234.96 103.509 235.82 103.469C236.32 103.442 236.754 103.444 237.123 103.477C237.492 103.51 237.809 103.58 238.077 103.687C238.345 103.793 238.567 103.942 238.746 104.133C238.924 104.326 239.073 104.569 239.194 104.866C239.302 105.127 239.356 105.388 239.356 105.647C239.354 105.904 239.295 106.154 239.177 106.39C239.059 106.625 238.881 106.845 238.646 107.046C238.41 107.247 238.11 107.42 237.75 107.564C237.433 107.69 237.106 107.775 236.769 107.815C236.432 107.855 236.101 107.823 235.779 107.719C235.458 107.612 235.156 107.42 234.878 107.144C234.598 106.866 234.352 106.476 234.148 105.974L230.809 107.31C231.158 108.157 231.596 108.828 232.124 109.322C232.651 109.819 233.228 110.173 233.851 110.387C234.477 110.601 235.132 110.694 235.817 110.668C236.501 110.639 237.175 110.53 237.841 110.337L238.704 112.432L240.539 111.696L239.673 109.591C240.338 109.25 240.91 108.857 241.385 108.411C241.862 107.966 242.226 107.484 242.479 106.964C242.73 106.444 242.865 105.893 242.882 105.311C242.902 104.73 242.782 104.128 242.526 103.507Z" fill="#01483F"/>
<path d="M288.871 110.06C288.871 110.06 289.32 111.29 289.427 112.032C289.491 112.475 289.35 113.585 289.948 113.71C290.59 113.843 290.89 111.731 290.818 111.381C290.739 110.997 290.509 109.668 290.093 109.573C289.676 109.477 288.871 110.06 288.871 110.06Z" fill="#D8A982"/>
<path d="M289.005 110.227C289.005 110.227 288.773 111.084 288.773 111.401C288.773 111.72 288.596 112.656 288.773 112.715C289.005 112.792 289.406 111.643 289.406 111.643L289.005 110.227Z" fill="#D8A982"/>
<path d="M252.758 100.042C252.354 99.7615 251.438 99.1437 251.39 99.2815C251.355 99.3804 251.405 99.549 251.515 99.7242C250.96 99.5199 250.397 99.3869 249.066 99.6382C248.798 99.6885 248.558 99.8377 248.411 100.063C248.276 100.271 248.225 100.53 248.564 100.739C249.244 101.154 249.047 100.906 249.99 101.511C250.935 102.116 252.09 102.27 252.781 101.847L253.707 101.694L253.823 100.194C253.823 100.191 253.294 100.13 252.758 100.042Z" fill="#F5C99D"/>
<path d="M277.661 87.1477C277.661 87.1477 275.384 89.8032 272.486 88.6924C272.486 88.6924 271.862 87.2101 271.854 86.1162C271.852 85.9811 271.852 85.8511 271.848 85.7279C271.833 84.4972 271.79 83.8068 271.79 83.8068C271.79 83.8068 271.79 83.8068 271.793 83.8068C271.926 83.7527 276.226 82.0173 276.222 82.1608C276.148 85.4899 277.661 87.1477 277.661 87.1477Z" fill="#F5C99D"/>
<path d="M275.701 83.01C275.297 83.7268 273.904 85.1267 271.847 85.6387C271.832 84.4723 271.79 83.818 271.79 83.818C271.79 83.818 271.79 83.818 271.793 83.818C271.909 83.7876 275.822 82.7988 275.701 83.01Z" fill="#D8A982"/>
<path d="M270.939 83.7742C270.939 83.7742 275.745 84.8825 276.402 81.9359C277.059 78.9892 278.122 77.1476 275.083 76.3155C272.042 75.4834 271.194 76.4796 270.731 77.4104C270.265 78.3413 269.706 83.4092 270.939 83.7742Z" fill="#F5C99D"/>
<path d="M276.142 82.6243C276.206 82.6657 277.226 82.9738 279.16 79.1874C279.463 78.5927 279.67 77.3074 278.963 76.1712C278.256 75.0349 275.748 74.1421 273.664 73.7529C271.581 73.3636 271.081 74.5165 270.59 75.6759C270.075 76.8917 268.588 77.8938 268.588 77.8938C270.385 78.8809 272.548 77.4697 273.297 77.7016C274.047 77.9335 274.311 79.0963 274.368 79.4673C274.424 79.84 274.511 80.1497 275.453 79.8168C276.396 79.4839 275.879 81.1303 275.727 81.445C275.729 81.445 275.601 82.2831 276.142 82.6243Z" fill="#E65924"/>
<path d="M288.435 155.582H291.308C291.912 155.582 292.581 154.987 292.748 153.899C292.915 152.809 294.153 152.216 294.421 151.326C294.689 150.435 293.316 149.179 293.316 149.179L293.086 148.888L292.847 148.586L290.57 149.114C290.57 149.114 290.515 149.649 290.479 150.329C290.456 150.82 290.442 151.389 290.471 151.887C290.538 153.075 290.134 154.354 289.062 154.585C287.991 154.816 288.435 155.582 288.435 155.582Z" fill="#45391D"/>
<path d="M268.433 155.584H276.051C276.123 155.571 276.179 155.554 276.212 155.538C276.721 155.287 276.561 153.368 276.501 152.775C276.489 152.665 276.48 152.6 276.48 152.6C276.48 152.6 273.802 150.489 273.433 152.105C273.421 152.155 273.408 152.205 273.394 152.253V152.255C272.929 153.768 270.851 154.455 269.651 154.647C268.731 154.793 268.493 155.32 268.433 155.584Z" fill="#45391D"/>
<path d="M269.966 112.287C269.966 112.287 270.372 117.289 270.851 123.303C271.501 131.472 272.282 141.507 272.359 143.407C272.492 146.708 273.03 151.988 273.03 151.988C273.03 151.988 274.301 153.243 276.847 152.714C276.847 152.714 279.116 145.177 279.763 137.202C279.773 137.071 279.783 136.94 279.793 136.808C280.397 128.689 281.334 111.594 281.334 111.594L269.966 112.287Z" fill="#847D3D"/>
<path d="M269.966 112.287C269.966 112.287 270.372 117.289 270.851 123.303L279.761 137.202C279.771 137.071 279.782 136.94 279.792 136.808C280.395 128.689 281.332 111.594 281.332 111.594L269.966 112.287Z" fill="#45391D"/>
<path d="M271.827 112.88C271.827 112.88 279.159 130.998 283.98 139.513C288.802 148.027 290.307 150.403 290.307 150.403C290.307 150.403 293.07 149.313 293.321 148.572C293.321 148.572 291.477 132.135 288.25 128.128C286.424 125.863 284.282 119.068 284.181 116.692C284.08 114.317 283.529 109.613 283.529 109.613L271.827 112.88Z" fill="#847D3D"/>
<path d="M289.459 110.519C288.642 110.777 288.511 110.718 288.511 110.718C288.511 110.718 284.54 103.622 284.138 102.974C283.737 102.324 275.707 95.0165 275.707 95.0165L277.771 87.4648C277.771 87.4648 286.904 99.0708 287.89 100.737C289.52 103.489 290.474 109.88 290.474 109.88C290.474 109.88 290.099 110.318 289.459 110.519Z" fill="#7A1A17"/>
<path d="M268.419 97.8764C268.448 99.4327 268.539 101.181 268.661 102.957C268.668 103.062 268.676 103.167 268.683 103.273C268.762 104.373 268.846 105.476 268.944 106.552C268.982 106.984 269.024 107.409 269.068 107.828L269.075 107.885C269.078 108.041 269.096 108.212 269.115 108.367C269.515 112.395 269.933 115.578 270.01 115.626C270.103 115.688 270.207 115.718 270.321 115.704C271.385 115.571 274.56 115.811 277.16 115.251C279.352 114.792 281.241 113.921 283.242 112.747C283.507 112.592 284.112 112.178 284.064 111.87C284.015 111.531 283.926 111.041 283.811 110.425C283.417 108.283 282.736 104.597 282.504 100.283C282.459 99.4794 282.393 98.6871 282.308 97.9065C282.084 95.8748 281.728 93.9432 281.248 92.2285C280.357 89.0425 279.046 86.6039 277.403 85.6498C277.188 85.5297 276.034 86.2603 274.974 86.9358C273.994 87.5597 272.963 87.7315 271.959 87.6447L271.077 88.6139C270.009 89.8482 268.87 91.4896 268.559 93.8248C268.535 93.9966 268.515 94.1801 268.498 94.3752C268.416 95.3244 268.396 96.5287 268.419 97.8764Z" fill="#BB2026"/>
<path d="M268.419 97.8813C268.448 99.4297 268.539 101.169 268.661 102.936C268.668 103.041 268.677 103.145 268.683 103.25C274.766 99.4927 275.704 92.6172 275.704 92.6172C272.711 92.7466 270.335 93.4254 268.502 94.3962C268.416 95.3422 268.396 96.5404 268.419 97.8813Z" fill="#7A1A17"/>
<path d="M252.938 100.846C252.876 99.963 253.346 99.8148 253.346 99.8148C253.346 99.8148 262.573 98.1881 263.358 97.9477C264.142 97.7073 270.848 90.9171 270.848 90.9171C270.848 90.9171 273.42 88.095 275.524 88.719C277.353 89.2607 278.069 90.6487 278.312 91.9725C278.601 93.5482 277.855 95.1355 276.453 95.9719C273.305 97.8522 267.001 101.555 265.516 101.978C262.212 102.922 253.334 102.054 253.334 102.054C253.334 102.054 252.989 101.539 252.938 100.846Z" fill="#BB2026"/>
<path d="M176.608 89.928C176.538 90.0179 215.036 140.131 215.036 140.131V138.208L177.303 88.6289L176.608 89.928Z" fill="#E65924"/>
<path d="M119.005 225.802C118.794 225.928 118.58 226.051 118.365 226.169C118.29 226.209 118.218 226.249 118.144 226.287C117.975 226.375 117.807 226.46 117.638 226.543C109.515 230.475 99.6061 227.456 95.1887 219.56C90.9769 212.027 93.2403 202.699 100.152 197.799C100.703 197.409 101.283 197.045 101.893 196.714C102.112 196.595 102.333 196.482 102.554 196.374C102.77 196.268 102.985 196.168 103.204 196.072C103.872 195.777 104.551 195.532 105.235 195.329C106.253 195.027 107.288 194.822 108.325 194.714C111.539 194.379 114.771 194.957 117.638 196.341C120.68 197.806 123.309 200.178 125.069 203.323C129.497 211.243 126.768 221.148 119.005 225.802Z" fill="#FD9C28"/>
<path d="M110.253 226.899C104.78 226.899 99.4697 224.043 96.6466 218.994C92.5191 211.613 95.2528 202.297 102.741 198.229C110.229 194.16 119.679 196.855 123.807 204.236C127.934 211.618 125.201 220.933 117.712 225.002C115.346 226.287 112.783 226.899 110.253 226.899ZM110.202 197.175C107.812 197.175 105.39 197.752 103.154 198.968C96.0786 202.812 93.4966 211.614 97.3966 218.589C101.297 225.563 110.226 228.108 117.301 224.264C124.376 220.419 126.958 211.618 123.058 204.643C120.39 199.873 115.371 197.175 110.202 197.175Z" fill="#E65924"/>
<path d="M117.744 213.08C117.71 212.997 117.674 212.918 117.637 212.839C117.361 212.24 117.015 211.753 116.603 211.382C116.136 210.962 115.593 210.648 114.974 210.437C114.356 210.228 113.667 210.1 112.905 210.053C112.143 210.007 111.314 209.997 110.419 210.022C109.866 210.038 109.392 210.028 109 209.994C108.607 209.959 108.273 209.887 108 209.778C107.726 209.67 107.505 209.52 107.333 209.332C107.163 209.145 107.021 208.915 106.91 208.643C106.797 208.372 106.735 208.103 106.718 207.835C106.701 207.57 106.741 207.315 106.839 207.074C106.937 206.835 107.095 206.613 107.314 206.41C107.533 206.206 107.823 206.033 108.184 205.888C108.85 205.622 109.472 205.627 110.048 205.905C110.624 206.182 111.095 206.762 111.457 207.643L114.932 206.252C114.631 205.518 114.251 204.898 113.795 204.393C113.34 203.888 112.826 203.496 112.254 203.22C111.683 202.944 111.061 202.783 110.388 202.737C109.716 202.69 109.017 202.76 108.29 202.948L107.306 200.559L105.383 201.328L106.354 203.684C105.659 204.039 105.071 204.451 104.587 204.923C104.105 205.395 103.733 205.905 103.475 206.453C103.215 207.001 103.079 207.578 103.065 208.181C103.052 208.784 103.175 209.399 103.431 210.022C103.728 210.741 104.109 211.311 104.577 211.731C105.044 212.152 105.587 212.464 106.204 212.67C106.821 212.876 107.512 213.001 108.275 213.04C109.038 213.082 109.869 213.08 110.768 213.037C111.288 213.009 111.74 213.011 112.123 213.045C112.505 213.08 112.837 213.152 113.115 213.263C113.394 213.374 113.626 213.529 113.812 213.728C113.997 213.928 114.152 214.182 114.28 214.489C114.393 214.762 114.447 215.031 114.447 215.302C114.447 215.572 114.385 215.83 114.262 216.076C114.138 216.322 113.955 216.549 113.709 216.759C113.463 216.968 113.153 217.147 112.775 217.299C112.446 217.43 112.106 217.516 111.755 217.559C111.403 217.601 111.061 217.568 110.726 217.458C110.39 217.348 110.078 217.149 109.787 216.86C109.495 216.571 109.241 216.165 109.027 215.644L105.551 217.034C105.914 217.915 106.369 218.614 106.918 219.129C107.466 219.646 108.068 220.015 108.718 220.236C109.371 220.458 110.051 220.555 110.764 220.527C111.476 220.498 112.178 220.384 112.871 220.183L113.768 222.362L115.679 221.596L114.777 219.407C115.472 219.051 116.067 218.643 116.562 218.179C117.02 217.75 117.379 217.289 117.639 216.793C117.661 216.754 117.681 216.714 117.7 216.672C117.961 216.132 118.103 215.559 118.119 214.953C118.135 214.351 118.01 213.725 117.744 213.08Z" fill="#E65924"/>
<path d="M97.4785 152.317C97.5313 152.111 92.8891 154.364 92.6542 154.62C90.4769 156.978 91.0983 160.053 92.3444 160.083C93.1428 160.102 92.9878 161.399 92.9878 161.399L101.888 157.724C101.888 157.722 100.817 151.622 97.4785 152.317Z" fill="#070707"/>
<path d="M98.5 152.652C98.5 152.652 98.8146 149.27 94.9857 149.27C94.9857 149.27 96.1465 149.58 96.7454 150.201C96.7454 150.201 94.3044 148.786 91.6464 150.96C88.99 153.133 90.6403 158.587 89.8328 159.623C89.0253 160.659 85.8778 160.865 86.263 164.212C86.6482 167.56 96.2491 171.753 95.6334 174.522C95.6334 174.522 99.3967 169.063 96.705 166.57C96.705 166.57 98.0172 167.789 98.1501 169.239C98.1501 169.239 98.5068 166.409 96.6815 165.504C95.0665 164.704 93.7442 161.775 93.8838 161.25C94.0234 160.729 98.5 152.652 98.5 152.652Z" fill="#070707"/>
<path d="M95.0648 168.593C94.47 165.772 90.7568 164.897 88.9994 167.201C88.6842 167.615 88.4605 168.104 88.3893 168.683C87.9876 171.884 93.1854 184.923 93.9294 186.103C95.2851 188.253 103.264 195.621 103.264 195.621L104.735 194.743C104.735 194.743 99.0746 185.307 98.1984 184.424C97.1866 183.403 96.1952 173.947 95.0648 168.593Z" fill="#D8A982"/>
<path d="M102.601 194.632C102.601 194.632 104.772 193.205 105.596 193.297C106.417 193.39 108.798 194.074 108.827 194.424C108.856 194.774 106.175 194.992 105.995 195.184C105.815 195.376 103.995 196.591 103.335 196.21C102.674 195.827 102.601 194.632 102.601 194.632Z" fill="#D8A982"/>
<path d="M87.832 225.857L85.9269 225.581C85.9269 225.581 79.5193 220.568 78.5642 211.213C78.4665 210.261 78.4463 209.294 78.5187 208.321C78.5272 208.208 78.5154 208.097 78.4531 208.002C78.4531 208.002 78.4531 208.001 78.4514 207.999C78.2459 207.689 77.7355 206.915 77.0448 205.812C76.3643 204.725 75.197 202.671 73.9151 200.366C71.6041 196.215 68.914 191.249 67.9909 189.669C65.0516 184.629 66.4682 181.241 66.4682 181.241C66.4682 181.241 74.6698 180.443 76.9168 178.508L77.727 179.737C77.727 179.737 79.5041 187.483 79.4199 187.518C79.5075 187.782 79.5968 188.05 79.6861 188.322C81.0892 192.584 82.7012 197.911 83.5805 202.248C84.0757 204.689 84.3368 206.815 84.1953 208.264C84.1465 208.762 84.2054 209.525 84.3402 210.468C85.1352 216.024 87.832 225.857 87.832 225.857Z" fill="#AD1F24"/>
<path d="M91.7482 228.183H83.7859C83.7859 228.183 83.5953 227 84.0102 226.102C84.4084 225.24 84.9769 225.214 84.0828 223.863C84.5889 224.372 86.2151 224.582 87.3655 224.431C87.5072 224.654 88.2748 226.15 88.7455 226.48C89.2684 226.844 91.5879 226.714 91.7482 228.183Z" fill="#002822"/>
<path d="M65.0797 188.28C64.3467 192.057 62.6138 198.346 58.9827 200.346C56.5418 196.188 53.7005 191.213 52.7256 189.63C49.621 184.581 51.1173 181.187 51.1173 181.187C51.1173 181.187 59.7797 180.388 62.1531 178.449L63.0088 179.68C63.0088 179.68 64.8858 187.441 64.7968 187.475C64.8911 187.738 64.9854 188.005 65.0797 188.28Z" fill="#941C1F"/>
<path d="M94.1842 166.879C94.1842 166.879 95.3197 168.04 95.839 169.43C95.839 169.43 94.0258 174.543 89.79 175.186C89.7917 175.186 93.1422 166.877 94.1842 166.879Z" fill="#847D3D"/>
<path d="M59.1941 181.772L59.2226 180.305C56.0932 180.674 48.4323 176.812 48.4323 176.812C48.4323 176.812 45.1588 178.846 44.7104 184.652C44.4916 187.487 43.1075 199.474 42.9544 203.054C42.8993 204.351 42.8797 205.277 42.8744 205.647C42.8744 205.649 42.8744 205.651 42.8744 205.651C42.8726 205.763 42.8157 205.863 42.741 205.953C42.0934 206.722 41.5312 207.536 41.0455 208.38C36.2704 216.677 38.7682 227.949 38.7682 227.949L39.8766 227.687C39.8766 227.687 43.9134 216.001 46.5536 210.945C47.0019 210.088 47.4076 209.422 47.7491 209.035C48.7419 207.91 49.788 205.998 50.8181 203.698C52.768 199.351 54.6592 193.612 56.0095 189.17C56.1056 189.185 59.1941 181.772 59.1941 181.772Z" fill="#AD1F24"/>
<path d="M91.415 172.015C86.5826 170.916 89.6709 164.186 89.9498 164.306C90.6185 164.171 92.0887 163.005 93.4044 160.73L93.5825 160.884L96.5497 163.462C96.5497 163.462 95.8642 164.464 95.2862 165.447C94.8359 166.216 94.4528 166.974 94.5133 167.234C94.7536 167.419 92.7037 172.308 91.415 172.015Z" fill="#F5C99D"/>
<path d="M96.5479 163.433C96.5479 163.433 95.8621 164.417 95.2839 165.384C93.4383 164.276 93.4366 162.051 93.5778 160.898L96.5479 163.433Z" fill="#D8A982"/>
<path d="M96.6222 164.672C96.6222 164.672 92.0769 162.212 93.6949 159.483C95.3129 156.755 95.8175 154.6 98.7875 156.054C101.757 157.509 101.699 158.863 101.387 159.901C101.075 160.942 97.8464 165.242 96.6222 164.672Z" fill="#F5C99D"/>
<path d="M102.036 158.383C101.834 157.156 101.218 157.039 100.788 157.121C99.1517 154.389 96.4813 155.455 96.4813 155.455C95.0548 157.264 92.9922 157.573 92.9922 157.573C92.9922 157.573 93.5053 158.539 95.6227 159.137C96.2687 159.319 97.0028 159.209 97.7119 158.967C96.2439 159.794 94.7077 160.112 94.7077 160.112C97.4977 160.37 100.151 157.792 100.427 157.517C100.557 157.917 100.781 158.752 100.646 159.365C100.462 160.195 99.733 161.701 100.178 161.895C100.176 161.895 102.34 160.222 102.036 158.383Z" fill="#070707"/>
<path d="M45.4435 228.261H37.0461C37.0461 228.261 36.8451 227.066 37.2827 226.159C37.7026 225.289 38.3609 224.893 38.2043 223.84C38.738 224.353 39.608 224.928 40.8214 224.775C40.9708 225.001 41.7821 226.206 42.2784 226.54C42.8282 226.908 45.2745 226.777 45.4435 228.261Z" fill="#002822"/>
<path d="M91.9734 177.334C90.9487 177.685 89.5089 177.877 88.0369 178.035C85.9421 178.26 83.778 178.413 82.6453 178.857C82.2318 179.019 81.9549 179.218 81.8688 179.473C81.3776 180.924 79.2136 183.161 79.2136 183.161C65.3397 182.541 63.8154 176.843 63.8154 176.843C73.1502 166.186 88.9552 163.1 88.9552 163.1C88.9552 163.1 90.0845 162.631 92.9271 164.849C94.8244 166.33 94.5746 166.899 94.5746 166.899C94.5746 166.899 94.9899 176.301 91.9734 177.334Z" fill="#E35A28"/>
<path d="M88.0111 178.015C85.9545 178.241 83.8299 178.394 82.7179 178.841C82.2638 172.015 85.4689 166.879 85.4689 166.879C85.4689 166.879 87.5604 175.432 88.0111 178.015Z" fill="#6B1D14"/>
<path d="M90.1751 165.551C90.1751 165.551 84.8995 166.062 84.4773 169.432C84.055 172.801 89.5341 186.523 90.3192 187.766C91.7488 190.028 100.162 197.781 100.162 197.781L101.711 196.858C101.711 196.858 95.744 186.928 94.8198 185.999C93.3699 184.538 91.9607 166.717 90.1751 165.551Z" fill="#F5C99D"/>
<path d="M84.6598 171.48C84.6733 171.557 89.4905 173.049 92.5898 171.48C92.5898 171.48 93.2527 164.346 89.5528 164.734C85.8528 165.122 83.6604 166.285 83.5678 168.052C83.4736 169.817 84.6598 171.48 84.6598 171.48Z" fill="#D33B28"/>
<path d="M99.5742 196.695C99.5742 196.695 101.468 195 102.286 194.961C103.104 194.921 105.538 195.202 105.621 195.531C105.706 195.86 103.121 196.484 102.977 196.694C102.831 196.904 101.248 198.342 100.543 198.082C99.8373 197.821 99.5742 196.695 99.5742 196.695Z" fill="#F5C99D"/>
<path d="M306.129 228.02H45.4902V229.182H306.129V228.02Z" fill="#070707"/>
<defs>
<linearGradient id="paint0_linear_1659_5" x1="50.9479" y1="112.423" x2="148.31" y2="112.423" gradientUnits="userSpaceOnUse">
<stop stop-color="#ED6B27"/>
<stop offset="1" stop-color="#BB2026"/>
</linearGradient>
<linearGradient id="paint1_linear_1659_5" x1="199.408" y1="69.429" x2="286.763" y2="69.429" gradientUnits="userSpaceOnUse">
<stop stop-color="#3E815B"/>
<stop offset="1" stop-color="#277455"/>
</linearGradient>
<linearGradient id="paint2_linear_1659_5" x1="207.384" y1="68.7604" x2="279.229" y2="68.7604" gradientUnits="userSpaceOnUse">
<stop stop-color="#214A35"/>
<stop offset="1" stop-color="#022B1D"/>
</linearGradient>
<linearGradient id="paint3_linear_1659_5" x1="231.358" y1="68.7557" x2="255.247" y2="68.7557" gradientUnits="userSpaceOnUse">
<stop stop-color="#214A35"/>
<stop offset="1" stop-color="#022B1D"/>
</linearGradient>
<linearGradient id="paint4_linear_1659_5" x1="220.73" y1="93.2983" x2="339.591" y2="93.2983" gradientUnits="userSpaceOnUse">
<stop stop-color="#3E815B"/>
<stop offset="1" stop-color="#277455"/>
</linearGradient>
<linearGradient id="paint5_linear_1659_5" x1="229.609" y1="92.8299" x2="331.776" y2="92.8299" gradientUnits="userSpaceOnUse">
<stop stop-color="#214A35"/>
<stop offset="1" stop-color="#022B1D"/>
</linearGradient>
<linearGradient id="paint6_linear_1659_5" x1="268.749" y1="92.8292" x2="292.632" y2="92.8292" gradientUnits="userSpaceOnUse">
<stop stop-color="#214A35"/>
<stop offset="1" stop-color="#022B1D"/>
</linearGradient>
<linearGradient id="paint7_linear_1659_5" x1="147.966" y1="91.9525" x2="202.764" y2="91.9525" gradientUnits="userSpaceOnUse">
<stop stop-color="#CBCE55"/>
<stop offset="1" stop-color="#217B4F"/>
</linearGradient>
<linearGradient id="paint8_linear_1659_5" x1="246.172" y1="194.79" x2="340.999" y2="194.79" gradientUnits="userSpaceOnUse">
<stop stop-color="#CBCE55"/>
<stop offset="1" stop-color="#217B4F"/>
</linearGradient>
<linearGradient id="paint9_linear_1659_5" x1="173.228" y1="128.005" x2="189.774" y2="128.005" gradientUnits="userSpaceOnUse">
<stop stop-color="#FDB43C"/>
<stop offset="1" stop-color="#F47A11"/>
</linearGradient>
<linearGradient id="paint10_linear_1659_5" x1="134.797" y1="197.698" x2="149.742" y2="197.698" gradientUnits="userSpaceOnUse">
<stop stop-color="#FDB43C"/>
<stop offset="1" stop-color="#F47A11"/>
</linearGradient>
<linearGradient id="paint11_linear_1659_5" x1="218.821" y1="100.725" x2="251.6" y2="100.725" gradientUnits="userSpaceOnUse">
<stop stop-color="#CEEFE5"/>
<stop offset="1" stop-color="#27C888"/>
</linearGradient>
</defs>
</svg>
