<svg width="378" height="240" viewBox="0 0 378 240" fill="none" xmlns="http://www.w3.org/2000/svg">
<g clip-path="url(#clip0_1659_5)">
<path d="M266.25 197.25C308.638 154.862 308.638 86.1379 266.25 43.75C223.862 1.36214 155.138 1.36215 112.75 43.75C70.3621 86.1379 70.3621 154.862 112.75 197.25C155.138 239.638 223.862 239.638 266.25 197.25Z" fill="#BAE2E8"/>
<path d="M133.79 133.631L134.375 129.247C134.776 125.49 133.106 119.441 128.819 118.706C124.954 118.043 120.663 124.39 119.521 128.456C119.552 123.444 112.557 116.115 108.353 115.55C101.414 114.619 100.062 124.483 100.124 129.458C97.6003 125.912 90.3738 121.805 88.7753 128.358C87.5212 133.508 90.821 136.679 92.2498 140.925C88.4618 139.506 85.3265 139.825 82.9365 141.223C84.0827 147.149 85.7069 152.901 87.7731 158.441C95.1281 158.225 102.473 157.603 109.818 157.249C118.699 156.817 127.889 157.316 136.668 156.699C136.997 153.25 135.866 148.814 135.532 145.304C135.244 142.143 136.241 135.883 133.79 133.631Z" fill="#81AD23"/>
<path d="M279.684 139.765C275.295 130.56 269.502 136.82 263.946 140.916C263.108 137.93 263.53 133.911 259.536 133.628C256.093 133.387 253.183 136.851 250.778 138.809C250.485 132.107 251.446 124.382 244.312 120.917C237.826 117.772 232.038 120.594 227.058 124.669C227.078 126.304 227.084 127.938 227.084 129.568C227.078 136.589 227.068 143.61 227.063 150.631C227.063 152.846 227.058 155.061 227.053 157.276C235.909 157.482 245.14 157.019 254.109 157.019C263.73 157.019 274.328 156.695 283.734 157.852C284.243 151.962 282.192 145.028 279.684 139.765Z" fill="#81AD23"/>
<path d="M244.944 94.6758H190.781V150.591H244.944V94.6758Z" fill="#DDD7D1"/>
<path d="M120.875 100.057L185.523 99.8722L155.702 55.1406L120.875 100.057Z" fill="#63492F"/>
<path d="M193.415 150.593H127.487V96.9443L160.305 54.9883L184.169 84.5163L193.415 96.9443V150.593Z" fill="white"/>
<path d="M155.662 53.457L120.799 98.1886L120.876 100.054L155.611 55.9395C155.611 55.9395 156.011 54.6238 155.662 53.457Z" fill="#79624C"/>
<path d="M127.487 96.9466V103.001C133.249 95.4201 158.331 62.5923 158.331 62.5923L193.415 107.396L244.942 115.419V94.6799H191.729L184.169 84.5186L160.444 55.1602H160.171L127.487 96.9466Z" fill="#DED9D3"/>
<path d="M251.231 98.187V100.053H190.381V98.187C190.381 98.187 251.339 98.0739 251.231 98.187Z" fill="#63492F"/>
<path d="M155.628 53.457L190.496 98.1886H251.233L215.27 53.457H155.628Z" fill="#B28557"/>
<path d="M155.627 53.4568L190.49 98.1883L190.413 100.054L155.591 55.8674C155.591 55.8674 155.74 53.3437 155.627 53.4568Z" fill="#79624C"/>
<path d="M162.426 58.4572C165.824 58.6114 169.221 58.5754 172.624 58.5754C174.299 58.5754 175.98 58.5806 177.656 58.5806C179.372 58.5806 181.115 58.6782 182.821 58.4572C183.052 58.4264 183.057 58.1231 182.821 58.0923C181.161 57.8764 179.46 57.9689 177.789 57.9689C176.067 57.9689 174.346 57.9741 172.624 57.9741C169.226 57.9792 165.824 57.9432 162.426 58.0923C162.195 58.1077 162.195 58.4469 162.426 58.4572Z" fill="#70573F"/>
<path d="M188.518 58.3042C188.852 58.3145 189.186 58.3299 189.526 58.3402C189.855 58.3505 190.225 58.3351 190.533 58.2117C190.682 58.15 190.682 57.9701 190.533 57.9085C190.225 57.7851 189.855 57.7697 189.526 57.78C189.192 57.7902 188.858 57.8057 188.518 57.8159C188.2 57.8262 188.2 58.2939 188.518 58.3042Z" fill="#70573F"/>
<path d="M195.756 57.7999C198.68 57.805 201.605 57.8564 204.524 57.8924C207.433 57.9232 210.399 58.0517 213.293 57.7742C213.488 57.7536 213.488 57.4864 213.293 57.4658C210.394 57.1934 207.433 57.3167 204.524 57.3476C201.599 57.3784 198.675 57.435 195.756 57.4401C195.529 57.4452 195.529 57.7999 195.756 57.7999Z" fill="#70573F"/>
<path d="M202.549 61.5568C204.379 61.5979 206.203 61.6338 208.033 61.6441C209.863 61.6544 211.693 61.7058 213.517 61.5516C213.774 61.531 213.774 61.1764 213.517 61.1558C211.693 61.0016 209.863 61.0531 208.033 61.0633C206.203 61.0736 204.379 61.1044 202.549 61.1507C202.282 61.1456 202.282 61.5465 202.549 61.5568Z" fill="#70573F"/>
<path d="M194.881 61.7927C193.242 61.7002 191.607 61.6128 189.963 61.6077C189.145 61.6077 188.323 61.582 187.506 61.6128C186.76 61.6437 185.902 61.6026 185.193 61.8595C185.044 61.9161 185.044 62.1063 185.193 62.1628C185.902 62.4198 186.76 62.3735 187.506 62.4095C188.323 62.4455 189.145 62.4198 189.963 62.4146C191.607 62.4095 193.242 62.3273 194.881 62.2296C195.164 62.2142 195.164 61.8081 194.881 61.7927Z" fill="#70573F"/>
<path d="M178.209 62.6724C176.379 62.6673 174.554 62.6981 172.724 62.7906C172.606 62.7958 172.606 62.9654 172.724 62.9705C174.549 63.063 176.379 63.099 178.209 63.0887C178.481 63.0939 178.481 62.6724 178.209 62.6724Z" fill="#70573F"/>
<path d="M169.221 68.7549C176.813 68.8731 184.44 69.0684 192.027 68.724C192.212 68.7137 192.212 68.4413 192.027 68.4362C184.44 68.0918 176.813 68.2871 169.221 68.4053C169 68.4105 169 68.7497 169.221 68.7549Z" fill="#70573F"/>
<path d="M198.386 66.5452C198.535 66.5401 198.684 66.5349 198.833 66.5298C198.905 66.5298 198.982 66.5247 199.054 66.5247C199.131 66.5247 199.213 66.5092 199.29 66.4938C199.398 66.4784 199.398 66.2934 199.29 66.278C199.213 66.2677 199.136 66.2523 199.054 66.2471C198.977 66.2471 198.905 66.242 198.833 66.242C198.684 66.2368 198.535 66.2317 198.386 66.2266C198.304 66.2266 198.227 66.2985 198.227 66.3859C198.232 66.4733 198.299 66.5504 198.386 66.5452Z" fill="#70573F"/>
<path d="M207.378 66.0113C208.108 66.0062 208.843 66.0164 209.573 65.9856C209.619 65.9856 209.619 65.9136 209.573 65.9085C208.843 65.8777 208.113 65.888 207.378 65.8828C207.296 65.888 207.296 66.0113 207.378 66.0113Z" fill="#70573F"/>
<path d="M211.763 65.8271C213.335 65.8888 214.903 65.9248 216.476 65.9762C218.054 66.0224 219.616 66.0635 221.189 65.8836C221.369 65.8631 221.369 65.6215 221.189 65.601C219.616 65.4211 218.054 65.4622 216.476 65.5084C214.903 65.5547 213.33 65.5958 211.763 65.6524C211.649 65.6575 211.649 65.822 211.763 65.8271Z" fill="#70573F"/>
<path d="M199.484 72.114C202.619 72.2836 205.775 72.2168 208.911 72.1448C212.051 72.078 215.197 72.0575 218.337 71.9649C218.455 71.9598 218.455 71.785 218.337 71.785C215.197 71.6925 212.051 71.672 208.911 71.6051C205.775 71.5383 202.614 71.4664 199.484 71.636C199.176 71.6514 199.171 72.0986 199.484 72.114Z" fill="#70573F"/>
<path d="M225.133 70.8281C225.56 70.8281 225.986 70.8281 226.408 70.8281C226.614 70.8281 226.819 70.8332 227.025 70.8127C227.138 70.8024 227.251 70.7818 227.364 70.7613C227.467 70.7407 227.559 70.7253 227.631 70.6482C227.677 70.5968 227.677 70.5248 227.631 70.4734C227.559 70.3912 227.467 70.3809 227.364 70.3604C227.251 70.3398 227.138 70.3192 227.025 70.309C226.819 70.2884 226.614 70.2935 226.408 70.2935C225.981 70.2935 225.555 70.2935 225.133 70.2935C224.789 70.2884 224.789 70.8281 225.133 70.8281Z" fill="#70573F"/>
<path d="M192.683 73.6211C191.331 73.6159 189.98 73.6057 188.628 73.6005C187.276 73.5954 185.914 73.544 184.573 73.7239C184.413 73.7444 184.413 73.95 184.573 73.9706C185.914 74.1505 187.276 74.0991 188.628 74.0939C189.98 74.0888 191.331 74.0785 192.683 74.0734C192.976 74.0734 192.976 73.6211 192.683 73.6211Z" fill="#70573F"/>
<path d="M177.556 79.4986C179.448 79.7504 181.432 79.6168 183.334 79.622C185.215 79.6271 187.096 79.6322 188.982 79.6322C190.863 79.6322 192.745 79.6322 194.631 79.6322C195.592 79.6322 196.558 79.6322 197.519 79.6322C198.383 79.6322 199.344 79.699 200.187 79.4729C200.331 79.4318 200.331 79.2159 200.187 79.1799C199.344 78.9538 198.388 79.0206 197.519 79.0206C196.558 79.0206 195.592 79.0206 194.631 79.0206C192.75 79.0206 190.868 79.0206 188.982 79.0206C187.101 79.0206 185.22 79.0257 183.334 79.0309C181.432 79.036 179.448 78.9024 177.556 79.1542C177.341 79.1851 177.341 79.4678 177.556 79.4986Z" fill="#70573F"/>
<path d="M205.406 78.6332C205.925 78.6383 206.449 78.6435 206.968 78.6486C207.477 78.6538 208.007 78.6795 208.5 78.551C208.603 78.5253 208.603 78.3711 208.5 78.3454C208.007 78.2169 207.472 78.2426 206.968 78.2477C206.449 78.2529 205.925 78.258 205.406 78.2631C205.164 78.2631 205.164 78.6332 205.406 78.6332Z" fill="#70573F"/>
<path d="M218.34 78.089C218.633 78.0787 218.926 78.0736 219.219 78.0633C219.286 78.0633 219.286 77.9554 219.219 77.9554C218.926 77.9451 218.633 77.94 218.34 77.9297C218.237 77.9297 218.237 78.0942 218.34 78.089Z" fill="#70573F"/>
<path d="M221.19 77.9438C222.578 77.9541 223.966 77.9644 225.359 77.985C226.747 78.0055 228.139 78.0569 229.527 77.9181C229.687 77.9027 229.687 77.6868 229.527 77.6714C228.145 77.5327 226.752 77.584 225.359 77.6046C223.971 77.6252 222.583 77.6354 221.19 77.6457C221 77.6457 221 77.9438 221.19 77.9438Z" fill="#70573F"/>
<path d="M184.354 86.1019C188.497 86.2613 192.721 86.3949 196.854 86.0505C197.039 86.0351 197.039 85.7781 196.854 85.7627C192.721 85.4183 188.497 85.552 184.354 85.7113C184.102 85.7267 184.102 86.0916 184.354 86.1019Z" fill="#70573F"/>
<path d="M205.405 85.3107C208.437 85.3621 211.47 85.3416 214.502 85.3467C217.534 85.3518 220.577 85.4135 223.599 85.2079C223.82 85.1925 223.826 84.8738 223.599 84.8584C220.572 84.6528 217.529 84.7145 214.502 84.7196C211.47 84.7248 208.437 84.7042 205.405 84.7556C205.045 84.7608 205.045 85.3056 205.405 85.3107Z" fill="#70573F"/>
<path d="M230.403 83.1541C231.333 83.1695 232.269 83.19 233.199 83.1849C234.109 83.1798 235.049 83.2414 235.939 83.0204C236.124 82.9742 236.124 82.6915 235.939 82.6452C235.049 82.4242 234.109 82.4859 233.199 82.4808C232.269 82.4756 231.333 82.4962 230.403 82.5116C229.992 82.5219 229.992 83.1489 230.403 83.1541Z" fill="#70573F"/>
<path d="M193.561 91.5726C196.08 91.6497 198.603 91.6445 201.127 91.6445C203.64 91.6445 206.184 91.7268 208.693 91.5315C208.878 91.516 208.878 91.2539 208.693 91.2436C206.184 91.0535 203.645 91.1357 201.127 91.1305C198.603 91.1305 196.085 91.1254 193.561 91.2025C193.319 91.2076 193.319 91.5674 193.561 91.5726Z" fill="#70573F"/>
<path d="M215.925 89.8522C217.153 89.8522 218.387 89.8779 219.615 89.8265C220.232 89.8008 220.844 89.7803 221.461 89.7751C222.036 89.77 222.612 89.7957 223.182 89.7032C223.249 89.6929 223.249 89.5798 223.182 89.5695C222.612 89.4822 222.036 89.5027 221.461 89.4976C220.844 89.4924 220.232 89.4719 219.615 89.4462C218.387 89.3948 217.153 89.4205 215.925 89.4205C215.647 89.4205 215.647 89.8522 215.925 89.8522Z" fill="#70573F"/>
<path d="M230.178 90.11C231.201 90.1717 232.224 90.146 233.247 90.11C234.275 90.074 235.292 90.0483 236.315 89.9507C236.434 89.9404 236.434 89.7811 236.315 89.7708C235.292 89.6731 234.27 89.6474 233.247 89.6115C232.224 89.5755 231.201 89.5498 230.178 89.6115C229.855 89.6217 229.855 90.0895 230.178 90.11Z" fill="#70573F"/>
<path d="M209.128 95.2843C215.337 95.3614 221.561 95.5258 227.765 95.2123C227.888 95.2072 227.888 95.0273 227.765 95.0221C221.556 94.7138 215.337 94.8731 209.128 94.9502C208.912 94.9553 208.912 95.2791 209.128 95.2843Z" fill="#70573F"/>
<path d="M234.565 94.1972C236.904 94.1869 239.247 94.1406 241.581 94.0687C241.637 94.0687 241.637 93.9813 241.581 93.9762C239.242 93.9042 236.904 93.8579 234.565 93.8477C234.339 93.8477 234.339 94.1972 234.565 94.1972Z" fill="#70573F"/>
<path d="M195.094 95.8883C196.996 95.914 198.898 95.9654 200.794 95.8574C200.902 95.8523 200.902 95.6981 200.794 95.693C198.898 95.585 196.996 95.6416 195.094 95.6621C194.95 95.6673 194.95 95.8883 195.094 95.8883Z" fill="#70573F"/>
<path d="M168.079 112.219H147.905V150.592H168.079V112.219Z" fill="#63492F"/>
<path d="M148.929 113.187V150.589H168.08V112.652H149.458C149.165 112.657 148.929 112.894 148.929 113.187Z" fill="#B28557"/>
<path d="M152.873 133.922C152.873 134.677 152.292 135.289 151.573 135.289C150.853 135.289 150.272 134.677 150.272 133.922C150.272 133.166 150.853 132.555 151.573 132.555C152.287 132.555 152.873 133.166 152.873 133.922Z" fill="#CCC3BA"/>
<path d="M152.685 133.777C152.685 134.533 152.104 135.145 151.384 135.145C150.665 135.145 150.084 134.533 150.084 133.777C150.084 133.022 150.665 132.41 151.384 132.41C152.104 132.41 152.685 133.022 152.685 133.777Z" fill="#63492F"/>
<path d="M152.057 132.617C152.093 132.992 152.032 133.383 151.831 133.702C151.718 133.882 151.564 134.056 151.374 134.159C151.184 134.262 150.978 134.303 150.762 134.318C150.567 134.329 150.361 134.308 150.166 134.257C150.351 134.776 150.824 135.151 151.384 135.151C152.104 135.151 152.685 134.539 152.685 133.784C152.685 133.285 152.433 132.859 152.057 132.617Z" fill="#CCC3BA"/>
<path d="M154.695 132.993L154.53 134.36L162.261 134.308L161.998 132.828L154.695 132.993Z" fill="#63492F"/>
<path d="M161.999 132.828L154.695 132.993L154.634 133.496C155.698 133.414 161.017 133.013 161.408 133.486C161.619 133.738 161.686 134.051 161.696 134.314L162.261 134.308L161.999 132.828Z" fill="#CCC3BA"/>
<path d="M154.364 134.252L154.333 134.555L162.259 134.473L162.284 134.195L154.364 134.252Z" fill="#CDAE90"/>
<path d="M150.912 130.745H155.476V115.172L150.706 115.249L150.912 130.745Z" fill="#E0D24C"/>
<path d="M151.117 115.665L155.476 115.46V115.172L150.706 115.249L150.912 130.745H151.477L151.117 115.665Z" fill="#63492F"/>
<path d="M156.163 130.745H160.727V115.172L155.957 115.249L156.163 130.745Z" fill="#E0D24C"/>
<path d="M156.368 115.665L160.727 115.46V115.172L155.957 115.249L156.163 130.745H156.728L156.368 115.665Z" fill="#63492F"/>
<path d="M161.376 130.745H165.935V115.172L161.17 115.249L161.376 130.745Z" fill="#E0D24C"/>
<path d="M161.581 115.665L165.935 115.46V115.172L161.17 115.249L161.376 130.745H161.941L161.581 115.665Z" fill="#63492F"/>
<path d="M143.806 100.047H146.931V102.35L171.232 102.463V100.047L152.194 98.5156L143.806 100.047Z" fill="#DED9D3"/>
<path d="M159.774 81.609C159.564 81.5935 159.358 81.5781 159.142 81.5781C153.684 81.5781 149.248 86.0189 149.248 91.4722V97.8404C151.864 97.7582 154.485 97.7376 157.04 97.7222C158.063 97.717 159.086 97.7068 160.108 97.6965C161.954 97.6759 163.804 97.6708 165.649 97.6605C165.649 97.6605 167.983 97.6502 168.301 97.6502V91.4003C168.306 86.4044 164.585 82.2771 159.774 81.609Z" fill="#E0D24C"/>
<path d="M168.759 88.2987C168.734 88.2267 168.708 88.1496 168.677 88.0777C168.672 88.0623 168.667 88.0468 168.662 88.0366C168.646 88.0057 168.636 87.9749 168.621 87.944C168.466 87.6048 168.297 87.2707 168.137 86.9367L159.009 96.7434V80.7227H157.072V96.4607L148.987 87.7744C148.956 87.8721 148.925 87.9697 148.894 88.0674C148.74 88.5608 148.642 89.0697 148.586 89.5836C148.581 89.6453 148.575 89.7121 148.57 89.7738L157.565 99.4315L157.992 99.0922L158.629 99.5959L168.847 88.6174C168.821 88.5094 168.795 88.4015 168.759 88.2987Z" fill="#63492F"/>
<path d="M168.676 88.0777C168.671 88.0623 168.666 88.0468 168.661 88.0366C168.645 88.0057 168.635 87.9749 168.619 87.944C168.409 87.4763 168.167 87.024 167.956 86.5615L158.479 96.7434V80.7227H156.541V96.4607L148.857 88.2062C148.729 88.6585 148.631 89.1159 148.585 89.5836C148.559 89.8252 148.543 90.0616 148.533 90.3032L157.034 99.4315L157.461 99.0922L158.098 99.5959L168.717 88.1908C168.707 88.1548 168.691 88.1137 168.676 88.0777Z" fill="#B28557"/>
<path d="M158.41 79.9141C152.093 79.9141 146.928 85.0795 146.928 91.3963V99.5172C151.322 99.3065 155.732 99.327 160.132 99.2808C162.542 99.2551 164.948 99.2499 167.358 99.2345C168.206 99.2294 169.055 99.2294 169.897 99.2294V91.3912C169.892 85.0847 164.727 79.9141 158.41 79.9141ZM168.304 97.6515C167.985 97.6515 165.652 97.6617 165.652 97.6617C163.807 97.672 161.956 97.6772 160.111 97.6977C159.088 97.708 158.066 97.7183 157.043 97.7234C154.488 97.7388 151.867 97.7594 149.251 97.8416V91.4734C149.251 86.015 153.692 81.5794 159.145 81.5794C159.356 81.5794 159.566 81.5999 159.777 81.6102C164.588 82.2784 168.309 86.4056 168.309 91.4015V97.6515H168.304Z" fill="#B28557"/>
<path d="M171.234 97.75H143.808V100.053H171.234V97.75Z" fill="#63492F"/>
<path d="M169.679 97.7461H143.806V100.049H169.679V97.7461Z" fill="#79624C"/>
<path d="M149.245 91.4739C149.245 86.0154 153.686 81.5798 159.14 81.5798C159.35 81.5798 159.561 81.6003 159.772 81.6106C159.325 81.5489 158.872 81.5078 158.41 81.5078C152.956 81.5078 148.516 85.9486 148.516 91.4019V97.8677C148.757 97.8575 149.004 97.8523 149.245 97.8472V91.4739V91.4739Z" fill="#63492F"/>
<path d="M172.951 112.512L173.753 138.606H185.081L184.788 112.877L172.951 112.512Z" fill="#E0D24C"/>
<path d="M178.722 112.965L179.128 138.767L180.603 138.618L180.001 112.965H178.722Z" fill="#63492F"/>
<path d="M173.952 121.403L185.208 121.336L185.357 122.796L173.736 122.667L173.952 121.403Z" fill="#63492F"/>
<path d="M173.952 129.244L185.208 129.172L185.357 130.688L173.736 130.549L173.952 129.244Z" fill="#63492F"/>
<path d="M173.46 121.164L184.716 121.098L184.865 122.557L173.244 122.424L173.46 121.164Z" fill="#B28557"/>
<path d="M173.46 129.004L184.716 128.938L184.865 130.454L173.244 130.315L173.46 129.004Z" fill="#B28557"/>
<path d="M174.554 137.943L174.189 113.457L184.571 113.601L184.494 112.285L172.95 112.506L173.752 138.601L174.554 137.943Z" fill="#63492F"/>
<path d="M185.521 111.815L171.927 111.707L172.806 139.225L185.85 139.446L185.521 111.815ZM174.224 137.581L173.787 113.244L183.985 113.352L184.206 138.018L174.224 137.581Z" fill="#B28557"/>
<path d="M173.46 121.164L184.716 121.098L184.865 122.557L173.244 122.424L173.46 121.164Z" fill="#B28557"/>
<path d="M173.46 129.004L184.716 128.938L184.865 130.454L173.244 130.315L173.46 129.004Z" fill="#B28557"/>
<path d="M178.227 112.73L178.633 138.527L180.108 138.383L179.506 112.73H178.227Z" fill="#B28557"/>
<path d="M132.015 112.512L132.816 138.606H144.15L143.857 112.877L132.015 112.512Z" fill="#E0D24C"/>
<path d="M137.782 112.965L138.188 138.767L139.669 138.618L139.062 112.965H137.782Z" fill="#63492F"/>
<path d="M133.018 121.403L144.274 121.336L144.418 122.796L132.797 122.667L133.018 121.403Z" fill="#63492F"/>
<path d="M133.018 129.244L144.274 129.172L144.418 130.688L132.797 130.549L133.018 129.244Z" fill="#63492F"/>
<path d="M132.526 121.164L143.782 121.098L143.926 122.557L132.305 122.424L132.526 121.164Z" fill="#B28557"/>
<path d="M132.526 129.004L143.782 128.938L143.926 130.454L132.305 130.315L132.526 129.004Z" fill="#B28557"/>
<path d="M133.619 137.943L133.255 113.457L143.632 113.601L143.56 112.285L132.011 112.506L132.813 138.601L133.619 137.943Z" fill="#63492F"/>
<path d="M144.582 111.815L130.987 111.707L131.866 139.225L144.911 139.446L144.582 111.815ZM133.29 137.581L132.853 113.244L143.05 113.352L143.271 138.018L133.29 137.581Z" fill="#B28557"/>
<path d="M132.526 121.164L143.782 121.098L143.926 122.557L132.305 122.424L132.526 121.164Z" fill="#B28557"/>
<path d="M132.526 129.004L143.782 128.938L143.926 130.454L132.305 130.315L132.526 129.004Z" fill="#B28557"/>
<path d="M137.287 112.73L137.693 138.527L139.173 138.383L138.567 112.73H137.287Z" fill="#B28557"/>
<path d="M216.379 110.911L215.978 128.874L200.939 128.345L200.831 110.746L216.379 110.911Z" fill="#E0D24C"/>
<path d="M207.393 127.909C207.84 127.878 208.298 127.868 208.75 127.863L209.017 110.84H207.743L207.342 127.914C207.352 127.914 207.373 127.909 207.393 127.909Z" fill="#63492F"/>
<path d="M215.369 119.602L200.397 119.242L200.273 120.707L215.611 120.856L215.369 119.602Z" fill="#63492F"/>
<path d="M215.868 119.569L200.901 118.973L200.757 120.432L216.084 120.828L215.868 119.569Z" fill="#B28557"/>
<path d="M215.174 128.216L215.138 111.861L201.045 111.476L201.122 110.16L216.377 110.911L215.976 128.874L215.174 128.216Z" fill="#63492F"/>
<path d="M200.172 129.184L216.928 129.492L217.4 110.105L200.095 109.684L200.172 129.184ZM201.817 127.76L201.637 111.226L215.545 111.647L215.509 127.853L201.817 127.76Z" fill="#B28557"/>
<path d="M215.861 119.356L200.889 118.996L200.766 120.461L216.103 120.615L215.861 119.356Z" fill="#B28557"/>
<path d="M208.873 127.861C208.991 127.861 209.114 127.856 209.238 127.851L209.505 110.602H208.23L207.824 127.892C208.174 127.882 208.523 127.861 208.873 127.861Z" fill="#B28557"/>
<path d="M219.789 130.896H216.664V133.199L200.145 133.42V131.009L219.187 129.473L219.789 130.896Z" fill="#DED9D3"/>
<path d="M200.145 131.006L219.789 130.892V128.59L200.145 128.703V131.006Z" fill="#63492F"/>
<path d="M201.702 131.006L219.789 130.892V128.59L201.702 128.703V131.006Z" fill="#79624C"/>
<path d="M239.705 110.911L239.304 128.874L224.265 128.345L224.152 110.746L239.705 110.911Z" fill="#E0D24C"/>
<path d="M230.717 127.909C231.165 127.878 231.622 127.868 232.074 127.863L232.342 110.84H231.067L230.666 127.914C230.676 127.914 230.697 127.909 230.717 127.909Z" fill="#63492F"/>
<path d="M238.696 119.602L223.724 119.242L223.601 120.707L238.933 120.856L238.696 119.602Z" fill="#63492F"/>
<path d="M239.189 119.569L224.227 118.973L224.078 120.432L239.41 120.828L239.189 119.569Z" fill="#B28557"/>
<path d="M238.496 128.216L238.46 111.861L224.372 111.476L224.444 110.16L239.704 110.911L239.303 128.874L238.496 128.216Z" fill="#63492F"/>
<path d="M223.493 129.184L240.249 129.492L240.722 110.105L223.416 109.684L223.493 129.184ZM225.138 127.76L224.953 111.226L238.861 111.647L238.825 127.853L225.138 127.76Z" fill="#B28557"/>
<path d="M239.182 119.356L224.21 118.996L224.087 120.461L239.424 120.615L239.182 119.356Z" fill="#B28557"/>
<path d="M232.2 127.861C232.318 127.861 232.441 127.856 232.565 127.851L232.832 110.602H231.557L231.151 127.892C231.501 127.882 231.85 127.861 232.2 127.861Z" fill="#B28557"/>
<path d="M243.108 130.896H239.983V133.199L223.464 133.42V131.009L242.507 129.473L243.108 130.896Z" fill="#DED9D3"/>
<path d="M223.464 131.006L243.108 130.892V128.59L223.464 128.703V131.006Z" fill="#63492F"/>
<path d="M225.02 131.006L243.112 130.892V128.59L225.02 128.703V131.006Z" fill="#79624C"/>
<path d="M84.8223 149.277C97.4302 195.258 139.515 229.047 189.499 229.047C239.484 229.047 281.568 195.258 294.176 149.277H84.8223Z" fill="#B9C846"/>
<path d="M164.38 149.277H144.263C139.58 153.235 126.078 165.416 124.809 175.372C123.272 187.43 137.088 195.767 151.777 199.056C166.467 202.346 178.088 205.635 183.351 215.282C185.941 220.026 182.482 224.822 178.298 228.476C181.984 228.851 185.72 229.052 189.503 229.052C210.417 229.052 229.948 223.131 246.519 212.882C246.745 208.477 245.069 201.292 234.224 194.893C217.119 184.809 199.798 188.314 178.093 179.982C158.49 172.458 159.672 162.44 161.209 156.298C161.908 153.513 163.187 151.092 164.38 149.277Z" fill="#D7E096"/>
<path d="M134.942 52.4064C136.299 50.9416 137.121 45 137.121 45C137.121 45 137.938 50.9416 139.3 52.4064C140.241 53.419 144.194 54.4315 144.194 54.4315C144.194 54.4315 140.236 55.444 139.3 56.4566C137.944 57.9214 137.121 63.863 137.121 63.863C137.121 63.863 136.304 57.9214 134.942 56.4566C134.001 55.444 130.049 54.4315 130.049 54.4315C130.049 54.4315 134.001 53.419 134.942 52.4064Z" fill="white"/>
<path d="M107.461 92.8853C108.252 92.0321 108.725 88.5781 108.725 88.5781C108.725 88.5781 109.203 92.0321 109.989 92.8853C110.534 93.4763 112.837 94.0623 112.837 94.0623C112.837 94.0623 110.539 94.6482 109.989 95.2393C109.198 96.0925 108.725 99.5464 108.725 99.5464C108.725 99.5464 108.247 96.0925 107.461 95.2393C106.916 94.6482 104.613 94.0623 104.613 94.0623C104.613 94.0623 106.916 93.4763 107.461 92.8853Z" fill="white"/>
<path d="M224.883 68.7393C225.782 67.7679 226.322 63.8359 226.322 63.8359C226.322 63.8359 226.867 67.7679 227.761 68.7393C228.383 69.4075 230.999 70.0808 230.999 70.0808C230.999 70.0808 228.383 70.749 227.761 71.4223C226.861 72.3937 226.322 76.3256 226.322 76.3256C226.322 76.3256 225.777 72.3937 224.883 71.4223C224.261 70.7541 221.645 70.0808 221.645 70.0808C221.645 70.0808 224.261 69.4075 224.883 68.7393Z" fill="white"/>
<path d="M271.684 223.043C271.684 223.043 272.705 224.741 271.832 225.623C269.06 227.322 266.287 231.079 265.486 233.144C264.684 235.209 265.996 236.607 269.279 235.797C272.562 234.987 277.596 232.334 280.148 229.897C282.701 227.466 283.518 225.773 283.518 224.669C283.518 223.564 282.19 221.566 282.19 221.566L271.684 223.043Z" fill="#423C2C"/>
<path d="M212.223 95.3024C212.223 95.3024 210.347 89.5304 207.819 86.9194C205.29 84.3084 202.221 82.3707 201.229 82.7356C200.243 83.1006 203.948 87.6081 203.948 87.6081C203.948 87.6081 200.263 86.426 197.637 85.3261C195.01 84.2262 192.379 83.1263 191.387 83.9435C190.39 84.7607 194.059 87.0068 194.059 87.0068C194.059 87.0068 189.932 85.1308 189.31 86.1022C188.688 87.0736 193.042 89.3351 193.042 89.3351C193.042 89.3351 189.506 88.1478 189.043 88.9702C188.575 89.7926 192.924 92.0541 192.924 92.0541C192.924 92.0541 191.119 91.4219 191.7 92.9432C192.281 94.4646 195.35 96.3252 199.117 97.2144C202.884 98.1036 205.614 97.4662 206.955 98.6227C208.297 99.7792 209.273 100.396 209.273 100.396L213.025 97.127L212.223 95.3024Z" fill="#F6A37A"/>
<path d="M199.87 94.7194C199.978 94.6834 199.989 94.5549 199.906 94.4932C199.618 94.2619 199.161 94.2414 198.817 94.1437C197.809 93.8662 196.853 93.4447 195.872 93.0952C194.571 92.6377 192.921 92.057 192.921 92.057C192.921 92.057 192.659 91.9644 192.366 91.9336C193.368 92.5709 194.504 93.0284 195.64 93.4293C196.339 93.676 197.028 93.9587 197.727 94.2054C198.282 94.4058 199.279 94.9095 199.87 94.7194Z" fill="#C2B8AE"/>
<path d="M193.039 89.3331C193.039 89.3331 192.746 89.2354 192.324 89.1172C193.404 89.7442 194.719 90.4381 195.768 90.875C196.364 91.1217 197.017 91.3479 197.649 91.5586C198.24 91.759 198.872 92.1188 199.51 92.1034C199.602 92.1034 199.643 91.9698 199.556 91.9235C198.43 91.3067 197.186 90.9932 196.004 90.5152C194.755 90.0167 193.039 89.3331 193.039 89.3331Z" fill="#C2B8AE"/>
<path d="M196.504 88.2841C197.018 88.4897 197.542 88.6747 198.072 88.8341C198.586 88.9883 199.315 89.2607 199.85 89.1013C199.953 89.0705 199.958 88.9523 199.881 88.8906C199.649 88.7159 199.331 88.6593 199.058 88.5822C198.76 88.4949 198.457 88.4178 198.164 88.3252C197.65 88.171 197.146 87.9912 196.653 87.7856C196.134 87.5748 193.703 86.845 193.189 86.6445C193.189 86.6497 193.184 86.6497 193.184 86.6548C193.754 87.0146 194.484 87.4309 194.854 87.5748C195.404 87.7856 195.949 88.0631 196.504 88.2841Z" fill="#C2B8AE"/>
<path d="M207.402 101.126L206.467 99.5273C206.467 99.5273 207.788 97.6564 209.772 96.3355C211.756 95.0146 213.02 94.3516 213.02 94.3516L214.783 96.942L207.402 101.126Z" fill="#E3DEDA"/>
<path d="M206.131 101.811C206.131 101.811 208.12 99.23 210.547 97.4593C212.974 95.6885 214.963 94.7283 214.963 94.7283C214.963 94.7283 219.085 100.041 222.764 103.061C226.443 106.086 227.252 106.602 229.241 104.46C231.23 102.322 235.275 95.1671 237.042 91.9973C238.809 88.8275 240.577 87.5007 241.53 87.0567C242.488 86.6127 239.984 111.176 239.984 111.176C239.984 111.176 233.873 120.174 227.767 119.953C221.656 119.731 214.37 111.248 212.531 109.333C210.696 107.418 206.131 101.811 206.131 101.811Z" fill="#BB2026"/>
<path d="M251.696 76.359C251.696 76.359 252.503 77.8289 252.503 80.8357C252.503 83.8476 252.138 85.6825 252.138 85.6825C252.138 85.6825 254.708 87.0035 258.455 86.5614C262.202 86.1194 264.474 84.2845 264.474 84.2845L264.695 75.2539C264.695 75.2539 253.166 77.3098 251.696 76.359Z" fill="#F6A37A"/>
<path d="M258.405 80.5222C259.762 80.3629 261.124 80.0442 262.383 79.5148C263.195 79.1756 263.905 78.6976 264.619 78.2247L264.691 75.2539C264.691 75.2539 253.162 77.3098 251.692 76.3538C251.692 76.3538 252.427 77.6953 252.494 80.44C254.458 80.7072 256.452 80.7535 258.405 80.5222Z" fill="#B0A295"/>
<path d="M244.797 42.8722C244.797 42.8722 240.392 60.4966 241.42 67.5432C242.448 74.5898 248.03 77.5298 257.132 77.6737C266.235 77.8228 270.496 73.4128 272.259 68.8641C274.022 64.3103 274.901 47.277 273.436 44.0441C271.966 40.8112 265.212 37.7273 258.602 39.1973C251.993 40.6673 244.797 42.8722 244.797 42.8722Z" fill="#F6A37A"/>
<path d="M264.59 62.7012C264.549 62.5522 264.452 62.4237 264.282 62.4648C261.99 63.0764 259.949 64.3562 257.77 65.2711C255.452 66.2477 253.062 66.8953 250.667 67.6508C250.605 67.6714 250.574 67.7074 250.564 67.7536C250.476 67.7999 250.41 67.8873 250.405 68.0106C250.189 72.621 255.776 74.2195 259.497 73.6181C264.22 72.8574 265.572 66.4995 264.59 62.7012Z" fill="#63492F"/>
<path d="M261.009 66.69C261.605 66.4381 262.828 66.1092 263.214 65.5643C263.718 64.8448 263.512 63.6986 263.312 62.7734C261.405 63.4416 259.642 64.4901 257.776 65.2765C255.617 66.1863 253.392 66.8133 251.161 67.5072C251.362 68.0263 251.696 68.4323 252.318 68.53C254.045 68.7921 256.419 68.124 258.069 67.6922C259.066 67.4198 260.053 67.0909 261.009 66.69Z" fill="white"/>
<path d="M263.103 71.3217C261.499 69.3069 257.156 71.1469 257.377 73.7219C258.112 73.7579 258.837 73.7271 259.5 73.6192C261.057 73.3673 262.245 72.4987 263.103 71.3217Z" fill="#EF6019"/>
<path d="M253.313 51.7588C253.287 53.5783 252.84 55.4646 252.47 57.2429C252.301 58.055 252.152 58.8825 251.951 59.6895C251.792 60.3062 251.463 60.6969 250.995 61.1132C250.579 61.4833 250.034 61.8687 250.039 62.4907C250.044 63.0201 250.476 63.4158 250.903 63.6523C252.275 64.4078 253.95 64.1662 255.446 64.1714C256.114 64.1765 256.114 63.1177 255.446 63.1331C254.721 63.1485 253.997 63.2051 253.272 63.2051C252.588 63.1999 251.787 63.2205 251.18 62.8556C250.414 62.3981 251.345 61.8893 251.761 61.5501C252.126 61.252 252.429 60.9127 252.624 60.4759C252.876 59.9105 252.933 59.2834 253.041 58.6769C253.18 57.9008 253.323 57.1196 253.447 56.3383C253.699 54.7964 253.765 53.311 253.76 51.7588C253.76 51.4658 253.318 51.4658 253.313 51.7588Z" fill="#B0A295"/>
<path d="M270.496 60.0562C270.496 60.0562 270.938 56.0935 270.275 54.3305C269.612 52.5676 267.926 49.8538 268.07 47.4278C268.219 45.007 269.391 42.802 269.391 42.802C269.391 42.802 260.433 47.8698 252.358 46.9858C244.283 46.1069 239.216 42.7249 241.122 37.4412C243.029 32.1524 247.655 29.9525 248.097 30.0964C248.539 30.2455 246.848 33.3294 247.362 33.8434C247.876 34.3573 248.966 31.8183 251.402 30.7595C253.35 29.9166 254.851 30.3946 254.265 30.9085C253.679 31.4225 252.137 34.1415 252.651 34.2134C253.165 34.2854 254.301 31.7515 257.719 30.7646C259.847 30.1478 259.775 30.9137 259.189 31.6435C258.603 32.3785 257.94 35.4624 260.068 36.1203C262.196 36.7833 268.877 34.5064 271.524 36.0483C274.171 37.5903 273.508 39.0602 273.508 39.0602C273.508 39.0602 278.427 37.2253 279.676 42.2161C280.925 47.2068 275.05 59.1054 275.05 59.1054L270.496 60.0562Z" fill="#423C2C"/>
<path d="M272.004 59.9826C272.004 59.9826 275.967 56.3488 277.951 59.4326C279.935 62.5165 277.072 64.2795 274.867 64.8294C272.662 65.3794 271.454 64.9374 271.454 64.9374L272.004 59.9826Z" fill="#F6A37A"/>
<path d="M246.557 57.5869C246.793 58.3271 247.317 58.6817 248.063 58.8256C249.913 59.1905 250.37 55.4591 248.833 54.7292C247.225 53.9685 246.161 56.3431 246.557 57.5869Z" fill="#423C2C"/>
<path d="M258.321 57.9244C258.558 58.6645 259.082 59.0192 259.827 59.1631C261.677 59.528 262.135 55.7965 260.598 55.0667C258.989 54.3009 257.925 56.6806 258.321 57.9244Z" fill="#423C2C"/>
<path d="M250.303 48.9128L250.247 51.3902C250.247 51.3902 247.327 51.2257 245.95 51.4981C244.572 51.7757 243.529 52.2691 243.529 52.2691L243.144 50.1207C243.144 50.1207 244.136 49.3497 246.505 48.9077C248.869 48.4708 250.303 48.9128 250.303 48.9128Z" fill="#423C2C"/>
<path d="M257.971 49.6131L257.935 52.0905C257.935 52.0905 260.859 52.0288 262.221 52.3578C263.588 52.6816 264.616 53.2161 264.616 53.2161L265.079 51.0831C265.079 51.0831 264.118 50.2762 261.764 49.7519C259.42 49.2277 257.971 49.6131 257.971 49.6131Z" fill="#423C2C"/>
<path d="M248.817 57.2343C248.91 57.2395 248.992 57.2189 249.074 57.1778C249.156 57.1521 249.228 57.1058 249.29 57.039C249.357 56.9773 249.403 56.9054 249.429 56.8231C249.47 56.746 249.49 56.6587 249.485 56.5662C249.475 56.5096 249.47 56.4479 249.46 56.3914C249.429 56.2783 249.372 56.1807 249.29 56.0984C249.244 56.0625 249.203 56.0265 249.156 55.9956C249.054 55.934 248.94 55.9031 248.822 55.9031C248.73 55.898 248.648 55.9185 248.565 55.9597C248.483 55.9854 248.411 56.0316 248.349 56.0984C248.283 56.1601 248.236 56.2321 248.211 56.3143C248.17 56.3914 248.149 56.4788 248.154 56.5713C248.164 56.6278 248.17 56.6895 248.18 56.746C248.211 56.8591 248.267 56.9568 248.349 57.039C248.396 57.075 248.437 57.111 248.483 57.1418C248.586 57.2035 248.699 57.2343 248.817 57.2343Z" fill="white"/>
<path d="M260.438 57.4648C260.531 57.4699 260.613 57.4494 260.695 57.4083C260.777 57.3826 260.849 57.3363 260.911 57.2695C260.978 57.2078 261.024 57.1358 261.05 57.0536C261.091 56.9765 261.112 56.8891 261.106 56.7966C261.096 56.7401 261.091 56.6784 261.081 56.6219C261.05 56.5088 260.993 56.4111 260.911 56.3289C260.865 56.2929 260.824 56.2621 260.777 56.2261C260.675 56.1644 260.562 56.1336 260.443 56.1336C260.351 56.1284 260.269 56.149 260.186 56.1901C260.104 56.2158 260.032 56.2621 259.97 56.3289C259.904 56.3906 259.857 56.4625 259.832 56.5448C259.791 56.6219 259.77 56.7092 259.775 56.8018C259.785 56.8583 259.791 56.92 259.801 56.9765C259.832 57.0896 259.888 57.1872 259.97 57.2695C260.017 57.3055 260.058 57.3363 260.104 57.3723C260.207 57.434 260.32 57.4597 260.438 57.4648Z" fill="white"/>
<path d="M247.601 221.77C247.601 221.77 248.06 223.916 246.24 225.26C243.287 226.099 237.69 228.975 236.474 230.77C235.257 232.564 237.597 233.661 240.612 233.478C243.627 233.294 255.924 231.977 257.615 230.235C259.671 228.12 257.749 221.203 257.749 221.203L247.601 221.77Z" fill="#423C2C"/>
<path d="M237.282 145.993C237.282 145.993 236.8 171.071 238.851 187.249C240.903 203.427 246.221 224.089 246.221 224.089C246.221 224.089 247.098 224.969 251.791 224.531C256.479 224.089 258.971 223.502 258.971 223.502C258.971 223.502 254.135 192.618 253.401 178.499C252.714 165.28 252.083 155.557 254.278 155.408C256.945 156.139 255.961 171.838 264.597 204.58C267.454 215.421 270.983 224.681 270.983 224.681C270.983 224.681 273.855 225.705 277.958 224.825C282.061 223.945 283.517 222.097 283.517 222.097C283.517 222.097 277.137 196.442 275.229 182.472C273.327 168.502 271.567 147.028 271.567 147.028C271.567 147.028 261.31 141.438 254.422 141.144C247.539 140.846 237.574 142.462 237.282 145.993Z" fill="#40210E"/>
<path d="M258.44 86.6903L254.974 86.3281L248.806 88.7305L252.049 115.075L260.062 111.689L265.801 87.7461L258.44 86.6903Z" fill="#E3DEDA"/>
<path d="M259.517 120.314C259.174 117.135 258.871 113.956 258.527 110.777C257.819 104.218 257.603 97.6999 257.952 91.1202C258.337 90.945 258.158 90.27 257.665 90.3061C257.049 90.3576 256.444 90.3731 255.828 90.3628C255.689 90.3628 255.592 90.4194 255.525 90.4967C255.443 90.471 255.356 90.4916 255.325 90.5895C253.642 96.7776 251.395 103.306 249.835 109.53C248.331 115.517 247.644 121.288 246.273 127.306C247.023 128.924 247.525 129.97 248.362 131.072C249.409 132.453 250.568 133.901 251.979 134.963C253.314 132.943 254.822 131.067 256.449 129.284C257.619 128.002 258.958 126.878 260.195 125.673C260.21 123.874 259.687 121.891 259.517 120.314Z" fill="#EF6019"/>
<path d="M256.35 86.3456C255.377 86.4436 254.449 86.9493 253.99 87.9038C253.147 89.653 254.116 92.5527 256.023 92.8004C258.691 93.141 259.625 91.0409 259.65 89.0132C259.675 87.1298 257.95 86.1856 256.35 86.3456Z" fill="#EF6019"/>
<path d="M257.121 86.053C257.121 86.053 259.249 85.2147 261.427 83.71C263.611 82.2053 264.807 81.0859 264.807 81.0859C264.807 81.0859 265.871 81.6691 267.097 83.6528C268.38 85.7145 268.639 87.2453 268.461 87.2765C268.461 87.2765 263.173 91.1814 262.191 91.7385C261.208 92.2956 260.883 92.2956 260.883 92.2956L257.121 86.053Z" fill="white"/>
<path d="M256.938 86.2238C256.938 86.2238 255.75 86.0315 253.638 84.4361C251.526 82.8406 251.897 81.9883 251.897 81.9883C251.897 81.9883 250.445 82.9601 249.14 84.883C247.779 86.8839 247.023 88.0376 247.2 88.0792C247.2 88.0792 250.693 91.083 251.648 91.6807C252.602 92.2783 252.927 92.2939 252.927 92.2939L256.938 86.2238Z" fill="white"/>
<path d="M249.61 82.98C249.61 82.98 244.771 84.8505 242.682 86.1711C240.593 87.4917 240.48 87.9336 240.48 87.9336C240.48 87.9336 238.17 113.591 237.508 123.94C236.846 134.289 235.969 148.718 235.969 148.718C235.969 148.718 239.12 150.958 244.622 150.075C250.118 149.196 252.1 147.541 252.1 147.541C252.1 147.541 256.39 150.075 262.877 151.066C269.365 152.058 273.214 150.624 273.214 150.624C273.214 150.624 272.48 111.828 272.48 104.891C272.48 97.9539 271.382 85.6213 271.382 85.6213L265.772 81.9883L252.685 112.491C252.685 112.491 250.616 96.7155 250.267 94.5418C249.61 90.4721 249.61 82.98 249.61 82.98Z" fill="#BB2026"/>
<path d="M250.719 82.1719C250.719 82.1719 251.522 90.9173 251.963 95.2541C252.403 99.5908 252.695 107.822 252.766 109.365C252.838 110.908 252.587 114.535 252.587 114.535C252.587 114.535 252.014 112.874 251.205 109.566C250.401 106.258 247.939 99.884 247.427 98.0475C246.915 96.2109 246.254 94.5184 246.331 94.2972C246.403 94.076 249.551 91.9462 249.551 91.9462L245.676 92.3115C245.676 92.3115 244.724 88.5612 244.432 87.3883C244.14 86.2102 243.92 85.5517 243.92 85.5517C243.92 85.5517 245.968 84.0136 247.504 83.2728C249.331 82.3931 250.719 82.1719 250.719 82.1719Z" fill="#6A1E14"/>
<path d="M266.078 166.043C266.078 166.043 266.176 194.456 266.787 194.985C267.399 195.514 277.879 194.836 287.542 193.037C297.205 191.238 302.499 190.39 303.208 189.439C303.922 188.488 300.561 170.489 299.749 169.009C298.942 167.528 266.078 166.043 266.078 166.043Z" fill="#B28557"/>
<path d="M259.772 192.263C259.772 192.263 261.741 174.552 262.419 170.882C263.098 167.212 263.679 165.336 265.472 165.732C268.048 166.297 266.829 195.018 266.829 195.018C266.829 195.018 264.794 193.183 262.964 192.618C261.129 192.053 259.772 192.263 259.772 192.263Z" fill="#B28557"/>
<path d="M259.772 192.263C259.772 192.263 261.741 174.552 262.419 170.882C263.098 167.212 263.679 165.336 265.472 165.732C268.048 166.297 266.829 195.018 266.829 195.018C266.829 195.018 264.794 193.183 262.964 192.618C261.129 192.053 259.772 192.263 259.772 192.263Z" fill="#B7AB9F"/>
<path d="M263.33 167.527C263.33 167.527 265.062 167.106 265.977 168.057C266.892 169.008 267.298 178.485 270.86 181.395C274.195 184.124 289.07 180.757 293.752 180.017C296.985 179.503 300.167 178.64 301.827 178.156C301.025 173.793 300.126 169.686 299.756 169.008C298.944 167.527 266.08 166.042 266.08 166.042C266.08 166.042 266.08 166.217 266.08 166.535C265.905 166.063 265.699 165.775 265.468 165.723C264.322 165.471 263.674 166.15 263.176 167.625C263.237 167.569 263.289 167.527 263.33 167.527Z" fill="#AEABA4"/>
<path d="M264.837 165.695C264.837 165.695 266.148 165.094 270.151 164.457C274.155 163.819 295.588 161.069 296.806 161.208C298.03 161.347 299.381 164.241 300.399 166.785C301.417 169.324 303.791 174.479 302.568 175.887C301.345 177.301 276.047 180.755 273.605 180.616C271.164 180.477 269.74 179.347 268.723 175.815C267.705 172.284 267.561 169.165 266.584 167.417C265.726 165.875 264.837 165.695 264.837 165.695Z" fill="#B28557"/>
<path d="M277.914 179.404C277.019 180.386 276.942 184.488 280.18 184.246C282.611 184.066 282.252 179.908 281.311 179.04C280.535 178.325 278.628 178.618 277.914 179.404Z" fill="#AEABA4"/>
<path d="M277.915 179.341C277.02 180.235 276.943 183.992 280.181 183.771C282.612 183.607 282.253 179.798 281.312 179.007C280.536 178.349 278.629 178.621 277.915 179.341Z" fill="#E0D24C"/>
<path d="M279.195 183.577C278.768 182.899 278.521 182.128 278.439 181.331C278.362 180.591 278.419 179.805 278.542 179.075C278.552 179.023 278.568 178.977 278.578 178.926C278.316 179.039 278.084 179.178 277.92 179.342C277.118 180.144 276.985 183.233 279.287 183.711C279.251 183.665 279.22 183.618 279.195 183.577Z" fill="#EDE2D7"/>
<path d="M292.448 176.983C291.553 177.964 291.476 182.066 294.714 181.824C297.146 181.644 296.786 177.486 295.845 176.618C295.069 175.903 293.162 176.196 292.448 176.983Z" fill="#AEABA4"/>
<path d="M292.448 176.917C291.553 177.811 291.476 181.568 294.714 181.347C297.146 181.183 296.786 177.374 295.845 176.583C295.069 175.93 293.162 176.197 292.448 176.917Z" fill="#E0D24C"/>
<path d="M293.725 181.151C293.298 180.473 293.052 179.702 292.969 178.905C292.892 178.165 292.949 177.379 293.072 176.649C293.082 176.598 293.098 176.551 293.108 176.5C292.846 176.613 292.615 176.752 292.45 176.916C291.648 177.718 291.515 180.807 293.817 181.285C293.787 181.239 293.756 181.198 293.725 181.151Z" fill="#EDE2D7"/>
<path d="M266.496 167.262L298.399 162.646C297.869 161.829 297.325 161.269 296.805 161.212C295.582 161.073 274.149 163.823 270.15 164.46C266.147 165.098 264.836 165.699 264.836 165.699C264.836 165.699 265.663 165.864 266.496 167.262Z" fill="#C09A74"/>
<path d="M272.891 164.292C272.891 164.292 271.634 159.581 272.819 158.367C274.004 157.153 275.39 156.513 276.798 156.014C278.2 155.514 289.065 153.905 290.115 156.368C290.902 158.207 291.114 162.259 291.114 162.259L288.858 162.224C288.858 162.224 288.563 158.227 287.156 157.657C285.754 157.088 279.1 157.088 277.475 157.727C275.851 158.372 275.349 160.6 275.427 161.669C275.499 162.738 275.923 164.437 275.923 164.437L272.891 164.292Z" fill="#B28557"/>
<path d="M272.891 164.292C272.891 164.292 271.634 159.581 272.819 158.367C274.004 157.153 275.39 156.513 276.798 156.014C278.2 155.514 289.065 153.905 290.115 156.368C290.902 158.207 291.114 162.259 291.114 162.259L288.858 162.224C288.858 162.224 288.563 158.227 287.156 157.657C285.754 157.088 279.1 157.088 277.475 157.727C275.851 158.372 275.349 160.6 275.427 161.669C275.499 162.738 275.923 164.437 275.923 164.437L272.891 164.292Z" fill="#D3CCC5"/>
<path d="M279.551 148.624C279.551 148.624 276.09 151.316 275.114 153.038C274.138 154.761 273.935 157.316 273.935 157.316C273.935 157.316 275.161 156.503 275.662 157.089C276.163 157.68 276.122 159.159 275.976 159.417C275.829 159.68 275.647 160.245 275.647 160.245C275.647 160.245 276.691 161.22 277.844 161.068C278.998 160.917 279.755 160.174 279.755 160.174C279.755 160.174 280.491 161.366 281.905 161.154C283.32 160.942 283.962 159.998 283.962 159.998C283.962 159.998 283.743 161.028 284.891 160.725C286.04 160.422 286.311 159.543 286.311 159.543C286.311 159.543 286.864 160.185 287.574 159.493C288.279 158.801 288.697 157.457 288.143 155.75C287.595 154.043 285.946 152.483 285.721 151.064C285.502 149.645 285.606 148.523 285.606 148.523L279.551 148.624Z" fill="#F6A37A"/>
<path d="M287.93 128.056C287.103 121.192 284.203 101.343 278.712 92.1445C273.222 82.9461 267.013 83.0743 267.013 83.0743C264.128 85.0802 267.287 99.4243 267.287 99.4243C267.287 99.4243 271.268 107.648 273.222 117.262C275.176 126.876 274.628 149.48 274.628 149.48C274.628 149.48 277.751 149.962 281.747 150.265C285.749 150.567 288.235 149.752 288.235 149.752C288.235 149.752 288.758 134.925 287.93 128.056Z" fill="#BB2026"/>
<path d="M265.464 81.4453L271.223 84.4411L266.193 92.8406L261.893 93.0604L264.735 94.957C264.735 94.957 258.032 104.599 256.282 107.595C254.533 110.59 252.711 114.532 252.711 114.532C252.711 114.532 252.201 113.07 253.369 108.908C254.538 104.747 258.399 95.0337 260.363 90.4327C262.332 85.8265 265.464 81.4453 265.464 81.4453Z" fill="#6A1E14"/>
<path d="M272.538 163.74C273.196 162.995 276.156 162.826 276.49 163.242C276.824 163.658 277.22 164.285 276.593 164.614C275.971 164.948 273.078 165.442 272.749 165.113C272.415 164.784 272.312 164.003 272.538 163.74Z" fill="#E0D24C"/>
<path d="M276.127 164.051C275.629 164.195 275.063 164.339 274.539 164.293C273.994 164.241 273.192 163.974 272.905 163.48C272.75 163.558 272.622 163.645 272.535 163.748C272.303 164.01 272.411 164.786 272.74 165.12C273.074 165.454 275.963 164.956 276.585 164.622C276.96 164.421 276.965 164.113 276.837 163.809C276.605 163.892 276.369 163.984 276.127 164.051Z" fill="#EDE2D7"/>
<path d="M288.023 161.615C288.68 160.87 291.641 160.701 291.975 161.117C292.309 161.533 292.705 162.16 292.078 162.489C291.456 162.823 288.562 163.317 288.233 162.988C287.899 162.654 287.791 161.878 288.023 161.615Z" fill="#E0D24C"/>
<path d="M291.616 161.926C291.117 162.07 290.552 162.214 290.027 162.168C289.483 162.116 288.681 161.849 288.393 161.355C288.239 161.433 288.11 161.52 288.023 161.623C287.792 161.885 287.9 162.661 288.228 162.995C288.563 163.329 291.451 162.831 292.073 162.497C292.448 162.296 292.453 161.988 292.325 161.684C292.094 161.767 291.857 161.854 291.616 161.926Z" fill="#EDE2D7"/>
</g>
<defs>
<clipPath id="clip0_1659_5">
<rect width="378" height="240" fill="white"/>
</clipPath>
</defs>
</svg>
