<svg width="22" height="25" viewBox="0 0 22 25" fill="none" xmlns="http://www.w3.org/2000/svg">
<g clip-path="url(#clip0_164_90)">
<path d="M15.2712 21.0315C14.6604 23.5126 12.5737 24.6365 10.7561 24.5343C8.96748 24.4394 7.19343 23.2061 6.69903 21.0315C6.61178 21.0315 6.51726 21.0315 6.41547 21.0315C4.8959 21.0315 3.3836 21.0315 1.86403 21.0315C1.10061 21.0315 0.518951 20.7323 0.1845 20.039C-0.142681 19.3603 -0.0190775 18.7254 0.431704 18.1197C0.969734 17.3973 1.47141 16.6456 1.97309 15.9013C2.18394 15.5948 2.25664 15.2372 2.25664 14.865C2.25664 12.8436 2.21302 10.8149 2.26392 8.79347C2.35843 5.06442 4.09612 2.33513 7.46972 0.773458C12.4065 -1.51068 18.303 1.48862 19.4736 6.82313C19.619 7.49451 19.6845 8.19507 19.6917 8.88104C19.7208 10.8514 19.7063 12.8217 19.699 14.7921C19.699 15.2664 19.8226 15.6824 20.0916 16.0691C20.6078 16.7989 21.1168 17.5286 21.6257 18.2657C22.0183 18.8422 22.0692 19.4552 21.7566 20.0755C21.444 20.6958 20.9132 21.0242 20.2152 21.0315C18.6593 21.0461 17.1106 21.0388 15.5547 21.0388C15.4602 21.0315 15.3584 21.0315 15.2712 21.0315ZM20.1861 19.2655C19.6626 18.5065 19.161 17.7695 18.652 17.0397C18.1794 16.3683 17.954 15.6313 17.9613 14.8066C17.9686 12.8363 17.9686 10.866 17.9613 8.89563C17.9613 8.45048 17.9249 8.00533 17.8522 7.56018C17.2488 3.72167 13.3662 1.06536 9.58549 1.89728C6.24825 2.62704 4.00887 5.422 4.0016 8.83725C4.0016 10.7419 3.97979 12.6466 4.00888 14.5585C4.02342 15.5656 3.7544 16.4559 3.15821 17.2586C2.67834 17.9008 2.24937 18.5649 1.77678 19.2509C7.91323 19.2655 14.0206 19.2655 20.1861 19.2655ZM13.4026 21.0461C11.7812 21.0461 10.1671 21.0461 8.54578 21.0461C8.82206 22.0385 9.89812 22.7902 11.0033 22.7829C12.0866 22.7756 13.1481 22.0093 13.4026 21.0461Z" fill="white" stroke="#001E39" stroke-width="0.2"/>
</g>
<defs>
<clipPath id="clip0_164_90">
<rect width="22" height="25" fill="white"/>
</clipPath>
</defs>
</svg>
