<svg width="14" height="14" viewBox="0 0 14 14" fill="none" xmlns="http://www.w3.org/2000/svg">
<path d="M1 3.78484C1.05758 3.55368 1.15474 3.34781 1.34546 3.19611C1.66933 2.93967 2.13715 2.93245 2.46102 3.1925C2.52219 3.24307 2.58337 3.29725 2.64094 3.35504C4.22071 4.94065 5.80048 6.52625 7.38384 8.11547C7.41983 8.15159 7.44862 8.19494 7.53498 8.25995C7.56017 8.21661 7.57457 8.16243 7.61055 8.12631C9.20472 6.52264 10.8025 4.92259 12.3966 3.31892C12.6773 3.03719 13.0048 2.92522 13.3898 3.05164C13.962 3.23584 14.1887 3.97266 13.8217 4.45304C13.7821 4.50722 13.7353 4.55779 13.6885 4.60474C11.8569 6.44318 10.0252 8.28162 8.19352 10.1201C7.85166 10.4632 7.42703 10.5354 7.03838 10.3043C6.94482 10.2501 6.86205 10.1706 6.78648 10.0948C5.0016 8.30691 3.21671 6.5118 1.43183 4.72393C1.23391 4.52528 1.05758 4.3194 1 4.03767C1 3.9546 1 3.86792 1 3.78484Z" fill="white"/>
</svg>
