<svg width="28" height="26" viewBox="0 0 28 26" fill="none" xmlns="http://www.w3.org/2000/svg">
<path d="M14.7814 20.503C14.4919 20.6736 14.1447 20.6736 13.8552 20.503C11.9734 19.3939 5 14.9285 5 9.65852C5 8.58159 5.3881 7.53791 6.09827 6.70507C6.80845 5.87224 7.79682 5.30168 8.89523 5.09047C9.99364 4.87927 11.1342 5.04047 12.123 5.54664C13.1117 6.05281 13.8875 6.87269 14.3183 7.86678L-nan -nanL-nan -nanL14.3183 7.86678C14.7491 6.87269 15.5249 6.05281 16.5136 5.54664C17.5024 5.04047 18.643 4.87927 19.7414 5.09047C20.8398 5.30168 21.8281 5.87224 22.5383 6.70507C23.2485 7.53791 23.6366 8.58159 23.6366 9.65852C23.6366 14.9285 16.6632 19.3939 14.7814 20.503Z" stroke="white" stroke-width="1.5" stroke-linecap="round" stroke-linejoin="round"/>
</svg>
