<svg width="107" height="82" viewBox="0 0 107 82" fill="none" xmlns="http://www.w3.org/2000/svg">
<path d="M90.974 51.7064C90.9301 51.8089 90.8569 51.9114 90.8276 52.0286C90.0808 55.0598 87.6939 56.9634 84.5895 56.9781C80.7383 56.9927 76.8724 56.9781 73.0212 56.9781C60.34 56.9781 47.6441 56.9781 34.9629 56.9781C31.8585 56.9781 29.3544 55.0744 28.6808 52.1897C28.549 51.6479 28.4905 51.0768 28.4905 50.5203C28.4758 38.1759 28.4758 25.8315 28.4905 13.487C28.4905 10.2362 30.4966 7.73217 33.5571 7.11715C34.1282 7 34.7286 7 35.2997 7C51.5832 7 67.8521 7 84.1209 7C87.8111 7 89.9197 8.62542 90.8862 12.1984C90.9008 12.2424 90.9448 12.2716 90.974 12.3156C90.974 25.4361 90.974 38.5713 90.974 51.7064ZM31.6681 48.4117C31.9756 48.1334 32.1806 47.9431 32.3856 47.7381C36.1636 43.9601 39.9416 40.182 43.7197 36.404C45.799 34.3247 48.6691 34.3393 50.7485 36.404C51.9493 37.5902 53.1354 38.7909 54.3215 39.977C54.5119 40.1674 54.7315 40.3578 54.9365 40.5628C55.1708 40.2845 55.3465 40.0942 55.5223 39.8892C59.2856 35.379 63.0344 30.8395 66.827 26.344C67.3542 25.729 67.9985 25.1432 68.716 24.7771C70.7515 23.7521 72.8894 24.3378 74.5295 26.2561C78.7614 31.1763 82.9787 36.1112 87.196 41.0314C87.3718 41.2364 87.5621 41.4267 87.855 41.7489C87.855 41.3096 87.855 41.0899 87.855 40.8703C87.855 31.8206 87.855 22.771 87.855 13.7067C87.855 11.2905 86.6396 10.0751 84.1941 10.0751C67.8667 10.0751 51.5539 10.0751 35.2265 10.0751C32.8249 10.0751 31.6242 11.2612 31.6242 13.6628C31.6242 24.9382 31.6242 36.2137 31.6242 47.4745C31.6388 47.7673 31.6535 48.0309 31.6681 48.4117ZM32.0342 52.2775C32.8689 53.4637 33.8207 53.859 34.9629 53.859C37.013 53.859 39.063 53.859 41.1131 53.859C55.5076 53.859 69.9021 53.859 84.2966 53.859C86.581 53.859 87.8404 52.5997 87.855 50.33C87.855 49.3342 87.8989 48.3238 87.8404 47.328C87.8111 46.9034 87.65 46.4202 87.3864 46.098C82.3198 40.1528 77.2385 34.2222 72.1572 28.3062C71.1468 27.1347 70.195 27.164 69.1992 28.3794C64.9819 33.4461 60.7646 38.498 56.5473 43.5647C55.5516 44.7508 54.7022 44.7947 53.6186 43.6965C51.9786 42.0564 50.3385 40.4163 48.6984 38.7763C47.6295 37.7073 46.8534 37.7073 45.7844 38.7763C41.4353 43.1254 37.0862 47.4745 32.7371 51.8089C32.5467 51.9993 32.2831 52.1165 32.0342 52.2775Z" fill="#C7C7C7"/>
<path d="M69.595 75.7204C66.3734 74.8418 63.1665 73.9632 59.945 73.0993C46.927 69.6141 33.9236 66.1436 20.9056 62.6585C18.3283 61.9702 16.7029 60.3155 16.1171 57.6797C16.1025 57.5919 16.0439 57.504 16 57.4161C16 56.7865 16 56.1422 16 55.5125C16.6297 53.2135 17.274 50.9291 17.889 48.6301C19.3241 43.2852 20.7445 37.955 22.1795 32.6101C22.2235 32.4637 22.2528 32.3319 22.2967 32.1855C22.5895 31.3362 23.3949 30.8822 24.1857 31.1019C25.0204 31.3215 25.5182 32.1562 25.2839 33.0494C24.5664 35.7878 23.8342 38.5114 23.1021 41.2351C21.8281 45.965 20.5688 50.6948 19.2948 55.4246C18.7383 57.5186 19.6462 59.0855 21.7549 59.6419C37.5844 63.8885 53.414 68.1205 69.2436 72.3671C71.5719 72.9968 73.0216 72.1474 73.6512 69.8191C74.3981 67.0222 75.1449 64.2253 75.9063 61.4284C76.126 60.6084 76.6531 60.1252 77.3707 60.1105C78.0296 60.0959 78.6154 60.3595 78.835 60.9891C78.9815 61.4138 78.9815 61.9556 78.8643 62.4095C78.3225 64.5768 77.7221 66.744 77.1364 68.8966C76.946 69.5995 76.7703 70.317 76.5653 71.0052C75.8478 73.4361 74.2809 74.9736 71.8062 75.574C71.689 75.6033 71.5865 75.6619 71.484 75.7204C70.869 75.7204 70.2247 75.7204 69.595 75.7204Z" fill="#C7C7C7"/>
<path d="M44.1004 16.3712C47.5416 16.3565 50.3385 19.1095 50.3678 22.5653C50.4117 25.9919 47.5563 28.862 44.1004 28.8474C40.6885 28.8474 37.8623 26.0212 37.8623 22.6093C37.8623 19.1827 40.6592 16.3858 44.1004 16.3712ZM47.2195 22.6093C47.2195 20.8813 45.8283 19.4902 44.1151 19.4902C42.3871 19.4902 41.0106 20.8813 41.0106 22.6093C41.0106 24.3372 42.4018 25.743 44.1151 25.743C45.8283 25.743 47.2195 24.3372 47.2195 22.6093Z" fill="#C7C7C7"/>
</svg>
