<svg width="58" height="50" viewBox="0 0 58 50" fill="none" xmlns="http://www.w3.org/2000/svg">
<path d="M47.1033 22.8654C47.1033 25.66 47.1033 28.4546 47.1033 31.2492C47.1033 31.4774 47.1033 31.5914 47.3885 31.7055C48.4151 32.0477 48.9854 32.8461 49.0995 33.8727C49.2136 34.9563 48.7573 35.7548 47.7877 36.2681C46.0197 37.2376 44.1947 38.2072 42.3696 39.1768C39.461 40.7166 36.5523 42.2565 33.6437 43.8534C31.0772 45.2222 28.3967 45.5074 25.6021 44.7089C23.0926 43.9675 20.5832 43.2831 18.0168 42.5987C17.7886 42.5417 17.5035 42.4846 17.2183 42.4846C14.5948 42.4846 12.0283 42.4846 9.40484 42.4846C9.06264 42.4846 9.00561 42.4276 9.00561 42.0854C9.00561 41.1159 9.00561 41.1159 9.97516 41.1159C12.3135 41.1159 14.5948 41.1159 16.9331 41.1159C17.8457 41.1159 18.6441 41.344 19.4426 41.5721C21.8379 42.1995 24.1763 42.9409 26.5716 43.5112C28.6248 44.0245 30.6209 43.7964 32.503 42.7698C37.3508 40.2033 42.1415 37.6369 46.9323 35.0704C47.6166 34.7282 47.8448 34.0438 47.5026 33.4165C47.2174 32.7891 46.533 32.561 45.8486 32.9032C41.6282 34.7282 37.4078 36.6103 33.1874 38.4924C32.1608 38.9486 31.1342 39.0057 30.1077 38.5494C27.8264 37.6369 25.545 36.7814 23.3208 35.9259C22.6934 35.6978 22.009 35.8118 21.3817 35.7548C21.0965 35.7548 20.9824 35.6978 20.9824 35.3556C20.9824 34.386 20.9824 34.386 21.952 34.386C24.3474 34.386 26.7998 34.386 29.1951 34.386C29.7655 34.386 30.2217 34.1009 30.2788 33.5876C30.3928 32.9602 29.9366 32.3899 29.2522 32.3899C28.0545 32.3899 26.7998 32.3899 25.6021 32.3899C24.2333 32.3899 22.8645 32.3899 21.4957 32.3899C20.4692 32.3899 19.6137 32.7321 18.9293 33.4735C17.8457 34.6141 16.5339 35.1274 14.994 35.0704C13.169 35.0134 11.2869 35.0704 9.46187 35.0704C9.11968 35.0704 9.06264 34.9563 9.06264 34.6141C9.06264 33.7016 9.06264 33.7016 9.97516 33.7016C11.7432 33.7016 13.5682 33.7016 15.3362 33.7016C16.1347 33.7016 16.8191 33.4735 17.4464 32.9602C17.6175 32.8461 17.6746 32.675 17.6746 32.4469C17.6746 29.1961 17.6746 25.9452 17.6746 22.6943C17.6746 22.4092 17.6175 22.3522 17.3324 22.3522C12.5987 22.1811 8.83451 18.1317 9.00561 13.398C9.11968 9.17763 12.4276 5.58458 16.648 5.12832C20.184 4.78613 22.9216 6.15491 24.9177 9.06357C25.0888 9.34873 25.2029 9.34873 25.431 9.17763C27.5982 7.80885 29.7655 6.4971 31.9897 5.12832C32.2179 4.95723 32.389 4.95723 32.6741 5.12832C37.3508 8.03698 42.0275 10.8886 46.6471 13.7973C46.9323 13.9684 46.9893 14.1395 46.9893 14.4246C47.1034 17.3333 47.1033 20.1279 47.1033 22.8654ZM37.75 35.1274C37.8641 35.1845 37.9211 35.1274 38.0352 35.0704C40.5446 33.9868 43.054 32.8461 45.5635 31.7625C45.7916 31.6485 45.7916 31.5344 45.7916 31.3633C45.7916 26.0022 45.7916 20.6412 45.7916 15.2231C45.7916 14.995 45.7346 14.8809 45.5635 14.7668C41.286 12.1433 37.0086 9.4628 32.7312 6.8393C32.5601 6.72523 32.446 6.72523 32.2179 6.8393C30.1647 8.09402 28.1115 9.40576 26.0583 10.6605C25.8872 10.7745 25.8302 10.8316 25.9443 11.0027C26.8568 13.5691 26.5716 16.0215 25.2029 18.3599C25.0318 18.645 25.0318 18.8732 25.1458 19.1583C25.3169 19.7287 25.488 20.356 25.6591 20.9263C25.8872 21.7818 25.6591 22.4662 25.0318 23.0365C24.3474 23.6069 23.6059 23.6639 22.8645 23.2647C22.4083 23.0365 21.952 22.8654 21.4957 22.6373C20.8684 22.2951 20.241 22.124 19.4996 22.4092C19.2144 22.5232 19.1004 22.5803 19.1004 22.8654C19.1004 25.7741 19.1004 28.6257 19.1004 31.5344C19.1004 31.6485 19.0433 31.7625 19.1574 31.8196C20.2981 31.3063 20.6402 31.2492 21.895 31.2492C23.4919 31.2492 25.0888 31.2492 26.6857 31.2492C27.0279 31.2492 27.142 31.1922 27.142 30.85C27.142 27.1429 27.142 23.3787 27.142 19.6716C27.142 19.3294 27.199 19.2154 27.5412 19.2154C30.792 19.2154 34.0999 19.2154 37.3508 19.2154C37.693 19.2154 37.807 19.2724 37.807 19.6146C37.807 24.6335 37.807 29.6523 37.807 34.6712C37.75 34.8423 37.75 34.9563 37.75 35.1274ZM17.7886 6.55414C17.4464 6.61117 17.1613 6.61117 16.8191 6.6682C12.7698 7.12446 9.80406 11.1738 10.5455 15.1661C11.3439 19.4435 15.3933 22.01 19.6137 20.9834C20.241 20.8123 20.8684 20.8693 21.4387 21.1545C22.0661 21.4396 22.6934 21.7248 23.3208 22.01C23.6059 22.124 23.8341 22.1811 24.1192 21.9529C24.4044 21.7248 24.4044 21.4396 24.3474 21.1545C24.2333 20.6412 24.1192 20.1849 23.9481 19.6716C23.663 18.8732 23.777 18.1317 24.2333 17.3903C26.9138 12.5996 23.3778 6.55414 17.7886 6.55414ZM26.9138 35.8689V35.9259C27.0279 35.9829 27.0849 35.9829 27.199 36.04C28.3967 36.4962 29.6514 36.9525 30.8491 37.4658C31.4764 37.6939 32.1038 37.6939 32.6741 37.4087C33.8148 36.8955 35.0125 36.3822 36.1531 35.8689C36.3812 35.7548 36.4383 35.6978 36.4383 35.4696C36.4383 30.6219 36.4383 25.7171 36.4383 20.8693C36.4383 20.5841 36.3812 20.5271 36.0961 20.5841C33.6437 20.5841 31.1913 20.5841 28.7389 20.5841C28.4537 20.5841 28.3967 20.6412 28.3967 20.9263C28.3967 22.2951 28.3967 23.6069 28.3967 24.9756C28.3967 25.3178 28.2826 25.7171 28.4537 25.8882C28.6248 26.0593 29.0811 25.9452 29.3662 25.9452C30.3928 25.9452 30.3928 25.9452 30.3928 27.0288C30.3928 27.0288 30.3928 27.0288 30.3928 27.0859C30.4498 27.257 30.3358 27.314 30.1647 27.314C29.6514 27.314 29.1951 27.314 28.6818 27.314C28.3967 27.314 28.3396 27.371 28.3396 27.6562C28.3396 28.6257 28.3396 29.5383 28.3396 30.5078C28.3396 31.3633 28.3396 31.3633 29.1951 31.3633C30.6209 31.3633 31.6475 32.3328 31.6475 33.7016C31.6475 35.0704 30.6209 36.04 29.1951 36.04C28.5107 35.8689 27.7123 35.8689 26.9138 35.8689Z" fill="#20DEC2"/>
<path d="M43.795 24.5753C43.795 26.2292 43.795 27.8832 43.795 29.5371C43.795 29.8223 43.738 29.8793 43.4528 29.8793C42.3692 29.8793 41.2286 29.8793 40.1449 29.8793C39.8598 29.8793 39.8027 29.8223 39.8027 29.5371C39.8027 26.2292 39.8027 22.8643 39.8027 19.5564C39.8027 19.2713 39.8598 19.2142 40.1449 19.2142C41.2286 19.2142 42.3692 19.2142 43.4528 19.2142C43.738 19.2142 43.795 19.2713 43.795 19.5564C43.795 21.2104 43.795 22.9213 43.795 24.5753ZM41.1145 22.1799C41.1145 22.4081 41.1145 22.6362 41.1145 22.8643C41.1145 23.9479 41.1145 23.8909 42.1411 23.8909C42.3692 23.8909 42.4262 23.7768 42.4262 23.6057C42.4262 22.9213 42.4262 22.294 42.4262 21.6096C42.4262 20.526 42.4262 20.583 41.3996 20.583C41.1715 20.583 41.1145 20.64 41.1145 20.8682C41.1145 21.3244 41.1145 21.7237 41.1145 22.1799ZM41.1145 26.8566C41.1145 27.0847 41.1145 27.3129 41.1145 27.541C41.1145 28.6246 41.1145 28.6246 42.1981 28.5676C42.4262 28.5676 42.4262 28.5105 42.4262 28.2824C42.4262 27.598 42.4262 26.9136 42.4262 26.2292C42.4262 25.1456 42.4262 25.1456 41.3426 25.2026C41.1145 25.2026 41.1145 25.2597 41.1145 25.4878C41.1145 25.9441 41.1145 26.4003 41.1145 26.8566Z" fill="#20DEC2"/>
<path d="M32.4454 17.2181C31.2477 17.2181 29.993 17.2181 28.7953 17.2181C28.5102 17.2181 28.4531 17.161 28.4531 16.8759C28.4531 15.1649 28.4531 13.5109 28.4531 11.8C28.4531 11.5718 28.5102 11.4578 28.7383 11.3437C29.936 10.6593 31.0766 9.97492 32.2173 9.2335C32.3884 9.11943 32.5595 9.11943 32.7306 9.2335C33.8712 9.91789 35.0689 10.6593 36.2095 11.3437C36.3806 11.4578 36.4377 11.5718 36.4377 11.8C36.4377 13.5109 36.4377 15.1649 36.4377 16.8759C36.4377 17.161 36.3806 17.2181 36.0955 17.2181C34.8978 17.2181 33.6431 17.2181 32.4454 17.2181ZM32.4454 15.9063C33.2439 15.9063 34.0423 15.9063 34.8408 15.9063C35.0689 15.9063 35.183 15.9063 35.183 15.6211C35.183 14.5946 35.183 13.568 35.183 12.4844C35.183 12.3133 35.1259 12.1992 34.9548 12.1422C34.2134 11.6859 33.472 11.2867 32.7306 10.8304C32.5595 10.7163 32.3884 10.7163 32.2173 10.8304C31.4758 11.2867 30.7915 11.6859 30.05 12.1422C29.8789 12.2562 29.8219 12.3703 29.8219 12.5414C29.8219 13.568 29.8219 14.5375 29.8219 15.5641C29.8219 15.8493 29.936 15.8493 30.1641 15.8493C30.8485 15.8493 31.6469 15.9063 32.4454 15.9063Z" fill="#20DEC2"/>
<path d="M18.8158 9.86121H18.8728C19.8424 10.0323 20.5838 9.74714 21.0971 8.94869C21.2682 8.72056 21.3822 8.72056 21.5533 8.94869C21.7815 9.17682 22.1807 9.40495 22.1807 9.69011C22.1807 9.91824 21.8385 10.2034 21.5533 10.3745C21.1541 10.7167 20.983 11.0589 21.04 11.5722C21.0971 12.1425 21.04 12.6558 21.04 13.2261C21.04 13.7965 20.8689 14.3097 20.4127 14.709C19.3291 15.7926 18.2454 16.9332 17.1048 18.0169C16.3063 18.8153 15.1087 18.8153 14.2532 18.0169C13.7399 17.5606 13.2836 17.0473 12.8274 16.591C12.0289 15.7356 12.0289 14.5949 12.8274 13.7394C13.911 12.5988 15.0516 11.5151 16.1352 10.4315C16.5345 10.0323 16.9907 9.86121 17.5611 9.86121C18.0744 9.86121 18.4165 9.86121 18.8158 9.86121ZM18.8728 11.23C18.4166 11.23 18.0744 11.23 17.7322 11.23C17.504 11.23 17.2759 11.3441 17.1048 11.5152C16.0212 12.5988 14.9376 13.6254 13.911 14.709C13.5688 15.0512 13.5688 15.3934 13.911 15.7356C14.3102 16.1348 14.7094 16.534 15.1657 16.9903C15.622 17.4465 15.9641 17.4465 16.4204 16.9903C17.3329 16.0778 18.1884 15.1082 19.158 14.2527C19.7853 13.6824 19.8424 13.055 19.7283 12.2566C19.4431 12.5417 19.215 12.7699 18.9869 12.998C18.2455 13.7394 18.2455 13.7394 17.504 12.941C17.39 12.7699 17.39 12.7128 17.504 12.5988C17.9603 12.1425 18.4166 11.7433 18.8728 11.23Z" fill="#20DEC2"/>
</svg>
