<svg width="29" height="27" viewBox="0 0 29 27" fill="none" xmlns="http://www.w3.org/2000/svg">
<path d="M20.8291 1C20.997 1.03627 21.1648 1.07255 21.3326 1.11335C23.0746 1.5577 24.304 3.18544 24.2132 4.92655C24.1134 6.80367 22.7798 8.30446 20.9561 8.55837C19.754 8.72614 18.7015 8.38154 17.8033 7.55634C17.7444 7.50193 17.6809 7.44298 17.6219 7.38404C17.6173 7.3795 17.6083 7.3795 17.5811 7.3659C15.517 8.64452 13.4393 9.93221 11.3481 11.2244C11.6883 12.1449 11.6883 13.0608 11.3481 13.9812C13.4303 15.2689 15.5034 16.5566 17.5901 17.8442C17.7172 17.7309 17.8396 17.613 17.9712 17.4997C19.2005 16.4659 20.9244 16.3163 22.3125 17.1188C23.678 17.9077 24.4355 19.4992 24.1679 21.0045C23.873 22.6413 22.6663 23.8701 21.0695 24.1557C18.2797 24.65 15.9389 21.993 16.7917 19.2906C16.8552 19.0866 16.8189 18.9959 16.6375 18.8826C14.6868 17.6856 12.7407 16.4795 10.7992 15.2689C10.654 15.1782 10.5769 15.1963 10.4589 15.3097C9.31577 16.4296 7.63731 16.7153 6.20381 16.0487C4.77939 15.3868 3.88118 13.9132 4.01274 12.3489C4.14429 10.7801 4.96084 9.64656 6.42609 9.07526C7.89588 8.49943 9.24319 8.80775 10.4181 9.85967C10.4771 9.91408 10.5224 9.99116 10.5723 10.0546C10.654 10.0138 10.7039 9.99569 10.7447 9.96849C12.7271 8.73974 14.7141 7.51099 16.6965 6.28678C16.8235 6.2097 16.8507 6.14622 16.8008 6.00113C16.075 3.69327 17.5039 1.4126 19.9082 1.03627C19.9445 1.03174 19.9808 1.0136 20.0126 1C20.2847 1 20.5569 1 20.8291 1ZM20.4208 22.8227C21.7591 22.8182 22.8342 21.7345 22.8251 20.397C22.8206 19.0775 21.7318 18.0029 20.4072 18.0029C19.0735 18.0029 17.9893 19.0957 18.0029 20.4332C18.0166 21.7663 19.0917 22.8272 20.4208 22.8227ZM18.0029 4.79959C18.0029 6.12809 19.0781 7.20721 20.4027 7.21174C21.7409 7.21628 22.8251 6.13262 22.8251 4.79959C22.8251 3.46203 21.7364 2.38291 20.3982 2.39197C19.069 2.39651 18.0029 3.47109 18.0029 4.79959ZM5.38726 12.5983C5.38273 13.9268 6.44878 15.0059 7.77794 15.015C9.11617 15.024 10.2094 13.9494 10.2094 12.6119C10.214 11.2834 9.14339 10.2043 7.81423 10.1952C6.47599 10.1907 5.39634 11.2562 5.38726 12.5983Z" fill="#2F1793"/>
</svg>
