<svg width="88" height="88" viewBox="0 0 88 88" fill="none" xmlns="http://www.w3.org/2000/svg">
<g clip-path="url(#clip0_1678_5)">
<path d="M23.0113 71.9987C21.9281 71.5438 21.5854 70.7141 21.5883 69.5665C21.616 61.1309 21.6029 52.6939 21.6029 44.2583C21.6029 44.0439 21.6029 43.831 21.6029 43.5438C21.4353 43.6415 21.3317 43.7027 21.2297 43.7625C20.4074 44.2495 19.4845 44.1446 18.84 43.4461C18.0381 42.5756 17.2508 41.689 16.4839 40.7878C15.7301 39.9012 15.8672 38.7989 16.8236 38.0012C19.4684 35.7965 22.1205 33.6034 24.7711 31.4044C30.6731 26.5079 36.575 21.6113 42.4755 16.7118C43.6113 15.7683 44.3957 15.7611 45.5271 16.7001C49.5497 20.0394 53.5737 23.3771 57.5978 26.7149C57.7042 26.8039 57.818 26.8826 58.0046 27.024C58.0046 25.8619 58.0031 24.7945 58.0046 23.7256C58.0075 22.336 58.7394 21.6011 60.1289 21.5982C61.5315 21.5952 62.9341 21.5923 64.3366 21.5982C65.6401 21.604 66.4055 22.3681 66.4084 23.6761C66.4143 26.9191 66.4186 30.1621 66.4012 33.4065C66.3982 33.8469 66.5134 34.1385 66.8648 34.4214C68.2426 35.5282 69.6087 36.6495 70.9428 37.8073C71.3539 38.1646 71.6514 38.653 72.0013 39.0818C72.0013 39.3734 72.0013 39.665 72.0013 39.9567C71.8526 40.225 71.7447 40.5254 71.5493 40.7543C70.7693 41.6686 69.9776 42.5741 69.1626 43.4563C68.5327 44.1373 67.6113 44.2423 66.8181 43.7815C66.7 43.7129 66.5805 43.6488 66.4114 43.554C66.4114 43.8383 66.4114 44.0556 66.4114 44.2714C66.4114 52.7041 66.3997 61.1367 66.4259 69.5694C66.4289 70.7141 66.0862 71.5452 65.0029 72.0002C51.0048 71.9987 37.0081 71.9987 23.0113 71.9987ZM64.5437 70.1118C64.5437 69.8231 64.5437 69.5898 64.5437 69.355C64.5437 60.4616 64.5393 51.5696 64.5553 42.6762C64.5568 42.1366 64.4022 41.7838 63.9809 41.4353C57.4637 36.0517 50.9596 30.6535 44.4628 25.2436C44.1128 24.952 43.9146 24.9403 43.5588 25.2363C37.0212 30.6812 30.4733 36.1129 23.9182 41.5373C23.596 41.8042 23.456 42.071 23.4575 42.4997C23.4706 51.4836 23.4677 60.4674 23.4677 69.4513C23.4677 69.6642 23.4677 69.8756 23.4677 70.1104C37.1816 70.1118 50.8225 70.1118 64.5437 70.1118ZM44.0166 17.871C35.2935 25.1051 26.5965 32.3172 17.8836 39.5425C18.6957 40.4612 19.4495 41.3142 20.212 42.176C20.3316 42.0812 20.4045 42.0273 20.473 41.9704C28.0166 35.7148 35.5617 29.4592 43.1054 23.2022C43.8387 22.5941 44.1639 22.5853 44.8695 23.1715C51.5705 28.7316 58.2699 34.2931 64.9709 39.8531C65.904 40.6274 66.8415 41.3988 67.7994 42.1891C68.594 41.2924 69.3507 40.4379 70.1322 39.5571C61.4163 32.3187 52.731 25.1065 44.0166 17.871ZM64.516 23.5069C62.9297 23.5069 61.4119 23.5069 59.8664 23.5069C59.8664 25.1547 59.8562 26.7572 59.881 28.3583C59.8839 28.5318 60.0574 28.7418 60.2076 28.8686C61.5154 29.9725 62.8364 31.0632 64.1558 32.1539C64.2564 32.237 64.3789 32.2954 64.5174 32.3814C64.516 29.3878 64.516 26.4612 64.516 23.5069Z" fill="#B92025"/>
<path d="M44.0267 45.8639C48.564 45.8639 53.1013 45.8625 57.64 45.8639C60.7062 45.8654 62.6745 47.8194 62.6774 50.8757C62.6818 54.3753 62.6818 57.875 62.6774 61.3732C62.6745 64.4339 60.7076 66.4053 57.6546 66.4053C48.5611 66.4068 39.4676 66.4068 30.3741 66.4053C27.3138 66.4053 25.3397 64.4397 25.3367 61.3877C25.3324 57.8881 25.3338 54.3885 25.3367 50.8903C25.3397 47.8281 27.3021 45.8639 30.3595 45.8639C34.9143 45.8625 39.4705 45.8639 44.0267 45.8639ZM44.0399 47.7275C39.4487 47.7275 34.8589 47.726 30.2677 47.7289C28.3635 47.7304 27.2088 48.8824 27.2059 50.797C27.2001 54.3506 27.2001 57.9027 27.2059 61.4563C27.2088 63.3927 28.365 64.5403 30.31 64.5418C39.437 64.5432 48.564 64.5432 57.691 64.5418C59.6666 64.5418 60.8068 63.4 60.8097 61.4154C60.8141 57.8983 60.8141 54.3826 60.8097 50.8655C60.8068 48.8547 59.671 47.7304 57.6488 47.7289C53.1115 47.726 48.5757 47.7275 44.0399 47.7275Z" fill="#B92025"/>
<path d="M53.3337 56.2993C52.7826 57.9514 52.2767 59.4665 51.7708 60.9815C51.6614 61.3096 51.555 61.6377 51.4413 61.9644C51.278 62.431 50.9499 62.6993 50.4527 62.6555C49.9541 62.6118 49.6771 62.2837 49.5969 61.7996C49.1537 59.1428 48.7134 56.4845 48.2716 53.8263C48.1068 52.8391 47.945 51.8504 47.7773 50.8632C47.6636 50.1983 47.9377 49.7011 48.4859 49.5903C49.0356 49.4794 49.4861 49.8367 49.6013 50.5089C50.0008 52.842 50.3886 55.1751 50.7823 57.5096C50.791 57.5592 50.81 57.6059 50.8552 57.7604C50.9893 57.39 51.0972 57.1086 51.1934 56.8214C51.5987 55.614 52.0055 54.4081 52.3992 53.1963C52.5493 52.737 52.8045 52.4206 53.3192 52.4118C53.8645 52.4016 54.1283 52.7414 54.2844 53.2153C54.7699 54.6808 55.2598 56.1433 55.8677 57.6088C55.9946 56.8709 56.1258 56.1346 56.2483 55.3953C56.5136 53.7971 56.7717 52.1975 57.0414 50.6008C57.1639 49.8746 57.6436 49.5159 58.2472 49.6748C58.7356 49.8031 58.9835 50.21 58.8872 50.8355C58.6263 52.5081 58.3434 54.1777 58.0664 55.8473C57.7544 57.7327 57.4482 59.6196 57.1143 61.5006C57.056 61.8258 56.9408 62.1977 56.7221 62.4237C56.2439 62.918 55.4755 62.6541 55.2277 61.9279C54.6838 60.3458 54.1633 58.7549 53.6326 57.1669C53.551 56.9293 53.4664 56.6887 53.3337 56.2993Z" fill="#B92025"/>
<path d="M30.9461 54.264C30.9461 54.4769 30.9461 54.6898 30.9461 54.9027C30.9461 57.0346 30.9476 59.165 30.9447 61.2968C30.9447 61.5141 30.9447 61.7372 30.8966 61.9486C30.7901 62.424 30.4504 62.6631 29.9868 62.6559C29.5494 62.6486 29.2272 62.4094 29.1222 61.9603C29.0814 61.7853 29.0741 61.5987 29.0741 61.4179C29.0712 57.8847 29.0726 54.3501 29.0726 50.8169C29.0726 50.7075 29.0726 50.5982 29.0843 50.4888C29.1309 50.0411 29.3657 49.7408 29.806 49.6358C30.2259 49.5352 30.5539 49.6999 30.7931 50.047C30.8966 50.1972 30.9855 50.3561 31.0759 50.5136C32.442 52.8554 33.8082 55.1973 35.1743 57.5391C35.2735 57.7097 35.3799 57.8774 35.5986 58.0422C35.5986 57.8584 35.5986 57.6733 35.5986 57.4895C35.5986 55.2848 35.5957 53.0814 35.603 50.8767C35.603 50.6434 35.6176 50.3955 35.6977 50.1811C35.8567 49.7583 36.208 49.557 36.6498 49.6154C37.0858 49.6722 37.3744 49.9376 37.4473 50.3911C37.4648 50.4976 37.4634 50.6084 37.4634 50.7177C37.4648 54.3238 37.4648 57.9313 37.4605 61.5374C37.4605 61.7328 37.4736 61.9924 37.3628 62.1119C37.1557 62.3365 36.8554 62.6281 36.6046 62.6194C36.2984 62.6077 35.896 62.3861 35.724 62.1294C35.1583 61.2852 34.6771 60.3826 34.1639 59.5033C33.1375 57.7476 32.1125 55.9905 31.0861 54.2349C31.0395 54.2451 30.9928 54.2538 30.9461 54.264Z" fill="#B92025"/>
<path d="M41.2007 57.0619C41.2007 58.262 41.189 59.3863 41.2211 60.5105C41.224 60.6126 41.5069 60.789 41.6629 60.7934C42.682 60.8197 43.7026 60.8022 44.7232 60.8094C45.4638 60.8138 45.8794 61.1667 45.8648 61.7573C45.8502 62.3201 45.4347 62.6701 44.7319 62.673C43.3118 62.6803 41.8903 62.6832 40.4702 62.673C39.6844 62.6672 39.3359 62.3187 39.3345 61.5283C39.3286 57.9397 39.3286 54.3497 39.3345 50.7611C39.3359 49.9358 39.68 49.5975 40.5008 49.5946C41.9399 49.5887 43.3789 49.5873 44.8179 49.596C45.3924 49.6004 45.7846 49.9023 45.8517 50.3762C45.9158 50.8209 45.7467 51.1738 45.3326 51.3575C45.1577 51.4348 44.9462 51.4508 44.7494 51.4523C43.7653 51.4611 42.7826 51.4552 41.7985 51.4581C41.622 51.4581 41.4442 51.4742 41.2342 51.4829C41.2342 52.7122 41.2342 53.9064 41.2342 55.1911C41.8189 55.1911 42.3933 55.1911 42.9663 55.1911C43.5495 55.1911 44.1327 55.1852 44.7144 55.1925C45.4522 55.2027 45.8721 55.5585 45.8619 56.1462C45.8531 56.7192 45.4551 57.0532 44.7378 57.059C43.5932 57.0692 42.4473 57.0619 41.2007 57.0619Z" fill="#B92025"/>
</g>
<defs>
<clipPath id="clip0_1678_5">
<rect width="56" height="56" fill="white" transform="translate(16 16)"/>
</clipPath>
</defs>
</svg>
