<svg width="88" height="88" viewBox="0 0 88 88" fill="none" xmlns="http://www.w3.org/2000/svg">
<path d="M15 25.5921C15.1116 25.1318 15.2095 24.6686 15.3394 24.2144C16.4694 20.2482 20.4555 17.5525 24.4294 18.0617C28.8162 18.6244 32.0577 22.0295 32.0913 26.3184C32.151 34.02 32.1128 41.7217 32.1143 49.4233C32.1143 49.5334 32.0975 49.6435 32.0868 49.7826C31.281 49.7826 30.5103 49.7826 29.6801 49.7826C29.6801 49.5319 29.6801 49.3071 29.6801 49.0839C29.6801 41.6299 29.6847 34.1775 29.677 26.7236C29.674 23.7894 27.8193 21.3567 25.0976 20.6671C21.1818 19.6748 17.4571 22.5478 17.4449 26.6593C17.4143 35.9084 17.4373 45.1589 17.4388 54.4079C17.4388 54.4997 17.4495 54.5899 17.4571 54.7351C20.9525 51.8438 24.6542 51.327 28.4737 53.8559C30.8834 55.4522 32.0302 57.8497 32.1173 60.7916C31.2764 60.7916 30.5058 60.7916 29.7657 60.7916C29.622 60.1295 29.5394 59.4827 29.3391 58.8757C28.4615 56.2198 25.8851 54.5272 23.0916 54.7321C20.3776 54.9324 18.0764 56.9843 17.5565 59.6693C16.8241 63.4505 19.7002 66.9504 23.6237 66.9566C37.4031 66.9749 51.1811 66.9688 64.9606 66.955C68.6195 66.9504 71.2663 64.3144 71.2724 60.6601C71.2907 49.4799 71.2785 38.2997 71.2785 27.1196C71.2785 26.9697 71.2617 26.8214 71.2479 26.6089C59.4409 26.6089 47.6598 26.6089 35.8328 26.6089C35.8328 25.774 35.8328 25.0019 35.8328 24.1594C36.0255 24.1487 36.2273 24.1303 36.4276 24.1303C48.3142 24.1288 60.2023 24.1288 72.0889 24.1303C73.2953 24.1303 73.7142 24.5462 73.7142 25.7404C73.7142 37.3793 73.7173 49.0181 73.7127 60.6555C73.7112 65.6462 69.962 69.3953 64.9744 69.3953C51.1383 69.3984 37.3022 69.3984 23.4662 69.3862C19.954 69.3831 16.8088 67.1569 15.555 63.8634C15.4618 63.6172 15.4908 63.1845 15 63.3206C15 50.7444 15 38.1682 15 25.5921Z" fill="#B92025"/>
<path d="M55.4065 60.8227C49.3302 60.8257 44.3701 55.9314 44.3594 49.9208C44.3487 43.739 49.2629 38.814 55.4432 38.8125C61.4416 38.811 66.3619 43.7772 66.3742 49.8459C66.3879 55.8763 61.4477 60.8196 55.4065 60.8227ZM55.4111 41.2742C50.6574 41.2681 46.8119 45.0723 46.7997 49.7954C46.7875 54.517 50.6284 58.3732 55.353 58.3839C60.096 58.3946 63.9522 54.5216 63.9354 49.7664C63.9186 45.0983 60.0869 41.2819 55.4111 41.2742Z" fill="#B92025"/>
<path d="M39.4884 33.9729C39.4884 38.8581 39.4884 43.699 39.4884 48.5842C39.8906 48.6056 40.2621 48.6239 40.6597 48.6438C40.6597 49.4465 40.6597 50.2202 40.6597 51.0428C39.8019 51.0428 38.9655 51.0704 38.1322 51.0337C37.5236 51.0061 37.0863 50.523 37.0252 49.9114C37.0099 49.76 37.0175 49.6056 37.0175 49.4527C37.0175 43.9895 37.0175 38.5278 37.0175 33.0647C37.0175 31.8996 37.4395 31.4699 38.5985 31.4699C44.0617 31.4684 49.5234 31.4684 54.9865 31.4699C56.1746 31.4699 56.5951 31.8996 56.5981 33.1029C56.5996 33.7145 56.5935 34.3246 56.5874 34.9362C56.5874 34.9713 56.566 35.0065 56.5385 35.0906C55.7694 35.0906 54.9835 35.0906 54.1624 35.0906C54.144 34.7145 54.1257 34.3613 54.1058 33.9714C49.2374 33.9729 44.395 33.9729 39.4884 33.9729Z" fill="#B92025"/>
<path d="M59.0033 51.0615C58.1899 51.0615 57.4315 51.0615 56.6058 51.0615C56.6058 51.8673 56.6058 52.6394 56.6058 53.4483C55.7664 53.4483 54.9927 53.4483 54.1548 53.4483C54.1548 52.6715 54.1548 51.8979 54.1548 51.0707C53.32 51.0707 52.5448 51.0707 51.7344 51.0707C51.7344 50.245 51.7344 49.4728 51.7344 48.6319C52.5004 48.6319 53.2726 48.6319 54.1074 48.6319C54.1074 47.794 54.1074 47.0218 54.1074 46.1992C54.9575 46.1992 55.7419 46.1992 56.5921 46.1992C56.5921 46.9912 56.5921 47.7665 56.5921 48.6028C57.4269 48.6028 58.2006 48.6028 59.0033 48.6028C59.0033 49.4392 59.0033 50.2114 59.0033 51.0615Z" fill="#B92025"/>
</svg>
