<svg width="88" height="88" viewBox="0 0 88 88" fill="none" xmlns="http://www.w3.org/2000/svg">
<path d="M53.0537 63.7738C53.0537 65.2735 53.0537 66.7178 53.0537 68.1557C52.1786 68.3919 48.1993 68.2508 47.3084 67.9797C48.3151 68.8533 48.3436 70.0058 48.2945 71.1869C48.231 72.712 47.0341 73.9502 45.5058 73.955C38.6301 73.9708 31.756 73.9819 24.8803 73.947C22.4293 73.9344 20.2035 72.2761 19.3791 69.9171C18.8179 68.3127 18.3391 66.6782 17.8651 65.0452C17.7319 64.5871 17.5512 64.3715 17.0549 64.4428C16.7458 64.4872 16.4256 64.4507 16.0577 64.4507C15.9468 63.4187 15.8358 62.4199 15.7327 61.4211C15.4981 59.1382 15.2809 56.8505 15.0352 54.5676C14.7292 51.7076 16.443 49.1536 19.2205 48.3974C20.3271 48.0962 21.4432 47.8298 22.6116 47.5349C22.6116 46.7882 22.6259 46.0399 22.5989 45.2917C22.5942 45.1521 22.4563 44.973 22.3294 44.8874C18.8591 42.5823 17.0296 39.2292 16.3415 35.2325C16.0625 33.6076 15.9277 31.9128 16.0451 30.2735C16.2385 27.5832 17.8904 25.6617 19.9419 24.078C22.6639 21.9726 25.8014 20.7281 29.0609 19.7531C29.8187 19.5264 30.5907 19.3536 31.3533 19.1411C34.4796 18.2724 37.1383 19.2521 39.4688 21.2925C41.3712 22.9587 42.3589 25.1275 42.5681 27.6434C42.733 29.641 41.9895 31.2105 40.2599 32.2537C39.7494 32.5612 39.5908 32.8688 39.7192 33.4823C40.1203 35.3974 40.439 37.3284 40.7973 39.299C40.2392 39.5796 39.705 39.8777 39.1453 40.1155C38.7712 40.2756 38.6158 40.5276 38.5524 40.9097C38.4605 41.4757 38.3527 42.0417 38.2052 42.595C37.7597 44.2659 36.3186 45.3915 34.5969 45.4248C33.8059 45.4407 33.0132 45.428 32.127 45.428C32.127 46.1097 32.1127 46.774 32.1412 47.4366C32.146 47.5445 32.3109 47.6871 32.4345 47.7426C36.4154 49.504 38.9741 52.4987 40.198 56.6587C40.2139 56.7126 40.2456 56.7601 40.3122 56.8997C41.4457 56.776 42.5998 56.6492 43.7587 56.5223C39.8049 48.1199 41.4045 41.0096 48.3737 35.0455C42.817 30.1087 43.7492 22.2643 47.9124 18.2533C52.1453 14.1758 58.7008 13.8793 63.2285 17.6573C67.7421 21.4241 68.9057 28.3537 64.7457 33.6615C69.5716 36.1584 72.6519 40.0235 73.7046 45.3773C74.3911 48.8682 73.8631 52.2339 72.3079 55.4332C69.3021 61.6145 61.7335 66.239 53.0537 63.7738ZM53.0521 54.9402C53.0521 55.698 53.0727 56.3876 53.0442 57.0756C53.0283 57.4434 53.1472 57.6369 53.4881 57.7954C60.1656 60.9249 68.1051 56.0071 68.2684 48.6304C68.4127 42.1035 62.8972 37.0763 56.4321 37.9356C52.5321 38.454 49.7292 40.6117 48.1962 44.2184C46.6489 47.8568 47.1641 51.3366 49.447 54.5613C49.6547 54.853 49.8846 54.9576 50.2365 54.9481C51.1433 54.9243 52.0533 54.9402 53.0521 54.9402ZM39.2468 30.635C40.1964 30.0722 40.7006 29.3096 40.6752 28.2823C40.6023 25.2765 39.2262 23.0221 36.5993 21.5794C35.0963 20.7535 33.4951 20.4475 31.794 20.9897C30.5131 21.3971 29.1988 21.6999 27.9273 22.128C25.386 22.9856 22.9446 24.0621 20.8408 25.7743C19.3109 27.0204 18.0252 28.5011 17.9094 30.5478C17.7034 34.1704 18.4215 37.5995 20.5808 40.6164C21.3085 41.6342 22.1788 42.5062 23.2648 43.2006C23.6025 42.6964 23.8942 42.2256 24.2208 41.7801C24.7614 41.0413 24.43 40.2106 24.4903 39.4242C24.4966 39.3481 24.3492 39.2435 24.2556 39.1801C21.7714 37.4933 22.1344 33.5743 25.1704 32.4629C25.34 32.4011 25.535 32.2172 25.5858 32.0491C25.9837 30.7698 26.816 29.9184 28.032 29.3905C29.8456 28.6042 31.6878 27.8654 33.4428 26.9633C34.5335 26.4021 35.4927 26.391 36.5755 26.8729C37.858 27.4453 38.7125 28.3362 39.0391 29.7123C39.1089 29.9945 39.1675 30.2783 39.2468 30.635ZM28.3332 43.5256C28.5916 43.5256 28.8056 43.5256 29.0181 43.5256C30.8206 43.5256 32.6216 43.5319 34.4241 43.5224C35.4847 43.5176 36.1791 42.9517 36.4122 41.9259C36.5041 41.5217 36.6199 41.1158 36.65 40.7036C36.734 39.5733 37.1446 38.7172 38.3352 38.3842C38.4621 38.3494 38.6111 38.0244 38.5841 37.8611C38.3939 36.6499 38.164 35.445 37.9452 34.2385C37.7058 32.9148 37.4728 31.591 37.2223 30.2704C37.0019 29.1146 35.6433 28.1222 34.7587 28.5043C32.6723 29.4064 30.5971 30.3354 28.5266 31.2755C27.7514 31.6274 27.3788 32.2743 27.3677 33.1256C27.3645 33.3222 27.3677 33.5188 27.3677 33.7328C26.7843 33.9373 26.2199 34.1101 25.6745 34.3321C24.9691 34.619 24.5854 35.1786 24.5267 35.9285C24.4681 36.6863 24.801 37.2697 25.4367 37.6772C25.6191 37.7945 25.8141 37.9007 26.017 37.972C26.3562 38.091 26.4339 38.3177 26.4244 38.6553C26.4022 39.4274 26.3848 40.2011 26.4276 40.9716C26.4625 41.6152 26.3562 42.1859 25.9139 42.6679C24.6694 44.0234 24.2604 45.6262 24.5267 47.4176C24.5632 47.6602 24.6821 47.9471 24.8597 48.1009C26.0582 49.1346 27.2837 50.1397 28.5012 51.1511C28.6122 51.2431 28.739 51.3144 28.869 51.4032C29.7156 49.4786 30.6494 47.6269 30.1088 45.4042C29.5476 45.4042 28.9451 45.4042 28.3332 45.4042C28.3332 44.7653 28.3332 44.193 28.3332 43.5256ZM29.6728 54.5882C29.4588 54.4186 29.305 54.2997 29.1544 54.176C27.3281 52.6557 25.5033 51.1321 23.6722 49.6181C23.5295 49.5008 23.3171 49.347 23.1713 49.3771C22.4293 49.5293 21.7 49.7354 20.9105 49.9368C22.721 51.4 23.1633 52.0231 23.6532 53.7813C24.3841 56.4098 25.107 59.0415 25.8362 61.67C26.269 63.2268 26.7066 64.7821 27.1458 66.3532C29.7473 66.3532 32.3013 66.3294 34.8554 66.369C35.5038 66.3785 35.8843 66.1217 36.1997 65.6033C34.4828 64.316 33.6711 62.6403 34.1689 60.5238C34.6651 58.4153 36.1363 57.2706 38.2845 56.8569C37.1684 53.4198 35.0012 51.018 31.71 49.5166C31.0267 51.2177 30.3656 52.8633 29.6728 54.5882ZM39.762 67.3044C41.1381 67.3044 42.4635 67.3012 43.7873 67.306C44.1345 67.3076 44.4658 67.2552 44.4722 66.8383C44.4785 66.4245 44.1598 66.3484 43.8063 66.3516C42.7568 66.3579 41.6946 66.4499 40.6578 66.3326C38.9725 66.1423 37.598 66.5228 36.5929 67.9686C36.4772 68.1367 36.1601 68.2445 35.935 68.2445C32.666 68.2619 29.3954 68.2508 26.1264 68.2635C25.7808 68.2651 25.6492 68.1494 25.5667 67.8212C25.3147 66.824 25.0325 65.8348 24.7392 64.8487C24.6932 64.6965 24.5204 64.4698 24.4031 64.4682C22.8447 64.4428 21.2879 64.4507 19.6343 64.4507C20.213 66.2422 20.6569 67.9956 21.3481 69.6475C22.0155 71.2424 23.3995 72.0446 25.1355 72.0509C31.8337 72.0716 38.5302 72.0605 45.2284 72.0589C46.0464 72.0589 46.3809 71.718 46.3936 70.9063C46.3968 70.7081 46.3984 70.51 46.3936 70.3118C46.3762 69.5699 46.0353 69.2195 45.2981 69.21C44.4468 69.1989 43.5939 69.2068 42.7425 69.2068C41.758 69.2068 40.7735 69.2068 39.7636 69.2068C39.762 68.5584 39.762 67.9718 39.762 67.3044ZM52.6257 27.0473C50.6979 24.5139 50.6852 22.0566 52.5416 20.1954C54.2269 18.5054 56.8713 18.3199 58.7784 19.7689C59.7122 20.4776 60.3067 21.4161 60.5509 22.5655C60.9171 24.2936 60.3479 25.7505 59.1811 27.0172C61.7732 28.4361 62.2472 28.9085 63.8024 31.591C66.0362 28.5946 66.2772 23.1553 62.4612 19.5248C58.7388 15.9831 52.9824 16.0085 49.3027 19.566C45.5058 23.2377 45.8134 28.6707 48.0297 31.6116C48.9666 29.5062 50.487 27.989 52.6257 27.0473ZM61.4323 36.4469C67.8626 38.5491 71.3725 44.9889 69.7999 51.2764C69.05 54.2743 67.3885 56.692 64.8345 58.4327C61.1692 60.9296 57.22 61.2594 53.0505 59.7295C53.0505 60.2955 53.0743 60.7917 53.0426 61.2832C53.0204 61.6272 53.1568 61.762 53.4707 61.8618C55.5824 62.534 57.7369 62.7401 59.9215 62.3898C67.9608 61.0993 73.2639 53.7496 71.8117 45.726C70.935 40.8828 68.1067 37.4203 63.655 35.3086C63.4885 35.2294 63.2079 35.2024 63.0668 35.2896C62.5215 35.6336 62.0078 36.0332 61.4323 36.4469ZM55.901 35.9206C58.176 35.8889 60.1942 35.1533 61.9698 33.7201C62.2789 33.4696 62.3455 33.2493 62.2203 32.8656C61.3404 30.1737 58.78 28.3093 55.9153 28.3061C53.0489 28.3029 50.487 30.1578 49.5945 32.8466C49.4565 33.2635 49.5564 33.4918 49.8735 33.7471C51.6348 35.1596 53.6387 35.8857 55.901 35.9206ZM47.329 57.4387C47.2148 57.4434 47.1514 57.4308 47.1007 57.4514C44.4595 58.4882 41.7105 58.81 38.8901 58.7529C37.2128 58.7197 35.9397 59.9848 35.9334 61.5844C35.9271 63.1872 37.1969 64.4365 38.8663 64.4476C40.55 64.4587 42.2352 64.4032 43.9157 64.4777C44.469 64.5015 45.0191 64.8154 45.5518 65.0405C46.132 65.2862 46.6917 65.5827 47.329 65.8902C47.329 62.9843 47.329 60.2337 47.329 57.4387ZM24.0369 62.5293C24.0369 62.4199 24.0495 62.3581 24.0353 62.3042C23.2378 59.4299 22.4832 56.5445 21.6224 53.6909C21.1785 52.2213 20.056 51.3953 18.5373 51.1765C18.3026 51.1432 17.9507 51.2891 17.7905 51.473C17.0312 52.3418 16.814 53.3802 16.9424 54.5169C17.1057 55.9706 17.2388 57.4276 17.3895 58.8829C17.5147 60.0942 17.6431 61.3054 17.7731 62.5293C19.8864 62.5293 21.9394 62.5293 24.0369 62.5293ZM47.5557 55.1938C45.5565 52.0279 44.9256 48.7081 45.8546 45.1632C46.7836 41.6136 48.9793 39.0263 52.2452 37.2301C51.8916 37.0811 51.638 36.9796 51.3891 36.8686C51.137 36.7545 50.8659 36.6641 50.644 36.5056C50.2936 36.2551 50.0225 36.3264 49.7007 36.5658C45.0556 40.0203 43.0184 44.6179 43.7001 50.3696C43.9347 52.3544 44.6592 54.1935 45.7785 55.9199C46.3603 55.6821 46.9215 55.4538 47.5557 55.1938ZM58.7562 23.5469C58.7547 21.9932 57.4832 20.7107 55.9327 20.698C54.3521 20.6853 53.0521 21.9726 53.0537 23.5516C53.0553 25.1053 54.3267 26.3894 55.8772 26.4021C57.4547 26.4148 58.7578 25.1227 58.7562 23.5469ZM49.2885 56.868C49.2885 60.0529 49.2885 63.1872 49.2885 66.304C49.9321 66.304 50.533 66.304 51.118 66.304C51.118 63.1349 51.118 60.0133 51.118 56.868C50.5013 56.868 49.9147 56.868 49.2885 56.868Z" fill="#B92025"/>
<path d="M61.5762 45.393C60.9706 45.393 60.365 45.393 59.7594 45.393C59.4074 43.971 58.8351 43.5239 57.3797 43.5223C56.9089 43.5223 56.438 43.5223 55.9212 43.5223C55.9212 44.2801 55.8705 44.9919 55.9339 45.6927C56.0147 46.5836 56.7932 47.324 57.7063 47.3097C59.7102 47.278 61.7458 48.9014 61.6206 51.5331C61.5683 52.6381 61.6111 53.7463 61.6111 54.9195C60.6614 54.9195 59.7435 54.9195 58.7812 54.9195C58.7812 55.5695 58.7812 56.1576 58.7812 56.7918C58.1391 56.7918 57.5367 56.7918 56.855 56.7918C56.855 56.2987 56.8344 55.7914 56.8613 55.2857C56.8803 54.9353 56.7599 54.7847 56.4253 54.6468C54.9113 54.019 54.1186 52.8585 53.9902 51.1764C54.6228 51.1764 55.2252 51.1764 55.8324 51.1764C56.2953 52.6873 56.7694 53.0345 58.3817 53.0345C58.7955 53.0345 59.2092 53.0345 59.6611 53.0345C59.6611 52.2418 59.7387 51.4697 59.6405 50.7198C59.5279 49.8669 58.7558 49.2898 57.8744 49.2312C55.4234 49.0663 54.0029 47.557 53.9997 45.1124C53.9982 43.9678 53.9997 42.8247 53.9997 41.6373C54.9573 41.6373 55.861 41.6373 56.8296 41.6373C56.8296 40.9937 56.8296 40.3928 56.8296 39.7539C57.4955 39.7539 58.0947 39.7539 58.7558 39.7539C58.7558 40.2818 58.7764 40.7923 58.7479 41.2996C58.7305 41.631 58.8414 41.7705 59.1585 41.8957C60.6789 42.4966 61.6253 43.8822 61.5762 45.393Z" fill="#B92025"/>
</svg>
