<svg width="88" height="88" viewBox="0 0 88 88" fill="none" xmlns="http://www.w3.org/2000/svg">
<path d="M71.2915 71.9962C69.2486 71.394 67.2043 70.7928 65.1628 70.1849C64.8924 70.1042 64.5404 70.0315 64.4074 69.8644C64.21 69.6167 64.0898 69.2872 64.0941 68.994C64.0998 68.7054 64.3015 68.4179 64.4732 67.9917C64.0326 67.9917 63.6377 67.919 63.3058 68.0031C61.3988 68.486 59.5161 69.0292 57.6034 69.4963C57.1456 69.6088 56.5561 69.6201 56.1112 69.4929C48.4502 67.302 40.7993 65.0861 33.1511 62.8645C30.8807 62.2054 29.6661 60.727 29.8722 58.9475C30.1154 56.8509 32.8235 55.2623 35.3729 55.8577C37.6776 56.3952 39.9151 57.1168 42.1827 57.7566C42.4745 57.8395 42.7678 57.9214 43.1197 58.0191C44.2413 56.2157 46.4288 56.0827 48.5146 55.7896C52.8151 55.1873 57.1126 54.5737 61.4174 53.9941C61.9024 53.9294 62.4617 53.9748 62.9281 54.1032C65.2429 54.7418 67.539 55.4259 69.9181 56.1157C70.0526 55.8487 70.1714 55.5884 70.313 55.335C70.6335 54.76 71.1499 54.5532 71.8967 54.7623C73.9754 55.3452 76.0498 55.9373 78.1085 56.5646C78.4532 56.6691 78.705 56.9657 78.9997 57.1736C78.9997 57.3532 78.9997 57.5316 78.9997 57.7111C78.9096 57.8725 78.8066 58.0293 78.7308 58.1952C76.7665 62.4725 74.8152 66.7531 72.8266 71.0235C72.6592 71.3826 72.2601 71.6735 71.9682 71.9962C71.7422 71.9962 71.5176 71.9962 71.2915 71.9962ZM69.1614 57.8305C66.9239 57.1827 64.7565 56.5407 62.5733 55.935C62.1942 55.8293 61.7393 55.8157 61.3373 55.86C60.1785 55.9873 59.0283 56.1623 57.8766 56.3236C54.2643 56.8271 50.652 57.3293 47.0411 57.8395C45.5132 58.0555 44.6748 58.935 44.9209 60.0304C45.1512 61.0566 46.3887 61.6304 47.8737 61.4179C50.5089 61.0407 53.1455 60.6713 55.7822 60.302C57.3043 60.0895 58.8294 59.8838 60.4088 59.6668C60.5404 60.285 60.662 60.8543 60.7908 61.4532C56.5089 62.0497 52.3244 62.6406 48.1355 63.2134C45.33 63.5963 43.084 62.3066 42.6104 60.0884C42.5804 59.9498 42.4073 59.7668 42.247 59.7191C39.8651 59.0157 37.4859 58.3043 35.0796 57.6555C33.7205 57.2884 32.3786 57.9861 32.1426 59.0861C31.9609 59.935 32.6933 60.8043 33.9323 61.1634C41.4316 63.3372 48.9323 65.5088 56.4388 67.6667C56.7049 67.7429 57.0597 67.7338 57.333 67.6645C58.9596 67.2486 60.5876 66.8315 62.1885 66.3588C63.1713 66.0679 64.1141 65.8781 65.1012 66.3008C65.1327 66.3145 65.1871 66.2917 65.2872 66.2792C66.5633 63.4997 67.8466 60.6997 69.1614 57.8305ZM70.9124 69.9258C72.7494 65.9156 74.5534 61.9759 76.3817 57.985C74.9225 57.5634 73.5233 57.1589 72.0841 56.743C70.2486 60.752 68.4389 64.7031 66.6163 68.6826C68.0841 69.1076 69.4518 69.5031 70.9124 69.9258Z" fill="#B92025"/>
<path d="M36.4705 31.7932C34.4218 33.5602 31.7995 34.4534 28.645 34.2C25.5634 33.9522 22.9682 33.0409 21.4117 30.6898C21.4117 31.1966 21.4174 31.7045 21.4103 32.2113C21.3988 33.0091 21.0111 33.3341 20.0312 33.3363C17.147 33.342 14.2629 33.342 11.3773 33.3363C10.4174 33.3341 10.0068 33.0216 10.0054 32.2648C9.99821 27.5398 9.99821 22.8137 10.0054 18.0887C10.0068 17.3319 10.4231 17.0081 11.3716 17.0058C14.2572 16.999 17.1413 16.999 20.0254 17.0058C20.9983 17.0081 21.3988 17.3433 21.4103 18.1331C21.4174 18.6319 21.4117 19.1308 21.4117 19.7705C21.9468 19.6899 22.4389 19.6808 22.8638 19.541C25.107 18.8001 27.3259 18.0137 29.5706 17.2751C30.0541 17.116 30.6078 17.0183 31.1314 17.016C34.8496 16.9944 38.5678 17.016 42.2859 17.0001C44.688 16.9899 46.7223 17.6467 48.4162 18.9967C51.3904 21.3683 54.379 23.7273 57.3518 26.1C58.9227 27.3546 59.3318 28.8909 58.4806 30.3125C57.7095 31.6011 56.4033 32.2625 54.6122 32.2511C54.1243 32.2477 53.9055 32.3591 53.7195 32.7079C53.4934 33.1318 53.2216 33.5693 52.8382 33.9045C52.3332 34.3443 52.2474 34.8147 52.2631 35.3704C52.2974 36.659 52.2746 37.9477 52.2731 39.2363C52.2717 41.1567 51.4176 42.0033 49.0671 42.4203C49.0042 42.4317 48.9469 42.4635 48.8511 42.4987C48.8511 44.3692 48.8511 46.2476 48.8511 48.126C48.8511 49.1646 48.8253 50.2032 48.8611 51.2407C48.8811 51.8407 48.5678 52.2032 47.8983 52.4566C44.9183 53.5862 45.9326 53.5816 42.9698 52.4668C42.2287 52.1873 41.9726 51.7725 41.9769 51.1498C41.997 48.4646 41.9855 45.7805 41.9855 43.0953C41.9855 42.8999 41.9855 42.7056 41.9855 42.4874C41.8067 42.4476 41.6636 42.4044 41.5163 42.384C39.758 42.1465 38.5992 41.0999 38.5749 39.6681C38.5492 38.0749 38.5735 36.4818 38.5606 34.8886C38.5592 34.7045 38.5062 34.4977 38.3918 34.3409C37.7752 33.4954 37.1314 32.6647 36.4705 31.7932ZM21.4675 21.533C21.4675 24.0126 21.4675 26.4 21.4675 28.8125C21.7236 28.8125 21.9253 28.8114 22.127 28.8125C23.2486 28.8193 23.5147 28.9773 23.7265 29.842C23.8781 30.4602 24.323 30.9114 24.9311 31.2784C27.2844 32.6977 30.9754 32.8102 33.4576 31.5307C34.2029 31.1466 34.8696 30.7045 35.0713 29.9557C35.3489 28.9273 35.5434 28.8125 36.9025 28.8125C39.3131 28.8125 41.7237 28.8216 44.1343 28.8091C45.5978 28.8011 46.6107 27.9807 46.5492 26.8909C46.4934 25.8898 45.4905 25.1773 44.0842 25.175C40.2316 25.1671 36.3789 25.1728 32.5262 25.1728C32.2659 25.1728 32.0055 25.1728 31.738 25.1728C31.738 24.5319 31.738 23.9694 31.738 23.3535C32.0241 23.3535 32.2659 23.3535 32.5076 23.3535C35.1657 23.3535 37.8253 23.3614 40.4834 23.3444C40.8496 23.3421 41.243 23.2694 41.5749 23.1455C46.987 21.1205 53.4391 23.7864 54.4033 28.4705C54.5349 29.1114 54.5364 29.7705 54.5979 30.4193C55.7839 30.3955 56.545 29.7875 56.5879 28.8784C56.6179 28.2489 56.2417 27.7875 55.7166 27.3705C52.7381 25.0035 49.7581 22.6376 46.7795 20.2717C45.5377 19.2853 44.0399 18.8103 42.2802 18.8217C40.253 18.8353 38.2244 18.824 36.1972 18.8251C34.3946 18.8262 32.5362 18.6149 30.8066 18.8967C29.0799 19.1785 27.4947 19.9842 25.8223 20.5069C24.4175 20.9444 23.1342 21.7103 21.4675 21.533ZM12.3344 18.8524C12.3344 23.0876 12.3344 27.2818 12.3344 31.4739C14.622 31.4739 16.858 31.4739 19.0884 31.4739C19.0884 27.2455 19.0884 23.0626 19.0884 18.8524C16.8352 18.8524 14.6148 18.8524 12.3344 18.8524ZM40.8596 36.0624C40.8596 37.1954 40.8568 38.3022 40.861 39.4079C40.8639 40.2931 41.253 40.6124 42.356 40.6158C44.4061 40.6215 46.4562 40.6226 48.5063 40.6158C49.5721 40.6124 49.9798 40.2942 49.9927 39.4511C50.007 38.4136 49.997 37.3749 49.997 36.3374C49.997 34.5534 49.9813 34.584 47.9069 33.8647C45.7767 33.1261 43.8138 33.3466 41.8539 34.3579C42.2344 34.5011 42.5592 34.6204 42.8811 34.7431C43.3332 34.9147 43.6822 34.9295 44.1372 34.6227C45.0771 33.9886 46.5463 34.2193 47.2946 35.0306C48.0199 35.817 47.811 36.9306 46.8282 37.5136C45.8096 38.1181 44.3875 37.967 43.6307 37.184C43.4605 37.0079 43.2716 36.8011 43.0313 36.7158C42.3575 36.4783 41.6536 36.2965 40.8596 36.0624ZM39.9197 33.1375C43.6379 31.1386 47.2245 31.1386 50.7867 33.0636C50.9412 32.9 51.0542 32.792 51.1515 32.6761C51.9913 31.6784 51.9899 31.6784 50.9426 30.8454C50.0728 30.1534 49.2044 29.4591 48.2845 28.725C47.1186 30.2955 45.3618 30.7125 43.2874 30.6409C41.9841 30.5954 40.6765 30.6318 39.3703 30.6341C39.1572 30.6341 38.944 30.65 38.5406 30.667C39.0127 31.5136 39.4347 32.2682 39.9197 33.1375ZM44.2717 42.4624C44.2717 42.6703 44.2717 42.8112 44.2717 42.9522C44.2717 45.4567 44.2717 47.9612 44.2717 50.4657C44.2717 50.8839 44.8811 51.3623 45.4161 51.368C45.9455 51.3737 46.5592 50.8941 46.5592 50.4703C46.5606 47.9657 46.5606 45.4612 46.5578 42.9567C46.5578 42.801 46.5378 42.6442 46.5249 42.4624C45.7767 42.4624 45.0671 42.4624 44.2717 42.4624ZM48.0041 24.7319C48.429 26.7284 50.4734 27.8489 52.1873 29.2648C52.1086 27.2625 50.0871 25.1694 48.0041 24.7319Z" fill="#B92025"/>
</svg>
