<svg width="88" height="88" viewBox="0 0 88 88" fill="none" xmlns="http://www.w3.org/2000/svg">
<path d="M32.8247 73.0969C31.1691 72.8046 29.9474 71.8276 28.8381 70.6351C27.9611 69.6935 27.021 68.8103 26.1132 67.8949C25.4577 67.2332 25.4408 66.6824 26.0378 65.9839C27.2918 64.5145 27.2472 62.4958 25.9301 61.188C24.6238 59.8879 22.6359 59.8402 21.1773 61.0711C20.4218 61.7096 19.9218 61.6988 19.2263 61.008C18.0262 59.8156 16.8215 58.6277 15.6398 57.4168C13.4611 55.1874 13.4457 51.9917 15.6398 49.7745C19.1294 46.248 22.6421 42.7461 26.1732 39.2611C26.4532 38.9841 26.9364 38.8149 27.3395 38.7795C28.178 38.7072 29.0273 38.758 29.9597 38.758C29.9597 37.961 29.989 37.1978 29.9505 36.4393C29.9151 35.7546 30.1444 35.2422 30.6337 34.7529C36.9543 28.4569 43.2581 22.1439 49.5664 15.8356C52.0144 13.3876 55.1747 13.3892 57.6257 15.834C58.7551 16.9618 59.8859 18.0881 61.0107 19.2205C61.7 19.9145 61.7108 20.4145 61.0722 21.1731C59.8413 22.6347 59.8906 24.6226 61.1907 25.9274C62.5016 27.2445 64.5234 27.2875 65.9866 26.032C66.6667 25.4473 67.2298 25.4504 67.856 26.0705C69.0715 27.2737 70.2716 28.4954 71.4902 29.697C72.3703 30.5663 72.8304 31.6434 73.0966 32.8235C73.0966 33.2851 73.0966 33.7467 73.0966 34.2083C72.8058 35.9115 71.7641 37.1332 70.5609 38.281C69.17 39.6073 67.8298 40.989 66.4743 42.3522C66.0727 42.7553 65.625 42.9492 65.0696 42.7261C64.3049 42.4168 64.1356 41.4613 64.748 40.8151C65.3696 40.1597 66.022 39.5334 66.6605 38.8934C67.7068 37.8456 68.7607 36.8055 69.7993 35.7515C71.1256 34.4052 71.1287 32.6404 69.807 31.2926C68.8253 30.2925 67.8299 29.3062 66.8513 28.323C63.9571 30.0278 61.1799 29.1447 59.6259 27.6291C57.6857 25.7366 57.3903 23.2502 58.7581 20.3668C57.6488 19.2267 56.601 18.0435 55.4393 16.9865C54.3777 16.0202 52.7206 16.1171 51.6297 17.0634C51.4989 17.1773 51.3774 17.3003 51.2543 17.4219C45.0813 23.5948 38.9099 29.7709 32.7262 35.9331C32.3815 36.2762 32.2369 36.6131 32.2554 37.0916C32.2892 37.9948 32.2738 38.8995 32.2615 39.8027C32.2508 40.6243 31.8461 41.0459 31.0168 41.0644C30.0167 41.0859 29.0166 41.0536 28.018 41.0859C27.7795 41.0936 27.4872 41.2075 27.3195 41.3736C23.9499 44.7201 20.5865 48.0743 17.2384 51.4439C15.9998 52.6902 15.9998 54.4781 17.2153 55.7336C18.217 56.7691 19.2479 57.7753 20.2926 58.8201C21.6912 57.9707 23.179 57.6584 24.7731 58.0246C25.9886 58.3031 27.0071 58.9231 27.8364 59.8602C29.5135 61.7558 29.7074 64.3145 28.3042 66.8671C29.4828 68.001 30.6798 69.1565 31.8799 70.3074C31.9338 70.3597 32.0107 70.3874 32.0784 70.4243C33.3063 71.089 34.691 70.8598 35.765 69.7889C38.6114 66.9517 41.3825 64.0345 44.3228 61.2972C45.6475 60.0648 46.3599 58.8047 46.0568 57.0091C45.9999 56.6737 46.0368 56.3167 46.0599 55.9721C46.106 55.2782 46.5092 54.872 47.2062 54.8566C48.1863 54.835 49.1679 54.8304 50.148 54.855C50.545 54.8643 50.8265 54.7443 51.1066 54.4611C53.0806 52.4656 55.0701 50.4853 57.058 48.5005C57.2072 48.3513 57.3565 48.1974 57.5272 48.0759C57.9827 47.7574 58.5643 47.8051 58.9582 48.1743C59.3674 48.5575 59.4428 49.1667 59.1243 49.6453C59.0182 49.8037 58.8812 49.9422 58.7458 50.0776C56.5856 52.2409 54.4161 54.395 52.2652 56.5691C51.8559 56.9814 51.4112 57.1784 50.8312 57.1599C50.0295 57.1337 49.2264 57.1537 48.354 57.1537C48.354 57.8046 48.3032 58.4 48.3647 58.9832C48.4771 60.0294 48.0924 60.7803 47.3385 61.5157C44.2551 64.5222 41.2117 67.5717 38.196 70.6459C37.0559 71.8076 35.8604 72.8092 34.2048 73.0985C33.7478 73.0969 33.2862 73.0969 32.8247 73.0969Z" fill="#B92025"/>
<path d="M49.0256 29.1489C49.6057 29.1335 50.0304 29.5166 50.2365 30.2567C50.7751 32.1784 51.309 34.1017 51.8444 36.025C52.4922 38.3545 53.1399 40.6855 53.7877 43.0149C53.8231 43.1442 53.8615 43.2734 53.8908 43.4042C54.0492 44.0889 53.7323 44.6659 53.0968 44.8536C52.4798 45.0367 51.8706 44.7044 51.6705 44.0227C51.312 42.8072 50.9874 41.5825 50.6474 40.3624C49.7626 37.182 48.8733 34.0017 47.9948 30.8198C47.7424 29.9043 48.204 29.1704 49.0256 29.1489Z" fill="#B92025"/>
<path d="M61.1036 35.9285C61.1082 37.861 59.5665 39.4074 57.6371 39.4012C55.7477 39.3951 54.1952 37.8441 54.1875 35.9547C54.1798 34.0453 55.7554 32.4743 57.6694 32.4805C59.5681 32.4882 61.099 34.0253 61.1036 35.9285ZM57.6248 34.7915C57.0155 34.8069 56.4985 35.3362 56.4985 35.9408C56.4985 36.5686 57.0509 37.1071 57.6817 37.0917C58.3264 37.0764 58.8234 36.5378 58.7942 35.8855C58.7665 35.2639 58.2449 34.7761 57.6248 34.7915Z" fill="#B92025"/>
<path d="M47.7332 36.3433C47.7332 38.262 46.2146 39.7929 44.3005 39.8037C42.3834 39.8145 40.7955 38.2251 40.8186 36.3172C40.8417 34.4124 42.3957 32.8814 44.2974 32.8907C46.2161 32.9014 47.7316 34.4247 47.7332 36.3433ZM45.4222 36.3403C45.4206 35.7017 44.9298 35.2094 44.2913 35.2063C43.662 35.2032 43.1435 35.7002 43.1296 36.3218C43.1142 36.9588 43.6574 37.5004 44.3036 37.4896C44.9329 37.4819 45.4252 36.9757 45.4222 36.3403Z" fill="#B92025"/>
<path d="M36.07 52.3641C35.9669 52.5395 35.8484 52.8765 35.6223 53.1088C34.3914 54.3736 33.142 55.6198 31.8834 56.8584C31.3187 57.4139 30.6294 57.4216 30.1525 56.92C29.6909 56.4353 29.714 55.7783 30.254 55.2306C31.4926 53.9735 32.745 52.7303 33.9959 51.4856C34.3791 51.104 34.8222 50.9301 35.353 51.1655C35.8007 51.3625 36.0131 51.7241 36.07 52.3641Z" fill="#B92025"/>
<path d="M32.6191 48.512C32.3791 48.9336 32.2637 49.2737 32.0391 49.5045C30.7959 50.7831 29.5311 52.0416 28.2602 53.2925C27.7156 53.828 27.0524 53.828 26.5739 53.3433C26.1077 52.871 26.1215 52.1894 26.6508 51.6539C27.9033 50.3846 29.1696 49.1275 30.4328 47.8689C30.8036 47.4996 31.2729 47.3058 31.7344 47.5873C32.0729 47.795 32.3068 48.1751 32.6191 48.512Z" fill="#B92025"/>
<path d="M34.478 61.0257C34.1364 60.7241 33.7549 60.4979 33.5379 60.164C33.2579 59.7332 33.4164 59.267 33.7687 58.907C34.5334 58.1254 35.3104 57.3561 36.0828 56.5837C36.5982 56.0682 37.1044 55.542 37.6322 55.042C38.1676 54.5358 38.8015 54.5219 39.277 54.9773C39.7601 55.4389 39.7709 56.1375 39.2524 56.6667C37.9892 57.953 36.7152 59.2286 35.4227 60.4871C35.2073 60.6964 34.8827 60.7995 34.478 61.0257Z" fill="#B92025"/>
<path d="M45.0456 52.6661C45.0579 53.5185 44.107 54.1462 43.39 53.6846C42.9053 53.3723 42.4591 52.9292 42.1391 52.4476C41.6606 51.729 42.2545 50.7859 43.1207 50.7813C43.8301 50.7782 45.0348 51.9583 45.0456 52.6661Z" fill="#B92025"/>
<path d="M39.5874 49.5714C38.7873 49.4391 37.6118 48.3067 37.7088 47.6205C37.758 47.2697 38.0072 46.8296 38.2996 46.6665C38.5888 46.505 39.1135 46.5157 39.4105 46.6788C39.829 46.9081 40.229 47.2943 40.4537 47.7128C40.6214 48.0251 40.6168 48.5498 40.4675 48.876C40.3275 49.1791 39.8936 49.3453 39.5874 49.5714Z" fill="#B92025"/>
<path d="M36.2687 43.9195C36.2595 44.5319 35.7332 45.0504 35.1178 45.0519C34.4116 45.0535 33.4068 44.0472 33.4161 43.3472C33.4238 42.7363 33.9546 42.2101 34.567 42.207C35.2578 42.2055 36.2795 43.2333 36.2687 43.9195Z" fill="#B92025"/>
<path d="M62.9896 45.3465C62.9866 45.9788 62.4911 46.4773 61.8587 46.4835C61.2018 46.4896 60.6925 45.9681 60.7094 45.3111C60.7263 44.6787 61.2325 44.194 61.8664 44.2033C62.5004 44.2125 62.9927 44.7141 62.9896 45.3465Z" fill="#B92025"/>
</svg>
