<svg width="42" height="38" viewBox="0 0 42 38" fill="none" xmlns="http://www.w3.org/2000/svg">
<path d="M20.5203 30.4049C22.4763 30.4049 24.4329 30.3756 26.3877 30.414C28.0772 30.447 29.5325 28.9997 29.4971 27.321C29.4567 25.4187 29.4867 23.5146 29.4885 21.6117C29.4891 21.1207 29.7214 20.791 30.0986 20.6817C30.535 20.5552 31.0863 20.907 31.0827 21.5916C31.0772 22.7928 31.0808 23.9934 31.0808 25.1946C31.0808 25.8767 31.0857 26.5582 31.0796 27.2403C31.0686 28.5264 30.6248 29.6568 29.7275 30.5661C28.939 31.3649 27.9726 31.8717 26.8223 31.9475C26.469 31.9707 26.1144 31.9951 25.7605 31.9957C22.0729 31.9994 18.3852 32.0061 14.6976 31.9933C13.5441 31.989 12.5081 31.6226 11.6175 30.8647C10.4879 29.9035 9.94328 28.673 9.93106 27.2086C9.91578 25.346 9.92617 23.4835 9.928 21.6215C9.92862 21.1293 10.1542 20.7836 10.5307 20.6859C11.0643 20.5473 11.5142 20.9497 11.5197 21.5836C11.5258 22.347 11.5215 23.1103 11.5215 23.8737C11.5215 25.0443 11.5386 26.215 11.5172 27.3851C11.4879 28.9973 12.8981 30.4232 14.5307 30.4104C16.527 30.3927 18.5234 30.4049 20.5203 30.4049Z" fill="#B92025"/>
<path d="M7.88165 19.3112C7.4605 19.2471 7.20989 19.0969 7.07113 18.7958C6.93299 18.4966 7.0039 18.2273 7.216 17.9879C7.25634 17.9421 7.30157 17.9012 7.34497 17.8578C11.5149 13.6924 15.6848 9.5263 19.8547 5.36024C20.3327 4.88269 20.6744 4.88024 21.1457 5.35108C25.337 9.53851 29.5289 13.7259 33.7197 17.9146C34.2129 18.4074 34.0351 19.1036 33.3553 19.2508C33.1695 19.2911 32.9428 19.172 32.7435 19.1011C32.6653 19.0737 32.6108 18.9784 32.5461 18.9137C28.6573 15.0285 24.7679 11.1428 20.8792 7.25762C20.543 6.92175 20.4666 6.92053 20.139 7.24785C16.2288 11.1538 12.3199 15.0621 8.40365 18.9637C8.24106 19.1262 8.0149 19.2245 7.88165 19.3112Z" fill="#B92025"/>
</svg>
