<svg width="42" height="38" viewBox="0 0 42 38" fill="none" xmlns="http://www.w3.org/2000/svg">
<path d="M33.6663 21.6986C33.5145 21.8612 33.3675 22.0291 33.2104 22.1864C30.707 24.6843 28.2017 27.1803 25.697 29.6769C25.2625 30.11 25.0807 30.108 24.6395 29.6689C20.7291 25.7711 16.8187 21.8732 12.9076 17.9747C12.5045 17.5729 12.5038 17.373 12.9035 16.9745C15.4744 14.4126 18.0439 11.8514 20.6134 9.29009C21.0018 8.90297 21.2097 8.90297 21.5994 9.29209C23.0292 10.7166 24.4577 12.1425 25.8888 13.5664C26.056 13.7323 26.1883 13.9049 26.1081 14.1601C26.0038 14.4919 25.6228 14.6232 25.3407 14.4193C25.2672 14.366 25.2043 14.2967 25.1395 14.232C24.082 13.178 23.0245 12.1245 21.9684 11.0691C21.9042 11.0052 21.8554 10.9252 21.7993 10.8526C21.7785 10.8626 21.7578 10.8726 21.7371 10.8826C21.7277 10.9412 21.711 10.9998 21.711 11.0585C21.7097 13.8816 21.7064 16.704 21.7124 19.5271C21.7137 20.378 22.2605 20.9184 23.1101 20.9197C25.9336 20.923 28.7572 20.921 31.5814 20.9204C31.6449 20.9204 31.7084 20.9104 31.8113 20.9017C31.7271 20.8104 31.6703 20.7438 31.6088 20.6818C30.5045 19.5805 29.4002 18.4791 28.2953 17.3777C28.2364 17.319 28.1736 17.2624 28.1221 17.1978C27.9577 16.9892 27.9717 16.7227 28.1522 16.5381C28.3253 16.3609 28.6094 16.3402 28.814 16.4955C28.8802 16.5454 28.9376 16.6074 28.9965 16.666C30.4617 18.1259 31.9276 19.5858 33.3902 21.0483C33.4945 21.1529 33.5747 21.2815 33.6663 21.3988C33.6663 21.4987 33.6663 21.5987 33.6663 21.6986ZM14.4243 17.978C17.8367 21.3795 21.2525 24.7843 24.6522 28.1724C24.6522 26.1222 24.6522 24.0313 24.6522 21.9205C24.5312 21.9205 24.4323 21.9212 24.3327 21.9205C23.84 21.9172 23.3461 21.9345 22.8541 21.9058C21.7224 21.8399 20.7933 20.919 20.7251 19.7923C20.6943 19.2779 20.7124 18.7602 20.7064 18.2438C20.7057 18.1566 20.697 18.0686 20.6923 17.978C18.5753 17.978 16.4891 17.978 14.4243 17.978ZM14.3915 16.9539C16.4938 16.9539 18.5847 16.9539 20.6863 16.9539C20.6863 14.8537 20.6863 12.7649 20.6863 10.6813C18.5894 12.7715 16.5005 14.8524 14.3915 16.9539ZM25.6916 28.1704C27.7759 26.0929 29.8675 24.008 31.9477 21.9345C29.8915 21.9345 27.7993 21.9345 25.6916 21.9345C25.6916 24.0353 25.6916 26.1215 25.6916 28.1704Z" fill="#B92025"/>
<path d="M13.3968 26.3444C12.2537 26.3444 11.11 26.3497 9.96697 26.3377C9.81256 26.3364 9.61336 26.2891 9.51777 26.1865C9.41683 26.0779 9.3687 25.8733 9.38207 25.7181C9.39945 25.5149 9.56857 25.3916 9.77579 25.3536C9.85667 25.339 9.94223 25.345 10.0258 25.345C12.2704 25.3443 14.5151 25.345 16.7597 25.345C16.8179 25.345 16.8767 25.3423 16.9349 25.347C17.219 25.3676 17.4249 25.5802 17.4222 25.848C17.4202 26.1159 17.2136 26.3297 16.9269 26.3411C16.6601 26.3517 16.3928 26.3444 16.1261 26.3444C15.2156 26.3444 14.3065 26.3444 13.3968 26.3444Z" fill="#B92025"/>
<path d="M9.97836 20.402C9.51112 20.402 9.04387 20.404 8.57663 20.4013C8.23037 20.3993 8.00644 20.2054 8.00109 19.9116C7.99508 19.6091 8.22502 19.4045 8.58398 19.4038C9.51045 19.4018 10.4369 19.4018 11.3627 19.4038C11.707 19.4045 11.9336 19.6017 11.9396 19.8936C11.9456 20.1947 11.713 20.4 11.356 20.402C10.8961 20.404 10.4376 20.402 9.97836 20.402Z" fill="#B92025"/>
<path d="M13.3149 23.1486C12.8731 23.1486 12.4319 23.1512 11.9901 23.1479C11.6532 23.1452 11.4225 22.9387 11.4219 22.6488C11.4212 22.3597 11.6532 22.1511 11.9894 22.1504C12.8811 22.1478 13.7728 22.1478 14.6639 22.1504C15.0121 22.1518 15.2247 22.3457 15.2247 22.6488C15.2247 22.952 15.0121 23.1452 14.6645 23.1479C14.2147 23.1512 13.7648 23.1486 13.3149 23.1486Z" fill="#B92025"/>
<path d="M12.6608 15.1501C12.3693 15.1501 12.0772 15.1541 11.7858 15.1488C11.4576 15.1428 11.2497 14.9463 11.249 14.6517C11.2484 14.3566 11.4556 14.1554 11.7831 14.1527C12.3914 14.1474 12.9997 14.1467 13.608 14.1527C13.9288 14.156 14.1401 14.3692 14.1341 14.6617C14.128 14.9436 13.9208 15.1421 13.6107 15.1481C13.2938 15.1548 12.977 15.1495 12.6608 15.1501Z" fill="#B92025"/>
<path d="M9.28611 15.1499C9.03611 15.1499 8.78678 15.1539 8.53678 15.1486C8.21793 15.1419 7.99801 14.932 8.00001 14.6468C8.00202 14.3623 8.22194 14.1551 8.54346 14.1524C9.05148 14.1471 9.55951 14.1471 10.0669 14.1524C10.3857 14.1558 10.605 14.3683 10.603 14.6535C10.6009 14.9387 10.381 15.1426 10.0595 15.1486C9.80282 15.1532 9.54413 15.1499 9.28611 15.1499Z" fill="#B92025"/>
<path d="M12.9369 20.3992C12.6601 20.4032 12.4215 20.168 12.4248 19.8955C12.4275 19.6309 12.6541 19.4064 12.9222 19.4024C13.1962 19.3984 13.4182 19.6083 13.4275 19.8808C13.4369 20.166 13.2196 20.3952 12.9369 20.3992Z" fill="#B92025"/>
<path d="M27.1403 16.0111C26.8542 16.0138 26.637 15.7959 26.6397 15.5094C26.643 15.2409 26.8629 15.0183 27.1296 15.0156C27.4004 15.013 27.6417 15.2548 27.637 15.524C27.633 15.7919 27.4124 16.0084 27.1403 16.0111Z" fill="#B92025"/>
</svg>
