<svg width="42" height="38" viewBox="0 0 42 38" fill="none" xmlns="http://www.w3.org/2000/svg">
<path d="M22.0169 9.32237L22.0174 9.32181C23.294 7.90643 25.0812 7.10217 26.9522 7.1C28.8216 7.10324 30.6067 7.90749 31.8812 9.32283C34.5728 12.3222 34.5729 16.9588 31.8815 19.9583C31.8813 19.9584 31.8812 19.9585 31.8811 19.9587L22.077 30.6439C22.077 30.6439 22.077 30.6439 22.077 30.6439C22.0671 30.6546 22.0567 30.6653 22.0464 30.6756C21.7283 30.9867 21.228 30.9725 20.9269 30.6441L20.9269 30.6441L11.1189 19.9587C11.1188 19.9585 11.1186 19.9584 11.1185 19.9582C8.42707 16.9588 8.42716 12.3221 11.1188 9.32228C11.2313 9.19751 11.348 9.07701 11.4687 8.96079C14.1935 6.34504 18.4538 6.50673 20.9862 9.32172L20.9868 9.32237L21.4281 9.80428L21.5018 9.8848L21.5756 9.80428L22.0169 9.32237ZM21.5755 28.803L30.7058 18.8544H30.707L30.7367 18.822C32.8881 16.4734 32.8715 12.8217 30.7372 10.4595C30.6439 10.3548 30.5463 10.254 30.445 10.1576C28.354 8.1645 25.0948 8.30038 23.1658 10.4592C23.1657 10.4594 23.1655 10.4596 23.1653 10.4598L22.0778 11.6437C21.7588 11.9703 21.2455 11.9704 20.9258 11.6437L19.8389 10.4588C19.8388 10.4586 19.8386 10.4584 19.8384 10.4582C19.7452 10.3537 19.6476 10.2529 19.5464 10.1565C17.4552 8.16327 14.1957 8.2993 12.2667 10.4586C10.1502 12.818 10.1502 16.4619 12.2668 18.8212L12.2676 18.8221L21.4282 28.803L21.5018 28.8833L21.5755 28.803Z" fill="#B92025" stroke="#17181A" stroke-width="0.2"/>
</svg>
