<svg width="88" height="88" viewBox="0 0 88 88" fill="none" xmlns="http://www.w3.org/2000/svg">
<path d="M15.6533 77C15.1429 76.688 14.9822 76.2356 15.0015 75.6426C15.0594 73.9064 14.9295 72.1495 15.1429 70.4338C15.4258 68.1691 16.8154 66.6339 18.9301 65.7883C19.5253 65.5499 20.1424 65.3694 20.7466 65.1528C21.4948 64.8847 21.8753 64.324 21.9318 63.5506C21.9665 63.0801 21.9781 62.6019 21.9267 62.1353C21.9036 61.9226 21.7557 61.6481 21.5796 61.5411C20.2979 60.7612 19.7516 59.6218 19.7747 58.1446C19.7991 56.5334 19.7747 54.9221 19.7824 53.3109C19.7927 50.9443 21.3225 49.4104 23.6892 49.3949C24.76 49.3872 25.8321 49.3782 26.903 49.4027C28.8043 49.4478 30.3521 50.7948 30.4575 52.7038C30.5706 54.7584 30.5243 56.826 30.4665 58.8858C30.4344 60.0407 29.7749 60.8979 28.7902 61.4728C28.4713 61.6597 28.3672 61.8736 28.3646 62.2384C28.3505 64.6862 28.4006 64.7584 30.7467 65.564C31.3291 65.7638 31.8921 66.0203 32.5336 66.2794C33.7523 64.3691 35.7436 63.6164 37.812 62.9654C39.2595 62.5104 39.7699 61.7667 39.7789 60.2573C39.7789 60.2147 39.775 60.1709 39.7802 60.1284C39.9023 59.0172 39.7596 58.1356 38.5949 57.4885C37.5626 56.9149 37.1448 55.7625 37.1333 54.5586C37.1127 52.2604 37.0998 49.9608 37.1358 47.6625C37.1718 45.372 38.9806 43.5429 41.2663 43.4746C42.7652 43.4308 44.2667 43.4295 45.7643 43.4759C48.0294 43.5468 49.8163 45.3501 49.8549 47.6213C49.8948 49.9402 49.8832 52.2616 49.8588 54.5818C49.8433 56.0835 49.1144 57.2036 47.8276 57.9358C47.3764 58.1923 47.1964 58.4952 47.2388 59.0095C47.2838 59.5432 47.2414 60.0832 47.253 60.6195C47.2748 61.7061 47.8148 62.4331 48.8098 62.8365C48.8689 62.861 48.928 62.8855 48.9885 62.9074C49.8652 63.2271 50.1724 63.6705 49.9436 64.2892C49.7315 64.8615 49.1183 65.1258 48.374 64.7094C47.3224 64.1204 46.3145 64.0624 45.2283 64.48C45.0753 64.538 44.903 64.5444 44.6652 64.5883C45.0059 65.6891 45.3311 66.7473 45.6602 67.8043C46.087 69.1758 46.5035 70.5511 46.947 71.9162C47.1347 72.4924 47.0357 72.9461 46.5948 73.3727C45.7926 74.1474 45.0239 74.9569 44.2333 75.7445C43.5841 76.3903 43.102 76.3812 42.4952 75.7135C41.774 74.9195 41.0709 74.1087 40.3445 73.3199C39.973 72.9177 39.8805 72.5014 40.036 71.9652C40.6813 69.7416 41.2958 67.5078 41.9206 65.2779C41.9772 65.0768 42.0234 64.8731 42.0813 64.645C41.3575 64.4851 40.6723 64.3292 39.9859 64.1887C39.8946 64.1693 39.7815 64.2209 39.6863 64.2583C38.7877 64.5986 37.8994 64.9659 36.9931 65.283C34.5352 66.1428 33.1751 68.0221 33.1623 70.6336C33.1533 72.3312 33.143 74.0288 33.17 75.7251C33.179 76.3052 32.9977 76.7228 32.4938 76.9987C32.2791 76.9987 32.0657 76.9987 31.851 76.9987C31.3689 76.6635 31.2082 76.2046 31.2237 75.6194C31.2545 74.4606 31.1941 73.298 31.243 72.1405C31.2969 70.8811 31.4499 69.6256 31.5168 68.3676C31.5258 68.1884 31.3368 67.8971 31.1697 67.8262C30.3829 67.4949 29.4998 67.339 28.7863 66.8994C27.9109 66.3593 27.1768 66.7151 26.3322 66.9046C26.9351 68.8355 27.5136 70.7187 28.1178 72.5929C28.2965 73.1459 28.2155 73.588 27.7964 73.9953C27.1357 74.6385 26.5045 75.3127 25.845 75.9572C25.2549 76.5333 24.7613 76.5076 24.1944 75.8876C23.6159 75.2534 23.058 74.6011 22.473 73.9734C22.0964 73.5699 22.0141 73.1472 22.1799 72.6161C22.4988 71.5926 22.77 70.555 23.0592 69.5238C23.2996 68.6653 23.5349 67.8056 23.7933 66.8749C23.1698 66.795 22.6003 66.5862 22.0951 66.6906C21.3096 66.8543 20.5743 67.2449 19.8094 67.5156C18.0238 68.1459 16.9542 69.6205 16.9427 71.5179C16.9337 72.8919 16.9183 74.2673 16.9517 75.6414C16.9658 76.2343 16.8077 76.6867 16.2986 77C16.0827 77 15.868 77 15.6533 77ZM39.0526 53.0196C39.0526 53.4063 39.0706 53.793 39.0487 54.1784C38.9934 55.1606 39.4009 55.8644 40.2494 56.349C40.9744 56.7628 41.6763 57.2152 42.3885 57.6509C43.111 58.093 43.8412 58.1162 44.5714 57.6754C45.3774 57.1882 46.1847 56.7022 46.9817 56.2021C47.6065 55.8089 47.942 55.2405 47.9407 54.4877C47.9395 53.6718 47.9266 52.8559 47.9485 52.0399C47.9575 51.6971 47.8276 51.5591 47.5075 51.4599C45.9764 50.9843 44.4402 50.5189 42.9349 49.9685C42.1481 49.6811 41.5298 49.7997 40.7739 50.1425C39.4729 50.7342 38.5833 51.4277 39.0526 53.0196ZM21.7763 57.366C21.3726 58.8574 22.0527 59.7674 23.3472 60.341C23.4835 60.4016 23.6159 60.4815 23.729 60.5756C24.679 61.3619 25.5648 61.2627 26.5842 60.5937C28.7259 59.19 28.5819 59.587 28.605 56.9265C28.6089 56.4444 28.4392 56.2536 28.0034 56.1248C26.876 55.7935 25.7473 55.4558 24.6482 55.0433C24.0504 54.819 23.5927 54.9247 23.0245 55.167C21.9974 55.6053 21.3623 56.1673 21.7763 57.366ZM38.9999 48.8394C39.203 48.7904 39.2788 48.793 39.3225 48.7582C40.9783 47.4009 42.7189 47.6097 44.5032 48.4591C44.7706 48.5867 45.0689 48.6525 45.353 48.7427C46.195 49.0095 47.0383 49.2751 47.9343 49.5573C47.9343 48.8458 47.9587 48.2245 47.9292 47.6058C47.8713 46.4135 46.938 45.4468 45.7412 45.412C44.2448 45.3694 42.7472 45.3759 41.2508 45.412C40.2738 45.4352 39.4279 46.1054 39.1875 47.0554C39.0487 47.6045 39.0629 48.1936 38.9999 48.8394ZM28.5922 54.2828C28.5922 53.8548 28.6012 53.5571 28.5909 53.2606C28.5485 51.9922 27.889 51.34 26.6189 51.3284C25.5725 51.3194 24.5248 51.3555 23.4796 51.3233C22.4885 51.2923 21.3983 52.3635 21.8149 53.6344C22.0257 53.5287 22.2506 53.4488 22.437 53.3148C23.2187 52.7553 23.9977 52.7296 24.8988 53.0892C26.0597 53.5493 27.2784 53.8651 28.5922 54.2828ZM45.5497 62.4228C45.443 61.4483 45.3427 60.5254 45.2347 59.5419C44.0957 60.0536 42.9362 60.0394 41.8088 59.5676C41.6712 60.5872 41.5426 61.545 41.4089 62.5336C42.8102 62.8004 44.2178 62.7953 45.5497 62.4228ZM43.4118 73.8342C43.8823 73.3611 44.322 72.977 44.6806 72.5297C44.831 72.3428 44.9172 71.9896 44.8529 71.7628C44.4762 70.4235 44.0481 69.0984 43.6329 67.7708C43.5879 67.6264 43.5082 67.4936 43.3861 67.232C42.9079 68.9115 42.4644 70.4506 42.0427 71.9948C42.0067 72.1263 42.08 72.3351 42.1751 72.4485C42.5569 72.9061 42.967 73.3405 43.4118 73.8342ZM23.6763 64.9041C24.6585 64.9041 25.6329 64.9041 26.6073 64.9041C26.5238 64.1745 26.4543 63.57 26.3939 63.0415C25.5506 63.0415 24.7382 63.0415 23.9257 63.0415C23.8511 63.5983 23.7701 64.208 23.6763 64.9041ZM25.0955 69.4246C24.8281 70.3655 24.6045 71.1428 24.3859 71.9213C24.0774 73.0221 24.1532 73.2219 25.156 73.9218C25.4041 73.6666 25.6792 73.4243 25.9016 73.1394C26.0121 72.9963 26.1124 72.7527 26.0687 72.5968C25.7846 71.5888 25.4593 70.5924 25.0955 69.4246Z" fill="#BB1F26"/>
<path d="M54.4775 76.9987C53.971 76.6842 53.8155 76.2304 53.827 75.6388C53.8566 73.9863 53.8206 72.3312 53.8424 70.6774C53.8643 68.9425 53.2614 67.4988 51.9669 66.3387C51.3459 65.7831 51.3549 65.0239 51.9617 64.6656C52.3885 64.4129 52.7793 64.5096 53.147 64.8087C53.6625 65.2289 54.1818 65.6452 54.7822 66.1299C55.4802 65.8747 56.4572 65.515 57.4342 65.1593C58.2055 64.8783 58.5976 64.3214 58.631 63.5055C58.64 63.2915 58.6143 63.0737 58.6426 62.8623C58.7429 62.1211 58.5475 61.6132 57.8417 61.184C56.9817 60.6607 56.5382 59.7635 56.5266 58.731C56.5048 56.7769 56.4855 54.8215 56.5292 52.8687C56.5716 50.9855 58.1194 49.4619 60.0027 49.4065C61.2432 49.3704 62.4876 49.3691 63.7282 49.4065C65.6308 49.4645 67.1683 51.0254 67.203 52.9409C67.2351 54.7442 67.2017 56.5488 67.2184 58.3521C67.23 59.7171 66.6733 60.7625 65.5125 61.4598C65.1718 61.6648 65.06 61.8955 65.0587 62.2835C65.0497 64.645 65.1281 64.8035 67.3817 65.524C69.81 66.3 71.3835 67.8442 71.899 70.3848C71.9749 70.7599 71.9838 71.1531 71.9864 71.5385C71.9967 72.9345 71.971 74.3305 72.0006 75.7264C72.0134 76.3065 71.8283 76.7241 71.3205 76.9974C71.1058 76.9974 70.8924 76.9974 70.6778 76.9974C70.1995 76.6597 70.0427 76.1995 70.0543 75.6169C70.08 74.2003 70.08 72.7837 70.0543 71.3671C70.0234 69.6114 69.0117 68.2 67.3675 67.58C66.7273 67.3389 66.0048 67.2423 65.4456 66.8826C64.5972 66.3361 63.8786 66.7061 63.0661 66.9097C63.1175 67.0966 63.1523 67.2397 63.196 67.3802C63.7359 69.1191 64.2694 70.8605 64.8196 72.5955C64.9931 73.1407 64.9263 73.588 64.4982 73.9979C63.8336 74.6359 63.205 75.3114 62.5468 75.9559C61.976 76.5153 61.4824 76.5076 60.945 75.9288C60.3614 75.3011 59.8163 74.6359 59.2224 74.0198C58.7969 73.579 58.7313 73.1124 58.9023 72.5465C59.2314 71.4599 59.5322 70.3655 59.8394 69.2724C60.0567 68.499 60.2637 67.7218 60.4861 66.9071C59.9063 66.7963 59.3574 66.5179 58.919 66.6403C57.8366 66.9458 56.7979 67.4176 55.7617 67.8674C55.6191 67.9293 55.5072 68.2593 55.5201 68.4552C55.5715 69.2003 55.7386 69.9401 55.7566 70.6852C55.7952 72.3364 55.7489 73.9902 55.7797 75.6426C55.7913 76.2356 55.637 76.688 55.1241 76.9974C54.9069 76.9987 54.6922 76.9987 54.4775 76.9987ZM58.4395 57.4214C58.4395 57.7862 58.3559 58.1768 58.4601 58.508C58.5989 58.9476 58.793 59.4529 59.1285 59.73C59.7315 60.2289 60.4321 60.6336 61.143 60.9713C61.4939 61.1376 62.0056 61.2033 62.3629 61.0783C64.7836 60.2263 65.3672 59.3175 65.294 56.764C65.285 56.4302 65.1847 56.2768 64.8633 56.1788C63.6588 55.8102 62.4542 55.439 61.2702 55.0097C60.7393 54.8177 60.3279 54.913 59.8227 55.1231C58.7545 55.5627 58.05 56.1376 58.4395 57.4214ZM65.285 54.2827C65.285 53.8934 65.2862 53.6163 65.285 53.3392C65.276 51.9948 64.6203 51.3361 63.2705 51.3271C62.2858 51.3206 61.3011 51.3142 60.3164 51.3296C58.9781 51.3503 58.2852 52.2203 58.5115 53.6369C58.7493 53.5171 58.9923 53.4294 59.1954 53.285C59.9423 52.7578 60.6879 52.7334 61.5453 53.0646C62.737 53.5235 63.9763 53.8625 65.285 54.2827ZM60.6185 63.0414C60.5491 63.6202 60.4732 64.2454 60.3948 64.8886C61.3859 64.8886 62.3552 64.8886 63.3232 64.8886C63.2268 64.1513 63.1484 63.5506 63.0828 63.0414C62.2421 63.0414 61.4656 63.0414 60.6185 63.0414ZM61.8899 73.9682C62.0827 73.744 62.2768 73.5416 62.4426 73.3186C62.5866 73.124 62.8463 72.8674 62.8039 72.705C62.5339 71.6829 62.1933 70.6787 61.8757 69.6694C61.5312 70.3797 61.4091 71.1221 61.1121 71.7873C60.6853 72.7424 61.0016 73.3702 61.8899 73.9682Z" fill="#BB1F26"/>
<path d="M42.4937 41.0507C41.8959 40.8444 41.3174 40.6872 40.7724 40.45C39.366 39.8377 38.2862 38.84 37.6203 37.4595C37.3477 36.8949 37.0032 36.7583 36.4247 36.7609C32.419 36.7815 28.412 36.7725 24.405 36.7712C21.546 36.7699 19.7848 35.0182 19.7822 32.1669C19.7796 29.0514 19.7809 25.9372 19.7822 22.8217C19.7822 22.6078 19.7642 22.3848 19.8131 22.1811C19.9378 21.6552 20.281 21.36 20.8325 21.4038C21.3493 21.4451 21.6437 21.7557 21.6989 22.2752C21.7195 22.4673 21.7092 22.6619 21.7092 22.8552C21.7092 25.9707 21.7079 29.0849 21.7105 32.2004C21.7118 33.9187 22.6207 34.8377 24.3176 34.8377C28.4094 34.8403 32.5013 34.8558 36.5944 34.8287C37.8478 34.821 38.695 35.3082 39.2606 36.4438C40.118 38.1659 41.5476 39.0914 43.4784 39.1017C45.4389 39.112 46.8864 38.1762 47.758 36.4348C48.3133 35.3237 49.1335 34.8235 50.3625 34.83C54.4543 34.8519 58.5462 34.839 62.6393 34.8377C64.3992 34.8377 65.2836 33.9509 65.2836 32.1863C65.2849 26.6436 65.2849 21.1009 65.2836 15.5596C65.2836 13.8272 64.3992 12.9365 62.6791 12.9365C49.8881 12.9352 37.0983 12.9352 24.3073 12.9365C22.6348 12.9365 21.7169 13.8491 21.7105 15.5144C21.7067 16.3523 21.7234 17.1901 21.7002 18.028C21.6848 18.59 21.2876 18.9767 20.7785 18.9896C20.2707 19.0025 19.8143 18.6325 19.8002 18.0782C19.7732 16.9633 19.7115 15.8341 19.8413 14.732C20.1062 12.4918 21.8583 11.0068 24.1209 11.0043C30.5048 10.9965 36.8901 11.0017 43.274 11.0017C49.7223 11.0017 56.1718 11.0004 62.62 11.0017C65.488 11.0017 67.2106 12.7341 67.2119 15.6176C67.2132 21.1383 67.2145 26.6591 67.2119 32.1798C67.2106 35.0156 65.4675 36.7686 62.6534 36.7699C58.604 36.7725 54.5546 36.7789 50.5051 36.7596C49.9639 36.757 49.6721 36.9207 49.4176 37.4209C48.4766 39.2654 46.9558 40.3997 44.9542 40.9102C44.7665 40.9578 44.5146 41.1667 44.4811 41.3368C44.3384 42.0715 44.0209 42.4544 43.4681 42.4299C42.9141 42.4054 42.5978 42.0084 42.531 41.2595C42.5246 41.1783 42.5027 41.0983 42.4937 41.0507Z" fill="#BB1F26"/>
<path d="M43.4938 24.9392C38.7836 24.9392 34.0747 24.9392 29.3645 24.9392C29.1511 24.9392 28.9338 24.9508 28.723 24.9263C28.1805 24.8618 27.8656 24.5525 27.8501 23.9969C27.8347 23.4349 28.1599 23.1268 28.6832 23.0224C28.8696 22.9851 29.0675 23.0057 29.2604 23.0057C38.7656 23.0057 48.2708 23.0044 57.7761 23.007C57.9895 23.007 58.2119 22.9889 58.415 23.0405C58.9073 23.1668 59.1966 23.5058 59.1683 24.0214C59.1413 24.5293 58.8469 24.8541 58.3288 24.9224C58.118 24.9508 57.902 24.9379 57.6874 24.9379C52.9553 24.9392 48.2246 24.9392 43.4938 24.9392Z" fill="#BB1F26"/>
<path d="M43.4771 17.6476C48.2079 17.6476 52.9386 17.6476 57.6681 17.6489C57.9239 17.6489 58.2466 17.578 58.4214 17.7031C58.721 17.9157 59.0578 18.2251 59.1426 18.5551C59.2583 18.9998 58.9652 19.3878 58.4857 19.5102C58.2209 19.5773 57.9342 19.5785 57.6578 19.5785C48.2182 19.5811 38.7785 19.5811 29.3388 19.5811C28.2808 19.5811 27.8412 19.2911 27.8438 18.6028C27.8463 17.9145 28.2641 17.6489 29.3478 17.6489C34.0593 17.6463 38.7682 17.6476 43.4771 17.6476Z" fill="#BB1F26"/>
<path d="M43.555 30.3211C41.0726 30.3211 38.589 30.3237 36.1066 30.3173C35.8546 30.316 35.586 30.3044 35.3533 30.2193C34.9201 30.0633 34.6552 29.6779 34.7992 29.2616C34.9136 28.9316 35.2569 28.6661 35.541 28.4211C35.6438 28.3335 35.8714 28.3876 36.0423 28.3876C41.0084 28.3863 45.9744 28.3863 50.9404 28.3876C51.1114 28.3876 51.2862 28.3786 51.4533 28.4083C51.938 28.4933 52.2825 28.8285 52.2272 29.2809C52.1861 29.6199 51.884 29.9628 51.6166 30.2219C51.4829 30.3508 51.1705 30.3173 50.9391 30.3173C48.4786 30.3224 46.0168 30.3211 43.555 30.3211Z" fill="#BB1F26"/>
</svg>
