<svg width="88" height="88" viewBox="0 0 88 88" fill="none" xmlns="http://www.w3.org/2000/svg">
<path d="M61.1827 71.2805C59.0954 71.2805 57.118 71.2805 55.1406 71.2805C54.5181 71.2805 54.0419 71.8521 54.1518 72.5001C54.5546 75.0539 54.9575 77.6458 55.3603 80.1996C55.3969 80.3139 55.3968 80.4282 55.3968 80.6188C54.6644 80.7332 53.9687 80.8857 53.1997 81C52.8335 78.713 52.4673 76.5024 52.1011 74.1392C51.8448 74.3679 51.6617 74.5203 51.5152 74.7109C49.9772 76.3118 48.4759 77.9126 46.9013 79.4754C45.5464 80.8476 43.6787 81.1525 41.9943 80.3521C40.383 79.5517 39.3577 77.8364 39.4676 75.9687C39.5408 74.7108 40.0535 73.6818 40.8958 72.8051C42.507 71.1661 44.1182 69.4889 45.8027 67.7356C39.0282 67.7356 32.3635 67.7356 25.5524 67.7356C24.8566 72.0808 24.1609 76.4642 23.4285 80.9238C22.6962 80.8095 21.9637 80.6951 21.1947 80.5808C21.6708 77.4553 22.1834 74.406 22.6595 71.2805C20.2426 71.2805 17.899 71.2805 15.4822 71.2805C15.4822 74.406 15.4822 77.5314 15.4822 80.7332C14.6766 80.7332 13.9442 80.7332 13.1752 80.7332C13.1752 77.6077 13.1752 74.4821 13.1752 71.3185C12.2231 71.1279 11.9667 70.48 12.0033 69.5652C12.0766 66.859 11.8936 64.0766 12.1865 61.4085C12.6992 56.2247 15.2625 52.3368 19.5469 49.6687C19.9131 49.44 20.1694 49.2494 20.0596 48.7158C19.9497 48.1059 20.3525 47.6485 20.9018 47.4961C22.4032 47.0768 23.9412 46.6575 25.4792 46.3145C25.7722 46.2382 26.175 46.3526 26.3947 46.5432C26.7242 46.8481 26.9805 46.8481 27.3467 46.6957C28.5551 46.2764 29.7636 45.8953 30.972 45.5522C31.3749 45.4379 31.448 45.2473 31.4847 44.828C31.5945 43.5702 31.265 42.7316 30.2763 41.893C29.1411 40.9782 28.3355 39.6062 27.42 38.4246C27.1637 38.0815 26.9805 37.929 26.5777 37.929C25.9552 37.929 25.3327 37.929 24.7468 37.8147C23.0257 37.4335 21.8906 36.29 21.3779 34.5367C20.8652 32.7452 21.3046 31.1444 22.5863 29.8485C22.9891 29.4292 23.0989 29.1242 22.9158 28.5906C22.037 25.8462 22.3299 23.1019 22.806 20.3575C23.0257 19.0235 23.1721 17.6894 23.4651 16.3934C24.7101 10.9429 29.3608 7.05506 34.7438 7.01694C37.0874 6.97882 39.431 7.01694 41.738 7.01694C47.7435 7.05506 52.6138 11.4765 53.456 17.6513C53.6757 19.2141 53.8955 20.7769 54.1518 22.3396C54.4814 24.4741 54.0786 26.5323 53.7124 28.5906C53.6025 29.1242 53.6758 29.4292 54.0786 29.8103C55.4335 31.1063 55.8363 33.1645 55.1771 34.956C54.518 36.7474 52.8701 38.0434 51.0392 37.929C49.904 37.8909 49.3548 38.3102 48.7323 39.225C47.89 40.4447 46.7548 41.5119 45.7295 42.541C45.3999 42.8841 45.1436 43.1128 45.1802 43.6464C45.2168 44.2182 45.1802 44.7899 45.1802 45.3997C46.6816 45.8952 48.1463 46.3526 49.6111 46.81C49.7209 46.8481 49.9406 46.7719 50.0505 46.6957C50.4899 46.2383 50.9659 46.2383 51.5152 46.3908C52.8335 46.7719 54.1519 47.0768 55.4701 47.4199C56.4222 47.6867 56.6419 47.9916 56.6053 48.9826C56.6053 49.1351 56.6785 49.3638 56.825 49.44C57.1546 49.7068 57.5574 49.8974 57.9602 50.1642C58.1067 49.7449 58.2166 49.4019 58.3264 49.0208C59.8278 44.5993 64.2586 41.9693 68.6895 42.8841C69.2754 42.9984 69.8247 43.1509 70.0444 43.837C70.2275 44.523 69.8614 44.9423 69.422 45.3997C68.3966 46.4289 67.4078 47.5342 66.3825 48.5253C65.9797 48.9064 65.9065 49.2494 66.053 49.7449C66.2727 50.4691 66.3825 51.1934 66.6022 51.8795C66.6755 52.1463 66.9685 52.4512 67.2248 52.5274C67.9572 52.7942 68.7262 52.9848 69.4952 53.1373C69.7515 53.1754 70.1543 53.0991 70.3374 52.9086C71.3994 51.8413 72.4613 50.7359 73.4866 49.6687C73.8894 49.2494 74.3289 48.8302 74.988 49.0208C75.6471 49.2114 75.7936 49.8212 75.9035 50.3929C77.1851 57.0251 71.4725 62.933 65.1008 61.5608C64.9544 61.5227 64.7714 61.4847 64.6249 61.4847C64.6249 64.229 64.6249 66.9733 64.6249 69.6796C64.6249 70.7468 64.4784 70.9755 63.4897 71.3567C63.4897 74.4822 63.4897 77.6077 63.4897 80.7713C62.7207 80.7713 62.0248 80.7713 61.2192 80.7713C61.1826 77.6458 61.1827 74.4822 61.1827 71.2805ZM28.2988 28.6668C27.2003 33.8124 28.9579 38.577 32.9494 41.1308C36.6479 43.4939 41.4817 43.1509 44.814 40.254C48.183 37.3572 49.2815 32.9358 48.2195 28.6287C41.5915 26.7992 34.9635 26.7991 28.2988 28.6668ZM66.2727 45.3235C61.915 45.5903 59.0221 50.0498 60.3404 54.2807C60.6334 55.2717 60.4503 55.8816 59.7911 56.5677C54.1152 62.4375 48.4758 68.3455 42.7999 74.2154C42.5802 74.4441 42.3605 74.6727 42.1774 74.9014C41.6648 75.6256 41.5549 76.388 41.9577 77.1884C42.3605 77.9888 42.983 78.37 43.8619 78.37C44.5943 78.37 45.1069 77.9508 45.583 77.4552C51.3322 71.471 57.0814 65.4869 62.7939 59.5027C63.4165 58.8547 64.0023 58.6641 64.8811 58.969C68.9824 60.3793 73.4501 57.2538 73.6698 52.6799C72.7909 53.6328 72.0584 54.4332 71.2894 55.2336C70.8866 55.691 70.4107 55.8435 69.7882 55.6529C68.4333 55.2718 67.0783 54.9287 65.7234 54.5857C65.0643 54.4332 64.698 54.052 64.5516 53.3659C64.2586 51.9938 63.9291 50.6216 63.5629 49.2495C63.3432 48.4872 63.5262 47.9535 64.0755 47.458C64.8079 46.81 65.5403 46.0477 66.2727 45.3235ZM24.8933 21.6916C27.4566 21.158 29.9833 20.6244 32.5833 20.0526C32.5833 19.9383 32.5833 19.6715 32.5833 19.4428C32.5833 18.1468 32.5833 16.8128 32.5833 15.5168C32.5833 14.6783 32.9861 14.1828 33.7185 14.1828C36.7578 14.1446 39.8338 14.1446 42.8732 14.1828C43.6056 14.1828 44.0084 14.6783 44.0084 15.5168C44.0084 16.7747 44.0084 18.0325 44.0084 19.3284C44.0084 19.6334 44.0084 19.9382 44.0084 20.0907C46.645 20.6624 49.1717 21.1961 51.6984 21.7298C51.5153 20.51 51.3321 19.2141 51.149 17.9182C50.4166 13.0012 46.5717 9.45638 41.7746 9.41826C39.3577 9.38015 36.9775 9.38015 34.5606 9.41826C31.5945 9.4945 29.1777 10.8667 27.3102 13.268C25.3693 15.7455 25.3693 18.7948 24.8933 21.6916ZM23.0257 68.8792C23.1722 68.0406 23.2821 67.2783 23.4285 66.4778C23.5018 66.1729 23.6116 65.7917 23.8313 65.6393C24.2341 65.3725 24.1609 65.0675 24.0877 64.6864C23.0257 60.608 22.0004 56.5676 20.975 52.4892C20.9018 52.2224 20.8285 51.9938 20.7187 51.6888C20.4623 51.8413 20.2793 51.9175 20.0962 52.0319C17.1667 54.052 15.1527 56.8346 14.6034 60.4556C14.2006 63.1618 14.3837 65.9442 14.2738 68.6885C14.2738 68.7266 14.3104 68.7648 14.347 68.841C17.2399 68.8791 20.0962 68.8792 23.0257 68.8792ZM49.2449 49.2113C49.135 49.1732 49.0252 49.1351 48.9153 49.097C48.2562 50.3167 47.6337 51.5364 46.9745 52.7942C45.9492 54.7381 44.9604 56.682 43.9351 58.5878C43.4224 59.5788 42.5436 59.6551 41.8479 58.7785C41.5549 58.4354 41.2986 58.0542 41.0056 57.6731C40.5296 57.0251 40.0168 56.4153 39.4676 55.6911C39.4676 58.969 39.4676 62.1326 39.4676 65.2963C41.445 65.2963 43.3859 65.2963 45.3999 65.2963C46.6816 59.9219 47.9632 54.5476 49.2449 49.2113ZM37.124 65.2963C37.124 62.0945 37.124 58.969 37.124 55.6911C36.3184 56.7202 35.6226 57.635 34.8902 58.5498C33.9747 59.7314 33.1691 59.6551 32.51 58.3591C31.0086 55.5004 29.5073 52.6417 28.0059 49.7449C27.8961 49.5162 27.7495 49.3257 27.6031 49.0208C27.3833 49.5925 30.7523 64.1528 31.3016 65.2963C33.2058 65.2963 35.11 65.2963 37.124 65.2963ZM25.5891 24.1691C26.7242 25.8081 28.189 26.3037 30.0566 25.8844C31.7044 25.5032 33.4255 25.2364 35.11 25.0458C38.9916 24.6265 42.8731 24.9695 46.6815 25.9224C48.5124 26.3798 49.8674 25.7319 50.966 24.2073C46.352 21.8441 30.496 21.8059 25.5891 24.1691ZM24.8933 48.9064C24.051 49.1351 23.3186 49.3256 22.5496 49.5162C23.9045 54.8143 25.2594 60.0362 26.5777 65.2581C27.3467 65.2581 28.0425 65.2581 28.8115 65.2581C27.4933 59.8075 26.2116 54.3951 24.8933 48.9064ZM47.7801 65.2581C47.8168 65.2962 47.89 65.3343 47.9266 65.3724C48.1097 65.22 48.2928 65.1057 48.4392 64.9532C48.9885 64.3815 49.5745 63.8479 50.0871 63.1999C50.4167 62.8188 50.7096 62.3232 50.8561 61.8277C51.2589 60.4555 51.5884 59.0452 51.9546 57.6731C52.6504 54.9668 53.3462 52.2605 54.0419 49.5162C53.2363 49.3256 52.504 49.097 51.6984 48.9064C50.3801 54.4333 49.0984 59.8456 47.7801 65.2581ZM42.7634 44.2181C39.7606 45.3616 36.7578 45.3616 33.6818 44.18C33.7184 44.8661 33.572 45.5522 33.8283 45.9714C35.0001 47.8772 36.538 49.44 38.4422 50.8503C39.6507 49.5924 40.8225 48.3347 41.9943 47.0768C42.7267 46.3145 43.0929 45.3997 42.7634 44.2181ZM34.8902 20.0526C37.1972 20.0526 39.431 20.0526 41.6647 20.0526C41.6647 18.8711 41.6647 17.6894 41.6647 16.5841C39.3943 16.5841 37.1606 16.5841 34.8902 16.5841C34.8902 17.7276 34.8902 18.8711 34.8902 20.0526ZM42.69 56.0341C44.0449 53.4422 45.3632 50.9265 46.6815 48.3728C45.9857 48.1441 45.3633 47.9154 44.7042 47.7629C44.5577 47.7248 44.2647 47.8773 44.1549 48.0297C43.4225 48.8683 42.7633 49.7449 42.0309 50.5072C41.4084 51.1933 40.676 51.8032 39.9436 52.4512C40.8591 53.6709 41.738 54.8144 42.69 56.0341ZM29.8734 48.4109C31.2283 50.9647 32.5466 53.4803 33.8649 56.0341C34.817 54.7763 35.6959 53.6709 36.4649 52.6417C35.0368 51.0409 33.6453 49.4781 32.2537 47.9154C32.1439 47.801 31.8875 47.7248 31.7044 47.7629C31.1551 47.9535 30.5692 48.1822 29.8734 48.4109ZM62.2812 63.7335C60.6334 65.4487 58.9855 67.1639 57.3743 68.841C58.9489 68.841 60.6334 68.841 62.2812 68.841C62.2812 67.0877 62.2812 65.3344 62.2812 63.7335ZM53.9687 58.969C54.0054 59.0071 54.042 59.0071 54.0786 59.0452C54.2617 58.8927 54.4081 58.7404 54.5912 58.5498C55.5799 57.5206 56.5686 56.4914 57.5573 55.4623C58.0334 54.9668 58.1067 53.4041 57.594 52.9467C57.0813 52.4893 56.4954 52.1081 55.8729 51.6507C55.2138 54.1663 54.5913 56.5677 53.9687 58.969ZM25.6256 30.8394C24.3073 30.8775 23.3186 32.021 23.4651 33.4313C23.6116 34.8034 24.82 35.7183 26.1017 35.4896C25.9186 33.9268 25.7721 32.4022 25.6256 30.8394ZM50.5266 35.5277C51.442 35.6421 52.211 35.3371 52.7603 34.4985C53.2729 33.7362 53.3095 32.8596 52.8701 32.0591C52.4307 31.2587 51.8082 30.8394 50.966 30.8394C50.8195 32.4022 50.673 33.965 50.5266 35.5277ZM25.1862 28.4381C25.4791 28.4 25.7356 28.4 25.9553 28.3619C26.1017 27.6377 25.9186 27.4472 24.8566 26.9898C24.9665 27.4853 25.0763 27.9426 25.1862 28.4381ZM51.4054 28.4C51.4786 27.9045 51.5518 27.4853 51.6251 27.1041C51.1857 27.4853 50.2336 27.4471 50.6364 28.4C50.8927 28.4 51.1124 28.4 51.4054 28.4Z" fill="#B92025"/>
</svg>
