<svg width="88" height="88" viewBox="0 0 88 88" fill="none" xmlns="http://www.w3.org/2000/svg">
<path d="M54.3466 60.2908C42.0686 69.0172 26.0304 65.9592 17.5701 55.0228C9.33505 44.3764 10.3293 29.2031 19.9024 19.7101C29.3874 10.3052 44.5364 9.41819 54.9445 17.5238C65.815 25.9907 68.9722 41.9764 60.3171 54.2833C60.4763 54.4512 60.6423 54.6327 60.8168 54.8073C65.4272 59.4224 70.046 64.0307 74.648 68.6543C76.5348 70.5505 76.4281 73.4152 74.4447 75.0536C72.8729 76.3528 70.6456 76.3698 69.0603 75.0875C68.7977 74.8755 68.5572 74.633 68.3184 74.3938C63.8096 69.8856 59.3025 65.3757 54.8005 60.8624C54.6346 60.6996 54.5075 60.4977 54.3466 60.2908ZM63.1846 38.7386C63.2456 25.2037 52.309 14.1842 38.7522 14.1232C25.2462 14.0621 14.2368 25.0053 14.1453 38.5808C14.0539 52.0783 25.026 63.1555 38.5608 63.2285C52.1159 63.3031 63.1237 52.3548 63.1846 38.7386ZM64.1806 67.2584C66.1504 69.2241 68.0948 71.1696 70.0426 73.1099C71.0521 74.1157 72.358 74.1801 73.2438 73.2761C74.111 72.3925 74.045 71.0983 73.0694 70.1163C71.2791 68.315 69.4803 66.524 67.6934 64.7193C67.5325 64.5565 67.436 64.3292 67.3242 64.1562C66.2046 65.2587 65.2273 66.2238 64.1806 67.2584ZM62.7104 59.8753C61.7483 60.837 60.7693 61.8156 59.8987 62.684C60.8218 63.6135 61.7957 64.5972 62.7053 65.5131C63.6182 64.5989 64.5871 63.6287 65.522 62.6925C64.5921 61.7596 63.625 60.7912 62.7104 59.8753ZM58.1288 61.0575C59.0942 60.0924 60.0766 59.112 60.9946 58.1961C60.3273 57.4991 59.6277 56.7697 59.0366 56.154C58.0458 57.1191 57.0566 58.0825 56.0607 59.0527C56.7348 59.7057 57.4462 60.396 58.1288 61.0575Z" fill="#B92025"/>
<path d="M61.0583 38.6902C61.0396 51.1022 50.9991 61.1279 38.6279 61.0838C26.2245 61.0414 16.2483 51.0005 16.2872 38.5986C16.3262 26.229 26.3566 16.2458 38.7193 16.2696C51.0821 16.2933 61.0769 26.3257 61.0583 38.6902ZM50.4367 49.3587C52.1034 49.3587 53.7091 49.3434 55.3131 49.3688C55.7246 49.3756 55.9567 49.2535 56.1633 48.8922C58.7006 44.4417 59.5593 39.6858 58.5329 34.6722C55.5756 20.2469 39.1106 13.6508 27.0477 22.021C18.4535 27.9828 15.8604 39.8538 21.1703 48.8617C21.3939 49.2416 21.6344 49.3773 22.0697 49.3688C23.4874 49.3417 24.9067 49.3587 26.3244 49.3587C26.5243 49.3587 26.7241 49.3587 26.9054 49.3587C26.9054 44.8827 26.9054 40.5118 26.9054 36.0833C26.6869 36.2156 26.5344 36.3242 26.3685 36.4056C25.8705 36.6515 25.3251 36.5175 25.0168 36.0816C24.7001 35.6356 24.7526 35.0996 25.1608 34.6993C25.2811 34.5823 25.4233 34.4856 25.5588 34.3839C29.6052 31.3445 33.6516 28.3067 37.698 25.269C38.555 24.6262 38.7955 24.6211 39.6611 25.2707C43.5906 28.2186 47.5167 31.1698 51.4428 34.121C51.6969 34.3109 51.9611 34.4924 52.1898 34.7112C52.5844 35.0894 52.6301 35.6848 52.3253 36.1003C52.0153 36.5243 51.4564 36.6515 50.9635 36.4039C50.8026 36.3225 50.6468 36.2275 50.4367 36.1105C50.4367 40.5441 50.4367 44.9064 50.4367 49.3587ZM48.2535 49.34C48.2636 49.1585 48.2772 49.0347 48.2772 48.9126C48.2789 44.2297 48.2857 39.5451 48.2603 34.8622C48.2586 34.606 48.057 34.2702 47.8436 34.1074C45.8788 32.5996 43.8921 31.1223 41.9121 29.6348C40.8348 28.8258 39.7559 28.0167 38.6719 27.2026C35.6147 29.4991 32.6083 31.7685 29.5866 34.0158C29.2258 34.2838 29.0751 34.5501 29.0768 35.0046C29.0937 39.5603 29.0869 44.1177 29.0869 48.6734C29.0869 48.8804 29.0869 49.0856 29.0869 49.3247C30.1743 49.3247 31.1974 49.3247 32.2814 49.3247C32.2814 49.0635 32.2814 48.8346 32.2814 48.6073C32.2814 45.7036 32.2763 42.7999 32.2831 39.8962C32.2864 38.4867 33.1282 37.6387 34.529 37.6268C35.7993 37.6166 37.0679 37.6234 38.3382 37.6251C39.9947 37.6285 40.7993 38.4256 40.801 40.0675C40.8026 42.9288 40.801 45.7901 40.801 48.6514C40.801 48.8753 40.801 49.0992 40.801 49.34C43.3213 49.34 45.7518 49.34 48.2535 49.34ZM23.1825 51.5144C23.1605 51.5687 23.1368 51.6229 23.1148 51.6755C27.754 56.9402 33.5737 59.4657 40.6096 58.8466C46.1329 58.3615 50.662 55.8479 54.3358 51.5127C43.8396 51.5144 33.511 51.5144 23.1825 51.5144ZM38.6346 39.7876C37.2254 39.7876 35.8467 39.7876 34.4511 39.7876C34.4511 42.9915 34.4511 46.1412 34.4511 49.3146C35.8637 49.3146 37.2458 49.3146 38.6346 49.3146C38.6346 46.1174 38.6346 42.9661 38.6346 39.7876Z" fill="#B92025"/>
</svg>
