<svg width="88" height="88" viewBox="0 0 88 88" fill="none" xmlns="http://www.w3.org/2000/svg">
<path d="M38.8134 42.9216C39.5426 42.9216 40.179 42.9216 40.8859 42.9216C40.8859 36.7446 40.8859 30.5831 40.8859 24.3888C44.3447 24.3888 47.733 24.3888 51.1816 24.3888C51.1816 25.3598 51.1816 26.3394 51.1816 27.4446C51.4309 27.2949 51.5857 27.2105 51.7302 27.1124C61.2433 20.6324 74.069 26.2051 75.825 37.583C76.9654 44.9651 72.4264 52.2869 65.2748 54.5594C64.7829 54.7161 64.6092 54.902 64.6127 55.4339C64.6195 56.2362 64.494 57.0385 64.4097 58.0043C65.5844 58.7841 65.6997 60.1579 65.6773 61.6333C65.6326 64.7304 65.6808 67.831 65.655 70.9281C65.6378 73.0628 64.2721 74.9497 62.289 75.6814C60.2973 76.4165 58.0579 75.8552 56.6458 74.2524C55.7704 73.2591 55.3456 72.0919 55.3456 70.768C55.3456 67.8637 55.3456 64.9577 55.3456 62.0534C55.3456 61.8175 55.3456 61.5834 55.3456 61.1582C54.5527 63.1208 53.2455 63.8834 51.2504 63.4823C51.025 64.6116 50.7894 65.7393 50.5779 66.8721C50.2029 68.8725 49.0953 69.8039 47.0588 69.8039C38.8254 69.8039 30.592 69.8039 22.3586 69.8039C20.317 69.8039 19.2111 68.8777 18.8361 66.879C18.6263 65.7617 18.3975 64.6495 18.1671 63.4857C18.0209 63.5012 17.8987 63.503 17.7818 63.5271C16.3972 63.8128 15.0213 63.1466 14.3935 61.883C13.776 60.6417 14.0564 59.156 15.0832 58.2263C15.1468 58.1678 15.2087 58.1024 15.2827 58.0645C16.4093 57.4809 16.5107 56.6683 16.1151 55.4959C15.4168 53.4249 14.9095 51.2918 14.3264 49.2001C12.5738 48.966 12.0045 48.3049 12.0045 46.5455C12.0045 46.029 11.9924 45.5125 12.0079 44.9961C12.044 43.8323 12.9023 42.9818 14.0718 42.9525C14.734 42.9353 15.3962 42.9491 16.1048 42.9491C16.1048 39.506 16.1048 36.1145 16.1048 32.6713C19.5551 32.6713 22.9588 32.6713 26.4331 32.6713C26.4331 36.0628 26.4331 39.4698 26.4331 42.913C27.14 42.913 27.7764 42.913 28.4833 42.913C28.4833 38.1408 28.4833 33.3565 28.4833 28.5309C31.9576 28.5309 35.3597 28.5309 38.8117 28.5309C38.8134 33.3117 38.8134 38.0788 38.8134 42.9216ZM39.8677 67.7242C39.8677 65.9786 39.8539 64.2845 39.8711 62.5905C39.8901 60.8276 41.266 59.4676 42.9843 59.4762C44.6715 59.4865 46.0303 60.8397 46.0544 62.5681C46.075 64.0745 46.0578 65.5792 46.0613 67.0855C46.0613 67.2921 46.0785 67.4987 46.0905 67.7363C46.4895 67.7363 46.8318 67.738 47.1741 67.7363C48.0547 67.7294 48.3488 67.4815 48.5225 66.6035C48.7736 65.3399 49.0007 64.0694 49.2879 62.8126C49.3997 62.3237 49.2776 62.0431 48.8923 61.7315C44.7472 58.3796 40.6159 55.0104 36.4914 51.6344C36.0614 51.2815 35.6693 51.013 35.0587 51.1765C34.7233 51.266 34.3346 51.1386 33.9717 51.1541C33.7567 51.1627 33.4987 51.2006 33.3422 51.3263C28.9993 54.8452 24.6668 58.3727 20.3445 61.9174C20.1932 62.0413 20.0865 62.3547 20.1209 62.5526C20.3652 63.9712 20.6472 65.3829 20.9259 66.7946C21.0273 67.3076 21.3197 67.6709 21.8598 67.7174C22.3431 67.7587 22.8316 67.726 23.2942 67.726C23.3269 67.6141 23.3493 67.5745 23.3493 67.5349C23.3527 65.8994 23.3458 64.2656 23.3613 62.6301C23.3768 60.8552 24.7218 59.4831 26.4331 59.4728C28.1737 59.4624 29.5325 60.8397 29.548 62.6508C29.56 64.1348 29.5514 65.6188 29.5514 67.1045C29.5514 67.3076 29.5514 67.5108 29.5514 67.6967C30.2927 67.6967 30.9308 67.6967 31.6154 67.6967C31.6154 67.4264 31.6154 67.1957 31.6154 66.9633C31.6154 64.2105 31.6068 61.456 31.624 58.7032C31.6274 58.259 31.6773 57.7925 31.82 57.3759C32.2965 55.9848 33.7773 55.1292 35.1929 55.3737C36.6824 55.6302 37.7866 56.8663 37.7986 58.3796C37.8227 61.2615 37.8072 64.1451 37.8072 67.027C37.8072 67.2525 37.8072 67.4798 37.8072 67.7191C38.521 67.7242 39.1419 67.7242 39.8677 67.7242ZM60.5312 53.2768C67.9184 53.2665 73.9331 47.2238 73.9228 39.8245C73.9107 32.4286 67.8771 26.4117 60.4831 26.422C53.0941 26.4323 47.0829 32.4716 47.0932 39.8744C47.1018 47.2651 53.1389 53.2871 60.5312 53.2768ZM63.6031 65.8116C63.6031 64.1348 63.6065 62.4562 63.6013 60.7794C63.5979 59.8463 63.2419 59.4831 62.3251 59.4779C61.1212 59.471 59.9189 59.4728 58.7149 59.4779C57.7621 59.4814 57.4129 59.8394 57.4129 60.8173C57.4095 64.0866 57.4078 67.3558 57.4129 70.6251C57.4164 72.5412 58.7425 73.9443 60.5261 73.9357C62.2839 73.9271 63.5945 72.5309 63.6013 70.6526C63.6082 69.0378 63.6031 67.4247 63.6031 65.8116ZM36.7374 41.2327C36.7374 37.688 36.7374 34.1502 36.7374 30.5934C34.6769 30.5934 32.6491 30.5934 30.6126 30.5934C30.6126 34.6873 30.6126 38.7416 30.6126 42.8269C32.3463 41.0898 34.056 40.4236 36.7374 41.2327ZM43.0083 26.4478C43.0083 31.9758 43.0083 37.4435 43.0083 42.9061C43.7961 42.9061 44.5357 42.9061 45.2787 42.9061C45.2787 42.7787 45.2907 42.6926 45.277 42.6082C44.4686 37.7035 45.7069 33.3754 48.9233 29.6C49.0282 29.4778 49.1382 29.3091 49.1417 29.1593C49.1623 28.2641 49.152 27.3672 49.152 26.4461C47.0726 26.4478 45.0602 26.4478 43.0083 26.4478ZM24.3589 34.7303C22.2812 34.7303 20.2551 34.7303 18.2462 34.7303C18.2462 37.4934 18.2462 40.2084 18.2462 42.913C20.3084 42.913 22.319 42.913 24.3589 42.913C24.3589 40.1774 24.3589 37.4762 24.3589 34.7303ZM37.9259 50.1453C38.0927 50.2847 38.2699 50.4362 38.4487 50.5826C40.2633 52.0631 42.0796 53.5419 43.8941 55.0208C46.3915 57.0574 48.8837 59.1009 51.3965 61.1186C51.6597 61.3303 52.0794 61.5507 52.3597 61.4853C52.6934 61.4061 53.0649 61.0755 53.218 60.757C53.4364 60.3026 53.1406 59.9118 52.757 59.6001C48.5741 56.1966 44.3963 52.7879 40.2169 49.3792C39.8883 49.1123 39.5581 48.8472 39.2434 48.5924C38.7841 49.1347 38.3696 49.6236 37.9259 50.1453ZM30.1775 48.6079C30.0244 48.7215 29.8679 48.8283 29.7217 48.9488C25.3754 52.4935 21.0308 56.0382 16.6862 59.5829C16.0825 60.0753 15.9672 60.6417 16.3577 61.1375C16.7636 61.6523 17.3707 61.6574 17.9968 61.1478C22.3448 57.6066 26.6929 54.0653 31.0409 50.5223C31.1991 50.3932 31.3436 50.2469 31.4795 50.1246C31.0409 49.615 30.6384 49.145 30.1775 48.6079ZM29.6357 45.0598C24.4277 45.0598 19.2644 45.0598 14.0994 45.0598C14.0994 45.7432 14.0994 46.3802 14.0994 47.0241C14.1854 47.0464 14.2456 47.074 14.304 47.074C19.0081 47.0774 23.7122 47.0809 28.4163 47.0705C28.6123 47.0705 28.817 46.9621 29.001 46.8726C29.818 46.4801 29.4534 45.6916 29.6357 45.0598ZM16.4677 49.1674C17.0646 51.3211 17.6493 53.4318 18.2599 55.6302C20.9207 53.4593 23.5006 51.3555 26.1838 49.1674C22.8625 49.1674 19.7064 49.1674 16.4677 49.1674ZM34.7199 42.9491C33.0326 42.9439 31.6343 44.316 31.6136 45.9997C31.593 47.7161 32.9844 49.1364 34.6941 49.1433C36.3796 49.1502 37.7814 47.7729 37.802 46.091C37.8227 44.3763 36.4295 42.956 34.7199 42.9491ZM43.201 49.145C45.9357 51.3762 48.5225 53.4851 51.1489 55.6285C51.4 54.7402 51.6442 53.9603 51.8265 53.1666C51.8695 52.9773 51.7663 52.6743 51.6219 52.5331C50.5538 51.4812 49.4633 50.4534 48.3677 49.4308C48.2267 49.2983 48.0203 49.1605 47.8414 49.1571C46.3622 49.1364 44.8796 49.145 43.201 49.145ZM35.7398 67.726C35.7398 67.2663 35.7398 66.8635 35.7398 66.4606C35.7398 63.8197 35.745 61.1771 35.7347 58.5362C35.7312 57.8476 35.2789 57.3931 34.6752 57.4138C34.0955 57.4327 33.7068 57.87 33.6759 58.5362C33.6741 58.5793 33.6741 58.6223 33.6741 58.6653C33.6741 61.5438 33.6741 64.4206 33.6776 67.299C33.6776 67.4402 33.7137 67.5814 33.7343 67.7277C34.3965 67.726 35.0174 67.726 35.7398 67.726ZM53.8045 53.838C53.5482 54.7453 53.3091 55.656 53.0271 56.5547C52.9067 56.942 52.9944 57.1676 53.3177 57.4138C54.164 58.0576 55.06 58.6757 55.2613 59.7999C55.7446 59.1112 56.2021 58.4622 56.5925 57.9061C56.491 56.8405 56.3913 55.8075 56.2933 54.7763C55.49 54.475 54.6713 54.1651 53.8045 53.838ZM46.775 47.0792C46.4998 46.4146 46.2676 45.819 46.0045 45.2371C45.9581 45.1338 45.7843 45.0236 45.6674 45.0236C43.717 45.0098 41.7665 45.015 39.8127 45.015C39.9038 46.5007 39.8952 46.5128 40.4267 46.8743C40.5918 46.9862 40.812 47.0705 41.008 47.0723C42.9103 47.0843 44.8126 47.0792 46.775 47.0792ZM27.4823 67.7122C27.4823 65.9889 27.4909 64.3396 27.4789 62.6887C27.4737 61.988 27.0455 61.5404 26.44 61.5455C25.838 61.5524 25.4287 62.0017 25.4218 62.7076C25.4098 63.8438 25.4184 64.9818 25.4184 66.118C25.4184 66.6448 25.4184 67.1733 25.4184 67.7105C26.1408 67.7122 26.7771 67.7122 27.4823 67.7122ZM43.9939 67.7122C43.9939 65.9889 44.0025 64.3396 43.9904 62.6887C43.9853 61.9897 43.557 61.5404 42.9516 61.5472C42.3496 61.5541 41.942 62.0035 41.9334 62.711C41.9213 63.8473 41.9299 64.9852 41.9299 66.1215C41.9299 66.6483 41.9299 67.1768 41.9299 67.7139C42.6523 67.7122 43.2887 67.7122 43.9939 67.7122ZM62.547 55.2807C61.1538 55.2807 59.8192 55.2807 58.4432 55.2807C58.4432 55.5923 58.438 55.8902 58.4449 56.188C58.4604 57.0264 58.8302 57.3948 59.6712 57.4086C60.0359 57.4155 60.4005 57.4103 60.7651 57.4103C62.3974 57.4103 62.6089 57.1917 62.5694 55.5407C62.5676 55.4546 62.5539 55.372 62.547 55.2807Z" fill="#BF2D34"/>
<path d="M16.9301 31.3126C16.4124 30.7583 15.9772 30.2917 15.6074 29.8957C19.565 25.9344 23.5674 21.9283 27.6075 17.8861C29.5287 19.8177 31.5651 21.8663 33.5586 23.8702C36.8764 20.5493 40.1185 17.3059 43.3709 14.0487C41.9124 14.0487 40.4212 14.0487 38.8835 14.0487C38.8835 13.3445 38.8835 12.6921 38.8835 12C41.5976 12 44.3134 12 47.0602 12C47.0602 14.7252 47.0602 17.4281 47.0602 20.1775C46.4101 20.1775 45.7582 20.1775 45.0565 20.1775C45.0565 18.6797 45.0565 17.1819 45.0565 15.6601C41.2863 19.4337 37.5523 23.1713 33.8062 26.9226C31.6391 24.7517 29.6113 22.7151 27.5645 20.6647C23.9888 24.2455 20.4714 27.7662 16.9301 31.3126Z" fill="#BF2D34"/>
<path d="M49.1563 39.8335C49.1631 33.5687 54.2714 28.478 60.5389 28.4883C66.7944 28.5003 71.8768 33.6237 71.8579 39.8972C71.839 46.1292 66.7393 51.2113 60.5062 51.2113C54.2473 51.213 49.1494 46.1017 49.1563 39.8335ZM51.2202 39.8059C51.2047 44.9207 55.3446 49.1196 60.4306 49.1454C65.5715 49.173 69.7785 45.0154 69.794 39.892C69.8095 34.7772 65.6695 30.58 60.5819 30.5542C55.4375 30.5284 51.2357 34.6808 51.2202 39.8059Z" fill="#BF2D34"/>
<path d="M55.3208 38.8633C55.3208 39.5416 55.3208 40.1768 55.3208 40.8483C54.6586 40.8483 54.0239 40.8483 53.3359 40.8483C53.3359 40.2147 53.3359 39.5622 53.3359 38.8633C53.9654 38.8633 54.6156 38.8633 55.3208 38.8633Z" fill="#BF2D34"/>
<path d="M57.4551 38.8477C58.1431 38.8477 58.7777 38.8477 59.4433 38.8477C59.4433 39.5139 59.4433 40.1492 59.4433 40.8344C58.8001 40.8344 58.1499 40.8344 57.4551 40.8344C57.4551 40.1939 57.4551 39.5432 57.4551 38.8477Z" fill="#BF2D34"/>
<path d="M61.5664 40.8483C61.5664 40.1803 61.5664 39.545 61.5664 38.8633C62.22 38.8633 62.8701 38.8633 63.5616 38.8633C63.5616 39.5123 63.5616 40.1631 63.5616 40.8483C62.9114 40.8483 62.2767 40.8483 61.5664 40.8483Z" fill="#BF2D34"/>
<path d="M67.6813 40.8606C67.014 40.8606 66.3793 40.8606 65.7051 40.8606C65.7051 40.1858 65.7051 39.535 65.7051 38.8516C66.3604 38.8516 66.995 38.8516 67.6813 38.8516C67.6813 39.4937 67.6813 40.1445 67.6813 40.8606Z" fill="#BF2D34"/>
</svg>
