<svg width="88" height="88" viewBox="0 0 88 88" fill="none" xmlns="http://www.w3.org/2000/svg">
<path d="M14 45.0987C14.1009 44.681 14.175 44.2539 14.3058 43.8457C15.2893 40.752 17.3936 38.9033 20.5617 38.2524C21.6005 38.038 22.6439 37.8363 23.7662 37.6125C23.7662 37.1807 23.7898 36.7536 23.752 36.3312C23.7394 36.1925 23.5991 36.0175 23.4683 35.9419C21.1576 34.618 19.9533 32.6338 19.8603 29.9734C19.8572 29.8773 19.8335 29.7827 19.8083 29.6188C19.4679 29.6188 19.1384 29.6299 18.8122 29.6172C17.6458 29.5715 16.7757 29.0215 16.2634 27.986C15.7622 26.9726 15.8316 25.9451 16.503 25.0278C16.7521 24.6874 16.7016 24.4463 16.6086 24.0838C16.3485 23.0609 16.0554 22.027 15.9844 20.9821C15.8631 19.1838 16.9806 17.6614 18.6845 17.1334C19.0407 17.0231 19.1841 16.834 19.3055 16.5235C19.9139 14.9695 21.2868 14.0192 22.9623 14.0144C25.976 14.0034 28.9897 13.9876 32.0034 14.016C37.2002 14.0649 40.7529 19.343 38.8552 24.1831C38.707 24.5629 38.7039 24.8324 38.934 25.1996C40.1225 27.0877 38.7906 29.54 36.5587 29.6172C36.2277 29.6283 35.8967 29.6188 35.542 29.6188C35.4742 30.1909 35.4506 30.7205 35.3466 31.2343C34.9273 33.2768 33.7987 34.8198 31.9955 35.8678C31.6409 36.0743 31.3808 37.3509 31.6567 37.6424C31.7528 37.7449 31.9341 37.7764 32.0822 37.819C33.2723 38.1625 34.4607 38.5124 35.6555 38.8387C37.2301 39.2673 38.5163 40.1168 39.5188 41.4045C40.0752 42.1184 40.6473 42.8182 41.2463 43.5668C41.3677 43.406 41.4748 43.2784 41.5663 43.1397C42.1258 42.3059 42.6791 41.4691 43.2402 40.6369C43.795 39.8127 44.2884 39.0309 44.3514 37.934C44.4428 36.3044 45.7542 35.0467 47.2989 34.7236C48.9366 34.3816 50.6436 35.1476 51.6067 36.6558C52.4689 38.0081 52.3853 39.6976 51.438 41.0357C49.6223 43.6062 47.827 46.1909 46.0254 48.7709C45.7669 49.1412 45.5257 49.5258 45.2688 49.8977C43.3584 52.6558 39.637 52.8339 37.4744 50.2681C37.1702 49.9072 36.8818 49.5337 36.5287 49.0955C36.4988 49.2957 36.4704 49.417 36.4657 49.54C36.2797 53.8457 36.7604 58.1089 37.238 62.3753C37.673 66.2476 38.0624 70.1246 38.4674 74.0017C38.4864 74.1767 38.4737 74.3547 38.4769 74.5313C35.2457 74.5313 32.0145 74.5313 28.7832 74.5313C28.747 74.3201 28.6934 74.1105 28.6745 73.8977C28.4018 70.9458 28.1338 67.9923 27.858 65.0419C27.8375 64.8197 27.7524 64.6022 27.6988 64.3831C27.5349 64.536 27.5065 64.6637 27.4939 64.7929C27.3394 66.4541 27.1802 68.1152 27.0384 69.7779C26.9028 71.3618 26.783 72.9458 26.6569 74.5297C23.3863 74.5297 20.1157 74.5297 16.8451 74.5297C17.3289 68.3343 17.8081 62.1373 18.3078 55.9434C18.3393 55.5605 18.1896 55.4391 17.8948 55.2925C15.945 54.3296 14.7109 52.7819 14.1797 50.6732C14.1277 50.4683 14.0662 50.265 14.0079 50.0616C14 48.4084 14 46.7535 14 45.0987ZM36.3411 72.5265C35.7595 66.9978 35.1795 61.5069 34.601 56.0112C29.7889 56.0112 25.0334 56.0112 20.2512 56.0112C19.8209 61.5352 19.3938 67.023 18.9619 72.5691C20.866 72.5691 22.6944 72.577 24.5212 72.5502C24.6394 72.5486 24.8443 72.2886 24.8553 72.1373C25.1406 68.153 25.7947 64.1956 25.7144 60.1861C25.7128 60.0947 25.749 60.0033 25.7664 59.9151C26.4016 59.9151 27.0037 59.9151 27.6752 59.9151C27.6752 60.4935 27.6531 61.0403 27.6878 61.5857C27.6988 61.7638 27.8091 62.0238 27.9494 62.0916C29.2498 62.7251 29.7447 63.811 29.8488 65.1901C30.0221 67.4864 30.2586 69.7779 30.4477 72.0742C30.4824 72.4919 30.6636 72.5849 31.0467 72.5801C32.6418 72.5628 34.2385 72.5738 35.8336 72.5707C35.9865 72.5707 36.1378 72.5455 36.3411 72.5265ZM18.0162 51.6456C18.1502 51.3713 18.2368 51.1491 18.3598 50.9521C18.7854 50.2791 18.9052 49.5557 18.8831 48.7614C18.8405 47.1665 18.8705 45.5699 18.8705 43.975C18.8705 43.7654 18.8705 43.5573 18.8705 43.354C19.5735 43.354 20.1898 43.354 20.8675 43.354C20.8675 45.3036 20.8675 47.2043 20.8675 49.0971C22.8315 49.0971 24.7324 49.0971 26.6806 49.0971C26.6806 48.1152 26.6806 47.1728 26.6806 46.2303C26.6806 45.2705 26.6806 44.3122 26.6806 43.3461C29.978 43.3461 33.1966 43.3461 36.4562 43.3461C36.4562 44.0364 36.4168 44.6873 36.472 45.3288C36.5019 45.6724 36.6296 46.0522 36.8329 46.3264C37.476 47.198 38.1711 48.0301 38.852 48.8717C40.2817 50.6401 42.4726 50.5392 43.7509 48.6448C44.4555 47.5999 45.149 46.5487 45.8472 45.5006C46.4998 44.5219 47.1508 43.5447 47.8191 42.5424C47.0278 41.9498 46.2744 41.3855 45.4784 40.7914C44.6477 42.0364 43.8691 43.2658 43.0258 44.4478C42.5278 45.146 42.1731 45.8457 42.3024 46.7283C42.3228 46.8702 42.2677 47.023 42.2472 47.1696C41.6009 47.1696 41.0004 47.1696 40.3605 47.1696C40.3605 46.8182 40.4078 46.4951 40.3479 46.1956C40.2754 45.8316 40.1902 45.4281 39.9774 45.1397C39.3139 44.235 38.6314 43.3383 37.8732 42.514C37.3767 41.9734 36.8061 41.3871 36.1473 41.1318C34.5805 40.525 32.9428 40.1026 31.4518 39.6424C30.9994 40.1042 30.6873 40.5219 30.2854 40.8166C29.2482 41.5762 26.1053 41.5889 25.0713 40.826C24.6252 40.4982 24.2832 40.0286 23.8576 39.5857C22.7858 39.8016 21.6367 39.9844 20.5145 40.2681C18.1943 40.8528 16.5897 42.3059 16.161 44.659C15.871 46.2445 15.9513 47.9135 16.0034 49.54C16.068 51.5148 17.4724 53.2579 19.378 53.7969C21.1292 54.2917 22.9292 53.9576 24.7072 54.0475C24.7072 53.0215 24.7072 52.0869 24.7072 51.1129C23.7599 51.1129 22.8488 51.1869 21.9551 51.094C20.8927 50.9836 20.1251 51.2074 19.8351 52.3375C19.8225 52.3879 19.7658 52.4273 19.7137 52.4919C19.1542 52.2129 18.612 51.9419 18.0162 51.6456ZM21.8069 25.6535C21.8069 26.9821 21.8243 28.2587 21.8038 29.5353C21.7691 31.7102 22.6739 33.3194 24.6126 34.3343C25.3644 34.7283 25.7207 35.3588 25.7128 36.2067C25.7065 36.9143 25.6986 37.6235 25.7159 38.3312C25.7317 38.9821 26.0895 39.3603 26.7389 39.3918C27.3473 39.4218 27.9589 39.4186 28.5689 39.3934C29.2545 39.3651 29.5997 38.9915 29.6123 38.2997C29.6234 37.6897 29.6391 37.0782 29.6092 36.4699C29.5587 35.4076 30.0095 34.7063 30.9521 34.1941C32.626 33.2863 33.4851 31.83 33.515 29.9167C33.5323 28.7567 33.5182 27.5952 33.5197 26.4336C33.5197 26.2067 33.5197 25.9797 33.5197 25.7087C30.64 25.8316 28.1212 25.0451 25.8893 23.2926C24.8159 24.5676 23.4888 25.3556 21.8069 25.6535ZM30.6211 21.7859C30.6211 21.1571 30.6211 20.5534 30.6211 19.9057C30.8071 19.9057 30.9616 19.8899 31.1129 19.9073C32.8956 20.1184 34.3094 21.001 34.9462 22.6511C35.3592 23.7228 35.9376 23.9214 36.9023 23.7764C36.9496 23.6803 37.0095 23.5779 37.052 23.4691C38.4737 19.9088 35.8651 16.0617 31.9199 15.9813C28.9677 15.9214 26.0123 15.9608 23.0585 15.9719C22.0119 15.9766 21.4145 16.4274 21.063 17.4029C20.97 17.6614 20.8628 17.9183 20.8013 18.1862C20.6878 18.6811 20.4782 18.908 19.8903 18.9033C18.6735 18.8923 17.8554 19.7749 17.9216 20.9916C17.9579 21.6708 18.136 22.3454 18.2747 23.0168C18.3897 23.5763 18.6608 23.9167 19.3292 23.7953C19.7295 23.7228 20.1535 23.7812 20.5665 23.7812C22.3602 23.7859 23.7567 23.0578 24.7324 21.5385C24.9925 21.1334 25.2714 20.741 25.4543 20.4731C26.6837 21.3273 27.8013 22.2335 29.037 22.9285C30.3169 23.6472 31.7701 23.8253 33.3306 23.7544C32.8104 22.4683 31.8647 21.9262 30.6211 21.7859ZM32.2635 54.0081C33.0185 54.0081 33.7183 54.0081 34.4402 54.0081C34.4402 51.0766 34.4402 48.1799 34.4402 45.2799C32.4889 45.2799 30.5896 45.2799 28.6776 45.2799C28.6776 46.5754 28.6776 47.8284 28.6776 49.0813C31.8269 49.1034 33.1509 51.7433 32.2635 54.0081ZM48.976 40.971C49.2928 40.5755 49.6175 40.2098 49.8981 39.8127C50.371 39.1444 50.3662 38.3296 49.9233 37.6598C49.4158 36.8938 48.5394 36.4699 47.7671 36.618C46.8213 36.7993 46.1499 37.6551 46.2287 38.6212C46.2429 38.7882 46.3595 38.9915 46.4935 39.0956C47.2973 39.7228 48.117 40.3264 48.976 40.971ZM26.6916 51.1271C26.6916 52.0349 26.6806 52.856 26.7042 53.6771C26.7074 53.8 26.8744 54.0207 26.9674 54.0207C27.8091 54.027 28.6571 54.0522 29.491 53.9545C30.1798 53.8725 30.6069 53.2043 30.5754 52.4872C30.5439 51.789 30.03 51.1775 29.3381 51.1381C28.4806 51.0908 27.6184 51.1271 26.6916 51.1271ZM19.8241 25.715C19.1637 25.7607 18.4339 25.5006 18.0619 26.2366C17.9295 26.4998 17.9421 26.9648 18.0918 27.2154C18.4875 27.8773 19.1763 27.6519 19.8241 27.6693C19.8241 26.9947 19.8241 26.3785 19.8241 25.715ZM35.5199 27.6693C36.1615 27.6519 36.8613 27.882 37.2349 27.2122C37.3893 26.9364 37.3736 26.41 37.2033 26.1436C36.8014 25.5101 36.1205 25.7339 35.5184 25.7481C35.5199 26.4132 35.5199 27.0136 35.5199 27.6693Z" fill="#BB1F26"/>
<path d="M40.3613 74.5295C40.3613 69.3522 40.3613 64.1765 40.3613 58.9582C42.9636 58.9582 45.5313 58.9582 48.1667 58.9582C48.1667 63.4846 48.1667 68.0015 48.1667 72.5421C48.8382 72.5421 49.4403 72.5421 50.1259 72.5421C50.1259 67.3443 50.1259 62.1781 50.1259 56.985C52.7598 56.985 55.3085 56.985 57.9203 56.985C57.9203 62.1702 57.9203 67.3207 57.9203 72.5232C58.5775 72.5232 59.1765 72.5232 59.8432 72.5232C59.8432 66.074 59.8432 59.6075 59.8432 53.0938C62.4771 53.0938 65.0431 53.0938 67.6439 53.0938C67.6581 53.2545 67.6817 53.4058 67.6817 53.5571C67.6833 60.4696 67.6833 67.3822 67.6817 74.2963C67.6817 74.3751 67.6722 74.4539 67.6691 74.5327C58.5665 74.5295 49.4639 74.5295 40.3613 74.5295ZM65.7051 72.5342C65.7051 66.6808 65.7051 60.8668 65.7051 55.048C64.4079 55.048 63.1564 55.048 61.8876 55.048C61.8876 60.8952 61.8876 66.7092 61.8876 72.5342C63.1816 72.5342 64.4316 72.5342 65.7051 72.5342ZM55.939 58.9551C54.6481 58.9551 53.3824 58.9551 52.1104 58.9551C52.1104 63.5051 52.1104 68.0173 52.1104 72.5437C53.4029 72.5437 54.6544 72.5437 55.939 72.5437C55.939 68.0015 55.939 63.4893 55.939 58.9551ZM42.341 60.881C42.341 64.8006 42.341 68.6493 42.341 72.5232C43.6367 72.5232 44.8992 72.5232 46.1602 72.5232C46.1602 68.6115 46.1602 64.7517 46.1602 60.881C44.8693 60.881 43.6351 60.881 42.341 60.881Z" fill="#BB1F26"/>
<path d="M72.5476 25.6852C72.5476 25.2612 72.576 24.8688 72.5429 24.4811C72.4183 23.039 71.2772 21.9121 69.8334 21.8333C69.0673 21.7908 68.295 21.7939 67.5289 21.8318C66.0016 21.9074 64.81 23.1572 64.7643 24.6891C64.7217 26.1548 65.803 27.4582 67.2925 27.6253C68.15 27.7214 69.0232 27.6631 69.8885 27.7041C72.5239 27.8286 74.5573 30.002 74.5226 32.645C74.4895 35.0926 72.5697 37.1777 70.1313 37.4141C69.9973 37.4267 69.8633 37.4362 69.6616 37.4519C69.6616 38.0934 69.6616 38.7127 69.6616 39.3684C68.9901 39.3684 68.388 39.3684 67.7149 39.3684C67.7149 38.7537 67.7149 38.1359 67.7149 37.4692C65.9244 37.3558 64.5247 36.6339 63.5679 35.1588C62.8744 34.0871 62.7184 32.9019 62.8523 31.6269C63.4781 31.6269 64.0786 31.6269 64.7643 31.6269C64.7643 31.9799 64.7454 32.3093 64.7674 32.6355C64.8683 34.1722 65.8645 35.3006 67.3713 35.4472C68.2666 35.5339 69.1887 35.5323 70.0808 35.4251C71.6066 35.2423 72.6406 33.9153 72.557 32.3991C72.4735 30.8909 71.2929 29.7072 69.7656 29.6363C69.0374 29.6016 68.3076 29.6363 67.5794 29.6206C65.0417 29.5654 62.9217 27.515 62.824 25.0327C62.7199 22.344 64.6114 20.1533 67.2515 19.9027C67.3666 19.8917 67.4817 19.8759 67.6645 19.8554C67.6645 19.225 67.6645 18.6056 67.6645 17.9531C68.3517 17.9531 68.9696 17.9531 69.6411 17.9531C69.6411 18.5757 69.6411 19.1793 69.6411 19.8444C71.4316 19.961 72.8471 20.6876 73.7975 22.2006C74.4643 23.2628 74.6108 24.4322 74.4974 25.6883C73.8763 25.6852 73.2742 25.6852 72.5476 25.6852Z" fill="#BB1F26"/>
<path d="M40.5402 56.9182C40.422 56.2909 40.3101 55.6983 40.1855 55.0332C41.2432 54.8284 42.2583 54.6298 43.2749 54.4359C46.845 53.7519 50.4419 53.1877 53.8339 51.7819C59.3238 49.5061 63.8712 46.0151 67.4823 41.3012C67.5784 41.1767 67.6714 41.0506 67.7691 40.9261C67.7928 40.8962 67.8275 40.8741 67.9189 40.7969C68.4044 41.1499 68.9056 41.514 69.5093 41.9537C68.5446 43.0853 67.6509 44.2279 66.6595 45.2776C61.4202 50.8205 55.0176 54.2279 47.5259 55.6164C45.3602 56.0183 43.1993 56.4407 41.0351 56.8504C40.8854 56.8788 40.7341 56.893 40.5402 56.9182Z" fill="#BB1F26"/>
<path d="M29.1467 29.9766C29.6385 30.4194 30.0861 30.8229 30.5322 31.2232C29.1388 32.9852 26.1267 32.9821 24.8105 31.2153C25.255 30.815 25.7043 30.4116 26.1803 29.9813C27.1559 30.7662 28.1395 30.7882 29.1467 29.9766Z" fill="#BB1F26"/>
</svg>
