<svg width="88" height="88" viewBox="0 0 88 88" fill="none" xmlns="http://www.w3.org/2000/svg">
<path d="M9.00551 67.9575C9.55109 66.5632 10.6037 66.0105 12.0879 66.1315C12.56 66.1694 13.0395 66.1369 13.563 66.1369C13.563 64.5836 13.5759 63.1188 13.5465 61.654C13.5428 61.4734 13.3591 61.2585 13.203 61.123C12.132 60.2019 11.0409 59.3024 9.96441 58.3867C9.09369 57.6479 8.9504 57.0104 9.43352 55.9863C10.6037 53.5136 11.7922 51.0482 12.955 48.572C13.2856 47.8694 13.7926 47.4269 14.5825 47.416C15.4073 47.4034 15.9364 47.864 16.2707 48.5882C16.8255 49.7875 17.4023 50.9778 18.1297 52.1446C18.1297 51.8881 18.1297 51.6316 18.1297 51.3751C18.1297 44.1288 18.1297 36.8825 18.1297 29.6343C18.1297 27.5645 19.0004 26.6993 21.0854 26.6993C21.6365 26.6993 22.1894 26.6795 22.7387 26.712C23.3706 26.7481 23.7453 27.131 23.76 27.6873C23.7766 28.2779 23.4 28.6771 22.7277 28.7168C22.1325 28.7511 21.5336 28.7583 20.9384 28.7258C20.3561 28.6951 20.1357 28.9372 20.1963 29.4844C20.2092 29.5964 20.1981 29.7102 20.1981 29.8222C20.1981 41.6291 20.1981 53.436 20.1981 65.2429C20.1981 65.5084 20.1981 65.7739 20.1981 66.0882C23.4184 66.0882 26.5706 66.0882 29.754 66.0882C29.754 65.0785 29.754 64.1158 29.754 63.0971C29.5079 63.0827 29.2856 63.0574 29.0652 63.0574C27.7573 63.0538 26.4475 63.0664 25.1396 63.052C23.5598 63.0339 22.5476 62.055 22.5403 60.5089C22.5256 57.6642 22.5237 54.8195 22.5403 51.9748C22.5495 50.4486 23.5359 49.4841 25.0882 49.4606C26.374 49.4407 27.6599 49.457 28.9458 49.4552C29.1938 49.4552 29.4436 49.4552 29.7375 49.4552C29.7375 48.0915 29.7375 46.7947 29.7375 45.4094C29.462 45.4094 29.2158 45.4094 28.9715 45.4094C27.6636 45.4094 26.3538 45.4292 25.0459 45.4022C23.5892 45.3714 22.566 44.4431 22.5495 43.0487C22.5127 40.092 22.5127 37.1335 22.5495 34.1768C22.566 32.7879 23.6076 31.8397 25.0441 31.8162C26.352 31.7945 27.6617 31.8108 28.9697 31.8108C29.2158 31.8108 29.462 31.8108 29.7449 31.8108C29.7449 30.7704 29.7449 29.8077 29.7449 28.7294C29.0193 28.7294 28.2937 28.7511 27.5699 28.7186C27.2613 28.706 26.8553 28.6771 26.6771 28.4874C26.4457 28.2418 26.2748 27.8173 26.3006 27.4886C26.341 26.9919 26.7598 26.7192 27.276 26.7084C28.0769 26.6903 28.876 26.7029 29.7834 26.7029C29.7834 26.3959 29.7834 26.1575 29.7834 25.9191C29.7834 22.9172 29.8496 19.9118 29.7596 16.9117C29.7026 15.0712 30.8305 13.9839 32.7538 14.0002C40.4213 14.0616 48.0925 14.0616 55.76 14.0002C57.6502 13.9857 58.8608 14.9647 58.7928 17.0183C58.6955 19.9732 58.7671 22.9317 58.7671 25.8902C58.7671 26.1322 58.7671 26.376 58.7671 26.7011C59.118 26.7011 59.3862 26.7011 59.6562 26.7011C62.3198 26.7011 64.9834 26.6975 67.647 26.7029C69.4656 26.7065 70.4135 27.6313 70.419 29.4104C70.4245 30.6512 70.4263 31.8938 70.4135 33.1347C70.408 33.6278 70.193 34.0775 69.6842 34.1534C69.3499 34.2021 68.9108 34.0739 68.6426 33.868C68.4424 33.7145 68.3726 33.3099 68.3653 33.0137C68.3359 31.818 68.345 30.6205 68.3561 29.4248C68.3597 29.0058 68.2716 28.7294 67.7572 28.7294C64.8879 28.7385 62.0167 28.7349 59.1474 28.7385C59.039 28.7385 58.9306 28.7818 58.7965 28.8089C58.7965 29.7933 58.7965 30.7542 58.7965 31.7801C59.0665 31.7927 59.3108 31.8126 59.5552 31.8126C60.8631 31.8162 62.1728 31.7999 63.4808 31.818C64.9246 31.8379 65.979 32.7698 65.9974 34.157C66.0378 37.1371 66.0397 40.1173 65.9956 43.0957C65.9754 44.4557 64.9485 45.3714 63.5267 45.404C62.2188 45.4347 60.909 45.4112 59.6011 45.4112C59.3531 45.4112 59.1051 45.4112 58.8112 45.4112C58.8112 46.7784 58.8112 48.0753 58.8112 49.457C59.1841 49.457 59.5203 49.4606 59.8583 49.457C66.1242 49.3613 66.1168 49.2836 66.0176 55.5456C65.9919 57.126 66.0158 58.7064 66.0139 60.2868C66.0103 62.1074 65.0587 63.0502 63.2236 63.0556C61.9836 63.0592 60.7437 63.0556 59.5037 63.0574C59.2815 63.0574 59.0592 63.0773 58.8057 63.0899C58.7891 63.2669 58.7689 63.397 58.7689 63.5288C58.7653 64.3615 58.7671 65.1959 58.7671 66.0827C61.9653 66.0827 65.1175 66.0827 68.3524 66.0827C68.3524 65.7883 68.3524 65.5246 68.3524 65.2627C68.3524 56.3674 68.3524 47.4738 68.3524 38.5785C68.3524 38.3762 68.3506 38.1721 68.3524 37.9698C68.3616 37.1173 68.7326 36.6549 69.3921 36.6675C70.0479 36.6802 70.4153 37.1444 70.4153 38.0059C70.419 42.4762 70.4171 46.9464 70.4171 51.4167C70.4171 51.6569 70.4171 51.8989 70.4171 52.1391C70.4686 52.1536 70.5182 52.168 70.5696 52.1843C70.9425 51.4058 71.3154 50.6292 71.6865 49.8507C71.9308 49.3414 72.1457 48.8158 72.4231 48.3227C73.1065 47.109 74.8112 47.0729 75.4339 48.3173C76.7492 50.9471 77.991 53.6112 79.2327 56.2753C79.5836 57.0284 79.3871 57.6931 78.7074 58.2801C77.6034 59.2338 76.4736 60.1567 75.3696 61.1104C75.1988 61.2585 75.0059 61.4969 75.0004 61.6974C74.9692 63.1405 74.9838 64.5836 74.9838 66.1423C75.5827 66.1423 76.1448 66.1405 76.7051 66.1423C78.6339 66.1514 79.5395 67.0346 79.5414 68.9112C79.5414 69.7005 79.5542 70.4916 79.5377 71.2809C79.5083 72.6445 78.5255 73.6162 77.1478 73.6632C76.9182 73.6704 76.6886 73.6686 76.4589 73.6686C60.8466 73.6686 45.2323 73.6686 29.62 73.6686C29.3683 73.6686 29.1129 73.6813 28.8631 73.656C28.2716 73.5982 27.9318 73.2442 27.9134 72.6825C27.895 72.1117 28.2441 71.7577 28.8135 71.6584C29.0597 71.615 29.3169 71.6367 29.5685 71.6367C45.1809 71.6367 60.7951 71.6367 76.4075 71.6367C77.4748 71.6367 77.4748 71.6367 77.4748 70.618C77.4748 70.0093 77.4582 69.3989 77.4803 68.7902C77.495 68.3585 77.3241 68.1562 76.8814 68.1743C76.6977 68.1815 76.514 68.1743 76.3303 68.1743C54.9536 68.1743 33.5786 68.1743 12.2018 68.1743C11.0684 68.1743 11.0684 68.1743 11.0684 69.2742C11.0684 69.8161 11.0978 70.3597 11.0611 70.8998C11.0225 71.4579 11.2264 71.6529 11.8032 71.6475C14.3052 71.624 16.8089 71.6367 19.3109 71.6367C20.9403 71.6367 22.5715 71.6295 24.2009 71.6403C25.0404 71.6457 25.54 72.1496 25.3968 72.8432C25.2627 73.4916 24.7869 73.674 24.166 73.6722C20.8595 73.665 17.5529 73.6686 14.2464 73.6686C13.5355 73.6686 12.8191 73.6181 12.1118 73.6795C10.6257 73.8059 9.58048 73.255 9 71.8914C9.00551 70.5765 9.00551 69.267 9.00551 67.9575ZM56.7005 66.0882C56.7005 65.8281 56.7005 65.6059 56.7005 65.3819C56.7005 49.2421 56.7005 33.1004 56.7005 16.9605C56.7005 16.061 56.6987 16.0574 55.7949 16.0574C48.1256 16.0574 40.4581 16.0574 32.7887 16.0574C31.85 16.0574 31.8482 16.0592 31.8482 16.993C31.8482 33.1112 31.8482 49.2294 31.8482 65.3476C31.8482 65.5878 31.8482 65.8281 31.8482 66.0755C33.9185 66.0755 35.8987 66.0755 37.8734 66.0755C37.8734 63.1098 37.8734 60.2055 37.8734 57.3084C35.9483 57.0754 35.2209 56.2698 35.219 54.4059C35.219 54.2036 35.2135 53.9995 35.2209 53.7972C35.2796 52.3432 36.2294 51.3715 37.7118 51.3643C42.0966 51.3426 46.4815 51.3535 50.8681 51.3589C51.6452 51.3607 52.2973 51.6533 52.7896 52.2565C53.5795 53.2246 53.6273 55.5149 52.7345 56.3836C52.2202 56.8839 51.4523 57.1332 50.6679 57.5685C50.6679 60.2326 50.6679 63.1369 50.6679 66.0882C52.6739 66.0882 54.6578 66.0882 56.7005 66.0882ZM14.6101 59.6167C15.6076 58.7786 16.5371 57.9749 17.4941 57.2054C17.8193 56.9435 17.8725 56.7304 17.6852 56.3529C16.943 54.8556 16.2376 53.3402 15.5194 51.8303C15.231 51.2234 14.9426 50.6147 14.6064 49.9067C13.5171 52.2006 12.4774 54.3806 11.4597 56.5697C11.4028 56.6925 11.4799 56.9652 11.5901 57.0627C12.5674 57.9153 13.5667 58.7407 14.6101 59.6167ZM73.9496 59.6167C74.9416 58.7804 75.8858 57.9604 76.8631 57.1783C77.1735 56.9291 77.2066 56.7322 77.0394 56.3872C76.0805 54.4167 75.1473 52.4335 74.2013 50.4576C74.1315 50.3131 74.0452 50.1776 73.9221 49.9591C72.8511 52.2132 71.8188 54.3698 70.8084 56.539C70.746 56.6708 70.8011 56.9562 70.9076 57.0501C71.8996 57.9116 72.9154 58.7497 73.9496 59.6167ZM43.1841 66.0972C43.1841 63.1423 43.1841 60.2253 43.1841 57.2957C42.104 57.2957 41.0808 57.2957 40.0337 57.2957C40.0337 60.2452 40.0337 63.1622 40.0337 66.0972C41.1083 66.0972 42.1315 66.0972 43.1841 66.0972ZM48.5278 57.3156C47.4349 57.3156 46.397 57.3156 45.3646 57.3156C45.3646 60.2705 45.3646 63.1694 45.3646 66.1008C46.4411 66.1008 47.4661 66.1008 48.5278 66.1008C48.5278 63.1622 48.5278 60.2597 48.5278 57.3156ZM44.2091 55.2277C46.318 55.2277 48.4268 55.2024 50.5338 55.2421C51.276 55.2566 51.2778 54.861 51.2704 54.3427C51.2631 53.8261 51.3255 53.3673 50.5283 53.3728C46.3566 53.3998 42.1866 53.3998 38.0149 53.3728C37.2103 53.3673 37.2911 53.8369 37.2801 54.3481C37.2691 54.8719 37.2856 55.2548 38.0222 55.2403C40.0833 55.2024 42.1462 55.2277 44.2091 55.2277ZM29.7449 33.8463C28.1669 33.8463 26.6771 33.8301 25.1873 33.8662C24.9908 33.8716 24.6399 34.1281 24.6326 34.2798C24.5848 35.3743 24.6069 36.4707 24.6069 37.6104C25.5474 37.6104 26.3942 37.6104 27.2392 37.6104C28.0751 37.6104 28.9127 37.6104 29.743 37.6104C29.7449 36.3027 29.7449 35.116 29.7449 33.8463ZM63.951 37.5778C63.951 36.7994 63.9547 36.104 63.951 35.4068C63.9418 33.6531 64.1457 33.8535 62.3804 33.8463C61.1974 33.8409 60.0126 33.8445 58.8167 33.8445C58.8167 35.1486 58.8167 36.3533 58.8167 37.5778C60.5306 37.5778 62.1967 37.5778 63.951 37.5778ZM24.6032 57.2921C24.6032 58.412 24.583 59.4686 24.6234 60.5234C24.6289 60.6931 24.8989 60.9912 25.0533 60.9948C26.6037 61.0309 28.1577 61.0164 29.7412 61.0164C29.7412 59.7323 29.7412 58.5294 29.7412 57.2921C28.0328 57.2921 26.3667 57.2921 24.6032 57.2921ZM63.9455 57.3012C62.1692 57.3012 60.503 57.3012 58.8149 57.3012C58.8149 58.5456 58.8149 59.7503 58.8149 61.0201C60.391 61.0201 61.923 61.0345 63.4532 61.0002C63.6204 60.9966 63.918 60.7256 63.9253 60.5703C63.9639 59.4938 63.9455 58.4174 63.9455 57.3012ZM24.5995 39.6694C24.5995 40.7152 24.6197 41.7013 24.5922 42.6857C24.5756 43.2257 24.8089 43.3937 25.327 43.3847C26.5614 43.363 27.7977 43.3811 29.0321 43.3756C29.2709 43.3756 29.5097 43.3467 29.7375 43.3305C29.7375 42.0626 29.7375 40.8795 29.7375 39.6676C28.031 39.6694 26.3685 39.6694 24.5995 39.6694ZM58.8038 43.3648C60.4112 43.3648 61.9818 43.3738 63.5542 43.3467C63.6865 43.3449 63.9216 43.1011 63.9253 42.9656C63.9565 41.8729 63.9418 40.7784 63.9418 39.6911C62.1747 39.6911 60.4957 39.6911 58.8038 39.6911C58.8038 40.9247 58.8038 42.1077 58.8038 43.3648ZM29.7504 51.4943C28.143 51.4943 26.6147 51.4799 25.0845 51.5142C24.921 51.5178 24.6307 51.7906 24.6252 51.9459C24.5848 53.0169 24.6032 54.0916 24.6032 55.1843C26.3593 55.1843 28.0383 55.1843 29.7485 55.1843C29.7504 53.9598 29.7504 52.7749 29.7504 51.4943ZM63.9455 55.1898C63.9455 54.0844 63.9676 53.0097 63.9198 51.9387C63.9124 51.7833 63.5818 51.5305 63.3852 51.5124C62.7496 51.4564 62.1049 51.4907 61.4656 51.4907C60.582 51.4907 59.6966 51.4907 58.8038 51.4907C58.8038 52.7839 58.8038 53.967 58.8038 55.1898C60.5177 55.1898 62.1967 55.1898 63.9455 55.1898ZM70.4778 59.3801C70.4778 61.7046 70.4778 63.8919 70.4778 66.0737C71.3191 66.0737 72.1016 66.0737 72.9191 66.0737C72.9191 64.5963 72.9264 63.1802 72.9081 61.7642C72.9062 61.589 72.8089 61.365 72.6766 61.2476C71.9859 60.6353 71.2695 60.0483 70.4778 59.3801ZM18.1261 59.3403C17.2645 60.0664 16.5371 60.6751 15.8151 61.2928C15.7362 61.3614 15.648 61.4752 15.6461 61.5691C15.6351 63.0701 15.6388 64.5728 15.6388 66.099C16.5022 66.099 17.2737 66.099 18.0599 66.099C18.0856 65.9834 18.1224 65.8985 18.1224 65.8136C18.1261 63.7167 18.1261 61.6197 18.1261 59.3403Z" fill="#BB1F26"/>
<path d="M33.7887 23.2172C33.7887 22.5634 33.7796 21.9096 33.7906 21.2557C33.8126 19.8794 34.7366 18.8843 36.1309 18.8337C37.5509 18.7831 38.9745 18.7867 40.3963 18.8319C41.8236 18.877 42.755 19.874 42.7697 21.2937C42.7825 22.6013 42.7825 23.909 42.7697 25.2167C42.7568 26.6327 41.8273 27.6261 40.3945 27.6767C38.9965 27.7254 37.5968 27.7218 36.1988 27.6785C34.7311 27.6333 33.8071 26.6399 33.7924 25.1805C33.7832 24.5249 33.7887 23.8711 33.7887 23.2172ZM40.7049 23.2931C40.7049 22.6862 40.6902 22.0776 40.7104 21.4707C40.7251 21.048 40.5708 20.8439 40.1208 20.8494C38.8845 20.8602 37.6482 20.8566 36.4138 20.8512C36.0078 20.8494 35.8461 21.0264 35.8517 21.4273C35.8664 22.6429 35.8682 23.8584 35.8498 25.0722C35.8425 25.5219 36.0519 25.6646 36.4726 25.6628C37.685 25.6538 38.8992 25.6538 40.1116 25.6628C40.5525 25.6664 40.727 25.4804 40.7104 25.0487C40.6884 24.4635 40.7049 23.8783 40.7049 23.2931Z" fill="#BB1F26"/>
<path d="M54.7609 23.2471C54.7609 23.9009 54.7683 24.5548 54.7591 25.2086C54.7389 26.6301 53.8241 27.6253 52.3912 27.6758C50.9713 27.7264 49.5458 27.7264 48.1276 27.674C46.726 27.6216 45.7965 26.6283 45.7818 25.2574C45.7671 23.928 45.769 22.5969 45.7818 21.2657C45.7965 19.8624 46.7499 18.8708 48.1827 18.831C49.5807 18.7913 50.9804 18.7895 52.3784 18.8328C53.8075 18.8762 54.7389 19.8678 54.7591 21.2856C54.7683 21.9394 54.7609 22.5933 54.7609 23.2471ZM52.6943 23.2561C52.6943 22.6709 52.676 22.0857 52.6999 21.5005C52.7201 21.0436 52.5529 20.8413 52.0716 20.8467C50.8592 20.863 49.645 20.8594 48.4326 20.8485C47.988 20.8449 47.8319 21.0382 47.8374 21.4644C47.8539 22.6565 47.8539 23.8504 47.8374 25.0424C47.8319 25.4669 47.9862 25.6656 48.4307 25.662C49.6431 25.6529 50.8574 25.6493 52.0698 25.6638C52.5474 25.6692 52.7201 25.4687 52.6999 25.0099C52.676 24.4265 52.6943 23.8413 52.6943 23.2561Z" fill="#BB1F26"/>
<path d="M42.7708 44.1148C42.7708 44.8138 42.7836 45.5128 42.7689 46.2118C42.7396 47.5303 41.7623 48.5417 40.4342 48.5706C38.9903 48.6031 37.5446 48.6049 36.1008 48.5688C34.8057 48.5363 33.8193 47.5321 33.7972 46.2533C33.7733 44.8553 33.7733 43.4574 33.7972 42.0594C33.8193 40.7607 34.7671 39.789 36.0916 39.7529C37.5575 39.7132 39.027 39.7114 40.4929 39.7547C41.8082 39.7945 42.7359 40.7788 42.7671 42.0847C42.7836 42.762 42.7708 43.4375 42.7708 44.1148ZM40.706 44.1798C40.706 43.5928 40.6877 43.0058 40.7115 42.4206C40.7318 41.9709 40.5885 41.7541 40.0943 41.7614C38.8783 41.7812 37.6622 41.7776 36.4461 41.7632C35.9979 41.7578 35.8436 41.9438 35.8509 42.3737C35.8693 43.5693 35.8693 44.765 35.8509 45.9607C35.8454 46.4032 36.031 46.5567 36.4682 46.5513C37.6842 46.5351 38.9003 46.5351 40.1164 46.5513C40.5719 46.5567 40.7262 46.3653 40.7115 45.939C40.6913 45.3538 40.706 44.7668 40.706 44.1798Z" fill="#BB1F26"/>
<path d="M54.7585 44.1841C54.7585 44.8596 54.7714 45.5369 54.7567 46.2124C54.7255 47.5327 53.75 48.5424 52.4237 48.5713C50.9799 48.6038 49.5342 48.6056 48.0903 48.5695C46.7953 48.537 45.807 47.5327 45.7868 46.254C45.7629 44.856 45.7647 43.458 45.7868 42.0601C45.807 40.7632 46.7585 39.7897 48.083 39.7536C49.5489 39.712 51.0185 39.712 52.4844 39.7554C53.8015 39.7951 54.7255 40.7759 54.7567 42.0854C54.7732 42.7861 54.7585 43.4851 54.7585 44.1841ZM50.3039 46.5484C50.9229 46.5484 51.5438 46.5412 52.1629 46.5502C52.5413 46.5556 52.6993 46.3894 52.6956 46.0192C52.6864 44.7783 52.6864 43.5375 52.6956 42.2967C52.6993 41.9192 52.5321 41.7675 52.161 41.7675C50.899 41.7729 49.6371 41.7729 48.3751 41.7675C48.004 41.7657 47.8368 41.921 47.8405 42.2967C47.8515 43.5375 47.8497 44.7783 47.8405 46.0192C47.8387 46.3912 47.9966 46.5538 48.3751 46.5484C49.018 46.543 49.6609 46.5484 50.3039 46.5484Z" fill="#BB1F26"/>
<path d="M33.791 33.6864C33.7928 32.9875 33.7763 32.2885 33.7947 31.5895C33.8296 30.3775 34.6819 29.386 35.9072 29.3246C37.4852 29.2451 39.0723 29.2469 40.6484 29.3246C41.8718 29.386 42.7407 30.3775 42.7609 31.5895C42.7848 32.9875 42.7848 34.3854 42.7628 35.7834C42.7426 37.0965 41.7616 38.0899 40.4096 38.126C38.9896 38.1657 37.566 38.1657 36.1442 38.126C34.7664 38.0881 33.8131 37.0802 33.7892 35.7166C33.78 35.0393 33.7892 34.3619 33.791 33.6864ZM40.7035 33.7388C40.7035 33.1085 40.6925 32.4781 40.7072 31.8496C40.7164 31.4793 40.5547 31.3077 40.1837 31.3077C38.9253 31.3077 37.667 31.3113 36.4087 31.3041C36.0009 31.3023 35.8447 31.4811 35.8503 31.8821C35.8649 33.0976 35.8631 34.3114 35.8521 35.5269C35.8484 35.9207 35.9954 36.1085 36.4087 36.1067C37.645 36.0995 38.8794 36.0959 40.1157 36.1085C40.5639 36.1139 40.7256 35.9189 40.7109 35.4944C40.6888 34.9092 40.7054 34.324 40.7035 33.7388Z" fill="#BB1F26"/>
<path d="M54.7596 33.7232C54.7596 34.3987 54.7725 35.076 54.7578 35.7515C54.7284 37.0754 53.7787 38.0796 52.4322 38.1212C50.9883 38.1663 49.5427 38.1681 48.0988 38.1212C46.7541 38.0778 45.7989 37.07 45.7824 35.7443C45.7659 34.3698 45.764 32.9935 45.7842 31.619C45.8026 30.3727 46.677 29.3775 47.9353 29.3179C49.4894 29.2439 51.0545 29.2421 52.6086 29.3179C53.865 29.3793 54.7229 30.3745 54.7541 31.6262C54.7743 32.3252 54.7596 33.0242 54.7596 33.7232ZM52.6949 33.7647C52.6949 33.1344 52.6802 32.504 52.7004 31.8755C52.7133 31.4655 52.5314 31.3047 52.1309 31.3065C50.8947 31.3119 49.6602 31.3119 48.4239 31.3065C48.0363 31.3047 47.8343 31.4402 47.8398 31.861C47.8545 33.0982 47.8508 34.3355 47.8416 35.5727C47.838 35.9448 48.0033 36.1073 48.3743 36.1073C49.6327 36.1037 50.891 36.1019 52.1493 36.1091C52.5681 36.1109 52.7078 35.9086 52.6986 35.5203C52.6839 34.9351 52.6949 34.3499 52.6949 33.7647Z" fill="#BB1F26"/>
</svg>
