<svg width="88" height="88" viewBox="0 0 88 88" fill="none" xmlns="http://www.w3.org/2000/svg">
<path d="M72 77.4153C53.6602 77.4153 35.3736 77.4153 17.0155 77.4153C17.0155 77.1606 17.0155 76.9373 17.0155 76.714C17.0155 72.4692 16.9751 68.2244 17.0247 63.9815C17.0907 58.4873 19.6973 54.6282 24.6537 52.384C27.5116 51.0903 30.4007 49.863 33.3283 48.5822C33.2219 48.429 33.1504 48.2924 33.0477 48.1854C32.0626 47.1574 31.3729 45.9504 30.8336 44.6364C30.7089 44.3319 30.4319 44.0311 30.1457 43.8631C29.2964 43.3648 28.4049 42.9403 27.5355 42.4734C26.4495 41.8902 25.9047 40.9453 25.835 39.7346C25.7892 38.9539 25.7983 38.1659 25.8314 37.3834C25.9011 35.7537 27.1117 34.436 28.7241 34.3013C29.19 34.2625 29.6762 34.4785 30.1751 34.5818C30.1751 33.8657 30.1751 32.991 30.1751 32.0626C29.478 32.0626 28.7975 32.0626 28.0894 32.0626C27.7849 27.9212 28.1243 23.968 30.4264 20.4061C32.4093 17.3351 35.1003 15.1961 38.5544 14.0223C38.7818 13.9448 39.0295 13.6809 39.1084 13.4484C39.6348 11.9147 40.8015 11.0252 42.4028 11.0067C43.1127 10.9993 43.8245 10.9956 44.5343 11.0086C46.0532 11.0344 47.2675 11.935 47.7059 13.4004C47.8197 13.7843 48.0214 13.9393 48.3755 14.0611C54.6893 16.2425 58.8037 22.0191 58.8367 28.7314C58.8422 29.8111 58.8367 30.8889 58.8367 32.0202C58.103 32.0202 57.4225 32.0202 56.6906 32.0202C56.6906 32.9522 56.6906 33.8362 56.6906 34.7941C57.5637 33.8639 58.5029 34.2515 59.3724 34.6944C60.4106 35.2222 60.9444 36.1635 61.0196 37.3206C61.0728 38.1474 61.0746 38.9835 61.0178 39.8103C60.9316 41.0579 60.273 41.964 59.1871 42.5528C58.3195 43.0215 57.4353 43.4589 56.575 43.9388C56.375 44.0495 56.1678 44.2525 56.0889 44.4592C55.5294 45.9191 54.759 47.2386 53.6547 48.3497C53.6125 48.3921 53.5978 48.4659 53.5465 48.5822C55.2946 49.337 57.0262 50.0845 58.8386 50.867C58.8386 49.7966 58.8661 48.8332 58.8312 47.8698C58.7854 46.5502 59.376 45.5869 60.4711 44.9668C62.2358 43.9665 64.0646 43.9443 65.8604 44.8837C67.0509 45.5057 67.6966 46.4986 67.6489 47.9086C67.6122 48.9901 67.6416 50.0752 67.77 51.2379C69.1494 49.2983 70.5289 47.3586 71.9982 45.2916C72 56.0881 72 66.7258 72 77.4153ZM32.424 32.0756C32.424 35.1484 32.3965 38.1456 32.4313 41.1409C32.4662 44.1842 33.8328 46.4727 36.4706 47.9695C37.507 48.5582 38.5672 49.1026 39.6201 49.6618C42.1809 51.0202 44.749 51.0183 47.3171 49.6858C48.2929 49.1802 49.2578 48.6505 50.2245 48.1245C53.0145 46.6001 54.416 44.2304 54.4325 41.0449C54.4472 38.2785 54.4361 35.512 54.4343 32.7455C54.4343 32.524 54.4141 32.3044 54.4031 32.0774C47.0602 32.0756 39.7816 32.0756 32.424 32.0756ZM42.2799 75.1988C42.2799 71.4948 42.2799 67.8442 42.2799 64.1587C40.7428 64.1587 39.2551 64.1181 37.7693 64.1697C36.2284 64.2233 34.8949 63.736 33.6732 62.8391C31.6371 61.3461 29.5973 59.8567 27.5593 58.3673C26.2111 57.3836 24.8628 56.4018 23.5017 55.4089C20.8089 57.4519 19.2864 60.0782 19.2351 63.4389C19.1764 67.2186 19.2204 71.002 19.2204 74.7835C19.2204 74.9146 19.2387 75.0474 19.2497 75.1859C21.8252 75.1859 24.3529 75.1859 26.954 75.1859C26.954 72.2274 26.954 69.3133 26.954 66.342C27.5887 66.342 28.15 66.342 28.7718 66.342C28.5205 65.2955 28.2857 64.3192 28.0344 63.2728C28.7847 63.1252 29.4872 62.9886 30.2191 62.8465C30.5255 64.059 30.8134 65.1903 31.1179 66.3936C33.7576 66.3936 36.3789 66.3936 39.0478 66.3936C39.0478 69.3724 39.0478 72.2699 39.0478 75.1988C40.1429 75.1988 41.1867 75.1988 42.2799 75.1988ZM30.531 26.3451C31.903 25.3245 33.4421 25.3946 34.9774 25.3965C40.4548 25.4076 45.9303 25.4002 51.4076 25.402C53.0897 25.402 54.803 25.2175 56.3329 26.3359C55.7679 21.4599 51.5471 17.1985 47.8032 16.3164C47.8032 18.603 47.8032 20.8749 47.8032 23.132C47.0437 23.132 46.3485 23.132 45.6496 23.132C45.6423 22.9622 45.6331 22.8478 45.6331 22.7334C45.6313 20.013 45.635 17.2927 45.6295 14.5723C45.6276 13.5849 45.2773 13.2324 44.3161 13.2214C43.7437 13.2158 43.1696 13.2158 42.5973 13.2214C41.5774 13.2288 41.2325 13.5665 41.2307 14.5871C41.227 17.193 41.2289 19.7971 41.2289 22.403C41.2289 22.6485 41.2289 22.8921 41.2289 23.1357C40.4493 23.1357 39.754 23.1357 38.991 23.1357C38.991 20.8214 38.991 18.5587 38.991 16.2776C34.5097 17.6562 30.995 22.0782 30.531 26.3451ZM44.5637 75.232C46.5099 75.232 48.4067 75.2431 50.3034 75.2135C50.496 75.2099 50.7399 74.9958 50.8683 74.8131C53.4474 71.2013 56.0137 67.5822 58.5763 63.9594C58.69 63.7969 58.8221 63.5976 58.8257 63.4149C58.8459 61.9034 58.8367 60.3919 58.8367 58.7733C58.5763 58.945 58.4075 59.0483 58.2479 59.1628C56.5401 60.403 54.8012 61.6044 53.1356 62.9C51.969 63.808 50.7033 64.2048 49.2468 64.1661C47.6968 64.1255 46.1449 64.1568 44.5637 64.1568C44.5637 67.8627 44.5637 71.4966 44.5637 75.232ZM54.6728 51.4373C53.6327 50.9611 52.6935 50.4979 51.7231 50.1085C51.4572 50.0014 51.0536 50.0199 50.7968 50.1472C49.7934 50.6474 48.8377 51.2453 47.838 51.7529C44.8333 53.2773 41.8122 53.2884 38.8075 51.7473C37.7895 51.225 36.8044 50.6363 35.7919 50.1011C35.6121 50.0051 35.3369 49.9258 35.1718 49.9959C34.1226 50.4388 33.0917 50.926 31.9929 51.428C32.8 52.5649 33.6695 53.5892 34.3115 54.7408C35.4837 56.841 37.1053 57.797 39.5468 57.5516C41.0418 57.4021 42.2011 58.4485 42.6175 59.9139C42.8376 60.6872 43.0375 61.4679 43.2558 62.243C43.2925 62.374 43.3677 62.4958 43.4814 62.7487C43.7272 61.8241 43.9364 61.0489 44.1418 60.2738C44.6628 58.312 45.6863 57.5147 47.6858 57.5128C47.9829 57.5128 48.2819 57.5091 48.5791 57.5128C49.5531 57.5258 50.4299 57.1917 51.0151 56.4387C52.2624 54.8331 53.4236 53.1555 54.6728 51.4373ZM69.819 52.2567C64.3123 59.936 58.8661 67.5305 53.3759 75.1877C58.9248 75.1877 64.3636 75.1877 69.819 75.1877C69.819 67.5453 69.819 59.9471 69.819 52.2567ZM30.5273 29.7926C39.1542 29.7926 47.7371 29.7926 56.331 29.7926C55.9201 28.4361 54.7755 27.6259 53.2328 27.6204C50.0704 27.6093 46.9062 27.6167 43.7437 27.6167C40.3741 27.6167 37.0044 27.6093 33.6365 27.6204C32.0938 27.6259 30.9529 28.4269 30.5273 29.7926ZM40.8088 61.9126C40.6896 60.0412 40.3649 59.7293 38.5727 59.7293C38.5269 59.7293 38.481 59.7275 38.4352 59.7293C36.1404 59.8032 34.3739 58.8841 33.088 56.9555C32.0681 55.4274 30.9749 53.9509 29.8926 52.4228C28.4692 53.0503 27.0879 53.6593 25.6076 54.3108C28.9608 56.7488 32.1837 59.1074 35.4287 61.4309C35.7864 61.6875 36.2688 61.872 36.7035 61.8905C38.0683 61.9495 39.4385 61.9126 40.8088 61.9126ZM56.9657 52.4302C55.8321 54.0321 54.7223 55.6064 53.6052 57.1769C52.6275 58.5519 51.3233 59.4322 49.6485 59.6647C48.9515 59.7626 48.2214 59.6426 47.528 59.757C47.1281 59.8235 46.642 60.0708 46.4256 60.3937C46.1522 60.8035 46.1156 61.3719 45.956 61.944C47.2088 61.944 48.3516 61.9403 49.4944 61.9459C50.4648 61.9495 51.3288 61.6709 52.112 61.0803C53.8326 59.781 55.5001 58.3913 57.3216 57.2563C58.6937 56.4018 59.2293 55.3665 58.9578 53.8273C58.9505 53.783 58.9743 53.7258 58.9541 53.6907C58.8496 53.5117 58.7762 53.2625 58.6185 53.1776C58.0993 52.9008 57.5454 52.6867 56.9657 52.4302ZM65.4422 50.5329C64.6828 50.6437 63.9637 50.8282 63.2447 50.8282C62.5256 50.8282 61.8065 50.6437 61.082 50.5403C61.082 53.8033 61.082 57.0976 61.082 60.4805C61.2012 60.3495 61.2654 60.2922 61.3149 60.2221C62.621 58.3895 63.9289 56.5605 65.2203 54.7205C65.3432 54.5452 65.4275 54.3053 65.4312 54.093C65.4532 52.9192 65.4422 51.7473 65.4422 50.5329ZM36.7824 70.7676C36.7824 70.0275 36.7824 69.3299 36.7824 68.6378C34.2107 68.6378 31.6848 68.6378 29.1552 68.6378C29.1552 69.3705 29.1552 70.0515 29.1552 70.7676C31.6976 70.7676 34.2088 70.7676 36.7824 70.7676ZM36.7732 75.232C36.7732 74.4384 36.7732 73.7389 36.7732 73.021C34.2712 73.021 31.8223 73.021 29.3735 73.0229C29.3111 73.0229 29.2469 73.0542 29.1644 73.0745C29.1644 73.7851 29.1644 74.4827 29.1644 75.232C29.3845 75.232 29.5643 75.232 29.7422 75.232C32.0755 75.232 34.4069 75.232 36.7732 75.232ZM30.1824 41.3495C30.2485 39.491 30.6649 37.6325 28.526 36.6396C27.618 37.4978 27.9977 38.6605 28.0748 39.6626C28.161 40.7607 29.3772 40.7866 30.1824 41.3495ZM58.1635 36.4624C57.8352 36.8482 57.5802 37.1416 57.3307 37.4406C57.0996 37.7156 56.6997 37.9813 56.6759 38.2766C56.5933 39.264 56.6447 40.2624 56.6447 41.4048C57.4738 40.7478 58.7634 40.8106 58.7982 39.6146C58.8257 38.618 59.2586 37.4609 58.1635 36.4624ZM63.2245 48.811C63.872 48.5619 64.514 48.3939 65.0717 48.0765C65.5725 47.7923 65.5376 47.3955 65.101 47.0172C64.2224 46.2568 62.245 46.2586 61.3718 47.0227C60.9389 47.401 60.9114 47.7905 61.4158 48.0802C61.957 48.3903 62.5751 48.5564 63.2245 48.811Z" fill="#BA2026"/>
<path d="M57.8828 72.9699C61.1241 68.0977 64.3195 63.2919 67.6085 58.3477C67.6085 63.3233 67.6085 68.1235 67.6085 72.9699C64.4002 72.9699 61.1938 72.9699 57.8828 72.9699ZM62.0578 70.7701C63.2538 70.7701 64.3159 70.7701 65.4091 70.7701C65.4091 69.1128 65.4091 67.4887 65.4091 65.6505" fill="#BA2026"/>
</svg>
