<svg width="42" height="38" viewBox="0 0 42 38" fill="none" xmlns="http://www.w3.org/2000/svg">
<path d="M30.9794 24.9952C30.9794 25.2054 30.9794 25.4152 30.9794 25.6253C30.9683 25.6602 30.9527 25.6943 30.9468 25.7302C30.6929 27.3077 29.7871 28.3299 28.2867 28.8369C28.0558 28.9151 27.8086 28.9459 27.5691 28.9985C27.3219 28.9985 27.0751 28.9985 26.8279 28.9985C26.508 28.9192 26.1881 28.8391 25.8672 28.7632C25.8386 28.7565 25.7993 28.7702 25.7726 28.7869C25.6192 28.884 25.5091 29.0004 25.3212 29C22.2553 28.9933 19.189 28.9989 16.123 28.9989C16.1204 28.9989 16.1178 28.9989 16.1152 28.9989C15.368 28.9989 14.6204 28.9989 13.8732 28.9989C13.4996 28.9989 13.1256 28.9967 12.752 28.9989C12.2921 29.0015 12.0022 28.742 12.0022 28.2839C12.0022 27.6394 12.0019 26.9948 12 26.3503C11.9989 25.9 12.139 25.3499 12.3291 24.9422C13.0085 23.4867 14.1716 22.7395 15.7742 22.6672C15.8584 22.6635 15.9607 22.6383 16.0203 22.5849C16.2883 22.344 16.5882 22.1739 16.9425 22.1009C16.9818 22.0927 17.0329 22.0761 17.0518 22.0464C17.1352 21.9148 17.0363 21.5427 16.9065 21.4604C15.8161 20.7695 15.1931 19.784 15.0352 18.5016C15.0274 18.4397 14.9674 18.3582 14.9106 18.3333C14.629 18.2099 14.4044 18.0272 14.2539 17.7592C14.0704 17.4323 13.9422 17.0813 13.9322 16.707C13.9099 15.8864 13.8747 15.0639 13.9088 14.2444C13.9978 12.121 15.7416 10.2504 17.871 10.0302C18.4755 9.9676 19.1119 10.0217 19.7197 10.0217C20.3717 10.0217 21.024 10.0217 21.676 10.0217C21.6904 10.0325 21.703 10.0469 21.7189 10.0532C22.239 10.2656 22.3779 10.7252 22.0614 11.1896C21.961 11.3371 21.8605 11.4846 21.7527 11.6429C21.895 11.6837 22.0244 11.7192 22.153 11.7582C23.0547 12.0321 24.081 12.8812 24.0221 14.283C23.9939 14.9549 24.0266 15.6295 24.0088 16.3022C24.001 16.6021 23.9658 16.9075 23.8928 17.1981C23.7738 17.671 23.5555 18.095 23.0699 18.2959C22.9265 18.3552 22.8857 18.4378 22.8676 18.5787C22.7119 19.7662 22.1393 20.7062 21.1404 21.3637C20.9091 21.5157 20.8157 21.6687 20.8587 21.9256C20.8605 21.9374 20.8539 21.9545 20.8598 21.9619C20.8991 22.0101 20.9339 22.0868 20.9832 22.0983C21.3287 22.1791 21.6267 22.3392 21.8887 22.5779C21.945 22.6291 22.0355 22.6557 22.1141 22.6676C22.4484 22.7191 22.7886 22.7414 23.1185 22.8129C23.3735 22.8681 23.6159 22.9804 23.8412 23.0597C24.0736 22.6528 24.2767 22.2347 24.5373 21.8566C24.7993 21.4767 25.1188 21.1365 25.4128 20.7792C25.3976 20.7777 25.379 20.7747 25.3609 20.774C25.1066 20.764 24.9695 20.6495 24.975 20.4508C24.9802 20.2536 25.1233 20.1439 25.3779 20.1424C25.5414 20.1417 25.7052 20.1424 25.8909 20.1424C25.8534 20.0535 25.829 19.9916 25.8019 19.9304C25.5495 19.3611 25.2934 18.7933 25.0458 18.2218C24.8397 17.7466 25.1259 17.3063 25.6433 17.2948C25.8531 17.29 26.0632 17.2915 26.2734 17.2944C26.6188 17.2996 26.8301 17.4449 26.9376 17.7751C26.9783 17.9 27.0391 17.9316 27.1622 17.9293C27.5758 17.9219 27.9898 17.923 28.4035 17.9278C28.7611 17.9316 29.0232 18.125 29.0658 18.4497C29.0847 18.5931 29.0461 18.7566 28.992 18.8948C28.8308 19.3066 28.6484 19.7103 28.4631 20.1443C28.6933 20.1443 28.8953 20.1369 29.0962 20.1465C29.2778 20.1554 29.3957 20.2888 29.3949 20.4604C29.3945 20.6335 29.2782 20.7551 29.0943 20.7725C29.0491 20.777 29.0035 20.7773 28.9309 20.781C28.9861 20.8411 29.0172 20.8778 29.051 20.9115C29.9012 21.7592 30.4809 22.7636 30.7763 23.9267C30.866 24.2766 30.9131 24.6383 30.9794 24.9952ZM14.53 16.1973C14.5374 16.6076 14.5604 17.0198 14.775 17.38C14.8606 17.5238 15.0018 17.6751 15.1523 17.7321C15.4951 17.8619 15.6423 18.0846 15.6705 18.4386C15.8135 20.2418 17.5711 21.6439 19.3561 21.387C20.9677 21.1554 22.1052 19.9679 22.2616 18.347C22.2905 18.049 22.4309 17.853 22.7167 17.7618C22.9291 17.694 23.0688 17.5524 23.167 17.3515C23.4313 16.8104 23.3865 16.2329 23.3761 15.6603C23.3735 15.5083 23.2163 15.3956 23.0655 15.3982C22.9157 15.4008 22.7805 15.5139 22.7601 15.6703C22.7467 15.7737 22.7553 15.8801 22.7527 15.9849C22.7478 16.2029 22.6241 16.3456 22.4395 16.3467C22.256 16.3478 22.1259 16.204 22.1222 15.9883C22.1189 15.7967 22.1237 15.6054 22.1204 15.4138C22.1174 15.247 22.0318 15.151 21.8635 15.1317C21.6674 15.1091 21.4702 15.0906 21.2753 15.0602C20.5099 14.9412 19.7816 14.7274 19.1741 14.2148C19.0222 14.0865 18.8824 14.1232 18.7442 14.2452C18.3947 14.5532 17.9881 14.7667 17.5392 14.8693C17.0837 14.9735 16.6178 15.0354 16.1545 15.1025C15.8665 15.144 15.7976 15.204 15.7954 15.4868C15.7943 15.6658 15.7994 15.8452 15.792 16.0242C15.7842 16.217 15.6527 16.3471 15.48 16.3467C15.3154 16.346 15.1846 16.2233 15.1664 16.0413C15.1568 15.9434 15.1645 15.8437 15.1608 15.7451C15.1534 15.5357 15.0337 15.4023 14.8536 15.3993C14.676 15.3964 14.5404 15.5324 14.5311 15.7348C14.5244 15.8882 14.53 16.0428 14.53 16.1973ZM27.2474 20.7781C26.554 20.7347 26.3605 20.8767 25.8527 21.2699C25.7749 21.33 25.7037 21.4 25.6348 21.4704C25.0106 22.1102 24.5925 22.8729 24.3064 23.7124C24.0873 24.3555 23.9547 25.0115 24.0547 25.695C24.2471 27.0067 25.2545 28.0445 26.5906 28.3125C27.8701 28.5693 29.2248 27.9711 29.902 26.8484C30.3753 26.0638 30.4442 25.2221 30.24 24.347C29.9646 23.1683 29.4605 22.1116 28.548 21.287C28.1685 20.9438 27.7459 20.681 27.2474 20.7781ZM23.3846 14.7422C23.3846 14.5472 23.3861 14.3015 23.3842 14.0558C23.3816 13.6974 23.2671 13.376 23.044 13.0977C22.6081 12.5539 22.0221 12.2982 21.3416 12.2467C21.0777 12.2267 20.8109 12.2459 20.5459 12.2348C20.3517 12.2267 20.2279 12.0921 20.2293 11.9164C20.2305 11.7441 20.3554 11.5858 20.5314 11.6155C20.9402 11.684 21.1559 11.4757 21.3227 11.1514C21.3731 11.0536 21.451 10.9702 21.5092 10.8757C21.5422 10.8216 21.5603 10.7585 21.5851 10.6996C21.5225 10.684 21.4599 10.6551 21.3972 10.6548C20.3602 10.6522 19.3228 10.6381 18.2861 10.6566C16.9974 10.6796 15.9673 11.2281 15.2157 12.2745C14.6764 13.0254 14.4829 13.8767 14.5356 14.7596C14.8035 14.7844 15.0556 14.8082 15.3421 14.8349C15.6145 14.5684 15.7116 14.518 16.0682 14.4783C16.2216 14.4612 16.3754 14.4505 16.5285 14.4305C17.222 14.3404 17.8806 14.1733 18.4295 13.6948C18.7538 13.412 19.2127 13.4298 19.5537 13.7111C19.8939 13.9916 20.2757 14.1888 20.7008 14.2859C21.0963 14.3764 21.4992 14.4401 21.9013 14.4961C22.1515 14.5309 22.3605 14.6214 22.5362 14.8026C22.5685 14.8356 22.6367 14.8545 22.6841 14.8486C22.905 14.8211 23.1244 14.783 23.3846 14.7422ZM12.599 28.3514C14.0322 28.3514 15.4084 28.3514 16.7839 28.3514C15.8891 26.7769 15.8599 25.0416 15.7798 23.3155C15.7416 23.3118 15.7175 23.307 15.6938 23.3073C14.2709 23.3333 12.9481 24.3855 12.725 25.7906C12.5923 26.6246 12.6353 27.4867 12.599 28.3514ZM21.0574 28.3525C22.3935 28.3525 23.7056 28.3525 25.034 28.3525C23.4332 27.1316 23.0866 25.5538 23.6415 23.6998C23.17 23.4404 22.6752 23.3077 22.1207 23.3121C22.1207 23.4437 22.1233 23.5597 22.1204 23.6754C22.0951 24.7013 22.0032 25.7191 21.7501 26.7172C21.6048 27.2917 21.4024 27.8436 21.0574 28.3525ZM19.8498 28.3577C19.6871 27.3747 19.5218 26.4085 19.3713 25.4396C19.3413 25.2473 19.272 25.172 19.0785 25.2028C18.9821 25.218 18.8802 25.2146 18.7827 25.2035C18.6345 25.1865 18.5822 25.2443 18.56 25.3918C18.4747 25.9589 18.3743 26.5241 18.2801 27.0897C18.2105 27.5085 18.1426 27.9274 18.0718 28.3577C18.6678 28.3577 19.2464 28.3577 19.8498 28.3577ZM16.4206 24.3281C16.5196 25.0186 16.6004 25.6783 16.7123 26.3332C16.8005 26.8503 16.9495 27.3532 17.2131 27.8132C17.275 27.9211 17.355 28.0182 17.4518 28.156C17.4718 28.0715 17.4822 28.0378 17.4877 28.003C17.6426 27.0734 17.7913 26.1427 17.9562 25.215C17.9933 25.0063 17.951 24.8588 17.8117 24.7688C17.2405 24.9507 16.8921 24.5471 16.4206 24.3281ZM20.4421 28.0526C20.4595 28.0545 20.4769 28.0563 20.4944 28.0582C21.2386 26.9381 21.3264 25.6464 21.4617 24.3651C21.1667 24.5115 20.8991 24.6476 20.6282 24.7773C20.4591 24.8581 20.2875 24.8889 20.1415 24.7387C19.9795 24.8696 19.9217 25.003 19.9625 25.212C20.0848 25.8414 20.1767 26.4767 20.2816 27.1094C20.3339 27.424 20.3887 27.7383 20.4421 28.0526ZM25.6274 17.9256C25.6374 17.9742 25.6381 17.9994 25.6474 18.0201C25.9468 18.6962 26.2448 19.3726 26.5517 20.0449C26.5736 20.0924 26.6614 20.135 26.7196 20.1369C27.028 20.1458 27.3368 20.1358 27.6451 20.1439C27.7522 20.1469 27.7945 20.1031 27.8319 20.0123C27.9676 19.6817 28.1114 19.3548 28.2522 19.0261C28.3141 18.8815 28.3757 18.7366 28.4439 18.5765C28.0206 18.5765 27.627 18.5765 27.2189 18.5765C27.2404 18.6554 27.2704 18.714 27.2693 18.7718C27.2674 18.8667 27.2763 18.9875 27.2237 19.0483C27.1614 19.1206 27.0291 19.1899 26.9454 19.1725C26.8449 19.1517 26.7207 19.0561 26.6815 18.9616C26.5588 18.6665 26.4758 18.3556 26.366 18.055C26.3464 18.0016 26.2745 17.9353 26.2222 17.9312C26.0328 17.9167 25.8412 17.9256 25.6274 17.9256ZM17.7249 21.8414C17.6256 22.2162 17.7231 22.5108 18.0563 22.6847C18.3165 22.8203 18.5963 22.9185 18.8709 23.0249C18.9239 23.0457 18.9984 23.0449 19.0518 23.0249C19.3105 22.9282 19.5755 22.8407 19.819 22.7136C20.1608 22.5357 20.3183 22.2499 20.2015 21.8374C19.3813 22.1061 18.55 22.1039 17.7249 21.8414ZM17.3005 24.0968C17.5214 23.8322 17.7208 23.5938 17.9006 23.3781C17.7183 23.2239 17.524 23.082 17.3572 22.913C17.1304 22.6828 17.1186 22.6683 16.8217 22.8029C16.7494 22.8359 16.6834 22.8829 16.6123 22.9189C16.4314 23.0104 16.4184 23.1465 16.4885 23.3196C16.6475 23.7128 16.9647 23.93 17.3005 24.0968ZM20.62 24.0964C20.9124 23.9582 21.1997 23.7658 21.3757 23.443C21.5433 23.1354 21.511 23.0186 21.206 22.8566C21.0877 22.794 20.9554 22.7554 20.8261 22.718C20.7898 22.7073 20.729 22.7258 20.6997 22.7528C20.468 22.9693 20.2408 23.1909 20.0333 23.3911C20.2064 23.5998 20.4058 23.8392 20.62 24.0964ZM19.795 24.0812C19.3724 23.566 18.5444 23.5668 18.1033 24.1175C18.2935 24.2513 18.3176 24.5712 18.6293 24.5708C19.0841 24.5701 19.5952 24.7032 19.795 24.0812Z" fill="#B92025" stroke="#B92025" stroke-width="0.2"/>
<path d="M28.0753 23.6428C28.0064 23.7236 27.9489 23.8496 27.8588 23.8804C27.761 23.9141 27.6305 23.8671 27.519 23.8385C27.4801 23.8285 27.4563 23.7655 27.4219 23.7307C27.3159 23.6228 27.1921 23.5887 27.0523 23.6569C26.9222 23.7207 26.8574 23.8304 26.8763 23.9734C26.897 24.1328 26.999 24.224 27.1565 24.2499C27.2414 24.264 27.3288 24.2648 27.4122 24.2848C27.7895 24.3756 28.0712 24.6817 28.1235 25.0509C28.1802 25.4508 28.0015 25.8285 27.6543 26.0209C27.5638 26.0709 27.5023 26.1131 27.4849 26.2318C27.463 26.3811 27.3407 26.463 27.191 26.4649C27.0416 26.4667 26.9148 26.3896 26.893 26.2392C26.8737 26.1065 26.7918 26.0664 26.7006 26.0016C26.5824 25.9175 26.4712 25.8137 26.3852 25.6973C26.2795 25.5542 26.3251 25.3678 26.4608 25.2711C26.5909 25.178 26.7614 25.198 26.8792 25.3218C26.9048 25.3485 26.9234 25.3819 26.9493 25.4078C27.0553 25.5146 27.1776 25.5516 27.3188 25.4842C27.4589 25.4171 27.5175 25.3003 27.4927 25.1502C27.4678 24.9986 27.3663 24.9152 27.218 24.8897C27.1272 24.8741 27.0331 24.8737 26.9445 24.8511C26.5672 24.7551 26.2973 24.4449 26.2432 24.0535C26.1932 23.6906 26.3852 23.3004 26.7173 23.1202C26.8103 23.0698 26.8655 23.0213 26.8867 22.9097C26.9171 22.7518 27.0397 22.6692 27.1987 22.6762C27.3566 22.6832 27.4515 22.7778 27.4986 22.9331C27.5182 22.9972 27.5749 23.0554 27.6265 23.1039C27.7373 23.2088 27.8618 23.2992 27.9674 23.409C28.0149 23.4579 28.0293 23.5387 28.0753 23.6428Z" fill="#B92025" stroke="#B92025" stroke-width="0.2"/>
</svg>
