<svg width="88" height="88" viewBox="0 0 88 88" fill="none" xmlns="http://www.w3.org/2000/svg">
<path d="M27.0121 62.0942C25.817 63.2813 24.686 64.4065 23.4853 65.6009C24.455 66.5131 25.4467 67.4454 26.4457 68.3849C24.9151 69.9216 23.511 71.3545 22.0757 72.7565C21.6908 73.1316 21.0364 73.0569 20.723 72.6618C20.3765 72.2266 20.3875 71.7733 20.7908 71.3764C21.7495 70.4314 22.7191 69.4973 23.6576 68.5833C22.2554 67.2105 20.9081 65.8904 19.4912 64.5049C18.8111 65.1822 18.0394 65.9505 17.2695 66.7171C17.0752 66.9101 16.8901 67.114 16.683 67.2942C16.2009 67.713 15.662 67.7185 15.2807 67.2888C14.8847 66.8409 14.9141 66.3711 15.3283 65.9487C16.1294 65.1348 16.9469 64.3373 17.7534 63.5289C18.3473 62.9335 18.9321 62.3327 19.6103 61.6444C20.459 62.553 21.249 63.3978 22.0152 64.2172C23.2342 63.0064 24.367 61.8811 25.5292 60.725C19.3225 54.0537 16.7086 46.2045 18.2612 37.1736C19.4307 30.3658 22.9189 24.8489 28.3905 20.5938C39.0295 12.3203 54.5388 13.3345 64.0687 22.9062C73.9194 32.8001 74.7058 48.1327 65.8138 58.9279C60.9837 64.7907 54.6726 68.079 47.06 68.6853C39.4767 69.2898 32.8008 66.972 27.0121 62.0942ZM44.8878 66.8882C58.7272 66.9173 70.0114 55.727 70.0462 41.9403C70.0811 28.1427 58.8134 16.9232 44.9098 16.9123C31.0484 16.9032 19.7808 28.0625 19.735 41.8474C19.6891 55.6032 30.9953 66.8591 44.8878 66.8882Z" fill="#B92025" stroke="#B92025"/>
<path d="M44.812 54.4058C43.6077 53.1804 42.5647 52.0971 41.4979 51.0356C39.2158 48.7669 36.8988 46.5328 34.6405 44.2423C32.3602 41.9318 31.693 39.1697 32.8258 36.1455C33.9476 33.1449 36.2609 31.5116 39.4687 31.2112C41.2394 31.0455 42.8727 31.539 44.3299 32.544C44.6764 32.7825 44.8817 32.7625 45.2153 32.5331C48.5019 30.2808 52.9378 30.9108 55.4766 33.9697C57.9934 37.003 57.7569 41.391 54.9469 44.2023C51.5906 47.5634 48.2545 50.9372 44.812 54.4058ZM44.724 35.5737C44.4436 35.2551 44.1888 34.8946 43.8662 34.6124C42.3741 33.3069 40.6327 32.8299 38.6989 33.2923C36.5432 33.8076 35.1006 35.1714 34.4975 37.2816C33.8926 39.3955 34.4114 41.3018 35.975 42.8658C38.7978 45.6898 41.6519 48.4847 44.4949 51.2905C44.5866 51.3815 44.7002 51.4507 44.8157 51.5381C44.9257 51.4416 45.0136 51.3688 45.0925 51.2905C47.9703 48.4556 50.861 45.6316 53.7242 42.7821C55.8139 40.701 55.889 37.3563 53.935 35.0949C52.0103 32.8663 48.6156 32.4712 46.2454 34.2246C45.7377 34.6033 45.2923 35.0658 44.724 35.5737Z" fill="#B92025" stroke="#B92025"/>
<path d="M47.5766 21.4166C56.751 22.0029 63.8741 28.4575 65.3002 37.4975C65.423 38.2804 65.4542 39.0816 65.4835 39.8772C65.5129 40.6347 65.1059 41.1153 64.512 41.1008C63.9438 41.088 63.5863 40.6419 63.568 39.9064C63.4397 35.1724 61.6726 31.1431 58.2155 27.8894C55.1159 24.9744 51.3893 23.4723 47.1202 23.3029C46.046 23.2611 45.63 22.957 45.6684 22.2815C45.7051 21.6169 46.178 21.3511 47.2339 21.4002C47.3493 21.4057 47.463 21.4112 47.5766 21.4166Z" fill="#B92025" stroke="#B92025"/>
</svg>
