<svg width="88" height="88" viewBox="0 0 88 88" fill="none" xmlns="http://www.w3.org/2000/svg">
<path d="M71.9707 66.8134C71.6185 67.87 71.0608 68.7211 69.9162 69.0146C69.564 69.1027 69.153 69.132 68.7715 69.132C53.5094 69.132 38.2474 69.132 22.9853 69.132C19.5514 69.132 16.9098 67.1069 16.1761 63.8783C16.0587 63.35 16 62.7924 16 62.2641C16 50.1132 16 37.9622 16 25.8112C16 22.0838 18.7589 19.1487 22.3689 19.002C23.2788 18.9726 23.6311 19.2661 23.6311 20.2053C23.6311 23.4339 23.6311 26.6624 23.6311 29.8909C23.6311 30.0964 23.6311 30.3312 23.6311 30.5953C24.1887 30.5953 24.7169 30.5953 25.2159 30.5953C26.2138 30.5953 27.1824 30.5953 28.1803 30.5953C29.0021 30.5953 29.4423 30.8888 29.4423 31.4758C29.4423 32.0628 29.0315 32.3856 28.2097 32.3856C26.8889 32.3856 25.5975 32.3856 24.2768 32.3856C24.1007 32.3856 23.9245 32.3856 23.6603 32.3856C23.6603 32.6498 23.6603 32.8846 23.6603 33.1194C23.6603 40.7504 23.6603 48.3815 23.6603 56.0125C23.6603 57.2746 23.4843 57.4801 22.2516 57.5975C19.8449 57.8323 18.0251 59.7399 17.8784 62.2054C17.7316 64.5534 19.4046 66.7547 21.7232 67.2243C22.1928 67.3123 22.6625 67.3416 23.1321 67.3416C38.3354 67.3416 53.5094 67.3416 68.7128 67.3416C69.8868 67.3416 70.1803 67.0188 70.1803 65.8448C70.1803 55.1907 70.1803 44.5366 70.1803 33.8825C70.1803 32.7966 70.0629 32.6204 69.0063 32.3856C68.478 32.2682 68.2139 31.8867 68.2726 31.3877C68.3313 30.9181 68.6834 30.6247 69.2411 30.6247C70.327 30.6247 71.3836 31.3584 71.7945 32.4444C71.8532 32.6205 71.9413 32.7672 72 32.9433C71.9707 44.2431 71.9707 55.5429 71.9707 66.8134ZM21.782 20.9685C21.6939 20.9685 21.6352 20.9685 21.5765 20.9685C19.2872 21.4968 17.7903 23.4045 17.7903 25.9286C17.7903 36.3773 17.7903 46.8553 17.7903 57.3039C17.7903 57.4507 17.8197 57.5974 17.8491 57.8322C18.847 56.8637 19.9035 56.2179 21.1656 55.9831C21.6645 55.8951 21.782 55.6603 21.782 55.1907C21.7526 43.979 21.782 32.7672 21.782 21.5848C21.782 21.35 21.782 21.1739 21.782 20.9685Z" fill="#B92025" stroke="#B92025" stroke-width="0.2"/>
<path d="M31.4669 42.1008C31.4669 36.9058 31.4669 31.6815 31.4669 26.4865C31.4669 26.3398 31.4669 26.193 31.4669 26.0463C31.4375 25.5473 31.4963 25.0777 32.0539 24.8722C32.6116 24.6668 32.9637 24.9897 33.2866 25.4006C34.5486 27.0735 35.84 28.7465 37.1314 30.4488C44.0581 39.518 50.9847 48.5872 57.9407 57.6563C58.0581 57.8031 58.2049 57.9792 58.2929 58.1553C58.6158 58.713 58.2929 59.388 57.6472 59.476C57.4711 59.5054 57.295 59.5054 57.0896 59.5054C48.9889 59.5054 40.9176 59.5054 32.817 59.5054C31.7017 59.5054 31.4375 59.2706 31.4375 58.126C31.4669 52.7842 31.4669 47.4425 31.4669 42.1008ZM55.6514 57.6563C48.1671 47.8828 40.7709 38.1972 33.316 28.4236C33.316 38.2559 33.316 47.9415 33.316 57.6563C40.7415 57.6563 48.1377 57.6563 55.6514 57.6563Z" fill="#B92025" stroke="#B92025" stroke-width="0.2"/>
<path d="M60.4648 44.2122C60.4648 38.5183 60.4648 32.8536 60.4648 27.1597C60.4648 26.7488 60.5529 26.2792 60.6996 25.8977C61.2279 24.5182 61.7856 23.1681 62.3139 21.7887C62.49 21.3484 62.7248 20.9669 63.2824 20.9375C63.8107 20.9375 64.0749 21.319 64.251 21.7593C64.8087 23.1681 65.3956 24.6063 65.9239 26.0151C66.0413 26.338 66.1294 26.7195 66.1294 27.0717C66.1294 38.4302 66.1294 49.7593 66.1294 61.1178C66.1294 62.644 65.4251 63.3485 63.8988 63.3485C63.3999 63.3485 62.9009 63.3485 62.4313 63.3485C61.1986 63.3191 60.4648 62.5854 60.4648 61.3527C60.4648 59.8852 60.4648 58.3883 60.4648 56.9208C60.4648 52.6944 60.4648 48.4386 60.4648 44.2122ZM62.3139 28.5685C62.3139 38.2834 62.3139 47.9396 62.3139 57.6252C62.989 57.6252 63.6346 57.6252 64.2803 57.6252C64.2803 47.9103 64.2803 38.2541 64.2803 28.5685C63.6346 28.5685 63.0183 28.5685 62.3139 28.5685ZM62.2845 59.5329C62.2845 60.1492 62.2845 60.707 62.2845 61.2646C62.2845 61.382 62.4606 61.5581 62.5487 61.5581C63.1357 61.5874 63.6933 61.5581 64.2803 61.5581C64.2803 60.8243 64.2803 60.1786 64.2803 59.5329C63.6346 59.5329 63.0183 59.5329 62.2845 59.5329ZM63.3118 24.2835C62.9596 25.164 62.6661 25.8977 62.3432 26.6902C63.0183 26.6902 63.6053 26.6902 64.2803 26.6902C63.9575 25.8977 63.664 25.164 63.3118 24.2835Z" fill="#B92025" stroke="#B92025" stroke-width="0.2"/>
<path d="M49.7813 30.6289C52.2173 30.6289 54.6241 30.6289 57.0601 30.6289C57.2656 30.6289 57.4711 30.6288 57.6472 30.6582C58.1168 30.7462 58.3809 31.0398 58.4102 31.5094C58.4396 31.979 58.1168 32.3311 57.6178 32.3898C57.4417 32.4192 57.2656 32.4192 57.0601 32.4192C52.188 32.4192 47.3452 32.4192 42.4731 32.4192C41.5633 32.4192 41.123 32.1257 41.123 31.5094C41.123 30.893 41.5633 30.6289 42.5025 30.6289C44.9386 30.6289 47.3452 30.6289 49.7813 30.6289Z" fill="#B92025" stroke="#B92025" stroke-width="0.2"/>
<path d="M36.3086 46.8216C36.3086 44.6497 36.3086 42.4484 36.3086 40.2765C36.3086 39.7776 36.3967 39.3667 36.925 39.1613C37.4827 38.9558 37.8054 39.2787 38.1283 39.6896C41.5329 44.1214 44.9082 48.5827 48.3128 53.0146C48.5769 53.3668 48.7825 53.7189 48.577 54.1592C48.3716 54.6288 47.9313 54.6874 47.4617 54.6874C44.1745 54.6874 40.8579 54.6874 37.5707 54.6874C36.6315 54.6874 36.338 54.394 36.338 53.4548C36.3086 51.2242 36.3086 49.0229 36.3086 46.8216ZM45.8474 52.8091C43.2646 49.4338 40.7405 46.1173 38.2164 42.8301C38.1871 42.8594 38.1576 42.8888 38.1283 42.9181C38.1283 46.2053 38.1283 49.4925 38.1283 52.8091C40.6817 52.8091 43.2352 52.8091 45.8474 52.8091Z" fill="#B92025" stroke="#B92025" stroke-width="0.2"/>
</svg>
