<svg width="88" height="88" viewBox="0 0 88 88" fill="none" xmlns="http://www.w3.org/2000/svg">
<path d="M25.3722 72.9982C24.7582 72.8185 24.1158 72.6969 23.536 72.4501C21.2658 71.486 19.9981 69.8875 20 67.4975C20.0057 54.4887 20 41.4815 20.0038 28.4727C20.0057 25.2227 22.7211 22.6494 26.2287 22.5913C28.0725 22.5595 29.9182 22.586 31.8681 22.586C31.8681 21.925 31.8662 21.2923 31.8681 20.6613C31.8699 19.5986 32.2736 19.1844 33.4295 19.1562C34.7275 19.1262 36.0275 19.1386 37.3274 19.1474C37.642 19.1491 37.8277 19.0892 37.9793 18.7878C39.2564 16.2675 41.411 14.9791 44.405 15.0003C47.3801 15.0214 49.6389 16.167 50.899 18.7825C50.9786 18.9482 51.2723 19.1209 51.4713 19.1262C52.6878 19.158 53.9063 19.135 55.1247 19.1474C55.4658 19.1509 55.8202 19.1668 56.148 19.2478C56.8434 19.4188 57.1163 19.7695 57.1277 20.434C57.1391 21.1284 57.1296 21.8228 57.1296 22.5842C57.8478 22.5842 58.5129 22.5754 59.1761 22.586C60.6959 22.6124 62.2308 22.5313 63.7335 22.7058C66.6972 23.0477 68.9863 25.5258 68.99 28.307C69.0033 41.4463 69.0033 54.5874 68.99 67.7267C68.9882 70.2664 66.9435 72.3743 64.084 72.8819C63.9287 72.9101 63.7789 72.9612 63.6274 73C50.8725 72.9982 38.1214 72.9982 25.3722 72.9982ZM31.8681 25.4253C31.7221 25.383 31.6842 25.3619 31.6463 25.3619C29.9826 25.3566 28.3188 25.3478 26.6532 25.3495C24.2977 25.3513 22.9561 26.6027 22.9561 28.7917C22.9561 41.6102 22.9561 54.4287 22.9561 67.2473C22.9561 67.3988 22.9523 67.5486 22.958 67.7002C22.9826 68.5356 23.3806 69.1789 24.1196 69.646C24.8359 70.099 25.6394 70.2435 26.4883 70.2435C38.4833 70.2417 50.4802 70.2435 62.4752 70.24C62.8182 70.24 63.1669 70.2153 63.5042 70.1624C65.1225 69.9104 66.0358 68.904 66.0377 67.3883C66.0377 54.4763 66.0377 41.5626 66.0377 28.6507C66.0377 26.6837 64.6658 25.3795 62.551 25.3531C61.3136 25.3372 60.0743 25.3495 58.8369 25.3495C58.2931 25.3495 57.7492 25.3495 57.2433 25.3495C57.1864 25.443 57.1504 25.4747 57.1504 25.5064C57.141 26.4493 57.1315 27.394 57.1296 28.337C57.1258 29.6289 56.5516 30.1805 55.1873 30.1805C48.0433 30.1823 40.8975 30.1823 33.7535 30.1805C32.4346 30.1805 31.8737 29.6535 31.8699 28.4198C31.8662 27.4205 31.8681 26.4229 31.8681 25.4253ZM54.1166 21.8986C52.847 21.8986 51.6342 21.8986 50.4196 21.8986C49.1594 21.8986 48.7236 21.5884 48.3806 20.4604C47.833 18.6468 46.0479 17.4431 44.1075 17.577C42.3452 17.6986 40.8728 18.883 40.3555 20.5944C40.0713 21.5373 39.5653 21.8951 38.5117 21.8986C38.1252 21.9004 37.7405 21.8986 37.3539 21.8986C36.5296 21.8986 35.7053 21.8986 34.9 21.8986C34.9 23.7827 34.9 25.584 34.9 27.3887C41.3276 27.3887 47.7098 27.3887 54.1147 27.3887C54.1166 25.5593 54.1166 23.7704 54.1166 21.8986Z" fill="#B92025"/>
<path d="M51.5409 37.7929C54.3189 37.7929 57.0969 37.7911 59.8749 37.7947C60.7295 37.7964 61.3188 38.1683 61.5121 38.8063C61.7452 39.573 61.2241 40.3696 60.3751 40.5142C60.1174 40.5582 59.8502 40.56 59.5887 40.56C54.2355 40.5618 48.8804 40.5618 43.5272 40.56C43.3036 40.56 43.08 40.5618 42.8601 40.5353C42.0567 40.4401 41.5356 39.8867 41.545 39.1571C41.5545 38.4415 42.106 37.8669 42.9037 37.807C43.4286 37.7682 43.9573 37.7929 44.4841 37.7929C46.8376 37.7929 49.1893 37.7929 51.5409 37.7929Z" fill="#B92025"/>
<path d="M51.5962 59.8768C54.2927 59.8768 56.9911 59.8732 59.6876 59.8803C59.987 59.8803 60.3016 59.8997 60.5858 59.9825C61.2093 60.1623 61.5864 60.721 61.556 61.3361C61.5257 61.9477 61.0861 62.457 60.4399 62.5875C60.186 62.6386 59.9169 62.6527 59.6554 62.6527C54.2605 62.6562 48.8656 62.6562 43.4726 62.6527C43.23 62.6527 42.9837 62.6439 42.7468 62.6033C42.0343 62.4835 41.5625 61.9618 41.5454 61.3026C41.5284 60.6346 41.9547 60.0953 42.6615 59.9367C42.9136 59.8803 43.1826 59.875 43.4442 59.875C46.1596 59.875 48.8789 59.8768 51.5962 59.8768Z" fill="#B92025"/>
<path d="M51.5669 48.833C54.3449 48.833 57.1229 48.8295 59.9009 48.8365C60.8199 48.8383 61.4206 49.2683 61.5419 49.9716C61.6821 50.7911 61.0682 51.5155 60.1681 51.5772C59.8459 51.5983 59.52 51.586 59.196 51.586C53.8825 51.586 48.5691 51.5877 43.2576 51.5842C42.221 51.5842 41.5805 51.0872 41.5464 50.2747C41.5104 49.4305 42.1225 48.8471 43.1135 48.84C45.1013 48.8259 47.0872 48.8348 49.075 48.8348C49.905 48.833 50.7369 48.833 51.5669 48.833Z" fill="#B92025"/>
<path d="M32.0105 49.9439C33.4848 48.6361 34.9553 47.3142 36.4504 46.017C36.7214 45.7826 37.0644 45.5658 37.4149 45.4742C38.063 45.305 38.7281 45.6346 39.0522 46.1845C39.3838 46.7467 39.2928 47.3213 38.73 47.8236C37.0625 49.3111 35.3835 50.7863 33.7065 52.265C33.4412 52.4995 33.1873 52.7444 32.905 52.9577C32.2664 53.4441 31.5122 53.4371 30.9304 52.8995C29.8939 51.9443 28.8725 50.9749 27.8739 49.9844C27.2732 49.3904 27.3035 48.5092 27.8814 47.9945C28.4746 47.4658 29.3349 47.5099 30.0019 48.1162C30.3354 48.4193 30.6462 48.7436 30.9778 49.0468C31.2942 49.3376 31.6259 49.6125 32.0105 49.9439Z" fill="#B92025"/>
<path d="M32.0103 38.9067C33.5281 37.5637 35.0365 36.2225 36.5525 34.8883C37.174 34.3419 37.7974 34.2432 38.4266 34.5693C39.3248 35.0363 39.537 36.0497 38.8018 36.7142C36.8537 38.4732 34.8792 40.2074 32.8895 41.9276C32.2831 42.4511 31.5157 42.4017 30.9264 41.8554C29.922 40.9248 28.9291 39.9818 27.9513 39.0248C27.2881 38.3762 27.2805 37.4932 27.8925 36.9521C28.4781 36.4357 29.3896 36.5062 30.0604 37.1319C30.6743 37.7065 31.2788 38.2899 31.889 38.868C31.8985 38.8803 31.9231 38.8803 32.0103 38.9067Z" fill="#B92025"/>
<path d="M32.062 60.9492C33.5324 59.6467 35.0541 58.2931 36.5833 56.9484C37.239 56.372 37.9723 56.3174 38.6147 56.7721C39.3613 57.3009 39.4883 58.1839 38.8156 58.7884C36.8676 60.5474 34.893 62.2834 32.9052 64.0036C32.2799 64.5447 31.5086 64.49 30.8966 63.9172C29.9093 62.9972 28.9296 62.0684 27.9632 61.1272C27.2962 60.4769 27.2753 59.6009 27.876 59.051C28.4654 58.5135 29.3768 58.6016 30.0893 59.2414C30.7147 59.8053 31.3627 60.3464 32.062 60.9492Z" fill="#B92025"/>
</svg>
