<svg width="42" height="38" viewBox="0 0 42 38" fill="none" xmlns="http://www.w3.org/2000/svg">
<path d="M30.6938 31.9877C23.8399 31.9877 16.986 31.9877 10.1321 31.9877C10.0926 31.9745 10.0539 31.9558 10.013 31.9496C9.40179 31.8596 8.91237 31.5633 8.52126 31.0891C8.22359 30.7278 8.0893 30.3021 8 29.8549C8 24.9642 8 20.0735 8 15.1821C8.009 15.1683 8.02423 15.1551 8.02631 15.1399C8.18414 13.9423 9.21904 13.0272 10.5675 13.0832C11.1082 13.1054 11.6502 13.0929 12.1915 13.0825C12.3196 13.0798 12.4601 13.0438 12.5716 12.9822C13.0222 12.733 13.4639 12.4665 13.9097 12.2076C17.2317 10.2727 20.5552 8.34 23.8759 6.40241C24.5972 5.98153 25.3379 5.85762 26.1277 6.19059C26.6753 6.4211 27.0498 6.82953 27.3378 7.33417C28.3934 9.18315 29.454 11.0294 30.5048 12.8811C30.5989 13.0465 30.7104 13.1255 30.8931 13.1511C31.2877 13.2065 31.6331 13.3816 31.9391 13.6315C32.56 14.1382 32.8162 14.8104 32.8162 15.5961C32.8162 16.687 32.8196 17.7787 32.8127 18.8697C32.8113 19.0358 32.8598 19.1182 33.0128 19.1957C33.6386 19.5149 33.9778 20.0417 33.9875 20.7415C34.0048 21.9336 34.0034 23.127 33.9881 24.319C33.9791 25.0306 33.6316 25.5602 32.9969 25.8807C32.848 25.9555 32.8127 26.0379 32.8134 26.1895C32.8189 27.2887 32.8183 28.3887 32.8155 29.488C32.8134 30.3131 32.5206 31.0019 31.8533 31.5142C31.5085 31.78 31.107 31.897 30.6938 31.9877ZM31.6131 26.0835C31.3943 26.0835 31.2088 26.0849 31.0233 26.0835C29.924 26.0752 28.8212 26.1147 27.7254 26.0462C25.8038 25.925 24.2981 24.0269 24.5626 22.1343C24.8236 20.2673 26.28 18.9978 28.1719 18.9915C29.2297 18.9881 30.2867 18.9908 31.3445 18.9908C31.4338 18.9908 31.5231 18.9908 31.6138 18.9908C31.6138 17.7434 31.6144 16.5348 31.6124 15.3254C31.6124 15.259 31.5971 15.1911 31.5791 15.1267C31.4227 14.5723 30.97 14.267 30.2999 14.267C23.718 14.2663 17.1362 14.267 10.5544 14.267C9.64131 14.267 9.1775 14.7273 9.1775 15.6376C9.17681 20.2313 9.17681 24.825 9.1775 29.4188C9.1775 30.345 9.64061 30.8102 10.5641 30.8102C17.1293 30.8109 23.6938 30.8109 30.259 30.8102C31.1603 30.8102 31.6248 30.3512 31.6269 29.4582C31.629 28.4261 31.6276 27.394 31.6269 26.3618C31.6262 26.2788 31.6186 26.1964 31.6131 26.0835ZM30.0216 24.886C30.0216 24.8887 30.0216 24.8922 30.0216 24.895C30.7152 24.895 31.4088 24.8984 32.1025 24.8936C32.5891 24.8908 32.8127 24.6665 32.8148 24.1757C32.8189 23.0847 32.8183 21.9931 32.8148 20.9021C32.8134 20.403 32.5836 20.1711 32.0859 20.1697C30.7831 20.1663 29.4803 20.1628 28.1782 20.1704C27.2983 20.1759 26.5701 20.5165 26.1021 21.2732C25.1316 22.8432 26.145 24.7752 27.9919 24.8797C28.6662 24.9178 29.3453 24.886 30.0216 24.886ZM14.8546 13.0251C14.858 13.0459 14.8615 13.0666 14.865 13.0874C15.5295 13.0874 16.1941 13.0936 16.8579 13.0825C16.9936 13.0805 17.1445 13.0438 17.2615 12.9759C20.1772 11.2848 23.0902 9.58672 26.0031 7.89004C26.0717 7.84989 26.1374 7.80489 26.2046 7.76198C25.8093 7.14934 25.1814 7.01435 24.5328 7.39093C22.1072 8.80103 19.6844 10.2132 17.2601 11.6247C16.4578 12.0919 15.6562 12.5585 14.8546 13.0251ZM26.8054 8.79134C24.3591 10.216 21.9418 11.624 19.5244 13.0313C19.5293 13.05 19.5341 13.0694 19.539 13.0881C19.6193 13.0881 19.6996 13.0881 19.7799 13.0881C20.3544 13.0881 20.9297 13.0971 21.5043 13.0819C21.6642 13.0777 21.84 13.0327 21.9771 12.9531C23.7111 11.9535 25.4396 10.9449 27.1689 9.93769C27.2388 9.89685 27.3052 9.84908 27.3828 9.79855C27.1883 9.45866 27.0048 9.13815 26.8054 8.79134ZM29.2594 13.077C28.8178 12.3052 28.4011 11.5776 27.976 10.8348C26.6988 11.579 25.45 12.3065 24.2019 13.0341C24.2082 13.0486 24.2151 13.0625 24.2213 13.077C25.8813 13.077 27.5413 13.077 29.2594 13.077Z" fill="#B92025"/>
<path d="M28.0759 21.3633C28.7266 21.3585 29.261 21.8804 29.2679 22.527C29.2742 23.1694 28.7418 23.7093 28.0966 23.7142C27.4501 23.7197 26.9171 23.1971 26.9074 22.547C26.897 21.9026 27.4245 21.3682 28.0759 21.3633Z" fill="#B92025"/>
</svg>
