<svg width="88" height="88" viewBox="0 0 88 88" fill="none" xmlns="http://www.w3.org/2000/svg">
<path d="M55.5964 71.9968C54.5479 71.7795 53.4819 71.6264 52.4553 71.3348C46.8351 69.735 42.4602 64.5508 41.8025 58.7673C40.8925 50.7584 45.8536 43.7732 53.7152 41.9941C61.9589 40.1289 70.4943 45.9431 71.7848 54.3035C71.8519 54.7337 71.9278 55.1624 72.0007 55.5911C72.0007 56.4296 72.0007 57.2682 72.0007 58.1067C71.9686 58.2262 71.9219 58.3444 71.9044 58.4669C70.9945 64.8075 67.5237 69.0788 61.501 71.2312C60.4175 71.6177 59.2436 71.7475 58.1105 71.9954C57.2735 71.9968 56.4349 71.9968 55.5964 71.9968ZM69.6689 56.5376C69.4078 49.2447 63.4916 43.7324 56.2162 44.0065C49.2339 44.269 43.7391 50.3224 44.0133 57.449C44.2758 64.2927 50.3145 69.9173 57.1276 69.6636C64.2936 69.3967 69.9182 63.5111 69.6689 56.5376Z" fill="#C23C40"/>
<path d="M25.3274 22.9985C25.3274 22.6339 25.3215 22.3291 25.3288 22.0229C25.3492 21.1115 25.7692 20.6842 26.6763 20.6769C27.805 20.6682 28.9337 20.6754 30.0828 20.6754C30.1353 20.5165 30.1835 20.3809 30.2243 20.2438C30.9593 17.7399 33.2065 16.0206 35.7716 16.0002C38.3673 15.9798 40.6335 17.616 41.3889 20.1257C41.5333 20.6055 41.7535 20.6944 42.1895 20.6827C43.1184 20.6565 44.0488 20.6682 44.9778 20.6769C45.9081 20.6842 46.3106 21.0867 46.3267 22.0069C46.3325 22.3131 46.3281 22.6208 46.3281 23C47.1681 23 47.9629 22.9795 48.7576 23.0058C49.5568 23.0306 50.3749 23.0014 51.1478 23.1706C53.8179 23.7568 55.6189 26.0346 55.6714 28.8695C55.7122 31.1284 55.6874 33.3902 55.6772 35.6491C55.6743 36.4818 55.193 37.0053 54.4901 36.9951C53.7902 36.9864 53.3352 36.4614 53.3323 35.6199C53.325 33.4515 53.3337 31.2816 53.3279 29.1131C53.3221 26.7711 51.8827 25.3318 49.5436 25.3259C48.5053 25.323 47.4685 25.3259 46.3281 25.3259C46.3281 25.6759 46.331 25.9938 46.3281 26.3117C46.3092 28.5444 44.8509 29.9983 42.6168 29.9997C38.0961 30.0026 33.5769 30.0026 29.0562 29.9997C26.8338 29.9983 25.3522 28.5254 25.3303 26.3088C25.3274 26.0026 25.3303 25.6978 25.3303 25.2734C23.8385 25.3318 22.3889 25.2632 20.9817 25.4761C19.4724 25.6992 18.4545 27.089 18.3378 28.6887C18.3276 28.8346 18.3276 28.9804 18.3276 29.1262C18.3276 39.0411 18.3261 48.9574 18.3276 58.8723C18.3276 60.7112 19.2682 62.0689 20.8781 62.5107C21.3098 62.6288 21.7764 62.6653 22.2271 62.6667C27.4579 62.677 32.6888 62.6726 37.9197 62.674C38.71 62.674 39.1738 62.9817 39.2963 63.5665C39.4406 64.2621 38.9915 64.8965 38.2857 64.9869C38.1778 65 38.0669 64.9971 37.9576 64.9971C32.5984 64.9971 27.2406 65.0073 21.8814 64.9927C19.1136 64.9854 16.8358 63.1976 16.1839 60.5377C16.06 60.0302 16.0104 59.4935 16.0089 58.97C15.9987 48.9822 15.9973 38.993 16.0046 29.0052C16.0075 25.5345 18.5376 23.0131 22.0098 23C23.0991 22.9941 24.1884 22.9985 25.3274 22.9985ZM44.0007 22.9985C42.9303 22.9985 41.9139 22.9985 40.8989 22.9985C39.7542 22.997 39.3954 22.6675 39.3123 21.5402C39.184 19.7917 37.7563 18.4268 35.9568 18.332C34.2506 18.243 32.6669 19.538 32.3957 21.2456C32.1259 22.9343 32.0486 23 30.3045 23C29.5943 23 28.8841 22.9985 28.1739 23.0014C28.0164 23.0014 27.8604 23.0204 27.7102 23.0306C27.6971 23.1356 27.684 23.1895 27.684 23.2435C27.681 24.1899 27.6796 25.1378 27.6796 26.0842C27.681 27.315 28.0412 27.6752 29.2764 27.6752C33.6483 27.6752 38.0203 27.6752 42.3908 27.6752C42.5541 27.6752 42.7203 27.6825 42.8822 27.6635C43.5588 27.5877 43.9847 27.1531 43.9963 26.4736C44.0138 25.3434 44.0007 24.2147 44.0007 22.9985Z" fill="#C23C40"/>
<path d="M35.9088 34.6741C39.6084 34.6741 43.3067 34.6741 47.0063 34.6741C47.2061 34.6741 47.4088 34.6683 47.6071 34.6872C48.2094 34.7456 48.6542 35.2224 48.6673 35.8101C48.679 36.3657 48.2692 36.8703 47.7063 36.9738C47.5473 37.003 47.3796 36.9957 47.2163 36.9957C39.6361 36.9972 32.0545 36.9972 24.4744 36.9928C24.241 36.9928 23.996 36.9782 23.7773 36.9067C23.264 36.739 22.9592 36.2359 23.0117 35.7153C23.0671 35.1699 23.49 34.7441 24.0471 34.6872C24.2454 34.6668 24.4481 34.6726 24.6479 34.6726C28.4015 34.6741 32.1551 34.6741 35.9088 34.6741Z" fill="#C23C40"/>
<path d="M32.3423 41.6718C34.9848 41.6718 37.6272 41.6587 40.2681 41.6864C40.621 41.6908 41.0906 41.7987 41.2933 42.0378C41.5222 42.3091 41.6127 42.7932 41.5806 43.168C41.5397 43.642 41.13 43.8928 40.6648 43.9759C40.4883 44.008 40.3017 43.9934 40.1194 43.9934C34.9264 43.9949 29.7335 43.9934 24.5405 43.9934C24.4501 43.9934 24.3582 43.9949 24.2678 43.9919C23.5299 43.9701 23.0122 43.4947 23.0079 42.8341C23.002 42.1662 23.5037 41.6791 24.2532 41.6747C26.203 41.6631 28.1527 41.6704 30.1024 41.6689C30.8491 41.6718 31.5957 41.6718 32.3423 41.6718Z" fill="#C23C40"/>
<path d="M30.0363 48.6732C31.8927 48.6732 33.7491 48.6703 35.604 48.6746C36.4761 48.6776 37.0127 49.1369 36.9981 49.8515C36.9836 50.5456 36.4498 50.9948 35.6172 50.9962C31.8694 50.9991 28.1201 50.9991 24.3723 50.9962C23.5484 50.9962 23.0103 50.5325 23.0059 49.8383C23.0001 49.1384 23.5236 48.679 24.3592 48.6761C26.252 48.6688 28.1449 48.6732 30.0363 48.6732Z" fill="#C23C40"/>
<path d="M55.6772 55.6736C55.6772 54.2416 55.6772 52.8971 55.6772 51.5525C55.6772 50.9882 55.6656 50.4224 55.6831 49.858C55.7064 49.1391 56.1745 48.6753 56.8439 48.6797C57.5016 48.6841 57.9901 49.1653 57.9959 49.8755C58.0105 51.6794 58.0003 53.4819 58.0032 55.2857C58.0032 55.3922 58.0192 55.4987 58.0324 55.6722C58.2409 55.6722 58.4363 55.6722 58.6303 55.6722C60.2883 55.6722 61.945 55.6693 63.603 55.6736C64.4765 55.6766 65.0132 56.1374 64.9971 56.8519C64.9826 57.5461 64.4474 57.9938 63.6132 57.9952C61.9377 57.9982 60.2621 57.9967 58.5851 57.9967C58.4086 57.9967 58.2307 57.9967 58.0003 57.9967C58.0003 59.0277 58.0003 60.0062 58.0003 60.9847C58.0003 61.8962 58.0076 62.8061 57.9974 63.7175C57.9886 64.4627 57.5161 64.979 56.857 64.9935C56.176 65.0081 55.6845 64.4875 55.6787 63.7088C55.6685 62.0332 55.6758 60.3577 55.6743 58.6806C55.6743 58.4823 55.6743 58.284 55.6743 58.0244C55.4512 58.0142 55.2602 57.9982 55.0691 57.9982C53.3571 57.9967 51.6451 58.0025 49.9316 57.9938C49.201 57.9894 48.7125 57.5446 48.6833 56.8942C48.6498 56.1738 49.1237 55.6839 49.9126 55.678C51.6072 55.6649 53.3002 55.6737 54.9948 55.6722C55.196 55.6737 55.3943 55.6736 55.6772 55.6736Z" fill="#C23C40"/>
</svg>
