<svg width="42" height="38" viewBox="0 0 42 38" fill="none" xmlns="http://www.w3.org/2000/svg">
<path d="M15.9686 19.0395C15.9686 18.7528 15.9737 18.4791 15.9647 18.2054C15.9628 18.1448 15.926 18.0608 15.8776 18.0292C14.6931 17.261 14.0912 16.1636 14.0222 14.7331C13.9177 14.7331 13.8157 14.7337 13.7138 14.7331C13.0203 14.7286 12.4997 14.247 12.4861 13.5995C12.4726 12.9456 12.968 12.4421 13.657 12.4091C13.6886 12.4079 13.7209 12.404 13.7841 12.3982C13.6757 12.178 13.5751 11.9708 13.4725 11.7649C12.7409 10.2963 13.3267 8.83157 14.8589 8.25059C15.0918 8.16215 15.2918 7.97753 15.4963 7.82324C16.2228 7.27518 17.0401 6.99179 17.9472 7.00018C18.2659 7.00341 18.6072 7.02019 18.8981 7.13316C19.631 7.41784 20.3839 7.68962 21.0503 8.09566C22.3167 8.86772 22.769 10.4861 22.2019 11.8863C22.1361 12.0496 22.0645 12.2103 21.9826 12.402C22.4271 12.393 22.7993 12.5079 23.069 12.8494C23.2451 13.0728 23.3348 13.3277 23.3206 13.6131C23.3019 14.001 23.147 14.3471 22.8058 14.5181C22.5019 14.6705 22.1451 14.7163 21.8161 14.8073C21.7361 15.1772 21.6813 15.6033 21.5497 16.0041C21.2768 16.8362 20.7478 17.4876 20.0155 17.9659C19.8859 18.0511 19.8252 18.1338 19.8349 18.2926C19.8497 18.5334 19.8388 18.7754 19.8388 19.0446C20.1897 19.1066 20.5349 19.1699 20.8807 19.228C21.8335 19.3874 22.7877 19.5436 23.7399 19.705C23.9109 19.7341 24.0451 19.7147 24.2064 19.6108C24.3992 19.4862 24.6502 19.3939 24.8779 19.3906C26.1598 19.37 27.4417 19.3771 28.7236 19.3822C29.3997 19.3848 29.8926 19.8851 29.9016 20.5642C29.9062 20.9341 29.9023 21.304 29.9023 21.7043C30.1732 21.7043 30.4281 21.7043 30.6829 21.7043C31.1829 21.7043 31.6829 21.701 32.1829 21.7049C32.6777 21.7088 32.9983 22.029 32.9983 22.528C33.0002 25.0772 33.0002 27.6271 32.9983 30.1763C32.9977 30.6914 32.6706 30.9994 32.1338 30.9994C27.8365 31 23.5386 31 19.2414 31C16.0163 31 12.7913 31 9.56621 31C9.10751 31 9.00107 30.8916 9.00042 30.4281C9.00042 27.822 8.99913 25.216 9.00107 22.6106C9.00236 21.1194 9.93845 20.0459 11.4139 19.8115C12.8854 19.5772 14.3538 19.3248 15.8234 19.0795C15.8634 19.073 15.9008 19.0582 15.9686 19.0395ZM23.7025 20.4984C23.6515 20.4822 23.6141 20.4655 23.5748 20.459C22.3909 20.2615 21.2039 20.0807 20.0252 19.858C19.6859 19.7941 19.4639 19.8683 19.2523 20.1207C19.1549 20.2369 19.1304 20.3228 19.1846 20.4603C19.2678 20.6695 19.3233 20.8896 19.4039 21.1C19.4775 21.2924 19.4478 21.457 19.3304 21.6223C19.1672 21.8521 19.0239 22.0967 18.8569 22.3233C18.7556 22.4602 18.7362 22.5744 18.8078 22.7384C19.0136 23.2109 19.202 23.6912 19.382 24.1741C19.4272 24.2948 19.4497 24.4459 19.422 24.5698C19.0549 26.1966 18.6743 27.8201 18.3027 29.4455C18.2524 29.6663 18.153 29.8212 17.9124 29.8354C17.7053 29.8477 17.5717 29.7154 17.5072 29.4372C17.1389 27.8517 16.7673 26.2676 16.4137 24.6795C16.3731 24.4981 16.4015 24.2812 16.4608 24.1011C16.5892 23.7119 16.7337 23.3233 16.9176 22.9579C17.075 22.6448 17.026 22.4176 16.8331 22.1329C16.1969 21.1936 16.2763 21.57 16.6008 20.521C16.6176 20.4674 16.6389 20.4145 16.6518 20.3596C16.6602 20.3228 16.6705 20.2783 16.6582 20.246C16.5737 20.0194 16.1802 19.8031 15.946 19.8425C14.5318 20.0788 13.1216 20.346 11.7016 20.5391C10.2739 20.7327 9.74814 21.7423 9.76427 22.7649C9.80104 25.1527 9.77588 27.5419 9.77588 29.9303C9.77588 30.0239 9.77588 30.1175 9.77588 30.2086C10.8255 30.2086 11.8442 30.2086 12.8803 30.2086C12.8803 28.0144 12.8803 25.8389 12.8803 23.6589C13.1429 23.6589 13.3874 23.6589 13.6583 23.6589C13.6583 25.8564 13.6583 28.0376 13.6583 30.2131C15.9879 30.2131 18.2911 30.2131 20.6136 30.2131C20.6136 30.104 20.6136 30.0091 20.6136 29.9142C20.6136 27.4696 20.6129 25.0243 20.6142 22.5796C20.6142 22.0199 20.9239 21.7081 21.4774 21.7068C22.1387 21.7055 22.7999 21.7068 23.4612 21.7062C23.5393 21.7062 23.6167 21.6991 23.7019 21.6952C23.7025 21.2892 23.7025 20.9038 23.7025 20.4984ZM15.3176 11.4563C15.1409 11.8359 14.8563 12.1832 14.8325 12.5486C14.7744 13.4381 14.768 14.3438 14.866 15.2289C15.0312 16.7142 16.3995 17.8355 17.9156 17.8317C19.4201 17.8278 20.7703 16.7033 20.9439 15.2301C21.0323 14.4813 20.9574 13.7151 21.0097 12.9604C21.051 12.3672 20.6813 11.9611 20.4845 11.4609C18.7556 12.7274 17.0543 12.7261 15.3176 11.4563ZM21.3884 22.4892C21.3884 22.8862 21.3852 23.2568 21.389 23.6273C21.4006 24.728 22.2393 25.5678 23.3412 25.5768C24.0509 25.5826 24.7605 25.5781 25.4702 25.5775C25.5237 25.5775 25.5773 25.5684 25.6469 25.562C25.6469 25.194 25.6444 24.8403 25.6476 24.4872C25.6508 24.1709 25.7902 24.0321 26.1076 24.0295C26.5592 24.0263 27.0108 24.0275 27.4624 24.0288C27.8411 24.0301 27.9675 24.1573 27.9688 24.5382C27.9701 24.8816 27.9688 25.2244 27.9688 25.5723C28.8185 25.5723 29.6333 25.5975 30.4461 25.5652C31.2603 25.5323 31.999 24.9242 32.1519 24.1237C32.2525 23.5944 32.2241 23.0405 32.2538 22.4886C28.603 22.4892 25.0095 22.4892 21.3884 22.4892ZM27.9856 26.3528C27.8927 27.4211 27.5578 27.8724 26.8592 27.9001C26.565 27.9117 26.3037 27.8214 26.0747 27.638C25.665 27.3095 25.616 26.8511 25.6482 26.3528C24.8637 26.3528 24.1076 26.3534 23.3515 26.3528C22.6716 26.3521 22.0735 26.1275 21.5548 25.6898C21.5103 25.6524 21.4613 25.6207 21.4058 25.5801C21.4058 26.6252 21.4058 27.6451 21.4058 28.6657C25.016 28.6657 28.6094 28.6657 32.2132 28.6657C32.2132 27.6361 32.2132 26.6181 32.2132 25.5704C32.1667 25.6033 32.1409 25.6175 32.1196 25.6369C31.5532 26.1501 30.8842 26.3676 30.1255 26.3554C29.4165 26.3444 28.7081 26.3528 27.9856 26.3528ZM17.2053 9.9051C16.4331 8.70311 15.1809 8.75217 14.5273 9.2983C13.8241 9.88638 13.7299 10.9418 14.3448 11.6913C14.5028 11.3763 14.6544 11.0677 14.8118 10.7617C14.9783 10.4377 15.2009 10.388 15.4983 10.6042C15.726 10.7701 15.9453 10.9489 16.1808 11.1032C16.924 11.5906 17.7298 11.7423 18.604 11.5512C19.2491 11.4105 19.7542 11.0283 20.2613 10.6417C20.6187 10.3692 20.8232 10.4183 21.0232 10.814C21.16 11.0845 21.2968 11.3556 21.4419 11.6429C21.9993 10.5726 21.509 9.15951 20.3929 8.5895C19.9562 8.36679 19.5091 8.15763 19.0517 7.98204C18.1072 7.6199 17.193 7.72189 16.264 8.23897C16.9634 8.47201 17.4775 8.86901 17.8311 9.48744C17.6163 9.63139 17.4163 9.76438 17.2053 9.9051ZM21.3987 30.2092C25.0179 30.2092 28.6159 30.2092 32.2151 30.2092C32.2151 29.9529 32.2151 29.7141 32.2151 29.4649C28.6056 29.4649 25.0076 29.4649 21.3987 29.4649C21.3987 29.716 21.3987 29.9549 21.3987 30.2092ZM26.6766 21.6881C27.4991 21.6881 28.3081 21.6881 29.1301 21.6881C29.1301 21.3337 29.1313 20.9961 29.1301 20.6578C29.1288 20.2834 28.9991 20.1562 28.6165 20.1556C27.6417 20.155 26.6669 20.1556 25.6928 20.1556C25.6328 20.1556 25.5728 20.1556 25.5121 20.1556C26.0702 20.5552 26.4611 21.0594 26.6766 21.6881ZM17.884 27.6335C17.9266 27.5761 17.9408 27.5651 17.944 27.5522C18.173 26.5652 18.402 25.5781 18.6259 24.5898C18.644 24.5085 18.642 24.4097 18.613 24.3329C18.4407 23.8823 18.262 23.4343 18.0737 22.9902C18.0504 22.9353 17.962 22.8759 17.9033 22.8765C17.8453 22.8765 17.7595 22.9359 17.7343 22.9921C17.6311 23.2187 17.5692 23.4659 17.4492 23.6822C17.1711 24.1838 17.1608 24.6808 17.3163 25.2295C17.5375 26.0068 17.6917 26.8034 17.884 27.6335ZM19.0652 18.4275C18.2756 18.6702 17.5156 18.6528 16.7427 18.434C16.7427 18.6599 16.7389 18.8452 16.7447 19.0298C16.7473 19.1066 16.7447 19.2086 16.7892 19.2557C17.1511 19.6314 17.524 19.9962 17.9117 20.3835C18.2885 20.0033 18.6523 19.6392 19.0104 19.2706C19.0446 19.2357 19.0607 19.1705 19.062 19.1189C19.0685 18.9013 19.0652 18.6844 19.0652 18.4275ZM26.4211 24.8125C26.4211 25.4723 26.416 26.1068 26.4237 26.7407C26.4263 26.9693 26.5966 27.1248 26.8063 27.1255C27.0159 27.1261 27.1772 26.9706 27.1914 26.742C27.2004 26.5981 27.194 26.4528 27.194 26.3076C27.194 25.8118 27.194 25.316 27.194 24.8125C26.9269 24.8125 26.6888 24.8125 26.4211 24.8125ZM25.8521 21.701C25.5431 21.1233 25.1179 20.7663 24.5044 20.6307C24.5044 21.0006 24.5044 21.3492 24.5044 21.701C24.9483 21.701 25.3734 21.701 25.8521 21.701ZM17.2827 20.9451C17.1447 21.142 17.1788 21.3447 17.3563 21.5461C17.4563 21.6597 17.5279 21.7991 17.613 21.9263C17.7801 22.1742 18.0304 22.171 18.1995 21.9192C18.2891 21.7856 18.3653 21.6397 18.4711 21.5203C18.6478 21.3208 18.6414 21.1258 18.5169 20.9341C18.3188 21.0619 18.122 21.2885 17.924 21.2892C17.7163 21.2898 17.5072 21.0742 17.2827 20.9451ZM14.0202 13.9494C14.0202 13.6899 14.0202 13.4465 14.0202 13.2044C13.5074 13.1444 13.2687 13.26 13.2616 13.5634C13.2545 13.8623 13.4725 13.9778 14.0202 13.9494ZM21.7845 13.9539C22.0542 13.9449 22.3438 14.0456 22.4877 13.7519C22.54 13.6454 22.529 13.4549 22.4658 13.3542C22.3045 13.0986 22.0335 13.1928 21.7845 13.1948C21.7845 13.4504 21.7845 13.688 21.7845 13.9539Z" fill="#B92025"/>
</svg>
