<svg width="42" height="38" viewBox="0 0 42 38" fill="none" xmlns="http://www.w3.org/2000/svg">
<path d="M35.7511 30.5608C35.5701 31.1035 35.2837 31.5408 34.6957 31.6915C34.5148 31.7368 34.3037 31.7519 34.1077 31.7519C26.2679 31.7519 18.4281 31.7519 10.5882 31.7519C8.82427 31.7519 7.46737 30.7116 7.09046 29.0531C7.03015 28.7818 7 28.4953 7 28.2239C7 21.9822 7 15.7405 7 9.49879C7 7.58407 8.41717 6.0764 10.2716 6.00101C10.739 5.98594 10.9199 6.13671 10.9199 6.61916C10.9199 8.27758 10.9199 9.93604 10.9199 11.5945C10.9199 11.7 10.9199 11.8206 10.9199 11.9563C11.2064 11.9563 11.4777 11.9563 11.734 11.9563C12.2466 11.9563 12.7442 11.9563 13.2568 11.9563C13.6789 11.9563 13.9051 12.107 13.9051 12.4086C13.9051 12.7101 13.694 12.8759 13.2719 12.8759C12.5934 12.8759 11.9301 12.8759 11.2516 12.8759C11.1611 12.8759 11.0707 12.8759 10.935 12.8759C10.935 13.0116 10.935 13.1322 10.935 13.2528C10.935 17.1728 10.935 21.0927 10.935 25.0126C10.935 25.6609 10.8445 25.7665 10.2113 25.8268C8.97504 25.9474 8.04026 26.9273 7.96488 28.1938C7.88949 29.3999 8.74886 30.5307 9.93991 30.7719C10.1811 30.8171 10.4224 30.8322 10.6636 30.8322C18.4733 30.8322 26.2679 30.8322 34.0775 30.8322C34.6806 30.8322 34.8314 30.6663 34.8314 30.0633C34.8314 24.5905 34.8314 19.1177 34.8314 13.6449C34.8314 13.087 34.7711 12.9965 34.2283 12.8759C33.9569 12.8156 33.8212 12.6196 33.8514 12.3633C33.8816 12.1221 34.0625 11.9714 34.3489 11.9714C34.9067 11.9714 35.4495 12.3483 35.6606 12.9061C35.6907 12.9966 35.736 13.0719 35.7661 13.1624C35.751 18.9669 35.7511 24.7714 35.7511 30.5608ZM9.97009 7.01116C9.92486 7.01116 9.8947 7.01116 9.86454 7.01116C8.68857 7.28254 7.91965 8.26253 7.91965 9.55911C7.91965 14.9264 7.91965 20.3087 7.91965 25.676C7.91965 25.7514 7.93476 25.8267 7.94983 25.9474C8.46244 25.4498 9.00516 25.1181 9.65345 24.9975C9.90975 24.9523 9.97009 24.8317 9.97009 24.5905C9.95501 18.8312 9.97009 13.0719 9.97009 7.32776C9.97009 7.20715 9.97009 7.1167 9.97009 7.01116Z" fill="#B92025" stroke="#B92025" stroke-width="0.2"/>
<path d="M14.9448 17.8671C14.9448 15.1985 14.9448 12.5149 14.9448 9.8463C14.9448 9.77091 14.9448 9.69554 14.9448 9.62016C14.9297 9.36386 14.9599 9.12259 15.2463 9.01706C15.5328 8.91152 15.7137 9.0774 15.8795 9.28847C16.5278 10.1478 17.1912 11.0072 17.8545 11.8816C21.4126 16.5403 24.9707 21.199 28.5438 25.8576C28.6042 25.933 28.6796 26.0235 28.7248 26.114C28.8906 26.4004 28.7248 26.7471 28.3931 26.7924C28.3027 26.8074 28.2122 26.8075 28.1067 26.8075C23.9455 26.8075 19.7994 26.8075 15.6383 26.8075C15.0654 26.8075 14.9297 26.6868 14.9297 26.0989C14.9448 23.3549 14.9448 20.611 14.9448 17.8671ZM27.3679 25.8576C23.5233 20.8371 19.7241 15.8619 15.8946 10.8414C15.8946 15.892 15.8946 20.8673 15.8946 25.8576C19.709 25.8576 23.5083 25.8576 27.3679 25.8576Z" fill="#B92025" stroke="#B92025" stroke-width="0.2"/>
<path d="M29.8408 18.9519C29.8408 16.027 29.8408 13.1172 29.8408 10.1923C29.8408 9.98125 29.886 9.74004 29.9614 9.54404C30.2328 8.83544 30.5193 8.14193 30.7907 7.43333C30.8811 7.20718 31.0017 7.01117 31.2882 6.99609C31.5595 6.99609 31.6953 7.19209 31.7857 7.41824C32.0722 8.14191 32.3737 8.88068 32.645 9.60436C32.7054 9.7702 32.7506 9.96618 32.7506 10.1471C32.7506 15.9817 32.7506 21.8013 32.7506 27.6359C32.7506 28.4199 32.3888 28.7818 31.6048 28.7818C31.3485 28.7818 31.0922 28.7818 30.851 28.7818C30.2178 28.7667 29.8408 28.3898 29.8408 27.7566C29.8408 27.0028 29.8408 26.2338 29.8408 25.48C29.8408 23.309 29.8408 21.1229 29.8408 18.9519ZM30.7907 10.916C30.7907 15.9064 30.7907 20.8666 30.7907 25.8418C31.1374 25.8418 31.4691 25.8418 31.8008 25.8418C31.8008 20.8515 31.8008 15.8913 31.8008 10.916C31.4691 10.916 31.1525 10.916 30.7907 10.916ZM30.7756 26.8218C30.7756 27.1384 30.7756 27.4249 30.7756 27.7114C30.7756 27.7717 30.866 27.8621 30.9112 27.8621C31.2128 27.8772 31.4992 27.8621 31.8008 27.8621C31.8008 27.4852 31.8008 27.1535 31.8008 26.8218C31.4691 26.8218 31.1525 26.8218 30.7756 26.8218ZM31.3033 8.71485C31.1223 9.16714 30.9715 9.54407 30.8057 9.95114C31.1525 9.95114 31.454 9.95114 31.8008 9.95114C31.6349 9.54407 31.4842 9.16714 31.3033 8.71485Z" fill="#B92025" stroke="#B92025" stroke-width="0.2"/>
<path d="M24.3528 11.9727C25.6042 11.9727 26.8405 11.9727 28.0918 11.9727C28.1974 11.9727 28.3029 11.9726 28.3934 11.9877C28.6346 12.0329 28.7703 12.1837 28.7854 12.4249C28.8004 12.6662 28.6346 12.8471 28.3783 12.8772C28.2878 12.8923 28.1974 12.8923 28.0918 12.8923C25.5891 12.8923 23.1015 12.8923 20.5988 12.8923C20.1314 12.8923 19.9053 12.7415 19.9053 12.4249C19.9053 12.1083 20.1314 11.9727 20.6139 11.9727C21.8652 11.9727 23.1015 11.9727 24.3528 11.9727Z" fill="#B92025" stroke="#B92025" stroke-width="0.2"/>
<path d="M17.4326 20.2919C17.4326 19.1762 17.4326 18.0454 17.4326 16.9298C17.4326 16.6735 17.4779 16.4624 17.7493 16.3569C18.0357 16.2514 18.2015 16.4172 18.3674 16.6283C20.1162 18.9048 21.8501 21.1965 23.5989 23.4731C23.7346 23.654 23.8402 23.8349 23.7347 24.061C23.6291 24.3022 23.403 24.3324 23.1617 24.3324C21.4732 24.3324 19.7695 24.3324 18.0809 24.3324C17.5985 24.3324 17.4477 24.1816 17.4477 23.6992C17.4326 22.5534 17.4326 21.4226 17.4326 20.2919ZM22.3325 23.3675C21.0058 21.6337 19.7092 19.9301 18.4126 18.2415C18.3976 18.2566 18.3824 18.2716 18.3674 18.2867C18.3674 19.9753 18.3674 21.6639 18.3674 23.3675C19.679 23.3675 20.9907 23.3675 22.3325 23.3675Z" fill="#B92025" stroke="#B92025" stroke-width="0.2"/>
</svg>
