<svg width="42" height="38" viewBox="0 0 42 38" fill="none" xmlns="http://www.w3.org/2000/svg">
<path d="M30.8749 31C24.2476 31 17.6395 31 11.0056 31C11.0056 30.908 11.0056 30.8273 11.0056 30.7466C11.0056 29.2127 10.991 27.6788 11.0089 26.1455C11.0328 24.1601 11.9747 22.7656 13.7658 21.9546C14.7985 21.4871 15.8425 21.0436 16.9004 20.5808C16.862 20.5254 16.8362 20.4761 16.799 20.4374C16.4431 20.0659 16.1938 19.6298 15.999 19.1549C15.9539 19.0449 15.8538 18.9362 15.7504 18.8755C15.4435 18.6954 15.1213 18.542 14.8071 18.3733C14.4147 18.1626 14.2178 17.8211 14.1926 17.3836C14.1761 17.1015 14.1794 16.8167 14.1913 16.534C14.2165 15.9451 14.654 15.4689 15.2367 15.4202C15.405 15.4062 15.5807 15.4842 15.761 15.5216C15.761 15.2628 15.761 14.9467 15.761 14.6112C15.5091 14.6112 15.2632 14.6112 15.0073 14.6112C14.8973 13.1147 15.0199 11.6862 15.8518 10.399C16.5684 9.28927 17.5408 8.51632 18.7889 8.09216C18.8711 8.06415 18.9606 7.96878 18.9891 7.88475C19.1794 7.33055 19.601 7.00909 20.1796 7.00242C20.4362 6.99976 20.6934 6.99842 20.9499 7.00309C21.4987 7.01243 21.9375 7.33788 22.096 7.86741C22.1371 8.00613 22.21 8.06215 22.3379 8.10617C24.6195 8.89446 26.1063 10.9819 26.1182 13.4075C26.1202 13.7976 26.1182 14.1871 26.1182 14.5959C25.8531 14.5959 25.6072 14.5959 25.3427 14.5959C25.3427 14.9327 25.3427 15.2522 25.3427 15.5983C25.6582 15.2622 25.9976 15.4022 26.3118 15.5623C26.687 15.753 26.8799 16.0931 26.907 16.5113C26.9263 16.8101 26.9269 17.1122 26.9064 17.411C26.8752 17.8618 26.6373 18.1892 26.2448 18.402C25.9313 18.5714 25.6118 18.7294 25.3009 18.9028C25.2287 18.9429 25.1538 19.0162 25.1253 19.0909C24.9231 19.6184 24.6447 20.0953 24.2456 20.4968C24.2304 20.5121 24.2251 20.5388 24.2065 20.5808C24.8382 20.8536 25.464 21.1237 26.1189 21.4064C26.1189 21.0196 26.1288 20.6715 26.1162 20.3234C26.0997 19.8465 26.3131 19.4984 26.7088 19.2743C27.3465 18.9128 28.0074 18.9048 28.6563 19.2443C29.0865 19.4691 29.3199 19.8279 29.3026 20.3374C29.2894 20.7282 29.3 21.1203 29.3464 21.5405C29.8449 20.8396 30.3433 20.1386 30.8743 19.3917C30.8749 23.2931 30.8749 27.1372 30.8749 31ZM16.5737 14.6159C16.5737 15.7263 16.5637 16.8094 16.5763 17.8918C16.5889 18.9915 17.0827 19.8185 18.0359 20.3594C18.4105 20.5721 18.7936 20.7689 19.1741 20.9709C20.0994 21.4618 21.0274 21.4611 21.9554 20.9796C22.3081 20.7969 22.6568 20.6055 23.0061 20.4154C24.0143 19.8645 24.5207 19.0082 24.5267 17.8571C24.532 16.8574 24.528 15.8577 24.5274 14.858C24.5274 14.778 24.5201 14.6986 24.5161 14.6166C21.8626 14.6159 19.2324 14.6159 16.5737 14.6159ZM20.1352 30.199C20.1352 28.8605 20.1352 27.5414 20.1352 26.2096C19.5797 26.2096 19.0422 26.1949 18.5052 26.2136C17.9484 26.2329 17.4665 26.0568 17.0251 25.7327C16.2893 25.1932 15.5522 24.655 14.8157 24.1168C14.3285 23.7613 13.8413 23.4065 13.3495 23.0477C12.3764 23.786 11.8262 24.735 11.8077 25.9495C11.7865 27.3153 11.8024 28.6825 11.8024 30.049C11.8024 30.0963 11.809 30.1443 11.813 30.1944C12.7436 30.1944 13.6571 30.1944 14.597 30.1944C14.597 29.1253 14.597 28.0722 14.597 26.9985C14.8263 26.9985 15.0292 26.9985 15.2539 26.9985C15.1631 26.6204 15.0782 26.2676 14.9874 25.8894C15.2585 25.8361 15.5124 25.7867 15.7769 25.7354C15.8876 26.1735 15.9917 26.5824 16.1017 27.0172C17.0556 27.0172 18.0028 27.0172 18.9673 27.0172C18.9673 28.0936 18.9673 29.1406 18.9673 30.199C19.363 30.199 19.7402 30.199 20.1352 30.199ZM15.8896 12.5451C16.3854 12.1763 16.9415 12.2017 17.4964 12.2024C19.4757 12.2064 21.4543 12.2037 23.4336 12.2044C24.0415 12.2044 24.6606 12.1377 25.2134 12.5418C25.0093 10.7798 23.484 9.23992 22.1311 8.92114C22.1311 9.74744 22.1311 10.5684 22.1311 11.3841C21.8567 11.3841 21.6055 11.3841 21.3529 11.3841C21.3503 11.3227 21.3469 11.2813 21.3469 11.24C21.3463 10.257 21.3476 9.27393 21.3456 8.2909C21.3449 7.9341 21.2183 7.80672 20.871 7.80272C20.6642 7.80072 20.4567 7.80072 20.2499 7.80272C19.8813 7.80539 19.7567 7.92743 19.7561 8.29624C19.7547 9.23792 19.7554 10.1789 19.7554 11.1206C19.7554 11.2093 19.7554 11.2974 19.7554 11.3854C19.4737 11.3854 19.2225 11.3854 18.9467 11.3854C18.9467 10.5491 18.9467 9.73144 18.9467 8.90713C17.3273 9.40532 16.0573 11.0032 15.8896 12.5451ZM20.9605 30.211C21.6638 30.211 22.3492 30.215 23.0346 30.2044C23.1042 30.203 23.1924 30.1257 23.2388 30.0597C24.1707 28.7545 25.0981 27.4467 26.0241 26.1375C26.0652 26.0788 26.1129 26.0068 26.1143 25.9408C26.1215 25.3946 26.1182 24.8484 26.1182 24.2635C26.0241 24.3255 25.9631 24.3629 25.9055 24.4042C25.2883 24.8524 24.6599 25.2865 24.0581 25.7547C23.6365 26.0828 23.1791 26.2262 22.6528 26.2122C22.0927 26.1976 21.5319 26.2089 20.9605 26.2089C20.9605 27.5481 20.9605 28.8612 20.9605 30.211ZM24.6135 21.6125C24.2377 21.4405 23.8983 21.2731 23.5476 21.1323C23.4515 21.0937 23.3057 21.1003 23.2129 21.1463C22.8503 21.3271 22.505 21.5432 22.1437 21.7266C21.0579 22.2774 19.9662 22.2814 18.8804 21.7246C18.5125 21.5358 18.1566 21.3231 17.7907 21.1297C17.7257 21.095 17.6263 21.0663 17.5666 21.0917C17.1875 21.2517 16.8149 21.4278 16.4179 21.6092C16.7095 22.02 17.0237 22.3901 17.2557 22.8063C17.6793 23.5652 18.2653 23.9107 19.1476 23.822C19.6878 23.768 20.1067 24.1461 20.2572 24.6757C20.3367 24.9551 20.409 25.2372 20.4879 25.5173C20.5011 25.5646 20.5283 25.6087 20.5694 25.7C20.6582 25.3659 20.7338 25.0858 20.808 24.8057C20.9963 24.0968 21.3662 23.8087 22.0887 23.808C22.1961 23.808 22.3041 23.8067 22.4115 23.808C22.7635 23.8127 23.0803 23.692 23.2918 23.4199C23.7425 22.8396 24.1621 22.2334 24.6135 21.6125ZM30.0868 21.9086C28.0969 24.6837 26.1288 27.428 24.1449 30.195C26.15 30.195 28.1154 30.195 30.0868 30.195C30.0868 27.4333 30.0868 24.6877 30.0868 21.9086ZM15.8883 13.7909C19.0057 13.7909 22.1072 13.7909 25.2128 13.7909C25.0643 13.3008 24.6507 13.008 24.0932 13.006C22.9504 13.002 21.807 13.0047 20.6642 13.0047C19.4465 13.0047 18.2288 13.002 17.0118 13.006C16.4543 13.008 16.042 13.2974 15.8883 13.7909ZM19.6036 25.3979C19.5605 24.7217 19.4432 24.609 18.7956 24.609C18.779 24.609 18.7624 24.6083 18.7459 24.609C17.9166 24.6356 17.2783 24.3035 16.8136 23.6066C16.4451 23.0544 16.05 22.5209 15.6589 21.9686C15.1445 22.1954 14.6454 22.4155 14.1105 22.6509C15.3222 23.5319 16.4868 24.3842 17.6594 25.2239C17.7887 25.3166 17.963 25.3832 18.1201 25.3899C18.6133 25.4113 19.1084 25.3979 19.6036 25.3979ZM25.4421 21.9713C25.0325 22.5502 24.6314 23.1191 24.2277 23.6866C23.8744 24.1835 23.4031 24.5016 22.7979 24.5856C22.5461 24.621 22.2822 24.5776 22.0317 24.619C21.8872 24.643 21.7115 24.7323 21.6333 24.8491C21.5345 24.9971 21.5213 25.2025 21.4636 25.4093C21.9163 25.4093 22.3293 25.4079 22.7423 25.4099C23.0929 25.4113 23.4051 25.3106 23.6882 25.0971C24.3099 24.6276 24.9125 24.1254 25.5707 23.7153C26.0665 23.4065 26.2601 23.0324 26.162 22.4762C26.1593 22.4602 26.1679 22.4395 26.1607 22.4268C26.1229 22.3621 26.0964 22.2721 26.0394 22.2414C25.8518 22.1414 25.6516 22.064 25.4421 21.9713ZM28.5052 21.2857C28.2308 21.3257 27.9709 21.3924 27.7111 21.3924C27.4513 21.3924 27.1914 21.3257 26.9296 21.2884C26.9296 22.4675 26.9296 23.6579 26.9296 24.8804C26.9727 24.833 26.9959 24.8124 27.0138 24.787C27.4857 24.1248 27.9583 23.4639 28.425 22.799C28.4694 22.7356 28.4999 22.6489 28.5012 22.5722C28.5092 22.148 28.5052 21.7246 28.5052 21.2857ZM18.1486 28.5978C18.1486 28.3303 18.1486 28.0782 18.1486 27.8282C17.2193 27.8282 16.3065 27.8282 15.3924 27.8282C15.3924 28.0929 15.3924 28.339 15.3924 28.5978C16.3112 28.5978 17.2186 28.5978 18.1486 28.5978ZM18.1453 30.211C18.1453 29.9243 18.1453 29.6715 18.1453 29.4121C17.2412 29.4121 16.3562 29.4121 15.4713 29.4127C15.4488 29.4127 15.4256 29.4241 15.3957 29.4314C15.3957 29.6882 15.3957 29.9403 15.3957 30.211C15.4753 30.211 15.5403 30.211 15.6045 30.211C16.4477 30.211 17.2902 30.211 18.1453 30.211ZM15.7636 17.9672C15.7875 17.2956 15.938 16.624 15.1651 16.2652C14.837 16.5753 14.9742 16.9955 15.002 17.3576C15.0332 17.7544 15.4726 17.7638 15.7636 17.9672ZM25.875 16.2012C25.7563 16.3406 25.6642 16.4466 25.574 16.5546C25.4905 16.654 25.346 16.75 25.3374 16.8567C25.3075 17.2135 25.3261 17.5743 25.3261 17.9872C25.6257 17.7497 26.0917 17.7724 26.1043 17.3403C26.1143 16.9801 26.2707 16.562 25.875 16.2012ZM27.7038 20.6635C27.9378 20.5735 28.1698 20.5128 28.3713 20.3981C28.5523 20.2954 28.5397 20.152 28.3819 20.0153C28.0644 19.7405 27.3498 19.7412 27.0343 20.0173C26.8779 20.154 26.8679 20.2947 27.0502 20.3994C27.2458 20.5114 27.4691 20.5715 27.7038 20.6635Z" fill="#BA2026"/>
<path d="M25.7734 29.3933C26.9447 27.6327 28.0994 25.896 29.2879 24.1094C29.2879 25.9074 29.2879 27.642 29.2879 29.3933C28.1286 29.3933 26.9699 29.3933 25.7734 29.3933ZM27.2821 28.5984C27.7143 28.5984 28.0981 28.5984 28.4932 28.5984C28.4932 27.9995 28.4932 27.4126 28.4932 26.7483" fill="#BA2026"/>
</svg>
