<svg width="88" height="88" viewBox="0 0 88 88" fill="none" xmlns="http://www.w3.org/2000/svg">
<path d="M14.0315 46.3441C14.3149 45.8077 14.5353 45.2398 14.9131 44.7665C15.5114 44.0408 16.3301 43.7568 17.2747 43.7568C18.0618 43.7568 18.849 43.7568 19.6046 43.7568C21.6828 43.7568 22.9108 44.9558 23.0367 47.0067C23.0367 47.1013 23.0367 47.196 23.0682 47.4169C23.7294 47.4169 24.3906 47.3853 25.0204 47.4169C25.6816 47.4484 26.3429 47.5115 27.0356 47.5746C27.0356 45.1135 27.0356 42.6839 27.0356 40.0966C26.7837 40.3175 26.6262 40.4752 26.4373 40.633C25.8076 41.2325 25.1778 41.832 24.5166 42.4315C23.1312 43.6936 21.3049 43.6621 20.1084 42.4C18.9434 41.1379 19.0064 39.3078 20.3289 38.0457C22.47 35.9948 24.6426 33.9438 26.8152 31.9245C27.0985 31.6405 27.2245 31.3565 27.2245 30.9463C27.193 28.5168 27.193 26.0872 27.193 23.6576C27.193 22.2693 27.6653 21.796 29.0507 21.796C30.3417 21.796 31.6326 21.796 32.9236 21.796C34.372 21.796 34.8443 22.2377 34.8443 23.7207C34.8443 23.8469 34.8443 24.0047 34.8443 24.2886C35.0647 24.0993 35.1906 23.9732 35.3165 23.8469C37.3317 21.9538 39.3469 20.0291 41.362 18.1359C42.9679 16.6214 44.5737 16.6214 46.148 18.1359C50.1153 21.8591 54.0827 25.5823 58.05 29.3055C58.113 29.3686 58.176 29.4002 58.2075 29.4633C58.7113 29.9366 58.7743 30.473 58.4279 30.8517C58.0816 31.2303 57.5463 31.1987 57.0425 30.6939C53.0437 26.9391 49.0448 23.1844 45.0145 19.4296C44.0384 18.5145 43.4716 18.5145 42.4955 19.4296C35.5684 25.9926 28.6099 32.5239 21.6828 39.0869C21.4939 39.2762 21.3049 39.4656 21.1475 39.718C20.8641 40.1913 20.9586 40.8538 21.305 41.2325C21.6828 41.6742 22.3755 41.8005 22.8478 41.5165C23.1312 41.3588 23.3831 41.1379 23.635 40.8854C29.9953 34.8904 36.3871 28.8638 42.7475 22.8372C43.6291 21.9853 43.8495 21.9853 44.7312 22.8372C51.186 28.8954 57.6092 34.922 64.064 40.9801C64.4419 41.3587 64.8512 41.6743 65.4494 41.5796C66.4255 41.4218 66.8663 40.3806 66.3311 39.5602C66.2051 39.3393 66.0162 39.1816 65.8273 38.9923C64.3789 37.6355 62.9306 36.2787 61.4822 34.8904C61.3247 34.7327 61.1673 34.6065 61.0413 34.4172C60.7894 34.0385 60.8209 33.6598 61.1358 33.3443C61.4191 33.0603 61.7655 32.9973 62.1434 33.2181C62.2378 33.2497 62.3008 33.3128 62.3952 33.3759C64.0955 34.985 65.7958 36.5311 67.4646 38.1718C68.6297 39.3393 68.5981 41.1379 67.5276 42.3054C66.457 43.4728 64.6623 43.6305 63.4028 42.6208C62.5842 41.9582 61.86 41.201 61.0728 40.4752C60.9469 40.349 60.7894 40.2228 60.6004 40.065C60.6004 45.3975 60.6004 50.6037 60.6004 55.9361C60.8523 55.7783 61.0413 55.6521 61.1987 55.5575C63.4972 54.0114 65.7644 52.4653 68.0629 50.9508C70.0781 49.6256 72.5025 50.1935 73.5731 52.2445C74.2973 53.6328 74.1083 55.3682 72.9433 56.4725C71.1171 58.2079 69.2593 59.8487 67.4016 61.521C65.5754 63.1933 63.6547 64.8024 61.8914 66.5063C60.0022 68.3364 57.7981 69.2514 55.2162 69.5669C49.8635 70.2611 44.5422 71.0815 39.221 71.8703C37.5207 72.1227 35.9149 72.028 34.309 71.3969C30.5936 69.914 26.8466 68.5572 23.0682 67.1058C23.0367 67.3267 22.9737 67.4844 22.9422 67.6737C22.7218 69.1252 21.6198 70.198 20.14 70.2927C19.1009 70.3558 18.0618 70.3557 17.0227 70.3242C15.5428 70.261 14.5983 69.4723 14.126 68.0839C14.0945 67.9893 14.0315 67.9262 14 67.8316C14 67.0427 14 66.2538 14 65.4966C14.2519 65.0864 14.5668 64.7709 15.1021 64.9286C15.6688 65.0864 15.7317 65.5598 15.7317 66.0646C15.7317 66.4117 15.7317 66.7271 15.7317 67.0742C15.7632 68.1155 16.2985 68.6519 17.3376 68.6834C18.0933 68.6834 18.8174 68.6834 19.5731 68.6834C20.7381 68.6834 21.2734 68.1155 21.2734 66.9481C21.2734 65.0234 21.2734 63.0986 21.2734 61.2054C21.2734 56.5672 21.2734 51.9289 21.2734 47.2907C21.2734 46.0601 20.7697 45.5553 19.5417 45.5553C18.912 45.5553 18.2822 45.5553 17.6525 45.5553C16.1726 45.5553 15.7317 45.997 15.7317 47.48C15.7317 51.6765 15.7317 55.8415 15.7317 60.038C15.7317 60.5113 15.7003 61.0161 15.165 61.2054C14.6612 61.3948 14.3149 61.1108 14.0315 60.7322C14.0315 55.9046 14.0315 51.1401 14.0315 46.3441ZM23.0682 49.1838C23.0682 49.31 23.0367 49.3731 23.0367 49.4678C23.0367 54.6109 23.0367 59.754 23.0367 64.8971C23.0367 65.3073 23.2571 65.3704 23.5405 65.4966C27.6023 67.0427 31.6327 68.5888 35.6945 70.0718C36.3872 70.3242 37.2373 70.4504 37.9615 70.3242C43.8495 69.5353 49.7375 68.6519 55.6256 67.8316C57.3888 67.5791 58.9317 66.9165 60.2857 65.7175C63.3399 62.9408 66.394 60.1957 69.4797 57.4191C70.2354 56.7249 70.9912 56.0623 71.7154 55.3682C72.3136 54.7687 72.471 53.8851 72.1246 53.1594C71.7783 52.4022 71.0226 51.9289 70.204 52.0236C69.7632 52.0867 69.2908 52.276 68.913 52.5284C65.1031 55.0526 61.3247 57.6084 57.5148 60.1327C57.1684 60.3535 56.6961 60.5112 56.2868 60.4797C53.1381 60.2588 49.9894 60.038 46.8407 59.754C42.653 59.407 38.4653 59.0282 34.309 58.6812C33.6478 58.6181 33.2699 58.271 33.3014 57.7662C33.3329 57.2298 33.7737 56.9142 34.4349 56.9458C35.8518 57.072 37.2687 57.1982 38.6856 57.3244C42.9364 57.703 47.1556 58.0817 51.4063 58.4604C51.6582 58.4919 51.9102 58.4604 52.1306 58.4604C52.1306 56.6303 50.7766 55.0526 48.9819 54.8317C46.5889 54.5477 44.2273 54.2323 41.8343 54.0114C38.4338 53.6959 35.2536 52.8755 32.2938 51.1717C29.46 49.4994 26.3428 49.0261 23.0682 49.1838ZM38.2134 51.8343C38.2134 51.4241 38.2134 51.2347 38.2134 51.0139C38.2134 48.111 38.2134 45.1766 38.2134 42.2738C38.2134 41.1063 38.7802 40.4752 39.8192 40.4752C42.4956 40.4752 45.1719 40.4752 47.8483 40.4752C48.541 40.4752 49.0448 40.7907 49.3282 41.4218C49.4542 41.7058 49.4542 42.0529 49.4542 42.4C49.4857 45.8077 49.4856 49.2154 49.4856 52.6231C49.4856 52.9071 49.4542 53.191 49.8635 53.2857C52.3195 54.0114 53.5789 55.7152 53.8623 58.2079C53.8938 58.4919 53.9567 58.6496 54.3031 58.6812C56.3497 58.8705 56.3498 58.9021 58.0186 57.7662C58.176 57.6715 58.3019 57.5453 58.4594 57.4822C58.8372 57.2929 58.9316 57.0404 58.9316 56.6303C58.9002 50.7299 58.9002 44.861 58.9002 38.9607C58.9002 38.582 58.7743 38.3297 58.4909 38.0457C53.7049 33.5652 48.9504 29.0847 44.1644 24.6042C44.07 24.5095 43.944 24.4148 43.818 24.2886C43.6921 24.3833 43.5976 24.4465 43.5346 24.5411C38.7172 29.0847 33.8997 33.6283 29.0822 38.2034C28.9248 38.3612 28.7988 38.6767 28.7988 38.8976C28.7674 41.4218 28.7988 43.946 28.7988 46.4702C28.7988 46.9435 28.7988 47.4484 28.7988 47.9532C30.9085 48.4265 32.7347 49.4363 34.5924 50.3829C35.6944 50.9508 36.9224 51.3294 38.2134 51.8343ZM47.7223 52.907C47.7223 49.31 47.7223 45.7446 47.7223 42.1791C45.1089 42.1791 42.527 42.1791 39.9451 42.1791C39.9451 45.4606 39.9451 48.7105 39.9451 52.0236C42.5585 52.3391 45.1404 52.6231 47.7223 52.907ZM28.9562 29.9366C30.3731 28.6114 31.6956 27.3493 32.9865 26.1188C33.0495 26.0556 33.1125 25.9294 33.144 25.8348C33.144 25.1091 33.144 24.3518 33.144 23.6261C31.6956 23.6261 30.3417 23.6261 28.9562 23.6261C28.9562 25.677 28.9562 27.7279 28.9562 29.9366Z" fill="#B92025" stroke="#B92025" stroke-width="0.3"/>
</svg>
