<svg width="42" height="38" viewBox="0 0 42 38" fill="none" xmlns="http://www.w3.org/2000/svg">
<path d="M24.895 23.8454C20.8663 26.7088 15.6037 25.7054 12.8277 22.1168C10.1256 18.6235 10.4518 13.6448 13.593 10.5299C16.7052 7.44391 21.676 7.15284 25.0912 9.8125C28.6581 12.5907 29.694 17.836 26.854 21.8742C26.9063 21.9293 26.9608 21.9888 27.018 22.0462C28.5308 23.5605 30.0464 25.0726 31.5564 26.5897C32.1755 27.2119 32.1405 28.1519 31.4897 28.6895C30.9739 29.1158 30.2431 29.1213 29.7229 28.7006C29.6368 28.631 29.5578 28.5514 29.4795 28.473C28 26.9937 26.5211 25.5139 25.0439 24.033C24.9895 23.9796 24.9478 23.9133 24.895 23.8454ZM27.795 16.7736C27.815 12.3325 24.2264 8.7167 19.7781 8.69666C15.3464 8.67663 11.7339 12.2674 11.7039 16.7218C11.6739 21.1507 15.2742 24.7854 19.7153 24.8093C24.163 24.8338 27.7749 21.2414 27.795 16.7736ZM28.1217 26.1317C28.7681 26.7767 29.4061 27.415 30.0452 28.0517C30.3765 28.3817 30.805 28.4029 31.0956 28.1062C31.3802 27.8163 31.3585 27.3916 31.0384 27.0694C30.4509 26.4784 29.8607 25.8907 29.2744 25.2985C29.2216 25.2451 29.1899 25.1705 29.1532 25.1138C28.7859 25.4755 28.4652 25.7922 28.1217 26.1317ZM27.6393 23.7091C27.3237 24.0246 27.0024 24.3457 26.7168 24.6307C27.0197 24.9357 27.3392 25.2585 27.6377 25.559C27.9372 25.259 28.2551 24.9407 28.5619 24.6335C28.2568 24.3274 27.9395 24.0096 27.6393 23.7091ZM26.136 24.097C26.4528 23.7803 26.7751 23.4586 27.0764 23.1581C26.8574 22.9294 26.6279 22.6901 26.4339 22.488C26.1088 22.8047 25.7842 23.1208 25.4574 23.4392C25.6786 23.6534 25.912 23.8799 26.136 24.097Z" fill="#B92025"/>
<path d="M27.0978 16.7591C27.0917 20.8318 23.7971 24.1215 19.7378 24.107C15.6679 24.0931 12.3945 20.7984 12.4073 16.7291C12.42 12.6703 15.7113 9.39457 19.7678 9.40236C23.8243 9.41015 27.1039 12.702 27.0978 16.7591ZM23.6126 20.2597C24.1594 20.2597 24.6863 20.2547 25.2126 20.2631C25.3477 20.2653 25.4238 20.2252 25.4916 20.1067C26.3241 18.6463 26.6059 17.0858 26.2691 15.4407C25.2988 10.7074 19.8962 8.54307 15.938 11.2896C13.1181 13.2458 12.2672 17.1409 14.0095 20.0967C14.0829 20.2213 14.1618 20.2658 14.3046 20.2631C14.7698 20.2541 15.2355 20.2597 15.7007 20.2597C15.7663 20.2597 15.8319 20.2597 15.8913 20.2597C15.8913 18.791 15.8913 17.3569 15.8913 15.9037C15.8197 15.9472 15.7696 15.9828 15.7152 16.0095C15.5518 16.0902 15.3728 16.0462 15.2717 15.9032C15.1677 15.7568 15.185 15.581 15.3189 15.4496C15.3584 15.4112 15.4051 15.3795 15.4495 15.3461C16.7772 14.3488 18.105 13.3521 19.4327 12.3553C19.7139 12.1444 19.7928 12.1427 20.0768 12.3559C21.3662 13.3231 22.6544 14.2915 23.9427 15.2598C24.0261 15.3222 24.1128 15.3817 24.1878 15.4535C24.3173 15.5776 24.3323 15.773 24.2322 15.9093C24.1305 16.0484 23.9471 16.0902 23.7854 16.0089C23.7326 15.9822 23.6815 15.9511 23.6126 15.9127C23.6126 17.3674 23.6126 18.7988 23.6126 20.2597ZM22.8962 20.2536C22.8995 20.194 22.904 20.1534 22.904 20.1133C22.9045 18.5768 22.9068 17.0396 22.8984 15.503C22.8979 15.419 22.8317 15.3088 22.7617 15.2554C22.117 14.7606 21.4651 14.2759 20.8154 13.7878C20.4619 13.5224 20.1079 13.2569 19.7522 12.9898C18.7491 13.7433 17.7626 14.4879 16.7711 15.2253C16.6527 15.3133 16.6033 15.4006 16.6038 15.5498C16.6094 17.0446 16.6072 18.54 16.6072 20.0349C16.6072 20.1028 16.6072 20.1701 16.6072 20.2486C16.964 20.2486 17.2997 20.2486 17.6553 20.2486C17.6553 20.1629 17.6553 20.0877 17.6553 20.0132C17.6553 19.0604 17.6537 18.1076 17.6559 17.1548C17.657 16.6924 17.9332 16.4141 18.3928 16.4102C18.8097 16.4069 19.2259 16.4091 19.6428 16.4096C20.1863 16.4107 20.4503 16.6723 20.4508 17.211C20.4514 18.1499 20.4508 19.0888 20.4508 20.0276C20.4508 20.1011 20.4508 20.1746 20.4508 20.2536C21.2778 20.2536 22.0753 20.2536 22.8962 20.2536ZM14.6698 20.9671C14.6626 20.9849 14.6548 21.0027 14.6475 21.0199C16.1698 22.7474 18.0794 23.5761 20.388 23.3729C22.2004 23.2138 23.6865 22.389 24.8919 20.9665C21.4479 20.9671 18.0588 20.9671 14.6698 20.9671ZM19.74 17.1192C19.2776 17.1192 18.8252 17.1192 18.3673 17.1192C18.3673 18.1705 18.3673 19.204 18.3673 20.2452C18.8308 20.2452 19.2843 20.2452 19.74 20.2452C19.74 19.1962 19.74 18.1622 19.74 17.1192Z" fill="#B92025"/>
</svg>
