<svg width="42" height="38" viewBox="0 0 42 38" fill="none" xmlns="http://www.w3.org/2000/svg">
<path d="M24.4611 20.0502C25.0839 20.0502 25.6722 20.0552 26.2606 20.0438C26.3314 20.0424 26.4166 19.9707 26.4674 19.909C27.1073 19.1411 27.929 18.7629 28.9304 18.7743C29.6447 18.7828 30.3676 18.7423 31.0719 18.8346C32.1234 18.9722 32.9336 19.8841 32.9744 20.9401C33.0166 22.0471 32.993 23.157 32.9966 24.2655C32.9987 24.8687 33.0002 25.4719 32.9959 26.0751C32.9859 27.6015 32.0088 28.5709 30.4757 28.5645C29.7614 28.5616 29.0427 28.5765 28.3334 28.5077C27.6033 28.4367 27 28.0599 26.5361 27.4972C26.4001 27.3325 26.2649 27.2715 26.0609 27.2857C25.8483 27.3006 25.6336 27.2892 25.3895 27.2892C25.3838 27.4056 25.3752 27.5071 25.3752 27.6086C25.3745 28.717 25.3752 29.8262 25.3745 30.9347C25.3737 31.4257 25.2499 31.5464 24.7553 31.5471C24.0038 31.5471 23.2522 31.5478 22.5007 31.5471C22.0834 31.5464 21.9402 31.4066 21.9395 30.9851C21.9367 29.8411 21.9331 28.6965 21.9431 27.5525C21.9452 27.3396 21.8837 27.2616 21.6668 27.2374C21.0956 27.1722 20.5781 26.9515 20.1279 26.6002C19.9676 26.4753 19.8116 26.4348 19.6154 26.4348C16.2864 26.4391 12.9589 26.4377 9.6313 26.4377C9.11953 26.4377 9 26.3199 9 25.8104C9 19.4158 9 13.0212 9 6.6259C9 6.11638 9.11882 6 9.63202 6C14.3646 6 19.0965 6 23.8291 6C24.3416 6 24.4611 6.11709 24.4611 6.6259C24.4619 10.9632 24.4611 15.2999 24.4611 19.6372C24.4611 19.7607 24.4611 19.8841 24.4611 20.0502ZM23.5929 9.42828C19.0028 9.42828 14.4391 9.42828 9.87609 9.42828C9.87609 14.8201 9.87609 20.1907 9.87609 25.5719C12.9811 25.5719 16.0696 25.5719 19.1982 25.5719C18.8052 24.8871 18.7258 24.1682 18.7401 23.4231C18.7701 21.8605 19.8416 20.4817 21.387 20.1623C21.9903 20.0374 22.6302 20.0821 23.2537 20.0516C23.3646 20.0459 23.4755 20.0509 23.5929 20.0509C23.5929 16.4864 23.5929 12.9673 23.5929 9.42828ZM25.8912 20.9167C25.8569 20.9117 25.8218 20.9032 25.7875 20.9032C24.5535 20.9032 23.3188 20.8897 22.0848 20.9096C21.3311 20.9216 20.7063 21.2452 20.2145 21.8129C20.1258 21.9158 20.0556 22.0351 19.9533 22.1798C20.3004 22.1798 20.5939 22.1784 20.8874 22.1805C21.2195 22.1827 21.4235 22.3494 21.4184 22.6113C21.4142 22.8717 21.2116 23.0293 20.8752 23.0314C20.4579 23.0335 20.0399 23.0321 19.624 23.0321C19.624 23.3302 19.624 23.5977 19.624 23.878C20.0936 23.878 20.5402 23.8773 20.9868 23.878C21.2338 23.8787 21.3991 23.9901 21.4399 24.2392C21.485 24.5145 21.291 24.7203 20.9768 24.726C20.5796 24.7338 20.1816 24.7282 19.7593 24.7282C19.7865 24.8062 19.798 24.8481 19.8151 24.8871C19.8438 24.9517 19.8724 25.017 19.9075 25.0787C20.4021 25.9438 21.1522 26.4143 22.1535 26.4327C23.3517 26.4547 24.5499 26.4384 25.7488 26.4377C25.7975 26.4377 25.8461 26.4263 25.8955 26.4199C25.6937 25.2547 25.6923 22.4608 25.8912 20.9167ZM28.6677 24.9474C28.7078 25.4435 28.6863 25.9211 28.7958 26.3674C29.0098 27.2382 29.9396 27.8257 30.7985 27.7037C31.6502 27.583 32.1362 26.9422 32.1362 25.9402C32.1362 24.8679 32.1377 23.795 32.1355 22.7227C32.1341 22.1465 32.1498 21.5695 32.1162 20.9947C32.079 20.3525 31.603 19.8288 30.9746 19.6748C30.0541 19.4484 29.0284 20.0332 28.7936 20.9791C28.6834 21.4241 28.707 21.9016 28.6777 22.277C29.1322 22.4126 29.5352 22.4729 29.8759 22.6496C30.2531 22.8448 30.407 23.2336 30.4141 23.6601C30.4191 23.9738 30.3168 24.252 30.1149 24.4933C29.7513 24.9283 29.2496 24.9758 28.6677 24.9474ZM9.86822 8.53839C12.7305 8.53839 15.5664 8.53839 18.4029 8.53839C18.4029 7.96926 18.4029 7.41715 18.4029 6.87286C15.5478 6.87286 12.7127 6.87286 9.86822 6.87286C9.86822 7.43348 9.86822 7.9728 9.86822 8.53839ZM28.5188 27.6767C28.5002 27.6228 28.498 27.5937 28.483 27.5752C27.9949 26.9933 27.8317 26.3156 27.8388 25.5719C27.8517 24.2875 27.8374 23.0023 27.846 21.7171C27.8481 21.4269 27.8488 21.121 27.9383 20.8507C28.0722 20.4462 28.2833 20.0665 28.4594 19.6805C28.4415 19.6819 28.3807 19.6769 28.3241 19.6904C27.4323 19.8997 26.6686 20.7236 26.6392 21.6362C26.5955 22.9725 26.5948 24.3123 26.6335 25.6486C26.6607 26.586 27.3621 27.3772 28.2733 27.6306C28.3463 27.6519 28.4236 27.6597 28.5188 27.6767ZM24.4919 30.6863C24.4919 29.5438 24.4919 28.4247 24.4919 27.3056C23.9193 27.3056 23.3689 27.3056 22.8199 27.3056C22.8199 28.441 22.8199 29.5594 22.8199 30.6863C23.3846 30.6863 23.9272 30.6863 24.4919 30.6863ZM20.1208 8.54265C20.1208 7.96926 20.1208 7.41715 20.1208 6.87286C19.8309 6.87286 19.5596 6.87286 19.2948 6.87286C19.2948 7.43986 19.2948 7.98558 19.2948 8.54265C19.5732 8.54265 19.8373 8.54265 20.1208 8.54265ZM21.845 8.54194C21.845 7.97706 21.845 7.42567 21.845 6.86505C21.5745 6.86505 21.3197 6.86505 21.0527 6.86505C21.0527 7.42993 21.0527 7.98061 21.0527 8.54194C21.3247 8.54194 21.5795 8.54194 21.845 8.54194ZM22.7949 6.86647C22.7949 7.43986 22.7949 7.99125 22.7949 8.53697C23.0719 8.53697 23.3274 8.53697 23.5886 8.53697C23.5886 7.97351 23.5886 7.4278 23.5886 6.86647C23.3209 6.86647 23.0661 6.86647 22.7949 6.86647ZM28.7242 23.2493C28.7242 23.5452 28.7242 23.8127 28.7242 24.0909C29.0148 24.0838 29.3247 24.1846 29.4865 23.8794C29.5459 23.7673 29.5459 23.5714 29.4858 23.4593C29.324 23.1542 29.0141 23.2571 28.7242 23.2493Z" fill="#B92025"/>
<path d="M16.6762 17.9219C14.8782 17.9219 13.0795 17.9219 11.2815 17.9219C10.8248 17.9219 10.691 17.7892 10.691 17.3365C10.6903 15.1721 10.6903 13.0077 10.691 10.8433C10.691 10.3898 10.8241 10.2578 11.2808 10.2578C14.8953 10.2578 18.5099 10.2578 22.1238 10.2578C22.5805 10.2578 22.715 10.3905 22.715 10.8426C22.7157 13.007 22.7157 15.1714 22.715 17.3358C22.715 17.7885 22.5805 17.9212 22.1245 17.9219C20.3086 17.9219 18.4928 17.9219 16.6762 17.9219ZM11.5728 11.12C11.5728 12.9573 11.5728 14.7733 11.5728 16.6276C12.285 15.8803 12.9657 15.165 13.6471 14.4497C14.1152 13.9586 14.2304 13.955 14.7035 14.4284C14.8273 14.5519 14.9433 14.6831 15.0836 14.8336C15.3871 14.5242 15.6526 14.2503 15.9225 13.9806C16.2667 13.6364 16.4421 13.6393 16.7928 13.9884C17.7713 14.9613 18.7483 15.9357 19.7289 16.9072C19.7947 16.9724 19.8821 17.0604 19.9615 17.0619C20.5849 17.0746 21.2084 17.069 21.8418 17.069C21.8418 15.0727 21.8418 13.1021 21.8418 11.12C18.414 11.12 15.0013 11.12 11.5728 11.12ZM12.3845 17.0477C14.5074 17.0477 16.5731 17.0477 18.6152 17.0477C17.8643 16.304 17.1135 15.5595 16.3312 14.7839C16.0499 15.0727 15.7578 15.3821 15.4544 15.6809C15.221 15.9101 15.0077 15.9115 14.7765 15.6844C14.5933 15.5042 14.4301 15.3048 14.2483 15.1018C13.6041 15.7739 13.0086 16.3955 12.3845 17.0477Z" fill="#B92025"/>
<path d="M13.4885 20.4771C12.7477 20.4771 12.0062 20.4778 11.2654 20.4764C10.9225 20.4757 10.7314 20.3259 10.7257 20.0605C10.72 19.7845 10.9168 19.6255 11.2725 19.6255C12.7549 19.6248 14.2372 19.6248 15.7196 19.6255C16.0581 19.6255 16.2585 19.7817 16.2657 20.0407C16.2729 20.3103 16.0653 20.4757 15.7124 20.4757C14.9709 20.4778 14.2301 20.4771 13.4885 20.4771Z" fill="#B92025"/>
<path d="M13.4929 22.1802C12.7521 22.1802 12.0106 22.1809 11.2698 22.1795C10.9148 22.1788 10.7179 22.0184 10.7258 21.741C10.733 21.4763 10.9241 21.3287 11.2691 21.3287C12.7514 21.3279 14.2338 21.3279 15.7161 21.3287C16.0668 21.3287 16.2758 21.4976 16.2658 21.7665C16.2565 22.0255 16.0561 22.1788 15.7168 22.1795C14.9753 22.1809 14.2345 22.1802 13.4929 22.1802Z" fill="#B92025"/>
<path d="M13.4801 23.0319C14.2302 23.0319 14.9803 23.0305 15.7304 23.0326C16.0654 23.0333 16.2665 23.1965 16.2658 23.4584C16.2651 23.7188 16.0626 23.8827 15.729 23.8827C14.2381 23.8842 12.7464 23.8842 11.2555 23.8827C10.9177 23.8827 10.7258 23.7245 10.7266 23.4562C10.7273 23.1887 10.9184 23.0326 11.2577 23.0319C11.9978 23.0305 12.7393 23.0319 13.4801 23.0319Z" fill="#B92025"/>
<path d="M19.6932 11.9531C20.4104 11.9503 20.9938 12.5258 20.9895 13.2305C20.9852 13.9224 20.4097 14.4929 19.7068 14.5029C19.014 14.5128 18.422 13.9352 18.417 13.244C18.4127 12.523 18.9732 11.956 19.6932 11.9531ZM19.7068 12.8047C19.4656 12.8026 19.2795 12.9807 19.2766 13.2184C19.2738 13.4526 19.4627 13.647 19.6954 13.6506C19.9215 13.6534 20.127 13.4547 20.1305 13.2291C20.1341 12.9977 19.9437 12.8075 19.7068 12.8047Z" fill="#B92025"/>
</svg>
