<svg width="236" height="195" viewBox="0 0 236 195" fill="none" xmlns="http://www.w3.org/2000/svg">
<path fill-rule="evenodd" clip-rule="evenodd" d="M151.385 116.305C152.203 116.304 152.992 115.996 153.594 115.442C154.196 114.888 154.568 114.128 154.637 113.312C154.706 112.497 154.466 111.685 153.965 111.038C153.465 110.39 152.739 109.955 151.932 109.816H150.837C150.031 109.955 149.305 110.39 148.804 111.038C148.303 111.685 148.064 112.497 148.133 113.312C148.201 114.128 148.574 114.888 149.176 115.442C149.778 115.996 150.566 116.304 151.385 116.305ZM159.743 118.937C156.72 122.415 153.304 125.531 149.562 128.222H115.018V123.659H140.22C140.607 124.508 141.273 125.199 142.108 125.617C142.942 126.036 143.894 126.155 144.806 125.957C145.718 125.759 146.534 125.255 147.12 124.529C147.706 123.802 148.025 122.897 148.025 121.964C148.025 121.031 147.706 120.126 147.12 119.399C146.534 118.673 145.718 118.169 144.806 117.971C143.894 117.772 142.942 117.892 142.108 118.31C141.273 118.728 140.607 119.419 140.22 120.268H115.027V107.597C116.011 107.85 117.053 107.728 117.952 107.254C118.85 106.781 119.54 105.99 119.887 105.036C120.234 104.081 120.213 103.032 119.828 102.092C119.444 101.152 118.723 100.389 117.807 99.9514V90.0125L117.795 89.3096L115.027 86.3994V38.8551L118.643 41.568V73.0422C117.793 73.4294 117.102 74.0958 116.683 74.9306C116.265 75.7653 116.144 76.7182 116.343 77.6307C116.541 78.5432 117.045 79.3604 117.772 79.9465C118.499 80.5326 119.405 80.8522 120.339 80.8522C121.272 80.8522 122.178 80.5326 122.905 79.9465C123.632 79.3604 124.136 78.5432 124.334 77.6307C124.533 76.7182 124.412 75.7653 123.994 74.9306C123.575 74.0958 122.884 73.4294 122.034 73.0422V44.1107L129.504 49.7165V85.0085L122.875 88.3626V108.586C122.036 108.993 121.361 109.676 120.963 110.52C120.565 111.364 120.468 112.319 120.688 113.225C120.908 114.132 121.432 114.936 122.172 115.504C122.913 116.072 123.825 116.37 124.758 116.347C125.691 116.325 126.588 115.984 127.3 115.381C128.012 114.778 128.497 113.95 128.673 113.034C128.849 112.117 128.706 111.168 128.269 110.344C127.831 109.521 127.124 108.871 126.266 108.504V90.4367L132.888 87.0801V70.4157L141.863 75.7403V90.3923C141.013 90.7795 140.321 91.4458 139.903 92.2806C139.484 93.1154 139.364 94.0682 139.562 94.9807C139.76 95.8933 140.265 96.7105 140.992 97.2966C141.719 97.8826 142.624 98.2022 143.558 98.2022C144.492 98.2022 145.398 97.8826 146.125 97.2966C146.852 96.7105 147.356 95.8933 147.554 94.9807C147.752 94.0682 147.632 93.1154 147.214 92.2806C146.795 91.4458 146.103 90.7795 145.254 90.3923V73.8191L132.888 66.4869V52.2592L164.022 75.6121V79.1955H149.57V108.519C148.514 108.946 147.641 109.731 147.105 110.736C146.568 111.74 146.402 112.902 146.635 114.017C146.868 115.132 147.485 116.13 148.379 116.836C149.273 117.542 150.387 117.912 151.525 117.88C152.664 117.849 153.755 117.418 154.609 116.664C155.462 115.909 156.023 114.879 156.194 113.753C156.365 112.627 156.135 111.476 155.544 110.502C154.953 109.529 154.039 108.794 152.961 108.425V83.0034H167.83V73.7377C150.237 60.5219 132.645 47.3135 115.052 34.1125V29L172.17 70.4625V86.8335H159.755L159.743 118.937Z" fill="#2F1793"/>
<path d="M110.901 39.793V82.0595L115.034 86.405V105.565H114.423V90.6864L107.576 83.4924L107.51 82.7303V39.793H109.229H110.901Z" fill="#20DEC2"/>
<path d="M99.249 48.8438H95.8555V113.96H99.249V48.8438Z" fill="#20DEC2"/>
<path d="M84.0801 95.7555V80.5733L96.8034 74.2695L98.3005 77.303L87.4736 82.6671V95.7555H84.0801Z" fill="#20DEC2"/>
<path fill-rule="evenodd" clip-rule="evenodd" d="M85.7838 94.1094C86.5921 94.1094 87.3822 94.349 88.0542 94.7981C88.7263 95.2471 89.25 95.8854 89.5593 96.6321C89.8686 97.3788 89.9496 98.2005 89.7919 98.9932C89.6342 99.7859 89.245 100.514 88.6735 101.086C88.102 101.657 87.3738 102.046 86.5811 102.204C85.7884 102.362 84.9667 102.281 84.22 101.971C83.4733 101.662 82.835 101.138 82.386 100.466C81.9369 99.7943 81.6973 99.0042 81.6973 98.1959C81.6973 97.1121 82.1278 96.0727 82.8942 95.3063C83.6606 94.5399 84.7 94.1094 85.7838 94.1094" fill="#20DEC2"/>
<path fill-rule="evenodd" clip-rule="evenodd" d="M115.034 107.603C114.144 107.386 113.352 106.876 112.786 106.156C112.22 105.435 111.912 104.546 111.912 103.629C111.912 102.713 112.22 101.823 112.786 101.103C113.352 100.382 114.144 99.8729 115.034 99.6562V107.603Z" fill="#20DEC2"/>
<path d="M79.2881 78.9805H75.8945V109.806H79.2881V78.9805Z" fill="#20DEC2"/>
<path d="M115.033 38.8647L66.0536 75.6118V79.1952H77.6449V83.0105H62.2383V73.735C79.8308 60.5175 97.4292 47.3116 115.033 34.1172V38.8647Z" fill="#20DEC2"/>
<path d="M81.1453 116.461C80.3489 117.252 79.3028 117.743 78.1852 117.849C77.0676 117.956 75.9477 117.672 75.0161 117.045C74.0845 116.419 73.3989 115.489 73.0761 114.413C72.7533 113.338 72.8132 112.184 73.2456 111.148C73.678 110.112 74.4562 109.258 75.4477 108.731C76.4391 108.205 77.5825 108.038 78.683 108.26C79.7836 108.481 80.7732 109.078 81.4835 109.947C82.1937 110.816 82.5806 111.905 82.5782 113.028C82.5787 113.666 82.4533 114.297 82.2091 114.886C81.9649 115.475 81.6067 116.011 81.1552 116.461H81.1453ZM77.7123 116.306C78.4684 116.306 79.2013 116.044 79.7861 115.565C80.3708 115.086 80.7712 114.418 80.9191 113.677C81.0669 112.935 80.953 112.165 80.5969 111.498C80.2407 110.831 79.6642 110.309 78.9657 110.019C78.2672 109.73 77.49 109.691 76.7664 109.911C76.0428 110.13 75.4176 110.593 74.9975 111.222C74.5774 111.851 74.3882 112.606 74.4623 113.358C74.5364 114.111 74.8692 114.814 75.4039 115.349C75.7065 115.653 76.0663 115.894 76.4625 116.058C76.8587 116.222 77.2834 116.306 77.7123 116.306V116.306Z" fill="#20DEC2"/>
<path fill-rule="evenodd" clip-rule="evenodd" d="M97.5495 108.168C98.3584 108.167 99.1493 108.407 99.8221 108.856C100.495 109.305 101.019 109.944 101.329 110.691C101.639 111.438 101.72 112.261 101.563 113.054C101.405 113.848 101.015 114.576 100.443 115.148C99.8713 115.72 99.1425 116.11 98.3491 116.268C97.5556 116.425 96.7333 116.344 95.986 116.034C95.2387 115.725 94.6001 115.2 94.151 114.527C93.7019 113.854 93.4624 113.063 93.4629 112.255C93.4629 111.171 93.8934 110.131 94.6598 109.365C95.4262 108.599 96.4656 108.168 97.5495 108.168" fill="#20DEC2"/>
<path d="M115.032 120.27H85.457V123.663H115.032V120.27Z" fill="#20DEC2"/>
<path fill-rule="evenodd" clip-rule="evenodd" d="M86.1237 117.883C86.9315 117.883 87.7212 118.122 88.393 118.571C89.0648 119.019 89.5886 119.657 89.8982 120.403C90.2078 121.149 90.2893 121.971 90.1324 122.763C89.9756 123.555 89.5873 124.284 89.0168 124.856C88.4463 125.427 87.719 125.817 86.927 125.976C86.1349 126.135 85.3135 126.055 84.5666 125.748C83.8197 125.44 83.1808 124.918 82.7306 124.247C82.2804 123.576 82.0391 122.787 82.0371 121.979C82.0371 120.895 82.4677 119.856 83.234 119.09C84.0004 118.323 85.0399 117.893 86.1237 117.893" fill="#20DEC2"/>
<path d="M39.7244 151.733C39.3402 152.421 38.7574 152.976 38.0523 153.326C37.1584 153.76 36.1719 153.967 35.1791 153.931H32.8214V159.334H30V145.264H35.1791C36.1375 145.237 37.0893 145.43 37.961 145.829C38.6797 146.16 39.2814 146.701 39.6874 147.38C40.0574 148.045 40.2549 148.791 40.2618 149.552C40.2687 150.312 40.0848 151.062 39.7269 151.733H39.7244ZM36.792 151.119C36.9861 150.922 37.1367 150.687 37.234 150.428C37.3313 150.169 37.3731 149.893 37.3568 149.617C37.3568 148.248 36.5898 147.56 35.0583 147.56H32.8214V151.654H35.0583C35.8376 151.654 36.4155 151.476 36.792 151.119V151.119Z" fill="#151528"/>
<path d="M46.4958 148.51C47.1084 148.167 47.8012 147.992 48.5034 148.005V150.964H47.7635C46.8781 150.964 46.2073 151.171 45.7584 151.588C45.3096 152.005 45.0827 152.73 45.0827 153.766V159.33H42.2539V148.167H45.0753V149.894C45.4233 149.319 45.9123 148.843 46.4958 148.51Z" fill="#151528"/>
<path d="M52.4559 158.799C51.6021 158.329 50.8991 157.627 50.4286 156.774C49.9232 155.848 49.6682 154.806 49.6887 153.75C49.6671 152.693 49.9276 151.65 50.4434 150.727C50.9301 149.872 51.6459 149.17 52.5101 148.7C53.4126 148.23 54.4151 147.984 55.4326 147.984C56.4501 147.984 57.4526 148.23 58.3551 148.7C59.2204 149.168 59.9365 149.871 60.4218 150.727C60.9398 151.649 61.2013 152.693 61.179 153.75C61.2005 154.81 60.9318 155.856 60.4021 156.774C59.9034 157.629 59.1779 158.33 58.3058 158.799C57.3961 159.285 56.3777 159.532 55.3463 159.517C54.3371 159.53 53.3415 159.283 52.4559 158.799V158.799ZM56.7989 156.683C57.2597 156.423 57.6343 156.034 57.8767 155.563C58.161 155.002 58.3001 154.379 58.2811 153.75C58.2811 152.69 58.0025 151.874 57.4451 151.302C57.1823 151.024 56.8645 150.804 56.512 150.657C56.1596 150.509 55.7802 150.436 55.3981 150.443C55.0191 150.435 54.6426 150.507 54.2936 150.655C53.9445 150.803 53.6308 151.023 53.3733 151.302C52.8275 151.874 52.5553 152.69 52.557 153.75C52.5586 154.811 52.8233 155.627 53.3511 156.199C53.6045 156.478 53.9151 156.699 54.2615 156.846C54.6079 156.994 54.9822 157.065 55.3586 157.055C55.8628 157.057 56.3589 156.929 56.7989 156.683V156.683Z" fill="#151528"/>
<path d="M67.5811 148.497C68.2558 148.145 69.0079 147.968 69.7687 147.981C70.6876 147.967 71.5915 148.215 72.3749 148.695C73.1584 149.175 73.789 149.869 74.1931 150.694C74.6609 151.629 74.8937 152.663 74.8714 153.708C74.8933 154.762 74.6606 155.806 74.1931 156.751C73.7823 157.588 73.1482 158.296 72.3607 158.796C71.5853 159.285 70.6857 159.542 69.7687 159.536C69.016 159.551 68.2716 159.377 67.6033 159.03C67.0107 158.721 66.4917 158.288 66.0817 157.76V164.665H63.2578V148.164H66.0817V149.777C66.4755 149.239 66.9889 148.801 67.5811 148.497V148.497ZM71.574 151.962C71.3213 151.496 70.9449 151.11 70.4864 150.845C70.0383 150.589 69.5301 150.457 69.014 150.462C68.5067 150.461 68.0084 150.597 67.5713 150.854C67.1112 151.127 66.735 151.522 66.4837 151.994C66.2133 152.539 66.0727 153.139 66.0727 153.747C66.0727 154.356 66.2133 154.956 66.4837 155.501C66.7357 155.973 67.1118 156.366 67.5713 156.64C68.0084 156.898 68.5067 157.033 69.014 157.032C69.5292 157.035 70.0353 156.896 70.4765 156.63C70.9348 156.351 71.3102 155.954 71.5641 155.481C71.8518 154.935 71.9944 154.325 71.9785 153.708C71.997 153.101 71.8577 152.499 71.574 151.962V151.962Z" fill="#151528"/>
<path d="M87.2255 154.594H79.0623C79.0877 155.311 79.3911 155.99 79.9082 156.488C80.4072 156.947 81.0655 157.192 81.7431 157.173C82.7921 157.173 83.5377 156.724 83.98 155.824H87.0159C86.7061 156.887 86.0574 157.819 85.1687 158.478C84.1944 159.191 83.0092 159.558 81.8023 159.519C80.792 159.535 79.7949 159.288 78.9094 158.801C78.0638 158.332 77.3711 157.629 76.9142 156.776C76.4227 155.845 76.1765 154.805 76.199 153.753C76.1744 152.693 76.417 151.645 76.9043 150.704C77.3515 149.854 78.0372 149.153 78.8773 148.687C79.7747 148.205 80.7812 147.962 81.7998 147.982C82.7929 147.965 83.7738 148.201 84.6508 148.667C85.4787 149.111 86.1586 149.787 86.6065 150.613C87.0822 151.502 87.3217 152.498 87.302 153.506C87.3065 153.87 87.2809 154.234 87.2255 154.594V154.594ZM84.382 152.7C84.3884 152.369 84.3214 152.041 84.1857 151.74C84.0501 151.438 83.8493 151.17 83.5977 150.956C83.0746 150.515 82.4075 150.281 81.7234 150.3C81.0755 150.281 80.4445 150.508 79.9575 150.936C79.4607 151.398 79.1494 152.025 79.082 152.7H84.382Z" fill="#151528"/>
<path d="M93.6077 148.51C94.2192 148.166 94.9113 147.992 95.6127 148.005V150.964H94.8729C93.9875 150.964 93.3167 151.171 92.8678 151.588C92.419 152.005 92.197 152.735 92.197 153.771V159.334H89.3633V148.167H92.197V149.894C92.5423 149.32 93.0277 148.844 93.6077 148.51V148.51Z" fill="#151528"/>
<path d="M100.792 150.486V155.887C100.778 156.034 100.795 156.183 100.842 156.324C100.889 156.464 100.965 156.594 101.065 156.703C101.33 156.895 101.657 156.983 101.983 156.95H103.295V159.33H101.519C99.1383 159.33 97.9488 158.174 97.9504 155.862V150.486H96.6211V148.167H97.9504V145.41H100.792V148.172H103.295V150.491L100.792 150.486Z" fill="#151528"/>
<path d="M116.011 148.164L109.106 164.611H106.094L108.514 159.048L104.035 148.164H107.199L110.082 155.965L113.005 148.164H116.011Z" fill="#151528"/>
<path d="M134.355 159.332H131.534L125.144 149.676V159.332H122.322V145.242H125.144L131.534 154.917V145.242H134.355V159.332Z" fill="#151528"/>
<path d="M147.441 154.594H139.273C139.299 155.311 139.604 155.99 140.121 156.488C140.619 156.946 141.277 157.192 141.954 157.173C143.003 157.173 143.749 156.724 144.193 155.824H147.236C146.924 156.887 146.273 157.819 145.382 158.478C144.406 159.188 143.222 159.553 142.015 159.514C141.005 159.53 140.008 159.283 139.123 158.796C138.276 158.327 137.584 157.624 137.127 156.771C136.635 155.841 136.388 154.8 136.41 153.748C136.387 152.69 136.63 151.644 137.115 150.704C137.563 149.855 138.248 149.154 139.088 148.687C139.987 148.204 140.995 147.961 142.015 147.982C143.008 147.965 143.989 148.201 144.866 148.667C145.694 149.111 146.374 149.787 146.822 150.613C147.298 151.502 147.537 152.498 147.518 153.506C147.521 153.87 147.495 154.234 147.441 154.594V154.594ZM144.598 152.7C144.603 152.369 144.535 152.041 144.399 151.74C144.263 151.438 144.062 151.171 143.811 150.956C143.288 150.514 142.621 150.281 141.936 150.3C141.289 150.281 140.659 150.509 140.173 150.936C139.676 151.398 139.364 152.025 139.295 152.7H144.598Z" fill="#151528"/>
<path d="M152.866 150.486V155.887C152.853 156.034 152.87 156.183 152.916 156.323C152.963 156.464 153.038 156.593 153.138 156.703C153.403 156.894 153.729 156.982 154.055 156.95H155.365V159.33H153.591C151.214 159.33 150.024 158.174 150.023 155.862V150.486H148.693V148.167H150.023V145.41H152.866V148.172H155.357V150.491L152.866 150.486Z" fill="#151528"/>
<path d="M172.878 148.164L169.61 159.331H166.567L164.532 151.53L162.485 159.331H159.43L156.145 148.164H159.008L160.981 156.67L163.117 148.164H166.101L168.197 156.65L170.17 148.164H172.878Z" fill="#151528"/>
<path d="M176.464 158.799C175.61 158.329 174.907 157.627 174.437 156.774C173.932 155.847 173.677 154.805 173.697 153.751C173.674 152.693 173.936 151.649 174.454 150.727C174.939 149.871 175.654 149.169 176.518 148.7C177.421 148.23 178.424 147.984 179.442 147.984C180.46 147.984 181.463 148.23 182.365 148.7C183.23 149.17 183.946 149.872 184.432 150.727C184.948 151.65 185.208 152.693 185.187 153.751C185.208 154.81 184.94 155.856 184.41 156.774C183.912 157.63 183.186 158.331 182.314 158.799C181.404 159.285 180.386 159.532 179.354 159.517C178.345 159.53 177.35 159.283 176.464 158.799V158.799ZM180.807 156.683C181.268 156.423 181.644 156.034 181.887 155.563C182.171 155.002 182.309 154.379 182.289 153.751C182.289 152.69 182.01 151.874 181.453 151.302C181.19 151.024 180.872 150.804 180.52 150.657C180.167 150.509 179.788 150.436 179.406 150.443C179.027 150.435 178.651 150.507 178.302 150.655C177.953 150.803 177.639 151.023 177.381 151.302C176.837 151.874 176.565 152.69 176.565 153.751C176.565 154.811 176.83 155.627 177.361 156.199C177.614 156.478 177.924 156.699 178.271 156.846C178.617 156.994 178.99 157.065 179.367 157.055C179.871 157.057 180.367 156.929 180.807 156.683V156.683Z" fill="#151528"/>
<path d="M191.512 148.51C192.124 148.166 192.816 147.992 193.517 148.005V150.964H192.777C191.889 150.964 191.22 151.172 190.77 151.588C190.321 152.005 190.094 152.73 190.094 153.766V159.33H187.268V148.167H190.089V149.894C190.439 149.32 190.928 148.844 191.512 148.51V148.51Z" fill="#151528"/>
<path d="M202.022 159.333L198.244 154.575V159.333H195.41V144.422H198.244V152.906L201.995 148.171H205.643L200.732 153.769L205.689 159.333H202.022Z" fill="#151528"/>
</svg>
