<svg width="280" height="238" viewBox="0 0 280 238" fill="none" xmlns="http://www.w3.org/2000/svg">
<path fill-rule="evenodd" clip-rule="evenodd" d="M189.065 147.071C190.266 147.07 191.422 146.618 192.306 145.805C193.189 144.992 193.735 143.877 193.836 142.681C193.937 141.484 193.586 140.294 192.851 139.344C192.116 138.394 191.052 137.755 189.868 137.553H188.262C187.079 137.755 186.014 138.394 185.28 139.344C184.545 140.294 184.193 141.484 184.294 142.681C184.395 143.877 184.941 144.992 185.825 145.805C186.708 146.618 187.865 147.07 189.065 147.071ZM201.326 150.931C196.892 156.034 191.88 160.605 186.392 164.552H135.717V157.859H172.687C173.255 159.105 174.232 160.119 175.456 160.732C176.68 161.345 178.077 161.521 179.414 161.23C180.752 160.94 181.95 160.2 182.809 159.134C183.668 158.069 184.137 156.741 184.137 155.372C184.137 154.003 183.668 152.676 182.809 151.61C181.95 150.544 180.752 149.805 179.414 149.514C178.077 149.224 176.68 149.399 175.456 150.013C174.232 150.626 173.255 151.64 172.687 152.885H135.731V134.297C137.174 134.668 138.703 134.489 140.021 133.794C141.339 133.1 142.351 131.939 142.86 130.539C143.369 129.139 143.338 127.6 142.774 126.221C142.21 124.842 141.153 123.723 139.809 123.081V108.501L139.79 107.47L135.731 103.201V33.4568L141.035 37.4364V83.6072C139.789 84.1752 138.774 85.1527 138.16 86.3772C137.546 87.6018 137.37 88.9995 137.66 90.3381C137.951 91.6768 138.691 92.8756 139.757 93.7353C140.824 94.5951 142.152 95.0639 143.522 95.0639C144.892 95.0639 146.221 94.5951 147.287 93.7353C148.353 92.8756 149.093 91.6768 149.384 90.3381C149.675 88.9995 149.498 87.6018 148.884 86.3772C148.271 85.1527 147.256 84.1752 146.01 83.6072V41.1664L156.968 49.3898V101.161L147.243 106.081V135.747C146.012 136.345 145.022 137.346 144.439 138.584C143.855 139.823 143.713 141.223 144.036 142.553C144.358 143.884 145.126 145.063 146.212 145.896C147.298 146.73 148.637 147.166 150.005 147.133C151.374 147.1 152.689 146.6 153.734 145.716C154.779 144.832 155.49 143.616 155.748 142.272C156.007 140.928 155.797 139.536 155.155 138.327C154.513 137.118 153.476 136.166 152.218 135.628V109.124L161.932 104.2V79.7542L175.097 87.5651V109.059C173.85 109.627 172.836 110.604 172.222 111.829C171.608 113.053 171.432 114.451 171.722 115.79C172.013 117.128 172.753 118.327 173.819 119.187C174.886 120.046 176.214 120.515 177.584 120.515C178.954 120.515 180.282 120.046 181.349 119.187C182.415 118.327 183.155 117.128 183.446 115.79C183.737 114.451 183.56 113.053 182.946 111.829C182.332 110.604 181.318 109.627 180.071 109.059V84.7468L161.932 73.991V53.1197L207.603 87.3769V92.6337H186.403V135.65C184.853 136.276 183.574 137.427 182.787 138.901C182 140.375 181.756 142.079 182.098 143.714C182.44 145.35 183.345 146.814 184.656 147.85C185.967 148.885 187.601 149.428 189.271 149.381C190.942 149.335 192.543 148.704 193.795 147.597C195.047 146.49 195.87 144.979 196.121 143.327C196.372 141.675 196.034 139.987 195.167 138.559C194.3 137.13 192.958 136.052 191.377 135.512V98.2196H213.189V84.6274C187.382 65.2407 161.575 45.8648 135.767 26.4998V19L219.556 79.8229V103.838H201.344L201.326 150.931Z" fill="white"/>
<path d="M129.674 34.832V96.8344L135.737 103.209V131.316H134.84V109.49L124.797 98.9363L124.699 97.8184V34.832H127.221H129.674Z" fill="#20DEC2"/>
<path d="M112.584 48.1133H107.605V143.635H112.584V48.1133Z" fill="#20DEC2"/>
<path d="M90.3301 116.929V94.6573L108.994 85.4102L111.19 89.8601L95.3082 97.7289V116.929H90.3301Z" fill="#20DEC2"/>
<path fill-rule="evenodd" clip-rule="evenodd" d="M92.8307 114.512C94.0163 114.512 95.1754 114.863 96.1612 115.522C97.147 116.181 97.9154 117.117 98.3691 118.212C98.8228 119.308 98.9415 120.513 98.7102 121.676C98.4789 122.839 97.908 123.907 97.0696 124.745C96.2312 125.584 95.1631 126.155 94.0002 126.386C92.8373 126.617 91.632 126.499 90.5366 126.045C89.4412 125.591 88.5049 124.823 87.8462 123.837C87.1875 122.851 86.8359 121.692 86.8359 120.506C86.8359 118.917 87.4675 117.392 88.5918 116.268C89.716 115.143 91.2408 114.512 92.8307 114.512" fill="#20DEC2"/>
<path fill-rule="evenodd" clip-rule="evenodd" d="M135.738 134.305C134.432 133.987 133.271 133.24 132.44 132.183C131.61 131.126 131.158 129.821 131.158 128.477C131.158 127.133 131.61 125.827 132.44 124.77C133.271 123.714 134.432 122.966 135.738 122.648V134.305Z" fill="#20DEC2"/>
<path d="M83.3024 92.3203H78.3242V137.54H83.3024V92.3203Z" fill="#20DEC2"/>
<path d="M135.738 33.4721L63.8878 87.3778V92.6345H80.8916V98.2313H58.291V84.6246C84.0982 65.2355 109.914 45.8632 135.738 26.5078V33.4721Z" fill="#20DEC2"/>
<path d="M86.0265 147.3C84.8581 148.461 83.3236 149.18 81.6841 149.337C80.0447 149.493 78.4018 149.076 77.0352 148.157C75.6687 147.238 74.663 145.873 74.1894 144.296C73.7158 142.719 73.8037 141.026 74.438 139.506C75.0724 137.987 76.214 136.734 77.6683 135.961C79.1227 135.188 80.8 134.944 82.4144 135.269C84.0288 135.594 85.4806 136.469 86.5225 137.744C87.5644 139.02 88.1319 140.617 88.1284 142.264C88.1291 143.199 87.9451 144.126 87.5869 144.99C87.2286 145.854 86.7033 146.639 86.0409 147.3H86.0265ZM80.9904 147.072C82.0996 147.073 83.1747 146.689 84.0325 145.985C84.8903 145.282 85.4777 144.303 85.6946 143.216C85.9114 142.128 85.7444 140.999 85.2219 140.02C84.6994 139.042 83.8537 138.275 82.8291 137.85C81.8045 137.425 80.6643 137.369 79.6028 137.691C78.5413 138.013 77.6243 138.693 77.008 139.615C76.3916 140.537 76.1142 141.644 76.2229 142.748C76.3316 143.852 76.8198 144.884 77.6042 145.668C78.0481 146.114 78.5758 146.468 79.157 146.708C79.7382 146.949 80.3613 147.073 80.9904 147.072V147.072Z" fill="#20DEC2"/>
<path fill-rule="evenodd" clip-rule="evenodd" d="M110.092 135.133C111.279 135.132 112.439 135.483 113.426 136.142C114.413 136.801 115.183 137.738 115.637 138.834C116.092 139.93 116.211 141.137 115.979 142.301C115.748 143.464 115.177 144.534 114.337 145.373C113.498 146.212 112.429 146.783 111.265 147.014C110.101 147.246 108.895 147.127 107.799 146.672C106.703 146.218 105.766 145.448 105.107 144.461C104.448 143.474 104.097 142.314 104.098 141.128C104.098 139.538 104.729 138.013 105.853 136.889C106.978 135.764 108.502 135.133 110.092 135.133" fill="#20DEC2"/>
<path d="M135.739 152.887H92.3535V157.865H135.739V152.887Z" fill="#20DEC2"/>
<path fill-rule="evenodd" clip-rule="evenodd" d="M93.3307 149.383C94.5157 149.383 95.6742 149.734 96.6597 150.392C97.6452 151.05 98.4135 151.986 98.8677 153.08C99.3218 154.175 99.4414 155.379 99.2113 156.542C98.9811 157.704 98.4116 158.772 97.5747 159.611C96.7378 160.45 95.6709 161.022 94.509 161.255C93.3471 161.488 92.1422 161.372 91.0466 160.92C89.951 160.469 89.0137 159.702 88.3533 158.719C87.6928 157.735 87.3388 156.577 87.3359 155.392C87.3359 153.802 87.9675 152.277 89.0918 151.153C90.216 150.029 91.7408 149.397 93.3307 149.397" fill="#20DEC2"/>
<path d="M25.2651 199.036C24.7015 200.045 23.8466 200.859 22.8122 201.373C21.501 202.009 20.0537 202.314 18.5974 202.26H15.1388V210.186H11V189.547H18.5974C20.0033 189.506 21.3996 189.79 22.6783 190.375C23.7325 190.861 24.6153 191.654 25.2108 192.651C25.7536 193.625 26.0433 194.721 26.0534 195.836C26.0635 196.952 25.7937 198.052 25.2687 199.036H25.2651ZM20.9635 198.135C21.2482 197.847 21.4691 197.501 21.6118 197.122C21.7546 196.742 21.8159 196.337 21.792 195.932C21.792 193.924 20.6668 192.915 18.4202 192.915H15.1388V198.921H18.4202C19.5634 198.921 20.4112 198.659 20.9635 198.135V198.135Z" fill="white"/>
<path d="M35.1992 194.309C36.0978 193.805 37.1141 193.549 38.1441 193.567V197.909H37.0588C35.76 197.909 34.7759 198.213 34.1175 198.824C33.4591 199.435 33.1262 200.499 33.1262 202.019V210.18H28.9766V193.806H33.1154V196.339C33.6259 195.496 34.3432 194.797 35.1992 194.309Z" fill="white"/>
<path d="M43.9399 209.399C42.6875 208.711 41.6563 207.681 40.9661 206.429C40.2247 205.07 39.8506 203.541 39.8807 201.994C39.849 200.443 40.2312 198.912 40.9878 197.558C41.7017 196.304 42.7517 195.274 44.0195 194.584C45.3434 193.895 46.814 193.535 48.3066 193.535C49.7993 193.535 51.2699 193.895 52.5938 194.584C53.8631 195.272 54.9136 196.302 55.6255 197.558C56.3854 198.911 56.7689 200.443 56.7362 201.994C56.7677 203.548 56.3736 205.082 55.5966 206.429C54.865 207.684 53.8007 208.712 52.5214 209.399C51.187 210.113 49.693 210.475 48.18 210.452C46.6996 210.472 45.2391 210.109 43.9399 209.399V209.399ZM50.3109 206.295C50.9868 205.914 51.5364 205.343 51.8919 204.653C52.309 203.83 52.513 202.916 52.4852 201.994C52.4852 200.438 52.0764 199.241 51.2588 198.401C50.8732 197.994 50.4071 197.672 49.8901 197.455C49.3731 197.238 48.8165 197.132 48.256 197.142C47.7 197.13 47.1477 197.236 46.6357 197.453C46.1237 197.67 45.6636 197.993 45.2858 198.401C44.485 199.241 44.0859 200.438 44.0883 201.994C44.0907 203.549 44.479 204.747 45.2532 205.586C45.625 205.995 46.0805 206.319 46.5887 206.535C47.0969 206.752 47.6459 206.856 48.1981 206.842C48.9377 206.844 49.6654 206.656 50.3109 206.295V206.295Z" fill="white"/>
<path d="M66.1292 194.292C67.1189 193.776 68.2221 193.516 69.3382 193.536C70.6861 193.516 72.0121 193.879 73.1613 194.583C74.3106 195.288 75.2357 196.305 75.8286 197.516C76.5147 198.887 76.8562 200.404 76.8235 201.937C76.8556 203.483 76.5143 205.015 75.8286 206.401C75.2259 207.629 74.2957 208.667 73.1405 209.4C72.0029 210.118 70.6833 210.495 69.3382 210.486C68.234 210.508 67.142 210.253 66.1617 209.744C65.2924 209.291 64.5311 208.655 63.9295 207.881V218.011H59.7871V193.804H63.9295V196.17C64.5073 195.382 65.2603 194.739 66.1292 194.292V194.292ZM71.9864 199.375C71.6157 198.693 71.0636 198.125 70.391 197.737C69.7336 197.361 68.9881 197.168 68.2311 197.176C67.4869 197.175 66.7559 197.373 66.1147 197.751C65.4398 198.151 64.8879 198.73 64.5192 199.422C64.1226 200.222 63.9163 201.102 63.9163 201.995C63.9163 202.887 64.1226 203.767 64.5192 204.567C64.889 205.259 65.4406 205.837 66.1147 206.238C66.7559 206.616 67.4869 206.815 68.2311 206.814C68.9869 206.818 69.7292 206.614 70.3765 206.224C71.0488 205.814 71.5995 205.232 71.972 204.538C72.3939 203.737 72.6032 202.842 72.5797 201.937C72.607 201.046 72.4026 200.163 71.9864 199.375V199.375Z" fill="white"/>
<path d="M94.9473 203.236H82.9723C83.0096 204.288 83.4546 205.285 84.2132 206.015C84.9452 206.688 85.9109 207.049 86.9049 207.02C88.4437 207.02 89.5375 206.361 90.1863 205.041H94.6398C94.1853 206.6 93.2337 207.967 91.9301 208.934C90.5008 209.981 88.7622 210.518 86.9917 210.461C85.5097 210.485 84.047 210.122 82.748 209.408C81.5075 208.72 80.4915 207.688 79.8212 206.438C79.1002 205.073 78.7391 203.546 78.772 202.003C78.736 200.449 79.0918 198.911 79.8067 197.531C80.4627 196.284 81.4686 195.255 82.701 194.571C84.0174 193.864 85.4939 193.508 86.9881 193.537C88.4448 193.513 89.8839 193.859 91.1703 194.543C92.3849 195.193 93.3822 196.186 94.0392 197.397C94.7371 198.701 95.0884 200.162 95.0595 201.641C95.066 202.175 95.0285 202.708 94.9473 203.236V203.236ZM90.776 200.458C90.7854 199.973 90.6871 199.492 90.4881 199.05C90.2892 198.607 89.9946 198.215 89.6255 197.9C88.8581 197.253 87.8795 196.91 86.876 196.938C85.9255 196.91 84.9999 197.243 84.2856 197.871C83.5568 198.548 83.1001 199.468 83.0013 200.458H90.776Z" fill="white"/>
<path d="M104.306 194.309C105.203 193.805 106.219 193.549 107.248 193.567V197.909H106.162C104.864 197.909 103.879 198.213 103.221 198.824C102.563 199.435 102.237 200.506 102.237 202.026V210.188H98.0801V193.806H102.237V196.339C102.743 195.498 103.456 194.799 104.306 194.309V194.309Z" fill="white"/>
<path d="M114.846 197.203V205.126C114.826 205.343 114.851 205.561 114.92 205.768C114.99 205.974 115.101 206.163 115.248 206.324C115.637 206.605 116.116 206.734 116.594 206.686H118.518V210.177H115.914C112.421 210.177 110.676 208.481 110.679 205.09V197.203H108.729V193.803H110.679V189.758H114.846V193.81H118.518V197.211L114.846 197.203Z" fill="white"/>
<path d="M137.172 193.805L127.042 217.932H122.624L126.173 209.77L119.604 193.805H124.245L128.474 205.248L132.762 193.805H137.172Z" fill="white"/>
<path d="M164.081 210.184H159.942L150.568 196.02V210.184H146.43V189.516H150.568L159.942 203.708V189.516H164.081V210.184Z" fill="white"/>
<path d="M183.276 203.236H171.294C171.333 204.289 171.779 205.285 172.539 206.015C173.269 206.688 174.234 207.049 175.227 207.021C176.766 207.021 177.861 206.361 178.512 205.042H182.976C182.518 206.601 181.562 207.968 180.256 208.934C178.824 209.976 177.086 210.511 175.317 210.454C173.835 210.478 172.373 210.115 171.074 209.401C169.832 208.713 168.816 207.682 168.147 206.431C167.424 205.066 167.062 203.539 167.094 201.995C167.061 200.444 167.417 198.91 168.129 197.531C168.786 196.284 169.791 195.256 171.023 194.572C172.341 193.863 173.821 193.507 175.317 193.537C176.774 193.513 178.213 193.859 179.499 194.543C180.714 195.194 181.711 196.186 182.368 197.397C183.066 198.701 183.417 200.162 183.389 201.641C183.393 202.175 183.356 202.708 183.276 203.236V203.236ZM179.105 200.458C179.113 199.973 179.014 199.492 178.814 199.05C178.615 198.608 178.32 198.215 177.951 197.9C177.184 197.252 176.205 196.91 175.201 196.938C174.252 196.91 173.328 197.244 172.615 197.871C171.886 198.549 171.428 199.468 171.327 200.458H179.105Z" fill="white"/>
<path d="M191.237 197.203V205.126C191.216 205.343 191.241 205.561 191.31 205.767C191.378 205.973 191.489 206.163 191.635 206.324C192.024 206.605 192.503 206.733 192.98 206.686H194.901V210.177H192.3C188.813 210.177 187.068 208.481 187.065 205.09V197.203H185.115V193.803H187.065V189.758H191.237V193.81H194.891V197.211L191.237 197.203Z" fill="white"/>
<path d="M220.592 193.805L215.798 210.186H211.334L208.349 198.743L205.346 210.186H200.864L196.045 193.805H200.245L203.139 206.283L206.273 193.805H210.65L213.725 206.254L216.62 193.805H220.592Z" fill="white"/>
<path d="M225.852 209.399C224.6 208.711 223.568 207.681 222.878 206.429C222.138 205.07 221.764 203.541 221.793 201.994C221.76 200.443 222.144 198.911 222.904 197.558C223.615 196.303 224.664 195.273 225.932 194.584C227.256 193.895 228.727 193.535 230.221 193.535C231.714 193.535 233.185 193.895 234.51 194.584C235.777 195.274 236.827 196.304 237.541 197.558C238.298 198.912 238.68 200.443 238.648 201.994C238.68 203.548 238.286 205.082 237.509 206.429C236.778 207.685 235.714 208.713 234.434 209.399C233.099 210.113 231.605 210.475 230.092 210.452C228.612 210.472 227.151 210.109 225.852 209.399V209.399ZM232.223 206.295C232.9 205.914 233.451 205.343 233.808 204.653C234.224 203.83 234.426 202.915 234.397 201.994C234.397 200.438 233.989 199.241 233.171 198.401C232.785 197.994 232.319 197.672 231.802 197.455C231.285 197.238 230.729 197.132 230.168 197.142C229.612 197.13 229.06 197.236 228.548 197.453C228.036 197.67 227.576 197.993 227.198 198.401C226.4 199.241 226 200.438 226 201.994C226 203.549 226.39 204.747 227.169 205.586C227.54 205.995 227.995 206.318 228.503 206.535C229.01 206.752 229.559 206.856 230.11 206.842C230.85 206.845 231.578 206.657 232.223 206.295V206.295Z" fill="white"/>
<path d="M247.927 194.309C248.825 193.805 249.84 193.549 250.869 193.567V197.909H249.783C248.481 197.909 247.499 198.214 246.838 198.824C246.18 199.435 245.847 200.499 245.847 202.019V210.18H241.701V193.806H245.84V196.339C246.353 195.497 247.071 194.798 247.927 194.309V194.309Z" fill="white"/>
<path d="M263.346 210.186L257.803 203.207V210.186H253.646V188.312H257.803V200.758L263.306 193.812H268.657L261.454 202.024L268.726 210.186H263.346Z" fill="white"/>
</svg>
