<?xml version="1.0" encoding="utf-8"?>
<!-- Generator: Adobe Illustrator 16.0.0, SVG Export Plug-In . SVG Version: 6.00 Build 0)  -->
<!DOCTYPE svg PUBLIC "-//W3C//DTD SVG 1.1//EN" "http://www.w3.org/Graphics/SVG/1.1/DTD/svg11.dtd">
<svg version="1.1" xmlns="http://www.w3.org/2000/svg" xmlns:xlink="http://www.w3.org/1999/xlink" x="0px" y="0px" width="1200px"
	 height="1200px" viewBox="0 0 1200 1200" enable-background="new 0 0 1200 1200" xml:space="preserve">
<g id="Background">
</g>
<g id="Graphic_Elements">
	<g>
		<g>
			<path fill="#B2D0F7" d="M374.193,950.45c-0.502-1.625-2.366-2.344-4.016-2.757c-15.295-3.835-31.432-0.293-46.491,4.381
				c-3.118,0.969-7.036,1.789-9.217-0.641c-1.126-1.254-1.646-3.416-3.44-3.9c-0.07-0.019-0.143-0.037-0.215-0.057
				c-0.631-0.162-1.318-0.285-1.928-0.014c-0.244,0.109-0.481,0.243-0.715,0.388c-3.794,0.257-7.737,0.368-11.121-1.315
				c-3.723-1.854-6.113-5.552-8.267-9.109c-8.879-14.668-17.365-30.42-31.505-40.12c-1.643-1.127-4.135-2.059-5.388-0.509
				c-0.952,1.178-0.381,2.926,0.31,4.274c1.498,2.929,3.39,5.675,4.483,8.776c1.093,3.102,1.272,6.764-0.563,9.493
				c-1.733,2.579-5.237,4.605-4.709,7.669c0.536,3.105,5.169,4.84,4.546,7.93c-0.555,2.746-4.99,3.581-5.049,6.382
				c-0.03,1.464,1.248,2.614,2.537,3.31c1.289,0.694,2.752,1.199,3.683,2.33c1.823,2.219,0.689,5.61-1.026,7.912
				c-1.717,2.303-4.015,4.383-4.559,7.203c-0.664,3.447,1.507,6.741,2.229,10.177c1.471,6.998-3.155,13.761-8.091,18.937
				c-1.581,1.656-3.353,3.922-2.353,5.982c0.692,1.427,2.456,1.982,4.041,2.021c5.502,0.139,10.142-3.999,13.576-8.299
				c3.434-4.3,6.511-9.207,11.381-11.769c4.093-2.152,9.369-2.619,12.146-6.316c0.897-1.195,1.432-2.624,2.26-3.868
				c0.828-1.245,2.106-2.357,3.602-2.352c1.331,0.006,2.474,0.877,3.671,1.457c0.63,0.306,1.294,0.518,1.973,0.647
				c-2.203,5.808-4.075,11.778-5.387,17.845c-0.503,2.33-0.969,4.718-1.038,7.107c-0.022,0.802-0.167,2.814,0.861,3.164
				c4.751,1.613,13.132-26.174,14.019-21.979c2.23,10.561,5.245,21.229,5.831,32.007c0.13,2.396,0.286,4.886,1.452,6.982
				c1.478,2.658,4.305,4.224,6.989,5.652c1.497,0.797,3.293,1.604,4.813,0.852c1.067-0.528,1.651-1.68,2.164-2.754
				c4.383-9.196,8.822-18.58,10.184-28.675c0.339-2.513,0.489-5.079,1.327-7.472s2.514-4.653,4.924-5.441
				c1.947-0.637,4.066-0.235,6.061,0.235c1.994,0.47,4.053,1.009,6.065,0.628c2.014-0.381,3.964-1.999,3.962-4.047
				c-0.003-2.773-3.354-4.68-3.356-7.453c-0.002-2.127,1.951-3.682,3.776-4.773c3.209-1.919,6.631-3.48,10.184-4.646
				c1.358-0.445,2.771-0.851,3.897-1.73S374.615,951.816,374.193,950.45z"/>
			<g>
				<g>
					<g>
						<path fill="none" stroke="#15344D" stroke-width="0.9871" stroke-linecap="round" stroke-miterlimit="10" d="M311.605,953.377
							c21.539-8.443,45.334-8.756,68.446-7.75c2.186,0.096,4.428,0.215,6.428,1.1c2,0.886,3.732,2.717,3.852,4.9
							c0.114,2.083-1.249,4.006-2.941,5.226c-1.692,1.219-3.703,1.893-5.615,2.727c-3.301,1.439-6.604,3.685-7.662,7.126
							c-0.479,1.561-0.485,3.322-1.449,4.64c-1.881,2.567-6.005,1.851-8.64,3.635c-3.796,2.569-2.927,8.985-6.551,11.792
							c-1.675,1.296-3.997,1.494-6.061,1.021c-1.445-0.331-2.796-0.953-4.106-1.657c-1.036-0.557-2.108-1.049-3.227-1.415
							c-6.702-2.195-13.175-6.048-17.751-11.347c-0.718-0.83-1.425-1.739-1.437-2.897c-0.007-0.579,0.22-1.154,0.671-1.519
							c0.951-0.768,2.229-0.219,3.203,0.396c7.277,4.581,11.78,13.25,11.343,21.839c-0.162,3.189-0.914,5.857-2.611,8.563
							c-1.698,2.705-4.014,4.953-6.164,7.313c-2.15,2.361-4.195,4.935-5.167,7.977c-1.707,5.346,0.23,10.727,2.002,16.051
							c2.922,8.779,5.844,17.558,8.766,26.337c0.341,1.024-0.154,2.156-0.838,3.034c-0.516,0.663-1.619,1.216-2.459,1.174
							c-0.812-0.04-1.586-0.371-2.264-0.818c-1.459-0.963-2.406-2.531-2.665-4.26c-1.181-7.874-2.292-15.93-5.669-23.157
							c-0.673-1.439-1.486-2.901-2.894-3.692c-0.693-0.39-1.506-0.541-2.29-0.406c-1.966,0.339-2.052,2.026-2.88,3.21
							c-0.587,0.84-1.74,1.002-2.534,0.354c-1.606-1.313-2.671-3.285-2.849-5.355c-0.228-2.664,0.77-5.839-1.149-7.701
							c-0.376-0.365-0.837-0.636-1.21-1.005c-0.755-0.749-1.075-1.821-1.322-2.855c-0.861-3.604-1.165-7.343-0.899-11.039
							c0.101-1.384,0.277-2.796-0.054-4.143c-0.205-0.837-0.6-1.613-0.9-2.421c-0.663-1.781-0.869-3.695-1.069-5.586
							c-0.793-7.497-1.551-15.309,1.059-22.381c0.271-0.734,0.636-1.367,1.296-1.786c0.194-0.124,0.428-0.229,0.65-0.168
							c0.452,0.122,0.477,0.756,0.359,1.209c-0.418,1.61-1.412,3.063-2.761,4.036c-0.49,0.354-1.223,0.625-1.647,0.195
							c-0.322-0.326-0.254-0.859-0.149-1.305c0.679-2.875,2.577-5.858,4.123-8.315"/>
						<path fill="none" stroke="#15344D" stroke-width="0.9871" stroke-linecap="round" stroke-miterlimit="10" d="M297.891,947.705
							c-9.284-21.19-25.906-38.219-42.979-53.831c-1.613-1.476-3.285-2.976-5.326-3.761c-2.041-0.787-4.562-0.714-6.188,0.748
							c-1.551,1.394-1.944,3.718-1.607,5.776c0.337,2.058,1.284,3.955,2.049,5.896c1.32,3.351,2.072,7.273,0.391,10.457
							c-0.762,1.443-2.003,2.695-2.251,4.308c-0.481,3.146,2.943,5.552,3.549,8.677c0.872,4.499-4.275,8.427-3.691,12.973
							c0.27,2.101,1.773,3.881,3.569,5.004c1.257,0.786,2.651,1.3,4.077,1.727c1.127,0.338,2.232,0.748,3.283,1.278
							c6.295,3.179,13.599,5.023,20.58,4.506c1.095-0.081,2.237-0.226,3.063-1.036c0.414-0.406,0.66-0.974,0.598-1.55
							c-0.131-1.215-1.423-1.729-2.546-1.982c-8.389-1.897-17.698,1.06-23.455,7.448c-2.138,2.372-3.49,4.792-4.199,7.906
							c-0.709,3.113-0.657,6.341-0.803,9.53c-0.146,3.19-0.516,6.456-1.976,9.296c-2.567,4.99-7.739,7.431-12.755,9.948
							c-8.269,4.151-16.538,8.302-24.807,12.452c-0.965,0.484-1.414,1.635-1.551,2.74c-0.103,0.834,0.288,2.004,0.912,2.568
							c0.603,0.545,1.385,0.856,2.181,1.019c1.712,0.35,3.491-0.092,4.895-1.133c6.398-4.74,12.875-9.657,20.369-12.389
							c1.494-0.544,3.102-1.005,4.657-0.57c0.766,0.214,1.448,0.682,1.907,1.33c1.153,1.628,0.022,2.884-0.228,4.306
							c-0.178,1.01,0.524,1.939,1.544,2.041c2.064,0.205,4.211-0.438,5.799-1.779c2.043-1.725,3.579-4.677,6.253-4.64
							c0.524,0.007,1.042,0.142,1.566,0.143c1.063,0.004,2.048-0.529,2.953-1.087c3.156-1.943,6.011-4.374,8.434-7.18
							c0.907-1.049,1.778-2.174,2.965-2.895c0.736-0.446,1.563-0.718,2.347-1.077c1.728-0.792,3.225-2.002,4.702-3.198
							c5.857-4.747,11.911-9.742,15.06-16.592c0.461-1.004,0.594-2.111,0.373-3.193c-0.07-0.348-0.198-0.716-0.494-0.911
							c-0.329-0.218-0.785-0.152-1.113,0.064c-0.329,0.217-0.555,0.558-0.746,0.901c-0.529,0.947-0.879,1.996-1.023,3.071
							c-0.124,0.912-0.013,2.009,0.775,2.483c0.56,0.338,1.302,0.23,1.865-0.102s0.985-0.854,1.391-1.367
							c1.748-2.218,3.704-4.557,3.99-7.366"/>
						<path fill="none" stroke="#15344D" stroke-width="0.9871" stroke-miterlimit="10" d="M288.078,996.669
							c3.616-3.044,5.998-7.3,7.861-11.644s3.292-8.879,5.43-13.095c3.098-6.11,7.652-11.488,9.962-17.938
							c0.372-1.039,0.688-2.145,0.511-3.234c-0.314-1.938-2.103-3.314-3.941-4.006c-2.75-1.033-5.9-0.954-8.596,0.215
							c-3.434,1.489-2.403,6.679-2.868,10.393c-1.477,11.782-8.863,22.095-11.036,33.77c-0.221,1.186-0.383,2.437,0.007,3.579
							C285.798,995.85,286.879,996.805,288.078,996.669z"/>
						<path fill="none" stroke="#15344D" stroke-width="0.9871" stroke-linecap="round" stroke-miterlimit="10" d="M301.886,945.813
							c-0.838-1.408-0.421-3.355,0.762-4.489c1.184-1.134,2.972-1.496,4.58-1.181c1.614,0.317,3.143,1.346,3.774,2.864
							c0.633,1.519,0.171,3.5-1.228,4.366"/>
						<path fill="none" stroke="#15344D" stroke-width="0.9871" stroke-linecap="round" stroke-miterlimit="10" d="M309.454,941.299
							c2.076-4.116,6.314-6.708,10.619-8.359c4.306-1.651,8.881-2.586,13.056-4.545c4.174-1.958,8.073-5.238,9.213-9.705"/>
						<path fill="none" stroke="#15344D" stroke-width="0.9871" stroke-linecap="round" stroke-miterlimit="10" d="M306.563,940.168
							c1.229-5.149-0.01-10.597-2.059-15.478s-4.889-9.392-7.075-14.212c-1.658-3.656-2.936-7.485-3.806-11.405"/>
					</g>
				</g>
			</g>
		</g>
		<g>
			<path fill="#C5F5F7" d="M656.965,784.943c3.472-6.295,6.882-13.76,4.115-20.396c-2.062-4.946-7.235-8.063-12.512-8.992
				c-5.277-0.931-10.693-0.008-15.931,1.127c-37.246,8.067-72.034,27.157-98.846,54.239c-25.487,25.744-43.658,58.627-52.003,93.874
				c5.631-30.754,19.499-63.437,39.512-85.431c-9.42-5.548-19.297-19.41-24.532-29.008c-5.359-9.824-13.902-18.119-24.498-21.861
				c-1.489-0.525-3.794-1.66-5.155-2.462c-2.016-1.186-4.157-1.667-3.7-3.813c0.302-1.412,0.025-2.911-0.954-3.973
				c-2.188-2.374-5.533-2.559-8.016-4.317c-2.374-1.682-3.731-4.646-6.351-5.913c-3.011-1.456-8.355-0.472-10.365,2.201
				c-10.457,13.91-11.004,32.813-9.184,50.12c1.603,15.236,4.733,30.303,9.279,44.932c-2.986,6.692-3.978,14.213-3.26,21.502
				c0.843,8.552,4.022,16.712,8.497,24.004c2.444,3.984,5.282,7.717,8.357,11.234c-1.156,1.164-2.164,2.515-2.953,4.027
				c-8.646-7.318-16.873-15.29-22.906-24.937c-6.345-10.145-10.211-22.211-8.41-34.243c1.021-6.822,3.753-13.396,8.347-18.589
				c0.714-0.807-0.488-1.973-1.203-1.164c-8.457,9.56-10.801,23.093-8.256,35.356c2.559,12.327,9.601,23.23,18.059,32.355
				c4.249,4.585,8.893,8.777,13.671,12.803c-3.735,9.548,2.227,21.197,11.113,23.713c2.229,2.627,4.809,4.775,6.882,7.451
				c0.472,0.609,2.152,3.513,2.972,5.106c1.097,2.134,2.059,4.317,3.038,6.447c2.08,4.524,4.281,8.474,7.134,11.93
				c5.389,6.53,12.263,9.684,18.082,13.197c2.063,1.246,4.048,2.682,5.964,4.759c1.637,1.775,2.682,3.744,3.266,6.414
				c1.715,7.844,11.01,0.456,9.569-7.132c-0.008-0.038-0.015-0.076-0.022-0.114c-0.138-0.703-0.202-1.453-0.226-2.226
				c-0.012-0.347-0.047-0.698-0.112-1.056c-0.594-3.436-1.306-6.646-2.101-9.687c7.438,5.706,15.855,11.596,24.864,17.129
				c12.759,7.837,26.65,13.676,41.167,17.345c22.734,5.746,39.797,12.316,45.334,16.273c6.739,4.816,8.124,9.643,12.039,1.344l0,0
				c0.761-4.125,2.065-8.194,3.643-12.063c3.612-8.862,8.616-17.113,12.064-26.04c7.878-20.391-6.063-38.845-4.653-60.659
				c0.766-11.87-4.78-22.689-9.771-33.728c-0.013-0.023-0.025-0.047-0.038-0.07c-9.183-14.673-15.152-17.599-58.213-30.209
				c-0.598-0.175-0.381-1.07,0.229-0.946c7.584,1.544,18.503,4.072,28.261,7.483c4.831,1.688,9.172,3.426,12.815,4.764
				c4.762,1.748,9.717-2.012,9.367-7.072c-0.803-11.632,1.717-23.521,5.866-34.506C641.665,811.27,649.635,798.234,656.965,784.943z
				 M452.652,900.889c-5.351-6.11-9.986-12.971-13.001-20.539c-3.116-7.823-4.453-16.392-3.135-24.755
				c0.426-2.7,1.131-5.34,2.108-7.876c5.593,17.331,13.183,34.014,22.587,49.606C458.213,897.539,455.176,898.809,452.652,900.889z
				 M479.819,918.469c0.021-0.195,0.04-0.391,0.062-0.588c0.005,0.218,0.015,0.435,0.024,0.651
				C479.877,918.512,479.848,918.49,479.819,918.469z"/>
			<g>
				<g>
					<path fill="none" stroke="#15344D" stroke-width="2.3743" stroke-linecap="round" stroke-miterlimit="10" d="M521.016,967.485
						c12.809,13.781,27.141,25.741,44.092,33.881c14.916,7.163,31.33,11.052,45.72,19.222l28.842,25.765
						c1.312,0.806,2.748,1.612,4.295,1.455c1.539-0.157,2.807-1.626,2.827-3.173l0.178-13.846
						c0.188-14.579,0.551-29.853,7.667-42.578c2.459-4.397,5.666-8.361,7.878-12.887c2.313-4.732,2.539-12.661,0.455-17.498
						c-1.96-4.549-3.004-9.587-3.482-14.534c-0.843-8.729-0.182-17.56-1.158-26.274c-1.951-17.414-11.089-34.137-24.384-45.708
						c-5.634-4.903-10.474-10.633-14.292-17.052c-3.866-6.501-8.586-12.46-14.382-17.288c-8.8-7.33-20.284-11.855-31.688-10.79
						c-3.73,0.349-7.738,1.455-9.152,5.641c-0.911,2.698-0.326,5.664,1.315,7.99c3.448,4.884,9.383,6.242,14.997,7.021
						c15.742,2.183,32.477-0.685,48.367-0.415c13.917,0.236,27.042-11.295,28.599-25.127c0.955-8.483-1.906-17.396,0.92-25.451
						c3.289-9.374,13.054-14.514,21.74-19.334s17.979-11.576,18.862-21.471c0.642-7.178-3.655-14.14-9.518-18.329
						c-5.863-4.189-11.696-7.692-18.845-6.782c-44.479,5.662-87.205,24.473-121.417,53.456
						c-34.045,28.842-59.538,67.653-72.493,110.35c-0.111,0.368-0.078,0.767,0.093,1.111l0.017,0.032
						c0.502,1.015,1.94,1.039,2.477,0.042c11.877-22.081,23.667-44.317,32.014-67.95c3.552-10.057,6.363-21.611,1.322-31.011
						c-4.655-8.681-14.701-12.974-20.998-20.55c-7-8.42-9.669-21.102-19.563-25.792c-5.739-2.721-13.14-2.209-17.587-6.742
						c-2.633-2.684-3.602-6.596-5.91-9.563c-3.024-3.888-7.937-5.697-12.586-7.324l-8.484-2.969
						c-3.656-1.279-7.706,0.07-9.894,3.268c-9.146,13.37-12.764,29.431-11.992,45.921c0.878,18.739,6.74,36.878,13.482,54.385
						c7.807,20.27,16.929,40.169,28.669,58.403c1.753,2.722,5.941,0.25,4.36-2.574c-0.768-1.37-1.664-2.66-2.682-3.834
						c-2.674-3.085-7.021-5.594-10.716-3.859c-3.807,1.785-4.56,6.869-4.144,11.053c1.105,11.118,6.998,21.678,15.88,28.457
						c4.759,3.632,10.313,6.22,14.658,10.339c6.632,6.287,9.677,15.336,13.601,23.589c3.26,6.856,7.263,13.36,11.915,19.359
						c3.344,4.313,7.432,8.604,12.797,9.599c6.031,1.117,12.322-2.545,15.325-7.894c3.002-5.349,3.069-11.985,1.307-17.86
						c-1.761-5.876-5.192-11.107-8.927-15.973c-5.835-7.603-13.766-13.768-22.291-18.143c-8.525-4.377-17.563-7.785-25.704-12.84
						c-2.253-1.399-4.47-2.958-6.067-5.074c-1.6-2.115-2.515-4.887-1.883-7.462"/>
				</g>
			</g>
		</g>
		<g>
			<path fill="#5F91ED" stroke="#806A99" stroke-width="0.3927" stroke-miterlimit="10" d="M935.492,170.069
				c1.762-1.159,3.908-0.969,6.025-0.321c3.092,0.944,6.209,2.821,9.307,4.688c2.289,1.379,4.604,2.78,6.782,5.021
				c2.45,2.521,4.626,6.002,6.722,9.518c0.453,0.76,0.555,1.601,0.551,2.532c-0.004,0.933-0.189,1.76-0.172,2.701
				c0.029,1.558,0.624,3.229,1.37,4.493c0.528,0.895,0.874,1.307,1.341,1.794c-0.626-1.551-1.346-3.075-1.54-4.729
				c-0.202-1.721,0.181-3.494-0.218-5.18c-0.349-1.474-1.275-2.779-1.492-4.278c-0.264-1.837,0.691-3.791,2.305-4.71l0.976-0.217
				c1.851,0.145,3.547,1.506,4.089,3.281c0.115,0.377,0.18,0.762,0.221,1.152c1.252-3.365,2.722-6.652,4.846-9.533
				c2.406-3.266,5.563-5.889,8.686-8.477c4.229-3.504,8.485-7.027,13.266-9.73c3.274-1.852,6.877-3.326,10.639-3.4
				c1.143-0.021,2.316,0.094,3.346,0.591s1.898,1.429,2.087,2.557c0.135,0.802-0.076,1.616-0.131,2.427
				c-0.213,3.149,1.876,5.932,2.88,8.924c1.303,3.888,0.738,8.207-0.74,12.031c-1.477,3.824-3.811,7.247-6.123,10.632
				c1.372,1.284,2.367,3.356,3.423,4.912c1.055,1.556,1.767,3.414,1.63,5.288c-0.166,2.263-1.522,4.276-1.906,6.513
				c-0.433,2.526,0.39,5.25-0.59,7.618c-0.993,2.408-3.573,3.75-6.071,4.487c-2.499,0.736-5.161,1.092-7.398,2.427
				c-1.577,0.941-3.018,2.39-4.854,2.448c-1.297,0.042-2.496-0.637-3.607-1.309c-4.409-2.668-8.713-5.602-12.259-9.343
				c-0.241-0.254-0.479-0.514-0.712-0.777c0.266,2.84-0.035,5.729-0.852,8.465c-0.751,2.518-1.738,1.08-2.247,0.502
				c-2.313-2.629-4.079-5.754-4.952-9.145c-0.41-1.59-0.637-3.221-0.844-4.854c0.137,2.377,0.086,4.709-0.112,6.913
				c-0.417,4.626-1.447,8.752-2.614,12.665c-0.293,0.985-0.626,2.006-1.238,2.391c-0.868,0.545-2.007-0.326-3.043-0.685
				c-1.469-0.507-2.816,0.033-4.211,0.166s-3.025-0.269-4.271-2.177c-1.226-1.876-1.735-4.67-2.761-6.87
				c-0.907-1.948-2.191-3.371-3.007-5.415c-0.675-1.693-0.953-3.648-0.974-5.435c-0.017-1.458-0.164-3.221-0.102-4.71
				c0.027-0.643-0.202-1.269-0.635-1.745c-1.938-2.134-3.867-4.346-5.588-7.073c-1.932-3.063-3.604-6.883-4.271-10.912
				c-0.514-3.102-0.456-6.363-1.583-9.213c-0.291-0.734-0.654-1.42-0.854-2.207c-0.281-1.107-0.185-2.256,0.129-3.053
				S934.957,170.422,935.492,170.069z"/>
			<g>
				<g>
					<g>
						
							<path fill="none" stroke="#15344D" stroke-width="0.9103" stroke-linecap="round" stroke-linejoin="round" stroke-miterlimit="10" d="
							M982.905,215.809c2.352,3.57,4.103,6.919,7.063,10.002c2.961,3.084,6.581,5.662,10.715,6.75
							c6.027,1.588,12.352-0.471,18.434,0.401c1.207,0.173,2.358-0.564,2.686-1.739c3.002-10.804,1.397-22.838-4.414-32.439
							c-0.52-0.852-2.671-2.141-3.211-0.711c-0.541,1.43,1.202,1.06,1.202,1.06c5.159-1.484,9.213-5.739,11.563-10.581
							c2.401-4.948,3.252-10.492,3.833-15.961c0.581-5.47,0.931-11.006,2.435-16.297c0.774-2.726,1.859-5.413,1.966-8.245
							s-1.033-5.577-3.649-6.666c-3.946-1.642-8.564-0.622-12.307,1.44c-3.743,2.063-6.858,5.072-10.207,7.728
							c-6.305,4.997-13.493,8.771-19.919,13.61c-5.023,3.784-9.688,8.438-12.431,14.016c-1.101,2.238-1.489,4.74-1.251,7.222
							c0.034,0.36,0.002,0.61-0.11,0.742c-0.283,0.328-0.668-1.323-0.904-1.687c-0.284-0.438-0.407-0.758-0.514-1.178
							c-0.715-2.828-2.046-5.649-4.428-7.333c-2.383-1.684-5.987-1.856-8.046,0.21c-1.72,1.727-1.952,4.453-1.569,6.859
							c0.428,2.688,1.578,5.378,3.729,7.048s5.422,2.043,7.578,0.38c1.813-1.398,2.485-3.878,2.356-6.164
							c-0.101-1.787-0.677-3.632-1.994-4.845c-2.215-2.039-6.17-1.477-7.943,0.957c-1.772,2.434-1.259,6.146,0.927,8.218
							c2.185,2.071,5.694,2.458,8.42,1.177c0.521,1.727-0.986,3.534-2.725,4.015s-3.582,0.014-5.324-0.453
							c1.078,1.533,2.977,2.451,4.848,2.342c1.87-0.109,3.649-1.242,4.541-2.891c1.277,8.572,7.088,15.857,8.974,24.316
							c1.285,5.764,0.644,11.941-1.801,17.317c-4.392-3.054-7.438-7.769-9.234-12.807s-2.428-10.416-2.733-15.756
							c-0.114-1.998-0.191-4.032-0.854-5.92c-0.843-2.395-2.558-4.359-4.045-6.417c-2.155-2.981-3.885-6.253-6.017-9.252
							c-2.132-3-4.76-5.786-8.126-7.272c-9.706-4.286-18.521-9.823-29.105-10.56c-1.049-0.072-2.313-0.01-2.854,0.893
							c-0.74,1.233,0.528,2.651,1.565,3.648c5.121,4.926,6.82,12.314,8.435,19.234c1.614,6.919,3.687,14.303,9.216,18.766
							c1.157,0.935,2.619,1.746,4.068,1.411c1.448-0.335,2.41-2.388,1.303-3.381c-2.765,1.558-3.131,5.373-2.762,8.524
							c0.416,3.555,1.336,7.029,2.254,10.49c2.113,7.976,4.228,15.951,6.342,23.927c0.258,0.972,0.722,2.132,1.721,2.242
							c1.433,0.157,1.909-1.799,2.443-3.137c1.104-2.77,4.246-3.985,6.714-5.659c4.108-2.786,6.732-7.383,7.995-12.184
							s1.288-9.836,1.089-14.795"/>
						
							<path fill="none" stroke="#15344D" stroke-width="0.9103" stroke-linecap="round" stroke-linejoin="round" stroke-miterlimit="10" d="
							M966.581,174.022c2.372-6.602,2.228-14.072-0.398-20.577c-2.626-6.504-7.708-11.982-13.998-15.088"/>
						
							<path fill="none" stroke="#15344D" stroke-width="0.9103" stroke-linecap="round" stroke-linejoin="round" stroke-miterlimit="10" d="
							M970.767,175.822c4.574-5.714,4.092-14.208,8.384-20.137c1.491-2.059,3.48-3.691,5.247-5.52
							c1.766-1.828,3.368-3.979,3.769-6.489"/>
					</g>
				</g>
			</g>
		</g>
		<g>
			<path fill="#5F91ED" d="M428.501,597.472c-9.306-90.028-39.372-177.846-87.197-254.686c-2.805-4.507-6.115-9.318-11.229-10.737
				c-8.976-2.49-16.748,6.695-20.57,15.189c-10.596,23.54-11.766,51.168-3.197,75.52c3.361,9.555,7.782,21.307,0.928,28.762
				c-3.243,3.527-8.17,4.851-12.818,6.013c-10.95,2.737-21.899,5.475-32.849,8.212c-6.048,1.512-12.238,3.087-17.384,6.605
				s-9.113,9.443-8.532,15.649c0.937,10.015,12.104,15.277,21.707,18.272c28.084,8.76,57.122,15.1,83.652,27.813
				c26.529,12.713,51.012,33.088,60.714,60.861c-37.067-11.314-74.136-22.629-111.203-33.943
				c-8.807-2.688-17.993-5.406-27.084-3.942c-9.092,1.465-18,8.468-18.397,17.667c-0.792,18.299,29.272,27.145,27.204,45.344
				c-1.329,11.699-14.839,16.919-25.396,22.135c-18.366,9.075-33.148,25.181-40.619,44.257c-1.564,3.994-2.835,8.31-2.073,12.53
				c1.365,7.579,8.738,12.522,15.926,15.287c23.978,9.227,51.555,3.722,74.295-8.234c22.74-11.957,41.732-29.784,61.069-46.7
				c19.337-16.917,39.846-33.436,64.095-41.923c7.552-2.644,15.596-4.581,21.901-9.506c6.305-4.924,10.288-14.067,6.443-21.084"/>
			<g>
				<g>
					<g>
						<path fill="none" stroke="#15344D" stroke-width="3.004" stroke-miterlimit="10" d="M334.99,703.115
							c0.696,4.332,5.162,7.285,9.538,7.596c4.376,0.312,8.626-1.435,12.538-3.421c23.257-11.81,41.106-33.811,47.869-59.003
							c2.048-7.629,3.135-15.542,5.974-22.914c2.84-7.371,7.829-14.401,15.169-17.324c7.339-2.922,17.129-0.314,20.254,6.94
							c2.275,5.28,0.289,12.048-4.479,15.261s-11.786,2.513-15.826-1.578c-4.704-4.766-4.823-12.284-4.379-18.965
							c0.616-9.252,1.424-17.953,1.794-27.218c4.305-107.458-28.081-215.285-83.899-307.209c-2.593-4.27-7.267-9.162-11.729-6.443
							c-2.159,1.315-3.101,3.93-2.628,6.413c1.077,5.654,5.958,8.5,8.975,12.766c6.358,8.988,2.886,21.705-3.229,30.861
							c-6.115,9.155-14.62,16.794-19.069,26.865c-8.924,20.199,0.429,45.392-9.964,64.876
							c-8.361,15.675-27.694,23.785-34.235,40.303c-4.594,11.6-2.797,26.889-12.829,34.307c-4.148,3.067-9.46,3.949-14.525,4.925
							c-1.038,0.2-2.074,0.41-3.103,0.653c-3.87,0.911-7.858,2.272-10.774,5.095c-2.799,2.707-3.421,6.364-4.097,10.035
							c-0.461,2.508-0.666,4.922,0.313,7.336c3.62,8.923,12.856,13.097,21.602,15.556c20.489,5.76,41.894,7.294,62.857,10.973
							s42.199,9.853,58.671,23.331c6.529,5.343,11.683,11.662,17.445,17.822c1.617,1.729,3.31,3.51,5.512,4.376
							s5.068,0.532,6.432-1.402c1.394-1.978,0.675-4.864-0.976-6.634c-1.651-1.769-3.999-2.683-6.267-3.526
							c-71.899-26.747-149.396-38.343-225.977-33.813c-5.147,0.305-10.475-0.14-14.613,2.938c-4.14,3.076-6.488,8.406-5.966,13.537
							c0.872,8.576,8.778,14.679,16.652,18.19c8.7,3.88,18.165,5.953,26.604,10.372c8.438,4.419,16.106,12.07,16.823,21.568
							c0.668,8.861-4.716,18.236-0.918,26.271c3.22,6.811,12.469,11.004,11.921,18.518c-0.407,5.598-6.153,8.976-11.049,11.722
							c-4.896,2.745-10.27,7.223-9.201,12.732c1.445,7.456,12.726,8.282,16.377,14.941c3.563,6.498-1.908,14.104-7.018,19.473
							c-12.855,13.505-25.711,27.009-38.565,40.514c-3.692,3.878-7.483,7.914-9.284,12.957c-1.802,5.042-1.067,11.403,3.16,14.689
							c6.069,4.719,14.983,0.758,20.798-4.271c13.24-11.452,22.57-28.551,39.118-34.263c17.173-5.928,36.802,2.532,54.011-3.292
							c13.577-4.595,22.7-17.012,31.123-28.609s18.072-23.787,31.92-27.489c1.2,4.742-0.726,7.147-5.388,8.628
							c-4.663,1.479-9.695,0.635-14.555,0.064c-16.129-1.893-33.129-0.4-47.356,7.428c-14.229,7.828-25.134,22.797-25.146,39.036
							s12.847,32.361,29.06,33.29c4.053,0.232,8.325-0.503,11.535-2.986c3.21-2.484,5.041-6.99,3.588-10.78
							c-2.691-7.021-13.295-6.389-19.371-1.96c-14.394,10.489-15.979,30.779-20.688,47.955c-9.43,34.386-35.724,62.184-66.06,80.919
							s-64.77,29.567-98.797,40.217"/>
						<path fill="none" stroke="#15344D" stroke-width="3.004" stroke-miterlimit="10" d="M335.493,704.824
							c-3.231-6.643-1.834-14.79,1.78-21.232c3.614-6.441,9.174-11.531,14.638-16.502c18.193-16.551,36.388-33.102,54.581-49.653
							c11.001-10.009,22.12-20.151,30.365-32.529c8.246-12.378,13.454-27.421,11.271-42.133c-0.631-4.256-2.348-8.974-6.362-10.522
							c-4.188-1.615-9.175,1.383-10.715,5.6c-1.54,4.216-0.225,9.051,2.32,12.748s6.181,6.479,9.754,9.195"/>
						<path fill="none" stroke="#15344D" stroke-width="3.004" stroke-miterlimit="10" d="M435.878,600.139
							c16.47-8.69,30-22.842,37.94-39.687c1.609-3.412,3.021-7.079,2.773-10.843c-0.246-3.765-2.572-7.627-6.228-8.557
							c-3.655-0.931-8.052,2.324-7.351,6.03"/>
					</g>
				</g>
			</g>
		</g>
		<g>
			<path fill="#C5F5F7" d="M915.572,333.608c-0.618-0.572-1.246-1.134-1.884-1.684c-2.568-2.216-5.292-4.251-8.142-6.091
				c-2.859-1.846-5.846-3.493-8.929-4.93c-3.071-1.43-6.238-2.649-9.472-3.644c-3.221-0.989-6.508-1.756-9.83-2.283
				c-5.586-0.886-11.689-1.293-15.979-5.026c-0.134-0.117-0.264-0.237-0.393-0.359c-3.553,2.066-7.334,3.574-9.63,7.135
				c0.05-0.116,0.107-0.231,0.179-0.348c2.387-3.965,6.477-5.568,10.309-7.797c-3.322-3.139-4.881-7.705-6.508-11.989
				c-5.428-14.285-13.178-27.722-22.851-39.617c-0.921-1.132-2.211-2.392-3.702-1.528c-0.721,0.417-1.161,1.188-1.227,2.022
				c-0.746,9.528-1.493,19.057-2.24,28.585c-0.134,1.705-0.258,3.479,0.365,5.086c1.487,3.832,6.243,4.96,10.208,6.045
				c4.483,1.226,8.799,3.088,12.786,5.5c1.506,0.911,0.237,3.166-1.318,2.343c-0.607-0.321-1.207-0.655-1.799-0.993
				c-3.087-1.757-6.201-3.658-9.684-4.285c-3.481-0.626-7.492,0.345-9.359,3.3c-3.439,5.442,2.271,12.661,0.961,18.99
				c-0.695,3.356-3.266,5.941-4.802,8.992c-1.535,3.052-1.554,7.59,1.541,9.155c3.57,0.959,7.409-0.256,10.383-2.372
				s5.239-5.052,7.46-7.944l5.24-6.824c1.074-1.399,2.999-0.564,2.781,0.915c-0.101,0.123-0.203,0.243-0.309,0.359
				c-0.025,0.124-0.064,0.252-0.122,0.384c-1.89,4.285-4.597,8.202-7.959,11.453c-1.502,1.452-3.147,2.795-4.298,4.54
				c-1.148,1.745-1.735,4.034-0.889,5.976c0.816,1.869,2.803,3.03,4.807,3.396c2.002,0.364,4.049,0.062,6.051-0.241
				c4.59-0.695,9.18-1.39,13.77-2.084c3.693-0.56,8.004-1.585,9.354-5.048c0.985-2.526-0.051-5.378-1.079-7.922
				c-2.115-5.229-4.229-10.46-6.344-15.689c5.109,1.364,8.111,6.554,10.502,11.277c2.391,4.725,5.284,9.939,10.352,11.46
				c3.122,0.938,6.447,0.239,9.604-0.463c5.567-1.239,11.135-2.479,16.703-3.717c0.412-0.092,0.823-0.188,1.232-0.293
				c1.592-0.414,3.269-0.995,4.408-2.227C916.442,334.453,916.188,334.179,915.572,333.608z"/>
			<g>
				<g>
					<g>
						<path fill="none" stroke="#15344D" stroke-width="1.0805" stroke-miterlimit="10" d="M853.912,318.275
							c-1.759,6.613-7.641,10.414-11.849,15.811c-1.26,1.615-2.769,3.022-3.934,4.717c-1.042,1.517-1.67,3.184-1.848,5.016
							c-0.317,3.277,0.521,6.588-0.106,9.848c-0.75,3.898-4.447,5.792-7.225,8.628c-1.989,2.03-3.978,4.062-5.967,6.092
							c-1.553,1.585-3.181,3.313-3.555,5.501s1.199,4.828,3.412,4.657c2.237-0.173,3.311-2.743,4.124-4.834
							c0.948-2.436,2.189-4.756,3.671-6.909c1.73-2.518,3.781-4.796,5.825-7.066c1.767-1.963,3.73-4.04,6.329-4.508
							c1.746-0.314,3.525,0.154,5.237,0.619c1.997,0.542,3.994,1.084,5.991,1.626c1.813,0.493,3.739,0.643,5.328-0.36
							c1.16-0.732,2.333-1.472,3.633-1.912c1.299-0.441,2.756-0.561,4.029-0.049c1.244,0.5,2.476,1.596,3.737,1.139
							c0.984-0.356,1.4-1.48,1.919-2.391s1.633-1.773,2.524-1.224c0.393,0.242,0.601,0.695,0.941,1.007
							c0.826,0.758,2.165,0.458,2.471-0.62c1.961-1.885,1.711-5.054,1.128-7.71c-2.384-10.853-7.98-20.979-15.902-28.771
							c-0.663-0.651-1.278-1.905-0.448-2.322c0.493-0.247,1.061,0.116,1.485,0.467c8.598,7.106,14.802,17.061,17.396,27.91
							c0.701,2.936,1.289,6.185,3.604,8.123c1.908,1.598,4.549,1.908,7.025,2.152c3.786,0.373,7.78,0.714,11.239-0.869
							c1.725-0.79,3.208-2.016,4.857-2.95c1.65-0.936,3.613-1.581,5.437-1.06c1.472,0.421,2.628,1.533,3.951,2.302
							c1.324,0.77,3.145,1.14,4.291,0.126c1.34-1.186,1.079-3.663,2.626-4.561c1.493-0.866,3.39,0.465,5.082,0.117
							c1.863-0.384,2.728-2.757,2.182-4.58c-0.547-1.823-2.048-3.177-3.512-4.393c-17.576-14.608-39.576-23.82-62.317-26.093
							c-1.729-0.173-3.324-0.126-4.98-0.654c-1.656-0.527-3.618-0.863-5.008,0.182c-1.2,0.902-1.55,2.521-1.815,4
							C854.669,315.889,854.281,316.891,853.912,318.275z"/>
						<path fill="none" stroke="#15344D" stroke-width="1.0805" stroke-miterlimit="10" d="M854.497,316.266
							c0.581,4.746,0.489,9.844-1.99,13.932c-2.352,3.876-6.488,6.268-10.552,8.278c-1.478,0.73-2.999,1.454-4.173,2.612
							c-1.173,1.158-1.951,2.863-1.554,4.463"/>
					</g>
					<g>
						<path fill="none" stroke="#15344D" stroke-width="1.0805" stroke-miterlimit="10" d="M853.904,317.751
							c-6.397,2.426-9.578,8.665-14.516,13.402c-1.479,1.419-2.725,3.063-4.291,4.396c-1.402,1.191-2.996,1.986-4.8,2.351
							c-3.228,0.65-6.607,0.155-9.785,1.112c-3.802,1.145-5.308,5.015-7.846,8.068c-1.816,2.186-3.633,4.371-5.449,6.557
							c-1.419,1.707-2.972,3.504-5.109,4.1c-2.138,0.595-4.925-0.7-4.981-2.919c-0.057-2.243,2.391-3.573,4.387-4.597
							c2.326-1.192,4.508-2.663,6.498-4.357c2.327-1.979,4.385-4.252,6.435-6.517c1.772-1.958,3.638-4.124,3.837-6.757
							c0.134-1.769-0.514-3.491-1.15-5.146c-0.743-1.931-1.486-3.862-2.23-5.793c-0.675-1.754-1.021-3.654-0.185-5.338
							c0.61-1.229,1.226-2.472,1.53-3.809c0.306-1.338,0.276-2.799-0.363-4.014c-0.625-1.187-1.84-2.3-1.515-3.602
							c0.254-1.016,1.33-1.544,2.183-2.152c0.852-0.609,1.597-1.807,0.959-2.637c-0.281-0.365-0.753-0.527-1.098-0.834
							c-0.839-0.744-0.677-2.106,0.364-2.521c1.675-2.143,4.853-2.218,7.554-1.908c11.04,1.261,21.686,5.794,30.245,12.879
							c0.716,0.592,2.026,1.076,2.355,0.207c0.195-0.514-0.224-1.042-0.616-1.429c-7.947-7.827-18.483-12.981-29.541-14.452
							c-2.992-0.398-6.284-0.651-8.449-2.756c-1.783-1.734-2.362-4.329-2.858-6.768c-0.758-3.729-1.506-7.667-0.284-11.27
							c0.609-1.796,1.678-3.397,2.439-5.135c0.761-1.736,1.203-3.755,0.498-5.515c-0.57-1.421-1.794-2.458-2.694-3.696
							c-0.899-1.238-1.454-3.011-0.563-4.255c1.043-1.454,3.533-1.448,4.269-3.078c0.71-1.575-0.809-3.325-0.636-5.044
							c0.191-1.893,2.464-2.995,4.333-2.638s3.369,1.712,4.729,3.044c16.328,15.99,27.74,36.936,32.324,59.325
							c0.349,1.702,0.465,3.294,1.159,4.888c0.693,1.594,1.229,3.511,0.332,5c-0.775,1.285-2.352,1.799-3.794,2.214
							C856.201,316.755,855.244,317.243,853.904,317.751z"/>
						<path fill="none" stroke="#15344D" stroke-width="1.0805" stroke-miterlimit="10" d="M855.856,316.977
							c-4.78-0.093-9.842,0.52-13.655,3.404c-3.615,2.734-5.572,7.095-7.156,11.342c-0.576,1.545-1.141,3.133-2.172,4.418
							c-1.033,1.285-2.649,2.233-4.282,2.002"/>
					</g>
					<path fill="none" stroke="#15344D" stroke-width="1.0805" stroke-miterlimit="10" d="M862.904,291.859
						c1.185,3.969,1.436,8.437,0.73,13.006c-0.15,0.977-0.356,1.991-0.903,2.911c-0.546,0.921-1.514,1.729-2.443,1.771
						c-1.009,0.046-1.682-0.882-1.56-1.936c0.122-1.053,0.924-2.13,1.89-2.748c0.966-0.617,2.061-0.816,3.031-0.723
						c1.13,0.109,2.147,0.614,2.732,1.507s0.698,2.188,0.188,3.405c-0.414,0.988-1.266,1.91-2.234,2.258
						c-0.971,0.348-2.002,0.015-2.269-0.85c-0.236-0.765,0.144-1.775,0.767-2.535c0.623-0.759,1.454-1.307,2.282-1.766
						c3.988-2.214,8.466-2.768,11.98-1.481"/>
				</g>
			</g>
		</g>
		<g>
			<path fill="#8CC9FF" d="M985.76,490.973c-0.247-3.065-1.587-5.916-2.575-8.828s-0.039-4.863,1.116-7.713
				c-0.434-1.087,0.708-2.238,1.864-2.416s2.313,0.236,3.479,0.332c3.641,0.298,7.131-3.105,6.926-6.752
				c-0.104-1.859-0.979-3.88-0.01-5.47c1.014-1.66,3.382-1.734,5.298-1.398s4.052,0.843,5.679-0.224
				c1.633-1.07,2.024-3.281,2.027-5.234s-0.203-4.031,0.743-5.739c0.923-1.666,2.79-2.661,3.656-4.357
				c0.951-1.86,0.489-4.099,0.006-6.131c-1.47-6.18-2.964-12.428-5.86-18.08c14.381,17.769,6.157,21.649,12.516,25.034
				c1.162,0.618,2.564-1.182,3.467-2.351s1.648-2.495,2.742-3.464c1.977-1.751,4.687-1.984,7.083-1.684
				c2.396,0.302,4.724,1.045,7.176,0.898c2.451-0.146,6.485-1.3,6.524-3.898c0.068-4.459,3.086-9.013,7.117-10.736
				c3.074-1.314,6.65-1.158,9.276-3.396c2.31-1.968,3.411-5.45,6.053-6.792c1.877-0.953,3.959-0.52,5.964-0.66
				s4.753-1.612,4.921-3.744c-10.699-11.645-25.496-18.064-40.095-23.805c-9.979-3.923-20.14-7.674-30.934-8.979
				c-7.01-0.847-14.283-0.409-21.35,1.438c1.961-0.744,4.001-1.306,6.098-1.66c8.752-1.479,17.637-0.376,26.47,0.021
				c2.418,0.109,4.942-0.206,6.132-2.314c-1.491-2.646-3.021-5.789-1.828-8.582c0.904-2.116,3.191-3.443,3.937-5.621
				c0.888-2.595-0.698-5.342-0.876-8.078c-0.272-4.172,2.729-7.909,3.058-12.077c0.367-4.642-2.596-8.892-3.218-13.506
				c-0.523-3.874,0.627-7.748,1.263-11.604c0.585-3.551,0.733-7.172,0.446-10.759c-0.21-2.638-2.797-4.438-5.33-3.674
				c-2.063,0.622-4.023,1.503-5.911,2.708c-13.229,8.454-23.19,21.301-30.485,35.203c-5.669,10.805-9.847,22.297-13.678,33.899
				c-2.271-2.245-5.565-3.632-8.721-3.604c-1.509,0.014-3.071,0.386-3.932,1.436c-1.819,2.217,0.426,5.689,0.104,8.559
				c-0.364,3.247-3.831,5.022-6.016,7.435c-2.195,2.423-3.142,5.627-4.393,8.613c-1.615,3.856-3.802,7.459-5.239,11.389
				c-1.437,3.932-2.089,8.349-0.567,12.558c0.369,1.023,0.938,2.101,1.972,2.657s2.574,0.228,2.678-0.799
				c0.726-7.174,6.682-13.164,11.597-19.199c-0.53,1.266-0.977,2.575-1.539,3.827c-1.356,3.022-3.393,5.696-4.834,8.68
				s-2.256,6.526-1.002,9.594c-2.571,7.417-1.665,16.003,1.367,23.243c5.067,12.102,17.311,20.775,19.874,33.642
				c0.702,3.522,0.616,7.159,1.192,10.704c0.576,3.546,1.969,7.188,4.873,9.301C984.836,497.49,986.006,494.037,985.76,490.973z"/>
			<g>
				<g>
					<g>
						<g>
							<path fill="#15344D" stroke="#15344D" stroke-width="1.0805" stroke-miterlimit="10" d="M1017.641,443.622"/>
						</g>
					</g>
					<g>
						<path fill="none" stroke="#15344D" stroke-width="1.0805" stroke-miterlimit="10" d="M968.471,374.486
							c4.07-3.378,5.814-8.111,7.801-13.015c3.442-8.503,7.209-16.875,11.287-25.092c5.485-11.054,11.835-22.175,21.773-29.489
							c6.502-4.786,14.178-7.663,21.744-10.482c0.577,1.869-0.147,3.328-1.08,5.048c-0.932,1.72-2.108,3.354-2.557,5.257
							c-0.933,3.955,1.467,8.111,0.608,12.082c-0.747,3.455-3.854,6.189-4.023,9.721c-0.155,3.251,2.25,6.141,2.427,9.391
							c0.156,2.879-1.442,5.533-2.077,8.346c-0.65,2.881-0.278,5.882,0.097,8.811c0.314,2.458,0.629,4.916,0.944,7.373
							c0.235,1.839,0.472,3.68,0.575,5.53c0.115,2.054,0.295,4.153-0.142,6.163c-0.737,3.398-1.164,5.979-4.919,5.814
							c-7.758-0.336-19.393-13.628-43.158-7.313c-3.701,0.887-6.687,3.768-2.779,3.702c10.909-4.336,23.088-4.852,34.658-2.863
							c11.569,1.987,22.604,6.381,33.121,11.596c13.975,6.93,27.575,15.709,36.429,28.551c0.49,0.711,0.985,1.575,0.698,2.39
							c-0.451,1.276-2.277,1.231-3.559,0.792c-1.714-0.59-3.337-1.448-5.096-1.883c-1.76-0.434-3.767-0.381-5.207,0.719
							c-2.407,1.84-2.313,5.757-4.666,7.665c-3.613,2.929-9.904-0.999-13.371,2.101c-1.664,1.487-1.929,4.07-3.501,5.654
							c-1.804,1.816-4.721,1.785-7.256,1.43s-5.265-0.882-7.542,0.287c-1.434,0.736-2.477,2.054-3.806,2.965
							c-1.329,0.91-3.409,1.434-4.457,0.21c-3.62-4.224-6.598-11.493-18.01-22.33c-11.411-10.837-29.644-25.763-19.141-19.813
							c6.782,3.843,13.101,8.53,18.851,13.795c5.75,5.264,10.695,11.609,13.27,18.968c2.413,6.902,2.643,14.348,2.849,21.656
							c0.065,2.349-0.216,5.267-2.395,6.15c-1.009,0.409-2.287,0.281-3.036,1.07c-1.322,1.392,0.434,3.792-0.301,5.565
							c-0.935,2.256-4.566,1.398-6.406,3.003c-2.195,1.917-0.482,5.814-2.037,8.28c-1.785,2.832-6.214,1.822-9.177,3.382
							c-1.791,0.942-2.911,2.768-4.368,4.173c-1.231,1.187-3.078,2.084-4.637,1.656c-0.474-0.129-0.961,0.16-1.081,0.637l0,0
							c-0.458,1.807-0.689,3.657-0.784,5.518c-0.058,1.146-1.425,2.669-2.593,2.702c-1.537,0.043-2.768-1.396-3.133-2.89
							c-0.365-1.493-0.109-3.058-0.058-4.594c0.231-6.896-3.667-13.226-7.926-18.654c-4.26-5.43-9.127-10.628-11.434-17.131
							c-1.891-5.33-1.903-11.162-1.128-16.764s2.308-11.067,3.449-16.606c1.839-8.927,4.212-18.234,2.443-27.176
							c-2.481-12.548-5.636-14.733,3.155-12.1c8.791,2.633,1.674,9.237-3.014,11.246c-6.119,2.622-8.373,1.397-10.301,20.428
							c-1.928,19.031,1.098,27.788,4.297,20.272s3.199-12.153,4.113-20.292s-6.91-31.301-0.545-32.356"/>
						<path fill="none" stroke="#15344D" stroke-width="1.0805" stroke-miterlimit="10" d="M977.801,343.825
							c9.455,3.228-16.374,27.311-9.316,30.836"/>
						<path fill="none" stroke="#15344D" stroke-width="1.0805" stroke-miterlimit="10" d="M964.785,337.624
							c9.025,2.834-4.188,33.149,2.939,36.555"/>
					</g>
				</g>
			</g>
		</g>
		<g>
			<path fill="#8CC9FF" d="M612.122,398.945c11.766-4.654,25.002-7.173,37.061-3.342c13.033,4.141,22.765,15.018,30.417,26.352
				c18.931,28.035,29.002,61.221,32.889,94.938c0.844,7.315-0.501,14.701-3.692,21.338c-0.015,0.03-0.029,0.061-0.044,0.091
				c-0.655,1.372-1.25,3.324-2.012,5.082c0.103,0.376,0.187,0.759,0.254,1.149c9.058-6.161,4.489-26.893,16.083-29.834
				c3.898-0.988,6.557,0.891,7.413,2.349c1.512,2.577,1.984,5.661,1.288,8.567c-0.582,2.425-1.854,4.738-3.067,6.962
				c1.361-1.612,2.827-3.143,4.428-4.59c21.062-19.05,45.054-33.432,71.174-43.01c6.816-2.499,13.839-4.693,21.503-5.667
				c3.127-0.397,6.507-0.574,10.159,1.117c1.655,0.767,3.23,1.92,4.353,3.354c2.671,3.415,1.504,6.289,0.167,8.643
				c-9.485,16.712-27.09,28.475-49.258,32.47c2.559,5.57,0.197,10.887-4.061,13.229c-4.283,2.354-9.605,3.864-11.684,8.438
				c-0.99,2.178-1.139,4.878-2.058,7.135c-2.38,5.847-10.358,7.532-17.212,3.614c-0.267,5.841-4.461,9.871-9.587,11.54
				c-5.146,1.675-11.122,1.336-16.977,0.983l-0.979-0.15c-0.588-0.127-1.189-0.382-1.747-0.727
				c-0.051,0.362-0.101,0.726-0.118,1.103c-0.251,5.125,2.702,11.494,0.376,15.629c-2.338,4.155-8.553,3.396-12.248,6.205
				c-4.04,3.071-4.472,9.882-8.114,13.614c-5.295,5.428-15.276,2.628-21.426,7.083c-3.019,2.188-4.827,5.913-7.37,8.806
				c-2.559,2.911-6.531,4.987-10.372,2.974c-1.115-0.585-2.173-1.494-3.333-1.705c-1.672-0.303-3.014,0.917-4.214,2.018
				c-4.356,3.996-9.343,7.209-14.758,9.496c-2.209,0.934-4.551,1.72-7.027,1.465c-2.475-0.254-5.114-1.73-6.479-4.307
				c-1.414-2.666-1.177-5.957-0.065-8.42c1.105-2.449,2.95-4.254,4.759-5.991c0.819-0.788,1.638-1.572,2.457-2.354
				c3.441-3.283,6.88-6.513,10.313-9.692c3.408-3.157,6.812-6.267,10.207-9.333c3.37-3.045,6.734-6.048,10.087-9.013
				c2.24-1.98,4.469-3.922,6.699-5.871c-0.729-0.108-1.465-0.23-2.213-0.383c-2.451-0.499,0.137-5.133,1.63-7.141
				c3.152-4.236,6.634-8.209,10.24-12.065c-0.22,0.149-0.435,0.303-0.659,0.449c-22.925,14.937-46.893,30.445-73.683,36.008
				c-6.097,1.266-12.485,2.523-18.467,0.792c-5.98-1.73-11.288-7.508-10.231-13.644c1.135-6.595,8.867-11.181,8.381-17.855
				c-0.173-2.378-1.42-4.552-1.816-6.904c-0.73-4.331,1.585-8.745,4.935-11.586c2.948-2.5,7.065-4.684,7.259-8.545
				c0.087-1.738-0.708-3.386-1.061-5.091c-1.025-4.972,1.9-10.09,5.961-13.139c4.06-3.047,9.086-4.449,13.982-5.789
				c0.041-0.012,0.082-0.021,0.123-0.031c0.035-0.365,0.197-0.723,0.545-0.982c2.033-1.518,3.818-3.286,4.816-5.586
				c1.599-3.68-0.06-9.002-4.025-9.61c-2.464-0.378-5.262,1.068-7.211-0.972c-0.854-0.893-1.141-2.171-0.951-3.392
				c0.432-2.765,2.502-4.565,4.145-6.612c6.629-8.268,5.427-21.707-2.566-28.666c-2.27-1.975-5.186-3.782-4.868-7.207
				c0.164-1.766,1.186-3.319,2.599-4.391c4.398-3.336,10.425-2.787,14.541-6.631c1.245-1.163,2.089-2.729,2.187-4.43
				c0.189-3.306-2.352-4.957-4.695-6.384c-4.747-2.89-9.494-5.779-14.242-8.669c-4.774-2.906-10.172-6.934-9.819-12.512
				C601.479,404.3,607.077,400.941,612.122,398.945z"/>
			<g>
				<g>
					<path fill="none" stroke="#15344D" stroke-width="2.2603" stroke-miterlimit="10" d="M704.674,538.027
						c5.737-7.68,9.304-16.781,10.056-26.339c3.468-44.051-1.099-88.97-18.272-129.524c-6.943-16.395-16.655-32.727-32.272-41.276
						c-14.448-7.911-31.99-8.005-48.187-5.001c-6.944,1.289-14.937,4.18-16.727,11.012c-1.846,7.039,4.042,13.535,9.416,18.442
						c5.343,4.88,10.686,9.759,16.028,14.639c2.638,2.409,5.471,5.154,4.402,9.33c-0.551,2.149-2.021,3.938-3.902,5.113
						c-6.221,3.882-13.783,1.673-20.236,4.834c-2.073,1.016-3.768,2.745-4.418,4.96c-1.263,4.298,2.011,7.335,4.416,10.427
						c8.472,10.89,6.647,28.362-3.893,37.267c-2.609,2.205-5.705,3.987-6.947,7.412c-0.549,1.512-0.501,3.217,0.366,4.571
						c1.979,3.094,5.917,1.945,8.969,3.044c4.916,1.77,5.703,8.984,2.74,13.287c-1.851,2.688-4.574,4.502-7.55,5.932
						c-1.572,0.756-1.3,3.088,0.403,3.461c13.524,2.961,26.311,7.285,39.639,11.557c11.795,3.781,23.535,8.213,33.771,15.188
						c10.237,6.975,18.446,20.273,22.188,32.082c4.369,0.478,7.31-6.782,9.932-10.311
						C704.621,538.098,704.647,538.063,704.674,538.027z"/>
					<path fill="none" stroke="#15344D" stroke-width="2.2603" stroke-miterlimit="10" d="M662.703,564.226
						c-33.026,13.349-67.529,27.169-103.148,27.575c-8.105,0.092-16.584,0.101-23.792-3.607c-7.209-3.707-12.544-12.416-9.66-19.992
						c3.1-8.141,14.126-12.066,15.175-20.715c0.374-3.083-0.676-6.172-0.595-9.276c0.149-5.717,4.213-10.777,9.203-13.569
						c4.393-2.457,10.199-4.217,11.412-9.102c0.546-2.199-0.058-4.503-0.081-6.77c-0.067-6.609,4.951-12.417,10.901-15.295
						c5.949-2.879,12.722-3.413,19.313-3.9c33.502-2.478,66.73,14.938,91.47,37.664c6.158,5.657,12.207,12.855,11.763,21.205
						C682.791,551.599,674.092,559.622,662.703,564.226z"/>
					<path fill="none" stroke="#15344D" stroke-width="2.2603" stroke-miterlimit="10" d="M719.087,587.018
						c7.391,1.914,14.942,3.843,21.937,2.989c6.966-0.85,13.333-4.95,15.135-12.345c7.775,6.719,18.392,6.561,22.895-0.313
						c1.739-2.654,2.604-6.067,4.414-8.602c3.799-5.324,10.977-5.921,17.038-7.858c6.026-1.927,10.372-8.13,8.496-15.885
						c29.322,0.44,54.758-10.185,71.058-29.165c2.297-2.673,4.507-6.053,1.948-11.084c-1.075-2.113-2.799-3.98-4.722-5.374
						c-4.244-3.076-8.606-3.694-12.701-3.97c-10.035-0.672-19.557,0.375-28.891,1.863c-35.768,5.703-70.02,18.076-101.695,37.148
						c-8.243,4.963-14.913,11.35-20.146,20.257c-0.186,0.314-0.389,0.614-0.595,0.911c-1.1,1.576-1.431,2.908-0.772,4.598
						c0.72,1.849,2.057,3.418,2.979,5.201c1.429,2.76,1.78,6.029,0.913,8.576c-0.485,1.424-1.314,2.602-1.904,3.963
						c-0.591,1.365-0.931,3.045-0.379,4.712c0.606,1.833,2.185,3.255,3.777,3.938L719.087,587.018z"/>
					<path fill="none" stroke="#15344D" stroke-width="2.2603" stroke-miterlimit="10" d="M586.188,621.439
						c-2.744,1.769-5.553,3.612-7.578,6.465c-2.036,2.869-3.162,7.014-2.022,10.774c1.1,3.633,4.103,6.18,7.201,7.124
						c3.1,0.944,6.289,0.525,9.344-0.114c7.491-1.567,14.667-4.426,21.232-8.441c1.809-1.106,3.827-2.329,5.889-1.523
						c1.429,0.559,2.553,1.985,3.831,3.012c4.404,3.534,9.999,1.875,13.997-1.205c3.971-3.06,7.214-7.368,11.618-9.407
						c8.971-4.152,21.023,1.921,29.146-3.689c5.587-3.858,7.843-12.452,13.772-15.365c5.425-2.664,13.174-0.14,17.201-4.864
						c4.006-4.7,1.826-13.577,3.429-20.062c1.216-4.923,4.567-8.249,6.933-12.267c2.346-3.985,3.62-9.704,0.799-14.512
						c-2.573-4.387-7.54-6.104-11.341-5.585c-3.59,0.488-7.23,1.563-10.501,2.967c-2.472,1.063-4.73,2.537-7.022,3.963
						c-3.916,2.436-7.976,4.668-12.036,6.953c-4.776,2.688-9.581,5.398-14.411,8.141c-4.861,2.76-9.75,5.551-14.662,8.379
						c-4.966,2.859-9.958,5.757-14.972,8.699c-5.025,2.949-10.074,5.944-15.143,8.991c-5.105,3.068-10.23,6.19-15.375,9.371
						c-5.182,3.205-10.383,6.471-15.602,9.805C588.675,619.842,587.432,620.639,586.188,621.439z"/>
					<path fill="none" stroke="#15344D" stroke-width="2.2603" stroke-miterlimit="10" d="M699.105,546.245
						c12.383-9.124,13.507-33.792,29.695-34.685c5.229-0.289,8.155,2.777,8.884,4.854c1.288,3.671,1.12,7.73-0.497,11.269
						c-1.419,3.105-3.417,6.215-5.985,8.521"/>
					<path fill="none" stroke="#15344D" stroke-width="2.2603" stroke-miterlimit="10" d="M673.711,558.717
						c-7.052,4.717-13.754,9.957-20.031,15.664c-2.411,2.19-4.595,5.54-3.869,8.716"/>
					<path fill="none" stroke="#15344D" stroke-width="2.2603" stroke-miterlimit="10" d="M738.814,521.973
						c21.804-11.49,35.132-34.461,55.165-48.815c4.322-3.097,9.005-5.805,14.131-7.216c5.126-1.412,10.751-1.447,15.634,0.658"/>
					<path fill="none" stroke="#15344D" stroke-width="2.2603" stroke-miterlimit="10" d="M732.782,511.436
						c17.044-27.107,34.521-54.713,59.26-75.042"/>
				</g>
			</g>
		</g>
		<g>
			<path fill="#B2D0F7" d="M925.566,742.111c0.027-0.36,0.022-0.724-0.04-1.08c-0.457-2.609-2.995-2.627-5.028-2.414
				c-17.824,1.866-36.104,3.43-52.665,10.276c-10.521,4.35-19.922,10.558-28.927,17.464c-1.903,1.46-4.649,0.693-5.669-1.353
				c3.536-0.593,7.109-2.827,7.894-6.319c0.572-2.545-0.504-5.293-2.396-7.088c-1.894-1.795-4.498-2.71-7.098-2.932
				c-3.137-0.268-6.674,0.647-8.329,3.327c-1.192,1.93-1.16,4.438-0.358,6.56c0.218,0.577,0.49,1.127,0.797,1.658
				c-0.047,0.028-0.097,0.053-0.145,0.082c-2.311,1.435-5.41-0.02-5.755-2.698c-1.448-11.256-3.669-22.3-7.999-32.829
				c-0.217-0.527,0.765-0.42,0.215-0.571c-4.842-14.265-13.158-27.159-24.241-37.208c-4.829-4.378-12.394-3.463-16.052,1.934
				c-3.896,5.748-6.624,12.344-8.316,19.103c-2.63,10.508-2.917,21.461-2.585,32.288c0.16,5.199,0.546,10.672,3.41,15.015
				c3.747,5.683,11.817,8.881,18.288,10.99c3.32,1.082,6.588,2.317,9.787,3.698c1.465,0.632,1.057,2.641-0.533,2.648
				c-0.238,0.002-0.477,0.005-0.715,0.012c-10.512,0.273-20.554,5.338-26.337,13.352c-0.522,0.725-0.61,1.686-0.157,2.486
				c0.459,0.811,1.272,1.391,2.041,1.971c0.751,0.569,1.511,1.202,1.846,2.037c0.472,1.178-0.01,2.455-0.598,3.548
				c-0.629,1.173-1.391,2.297-1.787,3.566c-0.396,1.271-0.371,2.758,0.488,3.866c0.591,0.762,1.521,1.283,1.995,2.111
				c0.8,1.399,0.03,3.164,0.718,4.617c0.524,1.105,1.75,1.753,2.743,2.541c0.994,0.787,1.852,2.089,1.272,3.136l0.064-0.234
				c-1.15,1.133-1.677,2.803-1.383,4.389c0.01,0.056,0.021,0.11,0.033,0.165c0.43,1.979,2.828,2.925,4.632,1.916
				c1.593-0.893,3.555-1.283,5.457-1.346c2.765-0.09,5.538,0.402,8.304,0.45c1.949,0.034,3.459-0.432,5.035-1.098
				c2.768-1.17,5.168-2.897,7.027-5.059c-0.346,2.79-4.426,14.47-4.848,17.151c-0.192,1.221,0.777,2.421,1.964,2.918l0.526,0.219
				c1.189,0.492,2.724,0.334,3.454-0.662c1.604-2.19,7.016-13.316,8.751-15.528c-0.223,2.841,0.243,5.763,1.364,8.551
				c0.638,1.587,1.372,2.987,2.771,4.345c1.982,1.928,4.287,3.549,6.171,5.574c1.315,1.413,2.435,3.109,2.914,4.896
				c0.536,1.999,2.921,2.944,4.627,1.843c0.039-0.024,0.077-0.051,0.116-0.076c1.332-0.91,2.145-2.461,2.139-4.075l-0.122,0.211
				c0.335-1.147,1.862-1.458,3.122-1.308c1.259,0.149,2.582,0.563,3.736,0.155c1.515-0.536,2.224-2.326,3.78-2.745
				c0.921-0.248,1.947,0.045,2.903-0.072c1.393-0.172,2.465-1.203,3.088-2.38c0.621-1.175,0.882-2.508,1.27-3.78
				c0.361-1.188,0.929-2.43,2.096-2.925c0.829-0.351,1.813-0.258,2.746-0.126c0.953,0.135,1.938,0.305,2.836,0.059
				c0.888-0.243,1.508-0.983,1.653-1.864c1.609-9.751-1.875-20.444-9.09-28.093c-0.163-0.174-0.329-0.346-0.496-0.516
				c-1.114-1.134,0.022-2.839,1.503-2.245c3.23,1.295,6.404,2.739,9.508,4.329c4.135,2.118,8.971,1.979,13.505,2.991
				c3.202,0.715,6.46,1.435,9.731,1.182c5.832-0.451,10.979-3.924,15.423-7.727C913.277,782.012,923.997,762.64,925.566,742.111z"/>
			<g>
				<g>
					<g>
						<path fill="none" stroke="#15344D" stroke-width="1.2811" stroke-miterlimit="10" d="M839.093,756.192
							c0.237-0.712,0.325-1.477,0.247-2.218c-0.214-2.006-1.476-3.793-3.08-5.015c-2.793-2.127-6.715-2.67-9.98-1.382
							c-1.107,0.437-2.172,1.1-2.815,2.102c-0.817,1.271-0.835,2.953-0.271,4.355s1.647,2.547,2.88,3.421
							c1.232,0.875,2.617,1.506,3.993,2.131c2.958,1.345,5.909,1.694,8.378,3.806c1.388,1.188,2.601,2.707,2.656,4.63
							c0.03,1.025-0.365,2.036-1.148,2.699c-0.021,0.018-0.043,0.035-0.063,0.052c-1.387,1.115-3.174-0.771-1.995-2.104
							c19.826-22.391,51.483-38.815,73.006-37.788c0.512,0.024,1.025,0.001,1.534-0.058l0.013-0.002
							c9.36-0.65,19.137,0.82,27.991,4.506l0,0c-1.284,12.45-6.675,23.842-12.617,35.004l0,0c-3.64,5.627-7.05,10.701-11.013,15.545
							c-5.992,6.596-11.522,12.086-18.943,17.438l0,0c-8.797,5.538-19.086,2.511-28.683-0.021
							c-3.738-0.985-6.647-2.376-10.095-3.131c-4.385-0.961-8.654-2.398-12.728-4.313c-0.917-0.432-1.964-1.093-1.818-2.168
							c0.038-0.281,0.169-0.546,0.356-0.759c0.514-0.582,1.278-0.75,2.012-0.736c1.76,0.034,3.414,1.089,4.388,2.554
							c0.486,0.733,0.821,1.539,1.017,2.38c0.473,2.038,1.375,3.954,2.563,5.677c5.795,8.404,8.035,19.232,5.892,29.229
							c-0.231,1.076-1.036,1.958-2.103,2.23c-0.951,0.241-1.959,0.089-2.936-0.03c-1.014-0.123-2.085-0.2-3.013,0.225
							c-1.305,0.598-1.997,2.025-2.462,3.384c-0.496,1.454-0.858,2.97-1.602,4.314c-0.744,1.344-1.967,2.533-3.486,2.764
							c-1.042,0.158-2.138-0.144-3.148,0.159c-1.705,0.512-2.564,2.538-4.228,3.178c-1.265,0.485-2.67,0.058-4.019-0.077
							c-1.348-0.135-3.006,0.25-3.419,1.54l-0.111,0.367l0,0c-0.068,1.8-1.013,3.546-2.48,4.588
							c-0.083,0.059-0.166,0.115-0.25,0.169c-1.822,1.167-4.28,0.115-4.745-1.998c-0.435-1.981-1.564-3.848-2.919-5.396
							c-1.937-2.214-4.342-3.966-6.394-6.073c-1.448-1.486-2.185-3.04-2.813-4.809c-1.679-4.729-1.741-9.876-0.039-14.598
							c1.271-3.525,4.641-6.834,6.836-10.151c2.125-3.212,1.598-7.497-1.234-10.106c-8.983-8.273-9.493-11.056-9.164-13.932l0,0
							c2.634-10.591,9.959-24.221,14.159-28.164s11.702,0.116,13.918,4.081s-8.835,29.139-11.975,31.529
							c-4.46,3.397-10.472,3.727-15.884,2.261c-0.928-0.252-1.998-0.173-3.439,0.421c-6.057,2.497-3.854,12.532-6.666,18.466
							c-2.15,4.535-5.845,8.117-10.384,10.261c-1.696,0.801-3.318,1.373-5.393,1.394c-2.941,0.029-5.88-0.441-8.815-0.255
							c-2.053,0.13-4.173,0.644-5.885,1.731c-1.827,1.161-4.305,0.158-4.762-1.957c-0.021-0.098-0.039-0.196-0.057-0.297
							c-0.295-1.775,0.278-3.676,1.507-4.993l0,0l0.182-0.337c0.624-1.203-0.271-2.65-1.317-3.512
							c-1.045-0.861-2.34-1.557-2.887-2.796c-0.718-1.63,0.113-3.668-0.726-5.239c-0.497-0.93-1.483-1.494-2.106-2.346
							c-0.907-1.24-0.925-2.945-0.496-4.421c0.43-1.475,1.25-2.8,1.932-4.177c0.636-1.287,1.161-2.784,0.665-4.131
							c-0.353-0.958-1.162-1.664-1.964-2.295c-0.773-0.609-1.591-1.217-2.09-2.063c-0.56-0.948-0.501-2.141,0.1-3.063
							c5.521-8.476,14.646-14.48,24.568-16.362c2.266-0.43,4.42-1.276,6.431-2.406c0.658-0.37,1.37-0.642,2.126-0.791
							c1.726-0.343,3.64,0.087,4.903,1.312c0.527,0.511,0.946,1.172,0.896,1.947c-0.018,0.283-0.113,0.562-0.286,0.786
							c-0.659,0.861-1.869,0.591-2.819,0.238c-14.893-5.525-32.859-5.346-41.598-31.274c-2.923-8.671-1.438-16.83-0.981-25.729
							c0.643-6.225,1.839-12.221,3.265-18.769l0,0c3.729-12.083,8.013-23.935,15.938-33.622l0,0
							c8.855,3.685,16.789,9.583,22.925,16.681l0.008,0.011c0.317,0.402,0.662,0.783,1.041,1.129
							c15.897,14.544,26.56,48.578,24.648,78.424c-0.113,1.775-2.71,1.837-2.897,0.068c-0.003-0.027-0.006-0.056-0.008-0.084
							c-0.081-1.022,0.356-2.016,1.104-2.717c1.404-1.316,3.338-1.526,5.157-1.379c4.83,0.393,8.911,3.252,13.714,3.904
							c1.309,0.178,2.691,0.265,3.901-0.267c0.795-0.349,1.528-0.997,1.937-1.77c0.078-0.146,0.141-0.304,0.152-0.47
							c0.023-0.295-0.123-0.546-0.319-0.755c-0.265-0.281-0.594-0.499-0.903-0.727c-0.443-0.326-0.88-0.662-1.299-1.021
							c-0.574-0.49-1.115-1.023-1.584-1.617c-1.096-1.389-1.786-3.201-1.436-4.935c0.265-1.307,1.102-2.453,2.158-3.265
							c1.059-0.811,2.325-1.312,3.617-1.641c2.444-0.622,4.994-0.66,7.516-0.74s5.08-0.213,7.474-1.013
							c2.393-0.799,4.638-2.354,5.735-4.626"/>
						<path fill="none" stroke="#15344D" stroke-width="1.2811" stroke-miterlimit="10" d="M824.546,719.033
							c-3.198,6.176-2.894,14.025,0.776,19.934c1.33,2.145,3.055,4.025,4.354,6.189c0.529,0.883,1,1.887,0.845,2.904
							c-0.205,1.352-1.494,2.33-2.831,2.612c-1.338,0.282-2.723,0.017-4.063-0.249"/>
						<path fill="none" stroke="#15344D" stroke-width="1.2811" stroke-miterlimit="10" d="M793.609,843.92
							c0.367,0.153,0.775,0.18,1.16,0.082c4.971-1.268,8.991-4.656,11.764-8.658c2.887-4.164,4.579-8.987,6.18-13.777
							c1.244-3.723,2.457-7.498,2.717-11.449c0.232-3.537-0.361-7.269-2.232-10.466c-0.402-0.687-1.219-1.026-1.989-0.828
							c-3.587,0.927-6.652,3.136-8.998,5.793c-2.619,2.969-4.443,6.491-6.207,9.997c-2.27,4.512-4.498,9.111-5.419,14.095
							c-0.884,4.787-0.454,10.028,2.15,14.446C792.937,843.497,793.242,843.768,793.609,843.92L793.609,843.92z"/>
					</g>
				</g>
			</g>
		</g>
		<g>
			<path fill="#C5F5F7" d="M1005.924,594.898c-1.357-1.025-2.804-0.444-4.092,0.146c-11.371,5.219-21.738,12.619-30.369,21.678
				c-0.016,0.017-0.028,0.034-0.044,0.051c-0.749-1.05-1.146-2.355-1.024-3.641c0.096-1.008,0.476-1.984,0.466-2.996
				c-0.019-2.012-1.703-3.789-3.67-4.213s-4.072,0.358-5.532,1.742c-1.461,1.385-2.33,3.301-2.769,5.264
				c-1.249,0.949-2.329,2.104-3.21,3.396c-1.191-2.881-2.84-5.481-5.687-8.221c-4.292-4.129-11.338-9.343-16.339-12.577
				c-3.254-2.104-6.183-4.67-9.354-6.895c-3.172-2.226-6.681-4.141-10.516-4.692s-8.054,0.455-10.661,3.321
				c-1.174,1.291-1.996,2.99-1.894,4.732c0.104,1.757,1.104,3.313,2.029,4.811c2.251,3.643,4.228,7.454,5.909,11.392
				c1.789,4.189,3.439,8.782,7.152,11.424c3.311,2.356,7.58,2.663,11.676,2.748c0.906,0.019,1.53,0.948,1.17,1.78
				c-0.003,0.006-0.006,0.011-0.008,0.017c-0.255,0.57-0.735,1.004-1.202,1.419c-3.987,3.549-7.975,7.097-11.962,10.645
				c-2.495,2.221-2.045,6.555-1.858,9.889c0.187,3.336,0.716,6.68,0.353,10c-0.509,4.645-2.743,9.021-2.846,13.693
				c-0.024,1.115,0.148,2.691,1.045,3.357s2.176,0.769,3.167,0.254c0.786-0.407,1.347-1.135,2.004-1.728
				c1.75-1.581,4.321-2.182,6.597-1.587c0.408,0.107,0.84,0.001,1.161-0.271c10.866-9.215,16.7-23.504,28.12-32.023
				c0.211-0.157,0.374-0.372,0.457-0.623c0.356-1.082,0.803-2.066,1.207-3.096c0.013,0.094,0.031,0.188,0.039,0.283
				c0.227,2.63-1.402,5.002-2.533,7.389c-2.861,6.042-2.577,13.474,0.738,19.279c0.767,1.342,0.843,3.156,2.076,4.089
				c0.526,0.398,1.256,0.644,1.848,0.35c0.564-0.28,0.812-0.937,1.01-1.535c0.306-0.924,0.243-1.919,0.902-2.636
				c2.61-2.832,3.691-6.743,4.263-10.552c0.571-3.81,0.729-7.71,1.876-11.387c0.314-1.01,0.706-1.991,1.139-2.957
				c-0.188,2.169-0.329,4.309-0.301,6.89c0.136,12.316,0.371,25.088,5.688,36.199c0.569,1.19,1.647,2.572,2.962,1.914
				c0.64-0.32,1.026-0.988,1.063-1.701c0.494-9.674,3.009-19.238,7.331-27.905c0.924-1.852,1.943-3.704,2.281-5.745
				s-0.15-4.363-1.781-5.638c-0.644-0.504-1.616-0.933-2.605-1.147c-1.286-0.281-1.627-1.976-0.54-2.721
				c1.2-0.822,2.594-1.457,3.933-1.996c2.875-1.157,6.056-2.415,7.464-5.176c0.903-1.771,0.895-3.846,1.254-5.801
				c1.601-8.712,10.288-14.445,13.22-22.805c0.497-1.418,0.823-2.965,0.276-4.416
				C1006.783,595.791,1006.417,595.271,1005.924,594.898z"/>
			<g>
				<g>
					<g>
						<path fill="#15344D" stroke="#15344D" stroke-width="1.0805" stroke-miterlimit="10" d="M975.441,572.715
							c-0.096-0.17-0.352-0.225-0.523-0.163c-0.201,0.073-0.289,0.259-0.296,0.461c-0.036,1.024,0.365,1.991,0.739,2.925
							c0.35,0.869,0.723,1.789,0.533,2.741c-0.081,0.411,0.356,0.608,0.65,0.475c0.002,0,0.005,0.001,0.008,0.001
							c0.262-0.021,0.411-0.242,0.414-0.486C976.996,576.584,976.453,574.533,975.441,572.715z"/>
						<path fill="#15344D" stroke="#15344D" stroke-width="1.0805" stroke-miterlimit="10" d="M941.789,585.271
							c-0.432,0.024-0.707,0.455-0.841,0.825c-0.295,0.815-0.087,1.653,0.206,2.438c0.363,0.977,0.739,1.948,1.109,2.921
							c0.047,0.124,0.127,0.201,0.221,0.244c0.006,0.041,0.013,0.083,0.02,0.124c0.037,0.241,0.229,0.436,0.486,0.415
							c0.229-0.019,0.453-0.244,0.415-0.486c-0.292-1.856-0.583-3.713-0.875-5.569C942.465,585.764,942.326,585.241,941.789,585.271
							z M941.889,587.902c-0.097-0.287-0.174-0.58-0.186-0.886c-0.004-0.082-0.001-0.165,0.008-0.247
							c0.028,0.182,0.057,0.363,0.085,0.545C941.826,587.511,941.857,587.707,941.889,587.902z"/>
					</g>
					
						<path fill="none" stroke="#15344D" stroke-width="1.0805" stroke-linecap="round" stroke-linejoin="round" stroke-miterlimit="10" d="
						M892.351,568.512c2.883-0.357,5.724,0.818,8.312,2.14c4.84,2.472,9.354,5.531,13.793,8.668
						c7.414,5.241,14.656,10.72,21.897,16.198c7.904,5.98,16.123,12.355,20.216,21.361c0.092,0.129,0.165,0.272,0.21,0.437
						c0.026,0.097,0.053,0.194,0.079,0.292c0.058,0.209,0.085,0.42,0.084,0.625c1.055,2.914,1.254,6.166,0.475,9.162
						c-0.129,0.492-0.228,1.026-0.568,1.424c-0.174,0.201-0.381,0.354-0.617,0.465c-0.022,0.025-0.061,0.063-0.119,0.119
						c-0.677,0.683-1.271,1.487-1.811,2.281c-1.098,1.615-1.96,3.446-2.521,5.316c-0.088,0.295-0.226,0.539-0.396,0.739
						c-0.177,0.849-0.379,1.688-0.643,2.508c-1.067,3.312-3.104,6.21-5.11,9.053c-5.263,7.454-10.526,14.908-15.79,22.362
						c-1.043,1.478-2.531,3.142-4.297,2.749c-0.852-0.19-1.537-0.845-2.379-1.074c-1.613-0.441-3.239,0.81-4.067,2.263
						c-0.828,1.452-1.168,3.146-2.021,4.584c-0.853,1.438-2.538,2.637-4.126,2.112c-2.275-0.751-2.375-4.105-4.263-5.581
						c-1.417-1.107-3.611-0.958-4.825-2.284c-1.265-1.382-0.759-3.67,0.385-5.153c1.145-1.483,2.787-2.511,3.996-3.941
						c1.656-1.957,2.403-4.654,1.989-7.185c-0.432-2.643-2.014-4.931-3.039-7.404c-1.656-3.995-1.819-8.587-0.476-12.695
						c-0.361-0.26-0.604-0.687-0.601-1.297c0.024-3.477,2.199-6.069,5.029-7.863c1.756-1.112,3.882-2.015,5.411-3.471
						c0.037-0.115,0.078-0.229,0.121-0.343c-2.644,0.342-5.304,0.555-7.968,0.636c-1.142,0.034-2.39,0.01-3.269-0.718
						c-1.427-1.179-1.094-3.414-1.674-5.172c-0.908-2.747-4.029-4.17-5.347-6.746c-1.207-2.359-0.687-5.189-0.974-7.824
						c-0.459-4.222-3.011-7.908-5.746-11.156c-0.877-1.041-1.795-2.08-2.349-3.324c-0.554-1.243-0.692-2.756-0.005-3.932
						c0.379-0.646,0.975-1.144,1.345-1.794c0.991-1.745,0.08-3.95-1.071-5.594c-1.152-1.643-2.604-3.258-2.752-5.259
						C886.657,571.298,889.467,568.869,892.351,568.512z"/>
					
						<path fill="none" stroke="#15344D" stroke-width="1.0805" stroke-linecap="round" stroke-linejoin="round" stroke-miterlimit="10" d="
						M1012.104,588.9c-1.244-1.105-2.877-0.739-4.429-0.168c-2.905,1.068-5.813,2.784-8.708,4.593
						c-4.835,3.022-9.654,6.317-14.471,9.612c-5.18,3.541-10.603,7.366-14.864,14.635l-0.307,0.5
						c-0.036,0.06-0.069,0.125-0.102,0.197c-0.038,0.085-0.077,0.171-0.114,0.257c-0.062,0.136-0.114,0.277-0.16,0.421
						c-0.031,0.101-0.068,0.198-0.115,0.293c-1.229,2.467-2.156,5.453-2.58,8.455c-0.071,0.502-0.167,1.037-0.114,1.506
						c0.027,0.237,0.083,0.438,0.164,0.606c0.003,0.03,0.011,0.077,0.023,0.146c0.134,0.829,0.196,1.753,0.236,2.65
						c0.081,1.83-0.004,3.802-0.239,5.731c-0.029,0.239-0.036,0.459-0.025,0.656c0.008,0.125-0.004,0.25-0.023,0.374
						c-0.129,0.78-0.244,1.56-0.33,2.335c-0.383,3.436-0.206,6.735-0.027,9.974c0.469,8.492,0.937,16.984,1.404,25.477
						c0.094,1.684,0.343,3.662,1.268,3.756c0.446,0.046,0.938-0.396,1.391-0.391c0.866,0.008,1.29,1.63,1.289,3.232
						c0,1.603-0.291,3.305-0.276,4.9c0.015,1.595,0.48,3.184,1.356,3.105c1.257-0.112,2.193-3.279,3.461-4.183
						c0.953-0.679,1.933,0.046,2.849-0.895c0.954-0.98,1.325-3.292,1.188-5.008s-0.629-3.129-0.812-4.812
						c-0.25-2.303,0.119-5.068,0.982-7.368c0.901-2.4,2.243-4.159,3.376-6.242c1.748-3.215,3.007-7.31,3.521-11.391
						c0.038-0.308,0.164-0.592,0.343-0.845c0.131-0.187,0.251-0.449,0.348-0.799c0.91-3.316,0.588-6.361-0.252-8.819
						c-0.493-1.446-1.192-2.8-1.539-4.465c-0.038-0.182-0.043-0.368-0.026-0.554c0.003-0.026,0.005-0.053,0.007-0.08
						c1.138,1.027,2.317,1.936,3.533,2.719c0.521,0.336,1.107,0.644,1.71,0.185c0.976-0.744,1.413-2.96,2.149-4.479
						c1.15-2.375,2.978-2.901,4.273-5.004c1.187-1.926,1.695-4.758,2.527-7.189c1.334-3.897,3.496-6.73,5.629-9.097
						c0.685-0.759,1.387-1.504,1.974-2.541s1.053-2.44,1.045-3.741c-0.005-0.716-0.149-1.348-0.149-2.065
						c0.003-1.924,1.012-3.782,1.982-5.04c0.971-1.259,2.074-2.412,2.674-4.277C1014.01,593.063,1013.349,590.005,1012.104,588.9z"
						/>
					
						<path fill="none" stroke="#15344D" stroke-width="1.0805" stroke-linecap="round" stroke-linejoin="round" stroke-miterlimit="10" d="
						M958.403,613.036c0.229-0.086,0.392-0.286,0.452-0.522c0.908-3.602,3.486-7.688,7.696-5.634
						c1.685,0.822,3.349,2.197,3.534,4.192c0.088,0.949-0.186,1.895-0.66,2.706c-0.001,0.001-0.002,0.003-0.003,0.004
						c0.008,0.299,0.014,0.53,0.021,0.83c0.034,0.05,0.068,0.102,0.101,0.153c0.079,0.125,0.146,0.256,0.204,0.392
						c0.054,0.126,0.142,0.233,0.253,0.313c0.1,0.071,0.193,0.152,0.279,0.246c2.192,2.371,2.149,5.348,0.749,8.148
						c-0.971,1.942-2.012,3.84-2.987,5.775c-0.033,0.066-0.056,0.137-0.068,0.21c-0.085,0.461-0.279,0.914-0.565,1.321
						c-0.136,0.192-0.262,0.389-0.384,0.588c-0.024,0.045-0.048,0.09-0.072,0.136c-0.484,1.064-0.94,2.14-1.384,3.22
						c-0.012,0.029-0.022,0.059-0.031,0.089c-1.152,3.994-0.944,8.551-1.614,12.503c-0.978,5.773-3.129,11.363-6.265,16.303
						c-1.402,2.209-4.651,1.844-5.082-0.92c-0.59-3.784-1.175-7.583-1.314-11.416c-0.07-1.906-0.025-3.824,0.144-5.725
						c0.163-1.82,0.355-3.911,1.11-5.595c0.239-0.533,0.582-0.999,0.99-1.375c0.023-0.048,0.046-0.096,0.07-0.144
						c0.272-0.528,0.696-1.102,1.163-1.7c0.086-0.11,0.142-0.243,0.158-0.383c0.331-2.813,0.315-5.646-0.751-8.333
						c-0.105-0.264-0.164-0.518-0.189-0.761c-0.409-1.388-0.683-2.811-0.721-4.267C953.128,619.283,954.3,614.586,958.403,613.036z"
						/>
					<path fill="#15344D" stroke="#15344D" stroke-width="1.0805" stroke-miterlimit="10" d="M961.064,607.414
						c-3.346-3.085-7.221-5.548-10.811-8.338c-2.185-1.697-4.318-3.541-6.028-5.729c-0.668-1.121-1.021-2.42-1.212-3.72
						c-0.147-1-0.168-2.007-0.281-3.009c-0.09-0.798-0.568-1.714-1.494-1.681c-0.304,0.011-0.426,0.32-0.348,0.533
						c-0.378,3.036,0.914,5.932,2.735,8.292c0.294,0.487,0.637,0.943,1.047,1.35c0.056,0.056,0.119,0.087,0.183,0.101
						c3.508,3.85,8.057,6.633,12.167,9.773c1.286,0.982,2.559,2.026,3.754,3.148C960.794,607.865,960.898,607.605,961.064,607.414z
						 M942.388,590.299c-0.613-1.424-0.935-2.954-0.792-4.525c0.512,0.346,0.456,1.443,0.493,1.946
						C942.152,588.583,942.234,589.446,942.388,590.299z"/>
					<path fill="#15344D" stroke="#15344D" stroke-width="1.0805" stroke-miterlimit="10" d="M975.301,572.127
						c-0.033-0.225-0.289-0.438-0.56-0.301c-0.829,0.416-0.809,1.449-0.505,2.192c0.383,0.933,0.849,1.826,1.199,2.773
						c0.457,1.231,0.771,2.54,0.725,3.845c-0.448,2.74-1.435,5.383-2.535,7.921c-2.152,4.964-4.886,9.714-6.217,14.997
						c-0.258,1.025-0.46,2.066-0.592,3.116c0.255,0.006,0.51,0.09,0.707,0.257c0.402-3.433,1.608-6.788,3.004-9.936
						c2.097-4.729,4.748-9.355,5.977-14.416c0.049-0.043,0.09-0.1,0.112-0.176c0.164-0.553,0.245-1.118,0.27-1.687
						C977.349,577.768,977.092,574.608,975.301,572.127z M976.308,577.08c-0.275-0.82-0.617-1.617-0.976-2.405
						c-0.21-0.459-0.786-1.396-0.503-1.943C975.709,574.04,976.162,575.537,976.308,577.08z"/>
				</g>
			</g>
		</g>
	</g>
</g>
</svg>
