<svg width="167" height="185" viewBox="0 0 167 185" fill="none" xmlns="http://www.w3.org/2000/svg">
<g clip-path="url(#clip0_1634_537)">
<path d="M4.008 178.451V156.051H14.504C17.192 156.051 19.24 156.585 20.648 157.651C22.056 158.697 22.76 160.105 22.76 161.875C22.76 163.07 22.4827 164.094 21.928 164.947C21.3733 165.779 20.6267 166.43 19.688 166.899C18.7707 167.347 17.768 167.571 16.68 167.571L17.256 166.419C18.5147 166.419 19.6453 166.654 20.648 167.123C21.6507 167.571 22.44 168.233 23.016 169.107C23.6133 169.982 23.912 171.07 23.912 172.371C23.912 174.291 23.176 175.785 21.704 176.851C20.232 177.918 18.0453 178.451 15.144 178.451H4.008ZM8.168 175.187H14.888C16.4453 175.187 17.64 174.931 18.472 174.419C19.304 173.907 19.72 173.086 19.72 171.955C19.72 170.846 19.304 170.035 18.472 169.523C17.64 168.99 16.4453 168.723 14.888 168.723H7.848V165.491H14.056C15.5067 165.491 16.616 165.235 17.384 164.723C18.1733 164.211 18.568 163.443 18.568 162.419C18.568 161.374 18.1733 160.595 17.384 160.083C16.616 159.571 15.5067 159.315 14.056 159.315H8.168V175.187ZM38.4958 178.451V174.995L38.2718 174.259V168.211C38.2718 167.038 37.9198 166.131 37.2158 165.491C36.5118 164.83 35.4451 164.499 34.0158 164.499C33.0558 164.499 32.1064 164.649 31.1678 164.947C30.2504 165.246 29.4718 165.662 28.8318 166.195L27.2638 163.283C28.1811 162.579 29.2691 162.057 30.5278 161.715C31.8078 161.353 33.1304 161.171 34.4958 161.171C36.9704 161.171 38.8798 161.769 40.2238 162.963C41.5891 164.137 42.2718 165.961 42.2718 168.435V178.451H38.4958ZM33.1198 178.675C31.8398 178.675 30.7198 178.462 29.7598 178.035C28.7998 177.587 28.0531 176.979 27.5198 176.211C27.0078 175.422 26.7518 174.537 26.7518 173.555C26.7518 172.595 26.9758 171.731 27.4238 170.963C27.8931 170.195 28.6504 169.587 29.6958 169.139C30.7411 168.691 32.1278 168.467 33.8558 168.467H38.8158V171.123H34.1438C32.7784 171.123 31.8611 171.347 31.3918 171.795C30.9224 172.222 30.6878 172.755 30.6878 173.395C30.6878 174.121 30.9758 174.697 31.5518 175.123C32.1278 175.55 32.9278 175.763 33.9518 175.763C34.9331 175.763 35.8078 175.539 36.5758 175.091C37.3651 174.643 37.9304 173.982 38.2718 173.107L38.9438 175.507C38.5598 176.51 37.8664 177.289 36.8638 177.843C35.8824 178.398 34.6344 178.675 33.1198 178.675ZM57.1013 161.171C58.4666 161.171 59.6826 161.438 60.7493 161.971C61.8373 162.505 62.6906 163.326 63.3093 164.435C63.9279 165.523 64.2373 166.931 64.2373 168.659V178.451H60.2373V169.171C60.2373 167.657 59.8746 166.526 59.1493 165.779C58.4453 165.033 57.4533 164.659 56.1733 164.659C55.2346 164.659 54.4026 164.851 53.6773 165.235C52.9519 165.619 52.3866 166.195 51.9813 166.963C51.5973 167.71 51.4053 168.659 51.4053 169.811V178.451H47.4053V161.363H51.2133V165.971L50.5413 164.563C51.1386 163.475 52.0026 162.643 53.1333 162.067C54.2853 161.47 55.6079 161.171 57.1013 161.171ZM77.0228 178.675C75.2734 178.675 73.7161 178.302 72.3508 177.555C70.9854 176.787 69.9081 175.742 69.1188 174.419C68.3294 173.097 67.9348 171.593 67.9348 169.907C67.9348 168.201 68.3294 166.697 69.1188 165.395C69.9081 164.073 70.9854 163.038 72.3508 162.291C73.7161 161.545 75.2734 161.171 77.0228 161.171C78.7934 161.171 80.3614 161.545 81.7268 162.291C83.1134 163.038 84.1908 164.062 84.9588 165.363C85.7481 166.665 86.1428 168.179 86.1428 169.907C86.1428 171.593 85.7481 173.097 84.9588 174.419C84.1908 175.742 83.1134 176.787 81.7268 177.555C80.3614 178.302 78.7934 178.675 77.0228 178.675ZM77.0228 175.251C78.0041 175.251 78.8788 175.038 79.6468 174.611C80.4148 174.185 81.0121 173.566 81.4388 172.755C81.8868 171.945 82.1108 170.995 82.1108 169.907C82.1108 168.798 81.8868 167.849 81.4388 167.059C81.0121 166.249 80.4148 165.63 79.6468 165.203C78.8788 164.777 78.0148 164.563 77.0548 164.563C76.0734 164.563 75.1988 164.777 74.4308 165.203C73.6841 165.63 73.0868 166.249 72.6388 167.059C72.1908 167.849 71.9668 168.798 71.9668 169.907C71.9668 170.995 72.1908 171.945 72.6388 172.755C73.0868 173.566 73.6841 174.185 74.4308 174.611C75.1988 175.038 76.0628 175.251 77.0228 175.251Z" fill="black"/>
<path d="M99.1955 178.451V156.051H103.356V174.931H115.068V178.451H99.1955ZM117.968 178.451V161.363H121.968V178.451H117.968ZM119.984 158.547C119.237 158.547 118.618 158.313 118.128 157.843C117.658 157.374 117.424 156.809 117.424 156.147C117.424 155.465 117.658 154.899 118.128 154.451C118.618 153.982 119.237 153.747 119.984 153.747C120.73 153.747 121.338 153.971 121.808 154.419C122.298 154.846 122.544 155.39 122.544 156.051C122.544 156.755 122.309 157.353 121.84 157.843C121.37 158.313 120.752 158.547 119.984 158.547ZM131.762 178.451L124.434 161.363H128.594L134.898 176.435H132.85L139.378 161.363H143.218L135.89 178.451H131.762ZM153.281 178.675C151.382 178.675 149.718 178.302 148.289 177.555C146.881 176.787 145.782 175.742 144.993 174.419C144.225 173.097 143.841 171.593 143.841 169.907C143.841 168.201 144.214 166.697 144.961 165.395C145.729 164.073 146.774 163.038 148.097 162.291C149.441 161.545 150.966 161.171 152.673 161.171C154.337 161.171 155.82 161.534 157.121 162.259C158.422 162.985 159.446 164.009 160.193 165.331C160.94 166.654 161.313 168.211 161.313 170.003C161.313 170.174 161.302 170.366 161.281 170.579C161.281 170.793 161.27 170.995 161.249 171.187H147.009V168.531H159.137L157.569 169.363C157.59 168.382 157.388 167.518 156.961 166.771C156.534 166.025 155.948 165.438 155.201 165.011C154.476 164.585 153.633 164.371 152.673 164.371C151.692 164.371 150.828 164.585 150.081 165.011C149.356 165.438 148.78 166.035 148.353 166.803C147.948 167.55 147.745 168.435 147.745 169.459V170.099C147.745 171.123 147.98 172.03 148.449 172.819C148.918 173.609 149.58 174.217 150.433 174.643C151.286 175.07 152.268 175.283 153.377 175.283C154.337 175.283 155.201 175.134 155.969 174.835C156.737 174.537 157.42 174.067 158.017 173.427L160.161 175.891C159.393 176.787 158.422 177.481 157.249 177.971C156.097 178.441 154.774 178.675 153.281 178.675Z" fill="#ED2D21"/>
<path d="M39.2445 28.3462L38.7363 29.3213C38.5303 29.6509 38.338 30.008 38.1595 30.3651C37.4591 30.1316 33.2016 28.8543 31.7733 31.1067C31.7733 31.1067 30.6746 32.796 32.4188 36.0372C32.4188 36.0372 32.4325 36.6278 31.4162 37.2046C30.4 37.7815 31.0317 40.9677 35.5089 41.0364L35.4677 44.3188V44.4974C33.49 44.0579 28.8343 37.5205 28.8343 37.5205C26.4721 32.8784 27.6395 28.305 27.9828 27.1788C28.0378 27.0002 28.079 26.9041 28.079 26.9041C32.9407 25.5582 38.7775 28.0303 38.7775 28.0303L39.2445 28.3462Z" fill="#FCB5D1"/>
<path d="M112.884 19.2269C112.884 19.2544 112.884 19.2818 112.884 19.3093C112.884 19.3231 112.884 19.3368 112.884 19.3505C112.843 19.6939 112.555 22.2209 111.827 24.9952C111.662 25.6132 111.483 26.245 111.264 26.863C111.264 26.8768 111.264 26.8768 111.264 26.8768C110.934 27.8656 110.536 28.8133 110.082 29.6785C110.082 29.6785 108.434 27.948 107.363 26.1351C107.02 25.4622 106.786 24.954 106.786 24.954C110.371 22.9763 110.261 21.1359 110.179 19.6939C110.096 18.2518 107.432 18.4441 107.432 18.4441C107.432 18.4441 107.501 14.5299 105.262 12.7307C103.023 10.9316 98.1891 15.4638 98.1891 15.4638L97.7084 15.1616C96.9805 14.6397 96.2938 14.2003 95.6758 13.8844C95.7307 13.7196 97.42 8.76159 105.619 8.22596C105.633 8.22596 105.633 8.22596 105.646 8.22596C106.69 8.15729 107.844 8.15729 109.121 8.26716C109.217 8.39077 110.646 10.135 111.731 12.7445C111.731 12.7582 111.744 12.7857 111.744 12.7994C112.197 13.8844 112.568 15.1067 112.774 16.4252V16.4389V16.4526C112.898 17.3454 112.953 18.2655 112.884 19.2269Z" fill="#FCB5D1"/>
<path d="M144.012 87.7858C136.115 85.1077 133.78 81.5094 133.78 81.5094C133.78 81.5094 137.021 78.8312 136.952 76.5651C136.952 76.5651 132.228 77.4029 130.539 77.0184C129.907 76.8673 128.245 76.2218 126.281 75.2879C123.04 73.7497 118.934 71.4561 117.066 69.3822L118.261 61.6912C118.261 61.6912 121.914 55.868 121.667 51.1572C121.667 51.1572 121.639 50.5117 121.955 49.9761C122.038 49.825 122.161 49.6739 122.326 49.564C122.326 49.564 118.934 48.4791 119.909 48.1769C120.898 47.8748 121.818 47.9434 122.038 47.2293L120.28 45.1142L119.511 42.7932C119.511 42.7932 118.879 40.2249 118.302 39.3459C117.725 38.4807 113.646 35.0472 112.026 33.4266C110.405 31.806 109.883 30.6248 109.883 30.6248L109.403 29.8695C108.908 29.3613 106.779 24.9664 106.779 24.9664C110.378 22.9887 110.254 21.1484 110.172 19.7063C110.089 18.2642 107.425 18.4565 107.425 18.4565C107.425 18.4565 107.494 14.5423 105.255 12.7431C103.016 10.944 98.1821 15.4762 98.1821 15.4762L95.6688 13.8968C99.1984 6.96112 109.114 8.26585 109.114 8.26585C109.114 8.26585 111.655 10.7654 112.781 16.4239C113.77 21.423 110.639 28.3725 110.089 29.6909C110.79 28.084 112.548 24.7879 112.946 18.6762C113.358 12.1938 110.034 7.07099 110.034 7.07099C110.034 7.07099 99.2671 2.26409 87.0578 9.84526L86.2612 10.0513C86.2612 10.0513 64.8229 5.47785 50.7046 15.5174L46.0351 19.2943C46.0351 19.2943 32.3975 17.3852 25.874 25.6806C25.874 25.6806 25.6405 30.8995 27.7281 35.2669C27.7281 35.2669 26.4508 27.7132 28.3873 26.9304C30.3375 26.1475 37.1082 26.8068 38.8112 28.3587L39.2781 28.3725L38.303 30.4326C38.303 30.4326 33.3864 28.6883 31.8207 31.1467C31.8207 31.1467 30.722 32.836 32.4662 36.0635C32.4662 36.0635 32.4799 36.6541 31.4636 37.2309C30.4473 37.8077 31.0791 40.994 35.5563 41.0627L35.5151 44.5099L35.5014 45.1829C35.5014 45.1829 35.0756 52.1323 33.1254 53.8353C33.1254 53.8353 33.7846 54.7006 34.8147 54.8654C34.8147 54.8654 33.1941 56.7744 32.219 58.9719L31.9169 59.8096C31.9169 59.8096 15.5325 59.2328 9.65448 81.5506C9.65448 81.5506 8.08883 87.7996 8.76178 91.8099C8.76178 91.8099 8.95406 100.627 12.0441 107.714C12.0441 107.714 12.8544 110.049 10.6845 109.843C10.6845 109.843 17.1394 117.918 22.1247 119.608C27.1101 121.297 28.1538 121.613 28.1538 121.613C28.1538 121.613 33.4688 127.697 42.2034 128.287C42.2034 128.287 41.3657 128.603 42.3957 129.263C43.4257 129.908 51.8857 136.198 60.895 131.213C60.895 131.213 64.6855 128.439 62.1311 121.984C62.1311 121.984 61.9525 121.832 62.7354 120.487C63.1474 119.772 63.065 118.729 63.2572 119.525L64.4795 121.173L65.0701 124.167L67.1851 130.196C67.1851 130.196 73.2279 134.77 81.0287 129.894L83.0201 123.165L83.8166 123.481C83.8166 123.481 84.4896 129.881 84.8467 130.265C85.2037 130.65 90.5187 133.177 95.6963 130.979C95.6963 130.979 97.2894 130.457 98.0448 128.315C98.8001 126.186 100.215 122.409 100.215 122.409C100.215 122.409 113.523 124.511 123.095 121.132C128.616 119.182 137.09 117.122 148.42 102.22C148.42 102.22 154.957 92.7575 155.548 89.3927C155.562 89.324 151.922 90.4502 144.012 87.7858Z" fill="white"/>
<g opacity="0.6">
<path opacity="0.6" d="M115.857 78.9562C116.997 72.6386 114.648 65.0849 116.804 63.5879C121.076 60.6076 119.51 51.1998 119.51 51.1998C120.128 51.1448 121.048 50.0187 122.325 49.5654C122.009 50.1011 121.872 52.1474 121.872 52.1474C122.119 56.8582 118.645 61.8436 118.645 61.8436L117.107 69.9192C116.791 71.7184 117.326 76.7588 117.326 76.7588C117.326 76.7588 118.178 78.915 118.7 80.7279C119.222 82.5408 117.985 83.7631 117.985 83.7631C117.985 83.7631 118.384 85.9743 118.796 88.8859C119.208 91.7975 116.969 96.1787 116.969 96.1787C113.412 99.2826 115.143 102.359 115.143 102.359C114.264 103.004 114.071 105.12 114.071 105.12C114.113 107.317 112.533 109.542 110.926 110.97C109.319 112.399 110.047 114.596 108.207 117.59C106.847 119.801 106.243 119.801 106.243 119.801L103.181 119.829C101.629 122.589 99.5273 122.603 99.5273 122.603C102.041 121.82 104.018 118.03 104.513 115.571C104.677 114.692 105.556 113.964 106.449 114.047C109.635 114.308 108.921 109.102 112.204 105.696C114.58 103.238 112.89 99.7633 111.847 98.0191C111.531 97.4834 111.805 96.783 112.41 96.6182C113.11 96.4259 114.154 96.0826 115.294 95.0525C120.444 90.4104 117.683 80.7279 114.744 79.7665C114.593 79.7116 114.552 79.5331 114.662 79.4232C114.854 79.2034 115.225 78.9562 115.829 79.0249L115.857 78.9562Z" fill="#DBD2D2"/>
<path opacity="0.6" d="M40.9948 79.3832C39.3193 78.5454 34.4576 80.6742 30.4336 84.1901C30.4336 84.1901 31.0516 82.1849 36.5863 78.6553C37.3417 78.1746 38.921 78.0373 39.8275 77.4879C39.8275 77.4879 36.1468 74.6587 36.1194 65.6904C36.1194 65.6904 35.5563 63.7402 36.9159 64.3032C36.9159 64.3032 37.479 75.8398 42.794 79.1223C42.8077 79.136 43.206 80.4819 40.9948 79.3832Z" fill="#DBD2D2"/>
<path opacity="0.6" d="M147.54 89.2695C147.54 89.2695 152.031 89.8738 150.644 93.6782C149.257 97.4825 143.393 107.714 138.641 109.115C138.641 109.115 137.13 109.719 136.018 109.774C135.592 109.802 135.345 110.283 135.592 110.64C135.839 110.997 136.224 111.395 136.842 111.642C136.842 111.642 131.678 118.935 120.155 119.814C110.322 120.556 107.699 118.441 107.699 118.441C107.699 118.441 105.859 120.212 102.92 119.814C102.92 119.814 102.041 121.902 100.406 122.382C100.406 122.382 118.027 127.107 135.647 115.447L142.761 109.129L148.172 103.1C148.172 103.1 155.739 91.9202 155.492 89.4343C155.465 89.4343 150.823 90.1348 147.54 89.2695Z" fill="#DBD2D2"/>
</g>
<path d="M33.4809 65.7433C34.4422 64.3699 35.9392 64.0677 35.9667 64.0677C36.2551 64.0128 36.4473 63.7381 36.3924 63.4635C36.3375 63.175 36.0765 62.9828 35.7881 63.0377C35.7057 63.0514 33.8517 63.3948 32.6294 65.1527C32.4646 65.3862 32.5195 65.7158 32.7667 65.8806C32.8628 65.9493 32.959 65.9768 33.0688 65.9768C33.2199 65.9768 33.3847 65.8944 33.4809 65.7433Z" fill="black"/>
<path d="M117.737 50.3892C117.449 50.3754 117.202 50.5952 117.188 50.8836C117.174 51.172 117.394 51.4192 117.683 51.4329C117.696 51.4329 117.751 51.4329 117.847 51.4329C118.465 51.4329 120.676 51.3368 122.805 50.0321C123.052 49.881 123.135 49.5514 122.984 49.3042C122.833 49.057 122.503 48.9746 122.256 49.1256C120.1 50.4716 117.765 50.3754 117.737 50.3892Z" fill="black"/>
<path d="M32.6029 82.6655C32.8227 82.4732 32.8364 82.1436 32.6441 81.9238C32.4519 81.7041 32.1223 81.6904 31.9025 81.8826C30.2682 83.3659 24.8022 89.0793 23.0717 100.753C23.0168 101.206 21.8632 111.754 24.6511 116.712C24.7472 116.877 24.9258 116.987 25.1043 116.987C25.1867 116.987 25.2829 116.959 25.3653 116.918C25.6125 116.781 25.7086 116.451 25.5713 116.204C22.9481 111.534 24.1155 100.987 24.1155 100.891C25.7773 89.5874 31.0373 84.0938 32.6029 82.6655Z" fill="black"/>
<path d="M35.7336 79.6582C35.8709 79.6582 36.0083 79.6033 36.1044 79.5071C36.1181 79.4934 37.107 78.532 39.2906 78.2985C39.428 78.2848 39.5516 78.2161 39.634 78.1063C40.1009 78.7243 40.6091 79.3423 41.1721 79.9741C41.282 80.0839 41.4194 80.1526 41.5567 80.1526C41.6803 80.1526 41.8039 80.1114 41.9138 80.0153C42.1335 79.823 42.1472 79.4934 41.955 79.2736C34.8958 71.4315 36.9284 65.0177 36.9559 64.9491C37.052 64.6744 36.901 64.3722 36.6263 64.2761C36.3516 64.18 36.0495 64.331 35.9533 64.6057C35.8709 64.8529 34.1267 70.2229 39.016 77.2685C36.5164 77.5706 35.3765 78.7243 35.3353 78.7655C35.1293 78.9715 35.143 79.3011 35.349 79.5071C35.4589 79.617 35.5962 79.6582 35.7336 79.6582Z" fill="black"/>
<path d="M34.4031 81.8822C34.5129 82.0195 34.664 82.0882 34.8151 82.0882C34.925 82.0882 35.0348 82.047 35.131 81.9783C35.3644 81.7998 35.4056 81.4702 35.2271 81.2367C34.2108 79.932 32.3705 79.8633 32.3018 79.8633C31.9997 79.8633 31.7662 80.083 31.7662 80.3714C31.7525 80.6599 31.9859 80.9071 32.2743 80.9071C32.2881 80.9208 33.7027 80.9757 34.4031 81.8822Z" fill="black"/>
<path d="M9.73522 82.6236C9.77642 82.6373 9.81762 82.6373 9.85882 82.6373C10.0923 82.6373 10.312 82.4725 10.367 82.2253C10.7103 80.7283 11.1773 79.2725 11.7266 77.8854C16.3411 66.39 22.0818 61.1436 30.9676 60.3333C31.256 60.3058 31.4757 60.0449 31.4483 59.7564C31.4208 59.468 31.1736 59.2483 30.8714 59.2758C21.5462 60.1273 15.5309 65.5659 10.7515 77.4871C10.1747 78.9154 9.70775 80.4261 9.35068 81.9781C9.28201 82.2802 9.46055 82.5549 9.73522 82.6236Z" fill="black"/>
<path d="M9.11851 86.7015C8.8301 86.6741 8.5829 86.8938 8.55543 87.1822C7.649 98.7737 12.2635 109.239 12.3185 109.335C12.4009 109.527 12.5931 109.651 12.7992 109.651C12.8678 109.651 12.9502 109.637 13.0189 109.61C13.2798 109.486 13.4034 109.184 13.2798 108.909C13.2386 108.813 8.72023 98.5815 9.61293 87.2646C9.62666 86.9762 9.40692 86.7153 9.11851 86.7015Z" fill="black"/>
<path d="M145.552 105.367C144.989 106.04 144.412 106.7 143.835 107.331C143.643 107.551 143.657 107.881 143.863 108.073C143.959 108.169 144.096 108.21 144.22 108.21C144.357 108.21 144.508 108.155 144.604 108.045C145.195 107.4 145.772 106.727 146.349 106.04C146.541 105.821 146.5 105.491 146.28 105.299C146.074 105.106 145.744 105.148 145.552 105.367Z" fill="black"/>
<path d="M155.751 89.2151C155.49 88.8854 155.091 88.7069 154.666 88.7618C146.343 89.8193 138.309 84.5592 134.56 81.6064C136.249 80.4802 137.196 78.5437 137.65 77.4175C137.787 77.0742 137.718 76.7034 137.485 76.4149C137.251 76.1265 136.881 75.9892 136.523 76.0579C134.436 76.4287 133.076 76.621 132.046 76.7034C122.611 74.1214 117.914 69.3557 117.873 69.3007C117.832 69.2458 117.777 69.2183 117.708 69.1909C118.148 65.1668 119.178 61.9393 119.205 61.8844C119.246 61.7745 119.233 61.6646 119.205 61.5685C120.634 59.2474 122.309 55.6079 122.405 51.1993C122.405 50.9109 122.185 50.6637 121.897 50.6637C121.609 50.6499 121.361 50.8834 121.361 51.1718C121.197 58.341 116.472 63.5599 116.431 63.6011C116.239 63.8209 116.252 64.1505 116.458 64.3427C116.555 64.4389 116.692 64.4801 116.816 64.4801C116.953 64.4801 117.104 64.4251 117.2 64.3153C117.228 64.2878 117.365 64.1367 117.585 63.8758C116.678 67.6664 115.387 75.2613 118.052 80.5626C118.107 80.7 118.45 81.6751 118.216 82.5128C118.01 81.8399 117.846 81.4141 117.818 81.3455C117.708 81.0708 117.406 80.9472 117.131 81.057C116.857 81.1669 116.733 81.4691 116.843 81.7437C116.884 81.8399 120.373 90.8082 116.005 96.4941C115.744 96.7688 114.069 98.6091 114.467 101.068C114.33 100.106 114.151 99.4744 114.124 99.392C114.041 99.1173 113.753 98.9525 113.478 99.0349C113.204 99.1173 113.039 99.4057 113.121 99.6804C113.135 99.749 115.058 106.602 110.951 110.201L109.839 111.437C109.784 111.492 108.493 112.961 108.177 116.189C108.177 116.202 107.902 117.85 106.611 118.743C105.884 119.238 104.963 119.402 103.851 119.224C104.867 117.219 105.183 115.268 105.197 115.117C105.238 114.829 105.046 114.568 104.757 114.513C104.469 114.472 104.208 114.664 104.153 114.953C104.139 115.008 103.205 120.831 99.36 122.342C99.1677 122.41 99.0579 122.589 99.0304 122.767C98.8793 122.657 98.687 122.63 98.5085 122.699C98.2338 122.822 98.1926 122.822 98.1377 122.836C98.0553 122.85 97.9317 122.863 97.6707 122.932C97.3961 123.014 97.2313 123.303 97.2999 123.578C97.3686 123.811 97.5746 123.962 97.8081 123.962C97.8493 123.962 97.9042 123.962 97.9454 123.948C98.1377 123.893 98.2201 123.88 98.275 123.88C98.4536 123.852 98.5634 123.825 98.9205 123.674C99.099 123.591 99.2089 123.426 99.2364 123.248C99.3325 123.317 99.4287 123.358 99.5523 123.358C99.566 123.358 99.5797 123.358 99.5935 123.344C98.7557 125.899 97.4785 129.236 96.6544 129.881C95.13 131.09 90.7215 131.969 86.4366 130.486C85.7911 130.266 85.3241 129.689 85.228 129.016L84.6374 124.264C86.0245 124.786 87.6177 125.116 89.6777 125.116C91.4768 125.116 93.6468 124.869 96.366 124.292C96.6545 124.237 96.833 123.948 96.7781 123.674C96.7231 123.385 96.4347 123.207 96.16 123.262C90.0897 124.539 87.0134 124.168 84.4452 123.042C84.3353 122.863 84.143 122.754 83.9233 122.781H83.9095C83.8958 122.767 83.8821 122.767 83.8683 122.754C84.7198 118.812 85.4202 114.678 85.5713 113.785C87.5352 111.45 87.5353 109.198 87.5353 109.088C87.5353 108.8 87.3018 108.566 87.0134 108.566C87.0134 108.566 87.0134 108.566 86.9996 108.566C86.7112 108.566 86.4778 108.814 86.4778 109.102C86.4778 109.129 86.4778 111.093 84.7198 113.153C84.6786 113.181 84.6512 113.222 84.6237 113.263C84.2117 113.73 83.7035 114.211 83.0855 114.664C79.8032 117.095 80.998 120.666 82.083 122.218C82.1791 122.369 82.3439 122.438 82.5087 122.438C82.6186 122.438 82.7147 122.41 82.8108 122.342C82.8383 122.328 82.852 122.287 82.8795 122.273C82.1654 125.596 81.3825 128.673 80.7783 129.593C80.2838 130.335 78.5259 130.994 76.1774 131.282C72.8402 131.708 69.4342 131.31 68.4316 130.39C67.9372 129.936 66.9072 128.261 65.3965 122.053C66.3853 122.451 67.5801 122.657 69.0222 122.657C69.0359 122.657 69.0634 122.657 69.0771 122.657C69.3655 122.657 69.599 122.424 69.599 122.135C69.599 121.847 69.3655 121.614 69.0771 121.614C69.0634 121.614 69.0359 121.614 69.0222 121.614C66.811 121.614 65.2317 121.119 64.339 120.144C64.0918 119.883 63.927 119.608 63.8171 119.361C65.6162 114.966 64.9707 109.569 61.8806 103.306C61.757 103.045 61.4411 102.935 61.1802 103.073C60.9193 103.196 60.8094 103.512 60.9467 103.773C63.5836 109.116 64.3664 113.771 63.3089 117.631C63.2403 117.59 63.1716 117.576 63.1029 117.562C62.8145 117.535 62.5536 117.741 62.5261 118.029C62.5261 118.07 62.4712 118.62 62.6909 119.334C60.3974 124.415 55.1236 126.132 55.0687 126.146C54.794 126.228 54.643 126.53 54.7254 126.805C54.794 127.025 55 127.176 55.2335 127.176C55.2884 127.176 55.3434 127.162 55.3846 127.148C55.5768 127.093 59.1339 125.954 61.8257 122.699L62.0866 123.578C62.7733 126.036 62.6772 128.014 61.7982 129.456C60.7819 131.118 59.0103 131.488 58.9691 131.488C50.7288 133.507 45.0019 130.678 42.4474 128.961C44.013 129.112 45.6886 129.112 47.5014 128.948C48.2018 129.057 49.9186 129.456 50.4816 130.184L50.6327 130.39H50.8936C51.0035 130.39 51.855 130.362 52.3906 129.662C52.8164 129.099 52.8713 128.302 52.5554 127.299C52.473 127.025 52.1709 126.86 51.8962 126.956C51.6215 127.039 51.4567 127.341 51.5529 127.615C51.7589 128.275 51.7589 128.769 51.5529 129.044C51.4293 129.209 51.2507 129.291 51.0996 129.318C50.0422 128.288 47.8448 127.945 47.5838 127.904L47.5151 127.89H47.4465C33.2321 129.291 27.2579 119.128 27.203 119.018C27.0656 118.771 26.736 118.675 26.4888 118.826C26.2416 118.963 26.1455 119.293 26.2965 119.54C26.3103 119.567 26.5712 119.993 27.0793 120.666C23.1515 119.595 18.2211 117.48 14.7602 113.359C9.5551 107.152 8.47014 107.179 8.09933 107.179C7.89332 107.179 7.70105 107.262 7.59118 107.413C7.41264 107.646 7.45384 107.976 7.68732 108.154C7.82465 108.264 8.00319 108.292 8.15426 108.25C8.42894 108.347 9.74738 109.02 13.9636 114.046C17.9876 118.839 23.8657 121.023 28.0819 122.012C28.1231 122.026 28.1643 122.026 28.2055 122.026H28.2192C30.3342 124.333 34.2758 127.547 40.3324 128.673C41.1564 129.442 45.6611 133.274 53.2558 133.274C55.055 133.274 57.0326 133.054 59.1888 132.532C59.285 132.518 61.4137 132.093 62.6772 130.033C63.7347 128.33 63.872 126.077 63.0892 123.303L62.6085 121.669C62.842 121.311 63.0755 120.941 63.2815 120.542C63.3639 120.652 63.4463 120.762 63.5424 120.872C63.7347 121.078 63.9407 121.257 64.1742 121.435C64.1742 121.476 64.1742 121.531 64.1879 121.572C65.4651 126.997 66.66 130.252 67.7312 131.214C68.7612 132.148 71.096 132.546 73.5131 132.546C74.4607 132.546 75.4221 132.491 76.3148 132.367C77.9216 132.161 80.737 131.612 81.6572 130.211C82.2478 129.318 82.9207 126.874 83.5525 124.141L84.1842 129.167C84.3353 130.252 85.0769 131.145 86.0932 131.488C87.7825 132.065 89.5266 132.326 91.161 132.326C93.7841 132.326 96.0914 131.681 97.2999 130.719C98.687 129.634 100.404 124.305 100.857 122.85C103.988 123.385 107.065 123.66 110.059 123.66C122.749 123.66 134.093 118.853 143.253 109.5C143.459 109.294 143.459 108.965 143.239 108.759C143.033 108.553 142.704 108.553 142.498 108.772C131.456 120.034 117.791 124.47 101.873 121.957C102.436 121.435 102.903 120.831 103.288 120.199C103.769 120.295 104.222 120.35 104.661 120.35C105.623 120.35 106.46 120.103 107.188 119.608C108.85 118.469 109.18 116.436 109.193 116.326C109.482 113.456 110.58 112.165 110.594 112.151L111.638 110.983C114.92 108.086 114.797 103.526 114.44 101.081C114.536 101.672 114.756 102.304 115.14 102.949C115.236 103.114 115.415 103.21 115.593 103.21C115.689 103.21 115.772 103.183 115.854 103.141C116.101 102.99 116.184 102.674 116.033 102.427C114.357 99.598 116.637 97.3319 116.733 97.2357L116.788 97.1808C120.07 92.937 119.37 87.2236 118.573 83.9549C119.933 82.554 119.04 80.2879 118.999 80.1918L118.986 80.1506C117.571 77.3489 117.365 73.7643 117.598 70.523C118.793 71.608 122.227 74.3823 128.063 76.5523C127.995 76.621 127.954 76.7034 127.926 76.7995C127.857 77.0879 128.036 77.3626 128.324 77.4313C129.615 77.7334 130.481 77.8982 131.991 77.7883C131.991 77.7883 131.991 77.7883 132.005 77.7883C133.09 77.7197 134.505 77.5137 136.661 77.1154C136.235 78.2004 135.301 80.0407 133.708 80.9472C132.87 80.2467 132.39 79.7935 132.362 79.766C132.156 79.56 131.827 79.5738 131.621 79.7798C131.415 79.9858 131.428 80.3154 131.634 80.5214C132.087 80.9609 142.923 91.3576 154.817 89.8331C154.872 89.8331 154.913 89.8468 154.927 89.8743C154.954 89.9018 154.954 89.943 154.94 89.9842C154.089 92.0443 151.631 97.4829 147.222 103.292C147.044 103.526 147.098 103.856 147.318 104.034C147.414 104.103 147.524 104.144 147.634 104.144C147.799 104.144 147.95 104.075 148.06 103.938C152.537 98.0323 155.037 92.4975 155.916 90.3962C156.067 89.9704 156.012 89.5447 155.751 89.2151ZM82.9345 121.641C82.8246 121.49 80.4349 117.96 83.7035 115.543C83.8958 115.392 84.0881 115.241 84.2666 115.104C83.937 116.944 83.4838 119.402 82.9894 121.765C82.9619 121.723 82.9482 121.682 82.9345 121.641Z" fill="black"/>
<path d="M9.6804 86.1672C9.73533 86.4144 9.95507 86.593 10.1885 86.593C10.216 86.593 10.2572 86.593 10.2984 86.5793C10.5868 86.5243 10.7654 86.2496 10.7104 85.9612C10.1885 83.338 8.36196 82.8024 7.483 82.8848C7.19459 82.9123 6.97485 83.1595 7.00232 83.4616C7.02979 83.75 7.277 83.9698 7.57914 83.9423C7.63407 83.9149 9.21345 83.805 9.6804 86.1672Z" fill="black"/>
<path d="M28.3728 37.7687C28.4003 37.8236 28.4277 37.8648 28.4689 37.906C29.7874 40.1584 31.6689 42.4657 34.3744 44.5945C34.4706 44.6769 34.5804 44.7044 34.7041 44.7044C34.8002 44.7044 34.8826 44.6769 34.965 44.6357C34.7865 47.4786 34.2371 51.9834 32.9461 53.4804C32.6715 53.81 32.6989 54.3044 33.0148 54.5929C33.2208 54.7851 33.6328 55.0873 34.1684 55.2658C33.2345 56.1723 32.177 57.5869 31.6002 59.7294L31.5865 59.7706C31.5865 59.7706 31.4629 60.4436 31.1058 60.9242C30.941 61.144 30.8861 61.4324 30.9547 61.7071C31.0234 61.9818 31.2157 62.1878 31.4766 62.2976C32.2182 62.5998 33.1521 62.8882 33.9762 62.8882C34.4568 62.8882 34.9101 62.7921 35.2809 62.5449C35.5143 62.3801 35.583 62.0504 35.4182 61.817C35.2534 61.5835 34.9238 61.5148 34.6903 61.6796C34.2646 61.968 33.262 61.8719 32.0672 61.4049C32.4517 60.8144 32.6028 60.1414 32.6303 60.0041C33.3856 57.2023 35.0199 55.8015 35.9126 55.2246C35.9264 55.2109 35.9538 55.1972 35.9676 55.1834C36.2697 54.9912 36.4894 54.895 36.5169 54.8813C36.7778 54.7714 36.9152 54.4555 36.7916 54.1946C36.6817 53.9336 36.3658 53.7963 36.1049 53.9062C36.0637 53.9199 35.8165 54.0298 35.4319 54.2632C34.7865 54.4693 34.2371 54.2083 33.9075 53.9611C35.8989 51.2418 36.0912 43.3722 36.0912 43.0288C36.0912 42.7404 35.8714 42.4932 35.583 42.4932C35.2946 42.4932 35.0474 42.7129 35.0474 43.0014C35.0474 43.2211 35.0337 43.4683 35.0199 43.743C32.3144 41.6142 30.4741 39.3069 29.2243 37.0683C27.0818 32.6734 28.1943 28.3334 28.5101 27.3034C33.3169 25.724 37.8353 27.5918 38.8242 28.045C38.5083 28.6356 38.2062 29.2399 37.9315 29.8442C37.9177 29.8304 37.904 29.8304 37.8765 29.8167C37.6705 29.748 32.9324 28.2098 31.2432 31.0665C30.8449 31.7257 30.8174 32.7146 31.147 33.9918C31.202 34.2253 31.4217 34.3901 31.6552 34.3901C31.6964 34.3901 31.7376 34.3901 31.7788 34.3764C32.0534 34.3077 32.232 34.0193 32.1633 33.7309C31.9161 32.7695 31.9161 32.0141 32.1496 31.6021C33.3444 29.5832 37.08 30.6682 37.5057 30.7918C36.9152 32.2064 36.4208 33.6348 36.05 35.0906C35.9813 35.3652 36.1461 35.6537 36.4345 35.7361C36.4757 35.7498 36.5169 35.7498 36.5718 35.7498C36.8053 35.7498 37.0251 35.585 37.08 35.3515C37.8353 32.385 39.0851 29.5008 40.7881 26.754C40.9392 26.5068 40.8705 26.1772 40.6233 26.0261C40.3761 25.875 40.0465 25.9437 39.8954 26.1909C39.7031 26.4931 39.5246 26.7952 39.3461 27.1111C38.3572 26.6304 33.3581 24.4604 27.9333 26.3832L27.6998 26.4656L27.6174 26.6991C27.5762 26.8227 27.0132 28.3334 26.9033 30.5446C26.4775 28.0862 26.6286 26.2871 26.6836 25.8064C31.4766 19.5986 40.898 19.3102 45.2104 19.5437C45.1966 19.5574 45.1829 19.5711 45.1692 19.5849C44.9631 19.7909 44.9631 20.1205 45.1692 20.3265C45.2653 20.4364 45.4026 20.4776 45.54 20.4776C45.6773 20.4776 45.8009 20.4226 45.9108 20.3265C47.3666 18.8844 48.3966 18.129 48.4103 18.1153L48.479 18.0604C48.5477 17.9917 56.1287 10.5341 71.689 9.47662C77.1276 9.1058 82.9369 9.65516 87.6201 10.9736C87.8948 11.056 88.1832 10.8912 88.2656 10.6165C88.3343 10.3693 88.2107 10.1084 87.9909 9.99851C90.1883 8.5839 99.2526 3.43365 109.759 7.56759C109.924 7.84227 110.295 8.5427 110.72 9.58649C110.089 8.57017 109.58 7.96587 109.525 7.88347L109.388 7.71866L109.168 7.70493C100.035 6.96329 96.4097 11.6054 95.4484 13.1711C95.2973 13.0887 95.1325 12.9925 94.9814 12.9101C94.7205 12.7728 94.4046 12.8689 94.2673 13.1299C94.1299 13.3908 94.226 13.7067 94.487 13.844C97.893 15.6707 100.475 17.6621 102.178 19.7771C102.288 19.9007 102.439 19.9694 102.59 19.9694C102.7 19.9694 102.823 19.9282 102.92 19.8595C103.139 19.681 103.18 19.3514 103.002 19.1179C101.986 17.8406 100.653 16.6183 99.0603 15.4509C99.8706 14.723 103.071 12.0449 105.392 13.3771C106.037 13.7479 106.518 14.8603 106.765 16.5222C106.806 16.7831 107.026 16.9754 107.287 16.9754C107.314 16.9754 107.342 16.9754 107.369 16.9754C107.658 16.9342 107.85 16.6595 107.809 16.3848C107.507 14.3522 106.875 13.0337 105.927 12.4844C102.727 10.644 98.7033 14.3522 98.1951 14.8466C97.632 14.4621 97.0277 14.0775 96.396 13.7067C97.2337 12.3333 100.516 8.14442 108.866 8.77618C109.512 9.62769 112.327 13.5419 112.423 18.1565C112.423 18.2527 112.423 18.3488 112.423 18.4587C112.423 18.7333 112.41 19.008 112.396 19.2827C112.396 19.3239 112.396 19.3651 112.396 19.4063C112.272 22.2767 111.585 25.5042 109.937 28.924L109.718 29.336C108.646 27.6879 107.905 26.1772 107.479 25.1883C111.064 23.1008 111.05 20.7797 110.707 19.5574C110.569 19.063 110.253 18.6784 109.814 18.4449C108.578 17.7857 106.6 18.3763 106.38 18.4587C106.106 18.5411 105.955 18.8432 106.037 19.1179C106.119 19.3926 106.422 19.5437 106.696 19.4612C107.177 19.3102 108.592 18.9943 109.306 19.3788C109.512 19.4887 109.622 19.6398 109.69 19.8595C110.226 21.7823 108.674 23.2518 107.067 24.2132C107.012 24.0759 106.985 24.0072 106.985 23.9935C106.889 23.7188 106.586 23.5677 106.312 23.6639C106.037 23.76 105.886 24.0484 105.982 24.3231C106.078 24.5978 108.317 31.0802 113.7 35.4476C113.92 35.6262 114.14 35.791 114.346 35.9695C116.145 37.4116 117.834 38.7575 118.645 40.7902C118.7 40.9412 118.754 41.0923 118.809 41.2297C117.024 39.4168 114.579 38.8949 114.442 38.8674C114.154 38.8125 113.879 38.991 113.824 39.2794C113.769 39.5679 113.948 39.8425 114.236 39.8975C114.277 39.9112 118.082 40.7215 119.263 43.8117C119.881 45.446 120.869 46.6683 121.391 47.2452C121.419 47.2864 121.419 47.3138 121.419 47.3413C121.419 47.3688 121.405 47.3962 121.364 47.4237C120.952 47.6572 120.43 47.7259 119.839 47.6572C119.551 47.616 119.29 47.822 119.249 48.1104C119.208 48.3988 119.414 48.6598 119.702 48.701C119.894 48.7284 120.073 48.7422 120.251 48.7422C120.842 48.7422 121.405 48.6048 121.872 48.3576C122.188 48.1791 122.408 47.8769 122.463 47.5198C122.518 47.1628 122.421 46.8057 122.174 46.5447C121.707 46.0366 120.842 44.9653 120.279 43.537C120.293 42.6031 120.073 41.5593 119.62 40.4194C118.713 38.1395 116.818 36.6288 114.991 35.173C114.772 34.9944 114.566 34.8296 114.346 34.6511C112.739 33.3463 111.407 31.8219 110.349 30.3386L110.83 29.4047C112.616 25.7102 113.302 22.2218 113.412 19.1591C113.44 18.7059 113.44 18.2527 113.426 17.7994C113.426 17.772 113.426 17.7445 113.426 17.7308C113.426 17.717 113.426 17.7033 113.426 17.6896C113.247 11.2758 110.583 6.99076 110.542 6.92209L110.446 6.78475L110.295 6.71608C98.3187 1.89544 88.0733 8.68004 86.9472 9.46288C86.851 9.53155 86.7961 9.62769 86.7549 9.72383C82.1678 8.5839 76.7155 8.14442 71.5791 8.48777C55.9639 9.51782 48.3416 16.7282 47.7374 17.3325C47.5863 17.4423 46.982 17.9093 46.0893 18.7333C46.0069 18.6372 45.8833 18.5685 45.7322 18.5685C41.4748 18.2801 30.9959 18.3625 25.7359 25.3257L25.6535 25.4355L25.6261 25.5592C25.6123 25.6416 24.7746 31.3137 28.2355 37.5352C28.2904 37.6039 28.3316 37.6863 28.3728 37.7687Z" fill="black"/>
<path d="M70.4079 120.956C70.298 120.681 69.9958 120.557 69.7212 120.653C69.4465 120.763 69.3229 121.065 69.419 121.34C69.4328 121.368 70.4353 123.812 73.6765 123.812C74.2396 123.812 74.8713 123.744 75.5717 123.565C78.7854 122.768 81.1339 123.469 81.1751 123.483C81.4498 123.565 81.7519 123.414 81.8343 123.139C81.9167 122.865 81.7657 122.562 81.491 122.48C81.3811 122.453 78.8541 121.683 75.3245 122.549C71.4928 123.496 70.4491 121.052 70.4079 120.956Z" fill="black"/>
<path d="M33.4954 36.848C33.7838 36.7931 33.976 36.5321 33.9211 36.2437C33.8662 35.9553 33.6052 35.763 33.3168 35.818C33.1383 35.8454 31.4902 36.1613 30.8173 37.1639C30.5563 37.5485 30.4739 38.0017 30.5701 38.4686C30.8035 39.5948 31.7786 41.5039 35.5417 41.5725H35.5554C35.8438 41.5725 36.0773 41.339 36.0773 41.0506C36.0773 40.7622 35.8576 40.515 35.5554 40.515C33.9623 40.4875 31.9846 40.0618 31.6001 38.2352C31.5589 38.0566 31.5864 37.8918 31.6962 37.7407C32.0396 37.2188 33.1383 36.9167 33.4954 36.848Z" fill="black"/>
<path d="M54.5154 59.4796C59.3648 58.236 62.7843 55.2325 62.1532 52.7711C61.522 50.3096 57.0791 49.3222 52.2298 50.5658C47.3804 51.8093 43.9609 54.8128 44.5921 57.2743C45.2232 59.7357 49.6661 60.7231 54.5154 59.4796Z" fill="#FCB5D1"/>
<path opacity="0.0196078" d="M56.1937 66.9722C65.7196 64.874 72.2781 57.8887 70.8423 51.37C69.4066 44.8513 60.5204 41.2678 50.9944 43.366C41.4684 45.4641 34.91 52.4495 36.3457 58.9682C37.7815 65.4869 46.6677 69.0704 56.1937 66.9722Z" fill="#FFFEFE"/>
<path opacity="0.0392157" d="M56.1548 66.7804C65.5317 64.712 71.9848 57.8294 70.5683 51.4076C69.1518 44.9859 60.4021 41.4569 51.0252 43.5253C41.6483 45.5937 35.1952 52.4763 36.6117 58.8981C38.0282 65.3198 46.7779 68.8489 56.1548 66.7804Z" fill="#FFFCFD"/>
<path opacity="0.0588235" d="M56.1389 66.5947C65.3676 64.5561 71.7177 57.7817 70.3221 51.4637C68.9265 45.1457 60.3138 41.6765 51.0851 43.7151C41.8564 45.7537 35.5063 52.528 36.9019 58.8461C38.2975 65.1641 46.9102 68.6333 56.1389 66.5947Z" fill="#FFFBFC"/>
<path opacity="0.0784314" d="M56.0937 66.3902C65.1734 64.3816 71.4196 57.716 70.045 51.5023C68.6705 45.2886 60.1956 41.8797 51.116 43.8884C42.0363 45.8971 35.7901 52.5626 37.1647 58.7763C38.5392 64.99 47.0141 68.3989 56.0937 66.3902Z" fill="#FFF9FB"/>
<path opacity="0.0980392" d="M56.0562 66.1879C64.9869 64.2093 71.1293 57.6527 69.7758 51.5433C68.4223 45.4339 60.0854 42.0852 51.1547 44.0639C42.2241 46.0425 36.0816 52.5991 37.4351 58.7085C38.7886 64.8179 47.1256 68.1665 56.0562 66.1879Z" fill="#FFF8FA"/>
<path opacity="0.1176" d="M56.0378 66.0159C64.8203 64.0674 70.8585 57.6132 69.5245 51.6001C68.1905 45.587 59.9894 42.2919 51.2069 44.2405C42.4243 46.189 36.3861 52.6432 37.7202 58.6563C39.0542 64.6694 47.2553 67.9644 56.0378 66.0159Z" fill="#FFF6FA"/>
<path opacity="0.1373" d="M55.9977 65.814C64.6387 63.894 70.5793 57.5476 69.2664 51.6387C67.9536 45.7299 59.8844 42.4962 51.2435 44.4162C42.6025 46.3361 36.6619 52.6826 37.9748 58.5915C39.2876 64.5003 47.3568 67.734 55.9977 65.814Z" fill="#FFF5F9"/>
<path opacity="0.1569" d="M55.9735 65.6069C64.4655 63.7164 70.3021 57.4783 69.0099 51.6737C67.7177 45.8691 59.7861 42.6961 51.2941 44.5867C42.8021 46.4772 36.9655 52.7153 38.2577 58.5199C39.5499 64.3245 47.4815 67.4974 55.9735 65.6069Z" fill="#FFF3F8"/>
<path opacity="0.1765" d="M55.9352 65.4202C64.2783 63.5601 70.0114 57.4311 68.7406 51.7308C67.4697 46.0304 59.6761 42.9173 51.333 44.7774C42.9899 46.6376 37.2568 52.7666 38.5277 58.4669C39.7985 64.1672 47.5922 67.2804 55.9352 65.4202Z" fill="#FEF2F7"/>
<path opacity="0.1961" d="M55.9121 65.2207C64.1071 63.3902 69.7371 57.3693 68.487 51.7726C67.237 46.1759 59.5802 43.1227 51.3852 44.9532C43.1902 46.7837 37.5602 52.8046 38.8103 58.4013C40.0604 63.998 47.7171 67.0511 55.9121 65.2207Z" fill="#FEF0F6"/>
<path opacity="0.2157" d="M55.8775 65.0305C63.9237 63.2298 69.4485 57.3114 68.2177 51.8115C66.9869 46.3116 59.4665 43.3128 51.4204 45.1136C43.3742 46.9143 37.8493 52.8326 39.0802 58.3325C40.311 63.8324 47.8314 66.8312 55.8775 65.0305Z" fill="#FEEFF5"/>
<path opacity="0.2353" d="M55.8386 64.8455C63.7359 63.0755 69.1576 57.2665 67.9483 51.8708C66.739 46.4751 59.3567 43.5359 51.4594 45.3059C43.5622 47.0759 38.1405 52.8848 39.3498 58.2805C40.559 63.6763 47.9414 66.6155 55.8386 64.8455Z" fill="#FEEEF4"/>
<path opacity="0.2549" d="M55.8093 64.6417C63.5578 62.9017 68.8759 57.2015 67.6877 51.91C66.4994 46.6184 59.2548 43.7393 51.5064 45.4793C43.7579 47.2193 38.4398 52.9195 39.628 58.2111C40.8163 63.5026 48.0609 66.3817 55.8093 64.6417Z" fill="#FEECF3"/>
<path opacity="0.2745" d="M55.7778 64.4369C63.3774 62.7262 68.5916 57.1342 67.424 51.9468C66.2564 46.7594 59.1491 43.9409 51.5495 45.6516C43.9498 47.3623 38.7356 52.9543 39.9032 58.1417C41.0708 63.3291 48.1781 66.1475 55.7778 64.4369Z" fill="#FEEBF2"/>
<path opacity="0.2941" d="M55.754 64.2605C63.2049 62.5801 68.3143 57.0911 67.1663 52.0004C66.0182 46.9097 59.0474 44.1451 51.5965 45.8255C44.1456 47.5059 39.0362 52.995 40.1842 58.0857C41.3323 63.1764 48.3031 65.9409 55.754 64.2605Z" fill="#FEE9F1"/>
<path opacity="0.3137" d="M55.7196 64.0582C63.0292 62.4058 68.0409 57.0238 66.9137 52.0372C65.7864 47.0506 58.947 44.3477 51.6375 46.0002C44.3279 47.6526 39.3162 53.0346 40.4434 58.0212C41.5707 63.0078 48.41 65.7106 55.7196 64.0582Z" fill="#FEE8F1"/>
<path opacity="0.3333" d="M55.6931 63.8723C62.854 62.2504 67.7626 56.9775 66.6567 52.095C65.5509 47.2125 58.8494 44.5692 51.6885 46.1912C44.5277 47.8131 39.6191 53.086 40.725 57.9685C41.8308 62.851 48.5323 65.4942 55.6931 63.8723Z" fill="#FEE6F0"/>
<path opacity="0.3529" d="M55.6526 63.6717C62.6647 62.0797 67.4698 56.9154 66.385 52.137C65.3002 47.3585 58.7362 44.7754 51.724 46.3674C44.7118 47.9594 39.9068 53.1237 40.9916 57.9021C42.0764 62.6806 48.6404 65.2637 55.6526 63.6717Z" fill="#FEE5EF"/>
<path opacity="0.3725" d="M55.6177 63.4865C62.4813 61.9246 67.1816 56.863 66.1162 52.1812C65.0508 47.4994 58.6231 44.9703 51.7596 46.5322C44.896 48.0941 40.1957 53.1557 41.2611 57.8375C42.3265 62.5193 48.7542 65.0485 55.6177 63.4865Z" fill="#FEE3EE"/>
<path opacity="0.3922" d="M55.5965 63.2876C62.3108 61.7552 66.9069 56.8023 65.8622 52.2249C64.8176 47.6476 58.5277 45.1792 51.8135 46.7116C45.0992 48.2441 40.5031 53.197 41.5478 57.7743C42.5924 62.3516 48.8823 64.82 55.5965 63.2876Z" fill="#FEE2ED"/>
<path opacity="0.4118" d="M55.5549 63.091C62.1206 61.589 66.6136 56.745 65.5903 52.2717C64.567 47.7984 58.4149 45.3896 51.8492 46.8917C45.2835 48.3937 40.7905 53.2377 41.8138 57.711C42.8371 62.1844 48.9893 64.5931 55.5549 63.091Z" fill="#FEE1EC"/>
<path opacity="0.4314" d="M55.5303 62.8878C61.9474 61.4157 66.337 56.6802 65.3347 52.3108C64.3324 47.9414 58.3177 45.5928 51.9005 47.0649C45.4834 48.5371 41.0938 53.2725 42.0961 57.6419C43.0985 62.0113 49.1131 64.36 55.5303 62.8878Z" fill="#FEDFEB"/>
<path opacity="0.451" d="M55.4924 62.699C61.7604 61.2569 66.0462 56.6304 65.0649 52.3654C64.0837 48.1004 58.2071 45.812 51.9391 47.2541C45.6711 48.6962 41.3853 53.3227 42.3665 57.5877C43.3477 61.8527 49.2244 64.1411 55.4924 62.699Z" fill="#FEDEEA"/>
<path opacity="0.4706" d="M55.4747 62.5066C61.5942 61.0941 65.7751 56.5699 64.813 52.4014C63.8509 48.2329 58.1101 45.9988 51.9906 47.4112C45.871 48.8237 41.6901 53.348 42.6522 57.5164C43.6143 61.6849 49.3551 63.9191 55.4747 62.5066Z" fill="#FEDCE9"/>
<path opacity="0.4902" d="M55.4298 62.3069C61.4077 60.9231 65.4911 56.5067 64.5504 52.4426C63.6097 48.3784 58.0011 46.2055 52.0232 47.5892C46.0453 48.973 41.9618 53.3894 42.9025 57.4536C43.8433 61.5177 49.4519 63.6906 55.4298 62.3069Z" fill="#FEDBE8"/>
<path opacity="0.5098" d="M55.3972 62.1238C61.2267 60.7701 65.207 56.4622 64.2874 52.5019C63.3678 48.5416 57.8965 46.4285 52.067 47.7823C46.2375 49.136 42.2572 53.4439 43.1768 57.4042C44.0965 61.3645 49.5677 63.4775 55.3972 62.1238Z" fill="#FDD9E8"/>
<path opacity="0.5294" d="M55.3724 61.9153C61.0529 60.5912 64.9294 56.3918 64.0306 52.5358C63.1318 48.6797 57.7982 46.6271 52.1176 47.9512C46.437 49.2753 42.5606 53.4746 43.4594 57.3307C44.3582 61.1868 49.6918 63.2393 55.3724 61.9153Z" fill="#FDD8E7"/>
<path opacity="0.549" d="M55.3284 61.7292C60.8601 60.4356 64.6318 56.3394 63.7527 52.5802C62.8736 48.8209 57.6766 46.8221 52.1449 48.1157C46.6132 49.4093 42.8415 53.5055 43.7206 57.2648C44.5997 61.024 49.7967 63.0229 55.3284 61.7292Z" fill="#FDD6E6"/>
<path opacity="0.5686" d="M55.3117 61.5345C60.6946 60.2705 64.3625 56.2827 63.5043 52.6276C62.646 48.9724 57.5865 47.0341 52.2036 48.2981C46.8207 49.5622 43.1528 53.55 44.0111 57.2051C44.8694 60.8602 49.9289 62.7986 55.3117 61.5345Z" fill="#FDD5E5"/>
<path opacity="0.5882" d="M55.2697 61.3375C60.5039 60.1038 64.0685 56.2251 63.2316 52.6741C62.3947 49.1231 57.4731 47.2445 52.239 48.4782C47.0048 49.7118 43.4402 53.5906 44.2771 57.1416C45.1141 60.6926 50.0356 62.5712 55.2697 61.3375Z" fill="#FDD3E4"/>
<path opacity="0.6078" d="M55.2442 61.1343C60.3296 59.9307 63.7909 56.1607 62.9751 52.7138C62.1593 49.2668 57.3755 47.4482 52.29 48.6518C47.2046 49.8554 43.7433 53.6254 44.5591 57.0723C45.3749 60.5193 50.1587 62.3379 55.2442 61.1343Z" fill="#FDD2E3"/>
<path opacity="0.6275" d="M55.2153 60.9474C60.1521 59.7737 63.5099 56.1122 62.7152 52.7693C61.9205 49.4264 57.2741 47.6679 52.3373 48.8416C47.4005 50.0153 44.0427 53.6768 44.8374 57.0197C45.6322 60.3626 50.2785 62.1211 55.2153 60.9474Z" fill="#FDD1E2"/>
<path opacity="0.6471" d="M55.1718 60.7574C59.9595 59.6139 63.2123 56.0555 62.437 52.8095C61.6617 49.5635 57.152 47.8591 52.3643 49.0027C47.5765 50.1462 44.3238 53.7046 45.0991 56.9506C45.8743 60.1966 50.384 61.901 55.1718 60.7574Z" fill="#FDCFE1"/>
<path opacity="0.6667" d="M55.1523 60.5552C59.7989 59.4399 62.9544 55.9886 62.2002 52.8465C61.4461 49.7045 57.0679 48.0615 52.4213 49.1768C47.7746 50.2921 44.6192 53.7434 45.3733 56.8855C46.1275 60.0276 50.5057 61.6706 55.1523 60.5552Z" fill="#FDCEE0"/>
<path opacity="0.6863" d="M55.1151 60.3638C59.6128 59.2783 62.6647 55.9357 61.9315 52.8978C61.1984 49.86 56.958 48.2772 52.4603 49.3627C47.9625 50.4482 44.9107 53.7908 45.6438 56.8287C46.377 59.8665 50.6174 61.4493 55.1151 60.3638Z" fill="#FDCCDF"/>
<path opacity="0.7059" d="M55.0889 60.1625C59.4378 59.1073 62.3862 55.8735 61.6744 52.9398C60.9626 50.0061 56.86 48.4833 52.5111 49.5385C48.1622 50.5938 45.2138 53.8275 45.9256 56.7612C46.6374 59.6949 50.74 61.2178 55.0889 60.1625Z" fill="#FDCBDF"/>
<path opacity="0.7255" d="M55.0539 59.9773C59.2541 58.9522 62.0977 55.8213 61.4053 52.9842C60.7129 50.1472 56.7467 48.6784 52.5465 49.7035C48.3463 50.7286 45.5027 53.8594 46.1951 56.6965C46.8874 59.5335 50.8537 61.0024 55.0539 59.9773Z" fill="#FDC9DE"/>
<path opacity="0.7451" d="M55.0274 59.7831C59.0785 58.7881 61.8186 55.7662 61.1474 53.0334C60.4763 50.3007 56.6481 48.8919 52.597 49.8869C48.5458 50.8819 45.8058 53.9038 46.4769 56.6365C47.1481 59.3693 50.9762 60.778 55.0274 59.7831Z" fill="#FDC8DD"/>
<path opacity="0.7647" d="M54.9901 59.5863C58.8927 58.6214 61.5296 55.7082 60.8797 53.0794C60.2298 50.4506 56.5393 49.1017 52.6366 50.0665C48.734 51.0313 46.0971 53.9445 46.747 56.5734C47.3969 59.2022 51.0874 60.5511 54.9901 59.5863Z" fill="#FDC6DC"/>
<path opacity="0.7843" d="M54.952 59.3869C58.7058 58.4523 61.2393 55.648 60.6108 53.1233C59.9822 50.5987 56.4296 49.3097 52.6758 50.2443C48.922 51.1789 46.3884 53.9832 47.017 56.5079C47.6456 59.0325 51.1982 60.3215 54.952 59.3869Z" fill="#FDC5DB"/>
<path opacity="0.8039" d="M54.9285 59.2044C58.5333 58.2997 60.9616 55.5983 60.3524 53.1706C59.7431 50.7428 56.327 49.5081 52.7223 50.4128C49.1175 51.3174 46.6892 54.0189 47.2984 56.4466C47.9077 58.8743 51.3238 60.109 54.9285 59.2044Z" fill="#FDC4DA"/>
<path opacity="0.8235" d="M54.8965 59.0061C58.3601 58.1298 60.6912 55.5355 60.1033 53.2118C59.5153 50.888 56.2309 49.7146 52.7674 50.591C49.3038 51.4673 46.9727 54.0615 47.5607 56.3853C48.1486 58.7091 51.433 59.8825 54.8965 59.0061Z" fill="#FDC2D9"/>
<path opacity="0.8431" d="M54.8652 58.8015C58.1796 57.9555 60.4072 55.4705 59.8408 53.251C59.2743 51.0316 56.1282 49.9181 52.8138 50.7641C49.4994 51.6101 47.2717 54.0951 47.8382 56.3146C48.4047 58.534 51.5508 59.6475 54.8652 58.8015Z" fill="#FCC1D8"/>
<path opacity="0.8627" d="M54.8356 58.615C58.0014 57.799 60.1258 55.4226 59.5805 53.3071C59.0353 51.1916 56.0269 50.1382 52.8611 50.9542C49.6953 51.7702 47.5709 54.1466 48.1162 56.2621C48.6614 58.3775 51.6698 59.431 54.8356 58.615Z" fill="#FCBFD7"/>
<path opacity="0.8824" d="M54.8071 58.4214C57.8239 57.6358 59.8433 55.3626 59.3176 53.3441C58.792 51.3256 55.9204 50.3261 52.9037 51.1117C49.8869 51.8973 47.8675 54.1705 48.3932 56.189C48.9188 58.2076 51.7904 59.207 54.8071 58.4214Z" fill="#FCBED6"/>
<path opacity="0.902" d="M54.7647 58.2211C57.6326 57.4657 59.5487 55.3014 59.0444 53.3871C58.5402 51.4727 55.8066 50.5331 52.9388 51.2885C50.0709 52.0439 48.1548 54.2082 48.6591 56.1225C49.1633 58.0369 51.8969 58.9765 54.7647 58.2211Z" fill="#FCBCD6"/>
<path opacity="0.9216" d="M54.7254 58.0357C57.4443 57.3108 59.2571 55.2557 58.7745 53.4455C58.2919 51.6353 55.6966 50.7555 52.9777 51.4804C50.2588 52.2053 48.4459 54.2604 48.9285 56.0706C49.4111 57.8808 52.0065 58.7606 54.7254 58.0357Z" fill="#FCBBD5"/>
<path opacity="0.9412" d="M54.7024 57.833C57.2726 57.1384 58.9824 55.1922 58.5213 53.486C58.0602 51.7798 55.6029 50.9598 53.0327 51.6544C50.4625 52.349 48.7527 54.2952 49.2138 56.0014C49.6749 57.7076 52.1322 58.5276 54.7024 57.833Z" fill="#FCB9D4"/>
<path opacity="0.9608" d="M54.6681 57.6428C57.0966 56.9765 58.7074 55.1317 58.2659 53.5224C57.8244 51.9131 55.4977 51.1487 53.0692 51.815C50.6406 52.4813 49.0298 54.3261 49.4713 55.9354C49.9129 57.5447 52.2395 58.3092 54.6681 57.6428Z" fill="#FCB8D3"/>
<path opacity="0.9804" d="M54.6437 57.4482C56.9231 56.8123 58.4306 55.0768 58.0108 53.5717C57.5909 52.0667 55.4027 51.3621 53.1233 51.998C50.8439 52.6339 49.3364 54.3695 49.7563 55.8745C50.1761 57.3795 52.3643 58.0841 54.6437 57.4482Z" fill="#FCB6D2"/>
<path d="M54.6035 57.2494C56.7339 56.644 58.1383 55.0177 57.7403 53.6169C57.3423 52.216 55.2926 51.5711 53.1621 52.1764C51.0317 52.7818 49.6273 54.4081 50.0253 55.8089C50.4234 57.2098 52.473 57.8547 54.6035 57.2494Z" fill="#FCB5D1"/>
<path d="M100.19 46.9718C104.99 45.5511 108.297 42.4241 107.576 39.9875C106.855 37.551 102.379 36.7275 97.5784 38.1482C92.7781 39.569 89.4713 42.6959 90.1924 45.1325C90.9135 47.5691 95.3896 48.3926 100.19 46.9718Z" fill="#FCB5D1"/>
<path opacity="0.0196078" d="M102.131 54.3965C111.573 51.9501 117.871 44.729 116.197 38.2677C114.523 31.8064 105.511 28.5517 96.0691 30.9981C86.627 33.4445 80.3297 40.6656 82.0037 47.1269C83.6778 53.5882 92.6892 56.8429 102.131 54.3965Z" fill="#FFFEFE"/>
<path opacity="0.0392157" d="M102.095 54.2258C111.391 51.8146 117.587 44.6994 115.936 38.3335C114.285 31.9677 105.411 28.7619 96.1157 31.1731C86.8204 33.5844 80.6238 40.6996 82.275 47.0654C83.9263 53.4313 92.8002 56.6371 102.095 54.2258Z" fill="#FFFCFD"/>
<path opacity="0.0588235" d="M102.056 54.0291C111.204 51.6541 117.301 44.652 115.675 38.3896C114.049 32.1273 105.316 28.9759 96.1684 31.351C87.0209 33.726 80.9235 40.728 82.5494 46.9904C84.1753 53.2528 92.9088 56.4041 102.056 54.0291Z" fill="#FFFBFC"/>
<path opacity="0.0784314" d="M102.012 53.8289C111.011 51.4892 117.009 44.5997 115.408 38.4407C113.807 32.2817 105.213 29.1856 96.2134 31.5253C87.2137 33.865 81.2159 40.7546 82.8171 46.9135C84.4182 53.0725 93.0118 56.1686 102.012 53.8289Z" fill="#FFF9FB"/>
<path opacity="0.0980392" d="M101.967 53.6426C110.819 51.3384 116.717 44.5614 115.14 38.5058C113.564 32.4502 105.11 29.4092 96.2584 31.7135C87.4064 34.0177 81.5083 40.7948 83.0846 46.8503C84.6609 52.9059 93.1146 55.9469 101.967 53.6426Z" fill="#FFF8FA"/>
<path opacity="0.1176" d="M101.952 53.4477C110.657 51.178 116.454 44.5064 114.9 38.5462C113.346 32.5861 105.03 29.5944 96.3246 31.864C87.6194 34.1337 81.8222 40.8053 83.3761 46.7654C84.93 52.7256 93.2466 55.7173 101.952 53.4477Z" fill="#FFF6FA"/>
<path opacity="0.1373" d="M101.9 53.2516C110.465 51.0156 116.169 44.4551 114.64 38.5983C113.111 32.7415 104.928 29.8063 96.3635 32.0422C87.7986 34.2782 82.0949 40.8387 83.6238 46.6955C85.1528 52.5523 93.3354 55.4875 101.9 53.2516Z" fill="#FFF5F9"/>
<path opacity="0.1569" d="M101.866 53.0513C110.284 50.8511 115.888 44.4033 114.384 38.6499C112.88 32.8965 104.837 30.016 96.4203 32.2163C88.0032 34.4165 82.3988 40.8643 83.9027 46.6177C85.4066 52.3712 93.4492 55.2516 101.866 53.0513Z" fill="#FFF3F8"/>
<path opacity="0.1765" d="M101.827 52.8606C110.096 50.6953 115.601 44.3596 114.121 38.7095C112.642 33.0594 104.739 30.2344 96.4694 32.3997C88.1999 34.565 82.6954 40.9006 84.1747 46.5508C85.6541 52.2009 93.5572 55.0259 101.827 52.8606Z" fill="#FEF2F7"/>
<path opacity="0.1961" d="M101.777 52.6657C109.899 50.5363 115.304 44.3135 113.85 38.7667C112.396 33.2199 104.633 30.4495 96.5108 32.5789C88.3888 34.7083 82.9835 40.9312 84.4377 46.478C85.8919 52.0248 93.6549 54.7951 101.777 52.6657Z" fill="#FEF0F6"/>
<path opacity="0.2157" d="M101.748 52.4748C109.722 50.3805 115.026 44.264 113.595 38.8131C112.163 33.3623 104.538 30.6412 96.5639 32.7354C88.5895 34.8296 83.2854 40.9461 84.7169 46.397C86.1483 51.8479 93.7732 54.569 101.748 52.4748Z" fill="#FEEFF5"/>
<path opacity="0.2353" d="M101.707 52.2868C109.534 50.2279 114.739 44.2237 113.332 38.8761C111.925 33.5284 104.44 30.8625 96.6132 32.9214C88.7863 34.9803 83.5817 40.9845 84.9884 46.3321C86.3951 51.6797 93.8804 54.3457 101.707 52.2868Z" fill="#FEEEF4"/>
<path opacity="0.2549" d="M101.674 52.0864C109.354 50.0629 114.459 44.1711 113.077 38.9268C111.695 33.6824 104.35 31.0714 96.6703 33.0949C88.991 35.1184 83.8858 41.0102 85.2677 46.2546C86.6495 51.4989 93.995 54.1099 101.674 52.0864Z" fill="#FEECF3"/>
<path opacity="0.2745" d="M101.63 51.8873C109.161 49.8994 114.167 44.1201 112.81 38.9789C111.453 33.8378 104.248 31.2816 96.7158 33.2696C89.1839 35.2576 84.1781 41.0369 85.535 46.178C86.8919 51.3192 94.0977 53.8753 101.63 51.8873Z" fill="#FEEBF2"/>
<path opacity="0.2941" d="M101.588 51.719C108.972 49.7667 113.877 44.094 112.543 39.0487C111.209 34.0034 104.142 31.4961 96.7574 33.4484C89.373 35.4007 84.468 41.0734 85.8018 46.1187C87.1357 51.164 94.2032 53.6713 101.588 51.719Z" fill="#FEE9F1"/>
<path opacity="0.3137" d="M101.557 51.5127C108.802 49.5935 113.613 44.0313 112.304 39.0892C110.995 34.147 104.061 31.6965 96.8163 33.6157C89.5719 35.535 84.7606 41.0972 86.0698 46.0393C87.3791 50.9814 94.3131 53.4319 101.557 51.5127Z" fill="#FEE8F1"/>
<path opacity="0.3333" d="M101.508 51.3065C108.605 49.4224 113.316 43.9728 112.031 39.1343C110.747 34.2959 103.953 31.9009 96.8567 33.7849C89.7605 35.669 85.0491 41.1186 86.3337 45.9571C87.6183 50.7955 94.4122 53.1906 101.508 51.3065Z" fill="#FEE6F0"/>
<path opacity="0.3529" d="M101.478 51.1272C108.427 49.2792 113.04 43.9424 111.78 39.2071C110.521 34.4717 103.867 32.1311 96.9181 33.9791C89.9691 35.8271 85.3568 41.1639 86.616 45.8993C87.8753 50.6346 94.5293 52.9752 101.478 51.1272Z" fill="#FEE5EF"/>
<path opacity="0.3725" d="M101.434 50.9304C108.236 49.1179 112.749 43.8934 111.514 39.2611C110.28 34.6289 103.765 32.3431 96.9638 34.1556C90.1622 35.9682 85.6491 41.1927 86.8835 45.8249C88.1178 50.4571 94.6323 52.7429 101.434 50.9304Z" fill="#FEE3EE"/>
<path opacity="0.3922" d="M101.393 50.735C108.046 48.9574 112.458 43.8392 111.246 39.3032C110.034 34.7672 103.658 32.5311 97.0045 34.3087C90.3509 36.0863 85.9394 41.2045 87.1512 45.7405C88.363 50.2765 94.7392 52.5126 101.393 50.735Z" fill="#FEE2ED"/>
<path opacity="0.4118" d="M101.363 50.5526C107.87 48.8108 112.182 43.8052 110.996 39.3722C109.809 34.9393 103.572 32.7577 97.0661 34.4995C90.5597 36.2413 86.2472 41.2469 87.4338 45.6799C88.6205 50.1128 94.857 52.2944 101.363 50.5526Z" fill="#FEE1EC"/>
<path opacity="0.4314" d="M101.315 50.3492C107.673 48.6427 111.886 43.7495 110.724 39.42C109.562 35.0906 103.465 32.9642 97.1069 34.6708C90.7484 36.3773 86.5357 41.2705 87.6976 45.6C88.8595 49.9294 94.956 52.0557 101.315 50.3492Z" fill="#FEDFEB"/>
<path opacity="0.451" d="M101.29 50.1498C107.501 48.4787 111.615 43.6978 110.478 39.4713C109.341 35.2449 103.384 33.1733 97.1725 34.8444C90.9611 36.5154 86.8475 41.2964 87.9845 45.5228C89.1215 49.7493 95.0786 51.8209 101.29 50.1498Z" fill="#FEDEEA"/>
<path opacity="0.4706" d="M101.244 49.9787C107.307 48.3433 111.32 43.6692 110.206 39.5388C109.092 35.4084 103.273 33.3858 97.2097 35.0212C91.146 36.6566 87.1335 41.3308 88.2475 45.4612C89.3614 49.5916 95.1801 51.6141 101.244 49.9787Z" fill="#FEDCE9"/>
<path opacity="0.4902" d="M101.212 49.772C107.136 48.1698 111.055 43.6064 109.965 39.5794C108.876 35.5523 103.191 33.5866 97.268 35.1888C91.3447 36.791 87.426 41.3544 88.5152 45.3814C89.6044 49.4085 95.2892 51.3742 101.212 49.772Z" fill="#FEDBE8"/>
<path opacity="0.5098" d="M101.164 49.5714C106.939 48.0046 110.759 43.5537 109.694 39.6299C108.63 35.7062 103.085 33.7955 97.3093 35.3623C91.5336 36.9291 87.7144 41.38 88.7787 45.3037C89.8431 49.2275 95.388 51.1381 101.164 49.5714Z" fill="#FDD9E8"/>
<path opacity="0.5294" d="M101.118 49.3888C106.746 47.8577 110.466 43.5194 109.427 39.6989C108.388 35.8785 102.983 34.0226 97.3546 35.5538C91.7265 37.0849 88.0066 41.4233 89.0459 45.2437C90.0853 49.0641 95.4902 50.92 101.118 49.3888Z" fill="#FDD8E7"/>
<path opacity="0.549" d="M101.093 49.1962C106.573 47.7003 110.192 43.4683 109.176 39.7438C108.159 36.0193 102.892 34.2126 97.4117 35.7085C91.9312 37.2044 88.3123 41.4363 89.3289 45.1608C90.3454 48.8854 95.6123 50.692 101.093 49.1962Z" fill="#FDD6E6"/>
<path opacity="0.5686" d="M101.052 48.9991C106.385 47.5387 109.905 43.4192 108.913 39.7979C107.921 36.1766 102.794 34.4248 97.4612 35.8851C92.128 37.3454 88.6085 41.465 89.6001 45.0863C90.5917 48.7076 95.7188 50.4594 101.052 48.9991Z" fill="#FDD5E5"/>
<path opacity="0.5882" d="M101.024 48.8075C106.209 47.3824 109.629 43.375 108.663 39.8569C107.696 36.3387 102.708 34.6419 97.5224 36.067C92.3367 37.4922 88.9166 41.4995 89.8834 45.0177C90.8502 48.5359 95.8378 50.2326 101.024 48.8075Z" fill="#FDD3E4"/>
<path opacity="0.6078" d="M100.974 48.6065C106.012 47.2168 109.332 43.3222 108.391 39.9074C107.449 36.4927 102.601 34.8511 97.5633 36.2407C92.5254 37.6303 89.2049 41.525 90.1468 44.9397C91.0887 48.3544 95.9362 49.9961 100.974 48.6065Z" fill="#FDD2E3"/>
<path opacity="0.6275" d="M100.924 48.4101C105.814 47.0562 109.035 43.2744 108.119 39.963C107.202 36.6517 102.494 35.0649 97.6043 36.4187C92.7142 37.7726 89.4931 41.5545 90.4099 44.8658C91.3266 48.1771 96.034 49.7639 100.924 48.4101Z" fill="#FDD1E2"/>
<path opacity="0.6471" d="M100.903 48.2392C105.645 46.9209 108.766 43.2455 107.872 40.0298C106.978 36.8142 102.409 35.2761 97.666 36.5944C92.923 37.9127 89.8027 41.5882 90.6964 44.8038C91.5901 48.0195 96.1596 49.5575 100.903 48.2392Z" fill="#FDCFE1"/>
<path opacity="0.6667" d="M100.859 48.0379C105.462 46.7529 108.489 43.1882 107.62 40.0759C106.751 36.9635 102.315 35.4821 97.7128 36.7671C93.1101 38.0521 90.0833 41.6168 90.9521 44.7291C91.821 47.8415 96.2565 49.3229 100.859 48.0379Z" fill="#FDCEE0"/>
<path opacity="0.6863" d="M100.822 47.8264C105.276 46.5766 108.203 43.1244 107.359 40.1156C106.515 37.1068 102.22 35.6808 97.7652 36.9305C93.3105 38.1803 90.3835 41.6325 91.2275 44.6413C92.0716 47.6501 96.3671 49.0761 100.822 47.8264Z" fill="#FDCCDF"/>
<path opacity="0.7059" d="M100.781 47.6433C105.088 46.4292 107.916 43.0894 107.097 40.1838C106.278 37.2781 102.122 35.9068 97.8147 37.121C93.5074 38.3351 90.6796 41.6748 91.4986 44.5805C92.3176 47.4862 96.4732 48.8574 100.781 47.6433Z" fill="#FDCBDF"/>
<path opacity="0.7255" d="M100.738 47.4564C104.898 46.2778 107.625 43.0448 106.829 40.2352C106.033 37.4256 102.015 36.1034 97.8558 37.282C93.6962 38.4606 90.9695 41.6936 91.7656 44.5032C92.5616 47.3128 96.5789 48.635 100.738 47.4564Z" fill="#FDC9DE"/>
<path opacity="0.7451" d="M100.705 47.2521C104.717 46.109 107.344 42.9885 106.573 40.2822C105.802 37.5759 101.925 36.3087 97.9127 37.4518C93.9008 38.5948 91.2735 41.7154 92.0445 44.4217C92.8156 47.1279 96.6929 48.3952 100.705 47.2521Z" fill="#FDC8DD"/>
<path opacity="0.7647" d="M100.66 47.0677C104.524 45.9602 107.052 42.9521 106.306 40.349C105.56 37.746 101.823 36.5336 97.9581 37.6411C94.0937 38.7486 91.5657 41.7567 92.3117 44.3598C93.0577 46.9629 96.7952 48.1752 100.66 47.0677Z" fill="#FDC6DC"/>
<path opacity="0.7843" d="M100.638 46.8671C104.355 45.7952 106.784 42.8996 106.063 40.3997C105.342 37.8997 101.744 36.742 98.0272 37.814C94.3102 38.8859 91.8813 41.7815 92.6022 44.2815C93.3231 46.7814 96.9208 47.9391 100.638 46.8671Z" fill="#FDC5DB"/>
<path opacity="0.8039" d="M100.592 46.6838C104.161 45.6475 106.489 42.8587 105.791 40.4548C105.093 38.0508 101.634 36.942 98.0646 37.9783C94.4952 39.0145 92.1673 41.8033 92.8651 44.2072C93.563 46.6112 97.0223 47.72 100.592 46.6838Z" fill="#FDC4DA"/>
<path opacity="0.8235" d="M100.543 46.4927C103.972 45.4899 106.207 42.812 105.534 40.5115C104.861 38.2109 101.536 37.1589 98.107 38.1618C94.6781 39.1646 92.4438 41.8425 93.1166 44.143C93.7894 46.4436 97.1145 47.4956 100.543 46.4927Z" fill="#FDC2D9"/>
<path opacity="0.8431" d="M100.509 46.2928C103.79 45.3257 105.925 42.7605 105.278 40.5632C104.63 38.366 101.445 37.3688 98.1639 38.3359C94.8826 39.3029 92.7476 41.8681 93.3952 44.0654C94.0427 46.2626 97.2277 47.2598 100.509 46.2928Z" fill="#FCC1D8"/>
<path opacity="0.8627" d="M100.467 46.0961C103.601 45.1647 105.637 42.7121 105.014 40.618C104.392 38.5239 101.347 37.5814 98.2132 38.5128C95.0795 39.4442 93.0436 41.8968 93.6659 43.9909C94.2883 46.0849 97.3332 47.0275 100.467 46.0961Z" fill="#FCBFD7"/>
<path opacity="0.8824" d="M100.428 45.9052C103.414 45.0096 105.349 42.6639 104.749 40.666C104.15 38.6682 101.244 37.7746 98.2579 38.6703C95.2721 39.5659 93.3374 41.9116 93.9366 43.9095C94.5359 45.9073 97.4422 46.8009 100.428 45.9052Z" fill="#FCBED6"/>
<path opacity="0.902" d="M100.39 45.7167C103.228 44.8566 105.063 42.6235 104.489 40.7289C103.915 38.8343 101.149 37.9957 98.3109 38.8558C95.4727 39.7159 93.6373 41.9489 94.2114 43.8435C94.7855 45.7381 97.5517 46.5767 100.39 45.7167Z" fill="#FCBCD6"/>
<path opacity="0.9216" d="M104.227 40.7927C104.776 42.5781 103.032 44.7069 100.34 45.5309C97.6486 46.3549 95.0255 45.5721 94.4761 43.7729C93.9268 41.9875 95.671 39.8587 98.3628 39.0347C101.055 38.2107 103.691 38.9935 104.227 40.7927Z" fill="#FCBBD5"/>
<path opacity="0.9412" d="M103.967 40.8327C104.489 42.522 102.854 44.5271 100.3 45.3237C97.7591 46.1065 95.2596 45.3786 94.7377 43.6894C94.2158 42.0001 95.8501 39.9949 98.4046 39.1983C100.959 38.4155 103.445 39.1434 103.967 40.8327Z" fill="#FCB9D4"/>
<path opacity="0.9608" d="M103.716 40.8885C104.21 42.4816 102.672 44.3769 100.268 45.1323C97.865 45.8877 95.5165 45.2147 95.0221 43.6216C94.5277 42.0284 96.0659 40.1331 98.4693 39.3778C100.859 38.6224 103.207 39.3091 103.716 40.8885Z" fill="#FCB8D3"/>
<path opacity="0.9804" d="M103.453 40.9437C103.92 42.427 102.478 44.2124 100.225 44.9403C97.9729 45.6545 95.7618 45.0365 95.2948 43.5532C94.8279 42.0699 96.2699 40.2845 98.5222 39.5566C100.761 38.8424 102.972 39.4605 103.453 40.9437Z" fill="#FCB6D2"/>
<path d="M98.5668 39.7351C100.668 39.0483 102.742 39.6252 103.195 41.0123C103.648 42.3994 102.302 44.075 100.201 44.7617C98.0998 45.4484 96.026 44.8716 95.5728 43.4844C95.1196 42.0973 96.4518 40.408 98.5668 39.7351Z" fill="#FCB5D1"/>
<path d="M113.756 34.1825C113.962 34.2237 114.154 34.1001 114.209 33.9078C114.251 33.7018 114.127 33.5095 113.935 33.4546C104.98 31.3808 97.2893 36.7645 97.2207 36.8194C97.0559 36.943 97.0147 37.1765 97.1383 37.3413C97.2069 37.4375 97.3305 37.4924 97.4404 37.4924C97.5091 37.4924 97.5915 37.4649 97.6602 37.4237C97.7151 37.3825 105.131 32.1773 113.756 34.1825Z" fill="black"/>
<path d="M114.954 44.9647C107.771 39.2376 98.5012 40.7896 98.4188 40.8033C98.2128 40.8445 98.0755 41.0368 98.1167 41.2428C98.1579 41.4488 98.3502 41.5861 98.5562 41.5449C98.6523 41.5312 107.579 40.0342 114.501 45.5553C114.57 45.6102 114.652 45.6377 114.735 45.6377C114.844 45.6377 114.954 45.5827 115.023 45.5003C115.147 45.3355 115.119 45.102 114.954 44.9647Z" fill="black"/>
<path d="M111.84 38.8384C105.123 35.6427 98.0975 38.5713 98.035 38.5973C97.8802 38.6677 97.8072 38.8446 97.8776 38.9994C97.948 39.1543 98.1248 39.2273 98.2797 39.1569C98.353 39.1284 105.118 36.3063 111.592 39.3874C111.656 39.4181 111.726 39.4246 111.791 39.4095C111.878 39.3893 111.954 39.3258 111.993 39.2481C112.06 39.0954 111.996 38.9164 111.84 38.8384Z" fill="black"/>
<path d="M53.6233 52.5861C53.8174 52.6373 54.0115 52.5221 54.0632 52.343C54.115 52.151 53.9986 51.959 53.8174 51.9078C53.7268 51.8822 45.1874 49.6296 37.9419 54.3267C37.7737 54.4291 37.7348 54.6467 37.8383 54.8131C37.903 54.9155 38.0195 54.9667 38.1359 54.9667C38.2006 54.9667 38.2653 54.9539 38.33 54.9155C45.2909 50.3976 53.5328 52.5605 53.6233 52.5861Z" fill="black"/>
<path d="M53.3937 54.4142C53.5606 54.4268 53.6933 54.2852 53.698 54.1097C53.7 53.9223 53.5666 53.7651 53.41 53.7501C53.3318 53.7426 45.9852 53.1844 41.1159 58.8411C41.0015 58.9663 41.0152 59.1751 41.1329 59.3109C41.2062 59.3942 41.3106 59.4208 41.4044 59.4C41.4566 59.3884 41.5061 59.3649 41.5503 59.3177C46.2271 53.8782 53.3154 54.4067 53.3937 54.4142Z" fill="black"/>
<path d="M54.1513 55.814C54.0551 55.8277 44.8261 57.5582 40.0605 65.414C39.9506 65.5926 40.0055 65.826 40.1841 65.9359C40.239 65.9771 40.3077 65.9909 40.3763 65.9909C40.5 65.9909 40.6236 65.9222 40.6922 65.8123C45.2793 58.2449 54.1925 56.5693 54.2749 56.5556C54.4809 56.5144 54.6182 56.3221 54.577 56.1161C54.5496 55.9101 54.3573 55.7727 54.1513 55.814Z" fill="black"/>
<path d="M66.0493 42.0247C67.3815 47.4359 64.4837 49.9905 60.391 51.0068C56.2846 52.0231 52.5353 51.1167 51.1894 45.7054C49.8572 40.2942 52.0958 35.089 56.1885 34.0727C60.3086 33.0564 64.7171 36.6135 66.0493 42.0247Z" fill="black"/>
<path d="M59.7477 45.524C61.6092 44.8965 62.5232 42.6224 61.7892 40.4445C61.0551 38.2667 58.951 37.0098 57.0894 37.6373C55.2278 38.2648 54.3138 40.5389 55.0479 42.7168C55.7819 44.8946 57.8861 46.1515 59.7477 45.524Z" fill="white"/>
<path d="M57.8175 47.4657C58.051 48.1387 57.7351 48.8529 57.1308 49.0589C56.5265 49.2649 55.8536 48.8803 55.6201 48.2074C55.3866 47.5344 55.7025 46.8202 56.3068 46.6142C56.9111 46.4082 57.584 46.7928 57.8175 47.4657Z" fill="white"/>
<path d="M94.6977 34.6515C96.0299 40.0627 93.1321 42.6172 89.0394 43.6335C84.9331 44.6499 81.1838 43.7434 79.8378 38.3322C78.5057 32.921 80.7443 27.7158 84.8369 26.6995C88.957 25.6694 93.3656 29.2403 94.6977 34.6515Z" fill="black"/>
<path d="M88.7125 38.2828C90.574 37.6553 91.4881 35.3811 90.754 33.2033C90.02 31.0254 87.9158 29.7686 86.0542 30.3961C84.1927 31.0236 83.2787 33.2977 84.0127 35.4756C84.7468 37.6534 86.8509 38.9103 88.7125 38.2828Z" fill="white"/>
<path d="M87.496 42.5763C88.0997 42.3728 88.4046 41.6601 88.1768 40.9844C87.9491 40.3088 87.2751 39.9261 86.6713 40.1296C86.0676 40.3331 85.7627 41.0458 85.9905 41.7214C86.2182 42.397 86.8922 42.7798 87.496 42.5763Z" fill="white"/>
<path d="M81.9369 46.7491C81.676 46.6392 81.3601 46.7629 81.2503 47.0238C80.0829 49.7843 77.1439 49.1388 75.9353 48.7405C75.743 48.6719 75.5508 48.7268 75.4134 48.8504C75.2761 48.8642 75.1525 48.9191 75.0701 49.029C72.3645 52.2153 70.071 50.4573 69.9749 50.3886C69.7551 50.2101 69.4255 50.2376 69.2332 50.471C69.0547 50.6908 69.0822 51.0204 69.3156 51.2127C69.3294 51.2264 70.3045 51.9955 71.7465 51.9955C72.8864 51.9955 74.3147 51.5148 75.798 49.8118C76.3061 49.9629 77.1439 50.1689 78.064 50.1689C79.5747 50.1689 81.3189 49.6195 82.2391 47.4495C82.3352 47.1611 82.2116 46.859 81.9369 46.7491Z" fill="black"/>
<path d="M77.1424 45.8713C77.4446 46.9701 76.648 48.1512 75.3708 48.4945C74.0935 48.8379 72.8163 48.2336 72.5142 47.1349C72.212 46.0362 76.8403 44.7726 77.1424 45.8713Z" fill="black"/>
</g>
<defs>
<clipPath id="clip0_1634_537">
<rect width="167" height="185" fill="white"/>
</clipPath>
</defs>
</svg>
