<svg width="171" height="205" viewBox="0 0 171 205" fill="none" xmlns="http://www.w3.org/2000/svg">
<path d="M12.008 185.451V163.051H22.504C25.192 163.051 27.24 163.585 28.648 164.651C30.056 165.697 30.76 167.105 30.76 168.875C30.76 170.07 30.4827 171.094 29.928 171.947C29.3733 172.779 28.6267 173.43 27.688 173.899C26.7707 174.347 25.768 174.571 24.68 174.571L25.256 173.419C26.5147 173.419 27.6453 173.654 28.648 174.123C29.6507 174.571 30.44 175.233 31.016 176.107C31.6133 176.982 31.912 178.07 31.912 179.371C31.912 181.291 31.176 182.785 29.704 183.851C28.232 184.918 26.0453 185.451 23.144 185.451H12.008ZM16.168 182.187H22.888C24.4453 182.187 25.64 181.931 26.472 181.419C27.304 180.907 27.72 180.086 27.72 178.955C27.72 177.846 27.304 177.035 26.472 176.523C25.64 175.99 24.4453 175.723 22.888 175.723H15.848V172.491H22.056C23.5067 172.491 24.616 172.235 25.384 171.723C26.1733 171.211 26.568 170.443 26.568 169.419C26.568 168.374 26.1733 167.595 25.384 167.083C24.616 166.571 23.5067 166.315 22.056 166.315H16.168V182.187ZM46.4958 185.451V181.995L46.2718 181.259V175.211C46.2718 174.038 45.9198 173.131 45.2158 172.491C44.5118 171.83 43.4451 171.499 42.0158 171.499C41.0558 171.499 40.1064 171.649 39.1678 171.947C38.2504 172.246 37.4718 172.662 36.8318 173.195L35.2638 170.283C36.1811 169.579 37.2691 169.057 38.5278 168.715C39.8078 168.353 41.1304 168.171 42.4958 168.171C44.9704 168.171 46.8798 168.769 48.2238 169.963C49.5891 171.137 50.2718 172.961 50.2718 175.435V185.451H46.4958ZM41.1198 185.675C39.8398 185.675 38.7198 185.462 37.7598 185.035C36.7998 184.587 36.0531 183.979 35.5198 183.211C35.0078 182.422 34.7518 181.537 34.7518 180.555C34.7518 179.595 34.9758 178.731 35.4238 177.963C35.8931 177.195 36.6504 176.587 37.6958 176.139C38.7411 175.691 40.1278 175.467 41.8558 175.467H46.8158V178.123H42.1438C40.7784 178.123 39.8611 178.347 39.3918 178.795C38.9224 179.222 38.6878 179.755 38.6878 180.395C38.6878 181.121 38.9758 181.697 39.5518 182.123C40.1278 182.55 40.9278 182.763 41.9518 182.763C42.9331 182.763 43.8078 182.539 44.5758 182.091C45.3651 181.643 45.9304 180.982 46.2718 180.107L46.9438 182.507C46.5598 183.51 45.8664 184.289 44.8638 184.843C43.8824 185.398 42.6344 185.675 41.1198 185.675ZM65.1013 168.171C66.4666 168.171 67.6826 168.438 68.7493 168.971C69.8373 169.505 70.6906 170.326 71.3093 171.435C71.9279 172.523 72.2373 173.931 72.2373 175.659V185.451H68.2373V176.171C68.2373 174.657 67.8746 173.526 67.1493 172.779C66.4453 172.033 65.4533 171.659 64.1733 171.659C63.2346 171.659 62.4026 171.851 61.6773 172.235C60.9519 172.619 60.3866 173.195 59.9813 173.963C59.5973 174.71 59.4053 175.659 59.4053 176.811V185.451H55.4053V168.363H59.2133V172.971L58.5413 171.563C59.1386 170.475 60.0026 169.643 61.1333 169.067C62.2853 168.47 63.6079 168.171 65.1013 168.171ZM85.0228 185.675C83.2734 185.675 81.7161 185.302 80.3508 184.555C78.9854 183.787 77.9081 182.742 77.1188 181.419C76.3294 180.097 75.9348 178.593 75.9348 176.907C75.9348 175.201 76.3294 173.697 77.1188 172.395C77.9081 171.073 78.9854 170.038 80.3508 169.291C81.7161 168.545 83.2734 168.171 85.0228 168.171C86.7934 168.171 88.3614 168.545 89.7268 169.291C91.1134 170.038 92.1908 171.062 92.9588 172.363C93.7481 173.665 94.1428 175.179 94.1428 176.907C94.1428 178.593 93.7481 180.097 92.9588 181.419C92.1908 182.742 91.1134 183.787 89.7268 184.555C88.3614 185.302 86.7934 185.675 85.0228 185.675ZM85.0228 182.251C86.0041 182.251 86.8788 182.038 87.6468 181.611C88.4148 181.185 89.0121 180.566 89.4388 179.755C89.8868 178.945 90.1108 177.995 90.1108 176.907C90.1108 175.798 89.8868 174.849 89.4388 174.059C89.0121 173.249 88.4148 172.63 87.6468 172.203C86.8788 171.777 86.0148 171.563 85.0548 171.563C84.0734 171.563 83.1988 171.777 82.4308 172.203C81.6841 172.63 81.0868 173.249 80.6388 174.059C80.1908 174.849 79.9668 175.798 79.9668 176.907C79.9668 177.995 80.1908 178.945 80.6388 179.755C81.0868 180.566 81.6841 181.185 82.4308 181.611C83.1988 182.038 84.0628 182.251 85.0228 182.251Z" fill="black"/>
<path d="M98.3518 185.451V163.051H102.512V181.931H114.224V185.451H98.3518ZM117.124 185.451V168.363H121.124V185.451H117.124ZM119.14 165.547C118.393 165.547 117.775 165.313 117.284 164.843C116.815 164.374 116.58 163.809 116.58 163.147C116.58 162.465 116.815 161.899 117.284 161.451C117.775 160.982 118.393 160.747 119.14 160.747C119.887 160.747 120.495 160.971 120.964 161.419C121.455 161.846 121.7 162.39 121.7 163.051C121.7 163.755 121.465 164.353 120.996 164.843C120.527 165.313 119.908 165.547 119.14 165.547ZM130.918 185.451L123.59 168.363H127.75L134.054 183.435H132.006L138.534 168.363H142.374L135.046 185.451H130.918ZM152.437 185.675C150.539 185.675 148.875 185.302 147.445 184.555C146.037 183.787 144.939 182.742 144.149 181.419C143.381 180.097 142.997 178.593 142.997 176.907C142.997 175.201 143.371 173.697 144.117 172.395C144.885 171.073 145.931 170.038 147.253 169.291C148.597 168.545 150.123 168.171 151.829 168.171C153.493 168.171 154.976 168.534 156.277 169.259C157.579 169.985 158.603 171.009 159.349 172.331C160.096 173.654 160.469 175.211 160.469 177.003C160.469 177.174 160.459 177.366 160.437 177.579C160.437 177.793 160.427 177.995 160.405 178.187H146.165V175.531H158.293L156.725 176.363C156.747 175.382 156.544 174.518 156.117 173.771C155.691 173.025 155.104 172.438 154.357 172.011C153.632 171.585 152.789 171.371 151.829 171.371C150.848 171.371 149.984 171.585 149.237 172.011C148.512 172.438 147.936 173.035 147.509 173.803C147.104 174.55 146.901 175.435 146.901 176.459V177.099C146.901 178.123 147.136 179.03 147.605 179.819C148.075 180.609 148.736 181.217 149.589 181.643C150.443 182.07 151.424 182.283 152.533 182.283C153.493 182.283 154.357 182.134 155.125 181.835C155.893 181.537 156.576 181.067 157.173 180.427L159.317 182.891C158.549 183.787 157.579 184.481 156.405 184.971C155.253 185.441 153.931 185.675 152.437 185.675Z" fill="#ED2D21"/>
<path d="M43.2445 34.3467L42.7363 35.3218C42.5303 35.6514 42.338 36.0085 42.1595 36.3656C41.4591 36.1321 37.2016 34.8548 35.7733 37.1072C35.7733 37.1072 34.6746 38.7965 36.4188 42.0377C36.4188 42.0377 36.4325 42.6283 35.4162 43.2051C34.4 43.7819 35.0317 46.9682 39.5089 47.0369L39.4677 50.3193V50.4979C37.49 50.0584 32.8343 43.521 32.8343 43.521C30.4721 38.8789 31.6395 34.3055 31.9828 33.1793C32.0378 33.0007 32.079 32.9046 32.079 32.9046C36.9407 31.5587 42.7775 34.0308 42.7775 34.0308L43.2445 34.3467Z" fill="#FCB5D1"/>
<path d="M116.884 25.2274C116.884 25.2549 116.884 25.2823 116.884 25.3098C116.884 25.3235 116.884 25.3373 116.884 25.351C116.843 25.6944 116.555 28.2214 115.827 30.9957C115.662 31.6137 115.483 32.2455 115.264 32.8635C115.264 32.8772 115.264 32.8772 115.264 32.8772C114.934 33.8661 114.536 34.8137 114.082 35.679C114.082 35.679 112.434 33.9485 111.363 32.1356C111.02 31.4626 110.786 30.9545 110.786 30.9545C114.371 28.9768 114.261 27.1364 114.179 25.6944C114.096 24.2523 111.432 24.4446 111.432 24.4446C111.432 24.4446 111.501 20.5304 109.262 18.7312C107.023 16.9321 102.189 21.4643 102.189 21.4643L101.708 21.1621C100.98 20.6402 100.294 20.2008 99.6758 19.8849C99.7307 19.7201 101.42 14.7621 109.619 14.2265C109.633 14.2265 109.633 14.2265 109.646 14.2265C110.69 14.1578 111.844 14.1578 113.121 14.2677C113.217 14.3913 114.646 16.1355 115.731 18.7449C115.731 18.7587 115.744 18.7861 115.744 18.7999C116.197 19.8849 116.568 21.1072 116.774 22.4257V22.4394V22.4531C116.898 23.3458 116.953 24.266 116.884 25.2274Z" fill="#FCB5D1"/>
<path d="M148.012 93.7861C140.115 91.1079 137.78 87.5096 137.78 87.5096C137.78 87.5096 141.021 84.8315 140.952 82.5654C140.952 82.5654 136.228 83.4031 134.539 83.0186C133.907 82.8675 132.245 82.222 130.281 81.2881C127.04 79.7499 122.934 77.4563 121.066 75.3825L122.261 67.6914C122.261 67.6914 125.914 61.8682 125.667 57.1574C125.667 57.1574 125.639 56.5119 125.955 55.9763C126.038 55.8252 126.161 55.6742 126.326 55.5643C126.326 55.5643 122.934 54.4793 123.909 54.1772C124.898 53.875 125.818 53.9437 126.038 53.2295L124.28 51.1145L123.511 48.7934C123.511 48.7934 122.879 46.2252 122.302 45.3462C121.725 44.4809 117.646 41.0474 116.026 39.4268C114.405 37.8062 113.883 36.6251 113.883 36.6251L113.403 35.8697C112.908 35.3615 110.779 30.9667 110.779 30.9667C114.378 28.989 114.254 27.1486 114.172 25.7065C114.089 24.2645 111.425 24.4567 111.425 24.4567C111.425 24.4567 111.494 20.5425 109.255 18.7434C107.016 16.9442 102.182 21.4765 102.182 21.4765L99.6688 19.897C103.198 12.9614 113.114 14.2661 113.114 14.2661C113.114 14.2661 115.655 16.7657 116.781 22.4241C117.77 27.4233 114.639 34.3727 114.089 35.6912C114.79 34.0843 116.548 30.7881 116.946 24.6765C117.358 18.194 114.034 13.0712 114.034 13.0712C114.034 13.0712 103.267 8.26433 91.0578 15.8455L90.2612 16.0515C90.2612 16.0515 68.8229 11.4781 54.7046 21.5177L50.0351 25.2945C50.0351 25.2945 36.3975 23.3855 29.874 31.6808C29.874 31.6808 29.6405 36.8998 31.7281 41.2672C31.7281 41.2672 30.4508 33.7135 32.3873 32.9306C34.3375 32.1478 41.1082 32.807 42.8112 34.359L43.2781 34.3727L42.303 36.4328C42.303 36.4328 37.3864 34.6886 35.8207 37.147C35.8207 37.147 34.722 38.8363 36.4662 42.0637C36.4662 42.0637 36.4799 42.6543 35.4636 43.2311C34.4473 43.808 35.0791 46.9943 39.5563 47.0629L39.5151 50.5102L39.5014 51.1831C39.5014 51.1831 39.0756 58.1325 37.1254 59.8356C37.1254 59.8356 37.7846 60.7008 38.8147 60.8656C38.8147 60.8656 37.1941 62.7747 36.219 64.9721L35.9169 65.8099C35.9169 65.8099 19.5325 65.233 13.6545 87.5508C13.6545 87.5508 12.0888 93.7998 12.7618 97.8101C12.7618 97.8101 12.9541 106.627 16.0441 113.714C16.0441 113.714 16.8544 116.049 14.6845 115.843C14.6845 115.843 21.1394 123.919 26.1247 125.608C31.1101 127.297 32.1538 127.613 32.1538 127.613C32.1538 127.613 37.4688 133.697 46.2034 134.288C46.2034 134.288 45.3657 134.604 46.3957 135.263C47.4257 135.908 55.8857 142.198 64.895 137.213C64.895 137.213 68.6855 134.439 66.1311 127.984C66.1311 127.984 65.9525 127.833 66.7354 126.487C67.1474 125.773 67.065 124.729 67.2572 125.525L68.4795 127.173L69.0701 130.167L71.1851 136.197C71.1851 136.197 77.2279 140.77 85.0287 135.895L87.0201 129.165L87.8166 129.481C87.8166 129.481 88.4896 135.881 88.8467 136.265C89.2037 136.65 94.5187 139.177 99.6963 136.98C99.6963 136.98 101.289 136.458 102.045 134.315C102.8 132.186 104.215 128.41 104.215 128.41C104.215 128.41 117.523 130.511 127.095 127.132C132.616 125.182 141.09 123.122 152.42 108.221C152.42 108.221 158.957 98.7578 159.548 95.3929C159.562 95.3243 155.922 96.4505 148.012 93.7861Z" fill="white"/>
<g opacity="0.6">
<path opacity="0.6" d="M119.857 84.9557C120.997 78.6381 118.648 71.0844 120.804 69.5874C125.076 66.6071 123.51 57.1993 123.51 57.1993C124.128 57.1444 125.048 56.0182 126.325 55.5649C126.009 56.1006 125.872 58.1469 125.872 58.1469C126.119 62.8577 122.645 67.8432 122.645 67.8432L121.107 75.9188C120.791 77.7179 121.326 82.7583 121.326 82.7583C121.326 82.7583 122.178 84.9145 122.7 86.7274C123.222 88.5403 121.985 89.7627 121.985 89.7627C121.985 89.7627 122.384 91.9738 122.796 94.8854C123.208 97.7971 120.969 102.178 120.969 102.178C117.412 105.282 119.143 108.359 119.143 108.359C118.264 109.004 118.071 111.119 118.071 111.119C118.113 113.316 116.533 115.541 114.926 116.97C113.319 118.398 114.047 120.596 112.207 123.59C110.847 125.801 110.243 125.801 110.243 125.801L107.181 125.828C105.629 128.589 103.527 128.602 103.527 128.602C106.041 127.82 108.018 124.029 108.513 121.571C108.677 120.692 109.556 119.964 110.449 120.046C113.635 120.307 112.921 115.102 116.204 111.696C118.58 109.237 116.89 105.763 115.847 104.019C115.531 103.483 115.805 102.782 116.41 102.618C117.11 102.425 118.154 102.082 119.294 101.052C124.444 96.4099 121.683 86.7274 118.744 85.766C118.593 85.7111 118.552 85.5326 118.662 85.4227C118.854 85.203 119.225 84.9557 119.829 85.0244L119.857 84.9557Z" fill="#DBD2D2"/>
<path opacity="0.6" d="M44.9948 85.3822C43.3193 84.5444 38.4576 86.6732 34.4336 90.1891C34.4336 90.1891 35.0516 88.184 40.5863 84.6543C41.3417 84.1736 42.921 84.0363 43.8275 83.4869C43.8275 83.4869 40.1468 80.6577 40.1194 71.6894C40.1194 71.6894 39.5563 69.7392 40.9159 70.3023C40.9159 70.3023 41.479 81.8388 46.794 85.1213C46.8077 85.135 47.206 86.4809 44.9948 85.3822Z" fill="#DBD2D2"/>
<path opacity="0.6" d="M151.54 95.2693C151.54 95.2693 156.031 95.8736 154.644 99.6779C153.257 103.482 147.393 113.714 142.641 115.115C142.641 115.115 141.13 115.719 140.018 115.774C139.592 115.802 139.345 116.282 139.592 116.639C139.839 116.997 140.224 117.395 140.842 117.642C140.842 117.642 135.678 124.935 124.155 125.814C114.322 126.555 111.699 124.44 111.699 124.44C111.699 124.44 109.859 126.212 106.92 125.814C106.92 125.814 106.041 127.901 104.406 128.382C104.406 128.382 122.027 133.107 139.647 121.446L146.761 115.129L152.172 109.099C152.172 109.099 159.739 97.92 159.492 95.4341C159.465 95.4341 154.823 96.1345 151.54 95.2693Z" fill="#DBD2D2"/>
</g>
<path d="M37.4809 71.7438C38.4422 70.3704 39.9392 70.0682 39.9667 70.0682C40.2551 70.0133 40.4473 69.7386 40.3924 69.4639C40.3375 69.1755 40.0765 68.9832 39.7881 69.0382C39.7057 69.0519 37.8517 69.3953 36.6294 71.1532C36.4646 71.3867 36.5195 71.7163 36.7667 71.8811C36.8628 71.9498 36.959 71.9773 37.0688 71.9773C37.2199 71.9773 37.3847 71.8949 37.4809 71.7438Z" fill="black"/>
<path d="M121.737 56.3896C121.449 56.3759 121.202 56.5957 121.188 56.8841C121.174 57.1725 121.394 57.4197 121.683 57.4334C121.696 57.4334 121.751 57.4334 121.847 57.4334C122.465 57.4334 124.676 57.3373 126.805 56.0326C127.052 55.8815 127.135 55.5519 126.984 55.3047C126.833 55.0574 126.503 54.975 126.256 55.1261C124.1 56.4721 121.765 56.3759 121.737 56.3896Z" fill="black"/>
<path d="M36.6029 88.6655C36.8227 88.4732 36.8364 88.1436 36.6441 87.9238C36.4519 87.7041 36.1223 87.6904 35.9025 87.8826C34.2682 89.3659 28.8022 95.0793 27.0717 106.753C27.0168 107.206 25.8632 117.754 28.6511 122.712C28.7472 122.877 28.9258 122.987 29.1043 122.987C29.1867 122.987 29.2829 122.959 29.3653 122.918C29.6125 122.781 29.7086 122.451 29.5713 122.204C26.9481 117.534 28.1155 106.987 28.1155 106.891C29.7773 95.5874 35.0373 90.0938 36.6029 88.6655Z" fill="black"/>
<path d="M39.7336 85.658C39.8709 85.658 40.0083 85.603 40.1044 85.5069C40.1181 85.4931 41.107 84.5318 43.2906 84.2983C43.428 84.2846 43.5516 84.2159 43.634 84.106C44.1009 84.724 44.6091 85.3421 45.1721 85.9738C45.282 86.0837 45.4194 86.1524 45.5567 86.1524C45.6803 86.1524 45.8039 86.1112 45.9138 86.015C46.1335 85.8228 46.1472 85.4931 45.955 85.2734C38.8958 77.4313 40.9284 71.0175 40.9559 70.9488C41.052 70.6741 40.901 70.372 40.6263 70.2758C40.3516 70.1797 40.0495 70.3308 39.9533 70.6055C39.8709 70.8527 38.1267 76.2227 43.016 83.2682C40.5164 83.5704 39.3765 84.724 39.3353 84.7652C39.1293 84.9713 39.143 85.3009 39.349 85.5069C39.4589 85.6168 39.5962 85.658 39.7336 85.658Z" fill="black"/>
<path d="M38.4031 87.8822C38.5129 88.0195 38.664 88.0882 38.8151 88.0882C38.925 88.0882 39.0348 88.047 39.131 87.9783C39.3644 87.7998 39.4056 87.4702 39.2271 87.2367C38.2108 85.932 36.3705 85.8633 36.3018 85.8633C35.9997 85.8633 35.7662 86.083 35.7662 86.3714C35.7525 86.6599 35.9859 86.9071 36.2743 86.9071C36.2881 86.9208 37.7027 86.9757 38.4031 87.8822Z" fill="black"/>
<path d="M13.7352 88.6233C13.7764 88.6371 13.8176 88.6371 13.8588 88.6371C14.0923 88.6371 14.312 88.4723 14.367 88.2251C14.7103 86.7281 15.1773 85.2722 15.7266 83.8851C20.3411 72.3897 26.0818 67.1433 34.9676 66.333C35.256 66.3056 35.4757 66.0446 35.4483 65.7562C35.4208 65.4678 35.1736 65.248 34.8714 65.2755C25.5462 66.127 19.5309 71.5657 14.7515 83.4868C14.1747 84.9152 13.7078 86.4259 13.3507 87.9778C13.282 88.28 13.4605 88.5547 13.7352 88.6233Z" fill="black"/>
<path d="M13.1185 92.7018C12.8301 92.6743 12.5829 92.8941 12.5554 93.1825C11.649 104.774 16.2635 115.239 16.3185 115.335C16.4009 115.528 16.5931 115.651 16.7992 115.651C16.8678 115.651 16.9502 115.638 17.0189 115.61C17.2798 115.487 17.4034 115.184 17.2798 114.91C17.2386 114.814 12.7202 104.582 13.6129 93.2649C13.6267 92.9765 13.4069 92.7155 13.1185 92.7018Z" fill="black"/>
<path d="M149.552 111.368C148.989 112.041 148.412 112.7 147.835 113.332C147.643 113.552 147.657 113.881 147.863 114.073C147.959 114.17 148.096 114.211 148.22 114.211C148.357 114.211 148.508 114.156 148.604 114.046C149.195 113.4 149.772 112.728 150.349 112.041C150.541 111.821 150.5 111.491 150.28 111.299C150.074 111.107 149.744 111.148 149.552 111.368Z" fill="black"/>
<path d="M159.751 95.2153C159.49 94.8857 159.091 94.7071 158.666 94.7621C150.343 95.8196 142.309 90.5595 138.56 87.6066C140.249 86.4805 141.196 84.544 141.65 83.4178C141.787 83.0744 141.718 82.7036 141.485 82.4152C141.251 82.1268 140.881 81.9894 140.523 82.0581C138.436 82.4289 137.076 82.6212 136.046 82.7036C126.611 80.1216 121.914 75.3559 121.873 75.301C121.832 75.246 121.777 75.2186 121.708 75.1911C122.148 71.167 123.178 67.9395 123.205 67.8846C123.246 67.7747 123.233 67.6649 123.205 67.5687C124.634 65.2477 126.309 61.6082 126.405 57.1995C126.405 56.9111 126.185 56.6639 125.897 56.6639C125.609 56.6502 125.361 56.8836 125.361 57.1721C125.197 64.3412 120.472 69.5601 120.431 69.6013C120.239 69.8211 120.252 70.1507 120.458 70.343C120.555 70.4391 120.692 70.4803 120.816 70.4803C120.953 70.4803 121.104 70.4254 121.2 70.3155C121.228 70.2881 121.365 70.137 121.585 69.876C120.678 73.6666 119.387 81.2615 122.052 86.5629C122.107 86.7002 122.45 87.6753 122.216 88.5131C122.01 87.8401 121.846 87.4144 121.818 87.3457C121.708 87.071 121.406 86.9474 121.131 87.0573C120.857 87.1672 120.733 87.4693 120.843 87.744C120.884 87.8401 124.373 96.8084 120.005 102.494C119.744 102.769 118.069 104.609 118.467 107.068C118.33 106.106 118.151 105.475 118.124 105.392C118.041 105.118 117.753 104.953 117.478 105.035C117.204 105.118 117.039 105.406 117.121 105.681C117.135 105.749 119.058 112.603 114.951 116.201L113.839 117.437C113.784 117.492 112.493 118.961 112.177 122.189C112.177 122.203 111.902 123.851 110.611 124.743C109.884 125.238 108.963 125.403 107.851 125.224C108.867 123.219 109.183 121.269 109.197 121.118C109.238 120.829 109.046 120.568 108.757 120.513C108.469 120.472 108.208 120.664 108.153 120.953C108.139 121.008 107.205 126.831 103.36 128.342C103.168 128.41 103.058 128.589 103.03 128.768C102.879 128.658 102.687 128.63 102.508 128.699C102.234 128.822 102.193 128.822 102.138 128.836C102.055 128.85 101.932 128.864 101.671 128.932C101.396 129.015 101.231 129.303 101.3 129.578C101.369 129.811 101.575 129.962 101.808 129.962C101.849 129.962 101.904 129.962 101.945 129.949C102.138 129.894 102.22 129.88 102.275 129.88C102.454 129.852 102.563 129.825 102.921 129.674C103.099 129.592 103.209 129.427 103.236 129.248C103.333 129.317 103.429 129.358 103.552 129.358C103.566 129.358 103.58 129.358 103.593 129.344C102.756 131.899 101.478 135.236 100.654 135.882C99.13 137.09 94.7215 137.969 90.4366 136.486C89.7911 136.266 89.3241 135.689 89.228 135.016L88.6374 130.265C90.0245 130.786 91.6177 131.116 93.6777 131.116C95.4768 131.116 97.6468 130.869 100.366 130.292C100.654 130.237 100.833 129.949 100.778 129.674C100.723 129.386 100.435 129.207 100.16 129.262C94.0897 130.539 91.0134 130.168 88.4452 129.042C88.3353 128.864 88.143 128.754 87.9233 128.781H87.9095C87.8958 128.768 87.8821 128.767 87.8683 128.754C88.7198 124.812 89.4202 120.678 89.5713 119.785C91.5352 117.451 91.5353 115.198 91.5353 115.088C91.5353 114.8 91.3018 114.567 91.0134 114.567C91.0134 114.567 91.0134 114.567 90.9996 114.567C90.7112 114.567 90.4778 114.814 90.4778 115.102C90.4778 115.13 90.4778 117.094 88.7198 119.154C88.6786 119.181 88.6512 119.222 88.6237 119.264C88.2117 119.731 87.7035 120.211 87.0855 120.664C83.8032 123.095 84.998 126.666 86.083 128.218C86.1791 128.369 86.3439 128.438 86.5087 128.438C86.6186 128.438 86.7147 128.41 86.8108 128.342C86.8383 128.328 86.852 128.287 86.8795 128.273C86.1654 131.597 85.3825 134.673 84.7783 135.593C84.2838 136.335 82.5259 136.994 80.1774 137.283C76.8402 137.708 73.4342 137.31 72.4316 136.39C71.9372 135.937 70.9072 134.261 69.3965 128.053C70.3853 128.452 71.5801 128.658 73.0222 128.658C73.0359 128.658 73.0634 128.658 73.0771 128.658C73.3655 128.658 73.599 128.424 73.599 128.136C73.599 127.847 73.3655 127.614 73.0771 127.614C73.0634 127.614 73.0359 127.614 73.0222 127.614C70.811 127.614 69.2317 127.119 68.339 126.144C68.0918 125.883 67.927 125.609 67.8171 125.361C69.6162 120.967 68.9707 115.569 65.8806 109.306C65.757 109.045 65.4411 108.936 65.1802 109.073C64.9193 109.197 64.8094 109.512 64.9467 109.773C67.5836 115.116 68.3664 119.772 67.3089 123.631C67.2403 123.59 67.1716 123.576 67.1029 123.562C66.8145 123.535 66.5536 123.741 66.5261 124.029C66.5261 124.07 66.4712 124.62 66.6909 125.334C64.3974 130.416 59.1236 132.132 59.0687 132.146C58.794 132.228 58.643 132.531 58.7254 132.805C58.794 133.025 59 133.176 59.2335 133.176C59.2884 133.176 59.3434 133.162 59.3846 133.149C59.5768 133.094 63.1339 131.954 65.8257 128.699L66.0866 129.578C66.7733 132.036 66.6772 134.014 65.7982 135.456C64.7819 137.118 63.0103 137.489 62.9691 137.489C54.7288 139.508 49.0019 136.678 46.4474 134.962C48.013 135.113 49.6886 135.113 51.5014 134.948C52.2018 135.058 53.9186 135.456 54.4816 136.184L54.6327 136.39H54.8936C55.0035 136.39 55.855 136.362 56.3906 135.662C56.8164 135.099 56.8713 134.302 56.5554 133.3C56.473 133.025 56.1709 132.86 55.8962 132.956C55.6215 133.039 55.4567 133.341 55.5529 133.616C55.7589 134.275 55.7589 134.769 55.5529 135.044C55.4293 135.209 55.2507 135.291 55.0996 135.319C54.0422 134.289 51.8448 133.945 51.5838 133.904L51.5151 133.89H51.4465C37.2321 135.291 31.2579 125.128 31.203 125.018C31.0656 124.771 30.736 124.675 30.4888 124.826C30.2416 124.963 30.1455 125.293 30.2965 125.54C30.3103 125.567 30.5712 125.993 31.0793 126.666C27.1515 125.595 22.2211 123.48 18.7602 119.36C13.5551 113.152 12.4701 113.179 12.0993 113.179C11.8933 113.179 11.7011 113.262 11.5912 113.413C11.4126 113.646 11.4538 113.976 11.6873 114.155C11.8247 114.264 12.0032 114.292 12.1543 114.251C12.4289 114.347 13.7474 115.02 17.9636 120.046C21.9876 124.84 27.8657 127.023 32.0819 128.012C32.1231 128.026 32.1643 128.026 32.2055 128.026H32.2192C34.3342 130.333 38.2758 133.547 44.3324 134.673C45.1564 135.442 49.6611 139.274 57.2558 139.274C59.055 139.274 61.0326 139.054 63.1888 138.532C63.285 138.519 65.4137 138.093 66.6772 136.033C67.7347 134.33 67.872 132.077 67.0892 129.303L66.6085 127.669C66.842 127.312 67.0755 126.941 67.2815 126.543C67.3639 126.652 67.4463 126.762 67.5424 126.872C67.7347 127.078 67.9407 127.257 68.1742 127.435C68.1742 127.477 68.1742 127.531 68.1879 127.573C69.4651 132.998 70.66 136.253 71.7312 137.214C72.7612 138.148 75.096 138.546 77.5131 138.546C78.4607 138.546 79.4221 138.491 80.3148 138.368C81.9216 138.162 84.737 137.612 85.6572 136.211C86.2478 135.319 86.9207 132.874 87.5525 130.141L88.1842 135.168C88.3353 136.253 89.0769 137.145 90.0932 137.489C91.7825 138.065 93.5266 138.326 95.161 138.326C97.7841 138.326 100.091 137.681 101.3 136.72C102.687 135.635 104.404 130.306 104.857 128.85C107.988 129.386 111.065 129.66 114.059 129.66C126.749 129.66 138.093 124.853 147.253 115.5C147.459 115.294 147.459 114.965 147.239 114.759C147.033 114.553 146.704 114.553 146.498 114.773C135.456 126.034 121.791 130.471 105.873 127.957C106.436 127.435 106.903 126.831 107.288 126.199C107.769 126.295 108.222 126.35 108.661 126.35C109.623 126.35 110.46 126.103 111.188 125.609C112.85 124.469 113.18 122.436 113.193 122.326C113.482 119.456 114.58 118.165 114.594 118.151L115.638 116.984C118.92 114.086 118.797 109.526 118.44 107.081C118.536 107.672 118.756 108.304 119.14 108.949C119.236 109.114 119.415 109.21 119.593 109.21C119.689 109.21 119.772 109.183 119.854 109.142C120.101 108.991 120.184 108.675 120.033 108.427C118.357 105.598 120.637 103.332 120.733 103.236L120.788 103.181C124.07 98.9372 123.37 93.2239 122.573 89.9552C123.933 88.5543 123.04 86.2882 122.999 86.192L122.986 86.1508C121.571 83.3491 121.365 79.7645 121.598 76.5233C122.793 77.6083 126.227 80.3826 132.063 82.5525C131.995 82.6212 131.954 82.7036 131.926 82.7997C131.857 83.0882 132.036 83.3628 132.324 83.4315C133.615 83.7337 134.481 83.8985 135.991 83.7886C135.991 83.7886 135.991 83.7886 136.005 83.7886C137.09 83.7199 138.505 83.5139 140.661 83.1156C140.235 84.2006 139.301 86.041 137.708 86.9474C136.87 86.247 136.39 85.7938 136.362 85.7663C136.156 85.5603 135.827 85.574 135.621 85.78C135.415 85.986 135.428 86.3156 135.634 86.5217C136.087 86.9611 146.923 97.3578 158.817 95.8333C158.872 95.8333 158.913 95.8471 158.927 95.8745C158.954 95.902 158.954 95.9432 158.94 95.9844C158.089 98.0445 155.631 103.483 151.222 109.293C151.044 109.526 151.098 109.856 151.318 110.034C151.414 110.103 151.524 110.144 151.634 110.144C151.799 110.144 151.95 110.076 152.06 109.938C156.537 104.033 159.037 98.4977 159.916 96.3964C160.067 95.9707 160.012 95.5449 159.751 95.2153ZM86.9345 127.641C86.8246 127.49 84.4349 123.961 87.7035 121.543C87.8958 121.392 88.0881 121.241 88.2666 121.104C87.937 122.944 87.4838 125.403 86.9894 127.765C86.9619 127.724 86.9482 127.683 86.9345 127.641Z" fill="black"/>
<path d="M13.6804 92.1677C13.7353 92.4149 13.9551 92.5935 14.1885 92.5935C14.216 92.5935 14.2572 92.5935 14.2984 92.5797C14.5868 92.5248 14.7654 92.2501 14.7104 91.9617C14.1885 89.3385 12.362 88.8029 11.483 88.8853C11.1946 88.9128 10.9749 89.16 11.0023 89.4621C11.0298 89.7505 11.277 89.9703 11.5791 89.9428C11.6341 89.9153 13.2135 89.8055 13.6804 92.1677Z" fill="black"/>
<path d="M32.3728 43.7687C32.4003 43.8236 32.4277 43.8648 32.4689 43.906C33.7874 46.1584 35.6689 48.4657 38.3744 50.5945C38.4706 50.6769 38.5804 50.7044 38.7041 50.7044C38.8002 50.7044 38.8826 50.6769 38.965 50.6357C38.7865 53.4786 38.2371 57.9834 36.9461 59.4804C36.6715 59.81 36.6989 60.3044 37.0148 60.5929C37.2208 60.7851 37.6328 61.0873 38.1684 61.2658C37.2345 62.1723 36.177 63.5869 35.6002 65.7294L35.5865 65.7706C35.5865 65.7706 35.4629 66.4436 35.1058 66.9242C34.941 67.144 34.8861 67.4324 34.9547 67.7071C35.0234 67.9818 35.2157 68.1878 35.4766 68.2976C36.2182 68.5998 37.1521 68.8882 37.9762 68.8882C38.4568 68.8882 38.9101 68.7921 39.2809 68.5449C39.5143 68.3801 39.583 68.0504 39.4182 67.817C39.2534 67.5835 38.9238 67.5148 38.6903 67.6796C38.2646 67.968 37.262 67.8719 36.0672 67.4049C36.4517 66.8144 36.6028 66.1414 36.6303 66.0041C37.3856 63.2023 39.0199 61.8015 39.9126 61.2246C39.9264 61.2109 39.9538 61.1972 39.9676 61.1834C40.2697 60.9912 40.4894 60.895 40.5169 60.8813C40.7778 60.7714 40.9152 60.4555 40.7916 60.1946C40.6817 59.9336 40.3658 59.7963 40.1049 59.9062C40.0637 59.9199 39.8165 60.0298 39.4319 60.2632C38.7865 60.4693 38.2371 60.2083 37.9075 59.9611C39.8989 57.2418 40.0912 49.3722 40.0912 49.0288C40.0912 48.7404 39.8714 48.4932 39.583 48.4932C39.2946 48.4932 39.0474 48.7129 39.0474 49.0014C39.0474 49.2211 39.0337 49.4683 39.0199 49.743C36.3144 47.6142 34.4741 45.3069 33.2243 43.0683C31.0818 38.6734 32.1943 34.3334 32.5101 33.3034C37.3169 31.724 41.8353 33.5918 42.8242 34.045C42.5083 34.6356 42.2062 35.2399 41.9315 35.8442C41.9177 35.8304 41.904 35.8304 41.8765 35.8167C41.6705 35.748 36.9324 34.2098 35.2432 37.0665C34.8449 37.7257 34.8174 38.7146 35.147 39.9918C35.202 40.2253 35.4217 40.3901 35.6552 40.3901C35.6964 40.3901 35.7376 40.3901 35.7788 40.3764C36.0534 40.3077 36.232 40.0193 36.1633 39.7309C35.9161 38.7695 35.9161 38.0141 36.1496 37.6021C37.3444 35.5832 41.08 36.6682 41.5057 36.7918C40.9152 38.2064 40.4208 39.6348 40.05 41.0906C39.9813 41.3652 40.1461 41.6537 40.4345 41.7361C40.4757 41.7498 40.5169 41.7498 40.5718 41.7498C40.8053 41.7498 41.0251 41.585 41.08 41.3515C41.8353 38.385 43.0851 35.5008 44.7881 32.754C44.9392 32.5068 44.8705 32.1772 44.6233 32.0261C44.3761 31.875 44.0465 31.9437 43.8954 32.1909C43.7031 32.4931 43.5246 32.7952 43.3461 33.1111C42.3572 32.6304 37.3581 30.4604 31.9333 32.3832L31.6998 32.4656L31.6174 32.6991C31.5762 32.8227 31.0132 34.3334 30.9033 36.5446C30.4775 34.0862 30.6286 32.2871 30.6836 31.8064C35.4766 25.5986 44.898 25.3102 49.2104 25.5437C49.1966 25.5574 49.1829 25.5711 49.1692 25.5849C48.9631 25.7909 48.9631 26.1205 49.1692 26.3265C49.2653 26.4364 49.4026 26.4776 49.54 26.4776C49.6773 26.4776 49.8009 26.4226 49.9108 26.3265C51.3666 24.8844 52.3966 24.129 52.4103 24.1153L52.479 24.0604C52.5477 23.9917 60.1287 16.5341 75.689 15.4766C81.1276 15.1058 86.9369 15.6552 91.6201 16.9736C91.8948 17.056 92.1832 16.8912 92.2656 16.6165C92.3343 16.3693 92.2107 16.1084 91.9909 15.9985C94.1883 14.5839 103.253 9.43365 113.759 13.5676C113.924 13.8423 114.295 14.5427 114.72 15.5865C114.089 14.5702 113.58 13.9659 113.525 13.8835L113.388 13.7187L113.168 13.7049C104.035 12.9633 100.41 17.6054 99.4484 19.1711C99.2973 19.0887 99.1325 18.9925 98.9814 18.9101C98.7205 18.7728 98.4046 18.8689 98.2673 19.1299C98.1299 19.3908 98.226 19.7067 98.487 19.844C101.893 21.6707 104.475 23.6621 106.178 25.7771C106.288 25.9007 106.439 25.9694 106.59 25.9694C106.7 25.9694 106.823 25.9282 106.92 25.8595C107.139 25.681 107.18 25.3514 107.002 25.1179C105.986 23.8406 104.653 22.6183 103.06 21.4509C103.871 20.723 107.071 18.0449 109.392 19.3771C110.037 19.7479 110.518 20.8603 110.765 22.5222C110.806 22.7831 111.026 22.9754 111.287 22.9754C111.314 22.9754 111.342 22.9754 111.369 22.9754C111.658 22.9342 111.85 22.6595 111.809 22.3848C111.507 20.3522 110.875 19.0337 109.927 18.4844C106.727 16.644 102.703 20.3522 102.195 20.8466C101.632 20.4621 101.028 20.0775 100.396 19.7067C101.234 18.3333 104.516 14.1444 112.866 14.7762C113.512 15.6277 116.327 19.5419 116.423 24.1565C116.423 24.2527 116.423 24.3488 116.423 24.4587C116.423 24.7333 116.41 25.008 116.396 25.2827C116.396 25.3239 116.396 25.3651 116.396 25.4063C116.272 28.2767 115.585 31.5042 113.937 34.924L113.718 35.336C112.646 33.6879 111.905 32.1772 111.479 31.1883C115.064 29.1008 115.05 26.7797 114.707 25.5574C114.569 25.063 114.253 24.6784 113.814 24.4449C112.578 23.7857 110.6 24.3763 110.38 24.4587C110.106 24.5411 109.955 24.8432 110.037 25.1179C110.119 25.3926 110.422 25.5437 110.696 25.4612C111.177 25.3102 112.592 24.9943 113.306 25.3788C113.512 25.4887 113.622 25.6398 113.69 25.8595C114.226 27.7823 112.674 29.2518 111.067 30.2132C111.012 30.0759 110.985 30.0072 110.985 29.9935C110.889 29.7188 110.586 29.5677 110.312 29.6639C110.037 29.76 109.886 30.0484 109.982 30.3231C110.078 30.5978 112.317 37.0802 117.7 41.4476C117.92 41.6262 118.14 41.791 118.346 41.9695C120.145 43.4116 121.834 44.7575 122.645 46.7902C122.7 46.9412 122.754 47.0923 122.809 47.2297C121.024 45.4168 118.579 44.8949 118.442 44.8674C118.154 44.8125 117.879 44.991 117.824 45.2794C117.769 45.5679 117.948 45.8425 118.236 45.8975C118.277 45.9112 122.082 46.7215 123.263 49.8117C123.881 51.446 124.869 52.6683 125.391 53.2452C125.419 53.2864 125.419 53.3138 125.419 53.3413C125.419 53.3688 125.405 53.3962 125.364 53.4237C124.952 53.6572 124.43 53.7259 123.839 53.6572C123.551 53.616 123.29 53.822 123.249 54.1104C123.208 54.3988 123.414 54.6598 123.702 54.701C123.894 54.7284 124.073 54.7422 124.251 54.7422C124.842 54.7422 125.405 54.6048 125.872 54.3576C126.188 54.1791 126.408 53.8769 126.463 53.5198C126.518 53.1628 126.421 52.8057 126.174 52.5447C125.707 52.0366 124.842 50.9653 124.279 49.537C124.293 48.6031 124.073 47.5593 123.62 46.4194C122.713 44.1395 120.818 42.6288 118.991 41.173C118.772 40.9944 118.566 40.8296 118.346 40.6511C116.739 39.3463 115.407 37.8219 114.349 36.3386L114.83 35.4047C116.616 31.7102 117.302 28.2218 117.412 25.1591C117.44 24.7059 117.44 24.2527 117.426 23.7994C117.426 23.772 117.426 23.7445 117.426 23.7308C117.426 23.717 117.426 23.7033 117.426 23.6896C117.247 17.2758 114.583 12.9908 114.542 12.9221L114.446 12.7847L114.295 12.7161C102.319 7.89544 92.0733 14.68 90.9472 15.4629C90.851 15.5316 90.7961 15.6277 90.7549 15.7238C86.1678 14.5839 80.7155 14.1444 75.5791 14.4878C59.9639 15.5178 52.3416 22.7282 51.7374 23.3325C51.5863 23.4423 50.982 23.9093 50.0893 24.7333C50.0069 24.6372 49.8833 24.5685 49.7322 24.5685C45.4748 24.2801 34.9959 24.3625 29.7359 31.3257L29.6535 31.4355L29.6261 31.5592C29.6123 31.6416 28.7746 37.3137 32.2355 43.5352C32.2904 43.6039 32.3316 43.6863 32.3728 43.7687Z" fill="black"/>
<path d="M74.4079 126.955C74.298 126.681 73.9958 126.557 73.7212 126.653C73.4465 126.763 73.3229 127.065 73.419 127.34C73.4328 127.367 74.4353 129.812 77.6765 129.812C78.2396 129.812 78.8713 129.743 79.5717 129.565C82.7854 128.768 85.1339 129.469 85.1751 129.482C85.4498 129.565 85.7519 129.414 85.8343 129.139C85.9167 128.864 85.7657 128.562 85.491 128.48C85.3811 128.452 82.8541 127.683 79.3245 128.548C75.4928 129.496 74.4491 127.051 74.4079 126.955Z" fill="black"/>
<path d="M37.4954 42.8483C37.7838 42.7933 37.976 42.5324 37.9211 42.244C37.8662 41.9556 37.6052 41.7633 37.3168 41.8182C37.1383 41.8457 35.4902 42.1616 34.8173 43.1641C34.5563 43.5487 34.4739 44.0019 34.5701 44.4689C34.8035 45.5951 35.7786 47.5041 39.5417 47.5728H39.5554C39.8438 47.5728 40.0773 47.3393 40.0773 47.0509C40.0773 46.7625 39.8576 46.5152 39.5554 46.5152C37.9623 46.4878 35.9846 46.062 35.6001 44.2354C35.5589 44.0569 35.5864 43.892 35.6962 43.741C36.0396 43.2191 37.1383 42.9169 37.4954 42.8483Z" fill="black"/>
<path d="M58.5154 65.4791C63.3648 64.2355 66.7843 61.232 66.1532 58.7706C65.522 56.3091 61.0791 55.3218 56.2298 56.5653C51.3804 57.8088 47.9609 60.8123 48.5921 63.2738C49.2232 65.7353 53.6661 66.7226 58.5154 65.4791Z" fill="#FCB5D1"/>
<path opacity="0.0196078" d="M60.1937 72.9725C69.7196 70.8743 76.2781 63.8889 74.8423 57.3702C73.4066 50.8516 64.5204 47.268 54.9944 49.3662C45.4684 51.4644 38.91 58.4497 40.3457 64.9684C41.7815 71.4871 50.6677 75.0706 60.1937 72.9725Z" fill="#FFFEFE"/>
<path opacity="0.0392157" d="M60.1548 72.7804C69.5317 70.712 75.9848 63.8294 74.5683 57.4076C73.1518 50.9859 64.4021 47.4569 55.0252 49.5253C45.6483 51.5937 39.1952 58.4763 40.6117 64.8981C42.0282 71.3198 50.7779 74.8489 60.1548 72.7804Z" fill="#FFFCFD"/>
<path opacity="0.0588235" d="M60.1389 72.5947C69.3676 70.5561 75.7177 63.7817 74.3221 57.4637C72.9265 51.1457 64.3138 47.6765 55.0851 49.7151C45.8564 51.7537 39.5063 58.528 40.9019 64.8461C42.2975 71.1641 50.9102 74.6333 60.1389 72.5947Z" fill="#FFFBFC"/>
<path opacity="0.0784314" d="M60.0937 72.3902C69.1734 70.3816 75.4196 63.716 74.045 57.5023C72.6705 51.2886 64.1956 47.8797 55.116 49.8884C46.0363 51.8971 39.7901 58.5626 41.1647 64.7763C42.5392 70.99 51.0141 74.3989 60.0937 72.3902Z" fill="#FFF9FB"/>
<path opacity="0.0980392" d="M60.0562 72.1874C68.9869 70.2088 75.1293 63.6522 73.7758 57.5428C72.4223 51.4334 64.0854 48.0847 55.1547 50.0634C46.2241 52.042 40.0816 58.5986 41.4351 64.708C42.7886 70.8174 51.1256 74.1661 60.0562 72.1874Z" fill="#FFF8FA"/>
<path opacity="0.1176" d="M60.0378 72.0154C68.8203 70.0669 74.8585 63.6127 73.5245 57.5996C72.1905 51.5865 63.9894 48.2915 55.2069 50.24C46.4243 52.1885 40.3861 58.6427 41.7202 64.6558C43.0542 70.6689 51.2553 73.9639 60.0378 72.0154Z" fill="#FFF6FA"/>
<path opacity="0.1373" d="M59.9977 71.8142C68.6387 69.8943 74.5793 63.5478 73.2664 57.639C71.9536 51.7301 63.8844 48.4965 55.2435 50.4164C46.6025 52.3364 40.6619 58.6829 41.9748 64.5917C43.2876 70.5006 51.3568 73.7342 59.9977 71.8142Z" fill="#FFF5F9"/>
<path opacity="0.1569" d="M59.9735 71.6062C68.4655 69.7156 74.3021 63.4775 73.0099 57.6729C71.7177 51.8684 63.7861 48.6954 55.2941 50.5859C46.8021 52.4765 40.9655 58.7146 42.2577 64.5192C43.5499 70.3237 51.4815 73.4967 59.9735 71.6062Z" fill="#FFF3F8"/>
<path opacity="0.1765" d="M59.9352 71.4197C68.2783 69.5596 74.0114 63.4306 72.7406 57.7303C71.4697 52.0299 63.6761 48.9168 55.333 50.777C46.9899 52.6371 41.2568 58.7661 42.5277 64.4664C43.7985 70.1668 51.5922 73.2799 59.9352 71.4197Z" fill="#FEF2F7"/>
<path opacity="0.1961" d="M59.9121 71.2199C68.1071 69.3894 73.7371 63.3685 72.487 57.7718C71.237 52.1751 63.5802 49.122 55.3852 50.9525C47.1902 52.7829 41.5602 58.8039 42.8103 64.4006C44.0604 69.9973 51.7171 73.0504 59.9121 71.2199Z" fill="#FEF0F6"/>
<path opacity="0.2157" d="M59.8775 71.03C67.9237 69.2293 73.4485 63.3109 72.2177 57.811C70.9869 52.3111 63.4665 49.3124 55.4204 51.1131C47.3742 52.9138 41.8493 58.8321 43.0802 64.332C44.311 69.8319 51.8314 72.8307 59.8775 71.03Z" fill="#FEEFF5"/>
<path opacity="0.2353" d="M59.8386 70.8455C67.7359 69.0755 73.1576 63.2665 71.9483 57.8708C70.739 52.4751 63.3567 49.5359 55.4594 51.3059C47.5622 53.0759 42.1405 58.8848 43.3498 64.2805C44.559 69.6763 51.9414 72.6155 59.8386 70.8455Z" fill="#FEEEF4"/>
<path opacity="0.2549" d="M59.8093 70.6417C67.5578 68.9017 72.8759 63.2015 71.6877 57.91C70.4994 52.6184 63.2548 49.7393 55.5064 51.4793C47.7579 53.2193 42.4398 58.9195 43.628 64.2111C44.8163 69.5026 52.0609 72.3817 59.8093 70.6417Z" fill="#FEECF3"/>
<path opacity="0.2745" d="M59.7778 70.4369C67.3774 68.7262 72.5916 63.1342 71.424 57.9468C70.2564 52.7594 63.1491 49.9409 55.5495 51.6516C47.9498 53.3623 42.7356 58.9543 43.9032 64.1417C45.0708 69.3291 52.1781 72.1475 59.7778 70.4369Z" fill="#FEEBF2"/>
<path opacity="0.2941" d="M59.754 70.2608C67.2049 68.5804 72.3143 63.0913 71.1663 58.0006C70.0182 52.91 63.0474 50.1454 55.5965 51.8258C48.1456 53.5062 43.0362 58.9952 44.1842 64.0859C45.3323 69.1766 52.3031 71.9412 59.754 70.2608Z" fill="#FEE9F1"/>
<path opacity="0.3137" d="M59.7196 70.0577C67.0292 68.4053 72.0409 63.0233 70.9137 58.0367C69.7864 53.0501 62.947 50.3472 55.6375 51.9997C48.3279 53.6521 43.3162 59.0341 44.4434 64.0207C45.5707 69.0073 52.41 71.7102 59.7196 70.0577Z" fill="#FEE8F1"/>
<path opacity="0.3333" d="M59.6931 69.8718C66.854 68.2499 71.7626 62.977 70.6567 58.0945C69.5509 53.212 62.8494 50.5688 55.6885 52.1907C48.5277 53.8126 43.6191 59.0855 44.725 63.968C45.8308 68.8505 52.5323 71.4937 59.6931 69.8718Z" fill="#FEE6F0"/>
<path opacity="0.3529" d="M59.6526 69.6712C66.6647 68.0792 71.4698 62.9149 70.385 58.1365C69.3002 53.358 62.7362 50.7749 55.724 52.3669C48.7118 53.9589 43.9068 59.1232 44.9916 63.9017C46.0764 68.6801 52.6404 71.2632 59.6526 69.6712Z" fill="#FEE5EF"/>
<path opacity="0.3725" d="M59.6177 69.4865C66.4813 67.9246 71.1816 62.863 70.1162 58.1812C69.0508 53.4994 62.6231 50.9703 55.7596 52.5322C48.896 54.0941 44.1957 59.1557 45.2611 63.8375C46.3265 68.5193 52.7542 71.0485 59.6177 69.4865Z" fill="#FEE3EE"/>
<path opacity="0.3922" d="M59.5965 69.2876C66.3108 67.7552 70.9069 62.8023 69.8622 58.2249C68.8176 53.6476 62.5277 51.1792 55.8135 52.7116C49.0992 54.2441 44.5031 59.197 45.5478 63.7743C46.5924 68.3516 52.8823 70.82 59.5965 69.2876Z" fill="#FEE2ED"/>
<path opacity="0.4118" d="M59.5549 69.0908C66.1206 67.5888 70.6136 62.7448 69.5903 58.2714C68.567 53.7981 62.4149 51.3894 55.8492 52.8914C49.2835 54.3934 44.7905 59.2374 45.8138 63.7108C46.8371 68.1841 52.9893 70.5928 59.5549 69.0908Z" fill="#FEE1EC"/>
<path opacity="0.4314" d="M59.5303 68.8876C65.9474 67.4154 70.337 62.6799 69.3347 58.3105C68.3324 53.9412 62.3177 51.5925 55.9005 53.0647C49.4834 54.5368 45.0938 59.2723 46.0961 63.6417C47.0985 68.011 53.1131 70.3597 59.5303 68.8876Z" fill="#FEDFEB"/>
<path opacity="0.451" d="M59.4924 68.6985C65.7604 67.2564 70.0462 62.6299 69.0649 58.3649C68.0837 54.0999 62.2071 51.8115 55.9391 53.2536C49.6711 54.6957 45.3853 59.3222 46.3665 63.5872C47.3477 67.8522 53.2244 70.1406 59.4924 68.6985Z" fill="#FEDEEA"/>
<path opacity="0.4706" d="M59.4747 68.5066C65.5942 67.0941 69.7751 62.5699 68.813 58.4014C67.8509 54.2329 62.1101 51.9988 55.9906 53.4112C49.871 54.8237 45.6901 59.348 46.6522 63.5164C47.6143 67.6849 53.3551 69.9191 59.4747 68.5066Z" fill="#FEDCE9"/>
<path opacity="0.4902" d="M59.4298 68.3069C65.4077 66.9231 69.4911 62.5067 68.5504 58.4426C67.6097 54.3784 62.0011 52.2055 56.0232 53.5892C50.0453 54.973 45.9618 59.3894 46.9025 63.4536C47.8433 67.5177 53.4519 69.6906 59.4298 68.3069Z" fill="#FEDBE8"/>
<path opacity="0.5098" d="M59.3972 68.1238C65.2267 66.7701 69.207 62.4622 68.2874 58.5019C67.3678 54.5416 61.8965 52.4285 56.067 53.7823C50.2375 55.136 46.2572 59.4439 47.1768 63.4042C48.0965 67.3645 53.5677 69.4775 59.3972 68.1238Z" fill="#FDD9E8"/>
<path opacity="0.5294" d="M59.3724 67.915C65.0529 66.5909 68.9294 62.3916 68.0306 58.5355C67.1318 54.6794 61.7982 52.6269 56.1176 53.9509C50.437 55.275 46.5606 59.4744 47.4594 63.3304C48.3582 67.1865 53.6918 69.2391 59.3724 67.915Z" fill="#FDD8E7"/>
<path opacity="0.549" d="M59.3284 67.729C64.8601 66.4354 68.6318 62.3392 67.7527 58.5799C66.8736 54.8207 61.6766 52.8218 56.1449 54.1155C50.6132 55.4091 46.8415 59.5053 47.7206 63.2645C48.5997 67.0238 53.7967 69.0226 59.3284 67.729Z" fill="#FDD6E6"/>
<path opacity="0.5686" d="M59.3117 67.5343C64.6946 66.2702 68.3625 62.2824 67.5043 58.6273C66.646 54.9722 61.5865 53.0339 56.2036 54.2979C50.8207 55.562 47.1528 59.5497 48.0111 63.2049C48.8694 66.86 53.9289 68.7983 59.3117 67.5343Z" fill="#FDD5E5"/>
<path opacity="0.5882" d="M59.2697 67.337C64.5039 66.1034 68.0685 62.2246 67.2316 58.6736C66.3947 55.1226 61.4731 53.244 56.239 54.4777C51.0048 55.7113 47.4402 59.5901 48.2771 63.1411C49.1141 66.6921 54.0356 68.5707 59.2697 67.337Z" fill="#FDD3E4"/>
<path opacity="0.6078" d="M59.2442 67.1338C64.3296 65.9302 67.7909 62.1602 66.9751 58.7133C66.1593 55.2663 61.3755 53.4477 56.29 54.6513C51.2046 55.8549 47.7433 59.6249 48.5591 63.0718C49.3749 66.5188 54.1587 68.3374 59.2442 67.1338Z" fill="#FDD2E3"/>
<path opacity="0.6275" d="M59.2153 66.9469C64.1521 65.7732 67.5099 62.1117 66.7152 58.7688C65.9205 55.4259 61.2741 53.6674 56.3373 54.8411C51.4005 56.0148 48.0427 59.6763 48.8374 63.0192C49.6322 66.3621 54.2785 68.1206 59.2153 66.9469Z" fill="#FDD1E2"/>
<path opacity="0.6471" d="M59.1718 66.7572C63.9595 65.6137 67.2123 62.0552 66.437 58.8092C65.6617 55.5632 61.152 53.8589 56.3643 55.0024C51.5765 56.146 48.3238 59.7044 49.0991 62.9504C49.8743 66.1964 54.384 67.9008 59.1718 66.7572Z" fill="#FDCFE1"/>
<path opacity="0.6667" d="M59.1523 66.5555C63.7989 65.4402 66.9544 61.9889 66.2002 58.8468C65.4461 55.7047 61.0679 54.0617 56.4213 55.1771C51.7746 56.2924 48.6192 59.7437 49.3733 62.8857C50.1275 66.0278 54.5057 67.6708 59.1523 66.5555Z" fill="#FDCEE0"/>
<path opacity="0.6863" d="M59.1151 66.3638C63.6128 65.2783 66.6647 61.9357 65.9315 58.8978C65.1984 55.86 60.958 54.2772 56.4603 55.3627C51.9625 56.4482 48.9107 59.7908 49.6438 62.8287C50.377 65.8665 54.6174 67.4493 59.1151 66.3638Z" fill="#FDCCDF"/>
<path opacity="0.7059" d="M59.0889 66.162C63.4378 65.1068 66.3862 61.8731 65.6744 58.9393C64.9626 56.0056 60.86 54.4828 56.5111 55.538C52.1622 56.5933 49.2138 59.827 49.9256 62.7607C50.6374 65.6945 54.74 67.2173 59.0889 66.162Z" fill="#FDCBDF"/>
<path opacity="0.7255" d="M59.0539 65.9773C63.2541 64.9522 66.0977 61.8213 65.4053 58.9842C64.7129 56.1472 60.7467 54.6784 56.5465 55.7035C52.3463 56.7286 49.5027 59.8594 50.1951 62.6965C50.8874 65.5335 54.8537 67.0024 59.0539 65.9773Z" fill="#FDC9DE"/>
<path opacity="0.7451" d="M59.0274 65.7831C63.0785 64.7881 65.8186 61.7662 65.1474 59.0334C64.4763 56.3007 60.6481 54.8919 56.597 55.8869C52.5458 56.8819 49.8058 59.9038 50.4769 62.6365C51.1481 65.3693 54.9762 66.778 59.0274 65.7831Z" fill="#FDC8DD"/>
<path opacity="0.7647" d="M58.9901 65.586C62.8927 64.6212 65.5296 61.708 64.8797 59.0792C64.2298 56.4504 60.5393 55.1014 56.6366 56.0663C52.734 57.0311 50.0971 59.9443 50.747 62.5731C51.3969 65.2019 55.0874 66.5508 58.9901 65.586Z" fill="#FDC6DC"/>
<path opacity="0.7843" d="M58.952 65.3869C62.7058 64.4523 65.2393 61.648 64.6108 59.1233C63.9822 56.5987 60.4296 55.3097 56.6758 56.2443C52.922 57.1789 50.3884 59.9832 51.017 62.5079C51.6456 65.0325 55.1982 66.3215 58.952 65.3869Z" fill="#FDC5DB"/>
<path opacity="0.8039" d="M58.9285 65.2037C62.5333 64.299 64.9616 61.5976 64.3524 59.1699C63.7431 56.7421 60.327 55.5074 56.7223 56.412C53.1175 57.3167 50.6892 60.0181 51.2984 62.4459C51.9077 64.8736 55.3238 66.1083 58.9285 65.2037Z" fill="#FDC4DA"/>
<path opacity="0.8235" d="M58.8965 65.0059C62.3601 64.1295 64.6912 61.5353 64.1033 59.2115C63.5153 56.8877 60.2309 55.7144 56.7674 56.5907C53.3038 57.4671 50.9727 60.0613 51.5607 62.3851C52.1486 64.7089 55.433 65.8822 58.8965 65.0059Z" fill="#FDC2D9"/>
<path opacity="0.8431" d="M58.8652 64.801C62.1796 63.955 64.4072 61.47 63.8408 59.2505C63.2743 57.0311 60.1282 55.9176 56.8138 56.7636C53.4994 57.6096 51.2717 60.0946 51.8382 62.3141C52.4047 64.5335 55.5508 65.647 58.8652 64.801Z" fill="#FCC1D8"/>
<path opacity="0.8627" d="M58.8356 64.6145C62.0014 63.7985 64.1258 61.4221 63.5805 59.3066C63.0353 57.1911 60.0269 56.1377 56.8611 56.9537C53.6953 57.7697 51.5709 60.1461 52.1162 62.2616C52.6614 64.377 55.6698 65.4305 58.8356 64.6145Z" fill="#FCBFD7"/>
<path opacity="0.8824" d="M58.8071 64.421C61.8239 63.6354 63.8433 61.3622 63.3176 59.3436C62.792 57.3251 59.9204 56.3256 56.9037 57.1112C53.8869 57.8968 51.8675 60.17 52.3932 62.1886C52.9188 64.2071 55.7904 65.2066 58.8071 64.421Z" fill="#FCBED6"/>
<path opacity="0.902" d="M58.7647 64.2206C61.6326 63.4652 63.5487 61.3009 63.0444 59.3866C62.5402 57.4722 59.8066 56.5326 56.9388 57.288C54.0709 58.0434 52.1548 60.2077 52.6591 62.1221C53.1633 64.0364 55.8969 64.976 58.7647 64.2206Z" fill="#FCBCD6"/>
<path opacity="0.9216" d="M58.7254 64.0357C61.4443 63.3108 63.2571 61.2557 62.7745 59.4455C62.2919 57.6353 59.6966 56.7555 56.9777 57.4804C54.2588 58.2053 52.4459 60.2604 52.9285 62.0706C53.4111 63.8808 56.0065 64.7606 58.7254 64.0357Z" fill="#FCBBD5"/>
<path opacity="0.9412" d="M58.7024 63.833C61.2726 63.1384 62.9824 61.1922 62.5213 59.486C62.0602 57.7798 59.6029 56.9598 57.0327 57.6544C54.4625 58.349 52.7527 60.2952 53.2138 62.0014C53.6749 63.7076 56.1322 64.5276 58.7024 63.833Z" fill="#FCB9D4"/>
<path opacity="0.9608" d="M58.6681 63.6428C61.0966 62.9765 62.7074 61.1317 62.2659 59.5224C61.8244 57.9131 59.4977 57.1487 57.0692 57.815C54.6406 58.4813 53.0298 60.3261 53.4713 61.9354C53.9129 63.5447 56.2395 64.3092 58.6681 63.6428Z" fill="#FCB8D3"/>
<path opacity="0.9804" d="M58.6437 63.4477C60.9231 62.8118 62.4306 61.0763 62.0108 59.5712C61.5909 58.0662 59.4027 57.3617 57.1233 57.9975C54.8439 58.6334 53.3364 60.369 53.7563 61.874C54.1761 63.379 56.3643 64.0836 58.6437 63.4477Z" fill="#FCB6D2"/>
<path d="M58.6035 63.2494C60.7339 62.644 62.1383 61.0177 61.7403 59.6169C61.3423 58.216 59.2926 57.5711 57.1621 58.1764C55.0317 58.7818 53.6273 60.4081 54.0253 61.8089C54.4234 63.2098 56.473 63.8547 58.6035 63.2494Z" fill="#FCB5D1"/>
<path d="M104.19 52.9723C108.99 51.5516 112.297 48.4246 111.576 45.988C110.855 43.5514 106.379 42.728 101.578 44.1487C96.7781 45.5694 93.4713 48.6964 94.1924 51.133C94.9135 53.5696 99.3896 54.393 104.19 52.9723Z" fill="#FCB5D1"/>
<path opacity="0.0196078" d="M106.131 60.3967C115.573 57.9503 121.871 50.7292 120.197 44.2679C118.523 37.8067 109.511 34.552 100.069 36.9984C90.627 39.4448 84.3297 46.6659 86.0037 53.1272C87.6778 59.5885 96.6892 62.8431 106.131 60.3967Z" fill="#FFFEFE"/>
<path opacity="0.0392157" d="M106.095 60.2256C115.391 57.8143 121.587 50.6991 119.936 44.3333C118.285 37.9675 109.411 34.7616 100.116 37.1729C90.8204 39.5841 84.6238 46.6993 86.275 53.0652C87.9263 59.431 96.8002 62.6368 106.095 60.2256Z" fill="#FFFCFD"/>
<path opacity="0.0588235" d="M106.056 60.0289C115.204 57.6538 121.301 50.6518 119.675 44.3894C118.049 38.127 109.316 34.9757 100.168 37.3507C91.0209 39.7258 84.9235 46.7278 86.5494 52.9902C88.1753 59.2526 96.9088 62.4039 106.056 60.0289Z" fill="#FFFBFC"/>
<path opacity="0.0784314" d="M106.012 59.8292C115.011 57.4894 121.009 50.5999 119.408 44.4409C117.807 38.282 109.213 35.1858 100.213 37.5255C91.2137 39.8653 85.2159 46.7548 86.8171 52.9138C88.4182 59.0727 97.0118 62.1689 106.012 59.8292Z" fill="#FFF9FB"/>
<path opacity="0.0980392" d="M105.967 59.6424C114.819 57.3381 120.717 50.5611 119.14 44.5055C117.564 38.45 109.11 35.4089 100.258 37.7132C91.4064 40.0175 85.5083 46.7945 87.0846 52.8501C88.6609 58.9057 97.1146 61.9467 105.967 59.6424Z" fill="#FFF8FA"/>
<path opacity="0.1176" d="M105.952 59.4481C114.657 57.1785 120.454 50.5069 118.9 44.5467C117.346 38.5866 109.03 35.5949 100.325 37.8645C91.6194 40.1342 85.8222 46.8058 87.3761 52.7659C88.93 58.7261 97.2466 61.7178 105.952 59.4481Z" fill="#FFF6FA"/>
<path opacity="0.1373" d="M105.9 59.2513C114.465 57.0153 120.169 50.4549 118.64 44.5981C117.111 38.7413 108.928 35.806 100.363 38.042C91.7986 40.278 86.0949 46.8384 87.6238 52.6952C89.1528 58.552 97.3354 61.4873 105.9 59.2513Z" fill="#FFF5F9"/>
<path opacity="0.1569" d="M105.866 59.0511C114.284 56.8508 119.888 50.4031 118.384 44.6497C116.88 38.8962 108.837 36.0158 100.42 38.216C92.0032 40.4163 86.3988 46.864 87.9027 52.6175C89.4066 58.3709 97.4492 61.2513 105.866 59.0511Z" fill="#FFF3F8"/>
<path opacity="0.1765" d="M105.827 58.8608C114.096 56.6955 119.601 50.3598 118.121 44.7097C116.642 39.0596 108.739 36.2346 100.469 38.3999C92.1999 40.5652 86.6954 46.9009 88.1747 52.551C89.6541 58.2011 97.5572 61.0261 105.827 58.8608Z" fill="#FEF2F7"/>
<path opacity="0.1961" d="M105.777 58.6653C113.899 56.5359 119.304 50.3131 117.85 44.7662C116.396 39.2194 108.633 36.4491 100.511 38.5785C92.3888 40.7079 86.9835 46.9307 88.4377 52.4775C89.8919 58.0243 97.6549 60.7947 105.777 58.6653Z" fill="#FEF0F6"/>
<path opacity="0.2157" d="M105.748 58.4745C113.722 56.3803 119.026 50.2638 117.595 44.8129C116.163 39.362 108.538 36.6409 100.564 38.7352C92.5895 40.8294 87.2854 46.9459 88.7169 52.3968C90.1483 57.8476 97.7732 60.5687 105.748 58.4745Z" fill="#FEEFF5"/>
<path opacity="0.2353" d="M105.707 58.2863C113.534 56.2274 118.739 50.2232 117.332 44.8756C115.925 39.528 108.44 36.862 100.613 38.9209C92.7863 40.9798 87.5817 46.984 88.9884 52.3316C90.3951 57.6792 97.8804 60.3452 105.707 58.2863Z" fill="#FEEEF4"/>
<path opacity="0.2549" d="M105.674 58.0862C113.354 56.0627 118.459 50.1709 117.077 44.9265C115.695 39.6821 108.35 37.0711 100.67 39.0946C92.991 41.1182 87.8858 47.0099 89.2677 52.2543C90.6495 57.4987 97.995 60.1097 105.674 58.0862Z" fill="#FEECF3"/>
<path opacity="0.2745" d="M105.63 57.8876C113.161 55.8996 118.167 50.1203 116.81 44.9792C115.453 39.838 108.248 37.2819 100.716 39.2698C93.1839 41.2578 88.1781 47.0371 89.535 52.1783C90.8919 57.3194 98.0977 59.8756 105.63 57.8876Z" fill="#FEEBF2"/>
<path opacity="0.2941" d="M105.588 57.7185C112.972 55.7662 117.877 50.0935 116.543 45.0482C115.209 40.0029 108.142 37.4956 100.757 39.4479C93.373 41.4002 88.468 47.0729 89.8018 52.1182C91.1357 57.1635 98.2032 59.6708 105.588 57.7185Z" fill="#FEE9F1"/>
<path opacity="0.3137" d="M105.557 57.513C112.802 55.5937 117.613 50.0315 116.304 45.0894C114.995 40.1473 108.061 37.6968 100.816 39.616C93.5719 41.5352 88.7606 47.0974 90.0698 52.0395C91.3791 56.9817 98.3131 59.4322 105.557 57.513Z" fill="#FEE8F1"/>
<path opacity="0.3333" d="M105.508 57.3065C112.605 55.4224 117.316 49.9728 116.031 45.1343C114.747 40.2959 107.953 37.9009 100.857 39.7849C93.7605 41.669 89.0491 47.1186 90.3337 51.9571C91.6183 56.7955 98.4122 59.1906 105.508 57.3065Z" fill="#FEE6F0"/>
<path opacity="0.3529" d="M105.478 57.1272C112.427 55.2792 117.04 49.9424 115.78 45.2071C114.521 40.4717 107.867 38.1311 100.918 39.9791C93.9691 41.8271 89.3568 47.1639 90.616 51.8993C91.8753 56.6346 98.5293 58.9752 105.478 57.1272Z" fill="#FEE5EF"/>
<path opacity="0.3725" d="M105.434 56.9304C112.236 55.1179 116.749 49.8934 115.514 45.2611C114.28 40.6289 107.765 38.3431 100.964 40.1556C94.1622 41.9682 89.6491 47.1927 90.8835 51.8249C92.1178 56.4571 98.6323 58.7429 105.434 56.9304Z" fill="#FEE3EE"/>
<path opacity="0.3922" d="M105.393 56.7353C112.046 54.9577 116.458 49.8395 115.246 45.3035C114.034 40.7675 107.658 38.5314 101.005 40.309C94.3509 42.0866 89.9394 47.2047 91.1512 51.7407C92.363 56.2768 98.7392 58.5129 105.393 56.7353Z" fill="#FEE2ED"/>
<path opacity="0.4118" d="M105.363 56.5529C111.87 54.8111 116.182 49.8054 114.996 45.3725C113.809 40.9395 107.572 38.7579 101.066 40.4997C94.5597 42.2415 90.2472 47.2472 91.4338 51.6801C92.6205 56.1131 98.857 58.2947 105.363 56.5529Z" fill="#FEE1EC"/>
<path opacity="0.4314" d="M105.315 56.3487C111.673 54.6422 115.886 49.749 114.724 45.4195C113.562 41.0901 107.465 38.9638 101.107 40.6703C94.7484 42.3768 90.5357 47.27 91.6976 51.5995C92.8595 55.9289 98.956 58.0553 105.315 56.3487Z" fill="#FEDFEB"/>
<path opacity="0.451" d="M105.29 56.1496C111.501 54.4785 115.615 49.6976 114.478 45.4711C113.341 41.2446 107.384 39.1731 101.173 40.8441C94.9611 42.5152 90.8475 47.2961 91.9845 51.5226C93.1215 55.7491 99.0786 57.8206 105.29 56.1496Z" fill="#FEDEEA"/>
<path opacity="0.4706" d="M105.244 55.9785C111.307 54.343 115.32 49.6689 114.206 45.5385C113.092 41.4081 107.273 39.3855 101.21 41.021C95.146 42.6564 91.1335 47.3305 92.2475 51.4609C93.3614 55.5913 99.1801 57.6139 105.244 55.9785Z" fill="#FEDCE9"/>
<path opacity="0.4902" d="M105.212 55.7722C111.136 54.17 115.055 49.6067 113.965 45.5796C112.876 41.5526 107.191 39.5869 101.268 41.1891C95.3447 42.7913 91.426 47.3546 92.5152 51.3817C93.6044 55.4087 99.2892 57.3744 105.212 55.7722Z" fill="#FEDBE8"/>
<path opacity="0.5098" d="M105.164 55.5718C110.939 54.0051 114.759 49.5541 113.694 45.6304C112.63 41.7067 107.085 39.796 101.309 41.3628C95.5336 42.9296 91.7144 47.3805 92.7787 51.3042C93.8431 55.2279 99.388 57.1386 105.164 55.5718Z" fill="#FDD9E8"/>
<path opacity="0.5294" d="M105.118 55.3883C110.746 53.8572 114.466 49.5189 113.427 45.6984C112.388 41.878 106.983 40.0222 101.355 41.5533C95.7265 43.0844 92.0066 47.4228 93.0459 51.2432C94.0853 55.0636 99.4902 56.9195 105.118 55.3883Z" fill="#FDD8E7"/>
<path opacity="0.549" d="M105.093 55.1964C110.573 53.7005 114.192 49.4686 113.176 45.7441C112.159 42.0195 106.892 40.2129 101.412 41.7087C95.9312 43.2046 92.3123 47.4366 93.3289 51.1611C94.3454 54.8856 99.6123 56.6923 105.093 55.1964Z" fill="#FDD6E6"/>
<path opacity="0.5686" d="M105.052 54.9993C110.385 53.539 113.905 49.4195 112.913 45.7981C111.921 42.1768 106.794 40.425 101.461 41.8853C96.128 43.3457 92.6085 47.4652 93.6001 51.0865C94.5917 54.7079 99.7188 56.4597 105.052 54.9993Z" fill="#FDD5E5"/>
<path opacity="0.5882" d="M105.024 54.8073C110.209 53.3821 113.629 49.3748 112.663 45.8566C111.696 42.3384 106.708 40.6417 101.522 42.0668C96.3367 43.4919 92.9166 47.4993 93.8834 51.0174C94.8502 54.5356 99.8378 56.2324 105.024 54.8073Z" fill="#FDD3E4"/>
<path opacity="0.6078" d="M104.974 54.6065C110.012 53.2168 113.332 49.3222 112.391 45.9074C111.449 42.4927 106.601 40.8511 101.563 42.2407C96.5254 43.6303 93.2049 47.525 94.1468 50.9397C95.0887 54.3544 99.9362 55.9961 104.974 54.6065Z" fill="#FDD2E3"/>
<path opacity="0.6275" d="M104.924 54.4103C109.814 53.0565 113.035 49.2746 112.119 45.9633C111.202 42.652 106.494 41.0651 101.604 42.419C96.7142 43.7728 93.4931 47.5547 94.4099 50.866C95.3266 54.1773 100.034 55.7642 104.924 54.4103Z" fill="#FDD1E2"/>
<path opacity="0.6471" d="M104.903 54.239C109.645 52.9207 112.766 49.2452 111.872 46.0296C110.978 42.814 106.409 41.2759 101.666 42.5942C96.923 43.9125 93.8027 47.588 94.6964 50.8036C95.5901 54.0192 100.16 55.5573 104.903 54.239Z" fill="#FDCFE1"/>
<path opacity="0.6667" d="M104.859 54.0376C109.462 52.7527 112.489 49.188 111.62 46.0756C110.751 42.9633 106.315 41.4819 101.713 42.7669C97.1101 44.0518 94.0833 47.6166 94.9521 50.7289C95.821 53.8412 100.257 55.3226 104.859 54.0376Z" fill="#FDCEE0"/>
<path opacity="0.6863" d="M104.822 53.8264C109.276 52.5766 112.203 49.1244 111.359 46.1156C110.515 43.1068 106.22 41.6808 101.765 42.9305C97.3105 44.1803 94.3835 47.6325 95.2275 50.6413C96.0716 53.6501 100.367 55.0761 104.822 53.8264Z" fill="#FDCCDF"/>
<path opacity="0.7059" d="M104.781 53.6433C109.088 52.4292 111.916 49.0894 111.097 46.1838C110.278 43.2781 106.122 41.9068 101.815 43.121C97.5074 44.3351 94.6796 47.6748 95.4986 50.5805C96.3176 53.4862 100.473 54.8574 104.781 53.6433Z" fill="#FDCBDF"/>
<path opacity="0.7255" d="M104.738 53.4569C108.898 52.2783 111.625 49.0452 110.829 46.2357C110.033 43.4261 106.015 42.1039 101.856 43.2825C97.6962 44.4611 94.9695 47.6941 95.7656 50.5037C96.5616 53.3133 100.579 54.6355 104.738 53.4569Z" fill="#FDC9DE"/>
<path opacity="0.7451" d="M104.705 53.2523C108.717 52.1093 111.344 48.9888 110.573 46.2825C109.802 43.5762 105.925 42.3089 101.913 43.452C97.9008 44.5951 95.2735 47.7156 96.0445 50.4219C96.8156 53.1282 100.693 54.3954 104.705 53.2523Z" fill="#FDC8DD"/>
<path opacity="0.7647" d="M104.66 53.0677C108.524 51.9602 111.052 48.9521 110.306 46.349C109.56 43.746 105.823 42.5336 101.958 43.6411C98.0937 44.7486 95.5657 47.7567 96.3117 50.3598C97.0577 52.9629 100.795 54.1752 104.66 53.0677Z" fill="#FDC6DC"/>
<path opacity="0.7843" d="M104.638 52.8669C108.355 51.795 110.784 48.8994 110.063 46.3994C109.342 43.8994 105.744 42.7418 102.027 43.8137C98.3102 44.8857 95.8813 47.7813 96.6022 50.2812C97.3231 52.7812 100.921 53.9388 104.638 52.8669Z" fill="#FDC5DB"/>
<path opacity="0.8039" d="M104.592 52.6835C108.161 51.6473 110.489 48.8585 109.791 46.4545C109.093 44.0506 105.634 42.9418 102.065 43.978C98.4952 45.0142 96.1673 47.803 96.8651 50.207C97.563 52.611 101.022 53.7197 104.592 52.6835Z" fill="#FDC4DA"/>
<path opacity="0.8235" d="M104.543 52.4927C107.972 51.4899 110.207 48.812 109.534 46.5115C108.861 44.2109 105.536 43.1589 102.107 44.1618C98.6781 45.1646 96.4438 47.8425 97.1166 50.143C97.7894 52.4436 101.115 53.4956 104.543 52.4927Z" fill="#FDC2D9"/>
<path opacity="0.8431" d="M104.509 52.293C107.79 51.3259 109.925 48.7607 109.278 46.5635C108.63 44.3663 105.445 43.369 102.164 44.3361C98.8826 45.3032 96.7476 47.8684 97.3952 50.0656C98.0427 52.2628 101.228 53.2601 104.509 52.293Z" fill="#FCC1D8"/>
<path opacity="0.8627" d="M104.467 52.0963C107.601 51.1649 109.637 48.7123 109.014 46.6183C108.392 44.5242 105.347 43.5816 102.213 44.513C99.0795 45.4444 97.0436 47.897 97.6659 49.9911C98.2883 52.0852 101.333 53.0277 104.467 52.0963Z" fill="#FCBFD7"/>
<path opacity="0.8824" d="M104.428 51.9055C107.414 51.0098 109.349 48.6642 108.749 46.6663C108.15 44.6684 105.244 43.7749 102.258 44.6705C99.2721 45.5662 97.3374 47.9118 97.9366 49.9097C98.5359 51.9076 101.442 52.8011 104.428 51.9055Z" fill="#FCBED6"/>
<path opacity="0.902" d="M104.39 51.7164C107.228 50.8563 109.063 48.6233 108.489 46.7287C107.915 44.8341 105.149 43.9955 102.311 44.8555C99.4727 45.7156 97.6373 47.9487 98.2114 49.8433C98.7855 51.7379 101.552 52.5765 104.39 51.7164Z" fill="#FCBCD6"/>
<path opacity="0.9216" d="M108.227 46.7924C108.776 48.5778 107.032 50.7066 104.34 51.5306C101.649 52.3547 99.0255 51.5719 98.4761 49.7727C97.9268 47.9873 99.671 45.8585 102.363 45.0345C105.055 44.2104 107.691 44.9933 108.227 46.7924Z" fill="#FCBBD5"/>
<path opacity="0.9412" d="M107.967 46.8332C108.489 48.5225 106.854 50.5276 104.3 51.3242C101.759 52.107 99.2596 51.3791 98.7377 49.6898C98.2158 48.0006 99.8501 45.9954 102.405 45.1988C104.959 44.416 107.445 45.1439 107.967 46.8332Z" fill="#FCB9D4"/>
<path opacity="0.9608" d="M107.716 46.888C108.21 48.4812 106.672 50.3765 104.268 51.1318C101.865 51.8872 99.5165 51.2142 99.0221 49.6211C98.5277 48.0279 100.066 46.1326 102.469 45.3773C104.859 44.6219 107.207 45.3086 107.716 46.888Z" fill="#FCB8D3"/>
<path opacity="0.9804" d="M107.453 46.9437C107.92 48.427 106.478 50.2124 104.225 50.9403C101.973 51.6545 99.7618 51.0365 99.2948 49.5532C98.8279 48.0699 100.27 46.2845 102.522 45.5566C104.761 44.8424 106.972 45.4605 107.453 46.9437Z" fill="#FCB6D2"/>
<path d="M102.567 45.7353C104.668 45.0486 106.742 45.6254 107.195 47.0126C107.648 48.3997 106.302 50.0752 104.201 50.7619C102.1 51.4486 100.026 50.8718 99.5728 49.4847C99.1196 48.0975 100.452 46.4083 102.567 45.7353Z" fill="#FCB5D1"/>
<path d="M117.756 40.1823C117.962 40.2235 118.154 40.0999 118.209 39.9076C118.251 39.7016 118.127 39.5093 117.935 39.4544C108.98 37.3805 101.289 42.7642 101.221 42.8192C101.056 42.9428 101.015 43.1763 101.138 43.3411C101.207 43.4372 101.331 43.4922 101.44 43.4922C101.509 43.4922 101.591 43.4647 101.66 43.4235C101.715 43.3823 109.131 38.1771 117.756 40.1823Z" fill="black"/>
<path d="M118.954 50.9642C111.771 45.2371 102.501 46.7891 102.419 46.8028C102.213 46.844 102.075 47.0363 102.117 47.2423C102.158 47.4483 102.35 47.5856 102.556 47.5444C102.652 47.5307 111.579 46.0337 118.501 51.5548C118.57 51.6097 118.652 51.6372 118.735 51.6372C118.844 51.6372 118.954 51.5822 119.023 51.4998C119.147 51.335 119.119 51.1016 118.954 50.9642Z" fill="black"/>
<path d="M115.84 44.8379C109.123 41.6422 102.097 44.5708 102.035 44.5968C101.88 44.6672 101.807 44.8441 101.878 44.999C101.948 45.1538 102.125 45.2268 102.28 45.1564C102.353 45.1279 109.118 42.3058 115.592 45.3869C115.656 45.4176 115.726 45.4242 115.791 45.409C115.878 45.3888 115.954 45.3253 115.993 45.2477C116.06 45.095 115.996 44.9159 115.84 44.8379Z" fill="black"/>
<path d="M57.6233 58.5856C57.8174 58.6368 58.0115 58.5216 58.0632 58.3425C58.115 58.1505 57.9986 57.9585 57.8174 57.9073C57.7268 57.8817 49.1874 55.6292 41.9419 60.3262C41.7737 60.4286 41.7348 60.6462 41.8383 60.8126C41.903 60.915 42.0195 60.9662 42.1359 60.9662C42.2006 60.9662 42.2653 60.9534 42.33 60.915C49.2909 56.3971 57.5328 58.56 57.6233 58.5856Z" fill="black"/>
<path d="M57.3937 60.4137C57.5606 60.4264 57.6933 60.2847 57.698 60.1092C57.7 59.9218 57.5666 59.7646 57.41 59.7496C57.3318 59.7421 49.9852 59.1839 45.1159 64.8406C45.0015 64.9658 45.0152 65.1746 45.1329 65.3104C45.2062 65.3938 45.3106 65.4204 45.4044 65.3995C45.4566 65.3879 45.5061 65.3644 45.5503 65.3172C50.2271 59.8777 57.3154 60.4062 57.3937 60.4137Z" fill="black"/>
<path d="M58.1513 61.8132C58.0551 61.827 48.8261 63.5574 44.0605 71.4133C43.9506 71.5918 44.0055 71.8253 44.1841 71.9352C44.239 71.9764 44.3077 71.9901 44.3763 71.9901C44.5 71.9901 44.6236 71.9215 44.6922 71.8116C49.2793 64.2441 58.1925 62.5686 58.2749 62.5549C58.4809 62.5137 58.6182 62.3214 58.577 62.1154C58.5496 61.9094 58.3573 61.772 58.1513 61.8132Z" fill="black"/>
<path d="M70.0493 48.0252C71.3815 53.4364 68.4837 55.9909 64.391 57.0073C60.2846 58.0236 56.5353 57.1171 55.1894 51.7059C53.8572 46.2947 56.0958 41.0895 60.1885 40.0732C64.3086 39.0569 68.7171 42.614 70.0493 48.0252Z" fill="black"/>
<path d="M63.7477 51.5242C65.6092 50.8968 66.5232 48.6226 65.7892 46.4447C65.0551 44.2669 62.951 43.0101 61.0894 43.6375C59.2278 44.265 58.3138 46.5392 59.0479 48.717C59.7819 50.8949 61.8861 52.1517 63.7477 51.5242Z" fill="white"/>
<path d="M61.8175 53.4662C62.051 54.1392 61.7351 54.8533 61.1308 55.0594C60.5265 55.2654 59.8536 54.8808 59.6201 54.2078C59.3866 53.5349 59.7025 52.8207 60.3068 52.6147C60.9111 52.4087 61.584 52.7932 61.8175 53.4662Z" fill="white"/>
<path d="M98.6977 40.652C100.03 46.0632 97.1321 48.6177 93.0394 49.634C88.9331 50.6504 85.1838 49.7439 83.8378 44.3327C82.5057 38.9215 84.7443 33.7163 88.8369 32.7C92.957 31.6699 97.3656 35.2408 98.6977 40.652Z" fill="black"/>
<path d="M92.7125 44.283C94.574 43.6556 95.4881 41.3814 94.754 39.2035C94.02 37.0257 91.9158 35.7689 90.0542 36.3963C88.1927 37.0238 87.2787 39.298 88.0127 41.4758C88.7468 43.6537 90.8509 44.9105 92.7125 44.283Z" fill="white"/>
<path d="M91.496 48.577C92.0997 48.3735 92.4046 47.6608 92.1768 46.9852C91.9491 46.3095 91.2751 45.9268 90.6713 46.1303C90.0676 46.3338 89.7627 47.0465 89.9905 47.7221C90.2182 48.3978 90.8922 48.7805 91.496 48.577Z" fill="white"/>
<path d="M85.9369 52.7496C85.676 52.6397 85.3601 52.7633 85.2503 53.0243C84.0829 55.7848 81.1439 55.1393 79.9353 54.741C79.743 54.6724 79.5508 54.7273 79.4134 54.8509C79.2761 54.8646 79.1525 54.9196 79.0701 55.0294C76.3645 58.2157 74.071 56.4578 73.9749 56.3891C73.7551 56.2106 73.4255 56.238 73.2332 56.4715C73.0547 56.6913 73.0822 57.0209 73.3156 57.2132C73.3294 57.2269 74.3045 57.996 75.7465 57.996C76.8864 57.996 78.3147 57.5153 79.798 55.8123C80.3061 55.9634 81.1439 56.1694 82.064 56.1694C83.5747 56.1694 85.3189 55.62 86.2391 53.45C86.3352 53.1616 86.2116 52.8595 85.9369 52.7496Z" fill="black"/>
<path d="M81.1424 51.8716C81.4446 52.9703 80.648 54.1514 79.3708 54.4948C78.0935 54.8381 76.8163 54.2338 76.5142 53.1351C76.212 52.0364 80.8403 50.7729 81.1424 51.8716Z" fill="black"/>
</svg>
