<svg width="167" height="185" viewBox="0 0 167 185" fill="none" xmlns="http://www.w3.org/2000/svg">
<g clip-path="url(#clip0_1634_537)">
<path d="M5.008 178.451V156.051H15.504C18.192 156.051 20.24 156.585 21.648 157.651C23.056 158.697 23.76 160.105 23.76 161.875C23.76 163.07 23.4827 164.094 22.928 164.947C22.3733 165.779 21.6267 166.43 20.688 166.899C19.7707 167.347 18.768 167.571 17.68 167.571L18.256 166.419C19.5147 166.419 20.6453 166.654 21.648 167.123C22.6507 167.571 23.44 168.233 24.016 169.107C24.6133 169.982 24.912 171.07 24.912 172.371C24.912 174.291 24.176 175.785 22.704 176.851C21.232 177.918 19.0453 178.451 16.144 178.451H5.008ZM9.168 175.187H15.888C17.4453 175.187 18.64 174.931 19.472 174.419C20.304 173.907 20.72 173.086 20.72 171.955C20.72 170.846 20.304 170.035 19.472 169.523C18.64 168.99 17.4453 168.723 15.888 168.723H8.848V165.491H15.056C16.5067 165.491 17.616 165.235 18.384 164.723C19.1733 164.211 19.568 163.443 19.568 162.419C19.568 161.374 19.1733 160.595 18.384 160.083C17.616 159.571 16.5067 159.315 15.056 159.315H9.168V175.187ZM39.4958 178.451V174.995L39.2718 174.259V168.211C39.2718 167.038 38.9198 166.131 38.2158 165.491C37.5118 164.83 36.4451 164.499 35.0158 164.499C34.0558 164.499 33.1064 164.649 32.1678 164.947C31.2504 165.246 30.4718 165.662 29.8318 166.195L28.2638 163.283C29.1811 162.579 30.2691 162.057 31.5278 161.715C32.8078 161.353 34.1304 161.171 35.4958 161.171C37.9704 161.171 39.8798 161.769 41.2238 162.963C42.5891 164.137 43.2718 165.961 43.2718 168.435V178.451H39.4958ZM34.1198 178.675C32.8398 178.675 31.7198 178.462 30.7598 178.035C29.7998 177.587 29.0531 176.979 28.5198 176.211C28.0078 175.422 27.7518 174.537 27.7518 173.555C27.7518 172.595 27.9758 171.731 28.4238 170.963C28.8931 170.195 29.6504 169.587 30.6958 169.139C31.7411 168.691 33.1278 168.467 34.8558 168.467H39.8158V171.123H35.1438C33.7784 171.123 32.8611 171.347 32.3918 171.795C31.9224 172.222 31.6878 172.755 31.6878 173.395C31.6878 174.121 31.9758 174.697 32.5518 175.123C33.1278 175.55 33.9278 175.763 34.9518 175.763C35.9331 175.763 36.8078 175.539 37.5758 175.091C38.3651 174.643 38.9304 173.982 39.2718 173.107L39.9438 175.507C39.5598 176.51 38.8664 177.289 37.8638 177.843C36.8824 178.398 35.6344 178.675 34.1198 178.675ZM58.1013 161.171C59.4666 161.171 60.6826 161.438 61.7493 161.971C62.8373 162.505 63.6906 163.326 64.3093 164.435C64.9279 165.523 65.2373 166.931 65.2373 168.659V178.451H61.2373V169.171C61.2373 167.657 60.8746 166.526 60.1493 165.779C59.4453 165.033 58.4533 164.659 57.1733 164.659C56.2346 164.659 55.4026 164.851 54.6773 165.235C53.9519 165.619 53.3866 166.195 52.9813 166.963C52.5973 167.71 52.4053 168.659 52.4053 169.811V178.451H48.4053V161.363H52.2133V165.971L51.5413 164.563C52.1386 163.475 53.0026 162.643 54.1333 162.067C55.2853 161.47 56.6079 161.171 58.1013 161.171ZM78.0228 178.675C76.2734 178.675 74.7161 178.302 73.3508 177.555C71.9854 176.787 70.9081 175.742 70.1188 174.419C69.3294 173.097 68.9348 171.593 68.9348 169.907C68.9348 168.201 69.3294 166.697 70.1188 165.395C70.9081 164.073 71.9854 163.038 73.3508 162.291C74.7161 161.545 76.2734 161.171 78.0228 161.171C79.7934 161.171 81.3614 161.545 82.7268 162.291C84.1134 163.038 85.1908 164.062 85.9588 165.363C86.7481 166.665 87.1428 168.179 87.1428 169.907C87.1428 171.593 86.7481 173.097 85.9588 174.419C85.1908 175.742 84.1134 176.787 82.7268 177.555C81.3614 178.302 79.7934 178.675 78.0228 178.675ZM78.0228 175.251C79.0041 175.251 79.8788 175.038 80.6468 174.611C81.4148 174.185 82.0121 173.566 82.4388 172.755C82.8868 171.945 83.1108 170.995 83.1108 169.907C83.1108 168.798 82.8868 167.849 82.4388 167.059C82.0121 166.249 81.4148 165.63 80.6468 165.203C79.8788 164.777 79.0148 164.563 78.0548 164.563C77.0734 164.563 76.1988 164.777 75.4308 165.203C74.6841 165.63 74.0868 166.249 73.6388 167.059C73.1908 167.849 72.9668 168.798 72.9668 169.907C72.9668 170.995 73.1908 171.945 73.6388 172.755C74.0868 173.566 74.6841 174.185 75.4308 174.611C76.1988 175.038 77.0628 175.251 78.0228 175.251Z" fill="white"/>
<path d="M100.196 178.451V156.051H104.356V174.931H116.068V178.451H100.196ZM118.968 178.451V161.363H122.968V178.451H118.968ZM120.984 158.547C120.237 158.547 119.618 158.313 119.128 157.843C118.658 157.374 118.424 156.809 118.424 156.147C118.424 155.465 118.658 154.899 119.128 154.451C119.618 153.982 120.237 153.747 120.984 153.747C121.73 153.747 122.338 153.971 122.808 154.419C123.298 154.846 123.544 155.39 123.544 156.051C123.544 156.755 123.309 157.353 122.84 157.843C122.37 158.313 121.752 158.547 120.984 158.547ZM132.762 178.451L125.434 161.363H129.594L135.898 176.435H133.85L140.378 161.363H144.218L136.89 178.451H132.762ZM154.281 178.675C152.382 178.675 150.718 178.302 149.289 177.555C147.881 176.787 146.782 175.742 145.993 174.419C145.225 173.097 144.841 171.593 144.841 169.907C144.841 168.201 145.214 166.697 145.961 165.395C146.729 164.073 147.774 163.038 149.097 162.291C150.441 161.545 151.966 161.171 153.673 161.171C155.337 161.171 156.82 161.534 158.121 162.259C159.422 162.985 160.446 164.009 161.193 165.331C161.94 166.654 162.313 168.211 162.313 170.003C162.313 170.174 162.302 170.366 162.281 170.579C162.281 170.793 162.27 170.995 162.249 171.187H148.009V168.531H160.137L158.569 169.363C158.59 168.382 158.388 167.518 157.961 166.771C157.534 166.025 156.948 165.438 156.201 165.011C155.476 164.585 154.633 164.371 153.673 164.371C152.692 164.371 151.828 164.585 151.081 165.011C150.356 165.438 149.78 166.035 149.353 166.803C148.948 167.55 148.745 168.435 148.745 169.459V170.099C148.745 171.123 148.98 172.03 149.449 172.819C149.918 173.609 150.58 174.217 151.433 174.643C152.286 175.07 153.268 175.283 154.377 175.283C155.337 175.283 156.201 175.134 156.969 174.835C157.737 174.537 158.42 174.067 159.017 173.427L161.161 175.891C160.393 176.787 159.422 177.481 158.249 177.971C157.097 178.441 155.774 178.675 154.281 178.675Z" fill="#ED2D21"/>
<path d="M40.2445 27.3462L39.7363 28.3213C39.5303 28.6509 39.338 29.008 39.1595 29.3651C38.4591 29.1316 34.2016 27.8543 32.7733 30.1067C32.7733 30.1067 31.6746 31.796 33.4188 35.0372C33.4188 35.0372 33.4325 35.6278 32.4162 36.2046C31.4 36.7815 32.0317 39.9677 36.5089 40.0364L36.4677 43.3188V43.4974C34.49 43.0579 29.8343 36.5205 29.8343 36.5205C27.4721 31.8784 28.6395 27.305 28.9828 26.1788C29.0378 26.0002 29.079 25.9041 29.079 25.9041C33.9407 24.5582 39.7775 27.0303 39.7775 27.0303L40.2445 27.3462Z" fill="#FCB5D1"/>
<path d="M113.884 18.2269C113.884 18.2544 113.884 18.2818 113.884 18.3093C113.884 18.3231 113.884 18.3368 113.884 18.3505C113.843 18.6939 113.555 21.2209 112.827 23.9952C112.662 24.6132 112.483 25.245 112.264 25.863C112.264 25.8768 112.264 25.8768 112.264 25.8768C111.934 26.8656 111.536 27.8133 111.082 28.6785C111.082 28.6785 109.434 26.948 108.363 25.1351C108.02 24.4622 107.786 23.954 107.786 23.954C111.371 21.9763 111.261 20.1359 111.179 18.6939C111.096 17.2518 108.432 17.4441 108.432 17.4441C108.432 17.4441 108.501 13.5299 106.262 11.7307C104.023 9.93156 99.1891 14.4638 99.1891 14.4638L98.7084 14.1616C97.9805 13.6397 97.2938 13.2003 96.6758 12.8844C96.7307 12.7196 98.42 7.76159 106.619 7.22596C106.633 7.22596 106.633 7.22596 106.646 7.22596C107.69 7.15729 108.844 7.15729 110.121 7.26716C110.217 7.39077 111.646 9.13499 112.731 11.7445C112.731 11.7582 112.744 11.7857 112.744 11.7994C113.197 12.8844 113.568 14.1067 113.774 15.4252V15.4389V15.4526C113.898 16.3454 113.953 17.2655 113.884 18.2269Z" fill="#FCB5D1"/>
<path d="M145.012 86.7858C137.115 84.1077 134.78 80.5094 134.78 80.5094C134.78 80.5094 138.021 77.8312 137.952 75.5651C137.952 75.5651 133.228 76.4029 131.539 76.0184C130.907 75.8673 129.245 75.2218 127.281 74.2879C124.04 72.7497 119.934 70.4561 118.066 68.3822L119.261 60.6912C119.261 60.6912 122.914 54.868 122.667 50.1572C122.667 50.1572 122.639 49.5117 122.955 48.9761C123.038 48.825 123.161 48.6739 123.326 48.564C123.326 48.564 119.934 47.4791 120.909 47.1769C121.898 46.8748 122.818 46.9434 123.038 46.2293L121.28 44.1142L120.511 41.7932C120.511 41.7932 119.879 39.2249 119.302 38.3459C118.725 37.4807 114.646 34.0472 113.026 32.4266C111.405 30.806 110.883 29.6248 110.883 29.6248L110.403 28.8695C109.908 28.3613 107.779 23.9664 107.779 23.9664C111.378 21.9887 111.254 20.1484 111.172 18.7063C111.089 17.2642 108.425 17.4565 108.425 17.4565C108.425 17.4565 108.494 13.5423 106.255 11.7431C104.016 9.94399 99.1821 14.4762 99.1821 14.4762L96.6688 12.8968C100.198 5.96112 110.114 7.26585 110.114 7.26585C110.114 7.26585 112.655 9.76544 113.781 15.4239C114.77 20.423 111.639 27.3725 111.089 28.6909C111.79 27.084 113.548 23.7879 113.946 17.6762C114.358 11.1938 111.034 6.07099 111.034 6.07099C111.034 6.07099 100.267 1.26409 88.0578 8.84526L87.2612 9.05128C87.2612 9.05128 65.8229 4.47785 51.7046 14.5174L47.0351 18.2943C47.0351 18.2943 33.3975 16.3852 26.874 24.6806C26.874 24.6806 26.6405 29.8995 28.7281 34.2669C28.7281 34.2669 27.4508 26.7132 29.3873 25.9304C31.3375 25.1475 38.1082 25.8068 39.8112 27.3587L40.2781 27.3725L39.303 29.4326C39.303 29.4326 34.3864 27.6883 32.8207 30.1467C32.8207 30.1467 31.722 31.836 33.4662 35.0635C33.4662 35.0635 33.4799 35.6541 32.4636 36.2309C31.4473 36.8077 32.0791 39.994 36.5563 40.0627L36.5151 43.5099L36.5014 44.1829C36.5014 44.1829 36.0756 51.1323 34.1254 52.8353C34.1254 52.8353 34.7846 53.7006 35.8147 53.8654C35.8147 53.8654 34.1941 55.7744 33.219 57.9719L32.9169 58.8096C32.9169 58.8096 16.5325 58.2328 10.6545 80.5506C10.6545 80.5506 9.08883 86.7996 9.76178 90.8099C9.76178 90.8099 9.95406 99.6271 13.0441 106.714C13.0441 106.714 13.8544 109.049 11.6845 108.843C11.6845 108.843 18.1394 116.918 23.1247 118.608C28.1101 120.297 29.1538 120.613 29.1538 120.613C29.1538 120.613 34.4688 126.697 43.2034 127.287C43.2034 127.287 42.3657 127.603 43.3957 128.263C44.4257 128.908 52.8857 135.198 61.895 130.213C61.895 130.213 65.6855 127.439 63.1311 120.984C63.1311 120.984 62.9525 120.832 63.7354 119.487C64.1474 118.772 64.065 117.729 64.2572 118.525L65.4795 120.173L66.0701 123.167L68.1851 129.196C68.1851 129.196 74.2279 133.77 82.0287 128.894L84.0201 122.165L84.8166 122.481C84.8166 122.481 85.4896 128.881 85.8467 129.265C86.2037 129.65 91.5187 132.177 96.6963 129.979C96.6963 129.979 98.2894 129.457 99.0448 127.315C99.8001 125.186 101.215 121.409 101.215 121.409C101.215 121.409 114.523 123.511 124.095 120.132C129.616 118.182 138.09 116.122 149.42 101.22C149.42 101.22 155.957 91.7575 156.548 88.3927C156.562 88.324 152.922 89.4502 145.012 86.7858Z" fill="white"/>
<g opacity="0.6">
<path opacity="0.6" d="M116.857 77.9562C117.997 71.6386 115.648 64.0849 117.804 62.5879C122.076 59.6076 120.51 50.1998 120.51 50.1998C121.128 50.1448 122.048 49.0187 123.325 48.5654C123.009 49.1011 122.872 51.1474 122.872 51.1474C123.119 55.8582 119.645 60.8436 119.645 60.8436L118.107 68.9192C117.791 70.7184 118.326 75.7588 118.326 75.7588C118.326 75.7588 119.178 77.915 119.7 79.7279C120.222 81.5408 118.985 82.7631 118.985 82.7631C118.985 82.7631 119.384 84.9743 119.796 87.8859C120.208 90.7975 117.969 95.1787 117.969 95.1787C114.412 98.2826 116.143 101.359 116.143 101.359C115.264 102.004 115.071 104.12 115.071 104.12C115.113 106.317 113.533 108.542 111.926 109.97C110.319 111.399 111.047 113.596 109.207 116.59C107.847 118.801 107.243 118.801 107.243 118.801L104.181 118.829C102.629 121.589 100.527 121.603 100.527 121.603C103.041 120.82 105.018 117.03 105.513 114.571C105.677 113.692 106.556 112.964 107.449 113.047C110.635 113.308 109.921 108.102 113.204 104.696C115.58 102.238 113.89 98.7633 112.847 97.0191C112.531 96.4834 112.805 95.783 113.41 95.6182C114.11 95.4259 115.154 95.0826 116.294 94.0525C121.444 89.4104 118.683 79.7279 115.744 78.7665C115.593 78.7116 115.552 78.5331 115.662 78.4232C115.854 78.2034 116.225 77.9562 116.829 78.0249L116.857 77.9562Z" fill="#DBD2D2"/>
<path opacity="0.6" d="M41.9948 78.3832C40.3193 77.5454 35.4576 79.6742 31.4336 83.1901C31.4336 83.1901 32.0516 81.1849 37.5863 77.6553C38.3417 77.1746 39.921 77.0373 40.8275 76.4879C40.8275 76.4879 37.1468 73.6587 37.1194 64.6904C37.1194 64.6904 36.5563 62.7402 37.9159 63.3032C37.9159 63.3032 38.479 74.8398 43.794 78.1223C43.8077 78.136 44.206 79.4819 41.9948 78.3832Z" fill="#DBD2D2"/>
<path opacity="0.6" d="M148.54 88.2695C148.54 88.2695 153.031 88.8738 151.644 92.6782C150.257 96.4825 144.393 106.714 139.641 108.115C139.641 108.115 138.13 108.719 137.018 108.774C136.592 108.802 136.345 109.283 136.592 109.64C136.839 109.997 137.224 110.395 137.842 110.642C137.842 110.642 132.678 117.935 121.155 118.814C111.322 119.556 108.699 117.441 108.699 117.441C108.699 117.441 106.859 119.212 103.92 118.814C103.92 118.814 103.041 120.902 101.406 121.382C101.406 121.382 119.027 126.107 136.647 114.447L143.761 108.129L149.172 102.1C149.172 102.1 156.739 90.9202 156.492 88.4343C156.465 88.4343 151.823 89.1348 148.54 88.2695Z" fill="#DBD2D2"/>
</g>
<path d="M34.4809 64.7433C35.4422 63.3699 36.9392 63.0677 36.9667 63.0677C37.2551 63.0128 37.4473 62.7381 37.3924 62.4635C37.3375 62.175 37.0765 61.9828 36.7881 62.0377C36.7057 62.0514 34.8517 62.3948 33.6294 64.1527C33.4646 64.3862 33.5195 64.7158 33.7667 64.8806C33.8628 64.9493 33.959 64.9768 34.0688 64.9768C34.2199 64.9768 34.3847 64.8944 34.4809 64.7433Z" fill="black"/>
<path d="M118.737 49.3892C118.449 49.3754 118.202 49.5952 118.188 49.8836C118.174 50.172 118.394 50.4192 118.683 50.4329C118.696 50.4329 118.751 50.4329 118.847 50.4329C119.465 50.4329 121.676 50.3368 123.805 49.0321C124.052 48.881 124.135 48.5514 123.984 48.3042C123.833 48.057 123.503 47.9746 123.256 48.1256C121.1 49.4716 118.765 49.3754 118.737 49.3892Z" fill="black"/>
<path d="M33.6029 81.6655C33.8227 81.4732 33.8364 81.1436 33.6441 80.9238C33.4519 80.7041 33.1223 80.6904 32.9025 80.8826C31.2682 82.3659 25.8022 88.0793 24.0717 99.7532C24.0168 100.206 22.8632 110.754 25.6511 115.712C25.7472 115.877 25.9258 115.987 26.1043 115.987C26.1867 115.987 26.2829 115.959 26.3653 115.918C26.6125 115.781 26.7086 115.451 26.5713 115.204C23.9481 110.534 25.1155 99.9867 25.1155 99.8905C26.7773 88.5874 32.0373 83.0938 33.6029 81.6655Z" fill="black"/>
<path d="M36.7336 78.6582C36.8709 78.6582 37.0083 78.6033 37.1044 78.5071C37.1181 78.4934 38.107 77.532 40.2906 77.2985C40.428 77.2848 40.5516 77.2161 40.634 77.1063C41.1009 77.7243 41.6091 78.3423 42.1721 78.9741C42.282 79.0839 42.4194 79.1526 42.5567 79.1526C42.6803 79.1526 42.8039 79.1114 42.9138 79.0153C43.1335 78.823 43.1472 78.4934 42.955 78.2736C35.8958 70.4315 37.9284 64.0177 37.9559 63.9491C38.052 63.6744 37.901 63.3722 37.6263 63.2761C37.3516 63.18 37.0495 63.331 36.9533 63.6057C36.8709 63.8529 35.1267 69.2229 40.016 76.2685C37.5164 76.5706 36.3765 77.7243 36.3353 77.7655C36.1293 77.9715 36.143 78.3011 36.349 78.5071C36.4589 78.617 36.5962 78.6582 36.7336 78.6582Z" fill="black"/>
<path d="M35.4031 80.8822C35.5129 81.0195 35.664 81.0882 35.8151 81.0882C35.925 81.0882 36.0348 81.047 36.131 80.9783C36.3644 80.7998 36.4056 80.4702 36.2271 80.2367C35.2108 78.932 33.3705 78.8633 33.3018 78.8633C32.9997 78.8633 32.7662 79.083 32.7662 79.3714C32.7525 79.6599 32.9859 79.9071 33.2743 79.9071C33.2881 79.9208 34.7027 79.9757 35.4031 80.8822Z" fill="black"/>
<path d="M10.7352 81.6236C10.7764 81.6373 10.8176 81.6373 10.8588 81.6373C11.0923 81.6373 11.312 81.4725 11.367 81.2253C11.7103 79.7283 12.1773 78.2725 12.7266 76.8854C17.3411 65.39 23.0818 60.1436 31.9676 59.3333C32.256 59.3058 32.4757 59.0449 32.4483 58.7564C32.4208 58.468 32.1736 58.2483 31.8714 58.2758C22.5462 59.1273 16.5309 64.5659 11.7515 76.4871C11.1747 77.9154 10.7078 79.4261 10.3507 80.9781C10.282 81.2802 10.4605 81.5549 10.7352 81.6236Z" fill="black"/>
<path d="M10.1185 85.7015C9.8301 85.6741 9.5829 85.8938 9.55543 86.1822C8.649 97.7737 13.2635 108.239 13.3185 108.335C13.4009 108.527 13.5931 108.651 13.7992 108.651C13.8678 108.651 13.9502 108.637 14.0189 108.61C14.2798 108.486 14.4034 108.184 14.2798 107.909C14.2386 107.813 9.72023 97.5815 10.6129 86.2646C10.6267 85.9762 10.4069 85.7153 10.1185 85.7015Z" fill="black"/>
<path d="M146.552 104.367C145.989 105.04 145.412 105.7 144.835 106.331C144.643 106.551 144.657 106.881 144.863 107.073C144.959 107.169 145.096 107.21 145.22 107.21C145.357 107.21 145.508 107.155 145.604 107.045C146.195 106.4 146.772 105.727 147.349 105.04C147.541 104.821 147.5 104.491 147.28 104.299C147.074 104.106 146.744 104.148 146.552 104.367Z" fill="black"/>
<path d="M156.751 88.2151C156.49 87.8854 156.091 87.7069 155.666 87.7618C147.343 88.8193 139.309 83.5592 135.56 80.6064C137.249 79.4802 138.196 77.5437 138.65 76.4175C138.787 76.0742 138.718 75.7034 138.485 75.4149C138.251 75.1265 137.881 74.9892 137.523 75.0579C135.436 75.4287 134.076 75.621 133.046 75.7034C123.611 73.1214 118.914 68.3557 118.873 68.3007C118.832 68.2458 118.777 68.2183 118.708 68.1909C119.148 64.1668 120.178 60.9393 120.205 60.8844C120.246 60.7745 120.233 60.6646 120.205 60.5685C121.634 58.2474 123.309 54.6079 123.405 50.1993C123.405 49.9109 123.185 49.6637 122.897 49.6637C122.609 49.6499 122.361 49.8834 122.361 50.1718C122.197 57.341 117.472 62.5599 117.431 62.6011C117.239 62.8209 117.252 63.1505 117.458 63.3427C117.555 63.4389 117.692 63.4801 117.816 63.4801C117.953 63.4801 118.104 63.4251 118.2 63.3153C118.228 63.2878 118.365 63.1367 118.585 62.8758C117.678 66.6664 116.387 74.2613 119.052 79.5626C119.107 79.7 119.45 80.6751 119.216 81.5128C119.01 80.8399 118.846 80.4141 118.818 80.3455C118.708 80.0708 118.406 79.9472 118.131 80.057C117.857 80.1669 117.733 80.4691 117.843 80.7437C117.884 80.8399 121.373 89.8082 117.005 95.4941C116.744 95.7688 115.069 97.6091 115.467 100.068C115.33 99.1061 115.151 98.4744 115.124 98.392C115.041 98.1173 114.753 97.9525 114.478 98.0349C114.204 98.1173 114.039 98.4057 114.121 98.6804C114.135 98.749 116.058 105.602 111.951 109.201L110.839 110.437C110.784 110.492 109.493 111.961 109.177 115.189C109.177 115.202 108.902 116.85 107.611 117.743C106.884 118.238 105.963 118.402 104.851 118.224C105.867 116.219 106.183 114.268 106.197 114.117C106.238 113.829 106.046 113.568 105.757 113.513C105.469 113.472 105.208 113.664 105.153 113.953C105.139 114.008 104.205 119.831 100.36 121.342C100.168 121.41 100.058 121.589 100.03 121.767C99.8793 121.657 99.687 121.63 99.5085 121.699C99.2338 121.822 99.1926 121.822 99.1377 121.836C99.0553 121.85 98.9317 121.863 98.6707 121.932C98.3961 122.014 98.2313 122.303 98.2999 122.578C98.3686 122.811 98.5746 122.962 98.8081 122.962C98.8493 122.962 98.9042 122.962 98.9454 122.948C99.1377 122.893 99.2201 122.88 99.275 122.88C99.4536 122.852 99.5634 122.825 99.9205 122.674C100.099 122.591 100.209 122.426 100.236 122.248C100.333 122.317 100.429 122.358 100.552 122.358C100.566 122.358 100.58 122.358 100.593 122.344C99.7557 124.899 98.4785 128.236 97.6544 128.881C96.13 130.09 91.7215 130.969 87.4366 129.486C86.7911 129.266 86.3241 128.689 86.228 128.016L85.6374 123.264C87.0245 123.786 88.6177 124.116 90.6777 124.116C92.4768 124.116 94.6468 123.869 97.366 123.292C97.6545 123.237 97.833 122.948 97.7781 122.674C97.7231 122.385 97.4347 122.207 97.16 122.262C91.0897 123.539 88.0134 123.168 85.4452 122.042C85.3353 121.863 85.143 121.754 84.9233 121.781H84.9095C84.8958 121.767 84.8821 121.767 84.8683 121.754C85.7198 117.812 86.4202 113.678 86.5713 112.785C88.5352 110.45 88.5353 108.198 88.5353 108.088C88.5353 107.8 88.3018 107.566 88.0134 107.566C88.0134 107.566 88.0134 107.566 87.9996 107.566C87.7112 107.566 87.4778 107.814 87.4778 108.102C87.4778 108.129 87.4778 110.093 85.7198 112.153C85.6786 112.181 85.6512 112.222 85.6237 112.263C85.2117 112.73 84.7035 113.211 84.0855 113.664C80.8032 116.095 81.998 119.666 83.083 121.218C83.1791 121.369 83.3439 121.438 83.5087 121.438C83.6186 121.438 83.7147 121.41 83.8108 121.342C83.8383 121.328 83.852 121.287 83.8795 121.273C83.1654 124.596 82.3825 127.673 81.7783 128.593C81.2838 129.335 79.5259 129.994 77.1774 130.282C73.8402 130.708 70.4342 130.31 69.4316 129.39C68.9372 128.936 67.9072 127.261 66.3965 121.053C67.3853 121.451 68.5801 121.657 70.0222 121.657C70.0359 121.657 70.0634 121.657 70.0771 121.657C70.3655 121.657 70.599 121.424 70.599 121.135C70.599 120.847 70.3655 120.614 70.0771 120.614C70.0634 120.614 70.0359 120.614 70.0222 120.614C67.811 120.614 66.2317 120.119 65.339 119.144C65.0918 118.883 64.927 118.608 64.8171 118.361C66.6162 113.966 65.9707 108.569 62.8806 102.306C62.757 102.045 62.4411 101.935 62.1802 102.073C61.9193 102.196 61.8094 102.512 61.9467 102.773C64.5836 108.116 65.3664 112.771 64.3089 116.631C64.2403 116.59 64.1716 116.576 64.1029 116.562C63.8145 116.535 63.5536 116.741 63.5261 117.029C63.5261 117.07 63.4712 117.62 63.6909 118.334C61.3974 123.415 56.1236 125.132 56.0687 125.146C55.794 125.228 55.643 125.53 55.7254 125.805C55.794 126.025 56 126.176 56.2335 126.176C56.2884 126.176 56.3434 126.162 56.3846 126.148C56.5768 126.093 60.1339 124.954 62.8257 121.699L63.0866 122.578C63.7733 125.036 63.6772 127.014 62.7982 128.456C61.7819 130.118 60.0103 130.488 59.9691 130.488C51.7288 132.507 46.0019 129.678 43.4474 127.961C45.013 128.112 46.6886 128.112 48.5014 127.948C49.2018 128.057 50.9186 128.456 51.4816 129.184L51.6327 129.39H51.8936C52.0035 129.39 52.855 129.362 53.3906 128.662C53.8164 128.099 53.8713 127.302 53.5554 126.299C53.473 126.025 53.1709 125.86 52.8962 125.956C52.6215 126.039 52.4567 126.341 52.5529 126.615C52.7589 127.275 52.7589 127.769 52.5529 128.044C52.4293 128.209 52.2507 128.291 52.0996 128.318C51.0422 127.288 48.8448 126.945 48.5838 126.904L48.5151 126.89H48.4465C34.2321 128.291 28.2579 118.128 28.203 118.018C28.0656 117.771 27.736 117.675 27.4888 117.826C27.2416 117.963 27.1455 118.293 27.2965 118.54C27.3103 118.567 27.5712 118.993 28.0793 119.666C24.1515 118.595 19.2211 116.48 15.7602 112.359C10.5551 106.152 9.47014 106.179 9.09933 106.179C8.89332 106.179 8.70105 106.262 8.59118 106.413C8.41264 106.646 8.45384 106.976 8.68732 107.154C8.82465 107.264 9.00319 107.292 9.15426 107.25C9.42894 107.347 10.7474 108.02 14.9636 113.046C18.9876 117.839 24.8657 120.023 29.0819 121.012C29.1231 121.026 29.1643 121.026 29.2055 121.026H29.2192C31.3342 123.333 35.2758 126.547 41.3324 127.673C42.1564 128.442 46.6611 132.274 54.2558 132.274C56.055 132.274 58.0326 132.054 60.1888 131.532C60.285 131.518 62.4137 131.093 63.6772 129.033C64.7347 127.33 64.872 125.077 64.0892 122.303L63.6085 120.669C63.842 120.311 64.0755 119.941 64.2815 119.542C64.3639 119.652 64.4463 119.762 64.5424 119.872C64.7347 120.078 64.9407 120.257 65.1742 120.435C65.1742 120.476 65.1742 120.531 65.1879 120.572C66.4651 125.997 67.66 129.252 68.7312 130.214C69.7612 131.148 72.096 131.546 74.5131 131.546C75.4607 131.546 76.4221 131.491 77.3148 131.367C78.9216 131.161 81.737 130.612 82.6572 129.211C83.2478 128.318 83.9207 125.874 84.5525 123.141L85.1842 128.167C85.3353 129.252 86.0769 130.145 87.0932 130.488C88.7825 131.065 90.5266 131.326 92.161 131.326C94.7841 131.326 97.0914 130.681 98.2999 129.719C99.687 128.634 101.404 123.305 101.857 121.85C104.988 122.385 108.065 122.66 111.059 122.66C123.749 122.66 135.093 117.853 144.253 108.5C144.459 108.294 144.459 107.965 144.239 107.759C144.033 107.553 143.704 107.553 143.498 107.772C132.456 119.034 118.791 123.47 102.873 120.957C103.436 120.435 103.903 119.831 104.288 119.199C104.769 119.295 105.222 119.35 105.661 119.35C106.623 119.35 107.46 119.103 108.188 118.608C109.85 117.469 110.18 115.436 110.193 115.326C110.482 112.456 111.58 111.165 111.594 111.151L112.638 109.983C115.92 107.086 115.797 102.526 115.44 100.081C115.536 100.672 115.756 101.304 116.14 101.949C116.236 102.114 116.415 102.21 116.593 102.21C116.689 102.21 116.772 102.183 116.854 102.141C117.101 101.99 117.184 101.674 117.033 101.427C115.357 98.598 117.637 96.3319 117.733 96.2357L117.788 96.1808C121.07 91.937 120.37 86.2236 119.573 82.9549C120.933 81.554 120.04 79.2879 119.999 79.1918L119.986 79.1506C118.571 76.3489 118.365 72.7643 118.598 69.523C119.793 70.608 123.227 73.3823 129.063 75.5523C128.995 75.621 128.954 75.7034 128.926 75.7995C128.857 76.0879 129.036 76.3626 129.324 76.4313C130.615 76.7334 131.481 76.8982 132.991 76.7883C132.991 76.7883 132.991 76.7883 133.005 76.7883C134.09 76.7197 135.505 76.5137 137.661 76.1154C137.235 77.2004 136.301 79.0407 134.708 79.9472C133.87 79.2467 133.39 78.7935 133.362 78.766C133.156 78.56 132.827 78.5738 132.621 78.7798C132.415 78.9858 132.428 79.3154 132.634 79.5214C133.087 79.9609 143.923 90.3576 155.817 88.8331C155.872 88.8331 155.913 88.8468 155.927 88.8743C155.954 88.9018 155.954 88.943 155.94 88.9842C155.089 91.0443 152.631 96.4829 148.222 102.292C148.044 102.526 148.098 102.856 148.318 103.034C148.414 103.103 148.524 103.144 148.634 103.144C148.799 103.144 148.95 103.075 149.06 102.938C153.537 97.0323 156.037 91.4975 156.916 89.3962C157.067 88.9704 157.012 88.5447 156.751 88.2151ZM83.9345 120.641C83.8246 120.49 81.4349 116.96 84.7035 114.543C84.8958 114.392 85.0881 114.241 85.2666 114.104C84.937 115.944 84.4838 118.402 83.9894 120.765C83.9619 120.723 83.9482 120.682 83.9345 120.641Z" fill="black"/>
<path d="M10.6804 85.1672C10.7353 85.4144 10.9551 85.593 11.1885 85.593C11.216 85.593 11.2572 85.593 11.2984 85.5793C11.5868 85.5243 11.7654 85.2496 11.7104 84.9612C11.1885 82.338 9.36196 81.8024 8.483 81.8848C8.19459 81.9123 7.97485 82.1595 8.00232 82.4616C8.02979 82.75 8.277 82.9698 8.57914 82.9423C8.63407 82.9149 10.2135 82.805 10.6804 85.1672Z" fill="black"/>
<path d="M29.3728 36.7687C29.4003 36.8236 29.4277 36.8648 29.4689 36.906C30.7874 39.1584 32.6689 41.4657 35.3744 43.5945C35.4706 43.6769 35.5804 43.7044 35.7041 43.7044C35.8002 43.7044 35.8826 43.6769 35.965 43.6357C35.7865 46.4786 35.2371 50.9834 33.9461 52.4804C33.6715 52.81 33.6989 53.3044 34.0148 53.5929C34.2208 53.7851 34.6328 54.0873 35.1684 54.2658C34.2345 55.1723 33.177 56.5869 32.6002 58.7294L32.5865 58.7706C32.5865 58.7706 32.4629 59.4436 32.1058 59.9242C31.941 60.144 31.8861 60.4324 31.9547 60.7071C32.0234 60.9818 32.2157 61.1878 32.4766 61.2976C33.2182 61.5998 34.1521 61.8882 34.9762 61.8882C35.4568 61.8882 35.9101 61.7921 36.2809 61.5449C36.5143 61.3801 36.583 61.0504 36.4182 60.817C36.2534 60.5835 35.9238 60.5148 35.6903 60.6796C35.2646 60.968 34.262 60.8719 33.0672 60.4049C33.4517 59.8144 33.6028 59.1414 33.6303 59.0041C34.3856 56.2023 36.0199 54.8015 36.9126 54.2246C36.9264 54.2109 36.9538 54.1972 36.9676 54.1834C37.2697 53.9912 37.4894 53.895 37.5169 53.8813C37.7778 53.7714 37.9152 53.4555 37.7916 53.1946C37.6817 52.9336 37.3658 52.7963 37.1049 52.9062C37.0637 52.9199 36.8165 53.0298 36.4319 53.2632C35.7865 53.4693 35.2371 53.2083 34.9075 52.9611C36.8989 50.2418 37.0912 42.3722 37.0912 42.0288C37.0912 41.7404 36.8714 41.4932 36.583 41.4932C36.2946 41.4932 36.0474 41.7129 36.0474 42.0014C36.0474 42.2211 36.0337 42.4683 36.0199 42.743C33.3144 40.6142 31.4741 38.3069 30.2243 36.0683C28.0818 31.6734 29.1943 27.3334 29.5101 26.3034C34.3169 24.724 38.8353 26.5918 39.8242 27.045C39.5083 27.6356 39.2062 28.2399 38.9315 28.8442C38.9177 28.8304 38.904 28.8304 38.8765 28.8167C38.6705 28.748 33.9324 27.2098 32.2432 30.0665C31.8449 30.7257 31.8174 31.7146 32.147 32.9918C32.202 33.2253 32.4217 33.3901 32.6552 33.3901C32.6964 33.3901 32.7376 33.3901 32.7788 33.3764C33.0534 33.3077 33.232 33.0193 33.1633 32.7309C32.9161 31.7695 32.9161 31.0141 33.1496 30.6021C34.3444 28.5832 38.08 29.6682 38.5057 29.7918C37.9152 31.2064 37.4208 32.6348 37.05 34.0906C36.9813 34.3652 37.1461 34.6537 37.4345 34.7361C37.4757 34.7498 37.5169 34.7498 37.5718 34.7498C37.8053 34.7498 38.0251 34.585 38.08 34.3515C38.8353 31.385 40.0851 28.5008 41.7881 25.754C41.9392 25.5068 41.8705 25.1772 41.6233 25.0261C41.3761 24.875 41.0465 24.9437 40.8954 25.1909C40.7031 25.4931 40.5246 25.7952 40.3461 26.1111C39.3572 25.6304 34.3581 23.4604 28.9333 25.3832L28.6998 25.4656L28.6174 25.6991C28.5762 25.8227 28.0132 27.3334 27.9033 29.5446C27.4775 27.0862 27.6286 25.2871 27.6836 24.8064C32.4766 18.5986 41.898 18.3102 46.2104 18.5437C46.1966 18.5574 46.1829 18.5711 46.1692 18.5849C45.9631 18.7909 45.9631 19.1205 46.1692 19.3265C46.2653 19.4364 46.4026 19.4776 46.54 19.4776C46.6773 19.4776 46.8009 19.4226 46.9108 19.3265C48.3666 17.8844 49.3966 17.129 49.4103 17.1153L49.479 17.0604C49.5477 16.9917 57.1287 9.53413 72.689 8.47662C78.1276 8.1058 83.9369 8.65516 88.6201 9.97362C88.8948 10.056 89.1832 9.89122 89.2656 9.61654C89.3343 9.36933 89.2107 9.10838 88.9909 8.99851C91.1883 7.5839 100.253 2.43365 110.759 6.56759C110.924 6.84227 111.295 7.5427 111.72 8.58649C111.089 7.57017 110.58 6.96587 110.525 6.88347L110.388 6.71866L110.168 6.70493C101.035 5.96329 97.4097 10.6054 96.4484 12.1711C96.2973 12.0887 96.1325 11.9925 95.9814 11.9101C95.7205 11.7728 95.4046 11.8689 95.2673 12.1299C95.1299 12.3908 95.226 12.7067 95.487 12.844C98.893 14.6707 101.475 16.6621 103.178 18.7771C103.288 18.9007 103.439 18.9694 103.59 18.9694C103.7 18.9694 103.823 18.9282 103.92 18.8595C104.139 18.681 104.18 18.3514 104.002 18.1179C102.986 16.8406 101.653 15.6183 100.06 14.4509C100.871 13.723 104.071 11.0449 106.392 12.3771C107.037 12.7479 107.518 13.8603 107.765 15.5222C107.806 15.7831 108.026 15.9754 108.287 15.9754C108.314 15.9754 108.342 15.9754 108.369 15.9754C108.658 15.9342 108.85 15.6595 108.809 15.3848C108.507 13.3522 107.875 12.0337 106.927 11.4844C103.727 9.64401 99.7033 13.3522 99.1951 13.8466C98.632 13.4621 98.0277 13.0775 97.396 12.7067C98.2337 11.3333 101.516 7.14442 109.866 7.77618C110.512 8.62769 113.327 12.5419 113.423 17.1565C113.423 17.2527 113.423 17.3488 113.423 17.4587C113.423 17.7333 113.41 18.008 113.396 18.2827C113.396 18.3239 113.396 18.3651 113.396 18.4063C113.272 21.2767 112.585 24.5042 110.937 27.924L110.718 28.336C109.646 26.6879 108.905 25.1772 108.479 24.1883C112.064 22.1008 112.05 19.7797 111.707 18.5574C111.569 18.063 111.253 17.6784 110.814 17.4449C109.578 16.7857 107.6 17.3763 107.38 17.4587C107.106 17.5411 106.955 17.8432 107.037 18.1179C107.119 18.3926 107.422 18.5437 107.696 18.4612C108.177 18.3102 109.592 17.9943 110.306 18.3788C110.512 18.4887 110.622 18.6398 110.69 18.8595C111.226 20.7823 109.674 22.2518 108.067 23.2132C108.012 23.0759 107.985 23.0072 107.985 22.9935C107.889 22.7188 107.586 22.5677 107.312 22.6639C107.037 22.76 106.886 23.0484 106.982 23.3231C107.078 23.5978 109.317 30.0802 114.7 34.4476C114.92 34.6262 115.14 34.791 115.346 34.9695C117.145 36.4116 118.834 37.7575 119.645 39.7902C119.7 39.9412 119.754 40.0923 119.809 40.2297C118.024 38.4168 115.579 37.8949 115.442 37.8674C115.154 37.8125 114.879 37.991 114.824 38.2794C114.769 38.5679 114.948 38.8425 115.236 38.8975C115.277 38.9112 119.082 39.7215 120.263 42.8117C120.881 44.446 121.869 45.6683 122.391 46.2452C122.419 46.2864 122.419 46.3138 122.419 46.3413C122.419 46.3688 122.405 46.3962 122.364 46.4237C121.952 46.6572 121.43 46.7259 120.839 46.6572C120.551 46.616 120.29 46.822 120.249 47.1104C120.208 47.3988 120.414 47.6598 120.702 47.701C120.894 47.7284 121.073 47.7422 121.251 47.7422C121.842 47.7422 122.405 47.6048 122.872 47.3576C123.188 47.1791 123.408 46.8769 123.463 46.5198C123.518 46.1628 123.421 45.8057 123.174 45.5447C122.707 45.0366 121.842 43.9653 121.279 42.537C121.293 41.6031 121.073 40.5593 120.62 39.4194C119.713 37.1395 117.818 35.6288 115.991 34.173C115.772 33.9944 115.566 33.8296 115.346 33.6511C113.739 32.3463 112.407 30.8219 111.349 29.3386L111.83 28.4047C113.616 24.7102 114.302 21.2218 114.412 18.1591C114.44 17.7059 114.44 17.2527 114.426 16.7994C114.426 16.772 114.426 16.7445 114.426 16.7308C114.426 16.717 114.426 16.7033 114.426 16.6896C114.247 10.2758 111.583 5.99076 111.542 5.92209L111.446 5.78475L111.295 5.71608C99.3187 0.895437 89.0733 7.68004 87.9472 8.46288C87.851 8.53155 87.7961 8.62769 87.7549 8.72383C83.1678 7.5839 77.7155 7.14442 72.5791 7.48777C56.9639 8.51782 49.3416 15.7282 48.7374 16.3325C48.5863 16.4423 47.982 16.9093 47.0893 17.7333C47.0069 17.6372 46.8833 17.5685 46.7322 17.5685C42.4748 17.2801 31.9959 17.3625 26.7359 24.3257L26.6535 24.4355L26.6261 24.5592C26.6123 24.6416 25.7746 30.3137 29.2355 36.5352C29.2904 36.6039 29.3316 36.6863 29.3728 36.7687Z" fill="black"/>
<path d="M71.4079 119.956C71.298 119.681 70.9958 119.557 70.7212 119.653C70.4465 119.763 70.3229 120.065 70.419 120.34C70.4328 120.368 71.4353 122.812 74.6765 122.812C75.2396 122.812 75.8713 122.744 76.5717 122.565C79.7854 121.768 82.1339 122.469 82.1751 122.483C82.4498 122.565 82.7519 122.414 82.8343 122.139C82.9167 121.865 82.7657 121.562 82.491 121.48C82.3811 121.453 79.8541 120.683 76.3245 121.549C72.4928 122.496 71.4491 120.052 71.4079 119.956Z" fill="black"/>
<path d="M34.4954 35.848C34.7838 35.7931 34.976 35.5321 34.9211 35.2437C34.8662 34.9553 34.6052 34.763 34.3168 34.818C34.1383 34.8454 32.4902 35.1613 31.8173 36.1639C31.5563 36.5485 31.4739 37.0017 31.5701 37.4686C31.8035 38.5948 32.7786 40.5039 36.5417 40.5725H36.5554C36.8438 40.5725 37.0773 40.339 37.0773 40.0506C37.0773 39.7622 36.8576 39.515 36.5554 39.515C34.9623 39.4875 32.9846 39.0618 32.6001 37.2352C32.5589 37.0566 32.5864 36.8918 32.6962 36.7407C33.0396 36.2188 34.1383 35.9167 34.4954 35.848Z" fill="black"/>
<path d="M55.5154 58.4796C60.3648 57.236 63.7843 54.2325 63.1532 51.7711C62.522 49.3096 58.0791 48.3222 53.2298 49.5658C48.3804 50.8093 44.9609 53.8128 45.5921 56.2743C46.2232 58.7357 50.6661 59.7231 55.5154 58.4796Z" fill="#FCB5D1"/>
<path opacity="0.0196078" d="M57.1937 65.9722C66.7196 63.874 73.2781 56.8887 71.8423 50.37C70.4066 43.8513 61.5204 40.2678 51.9944 42.366C42.4684 44.4641 35.91 51.4495 37.3457 57.9682C38.7815 64.4869 47.6677 68.0704 57.1937 65.9722Z" fill="#FFFEFE"/>
<path opacity="0.0392157" d="M57.1548 65.7804C66.5317 63.712 72.9848 56.8294 71.5683 50.4076C70.1518 43.9859 61.4021 40.4569 52.0252 42.5253C42.6483 44.5937 36.1952 51.4763 37.6117 57.8981C39.0282 64.3198 47.7779 67.8489 57.1548 65.7804Z" fill="#FFFCFD"/>
<path opacity="0.0588235" d="M57.1389 65.5947C66.3676 63.5561 72.7177 56.7817 71.3221 50.4637C69.9265 44.1457 61.3138 40.6765 52.0851 42.7151C42.8564 44.7537 36.5063 51.528 37.9019 57.8461C39.2975 64.1641 47.9102 67.6333 57.1389 65.5947Z" fill="#FFFBFC"/>
<path opacity="0.0784314" d="M57.0937 65.3902C66.1734 63.3816 72.4196 56.716 71.045 50.5023C69.6705 44.2886 61.1956 40.8797 52.116 42.8884C43.0363 44.8971 36.7901 51.5626 38.1647 57.7763C39.5392 63.99 48.0141 67.3989 57.0937 65.3902Z" fill="#FFF9FB"/>
<path opacity="0.0980392" d="M57.0562 65.1879C65.9869 63.2093 72.1293 56.6527 70.7758 50.5433C69.4223 44.4339 61.0854 41.0852 52.1547 43.0639C43.2241 45.0425 37.0816 51.5991 38.4351 57.7085C39.7886 63.8179 48.1256 67.1665 57.0562 65.1879Z" fill="#FFF8FA"/>
<path opacity="0.1176" d="M57.0378 65.0159C65.8203 63.0674 71.8585 56.6132 70.5245 50.6001C69.1905 44.587 60.9894 41.2919 52.2069 43.2405C43.4243 45.189 37.3861 51.6432 38.7202 57.6563C40.0542 63.6694 48.2553 66.9644 57.0378 65.0159Z" fill="#FFF6FA"/>
<path opacity="0.1373" d="M56.9977 64.814C65.6387 62.894 71.5793 56.5476 70.2664 50.6387C68.9536 44.7299 60.8844 41.4962 52.2435 43.4162C43.6025 45.3361 37.6619 51.6826 38.9748 57.5915C40.2876 63.5003 48.3568 66.734 56.9977 64.814Z" fill="#FFF5F9"/>
<path opacity="0.1569" d="M56.9735 64.6069C65.4655 62.7164 71.3021 56.4783 70.0099 50.6737C68.7177 44.8691 60.7861 41.6961 52.2941 43.5867C43.8021 45.4772 37.9655 51.7153 39.2577 57.5199C40.5499 63.3245 48.4815 66.4974 56.9735 64.6069Z" fill="#FFF3F8"/>
<path opacity="0.1765" d="M56.9352 64.4202C65.2783 62.5601 71.0114 56.4311 69.7406 50.7308C68.4697 45.0304 60.6761 41.9173 52.333 43.7774C43.9899 45.6376 38.2568 51.7666 39.5277 57.4669C40.7985 63.1672 48.5922 66.2804 56.9352 64.4202Z" fill="#FEF2F7"/>
<path opacity="0.1961" d="M56.9121 64.2207C65.1071 62.3902 70.7371 56.3693 69.487 50.7726C68.237 45.1759 60.5802 42.1227 52.3852 43.9532C44.1902 45.7837 38.5602 51.8046 39.8103 57.4013C41.0604 62.998 48.7171 66.0511 56.9121 64.2207Z" fill="#FEF0F6"/>
<path opacity="0.2157" d="M56.8775 64.0305C64.9237 62.2298 70.4485 56.3114 69.2177 50.8115C67.9869 45.3116 60.4665 42.3128 52.4204 44.1136C44.3742 45.9143 38.8493 51.8326 40.0802 57.3325C41.311 62.8324 48.8314 65.8312 56.8775 64.0305Z" fill="#FEEFF5"/>
<path opacity="0.2353" d="M56.8386 63.8455C64.7359 62.0755 70.1576 56.2665 68.9483 50.8708C67.739 45.4751 60.3567 42.5359 52.4594 44.3059C44.5622 46.0759 39.1405 51.8848 40.3498 57.2805C41.559 62.6763 48.9414 65.6155 56.8386 63.8455Z" fill="#FEEEF4"/>
<path opacity="0.2549" d="M56.8093 63.6417C64.5578 61.9017 69.8759 56.2015 68.6877 50.91C67.4994 45.6184 60.2548 42.7393 52.5064 44.4793C44.7579 46.2193 39.4398 51.9195 40.628 57.2111C41.8163 62.5026 49.0609 65.3817 56.8093 63.6417Z" fill="#FEECF3"/>
<path opacity="0.2745" d="M56.7778 63.4369C64.3774 61.7262 69.5916 56.1342 68.424 50.9468C67.2564 45.7594 60.1491 42.9409 52.5495 44.6516C44.9498 46.3623 39.7356 51.9543 40.9032 57.1417C42.0708 62.3291 49.1781 65.1475 56.7778 63.4369Z" fill="#FEEBF2"/>
<path opacity="0.2941" d="M56.754 63.2605C64.2049 61.5801 69.3143 56.0911 68.1663 51.0004C67.0182 45.9097 60.0474 43.1451 52.5965 44.8255C45.1456 46.5059 40.0362 51.995 41.1842 57.0857C42.3323 62.1764 49.3031 64.9409 56.754 63.2605Z" fill="#FEE9F1"/>
<path opacity="0.3137" d="M56.7196 63.0582C64.0292 61.4058 69.0409 56.0238 67.9137 51.0372C66.7864 46.0506 59.947 43.3477 52.6375 45.0002C45.3279 46.6526 40.3162 52.0346 41.4434 57.0212C42.5707 62.0078 49.41 64.7106 56.7196 63.0582Z" fill="#FEE8F1"/>
<path opacity="0.3333" d="M56.6931 62.8723C63.854 61.2504 68.7626 55.9775 67.6567 51.095C66.5509 46.2125 59.8494 43.5692 52.6885 45.1912C45.5277 46.8131 40.6191 52.086 41.725 56.9685C42.8308 61.851 49.5323 64.4942 56.6931 62.8723Z" fill="#FEE6F0"/>
<path opacity="0.3529" d="M56.6526 62.6717C63.6647 61.0797 68.4698 55.9154 67.385 51.137C66.3002 46.3585 59.7362 43.7754 52.724 45.3674C45.7118 46.9594 40.9068 52.1237 41.9916 56.9021C43.0764 61.6806 49.6404 64.2637 56.6526 62.6717Z" fill="#FEE5EF"/>
<path opacity="0.3725" d="M56.6177 62.4865C63.4813 60.9246 68.1816 55.863 67.1162 51.1812C66.0508 46.4994 59.6231 43.9703 52.7596 45.5322C45.896 47.0941 41.1957 52.1557 42.2611 56.8375C43.3265 61.5193 49.7542 64.0485 56.6177 62.4865Z" fill="#FEE3EE"/>
<path opacity="0.3922" d="M56.5965 62.2876C63.3108 60.7552 67.9069 55.8023 66.8622 51.2249C65.8176 46.6476 59.5277 44.1792 52.8135 45.7116C46.0992 47.2441 41.5031 52.197 42.5478 56.7743C43.5924 61.3516 49.8823 63.82 56.5965 62.2876Z" fill="#FEE2ED"/>
<path opacity="0.4118" d="M56.5549 62.091C63.1206 60.589 67.6136 55.745 66.5903 51.2717C65.567 46.7984 59.4149 44.3896 52.8492 45.8917C46.2835 47.3937 41.7905 52.2377 42.8138 56.711C43.8371 61.1844 49.9893 63.5931 56.5549 62.091Z" fill="#FEE1EC"/>
<path opacity="0.4314" d="M56.5303 61.8878C62.9474 60.4157 67.337 55.6802 66.3347 51.3108C65.3324 46.9414 59.3177 44.5928 52.9005 46.0649C46.4834 47.5371 42.0938 52.2725 43.0961 56.6419C44.0985 61.0113 50.1131 63.36 56.5303 61.8878Z" fill="#FEDFEB"/>
<path opacity="0.451" d="M56.4924 61.699C62.7604 60.2569 67.0462 55.6304 66.0649 51.3654C65.0837 47.1004 59.2071 44.812 52.9391 46.2541C46.6711 47.6962 42.3853 52.3227 43.3665 56.5877C44.3477 60.8527 50.2244 63.1411 56.4924 61.699Z" fill="#FEDEEA"/>
<path opacity="0.4706" d="M56.4747 61.5066C62.5942 60.0941 66.7751 55.5699 65.813 51.4014C64.8509 47.2329 59.1101 44.9988 52.9906 46.4112C46.871 47.8237 42.6901 52.348 43.6522 56.5164C44.6143 60.6849 50.3551 62.9191 56.4747 61.5066Z" fill="#FEDCE9"/>
<path opacity="0.4902" d="M56.4298 61.3069C62.4077 59.9231 66.4911 55.5067 65.5504 51.4426C64.6097 47.3784 59.0011 45.2055 53.0232 46.5892C47.0453 47.973 42.9618 52.3894 43.9025 56.4536C44.8433 60.5177 50.4519 62.6906 56.4298 61.3069Z" fill="#FEDBE8"/>
<path opacity="0.5098" d="M56.3972 61.1238C62.2267 59.7701 66.207 55.4622 65.2874 51.5019C64.3678 47.5416 58.8965 45.4285 53.067 46.7823C47.2375 48.136 43.2572 52.4439 44.1768 56.4042C45.0965 60.3645 50.5677 62.4775 56.3972 61.1238Z" fill="#FDD9E8"/>
<path opacity="0.5294" d="M56.3724 60.9153C62.0529 59.5912 65.9294 55.3918 65.0306 51.5358C64.1318 47.6797 58.7982 45.6271 53.1176 46.9512C47.437 48.2753 43.5606 52.4746 44.4594 56.3307C45.3582 60.1868 50.6918 62.2393 56.3724 60.9153Z" fill="#FDD8E7"/>
<path opacity="0.549" d="M56.3284 60.7292C61.8601 59.4356 65.6318 55.3394 64.7527 51.5802C63.8736 47.8209 58.6766 45.8221 53.1449 47.1157C47.6132 48.4093 43.8415 52.5055 44.7206 56.2648C45.5997 60.024 50.7967 62.0229 56.3284 60.7292Z" fill="#FDD6E6"/>
<path opacity="0.5686" d="M56.3117 60.5345C61.6946 59.2705 65.3625 55.2827 64.5043 51.6276C63.646 47.9724 58.5865 46.0341 53.2036 47.2981C47.8207 48.5622 44.1528 52.55 45.0111 56.2051C45.8694 59.8602 50.9289 61.7986 56.3117 60.5345Z" fill="#FDD5E5"/>
<path opacity="0.5882" d="M56.2697 60.3375C61.5039 59.1038 65.0685 55.2251 64.2316 51.6741C63.3947 48.1231 58.4731 46.2445 53.239 47.4782C48.0048 48.7118 44.4402 52.5906 45.2771 56.1416C46.1141 59.6926 51.0356 61.5712 56.2697 60.3375Z" fill="#FDD3E4"/>
<path opacity="0.6078" d="M56.2442 60.1343C61.3296 58.9307 64.7909 55.1607 63.9751 51.7138C63.1593 48.2668 58.3755 46.4482 53.29 47.6518C48.2046 48.8554 44.7433 52.6254 45.5591 56.0723C46.3749 59.5193 51.1587 61.3379 56.2442 60.1343Z" fill="#FDD2E3"/>
<path opacity="0.6275" d="M56.2153 59.9474C61.1521 58.7737 64.5099 55.1122 63.7152 51.7693C62.9205 48.4264 58.2741 46.6679 53.3373 47.8416C48.4005 49.0153 45.0427 52.6768 45.8374 56.0197C46.6322 59.3626 51.2785 61.1211 56.2153 59.9474Z" fill="#FDD1E2"/>
<path opacity="0.6471" d="M56.1718 59.7574C60.9595 58.6139 64.2123 55.0555 63.437 51.8095C62.6617 48.5635 58.152 46.8591 53.3643 48.0027C48.5765 49.1462 45.3238 52.7046 46.0991 55.9506C46.8743 59.1966 51.384 60.901 56.1718 59.7574Z" fill="#FDCFE1"/>
<path opacity="0.6667" d="M56.1523 59.5552C60.7989 58.4399 63.9544 54.9886 63.2002 51.8465C62.4461 48.7045 58.0679 47.0615 53.4213 48.1768C48.7746 49.2921 45.6192 52.7434 46.3733 55.8855C47.1275 59.0276 51.5057 60.6706 56.1523 59.5552Z" fill="#FDCEE0"/>
<path opacity="0.6863" d="M56.1151 59.3638C60.6128 58.2783 63.6647 54.9357 62.9315 51.8978C62.1984 48.86 57.958 47.2772 53.4603 48.3627C48.9625 49.4482 45.9107 52.7908 46.6438 55.8287C47.377 58.8665 51.6174 60.4493 56.1151 59.3638Z" fill="#FDCCDF"/>
<path opacity="0.7059" d="M56.0889 59.1625C60.4378 58.1073 63.3862 54.8735 62.6744 51.9398C61.9626 49.0061 57.86 47.4833 53.5111 48.5385C49.1622 49.5938 46.2138 52.8275 46.9256 55.7612C47.6374 58.6949 51.74 60.2178 56.0889 59.1625Z" fill="#FDCBDF"/>
<path opacity="0.7255" d="M56.0539 58.9773C60.2541 57.9522 63.0977 54.8213 62.4053 51.9842C61.7129 49.1472 57.7467 47.6784 53.5465 48.7035C49.3463 49.7286 46.5027 52.8594 47.1951 55.6965C47.8874 58.5335 51.8537 60.0024 56.0539 58.9773Z" fill="#FDC9DE"/>
<path opacity="0.7451" d="M56.0274 58.7831C60.0785 57.7881 62.8186 54.7662 62.1474 52.0334C61.4763 49.3007 57.6481 47.8919 53.597 48.8869C49.5458 49.8819 46.8058 52.9038 47.4769 55.6365C48.1481 58.3693 51.9762 59.778 56.0274 58.7831Z" fill="#FDC8DD"/>
<path opacity="0.7647" d="M55.9901 58.5863C59.8927 57.6214 62.5296 54.7082 61.8797 52.0794C61.2298 49.4506 57.5393 48.1017 53.6366 49.0665C49.734 50.0313 47.0971 52.9445 47.747 55.5734C48.3969 58.2022 52.0874 59.5511 55.9901 58.5863Z" fill="#FDC6DC"/>
<path opacity="0.7843" d="M55.952 58.3869C59.7058 57.4523 62.2393 54.648 61.6108 52.1233C60.9822 49.5987 57.4296 48.3097 53.6758 49.2443C49.922 50.1789 47.3884 52.9832 48.017 55.5079C48.6456 58.0325 52.1982 59.3215 55.952 58.3869Z" fill="#FDC5DB"/>
<path opacity="0.8039" d="M55.9285 58.2044C59.5333 57.2997 61.9616 54.5983 61.3524 52.1706C60.7431 49.7428 57.327 48.5081 53.7223 49.4128C50.1175 50.3174 47.6892 53.0189 48.2984 55.4466C48.9077 57.8743 52.3238 59.109 55.9285 58.2044Z" fill="#FDC4DA"/>
<path opacity="0.8235" d="M55.8965 58.0061C59.3601 57.1298 61.6912 54.5355 61.1033 52.2118C60.5153 49.888 57.2309 48.7146 53.7674 49.591C50.3038 50.4673 47.9727 53.0615 48.5607 55.3853C49.1486 57.7091 52.433 58.8825 55.8965 58.0061Z" fill="#FDC2D9"/>
<path opacity="0.8431" d="M55.8652 57.8015C59.1796 56.9555 61.4072 54.4705 60.8408 52.251C60.2743 50.0316 57.1282 48.9181 53.8138 49.7641C50.4994 50.6101 48.2717 53.0951 48.8382 55.3146C49.4047 57.534 52.5508 58.6475 55.8652 57.8015Z" fill="#FCC1D8"/>
<path opacity="0.8627" d="M55.8356 57.615C59.0014 56.799 61.1258 54.4226 60.5805 52.3071C60.0353 50.1916 57.0269 49.1382 53.8611 49.9542C50.6953 50.7702 48.5709 53.1466 49.1162 55.2621C49.6614 57.3775 52.6698 58.431 55.8356 57.615Z" fill="#FCBFD7"/>
<path opacity="0.8824" d="M55.8071 57.4214C58.8239 56.6358 60.8433 54.3626 60.3176 52.3441C59.792 50.3256 56.9204 49.3261 53.9037 50.1117C50.8869 50.8973 48.8675 53.1705 49.3932 55.189C49.9188 57.2076 52.7904 58.207 55.8071 57.4214Z" fill="#FCBED6"/>
<path opacity="0.902" d="M55.7647 57.2211C58.6326 56.4657 60.5487 54.3014 60.0444 52.3871C59.5402 50.4727 56.8066 49.5331 53.9388 50.2885C51.0709 51.0439 49.1548 53.2082 49.6591 55.1225C50.1633 57.0369 52.8969 57.9765 55.7647 57.2211Z" fill="#FCBCD6"/>
<path opacity="0.9216" d="M55.7254 57.0357C58.4443 56.3108 60.2571 54.2557 59.7745 52.4455C59.2919 50.6353 56.6966 49.7555 53.9777 50.4804C51.2588 51.2053 49.4459 53.2604 49.9285 55.0706C50.4111 56.8808 53.0065 57.7606 55.7254 57.0357Z" fill="#FCBBD5"/>
<path opacity="0.9412" d="M55.7024 56.833C58.2726 56.1384 59.9824 54.1922 59.5213 52.486C59.0602 50.7798 56.6029 49.9598 54.0327 50.6544C51.4625 51.349 49.7527 53.2952 50.2138 55.0014C50.6749 56.7076 53.1322 57.5276 55.7024 56.833Z" fill="#FCB9D4"/>
<path opacity="0.9608" d="M55.6681 56.6428C58.0966 55.9765 59.7074 54.1317 59.2659 52.5224C58.8244 50.9131 56.4977 50.1487 54.0692 50.815C51.6406 51.4813 50.0298 53.3261 50.4713 54.9354C50.9129 56.5447 53.2395 57.3092 55.6681 56.6428Z" fill="#FCB8D3"/>
<path opacity="0.9804" d="M55.6437 56.4482C57.9231 55.8123 59.4306 54.0768 59.0108 52.5717C58.5909 51.0667 56.4027 50.3621 54.1233 50.998C51.8439 51.6339 50.3364 53.3695 50.7563 54.8745C51.1761 56.3795 53.3643 57.0841 55.6437 56.4482Z" fill="#FCB6D2"/>
<path d="M55.6035 56.2494C57.7339 55.644 59.1383 54.0177 58.7403 52.6169C58.3423 51.216 56.2926 50.5711 54.1621 51.1764C52.0317 51.7818 50.6273 53.4081 51.0253 54.8089C51.4234 56.2098 53.473 56.8547 55.6035 56.2494Z" fill="#FCB5D1"/>
<path d="M101.19 45.9718C105.99 44.5511 109.297 41.4241 108.576 38.9875C107.855 36.551 103.379 35.7275 98.5784 37.1482C93.7781 38.569 90.4713 41.6959 91.1924 44.1325C91.9135 46.5691 96.3896 47.3926 101.19 45.9718Z" fill="#FCB5D1"/>
<path opacity="0.0196078" d="M103.131 53.3965C112.573 50.9501 118.871 43.729 117.197 37.2677C115.523 30.8064 106.511 27.5517 97.0691 29.9981C87.627 32.4445 81.3297 39.6656 83.0037 46.1269C84.6778 52.5882 93.6892 55.8429 103.131 53.3965Z" fill="#FFFEFE"/>
<path opacity="0.0392157" d="M103.095 53.2258C112.391 50.8146 118.587 43.6994 116.936 37.3335C115.285 30.9677 106.411 27.7619 97.1157 30.1731C87.8204 32.5844 81.6238 39.6996 83.275 46.0654C84.9263 52.4313 93.8002 55.6371 103.095 53.2258Z" fill="#FFFCFD"/>
<path opacity="0.0588235" d="M103.056 53.0291C112.204 50.6541 118.301 43.652 116.675 37.3896C115.049 31.1273 106.316 27.9759 97.1684 30.351C88.0209 32.726 81.9235 39.728 83.5494 45.9904C85.1753 52.2528 93.9088 55.4041 103.056 53.0291Z" fill="#FFFBFC"/>
<path opacity="0.0784314" d="M103.012 52.8289C112.011 50.4892 118.009 43.5997 116.408 37.4407C114.807 31.2817 106.213 28.1856 97.2134 30.5253C88.2137 32.865 82.2159 39.7546 83.8171 45.9135C85.4182 52.0725 94.0118 55.1686 103.012 52.8289Z" fill="#FFF9FB"/>
<path opacity="0.0980392" d="M102.967 52.6426C111.819 50.3384 117.717 43.5614 116.14 37.5058C114.564 31.4502 106.11 28.4092 97.2584 30.7135C88.4064 33.0177 82.5083 39.7948 84.0846 45.8503C85.6609 51.9059 94.1146 54.9469 102.967 52.6426Z" fill="#FFF8FA"/>
<path opacity="0.1176" d="M102.952 52.4477C111.657 50.178 117.454 43.5064 115.9 37.5462C114.346 31.5861 106.03 28.5944 97.3246 30.864C88.6194 33.1337 82.8222 39.8053 84.3761 45.7654C85.93 51.7256 94.2466 54.7173 102.952 52.4477Z" fill="#FFF6FA"/>
<path opacity="0.1373" d="M102.9 52.2516C111.465 50.0156 117.169 43.4551 115.64 37.5983C114.111 31.7415 105.928 28.8063 97.3635 31.0422C88.7986 33.2782 83.0949 39.8387 84.6238 45.6955C86.1528 51.5523 94.3354 54.4875 102.9 52.2516Z" fill="#FFF5F9"/>
<path opacity="0.1569" d="M102.866 52.0513C111.284 49.8511 116.888 43.4033 115.384 37.6499C113.88 31.8965 105.837 29.016 97.4203 31.2163C89.0032 33.4165 83.3988 39.8643 84.9027 45.6177C86.4066 51.3712 94.4492 54.2516 102.866 52.0513Z" fill="#FFF3F8"/>
<path opacity="0.1765" d="M102.827 51.8606C111.096 49.6953 116.601 43.3596 115.121 37.7095C113.642 32.0594 105.739 29.2344 97.4694 31.3997C89.1999 33.565 83.6954 39.9006 85.1747 45.5508C86.6541 51.2009 94.5572 54.0259 102.827 51.8606Z" fill="#FEF2F7"/>
<path opacity="0.1961" d="M102.777 51.6657C110.899 49.5363 116.304 43.3135 114.85 37.7667C113.396 32.2199 105.633 29.4495 97.5108 31.5789C89.3888 33.7083 83.9835 39.9312 85.4377 45.478C86.8919 51.0248 94.6549 53.7951 102.777 51.6657Z" fill="#FEF0F6"/>
<path opacity="0.2157" d="M102.748 51.4748C110.722 49.3805 116.026 43.264 114.595 37.8131C113.163 32.3623 105.538 29.6412 97.5639 31.7354C89.5895 33.8296 84.2854 39.9461 85.7169 45.397C87.1483 50.8479 94.7732 53.569 102.748 51.4748Z" fill="#FEEFF5"/>
<path opacity="0.2353" d="M102.707 51.2868C110.534 49.2279 115.739 43.2237 114.332 37.8761C112.925 32.5284 105.44 29.8625 97.6132 31.9214C89.7863 33.9803 84.5817 39.9845 85.9884 45.3321C87.3951 50.6797 94.8804 53.3457 102.707 51.2868Z" fill="#FEEEF4"/>
<path opacity="0.2549" d="M102.674 51.0864C110.354 49.0629 115.459 43.1711 114.077 37.9268C112.695 32.6824 105.35 30.0714 97.6703 32.0949C89.991 34.1184 84.8858 40.0102 86.2677 45.2546C87.6495 50.4989 94.995 53.1099 102.674 51.0864Z" fill="#FEECF3"/>
<path opacity="0.2745" d="M102.63 50.8873C110.161 48.8994 115.167 43.1201 113.81 37.9789C112.453 32.8378 105.248 30.2816 97.7158 32.2696C90.1839 34.2576 85.1781 40.0369 86.535 45.178C87.8919 50.3192 95.0977 52.8753 102.63 50.8873Z" fill="#FEEBF2"/>
<path opacity="0.2941" d="M102.588 50.719C109.972 48.7667 114.877 43.094 113.543 38.0487C112.209 33.0034 105.142 30.4961 97.7574 32.4484C90.373 34.4007 85.468 40.0734 86.8018 45.1187C88.1357 50.164 95.2032 52.6713 102.588 50.719Z" fill="#FEE9F1"/>
<path opacity="0.3137" d="M102.557 50.5127C109.802 48.5935 114.613 43.0313 113.304 38.0892C111.995 33.147 105.061 30.6965 97.8163 32.6157C90.5719 34.535 85.7606 40.0972 87.0698 45.0393C88.3791 49.9814 95.3131 52.4319 102.557 50.5127Z" fill="#FEE8F1"/>
<path opacity="0.3333" d="M102.508 50.3065C109.605 48.4224 114.316 42.9728 113.031 38.1343C111.747 33.2959 104.953 30.9009 97.8567 32.7849C90.7605 34.669 86.0491 40.1186 87.3337 44.9571C88.6183 49.7955 95.4122 52.1906 102.508 50.3065Z" fill="#FEE6F0"/>
<path opacity="0.3529" d="M102.478 50.1272C109.427 48.2792 114.04 42.9424 112.78 38.2071C111.521 33.4717 104.867 31.1311 97.9181 32.9791C90.9691 34.8271 86.3568 40.1639 87.616 44.8993C88.8753 49.6346 95.5293 51.9752 102.478 50.1272Z" fill="#FEE5EF"/>
<path opacity="0.3725" d="M102.434 49.9304C109.236 48.1179 113.749 42.8934 112.514 38.2611C111.28 33.6289 104.765 31.3431 97.9638 33.1556C91.1622 34.9682 86.6491 40.1927 87.8835 44.8249C89.1178 49.4571 95.6323 51.7429 102.434 49.9304Z" fill="#FEE3EE"/>
<path opacity="0.3922" d="M102.393 49.735C109.046 47.9574 113.458 42.8392 112.246 38.3032C111.034 33.7672 104.658 31.5311 98.0045 33.3087C91.3509 35.0863 86.9394 40.2045 88.1512 44.7405C89.363 49.2765 95.7392 51.5126 102.393 49.735Z" fill="#FEE2ED"/>
<path opacity="0.4118" d="M102.363 49.5526C108.87 47.8108 113.182 42.8052 111.996 38.3722C110.809 33.9393 104.572 31.7577 98.0661 33.4995C91.5597 35.2413 87.2472 40.2469 88.4338 44.6799C89.6205 49.1128 95.857 51.2944 102.363 49.5526Z" fill="#FEE1EC"/>
<path opacity="0.4314" d="M102.315 49.3492C108.673 47.6427 112.886 42.7495 111.724 38.42C110.562 34.0906 104.465 31.9642 98.1069 33.6708C91.7484 35.3773 87.5357 40.2705 88.6976 44.6C89.8595 48.9294 95.956 51.0557 102.315 49.3492Z" fill="#FEDFEB"/>
<path opacity="0.451" d="M102.29 49.1498C108.501 47.4787 112.615 42.6978 111.478 38.4713C110.341 34.2449 104.384 32.1733 98.1725 33.8444C91.9611 35.5154 87.8475 40.2964 88.9845 44.5228C90.1215 48.7493 96.0786 50.8209 102.29 49.1498Z" fill="#FEDEEA"/>
<path opacity="0.4706" d="M102.244 48.9787C108.307 47.3433 112.32 42.6692 111.206 38.5388C110.092 34.4084 104.273 32.3858 98.2097 34.0212C92.146 35.6566 88.1335 40.3308 89.2475 44.4612C90.3614 48.5916 96.1801 50.6141 102.244 48.9787Z" fill="#FEDCE9"/>
<path opacity="0.4902" d="M102.212 48.772C108.136 47.1698 112.055 42.6064 110.965 38.5794C109.876 34.5523 104.191 32.5866 98.268 34.1888C92.3447 35.791 88.426 40.3544 89.5152 44.3814C90.6044 48.4085 96.2892 50.3742 102.212 48.772Z" fill="#FEDBE8"/>
<path opacity="0.5098" d="M102.164 48.5714C107.939 47.0046 111.759 42.5537 110.694 38.6299C109.63 34.7062 104.085 32.7955 98.3093 34.3623C92.5336 35.9291 88.7144 40.38 89.7787 44.3037C90.8431 48.2275 96.388 50.1381 102.164 48.5714Z" fill="#FDD9E8"/>
<path opacity="0.5294" d="M102.118 48.3888C107.746 46.8577 111.466 42.5194 110.427 38.6989C109.388 34.8785 103.983 33.0226 98.3546 34.5538C92.7265 36.0849 89.0066 40.4233 90.0459 44.2437C91.0853 48.0641 96.4902 49.92 102.118 48.3888Z" fill="#FDD8E7"/>
<path opacity="0.549" d="M102.093 48.1962C107.573 46.7003 111.192 42.4683 110.176 38.7438C109.159 35.0193 103.892 33.2126 98.4117 34.7085C92.9312 36.2044 89.3123 40.4363 90.3289 44.1608C91.3454 47.8854 96.6123 49.692 102.093 48.1962Z" fill="#FDD6E6"/>
<path opacity="0.5686" d="M102.052 47.9991C107.385 46.5387 110.905 42.4192 109.913 38.7979C108.921 35.1766 103.794 33.4248 98.4612 34.8851C93.128 36.3454 89.6085 40.465 90.6001 44.0863C91.5917 47.7076 96.7188 49.4594 102.052 47.9991Z" fill="#FDD5E5"/>
<path opacity="0.5882" d="M102.024 47.8075C107.209 46.3824 110.629 42.375 109.663 38.8569C108.696 35.3387 103.708 33.6419 98.5224 35.067C93.3367 36.4922 89.9166 40.4995 90.8834 44.0177C91.8502 47.5359 96.8378 49.2326 102.024 47.8075Z" fill="#FDD3E4"/>
<path opacity="0.6078" d="M101.974 47.6065C107.012 46.2168 110.332 42.3222 109.391 38.9074C108.449 35.4927 103.601 33.8511 98.5633 35.2407C93.5254 36.6303 90.2049 40.525 91.1468 43.9397C92.0887 47.3544 96.9362 48.9961 101.974 47.6065Z" fill="#FDD2E3"/>
<path opacity="0.6275" d="M101.924 47.4101C106.814 46.0562 110.035 42.2744 109.119 38.963C108.202 35.6517 103.494 34.0649 98.6043 35.4187C93.7142 36.7726 90.4931 40.5545 91.4099 43.8658C92.3266 47.1771 97.034 48.7639 101.924 47.4101Z" fill="#FDD1E2"/>
<path opacity="0.6471" d="M101.903 47.2392C106.645 45.9209 109.766 42.2455 108.872 39.0298C107.978 35.8142 103.409 34.2761 98.666 35.5944C93.923 36.9127 90.8027 40.5882 91.6964 43.8038C92.5901 47.0195 97.1596 48.5575 101.903 47.2392Z" fill="#FDCFE1"/>
<path opacity="0.6667" d="M101.859 47.0379C106.462 45.7529 109.489 42.1882 108.62 39.0759C107.751 35.9635 103.315 34.4821 98.7128 35.7671C94.1101 37.0521 91.0833 40.6168 91.9521 43.7291C92.821 46.8415 97.2565 48.3229 101.859 47.0379Z" fill="#FDCEE0"/>
<path opacity="0.6863" d="M101.822 46.8264C106.276 45.5766 109.203 42.1244 108.359 39.1156C107.515 36.1068 103.22 34.6808 98.7652 35.9305C94.3105 37.1803 91.3835 40.6325 92.2275 43.6413C93.0716 46.6501 97.3671 48.0761 101.822 46.8264Z" fill="#FDCCDF"/>
<path opacity="0.7059" d="M101.781 46.6433C106.088 45.4292 108.916 42.0894 108.097 39.1838C107.278 36.2781 103.122 34.9068 98.8147 36.121C94.5074 37.3351 91.6796 40.6748 92.4986 43.5805C93.3176 46.4862 97.4732 47.8574 101.781 46.6433Z" fill="#FDCBDF"/>
<path opacity="0.7255" d="M101.738 46.4564C105.898 45.2778 108.625 42.0448 107.829 39.2352C107.033 36.4256 103.015 35.1034 98.8558 36.282C94.6962 37.4606 91.9695 40.6936 92.7656 43.5032C93.5616 46.3128 97.5789 47.635 101.738 46.4564Z" fill="#FDC9DE"/>
<path opacity="0.7451" d="M101.705 46.2521C105.717 45.109 108.344 41.9885 107.573 39.2822C106.802 36.5759 102.925 35.3087 98.9127 36.4518C94.9008 37.5948 92.2735 40.7154 93.0445 43.4217C93.8156 46.1279 97.6929 47.3952 101.705 46.2521Z" fill="#FDC8DD"/>
<path opacity="0.7647" d="M101.66 46.0677C105.524 44.9602 108.052 41.9521 107.306 39.349C106.56 36.746 102.823 35.5336 98.9581 36.6411C95.0937 37.7486 92.5657 40.7567 93.3117 43.3598C94.0577 45.9629 97.7952 47.1752 101.66 46.0677Z" fill="#FDC6DC"/>
<path opacity="0.7843" d="M101.638 45.8671C105.355 44.7952 107.784 41.8996 107.063 39.3997C106.342 36.8997 102.744 35.742 99.0272 36.814C95.3102 37.8859 92.8813 40.7815 93.6022 43.2815C94.3231 45.7814 97.9208 46.9391 101.638 45.8671Z" fill="#FDC5DB"/>
<path opacity="0.8039" d="M101.592 45.6838C105.161 44.6475 107.489 41.8587 106.791 39.4548C106.093 37.0508 102.634 35.942 99.0646 36.9783C95.4952 38.0145 93.1673 40.8033 93.8651 43.2072C94.563 45.6112 98.0223 46.72 101.592 45.6838Z" fill="#FDC4DA"/>
<path opacity="0.8235" d="M101.543 45.4927C104.972 44.4899 107.207 41.812 106.534 39.5115C105.861 37.2109 102.536 36.1589 99.107 37.1618C95.6781 38.1646 93.4438 40.8425 94.1166 43.143C94.7894 45.4436 98.1145 46.4956 101.543 45.4927Z" fill="#FDC2D9"/>
<path opacity="0.8431" d="M101.509 45.2928C104.79 44.3257 106.925 41.7605 106.278 39.5632C105.63 37.366 102.445 36.3688 99.1639 37.3359C95.8826 38.3029 93.7476 40.8681 94.3952 43.0654C95.0427 45.2626 98.2277 46.2598 101.509 45.2928Z" fill="#FCC1D8"/>
<path opacity="0.8627" d="M101.467 45.0961C104.601 44.1647 106.637 41.7121 106.014 39.618C105.392 37.5239 102.347 36.5814 99.2132 37.5128C96.0795 38.4442 94.0436 40.8968 94.6659 42.9909C95.2883 45.0849 98.3332 46.0275 101.467 45.0961Z" fill="#FCBFD7"/>
<path opacity="0.8824" d="M101.428 44.9052C104.414 44.0096 106.349 41.6639 105.749 39.666C105.15 37.6682 102.244 36.7746 99.2579 37.6703C96.2721 38.5659 94.3374 40.9116 94.9366 42.9095C95.5359 44.9073 98.4422 45.8009 101.428 44.9052Z" fill="#FCBED6"/>
<path opacity="0.902" d="M101.39 44.7167C104.228 43.8566 106.063 41.6235 105.489 39.7289C104.915 37.8343 102.149 36.9957 99.3109 37.8558C96.4727 38.7159 94.6373 40.9489 95.2114 42.8435C95.7855 44.7381 98.5517 45.5767 101.39 44.7167Z" fill="#FCBCD6"/>
<path opacity="0.9216" d="M105.227 39.7927C105.776 41.5781 104.032 43.7069 101.34 44.5309C98.6486 45.3549 96.0255 44.5721 95.4761 42.7729C94.9268 40.9875 96.671 38.8587 99.3628 38.0347C102.055 37.2107 104.691 37.9935 105.227 39.7927Z" fill="#FCBBD5"/>
<path opacity="0.9412" d="M104.967 39.8327C105.489 41.522 103.854 43.5271 101.3 44.3237C98.7591 45.1065 96.2596 44.3786 95.7377 42.6894C95.2158 41.0001 96.8501 38.9949 99.4046 38.1983C101.959 37.4155 104.445 38.1434 104.967 39.8327Z" fill="#FCB9D4"/>
<path opacity="0.9608" d="M104.716 39.8885C105.21 41.4816 103.672 43.3769 101.268 44.1323C98.865 44.8877 96.5165 44.2147 96.0221 42.6216C95.5277 41.0284 97.0659 39.1331 99.4693 38.3778C101.859 37.6224 104.207 38.3091 104.716 39.8885Z" fill="#FCB8D3"/>
<path opacity="0.9804" d="M104.453 39.9437C104.92 41.427 103.478 43.2124 101.225 43.9403C98.9729 44.6545 96.7618 44.0365 96.2948 42.5532C95.8279 41.0699 97.2699 39.2845 99.5222 38.5566C101.761 37.8424 103.972 38.4605 104.453 39.9437Z" fill="#FCB6D2"/>
<path d="M99.5668 38.7351C101.668 38.0483 103.742 38.6252 104.195 40.0123C104.648 41.3994 103.302 43.075 101.201 43.7617C99.0998 44.4484 97.026 43.8716 96.5728 42.4844C96.1196 41.0973 97.4518 39.408 99.5668 38.7351Z" fill="#FCB5D1"/>
<path d="M114.756 33.1825C114.962 33.2237 115.154 33.1001 115.209 32.9078C115.251 32.7018 115.127 32.5095 114.935 32.4546C105.98 30.3808 98.2893 35.7645 98.2207 35.8194C98.0559 35.943 98.0147 36.1765 98.1383 36.3413C98.2069 36.4375 98.3305 36.4924 98.4404 36.4924C98.5091 36.4924 98.5915 36.4649 98.6602 36.4237C98.7151 36.3825 106.131 31.1773 114.756 33.1825Z" fill="black"/>
<path d="M115.954 43.9647C108.771 38.2376 99.5012 39.7896 99.4188 39.8033C99.2128 39.8445 99.0755 40.0368 99.1167 40.2428C99.1579 40.4488 99.3502 40.5861 99.5562 40.5449C99.6523 40.5312 108.579 39.0342 115.501 44.5553C115.57 44.6102 115.652 44.6377 115.735 44.6377C115.844 44.6377 115.954 44.5827 116.023 44.5003C116.147 44.3355 116.119 44.102 115.954 43.9647Z" fill="black"/>
<path d="M112.84 37.8384C106.123 34.6427 99.0975 37.5713 99.035 37.5973C98.8802 37.6677 98.8072 37.8446 98.8776 37.9994C98.948 38.1543 99.1248 38.2273 99.2797 38.1569C99.353 38.1284 106.118 35.3063 112.592 38.3874C112.656 38.4181 112.726 38.4246 112.791 38.4095C112.878 38.3893 112.954 38.3258 112.993 38.2481C113.06 38.0954 112.996 37.9164 112.84 37.8384Z" fill="black"/>
<path d="M54.6233 51.5861C54.8174 51.6373 55.0115 51.5221 55.0632 51.343C55.115 51.151 54.9986 50.959 54.8174 50.9078C54.7268 50.8822 46.1874 48.6296 38.9419 53.3267C38.7737 53.4291 38.7348 53.6467 38.8383 53.8131C38.903 53.9155 39.0195 53.9667 39.1359 53.9667C39.2006 53.9667 39.2653 53.9539 39.33 53.9155C46.2909 49.3976 54.5328 51.5605 54.6233 51.5861Z" fill="black"/>
<path d="M54.3937 53.4142C54.5606 53.4268 54.6933 53.2852 54.698 53.1097C54.7 52.9223 54.5666 52.7651 54.41 52.7501C54.3318 52.7426 46.9852 52.1844 42.1159 57.8411C42.0015 57.9663 42.0152 58.1751 42.1329 58.3109C42.2062 58.3942 42.3106 58.4208 42.4044 58.4C42.4566 58.3884 42.5061 58.3649 42.5503 58.3177C47.2271 52.8782 54.3154 53.4067 54.3937 53.4142Z" fill="black"/>
<path d="M55.1513 54.814C55.0551 54.8277 45.8261 56.5582 41.0605 64.414C40.9506 64.5926 41.0055 64.826 41.1841 64.9359C41.239 64.9771 41.3077 64.9909 41.3763 64.9909C41.5 64.9909 41.6236 64.9222 41.6922 64.8123C46.2793 57.2449 55.1925 55.5693 55.2749 55.5556C55.4809 55.5144 55.6182 55.3221 55.577 55.1161C55.5496 54.9101 55.3573 54.7727 55.1513 54.814Z" fill="black"/>
<path d="M67.0493 41.0247C68.3815 46.4359 65.4837 48.9905 61.391 50.0068C57.2846 51.0231 53.5353 50.1167 52.1894 44.7054C50.8572 39.2942 53.0958 34.089 57.1885 33.0727C61.3086 32.0564 65.7171 35.6135 67.0493 41.0247Z" fill="black"/>
<path d="M60.7477 44.524C62.6092 43.8965 63.5232 41.6224 62.7892 39.4445C62.0551 37.2667 59.951 36.0098 58.0894 36.6373C56.2278 37.2648 55.3138 39.5389 56.0479 41.7168C56.7819 43.8946 58.8861 45.1515 60.7477 44.524Z" fill="white"/>
<path d="M58.8175 46.4657C59.051 47.1387 58.7351 47.8529 58.1308 48.0589C57.5265 48.2649 56.8536 47.8803 56.6201 47.2074C56.3866 46.5344 56.7025 45.8202 57.3068 45.6142C57.9111 45.4082 58.584 45.7928 58.8175 46.4657Z" fill="white"/>
<path d="M95.6977 33.6515C97.0299 39.0627 94.1321 41.6172 90.0394 42.6335C85.9331 43.6499 82.1838 42.7434 80.8378 37.3322C79.5057 31.921 81.7443 26.7158 85.8369 25.6995C89.957 24.6694 94.3656 28.2403 95.6977 33.6515Z" fill="black"/>
<path d="M89.7125 37.2828C91.574 36.6553 92.4881 34.3811 91.754 32.2033C91.02 30.0254 88.9158 28.7686 87.0542 29.3961C85.1927 30.0236 84.2787 32.2977 85.0127 34.4756C85.7468 36.6534 87.8509 37.9103 89.7125 37.2828Z" fill="white"/>
<path d="M88.496 41.5763C89.0997 41.3728 89.4046 40.6601 89.1768 39.9844C88.9491 39.3088 88.2751 38.9261 87.6713 39.1296C87.0676 39.3331 86.7627 40.0458 86.9905 40.7214C87.2182 41.397 87.8922 41.7798 88.496 41.5763Z" fill="white"/>
<path d="M82.9369 45.7491C82.676 45.6392 82.3601 45.7629 82.2503 46.0238C81.0829 48.7843 78.1439 48.1388 76.9353 47.7405C76.743 47.6719 76.5508 47.7268 76.4134 47.8504C76.2761 47.8642 76.1525 47.9191 76.0701 48.029C73.3645 51.2153 71.071 49.4573 70.9749 49.3886C70.7551 49.2101 70.4255 49.2376 70.2332 49.471C70.0547 49.6908 70.0822 50.0204 70.3156 50.2127C70.3294 50.2264 71.3045 50.9955 72.7465 50.9955C73.8864 50.9955 75.3147 50.5148 76.798 48.8118C77.3061 48.9629 78.1439 49.1689 79.064 49.1689C80.5747 49.1689 82.3189 48.6195 83.2391 46.4495C83.3352 46.1611 83.2116 45.859 82.9369 45.7491Z" fill="black"/>
<path d="M78.1424 44.8713C78.4446 45.9701 77.648 47.1512 76.3708 47.4945C75.0935 47.8379 73.8163 47.2336 73.5142 46.1349C73.212 45.0362 77.8403 43.7726 78.1424 44.8713Z" fill="black"/>
</g>
<defs>
<clipPath id="clip0_1634_537">
<rect width="167" height="185" fill="white"/>
</clipPath>
</defs>
</svg>
