<svg width="723" height="732" viewBox="0 0 723 732" fill="none" xmlns="http://www.w3.org/2000/svg">
<path d="M169.117 180.801L166.814 185.22C165.88 186.714 165.009 188.332 164.2 189.95C161.026 188.892 141.732 183.104 135.26 193.311C135.26 193.311 130.281 200.967 138.185 215.655C138.185 215.655 138.247 218.331 133.641 220.945C129.036 223.559 131.899 237.999 152.188 238.31L152.002 253.185V253.994C143.039 252.003 121.941 222.377 121.941 222.377C111.236 201.34 116.526 180.615 118.082 175.511C118.331 174.702 118.518 174.266 118.518 174.266C140.55 168.167 167.001 179.37 167.001 179.37L169.117 180.801Z" fill="#FCB5D1"/>
<path d="M502.827 139.475C502.827 139.599 502.827 139.724 502.827 139.848C502.827 139.91 502.827 139.973 502.827 140.035C502.641 141.591 501.334 153.043 498.035 165.615C497.288 168.416 496.479 171.279 495.483 174.079C495.483 174.142 495.483 174.142 495.483 174.142C493.99 178.623 492.185 182.917 490.131 186.838C490.131 186.838 482.662 178.996 477.808 170.781C476.252 167.731 475.194 165.428 475.194 165.428C491.438 156.466 490.94 148.126 490.567 141.591C490.193 135.056 478.119 135.927 478.119 135.927C478.119 135.927 478.43 118.189 468.286 110.036C458.141 101.882 436.233 122.421 436.233 122.421L434.055 121.052C430.756 118.687 427.644 116.695 424.844 115.264C425.093 114.517 432.748 92.0487 469.904 89.6214C469.966 89.6214 469.966 89.6214 470.028 89.6214C474.758 89.3102 479.986 89.3102 485.774 89.8081C486.21 90.3682 492.683 98.2726 497.599 110.098C497.599 110.16 497.662 110.285 497.662 110.347C499.715 115.264 501.396 120.803 502.329 126.778V126.84V126.902C502.89 130.948 503.139 135.118 502.827 139.475Z" fill="#FCB5D1"/>
<path d="M643.899 450.164C608.113 438.027 597.532 421.72 597.532 421.72C597.532 421.72 612.22 409.584 611.909 399.314C611.909 399.314 590.499 403.111 582.844 401.368C579.981 400.684 572.45 397.759 563.55 393.526C548.862 386.556 530.253 376.162 521.789 366.764L527.204 331.91C527.204 331.91 543.759 305.521 542.639 284.173C542.639 284.173 542.514 281.248 543.946 278.82C544.319 278.136 544.879 277.451 545.626 276.953C545.626 276.953 530.253 272.036 534.672 270.667C539.153 269.298 543.323 269.609 544.319 266.372L536.353 256.788L532.867 246.269C532.867 246.269 530.004 234.631 527.391 230.647C524.777 226.726 506.292 211.167 498.948 203.822C491.604 196.478 489.239 191.126 489.239 191.126L487.061 187.703C484.82 185.4 475.173 165.483 475.173 165.483C491.479 156.521 490.919 148.181 490.546 141.646C490.172 135.111 478.098 135.982 478.098 135.982C478.098 135.982 478.41 118.244 468.265 110.091C458.12 101.938 436.213 122.476 436.213 122.476L424.823 115.319C440.818 83.8883 485.754 89.801 485.754 89.801C485.754 89.801 497.268 101.128 502.371 126.771C506.852 149.426 492.662 180.919 490.172 186.893C493.347 179.612 501.313 164.674 503.118 136.978C504.985 107.601 489.924 84.3862 489.924 84.3862C489.924 84.3862 441.129 62.6026 385.8 96.9584L382.19 97.892C382.19 97.892 285.038 77.1665 221.057 122.663L199.897 139.779C199.897 139.779 138.095 131.128 108.532 168.72C108.532 168.72 107.474 192.37 116.934 212.162C116.934 212.162 111.146 177.931 119.922 174.383C128.759 170.836 159.442 173.823 167.16 180.856L169.276 180.919L164.857 190.254C164.857 190.254 142.576 182.35 135.481 193.491C135.481 193.491 130.502 201.146 138.406 215.772C138.406 215.772 138.468 218.449 133.863 221.063C129.257 223.677 132.12 238.116 152.41 238.427L152.223 254.049L152.161 257.099C152.161 257.099 150.231 288.592 141.393 296.309C141.393 296.309 144.381 300.23 149.049 300.977C149.049 300.977 141.705 309.628 137.286 319.587L135.917 323.383C135.917 323.383 61.6672 320.769 35.0296 421.907C35.0296 421.907 27.9345 450.226 30.9841 468.4C30.9841 468.4 31.8555 508.357 45.8589 540.472C45.8589 540.472 49.5309 551.053 39.6974 550.119C39.6974 550.119 68.949 586.716 91.5412 594.371C114.133 602.026 118.863 603.458 118.863 603.458C118.863 603.458 142.949 631.03 182.532 633.706C182.532 633.706 178.736 635.137 183.404 638.125C188.072 641.05 226.41 669.555 267.238 646.963C267.238 646.963 284.415 634.39 272.839 605.138C272.839 605.138 272.03 604.454 275.578 598.354C277.445 595.118 277.071 590.388 277.943 593.997L283.482 601.466L286.158 615.034L295.743 642.357C295.743 642.357 323.127 663.083 358.478 640.988L367.502 610.491L371.112 611.922C371.112 611.922 374.162 640.926 375.78 642.668C377.398 644.411 401.484 655.863 424.948 645.905C424.948 645.905 432.167 643.54 435.59 633.83C439.013 624.183 445.424 607.068 445.424 607.068C445.424 607.068 505.732 616.59 549.111 601.279C574.131 592.441 612.531 583.106 663.877 515.577C663.877 515.577 693.502 472.694 696.179 457.446C696.241 457.134 679.748 462.238 643.899 450.164Z" fill="white"/>
<g opacity="0.6">
<path opacity="0.6" d="M516.309 410.147C521.475 381.517 510.832 347.286 520.603 340.502C539.959 326.996 532.864 284.363 532.864 284.363C535.665 284.114 539.835 279.01 545.623 276.956C544.191 279.384 543.569 288.657 543.569 288.657C544.689 310.005 528.943 332.598 528.943 332.598L521.973 369.194C520.541 377.347 522.968 400.189 522.968 400.189C522.968 400.189 526.827 409.961 529.192 418.176C531.557 426.392 525.956 431.931 525.956 431.931C525.956 431.931 527.761 441.951 529.628 455.146C531.495 468.341 521.35 488.195 521.35 488.195C505.231 502.261 513.073 516.202 513.073 516.202C509.089 519.127 508.218 528.712 508.218 528.712C508.405 538.67 501.248 548.753 493.966 555.226C486.684 561.699 489.983 571.657 481.643 585.225C475.481 595.246 472.743 595.246 472.743 595.246L458.864 595.37C451.831 607.88 442.309 607.942 442.309 607.942C453.698 604.395 462.66 587.217 464.901 576.076C465.648 572.093 469.631 568.794 473.676 569.167C488.115 570.35 484.879 546.762 499.754 531.326C510.521 520.186 502.866 504.439 498.136 496.535C496.704 494.107 497.949 490.933 500.687 490.186C503.861 489.315 508.592 487.759 513.757 483.091C537.096 462.055 524.587 418.176 511.268 413.819C510.583 413.57 510.396 412.761 510.894 412.263C511.766 411.268 513.446 410.147 516.185 410.459L516.309 410.147Z" fill="#DBD2D2"/>
<path opacity="0.6" d="M177.06 412.08C169.467 408.284 147.435 417.931 129.199 433.864C129.199 433.864 132 424.777 157.082 408.782C160.505 406.603 167.662 405.981 171.77 403.491C171.77 403.491 155.09 390.67 154.966 350.028C154.966 350.028 152.414 341.19 158.575 343.742C158.575 343.742 161.127 396.023 185.213 410.898C185.275 410.96 187.08 417.059 177.06 412.08Z" fill="#DBD2D2"/>
<path opacity="0.6" d="M659.896 456.885C659.896 456.885 680.248 459.624 673.962 476.864C667.676 494.104 641.1 540.472 619.566 546.821C619.566 546.821 612.72 549.559 607.679 549.808C605.749 549.932 604.629 552.111 605.749 553.729C606.87 555.347 608.612 557.152 611.413 558.273C611.413 558.273 588.012 591.321 535.794 595.305C491.232 598.666 479.345 589.081 479.345 589.081C479.345 589.081 471.005 597.11 457.686 595.305C457.686 595.305 453.703 604.765 446.297 606.943C446.297 606.943 526.148 628.353 605.998 575.513L638.237 546.883L662.759 519.56C662.759 519.56 697.052 468.898 695.931 457.632C695.807 457.632 674.771 460.807 659.896 456.885Z" fill="#DBD2D2"/>
</g>
<path d="M143.004 350.274C147.361 344.051 154.145 342.681 154.269 342.681C155.576 342.432 156.448 341.188 156.199 339.943C155.95 338.636 154.767 337.764 153.46 338.013C153.087 338.076 144.685 339.632 139.146 347.598C138.399 348.656 138.648 350.15 139.768 350.897C140.204 351.208 140.639 351.333 141.137 351.333C141.822 351.333 142.569 350.959 143.004 350.274Z" fill="black"/>
<path d="M524.832 280.693C523.525 280.631 522.405 281.626 522.343 282.933C522.28 284.24 523.276 285.361 524.583 285.423C524.645 285.423 524.894 285.423 525.33 285.423C528.131 285.423 538.151 284.987 547.798 279.075C548.918 278.39 549.291 276.896 548.607 275.776C547.922 274.656 546.429 274.282 545.308 274.967C535.537 281.066 524.957 280.631 524.832 280.693Z" fill="black"/>
<path d="M139.021 426.959C140.016 426.087 140.079 424.593 139.207 423.598C138.336 422.602 136.842 422.54 135.847 423.411C128.44 430.133 103.67 456.024 95.8278 508.927C95.5789 510.981 90.3509 558.78 102.985 581.249C103.421 581.995 104.23 582.493 105.039 582.493C105.412 582.493 105.848 582.369 106.221 582.182C107.342 581.56 107.777 580.066 107.155 578.946C95.2677 557.785 100.558 509.985 100.558 509.549C108.089 458.327 131.926 433.431 139.021 426.959Z" fill="black"/>
<path d="M153.205 413.329C153.828 413.329 154.45 413.081 154.886 412.645C154.948 412.583 159.429 408.226 169.325 407.168C169.947 407.106 170.507 406.794 170.881 406.296C172.997 409.097 175.3 411.898 177.851 414.761C178.349 415.259 178.972 415.57 179.594 415.57C180.154 415.57 180.714 415.383 181.212 414.948C182.208 414.076 182.27 412.583 181.399 411.587C149.409 376.048 158.62 346.983 158.744 346.672C159.18 345.427 158.495 344.058 157.251 343.622C156.006 343.186 154.637 343.871 154.201 345.116C153.828 346.236 145.923 370.571 168.08 402.5C156.753 403.869 151.587 409.097 151.4 409.284C150.467 410.218 150.529 411.711 151.463 412.645C151.96 413.143 152.583 413.329 153.205 413.329Z" fill="black"/>
<path d="M147.179 423.409C147.677 424.031 148.361 424.342 149.046 424.342C149.544 424.342 150.042 424.156 150.477 423.845C151.535 423.035 151.722 421.542 150.913 420.484C146.307 414.571 137.968 414.26 137.656 414.26C136.287 414.26 135.229 415.256 135.229 416.563C135.167 417.87 136.225 418.99 137.532 418.99C137.594 419.052 144.005 419.301 147.179 423.409Z" fill="black"/>
<path d="M35.3915 426.768C35.5782 426.83 35.7649 426.83 35.9516 426.83C37.0096 426.83 38.0054 426.083 38.2544 424.963C39.8103 418.179 41.9264 411.581 44.4159 405.295C65.3277 353.201 91.343 329.426 131.611 325.754C132.918 325.63 133.913 324.447 133.789 323.14C133.664 321.833 132.544 320.837 131.175 320.962C88.9157 324.82 61.6557 349.467 39.997 403.49C37.3831 409.963 35.267 416.809 33.6488 423.842C33.3376 425.212 34.1467 426.456 35.3915 426.768Z" fill="black"/>
<path d="M32.6057 445.25C31.2987 445.125 30.1784 446.121 30.054 447.428C25.9463 499.958 46.8581 547.384 47.107 547.819C47.4805 548.691 48.3518 549.251 49.2853 549.251C49.5965 549.251 49.97 549.189 50.2811 549.064C51.4637 548.504 52.0238 547.135 51.4637 545.89C51.2769 545.454 30.8008 499.086 34.8462 447.802C34.9085 446.495 33.9127 445.312 32.6057 445.25Z" fill="black"/>
<path d="M650.884 529.839C648.333 532.889 645.719 535.877 643.105 538.739C642.233 539.735 642.296 541.229 643.229 542.1C643.665 542.536 644.287 542.723 644.847 542.723C645.47 542.723 646.154 542.474 646.59 541.976C649.266 539.051 651.88 536.001 654.494 532.889C655.365 531.893 655.179 530.399 654.183 529.528C653.249 528.657 651.756 528.844 650.884 529.839Z" fill="black"/>
<path d="M697.096 456.641C695.913 455.147 694.108 454.338 692.179 454.587C654.463 459.379 618.054 435.542 601.063 422.16C608.718 417.057 613.013 408.281 615.067 403.178C615.689 401.622 615.378 399.941 614.32 398.634C613.262 397.327 611.581 396.705 609.963 397.016C600.503 398.696 594.342 399.568 589.674 399.941C546.917 388.24 525.631 366.643 525.445 366.394C525.258 366.146 525.009 366.021 524.698 365.897C526.689 347.661 531.357 333.034 531.482 332.786C531.668 332.288 531.606 331.79 531.482 331.354C537.954 320.836 545.547 304.342 545.983 284.364C545.983 283.057 544.987 281.936 543.68 281.936C542.373 281.874 541.253 282.932 541.253 284.239C540.506 316.728 519.096 340.379 518.91 340.565C518.038 341.561 518.101 343.055 519.034 343.926C519.47 344.362 520.092 344.549 520.652 344.549C521.275 344.549 521.959 344.3 522.395 343.802C522.52 343.677 523.142 342.993 524.138 341.81C520.03 358.988 514.18 393.406 526.254 417.43C526.503 418.053 528.059 422.472 527.001 426.268C526.067 423.219 525.32 421.289 525.196 420.978C524.698 419.733 523.329 419.173 522.084 419.671C520.839 420.169 520.279 421.538 520.777 422.783C520.964 423.219 536.772 463.86 516.98 489.627C515.798 490.872 508.205 499.212 510.01 510.353C509.387 505.996 508.578 503.133 508.454 502.76C508.08 501.515 506.773 500.768 505.529 501.142C504.284 501.515 503.537 502.822 503.91 504.067C503.973 504.378 512.686 535.435 494.077 551.742L489.036 557.343C488.787 557.592 482.936 564.252 481.505 578.878C481.505 578.94 480.26 586.409 474.41 590.454C471.111 592.695 466.941 593.442 461.9 592.633C466.506 583.546 467.937 574.708 467.999 574.023C468.186 572.716 467.315 571.534 466.008 571.285C464.701 571.098 463.518 571.969 463.269 573.276C463.207 573.525 458.975 599.914 441.549 606.761C440.677 607.072 440.179 607.881 440.055 608.69C439.37 608.192 438.499 608.068 437.69 608.379C436.445 608.939 436.258 608.939 436.009 609.001C435.636 609.064 435.076 609.126 433.893 609.437C432.649 609.81 431.902 611.117 432.213 612.362C432.524 613.42 433.458 614.105 434.516 614.105C434.702 614.105 434.951 614.105 435.138 614.043C436.009 613.794 436.383 613.731 436.632 613.731C437.441 613.607 437.939 613.483 439.557 612.798C440.366 612.424 440.864 611.678 440.988 610.869C441.424 611.18 441.86 611.366 442.42 611.366C442.482 611.366 442.544 611.366 442.607 611.304C438.81 622.881 433.022 638.005 429.288 640.93C422.379 646.407 402.401 650.39 382.983 643.668C380.058 642.673 377.942 640.059 377.506 637.009L374.83 615.474C381.116 617.839 388.335 619.333 397.671 619.333C405.824 619.333 415.658 618.213 427.981 615.599C429.288 615.35 430.097 614.043 429.848 612.798C429.599 611.491 428.292 610.682 427.047 610.931C399.538 616.719 385.597 615.039 373.959 609.935C373.461 609.126 372.589 608.628 371.594 608.752H371.531C371.469 608.69 371.407 608.69 371.345 608.628C375.203 590.765 378.377 572.032 379.062 567.986C387.962 557.405 387.962 547.198 387.962 546.7C387.962 545.393 386.904 544.335 385.597 544.335C385.597 544.335 385.597 544.335 385.535 544.335C384.228 544.335 383.17 545.456 383.17 546.763C383.17 546.887 383.17 555.787 375.203 565.123C375.017 565.247 374.892 565.434 374.768 565.621C372.901 567.737 370.598 569.915 367.797 571.969C352.922 582.986 358.337 599.168 363.254 606.201C363.689 606.885 364.436 607.196 365.183 607.196C365.681 607.196 366.117 607.072 366.552 606.761C366.677 606.699 366.739 606.512 366.864 606.45C363.627 621.511 360.08 635.453 357.341 639.623C355.101 642.984 347.134 645.971 336.492 647.278C321.368 649.208 305.933 647.403 301.39 643.233C299.149 641.179 294.481 633.586 287.635 605.454C292.116 607.259 297.531 608.192 304.066 608.192C304.128 608.192 304.253 608.192 304.315 608.192C305.622 608.192 306.68 607.134 306.68 605.827C306.68 604.52 305.622 603.462 304.315 603.462C304.253 603.462 304.128 603.462 304.066 603.462C294.046 603.462 286.888 601.221 282.843 596.803C281.723 595.62 280.976 594.375 280.478 593.255C288.631 573.339 285.706 548.879 271.702 520.498C271.142 519.315 269.711 518.817 268.528 519.44C267.346 520 266.848 521.431 267.47 522.614C279.42 546.825 282.967 567.924 278.175 585.413C277.864 585.226 277.553 585.164 277.242 585.102C275.935 584.977 274.752 585.911 274.628 587.218C274.628 587.405 274.379 589.894 275.374 593.13C264.981 616.159 241.082 623.939 240.833 624.001C239.588 624.374 238.903 625.744 239.277 626.988C239.588 627.984 240.521 628.669 241.579 628.669C241.828 628.669 242.077 628.607 242.264 628.544C243.135 628.295 259.255 623.13 271.453 608.379L272.636 612.362C275.748 623.503 275.312 632.465 271.329 639C266.723 646.531 258.695 648.212 258.508 648.212C221.165 657.361 195.212 644.54 183.636 636.76C190.731 637.444 198.324 637.444 206.54 636.698C209.714 637.196 217.493 639 220.045 642.299L220.73 643.233H221.912C222.41 643.233 226.269 643.108 228.696 639.934C230.626 637.382 230.875 633.772 229.443 629.229C229.07 627.984 227.7 627.237 226.456 627.673C225.211 628.046 224.464 629.416 224.9 630.66C225.833 633.648 225.833 635.889 224.9 637.133C224.34 637.88 223.531 638.254 222.846 638.378C218.054 633.71 208.096 632.154 206.913 631.967L206.602 631.905H206.291C141.875 638.254 114.802 592.197 114.553 591.699C113.93 590.579 112.437 590.143 111.316 590.828C110.196 591.45 109.76 592.944 110.445 594.064C110.507 594.189 111.69 596.118 113.993 599.168C96.1926 594.313 73.8493 584.728 58.1655 566.057C34.5775 537.925 29.6607 538.049 27.9803 538.049C27.0467 538.049 26.1754 538.423 25.6775 539.107C24.8684 540.165 25.0551 541.659 26.1132 542.468C26.7355 542.966 27.5446 543.09 28.2292 542.904C29.474 543.339 35.4488 546.389 54.5557 569.169C72.7913 590.89 99.4289 600.786 118.536 605.267C118.723 605.329 118.909 605.329 119.096 605.329H119.158C128.743 615.785 146.605 630.349 174.052 635.453C177.786 638.938 198.2 656.303 232.617 656.303C240.77 656.303 249.733 655.307 259.504 652.942C259.939 652.88 269.586 650.95 275.312 641.614C280.104 633.897 280.727 623.69 277.179 611.117L275.001 603.711C276.059 602.093 277.117 600.412 278.051 598.607C278.424 599.105 278.797 599.603 279.233 600.101C280.104 601.035 281.038 601.844 282.096 602.653C282.096 602.84 282.096 603.089 282.158 603.275C287.946 627.86 293.361 642.61 298.216 646.967C302.883 651.199 313.464 653.004 324.418 653.004C328.712 653.004 333.069 652.755 337.114 652.195C344.396 651.261 357.154 648.772 361.324 642.424C364.001 638.378 367.05 627.3 369.913 614.914L372.776 637.693C373.461 642.61 376.822 646.656 381.427 648.212C389.082 650.826 396.986 652.008 404.393 652.008C416.28 652.008 426.736 649.083 432.213 644.726C438.499 639.81 446.279 615.661 448.332 609.064C462.523 611.491 476.464 612.736 490.032 612.736C547.539 612.736 598.947 590.952 640.46 548.567C641.393 547.634 641.393 546.14 640.397 545.207C639.464 544.273 637.97 544.273 637.037 545.269C586.998 596.305 525.071 616.408 452.938 605.018C455.49 602.653 457.606 599.914 459.348 597.051C461.527 597.487 463.581 597.736 465.572 597.736C469.929 597.736 473.725 596.616 477.024 594.375C484.555 589.209 486.048 579.998 486.111 579.5C487.418 566.492 492.397 560.642 492.459 560.58L497.189 555.289C512.064 542.157 511.503 521.494 509.885 510.415C510.321 513.091 511.317 515.954 513.059 518.88C513.495 519.626 514.304 520.062 515.113 520.062C515.549 520.062 515.922 519.938 516.296 519.751C517.416 519.066 517.789 517.635 517.105 516.514C509.512 503.693 519.843 493.424 520.279 492.988L520.528 492.739C535.403 473.508 532.229 447.616 528.619 432.803C534.78 426.455 530.735 416.186 530.548 415.75L530.486 415.563C524.075 402.866 523.142 386.622 524.2 371.934C529.615 376.851 545.174 389.423 571.625 399.257C571.314 399.568 571.127 399.941 571.003 400.377C570.691 401.684 571.5 402.929 572.807 403.24C578.658 404.609 582.579 405.356 589.425 404.858C589.425 404.858 589.425 404.858 589.487 404.858C594.404 404.547 600.814 403.613 610.586 401.808C608.656 406.725 604.424 415.065 597.205 419.173C593.408 415.999 591.23 413.945 591.105 413.82C590.172 412.887 588.678 412.949 587.744 413.883C586.811 414.816 586.873 416.31 587.807 417.244C589.861 419.235 638.966 466.35 692.864 459.442C693.113 459.442 693.299 459.504 693.361 459.628C693.486 459.753 693.486 459.939 693.424 460.126C689.565 469.462 678.424 494.109 658.446 520.436C657.637 521.494 657.886 522.987 658.882 523.796C659.318 524.108 659.815 524.294 660.313 524.294C661.06 524.294 661.745 523.983 662.243 523.361C682.532 496.598 693.859 471.516 697.843 461.993C698.527 460.064 698.278 458.135 697.096 456.641ZM367.112 603.587C366.615 602.902 355.785 586.907 370.598 575.953C371.469 575.268 372.34 574.583 373.149 573.961C371.656 582.301 369.602 593.442 367.361 604.147C367.237 603.96 367.175 603.773 367.112 603.587Z" fill="black"/>
<path d="M35.1468 442.83C35.3958 443.95 36.3916 444.759 37.4496 444.759C37.5741 444.759 37.7608 444.759 37.9475 444.697C39.2545 444.448 40.0636 443.203 39.8146 441.896C37.4496 430.009 29.172 427.581 25.1888 427.955C23.8818 428.079 22.886 429.2 23.0105 430.569C23.135 431.876 24.2553 432.872 25.6245 432.747C25.8734 432.623 33.0308 432.125 35.1468 442.83Z" fill="black"/>
<path d="M119.856 223.499C119.98 223.748 120.105 223.934 120.291 224.121C126.266 234.328 134.793 244.784 147.054 254.431C147.489 254.805 147.987 254.929 148.547 254.929C148.983 254.929 149.356 254.805 149.73 254.618C148.921 267.502 146.431 287.916 140.581 294.7C139.336 296.194 139.461 298.434 140.892 299.741C141.826 300.613 143.693 301.982 146.12 302.791C141.888 306.899 137.096 313.309 134.482 323.019L134.419 323.205C134.419 323.205 133.859 326.255 132.241 328.433C131.494 329.429 131.245 330.736 131.556 331.981C131.868 333.226 132.739 334.159 133.921 334.657C137.282 336.026 141.514 337.333 145.249 337.333C147.427 337.333 149.481 336.898 151.161 335.777C152.219 335.031 152.53 333.537 151.784 332.479C151.037 331.421 149.543 331.11 148.485 331.856C146.556 333.163 142.012 332.728 136.598 330.612C138.34 327.935 139.025 324.886 139.149 324.263C142.572 311.567 149.979 305.218 154.024 302.604C154.086 302.542 154.211 302.48 154.273 302.417C155.642 301.546 156.638 301.11 156.763 301.048C157.945 300.55 158.567 299.119 158.007 297.936C157.509 296.754 156.078 296.131 154.895 296.629C154.709 296.692 153.588 297.189 151.846 298.247C148.921 299.181 146.431 297.999 144.937 296.878C153.962 284.555 154.833 248.892 154.833 247.336C154.833 246.029 153.837 244.909 152.53 244.909C151.223 244.909 150.103 245.905 150.103 247.212C150.103 248.207 150.041 249.328 149.979 250.573C137.718 240.926 129.378 230.469 123.714 220.325C114.005 200.408 119.047 180.741 120.478 176.073C142.261 168.915 162.737 177.38 167.219 179.434C165.787 182.11 164.418 184.848 163.173 187.587C163.111 187.525 163.049 187.525 162.924 187.462C161.991 187.151 140.519 180.181 132.863 193.126C131.059 196.114 130.934 200.595 132.428 206.383C132.677 207.441 133.672 208.188 134.731 208.188C134.917 208.188 135.104 208.188 135.291 208.126C136.535 207.815 137.345 206.508 137.033 205.2C135.913 200.844 135.913 197.421 136.971 195.553C142.386 186.404 159.314 191.321 161.244 191.881C158.567 198.292 156.327 204.765 154.647 211.362C154.335 212.607 155.082 213.914 156.389 214.287C156.576 214.35 156.763 214.35 157.012 214.35C158.07 214.35 159.065 213.603 159.314 212.545C162.737 199.101 168.401 186.031 176.118 173.583C176.803 172.463 176.492 170.969 175.372 170.285C174.251 169.6 172.758 169.911 172.073 171.031C171.202 172.401 170.393 173.77 169.584 175.201C165.102 173.023 142.448 163.189 117.864 171.903L116.806 172.276L116.433 173.334C116.246 173.894 113.694 180.741 113.196 190.761C111.267 179.62 111.952 171.467 112.201 169.289C133.921 141.157 176.616 139.85 196.159 140.908C196.097 140.97 196.034 141.032 195.972 141.095C195.039 142.028 195.039 143.522 195.972 144.455C196.408 144.953 197.03 145.14 197.653 145.14C198.275 145.14 198.835 144.891 199.333 144.455C205.93 137.92 210.598 134.497 210.66 134.435L210.971 134.186C211.283 133.875 245.638 100.079 316.153 95.2868C340.799 93.6063 367.125 96.0959 388.348 102.071C389.593 102.444 390.9 101.697 391.274 100.453C391.585 99.3323 391.025 98.1498 390.029 97.6519C399.987 91.2413 441.064 67.9017 488.675 86.6356C489.422 87.8804 491.102 91.0545 493.032 95.7847C490.169 91.179 487.866 88.4405 487.617 88.0671L486.995 87.3202L485.999 87.258C444.611 83.8971 428.18 104.934 423.824 112.029C423.139 111.656 422.392 111.22 421.708 110.846C420.525 110.224 419.094 110.66 418.471 111.842C417.849 113.025 418.285 114.456 419.467 115.079C434.902 123.356 446.603 132.381 454.32 141.966C454.818 142.526 455.503 142.837 456.187 142.837C456.685 142.837 457.245 142.651 457.681 142.339C458.677 141.53 458.863 140.036 458.054 138.978C453.449 133.19 447.412 127.651 440.192 122.361C443.864 119.062 458.366 106.925 468.884 112.963C471.809 114.643 473.987 119.684 475.107 127.215C475.294 128.398 476.29 129.269 477.472 129.269C477.597 129.269 477.721 129.269 477.846 129.269C479.153 129.082 480.024 127.838 479.837 126.593C478.468 117.382 475.605 111.407 471.311 108.917C456.81 100.577 438.574 117.382 436.271 119.622C433.72 117.879 430.981 116.137 428.118 114.456C431.915 108.232 446.789 89.2496 484.63 92.1126C487.555 95.9714 500.314 113.709 500.749 134.622C500.749 135.057 500.749 135.493 500.749 135.991C500.749 137.236 500.687 138.481 500.625 139.725C500.625 139.912 500.625 140.099 500.625 140.285C500.065 153.293 496.953 167.919 489.484 183.417L488.489 185.284C483.634 177.815 480.273 170.969 478.344 166.488C494.588 157.028 494.526 146.509 492.97 140.97C492.347 138.729 490.916 136.987 488.924 135.929C483.323 132.941 474.361 135.618 473.365 135.991C472.12 136.364 471.435 137.734 471.809 138.978C472.182 140.223 473.552 140.908 474.796 140.534C476.975 139.85 483.385 138.418 486.621 140.161C487.555 140.659 488.053 141.343 488.364 142.339C490.791 151.053 483.758 157.712 476.477 162.069C476.228 161.447 476.103 161.135 476.103 161.073C475.668 159.828 474.298 159.144 473.054 159.579C471.809 160.015 471.124 161.322 471.56 162.567C471.996 163.812 482.14 193.188 506.537 212.98C507.533 213.789 508.529 214.536 509.463 215.345C517.616 221.88 525.271 227.98 528.943 237.191C529.192 237.876 529.441 238.56 529.69 239.183C521.599 230.967 510.521 228.602 509.898 228.478C508.591 228.229 507.346 229.038 507.098 230.345C506.849 231.652 507.658 232.897 508.965 233.146C509.151 233.208 526.391 236.88 531.744 250.884C534.544 258.29 539.025 263.829 541.39 266.443C541.515 266.63 541.515 266.755 541.515 266.879C541.515 267.004 541.453 267.128 541.266 267.253C539.399 268.311 537.034 268.622 534.358 268.311C533.051 268.124 531.868 269.057 531.681 270.365C531.495 271.672 532.428 272.854 533.735 273.041C534.606 273.165 535.416 273.228 536.225 273.228C538.901 273.228 541.453 272.605 543.569 271.485C545 270.676 545.996 269.306 546.245 267.688C546.494 266.07 546.058 264.452 544.938 263.269C542.822 260.966 538.901 256.112 536.349 249.639C536.411 245.407 535.416 240.677 533.362 235.511C529.254 225.179 520.665 218.333 512.388 211.736C511.392 210.926 510.458 210.18 509.463 209.371C502.181 203.458 496.144 196.549 491.351 189.828L493.53 185.595C501.621 168.853 504.732 153.044 505.23 139.165C505.355 137.111 505.355 135.057 505.293 133.003C505.293 132.879 505.293 132.755 505.293 132.692C505.293 132.63 505.293 132.568 505.293 132.506C504.484 103.44 492.409 84.0216 492.223 83.7104L491.787 83.088L491.102 82.7768C436.831 60.931 390.402 91.6769 385.299 95.2246C384.863 95.5357 384.614 95.9714 384.427 96.4071C363.64 91.2413 338.932 89.2496 315.655 90.8056C244.891 95.4735 210.349 128.149 207.611 130.887C206.926 131.385 204.188 133.501 200.142 137.236C199.769 136.8 199.209 136.489 198.524 136.489C179.23 135.182 131.743 135.555 107.906 167.11L107.533 167.608L107.408 168.168C107.346 168.542 103.55 194.246 119.233 222.441C119.482 222.752 119.669 223.125 119.856 223.499Z" fill="black"/>
<path d="M310.35 600.478C309.852 599.233 308.483 598.673 307.238 599.108C305.994 599.606 305.433 600.975 305.869 602.22C305.931 602.345 310.475 613.423 325.163 613.423C327.714 613.423 330.577 613.112 333.751 612.303C348.315 608.693 358.958 611.867 359.144 611.93C360.389 612.303 361.758 611.618 362.132 610.374C362.505 609.129 361.821 607.759 360.576 607.386C360.078 607.262 348.626 603.776 332.631 607.697C315.267 611.992 310.537 600.913 310.35 600.478Z" fill="black"/>
<path d="M143.069 219.328C144.376 219.079 145.248 217.896 144.999 216.589C144.75 215.282 143.567 214.411 142.26 214.66C141.451 214.784 133.983 216.216 130.933 220.759C129.75 222.502 129.377 224.556 129.813 226.672C130.871 231.775 135.29 240.427 152.343 240.738H152.405C153.712 240.738 154.77 239.68 154.77 238.373C154.77 237.066 153.774 235.945 152.405 235.945C145.185 235.821 136.223 233.891 134.48 225.614C134.294 224.805 134.418 224.058 134.916 223.373C136.472 221.008 141.451 219.639 143.069 219.328Z" fill="black"/>
<path d="M238.317 321.885C260.293 316.25 275.789 302.639 272.929 291.484C270.069 280.329 249.935 275.855 227.959 281.49C205.983 287.126 190.487 300.737 193.347 311.891C196.207 323.046 216.341 327.52 238.317 321.885Z" fill="#FCB5D1"/>
<path opacity="0.0196078" d="M245.922 355.843C289.091 346.335 318.812 314.679 312.305 285.138C305.799 255.597 265.529 239.357 222.36 248.866C179.191 258.374 149.47 290.03 155.976 319.571C162.482 349.112 202.752 365.351 245.922 355.843Z" fill="#FFFEFE"/>
<path opacity="0.0392157" d="M245.746 354.973C288.239 345.599 317.483 314.409 311.064 285.307C304.644 256.206 264.993 240.213 222.5 249.587C180.006 258.96 150.762 290.151 157.182 319.252C163.601 348.354 203.252 364.346 245.746 354.973Z" fill="#FFFCFD"/>
<path opacity="0.0588235" d="M245.675 354.131C287.497 344.893 316.274 314.193 309.949 285.562C303.625 256.93 264.595 241.209 222.772 250.447C180.95 259.685 152.174 290.385 158.498 319.016C164.822 347.648 203.853 363.369 245.675 354.131Z" fill="#FFFBFC"/>
<path opacity="0.0784314" d="M245.47 353.205C286.617 344.102 314.923 313.895 308.694 285.737C302.465 257.578 264.059 242.13 222.913 251.233C181.766 260.335 153.46 290.542 159.689 318.7C165.918 346.859 204.324 362.307 245.47 353.205Z" fill="#FFF9FB"/>
<path opacity="0.0980392" d="M245.296 352.285C285.768 343.319 313.604 313.606 307.47 285.92C301.336 258.234 263.555 243.058 223.084 252.025C182.613 260.992 154.777 290.705 160.911 318.391C167.045 346.077 204.825 361.252 245.296 352.285Z" fill="#FFF8FA"/>
<path opacity="0.1176" d="M245.215 351.506C285.015 342.676 312.378 313.427 306.333 286.177C300.287 258.927 263.122 243.995 223.322 252.825C183.522 261.655 156.159 290.904 162.204 318.154C168.25 345.404 205.415 360.336 245.215 351.506Z" fill="#FFF6FA"/>
<path opacity="0.1373" d="M245.029 350.595C284.188 341.894 311.109 313.133 305.16 286.356C299.21 259.579 262.643 244.925 223.485 253.626C184.326 262.326 157.405 291.087 163.354 317.864C169.304 344.641 205.871 359.295 245.029 350.595Z" fill="#FFF5F9"/>
<path opacity="0.1569" d="M244.925 349.651C283.409 341.084 309.858 312.814 304.003 286.51C298.147 260.205 262.203 245.826 223.719 254.393C185.236 262.961 158.786 291.23 164.642 317.535C170.498 343.84 206.442 358.219 244.925 349.651Z" fill="#FFF3F8"/>
<path opacity="0.1765" d="M244.744 348.806C282.552 340.377 308.533 312.602 302.774 286.77C297.015 260.937 261.696 246.829 223.888 255.259C186.079 263.689 160.098 291.464 165.858 317.296C171.617 343.128 206.936 357.236 244.744 348.806Z" fill="#FEF2F7"/>
<path opacity="0.1961" d="M244.645 347.901C281.782 339.606 307.296 312.321 301.631 286.958C295.966 261.595 261.268 247.759 224.13 256.055C186.993 264.35 161.479 291.635 167.144 316.998C172.809 342.36 207.507 356.196 244.645 347.901Z" fill="#FEF0F6"/>
<path opacity="0.2157" d="M244.486 347.04C280.949 338.879 305.986 312.059 300.408 287.135C294.831 262.211 260.75 248.621 224.287 256.782C187.825 264.942 162.787 291.762 168.365 316.686C173.943 341.61 208.023 355.2 244.486 347.04Z" fill="#FEEFF5"/>
<path opacity="0.2353" d="M244.314 346.204C280.102 338.183 304.671 311.858 299.191 287.406C293.711 262.954 260.257 249.635 224.468 257.656C188.68 265.677 164.11 292.002 169.591 316.454C175.071 340.905 208.525 354.225 244.314 346.204Z" fill="#FEEEF4"/>
<path opacity="0.2549" d="M244.185 345.281C279.298 337.396 303.399 311.564 298.014 287.584C292.629 263.604 259.799 250.557 224.685 258.442C189.571 266.327 165.471 292.159 170.855 316.139C176.24 340.119 209.071 353.166 244.185 345.281Z" fill="#FEECF3"/>
<path opacity="0.2745" d="M244.036 344.352C278.475 336.6 302.104 311.259 296.813 287.751C291.522 264.243 259.314 251.47 224.874 259.223C190.434 266.975 166.805 292.316 172.096 315.824C177.388 339.332 209.596 352.105 244.036 344.352Z" fill="#FEEBF2"/>
<path opacity="0.2941" d="M243.931 343.555C277.697 335.939 300.851 311.065 295.649 287.995C290.446 264.925 258.856 252.397 225.091 260.012C191.325 267.627 168.171 292.502 173.373 315.572C178.576 338.641 210.166 351.17 243.931 343.555Z" fill="#FEE9F1"/>
<path opacity="0.3137" d="M243.774 342.634C276.899 335.146 299.611 310.756 294.502 288.158C289.394 265.56 258.4 253.312 225.275 260.8C192.15 268.289 169.438 292.678 174.546 315.276C179.655 337.874 210.649 350.123 243.774 342.634Z" fill="#FEE8F1"/>
<path opacity="0.3333" d="M243.656 341.792C276.107 334.441 298.351 310.546 293.339 288.42C288.328 266.294 257.959 254.315 225.508 261.666C193.057 269.016 170.813 292.911 175.824 315.037C180.835 337.163 211.204 349.142 243.656 341.792Z" fill="#FEE6F0"/>
<path opacity="0.3529" d="M243.47 340.883C275.247 333.668 297.022 310.265 292.106 288.61C287.19 266.956 257.444 255.25 225.667 262.464C193.89 269.679 172.114 293.082 177.03 314.736C181.947 336.391 211.692 348.097 243.47 340.883Z" fill="#FEE5EF"/>
<path opacity="0.3725" d="M243.314 340.046C274.418 332.968 295.718 310.03 290.89 288.813C286.062 267.597 256.934 256.135 225.83 263.214C194.726 270.292 173.426 293.23 178.254 314.446C183.082 335.663 212.21 347.124 243.314 340.046Z" fill="#FEE3EE"/>
<path opacity="0.3922" d="M243.213 339.144C273.641 332.199 294.469 309.754 289.735 289.011C285.001 268.268 256.497 257.082 226.07 264.026C195.643 270.971 174.814 293.416 179.548 314.159C184.282 334.902 212.786 346.088 243.213 339.144Z" fill="#FEE2ED"/>
<path opacity="0.4118" d="M243.031 338.252C272.785 331.445 293.146 309.494 288.508 289.222C283.871 268.95 255.991 258.034 226.237 264.841C196.484 271.648 176.123 293.599 180.76 313.871C185.397 334.143 213.277 345.059 243.031 338.252Z" fill="#FEE1EC"/>
<path opacity="0.4314" d="M242.913 337.331C271.994 330.66 291.886 309.2 287.344 289.399C282.802 269.599 255.545 258.955 226.464 265.626C197.383 272.298 177.491 293.758 182.033 313.559C186.575 333.359 213.832 344.003 242.913 337.331Z" fill="#FEDFEB"/>
<path opacity="0.451" d="M242.745 336.474C271.15 329.939 290.572 308.973 286.125 289.645C281.679 270.318 255.047 259.947 226.643 266.482C198.238 273.017 178.816 293.983 183.262 313.311C187.709 332.639 214.34 343.009 242.745 336.474Z" fill="#FEDEEA"/>
<path opacity="0.4706" d="M242.662 335.605C270.395 329.204 289.341 308.701 284.981 289.811C280.621 270.921 254.606 260.796 226.874 267.197C199.141 273.598 180.195 294.101 184.555 312.991C188.915 331.881 214.93 342.006 242.662 335.605Z" fill="#FEDCE9"/>
<path opacity="0.4902" d="M242.466 334.7C269.556 328.429 288.061 308.415 283.798 289.998C279.535 271.58 254.118 261.733 227.028 268.004C199.938 274.274 181.432 294.288 185.696 312.706C189.959 331.124 215.376 340.971 242.466 334.7Z" fill="#FEDBE8"/>
<path opacity="0.5098" d="M242.32 333.87C268.738 327.736 286.775 308.214 282.608 290.267C278.44 272.32 253.646 262.744 227.228 268.878C200.81 275.013 182.773 294.535 186.94 312.482C191.108 330.429 215.902 340.005 242.32 333.87Z" fill="#FDD9E8"/>
<path opacity="0.5294" d="M242.201 332.924C267.944 326.924 285.511 307.894 281.438 290.419C277.365 272.944 253.194 263.643 227.451 269.643C201.709 275.643 184.142 294.674 188.215 312.148C192.288 329.623 216.458 338.925 242.201 332.924Z" fill="#FDD8E7"/>
<path opacity="0.549" d="M242.004 332.081C267.072 326.219 284.164 307.656 280.181 290.62C276.197 273.584 252.646 264.526 227.577 270.388C202.509 276.251 185.417 294.813 189.401 311.849C193.385 328.885 216.936 337.943 242.004 332.081Z" fill="#FDD6E6"/>
<path opacity="0.5686" d="M241.926 331.199C266.32 325.47 282.942 307.399 279.052 290.835C275.163 274.271 252.234 265.487 227.841 271.215C203.447 276.943 186.825 295.015 190.714 311.579C194.604 328.143 217.532 336.927 241.926 331.199Z" fill="#FDD5E5"/>
<path opacity="0.5882" d="M241.738 330.305C265.457 324.714 281.611 307.137 277.818 291.044C274.026 274.952 251.723 266.439 228.003 272.03C204.283 277.62 188.129 295.198 191.922 311.29C195.715 327.382 218.018 335.895 241.738 330.305Z" fill="#FDD3E4"/>
<path opacity="0.6078" d="M241.619 329.384C264.665 323.93 280.351 306.845 276.654 291.224C272.957 275.604 251.278 267.362 228.232 272.817C205.186 278.271 189.501 295.355 193.198 310.976C196.894 326.597 218.574 334.838 241.619 329.384Z" fill="#FDD2E3"/>
<path opacity="0.6275" d="M241.481 328.537C263.853 323.218 279.069 306.625 275.468 291.476C271.866 276.327 250.81 268.358 228.438 273.677C206.066 278.996 190.849 295.588 194.451 310.737C198.052 325.887 219.108 333.856 241.481 328.537Z" fill="#FDD1E2"/>
<path opacity="0.6471" d="M241.297 327.677C262.994 322.495 277.735 306.369 274.221 291.659C270.708 276.949 250.271 269.226 228.574 274.408C206.878 279.59 192.137 295.716 195.65 310.426C199.164 325.136 219.601 332.86 241.297 327.677Z" fill="#FDCFE1"/>
<path opacity="0.6667" d="M241.207 326.763C262.264 321.709 276.564 306.068 273.146 291.829C269.729 277.59 249.888 270.145 228.831 275.199C207.773 280.253 193.474 295.894 196.891 310.133C200.309 324.372 220.15 331.817 241.207 326.763Z" fill="#FDCEE0"/>
<path opacity="0.6863" d="M241.034 325.894C261.417 320.975 275.247 305.827 271.925 292.06C268.602 278.293 249.386 271.121 229.003 276.04C208.621 280.959 194.791 296.107 198.113 309.873C201.436 323.64 220.652 330.813 241.034 325.894Z" fill="#FDCCDF"/>
<path opacity="0.7059" d="M240.913 324.98C260.621 320.198 273.983 305.543 270.757 292.249C267.531 278.954 248.94 272.053 229.231 276.835C209.523 281.617 196.162 296.271 199.388 309.566C202.614 322.861 221.205 329.762 240.913 324.98Z" fill="#FDCBDF"/>
<path opacity="0.7255" d="M240.757 324.143C259.791 319.497 272.677 305.309 269.54 292.452C266.402 279.595 248.428 272.939 229.394 277.584C210.36 282.23 197.473 296.418 200.611 309.275C203.749 322.132 221.722 328.788 240.757 324.143Z" fill="#FDC9DE"/>
<path opacity="0.7451" d="M240.642 323.263C259.001 318.754 271.418 305.059 268.376 292.675C265.335 280.291 247.987 273.907 229.628 278.416C211.269 282.925 198.852 296.62 201.894 309.004C204.935 321.388 222.283 327.772 240.642 323.263Z" fill="#FDC8DD"/>
<path opacity="0.7647" d="M240.469 322.369C258.155 317.997 270.104 304.795 267.159 292.882C264.214 280.969 247.49 274.856 229.804 279.228C212.118 283.601 200.169 296.803 203.114 308.716C206.059 320.629 222.783 326.742 240.469 322.369Z" fill="#FDC6DC"/>
<path opacity="0.7843" d="M240.292 321.468C257.304 317.232 268.785 304.524 265.936 293.083C263.088 281.642 246.989 275.8 229.977 280.036C212.966 284.271 201.485 296.979 204.333 308.42C207.182 319.861 223.281 325.703 240.292 321.468Z" fill="#FDC5DB"/>
<path opacity="0.8039" d="M240.19 320.637C256.526 316.537 267.53 304.295 264.769 293.293C262.008 282.291 246.527 276.696 230.192 280.796C213.856 284.895 202.851 297.137 205.612 308.139C208.373 319.141 223.854 324.736 240.19 320.637Z" fill="#FDC4DA"/>
<path opacity="0.8235" d="M240.045 319.741C255.741 315.769 266.305 304.013 263.64 293.482C260.976 282.951 246.092 277.634 230.396 281.605C214.701 285.577 204.136 297.333 206.801 307.864C209.465 318.394 224.349 323.712 240.045 319.741Z" fill="#FDC2D9"/>
<path opacity="0.8431" d="M239.903 318.812C254.923 314.978 265.018 303.717 262.451 293.659C259.884 283.601 245.626 278.555 230.606 282.389C215.586 286.222 205.491 297.484 208.058 307.542C210.625 317.6 224.883 322.646 239.903 318.812Z" fill="#FCC1D8"/>
<path opacity="0.8627" d="M239.764 317.967C254.111 314.269 263.738 303.5 261.267 293.913C258.796 284.326 245.163 279.552 230.817 283.25C216.47 286.948 206.843 297.717 209.314 307.304C211.785 316.891 225.418 321.665 239.764 317.967Z" fill="#FCBFD7"/>
<path opacity="0.8824" d="M239.633 317.09C253.304 313.53 262.456 303.228 260.074 294.081C257.692 284.934 244.678 280.404 231.007 283.964C217.336 287.525 208.185 297.826 210.567 306.973C212.949 316.121 225.962 320.65 239.633 317.09Z" fill="#FCBED6"/>
<path opacity="0.902" d="M239.451 316.182C252.447 312.759 261.13 302.951 258.846 294.275C256.561 285.6 244.173 281.342 231.176 284.765C218.18 288.189 209.497 297.996 211.782 306.672C214.067 315.347 226.455 319.605 239.451 316.182Z" fill="#FCBCD6"/>
<path opacity="0.9216" d="M239.269 315.344C251.59 312.059 259.805 302.745 257.618 294.542C255.431 286.339 243.67 282.352 231.349 285.637C219.027 288.922 210.812 298.235 212.999 306.438C215.186 314.642 226.947 318.629 239.269 315.344Z" fill="#FCBBD5"/>
<path opacity="0.9412" d="M239.168 314.426C250.815 311.278 258.564 302.458 256.474 294.726C254.385 286.994 243.249 283.278 231.601 286.426C219.954 289.574 212.206 298.393 214.295 306.125C216.385 313.857 227.521 317.573 239.168 314.426Z" fill="#FCB9D4"/>
<path opacity="0.9608" d="M239.013 313.564C250.019 310.544 257.318 302.184 255.317 294.891C253.316 287.598 242.773 284.134 231.767 287.153C220.762 290.173 213.462 298.533 215.463 305.826C217.464 313.119 228.008 316.583 239.013 313.564Z" fill="#FCB8D3"/>
<path opacity="0.9804" d="M238.894 312.679C249.224 309.798 256.055 301.933 254.153 295.112C252.25 288.292 242.334 285.099 232.004 287.981C221.675 290.862 214.843 298.727 216.746 305.548C218.648 312.368 228.565 315.561 238.894 312.679Z" fill="#FCB6D2"/>
<path d="M238.716 311.78C248.37 309.037 254.735 301.667 252.931 295.319C251.127 288.971 241.839 286.048 232.184 288.791C222.53 291.534 216.165 298.904 217.969 305.253C219.773 311.601 229.061 314.523 238.716 311.78Z" fill="#FCB5D1"/>
<path d="M445.293 265.208C467.047 258.77 482.032 244.599 478.764 233.557C475.496 222.515 455.212 218.784 433.459 225.222C411.705 231.66 396.719 245.831 399.987 256.873C403.255 267.915 423.539 271.647 445.293 265.208Z" fill="#FCB5D1"/>
<path opacity="0.0196078" d="M454.097 298.854C496.886 287.767 525.423 255.043 517.837 225.762C510.251 196.482 469.414 181.732 426.625 192.819C383.836 203.905 355.298 236.629 362.885 265.91C370.471 295.191 411.308 309.94 454.097 298.854Z" fill="#FFFEFE"/>
<path opacity="0.0392157" d="M453.932 298.078C496.056 287.151 524.138 254.907 516.654 226.058C509.171 197.21 468.957 182.682 426.834 193.609C384.71 204.536 356.629 236.781 364.112 265.629C371.595 294.477 411.809 309.005 453.932 298.078Z" fill="#FFFCFD"/>
<path opacity="0.0588235" d="M453.753 297.187C495.206 286.424 522.838 254.692 515.47 226.313C508.102 197.933 468.524 183.653 427.07 194.416C385.617 205.179 357.985 236.91 365.353 265.289C372.721 293.669 412.299 307.95 453.753 297.187Z" fill="#FFFBFC"/>
<path opacity="0.0784314" d="M453.552 296.281C494.336 285.678 521.516 254.457 514.26 226.546C507.004 198.635 468.06 184.605 427.276 195.207C386.492 205.81 359.312 237.032 366.568 264.943C373.823 292.853 412.768 306.884 453.552 296.281Z" fill="#FFF9FB"/>
<path opacity="0.0980392" d="M453.35 295.435C493.464 284.992 520.193 254.281 513.05 226.839C505.907 199.396 467.596 185.615 427.482 196.058C387.367 206.5 360.638 237.212 367.782 264.654C374.925 292.096 413.235 305.877 453.35 295.435Z" fill="#FFF8FA"/>
<path opacity="0.1176" d="M453.282 294.555C492.731 284.269 519.003 254.035 511.961 227.026C504.919 200.016 467.23 186.458 427.781 196.744C388.332 207.029 362.06 237.263 369.102 264.273C376.144 291.282 413.833 304.84 453.282 294.555Z" fill="#FFF6FA"/>
<path opacity="0.1373" d="M453.053 293.663C491.866 283.53 517.714 253.8 510.785 227.258C503.856 200.717 466.775 187.415 427.962 197.548C389.148 207.681 363.3 237.411 370.229 263.952C377.158 290.494 414.239 303.796 453.053 293.663Z" fill="#FFF5F9"/>
<path opacity="0.1569" d="M452.899 292.755C491.043 282.784 516.44 253.565 509.625 227.492C502.81 201.419 466.363 188.365 428.219 198.336C390.074 208.307 364.677 237.526 371.492 263.6C378.308 289.673 414.755 302.726 452.899 292.755Z" fill="#FFF3F8"/>
<path opacity="0.1765" d="M452.715 291.893C490.19 282.08 515.135 253.369 508.431 227.764C501.727 202.159 465.912 189.357 428.437 199.17C390.962 208.982 366.017 237.694 372.721 263.299C379.425 288.903 415.24 301.705 452.715 291.893Z" fill="#FEF2F7"/>
<path opacity="0.1961" d="M452.493 291.006C489.299 281.357 513.795 253.156 507.205 228.02C500.615 202.883 465.435 190.329 428.628 199.979C391.822 209.628 367.327 237.828 373.917 262.965C380.507 288.102 415.686 300.656 452.493 291.006Z" fill="#FEF0F6"/>
<path opacity="0.2157" d="M452.366 290.142C488.504 280.652 512.54 252.934 506.053 228.232C499.566 203.53 465.012 191.199 428.875 200.689C392.737 210.18 368.7 237.898 375.187 262.6C381.674 287.302 416.228 299.633 452.366 290.142Z" fill="#FEEFF5"/>
<path opacity="0.2353" d="M452.179 289.29C487.648 279.959 511.233 252.75 504.859 228.516C498.484 204.282 464.563 192.2 429.094 201.531C393.625 210.861 370.039 238.071 376.414 262.305C382.788 286.539 416.709 298.62 452.179 289.29Z" fill="#FEEEF4"/>
<path opacity="0.2549" d="M452.025 288.383C486.826 279.213 509.961 252.513 503.699 228.747C497.437 204.98 464.149 193.148 429.348 202.318C394.547 211.488 371.412 238.188 377.674 261.954C383.937 285.72 417.225 297.553 452.025 288.383Z" fill="#FEECF3"/>
<path opacity="0.2745" d="M451.82 287.482C485.953 278.473 508.638 252.283 502.488 228.985C496.339 205.686 463.685 194.103 429.552 203.112C395.42 212.121 372.735 238.311 378.884 261.609C385.033 284.907 417.688 296.491 451.82 287.482Z" fill="#FEEBF2"/>
<path opacity="0.2941" d="M451.634 286.716C485.098 277.869 507.326 252.162 501.282 229.298C495.237 206.434 463.209 195.072 429.745 203.919C396.28 212.766 374.052 238.473 380.097 261.337C386.142 284.201 418.17 295.564 451.634 286.716Z" fill="#FEE9F1"/>
<path opacity="0.3137" d="M451.499 285.785C484.329 277.087 506.132 251.881 500.199 229.485C494.266 207.088 462.843 195.983 430.013 204.681C397.184 213.378 375.38 238.584 381.313 260.981C387.246 283.377 418.67 294.482 451.499 285.785Z" fill="#FEE8F1"/>
<path opacity="0.3333" d="M451.281 284.85C483.439 276.312 504.79 251.615 498.968 229.689C493.147 207.762 462.359 196.909 430.2 205.447C398.042 213.985 376.692 238.681 382.513 260.608C388.334 282.534 419.123 293.388 451.281 284.85Z" fill="#FEE6F0"/>
<path opacity="0.3529" d="M451.141 284.037C482.632 275.662 503.534 251.477 497.827 230.018C492.121 208.559 461.966 197.951 430.476 206.326C398.985 214.701 378.083 238.886 383.79 260.345C389.496 281.804 419.651 292.411 451.141 284.037Z" fill="#FEE5EF"/>
<path opacity="0.3725" d="M450.938 283.145C481.761 274.931 502.213 251.255 496.62 230.263C491.026 209.271 461.504 198.912 430.681 207.126C399.858 215.34 379.406 239.016 385 260.008C390.593 281 420.115 291.359 450.938 283.145Z" fill="#FEE3EE"/>
<path opacity="0.3922" d="M450.748 282.261C480.901 274.205 500.892 251.011 495.401 230.455C489.909 209.899 461.014 199.766 430.862 207.821C400.709 215.877 380.717 239.071 386.209 259.627C391.7 280.183 420.596 290.316 450.748 282.261Z" fill="#FEE2ED"/>
<path opacity="0.4118" d="M450.616 281.434C480.102 273.541 499.645 250.857 494.267 230.768C488.889 210.679 460.627 200.792 431.142 208.686C401.656 216.579 382.113 239.263 387.491 259.352C392.869 279.441 421.131 289.328 450.616 281.434Z" fill="#FEE1EC"/>
<path opacity="0.4314" d="M450.395 280.509C479.21 272.775 498.301 250.601 493.036 230.981C487.77 211.361 460.142 201.725 431.327 209.459C402.512 217.192 383.421 239.367 388.686 258.987C393.952 278.607 421.58 288.242 450.395 280.509Z" fill="#FEDFEB"/>
<path opacity="0.451" d="M450.287 279.606C478.435 272.033 497.077 250.368 491.924 231.214C486.771 212.061 459.776 202.673 431.627 210.246C403.479 217.819 384.837 239.485 389.99 258.638C395.142 277.791 422.138 287.179 450.287 279.606Z" fill="#FEDEEA"/>
<path opacity="0.4706" d="M450.079 278.831C477.558 271.42 495.741 250.238 490.693 231.52C485.645 212.802 459.277 203.637 431.798 211.048C404.319 218.459 386.135 239.641 391.184 258.359C396.232 277.077 422.6 286.243 450.079 278.831Z" fill="#FEDCE9"/>
<path opacity="0.4902" d="M449.935 277.896C476.778 270.636 494.537 249.956 489.601 231.706C484.665 213.457 458.903 204.549 432.06 211.809C405.217 219.07 387.459 239.75 392.395 258C397.331 276.249 423.093 285.157 449.935 277.896Z" fill="#FEDBE8"/>
<path opacity="0.5098" d="M449.71 276.989C475.884 269.888 493.192 249.718 488.368 231.937C483.545 214.156 458.417 205.497 432.243 212.597C406.069 219.697 388.762 239.868 393.585 257.649C398.408 275.43 423.536 284.089 449.71 276.989Z" fill="#FDD9E8"/>
<path opacity="0.5294" d="M449.503 276.157C475.007 269.218 491.865 249.558 487.155 232.245C482.445 214.932 457.951 206.522 432.446 213.46C406.941 220.399 390.084 240.059 394.794 257.372C399.504 274.685 423.998 283.096 449.503 276.157Z" fill="#FDD8E7"/>
<path opacity="0.549" d="M449.399 275.287C474.235 268.508 490.634 249.33 486.028 232.452C481.421 215.573 457.553 207.386 432.716 214.164C407.88 220.943 391.481 240.121 396.087 257C400.694 273.879 424.562 282.066 449.399 275.287Z" fill="#FDD6E6"/>
<path opacity="0.5686" d="M449.205 274.394C473.373 267.776 489.323 249.107 484.829 232.696C480.336 216.286 457.101 208.347 432.932 214.965C408.764 221.583 392.815 240.251 397.308 256.662C401.802 273.073 425.037 281.012 449.205 274.394Z" fill="#FDD5E5"/>
<path opacity="0.5882" d="M449.074 273.523C472.574 267.065 488.073 248.905 483.691 232.961C479.31 217.018 456.708 209.329 433.207 215.787C409.707 222.245 394.208 240.405 398.589 256.349C402.971 272.292 425.573 279.981 449.074 273.523Z" fill="#FDD3E4"/>
<path opacity="0.6078" d="M448.853 272.614C471.683 266.316 486.731 248.667 482.463 233.192C478.194 217.718 456.227 210.278 433.396 216.576C410.566 222.873 395.519 240.523 399.787 255.997C404.055 271.472 426.023 278.911 448.853 272.614Z" fill="#FDD2E3"/>
<path opacity="0.6275" d="M448.63 271.724C470.791 265.589 485.388 248.451 481.234 233.445C477.08 218.439 455.747 211.248 433.586 217.383C411.426 223.518 396.829 240.657 400.983 255.663C405.137 270.669 426.47 277.86 448.63 271.724Z" fill="#FDD1E2"/>
<path opacity="0.6471" d="M448.526 270.948C470.02 264.974 484.161 248.317 480.111 233.745C476.06 219.173 455.353 212.203 433.859 218.177C412.366 224.151 398.225 240.807 402.275 255.38C406.325 269.952 427.033 276.922 448.526 270.948Z" fill="#FDCFE1"/>
<path opacity="0.6667" d="M448.33 270.036C469.188 264.213 482.905 248.058 478.968 233.954C475.03 219.85 454.929 213.137 434.071 218.96C413.213 224.783 399.497 240.937 403.434 255.041C407.372 269.146 427.472 275.859 448.33 270.036Z" fill="#FDCEE0"/>
<path opacity="0.6863" d="M448.158 269.078C468.346 263.415 481.61 247.77 477.785 234.135C473.96 220.5 454.494 214.038 434.306 219.701C414.119 225.364 400.855 241.009 404.68 254.644C408.505 268.279 427.971 274.741 448.158 269.078Z" fill="#FDCCDF"/>
<path opacity="0.7059" d="M447.971 268.248C467.491 262.746 480.305 247.612 476.594 234.444C472.882 221.276 454.05 215.062 434.531 220.564C415.011 226.066 402.196 241.201 405.908 254.369C409.619 267.536 428.452 273.751 447.971 268.248Z" fill="#FDCBDF"/>
<path opacity="0.7255" d="M447.784 267.404C466.634 262.063 478.991 247.412 475.383 234.679C471.776 221.947 453.571 215.955 434.721 221.296C415.871 226.638 403.514 241.289 407.122 254.021C410.729 266.753 428.935 272.745 447.784 267.404Z" fill="#FDC9DE"/>
<path opacity="0.7451" d="M447.632 266.477C465.813 261.297 477.719 247.156 474.224 234.892C470.73 222.628 453.159 216.885 434.978 222.065C416.797 227.245 404.891 241.386 408.385 253.651C411.879 265.915 429.451 271.657 447.632 266.477Z" fill="#FDC8DD"/>
<path opacity="0.7647" d="M447.428 265.64C464.941 260.621 476.397 246.99 473.016 235.193C469.636 223.397 452.698 217.903 435.186 222.922C417.673 227.941 406.217 241.572 409.598 253.369C412.979 265.165 429.916 270.659 447.428 265.64Z" fill="#FDC6DC"/>
<path opacity="0.7843" d="M447.331 264.731C464.176 259.873 475.182 246.751 471.915 235.422C468.648 224.093 452.345 218.846 435.5 223.704C418.655 228.562 407.648 241.684 410.915 253.013C414.182 264.342 430.486 269.588 447.331 264.731Z" fill="#FDC5DB"/>
<path opacity="0.8039" d="M447.124 263.899C463.299 259.203 473.849 246.565 470.686 235.671C467.524 224.777 451.847 219.752 435.672 224.448C419.496 229.144 408.946 241.782 412.109 252.676C415.271 263.57 430.948 268.595 447.124 263.899Z" fill="#FDC4DA"/>
<path opacity="0.8235" d="M446.899 263.035C462.438 258.49 472.563 246.355 469.514 235.929C466.465 225.504 451.397 220.736 435.858 225.281C420.319 229.825 410.194 241.961 413.243 252.386C416.292 262.812 431.36 267.579 446.899 263.035Z" fill="#FDC2D9"/>
<path opacity="0.8431" d="M446.746 262.13C461.616 257.747 471.291 246.122 468.357 236.165C465.422 226.208 450.989 221.689 436.119 226.071C421.25 230.454 411.574 242.078 414.509 252.036C417.443 261.993 431.877 266.512 446.746 262.13Z" fill="#FCC1D8"/>
<path opacity="0.8627" d="M446.556 261.239C460.757 257.018 469.984 245.903 467.163 236.413C464.343 226.924 450.544 222.652 436.343 226.873C422.141 231.094 412.915 242.209 415.736 251.698C418.556 261.188 432.355 265.459 446.556 261.239Z" fill="#FCBFD7"/>
<path opacity="0.8824" d="M446.378 260.373C459.909 256.315 468.676 245.685 465.961 236.631C463.245 227.577 450.074 223.528 436.543 227.587C423.012 231.645 414.244 242.275 416.96 251.329C419.676 260.383 432.847 264.432 446.378 260.373Z" fill="#FCBED6"/>
<path opacity="0.902" d="M446.21 259.517C459.072 255.619 467.389 245.499 464.788 236.914C462.186 228.328 449.65 224.528 436.788 228.425C423.927 232.323 415.609 242.443 418.211 251.028C420.812 259.614 433.348 263.414 446.21 259.517Z" fill="#FCBCD6"/>
<path opacity="0.9216" d="M463.596 237.202C466.086 245.293 458.181 254.94 445.983 258.675C433.784 262.409 421.897 258.861 419.408 250.708C416.918 242.617 424.822 232.97 437.021 229.236C449.219 225.501 461.169 229.049 463.596 237.202Z" fill="#FCBBD5"/>
<path opacity="0.9412" d="M462.416 237.387C464.781 245.043 457.375 254.129 445.798 257.739C434.284 261.287 422.957 257.988 420.592 250.333C418.227 242.678 425.633 233.591 437.21 229.981C448.786 226.433 460.051 229.732 462.416 237.387Z" fill="#FCB9D4"/>
<path opacity="0.9608" d="M461.272 237.635C463.513 244.855 456.542 253.444 445.651 256.867C434.759 260.29 424.116 257.24 421.876 250.021C419.635 242.801 426.606 234.212 437.497 230.789C448.327 227.366 458.969 230.478 461.272 237.635Z" fill="#FCB8D3"/>
<path opacity="0.9804" d="M460.078 237.888C462.194 244.609 455.659 252.7 445.452 255.999C435.245 259.236 425.225 256.435 423.109 249.713C420.993 242.991 427.528 234.9 437.735 231.602C447.879 228.365 457.9 231.166 460.078 237.888Z" fill="#FCB6D2"/>
<path d="M437.945 232.412C447.468 229.3 456.865 231.914 458.919 238.2C460.973 244.486 454.874 252.079 445.351 255.191C435.829 258.303 426.431 255.689 424.377 249.403C422.324 243.117 428.361 235.461 437.945 232.412Z" fill="#FCB5D1"/>
<path d="M506.789 207.247C507.723 207.433 508.594 206.873 508.843 206.002C509.03 205.068 508.47 204.197 507.598 203.948C467.02 194.55 432.167 218.948 431.855 219.196C431.109 219.757 430.922 220.815 431.482 221.562C431.793 221.997 432.353 222.246 432.851 222.246C433.162 222.246 433.536 222.122 433.847 221.935C434.096 221.748 467.704 198.16 506.789 207.247Z" fill="black"/>
<path d="M512.219 256.107C479.669 230.154 437.659 237.187 437.285 237.249C436.352 237.436 435.729 238.307 435.916 239.241C436.103 240.174 436.974 240.796 437.908 240.61C438.343 240.548 478.798 233.764 510.165 258.784C510.476 259.032 510.85 259.157 511.223 259.157C511.721 259.157 512.219 258.908 512.53 258.535C513.09 257.788 512.966 256.73 512.219 256.107Z" fill="black"/>
<path d="M498.11 228.345C467.667 213.863 435.83 227.135 435.547 227.253C434.846 227.572 434.515 228.373 434.834 229.075C435.153 229.777 435.954 230.108 436.656 229.789C436.988 229.659 467.644 216.87 496.982 230.833C497.273 230.972 497.591 231.002 497.885 230.933C498.278 230.842 498.625 230.554 498.801 230.202C499.106 229.51 498.813 228.699 498.11 228.345Z" fill="black"/>
<path d="M234.288 290.646C235.168 290.878 236.047 290.356 236.282 289.544C236.516 288.674 235.988 287.804 235.168 287.572C234.757 287.456 196.059 277.248 163.224 298.534C162.462 298.998 162.286 299.984 162.755 300.738C163.048 301.202 163.576 301.434 164.103 301.434C164.397 301.434 164.69 301.376 164.983 301.202C196.528 280.728 233.878 290.53 234.288 290.646Z" fill="black"/>
<path d="M233.241 298.93C233.998 298.988 234.599 298.346 234.62 297.55C234.63 296.701 234.025 295.989 233.315 295.921C232.961 295.887 199.668 293.357 177.602 318.992C177.084 319.559 177.145 320.505 177.679 321.121C178.011 321.499 178.484 321.619 178.909 321.525C179.146 321.472 179.37 321.366 179.57 321.152C200.764 296.501 232.887 298.896 233.241 298.93Z" fill="black"/>
<path d="M236.686 305.272C236.251 305.334 194.427 313.176 172.831 348.777C172.333 349.586 172.582 350.644 173.391 351.142C173.64 351.329 173.951 351.391 174.262 351.391C174.822 351.391 175.382 351.08 175.693 350.582C196.481 316.288 236.873 308.695 237.246 308.633C238.18 308.446 238.802 307.575 238.616 306.641C238.491 305.708 237.62 305.085 236.686 305.272Z" fill="black"/>
<path d="M290.6 242.788C296.637 267.311 283.505 278.887 264.958 283.493C246.349 288.098 229.358 283.991 223.259 259.468C217.222 234.946 227.367 211.358 245.914 206.752C264.585 202.147 284.563 218.266 290.6 242.788Z" fill="black"/>
<path d="M262.048 258.645C270.484 255.802 274.626 245.496 271.299 235.627C267.973 225.757 258.437 220.061 250.001 222.905C241.565 225.749 237.423 236.054 240.75 245.924C244.076 255.793 253.612 261.489 262.048 258.645Z" fill="white"/>
<path d="M253.296 267.446C254.354 270.496 252.922 273.732 250.184 274.666C247.446 275.599 244.396 273.856 243.338 270.807C242.28 267.757 243.711 264.521 246.45 263.587C249.188 262.653 252.238 264.396 253.296 267.446Z" fill="white"/>
<path d="M420.432 209.375C426.469 233.897 413.337 245.474 394.79 250.079C376.181 254.685 359.19 250.577 353.091 226.055C347.054 201.533 357.199 177.945 375.746 173.339C394.417 168.671 414.395 184.853 420.432 209.375Z" fill="black"/>
<path d="M393.313 225.83C401.75 222.986 405.892 212.681 402.565 202.811C399.239 192.942 389.703 187.246 381.267 190.09C372.831 192.933 368.689 203.239 372.015 213.108C375.342 222.978 384.877 228.674 393.313 225.83Z" fill="white"/>
<path d="M387.797 245.289C390.533 244.367 391.914 241.137 390.882 238.075C389.85 235.013 386.796 233.279 384.059 234.201C381.323 235.123 379.942 238.353 380.974 241.415C382.006 244.477 385.061 246.211 387.797 245.289Z" fill="white"/>
<path d="M362.596 264.198C361.413 263.7 359.982 264.26 359.484 265.443C354.194 277.953 340.875 275.028 335.398 273.223C334.526 272.911 333.655 273.16 333.033 273.721C332.41 273.783 331.85 274.032 331.477 274.53C319.216 288.969 308.822 281.002 308.387 280.691C307.391 279.882 305.897 280.007 305.026 281.065C304.217 282.061 304.341 283.554 305.399 284.426C305.462 284.488 309.88 287.973 316.415 287.973C321.581 287.973 328.054 285.795 334.775 278.077C337.078 278.762 340.875 279.695 345.045 279.695C351.891 279.695 359.795 277.206 363.965 267.372C364.4 266.065 363.84 264.696 362.596 264.198Z" fill="black"/>
<path d="M340.87 260.219C342.239 265.198 338.63 270.55 332.842 272.106C327.054 273.662 321.265 270.924 319.896 265.945C318.527 260.966 339.501 255.24 340.87 260.219Z" fill="black"/>
</svg>
