<svg width="314" height="232" viewBox="0 0 314 232" fill="none" xmlns="http://www.w3.org/2000/svg">
<path d="M134.929 117.993H309.375C309.744 117.993 310.021 117.993 310.391 117.993C311.037 117.993 311.683 117.993 312.145 117.993C313.069 117.901 313.9 117.166 313.992 116.338C314.085 115.419 313.346 114.5 312.515 114.408C312.145 114.316 311.222 114.316 310.575 114.408C310.206 114.408 309.929 114.408 309.559 114.408C217.119 114.408 124.678 114.408 32.2374 114.408H3.51706C2.87063 114.408 2.31654 114.408 1.85479 114.408C0.838962 114.5 0.100176 115.143 0.00782731 116.063C-0.084521 116.982 0.654266 117.901 1.4854 117.993C1.85479 117.993 2.77828 117.993 3.42472 117.993H4.25585C47.8443 117.993 91.3403 117.993 134.929 117.993Z" fill="#27B0FF"/>
<path d="M72.0385 7.67721H75.9171C87.7377 7.67721 100.02 7.67721 112.21 7.67721C113.318 7.67721 114.426 7.21756 114.519 5.93053C114.519 5.37895 114.426 5.01123 114.057 4.73544C113.688 4.36772 112.949 4.09193 112.118 4.09193C101.313 4.09193 90.3235 4.09193 79.2417 4.09193C68.5293 4 57.6321 4 46.735 4C44.8881 4 44.334 4.36772 44.334 6.57405C44.334 11.4463 44.334 16.3186 44.334 21.0071V27.1664C44.334 31.3952 44.334 35.624 44.334 39.8528C44.334 50.4248 44.334 61.2725 44.334 71.9364C44.334 72.9477 44.9804 73.6831 45.9963 73.867C46.9197 73.9589 47.7509 73.3154 47.9356 72.3961C48.0279 72.1203 48.0279 71.1091 48.0279 70.3736V69.7301C48.0279 55.9406 48.0279 42.243 48.0279 28.2696V7.67721H61.4184C64.9277 7.67721 68.5293 7.67721 72.0385 7.67721Z" fill="#27B0FF"/>
<path d="M269.664 70.6494C269.664 49.5055 269.664 28.3615 269.664 7.21756C269.664 4.18386 269.295 4 266.524 4C245.192 4 223.859 4 202.527 4C201.419 4 201.049 4 200.957 4.09193C200.034 4.36772 199.387 5.10316 199.479 6.02247C199.572 6.94177 200.403 7.58528 201.419 7.67721C211.115 7.67721 220.997 7.67721 230.601 7.67721H231.247C235.034 7.67721 238.82 7.67721 242.606 7.67721H265.97V32.4984C265.97 45.3686 265.97 57.9631 265.97 70.4656C265.97 72.0284 266.34 73.2235 266.801 73.5912C266.894 73.6831 267.078 73.867 267.91 73.867C268.371 73.867 269.664 73.867 269.664 70.6494Z" fill="#27B0FF"/>
<path d="M114.519 226.656C114.611 225.828 113.965 224.909 113.134 224.725C112.856 224.633 111.748 224.633 111.102 224.633H110.732C97.5266 224.633 84.2285 224.633 70.838 224.633H48.0279V197.054C48.0279 185.287 48.0279 173.52 48.0279 161.661C48.0279 158.443 46.735 158.443 46.181 158.443C45.7192 158.443 45.2575 158.535 45.0728 158.719C44.7034 159.087 44.334 160.006 44.334 161.477C44.334 182.713 44.334 203.949 44.334 225.185C44.334 227.851 44.5187 228.218 47.6585 228.218C61.6955 228.218 75.6401 228.218 89.677 228.218H105.838C106.577 228.218 107.316 228.218 108.054 228.218H108.239C109.809 228.218 111.287 228.218 112.672 228.218C113.595 228.218 114.426 227.575 114.519 226.656Z" fill="#27B0FF"/>
<path d="M269.574 226.748C269.667 204.592 269.667 182.161 269.574 160.006C269.574 159.363 269.574 159.087 268.281 158.535C267.727 158.352 267.266 158.352 266.896 158.627C266.342 158.995 265.973 159.822 265.973 160.834C265.88 173.612 265.973 186.022 265.973 199.26V200.823C265.973 205.696 265.973 210.568 265.973 215.44V224.633H252.675C249.073 224.633 245.379 224.633 241.777 224.633H235.959C232.081 224.633 228.11 224.633 224.139 224.633C216.566 224.633 208.994 224.633 201.514 224.633C200.313 224.633 199.574 225.369 199.574 226.38C199.574 226.931 199.759 227.391 200.128 227.759C200.59 228.218 201.052 228.218 201.236 228.218C224.324 228.31 246.857 228.31 268.281 228.218C269.02 228.218 269.574 227.667 269.574 226.748Z" fill="#27B0FF"/>
</svg>
