<svg width="42" height="42" viewBox="0 0 42 42" fill="none" xmlns="http://www.w3.org/2000/svg">
<circle cx="20.6797" cy="20.6797" r="20.6797" fill="url(#paint0_linear_2511_383)"/>
<path d="M29.7521 19.5656H21.795V11.6086C21.795 11.0039 21.2858 10.4946 20.6811 10.4946C20.0763 10.4946 19.5671 11.0039 19.5671 11.6086V19.5656H11.6101C11.0053 19.5656 10.4961 20.0749 10.4961 20.6796C10.4961 21.2843 11.0053 21.7936 11.6101 21.7936H19.5671V29.7506C19.5671 30.3553 20.0763 30.8646 20.6811 30.8646C21.2858 30.8646 21.795 30.3553 21.795 29.7506V21.7936H29.7521C30.3568 21.7936 30.866 21.2843 30.866 20.6796C30.866 20.0749 30.3886 19.5656 29.7521 19.5656Z" fill="#FEFEFD"/>
<defs>
<linearGradient id="paint0_linear_2511_383" x1="20.6797" y1="0" x2="20.6797" y2="41.3594" gradientUnits="userSpaceOnUse">
<stop stop-color="#E92F24"/>
<stop offset="0.572917" stop-color="#ED443A"/>
<stop offset="0.9999" stop-color="#F85A50"/>
<stop offset="1" stop-color="#E92F24" stop-opacity="0"/>
</linearGradient>
</defs>
</svg>
