<svg width="25" height="25" viewBox="0 0 25 25" fill="none" xmlns="http://www.w3.org/2000/svg">
<g clip-path="url(#clip0_2335_395)">
<path d="M17.7769 25.2932C15.7287 25.2932 13.6866 25.2932 11.6445 25.2932C11.6445 20.5048 11.6445 15.7165 11.6445 10.9281C11.7294 10.9645 11.8142 10.9948 11.893 11.0312C12.5898 11.3827 13.2806 11.7403 13.9775 12.0919C14.0441 12.1283 14.1108 12.201 14.2017 12.1586C14.2017 12.1343 14.2077 12.1101 14.2017 12.0858C14.0563 11.2494 13.9169 10.419 13.7715 9.58256C13.7593 9.50376 13.723 9.42497 13.8018 9.35223C14.432 8.75217 15.0622 8.15211 15.6863 7.54599C15.7227 7.50963 15.7954 7.49144 15.7893 7.43083C15.7772 7.35204 15.6924 7.37022 15.6378 7.36416C14.8137 7.24293 13.9957 7.12171 13.1716 7.01261C13.0201 6.99443 12.9231 6.93987 12.8565 6.80047C12.6504 6.38224 12.4323 5.96402 12.2141 5.5458C12.0263 5.18213 11.8748 4.80633 11.6445 4.46085C11.6445 3.64258 11.6445 2.83038 11.6445 2.01212C13.6442 2.01212 15.6378 2.00606 17.6375 2C17.7708 2 17.7829 2.05455 17.7829 2.16365C17.7829 2.594 17.7829 3.02434 17.789 3.45469C17.789 3.55773 17.7829 3.66683 17.7829 3.76987C17.7829 6.18829 17.7769 8.60064 17.7829 11.0191C17.7829 11.6615 17.6739 12.2798 17.4799 12.892C17.2497 13.6133 16.8619 14.2497 16.4134 14.8619C16.3892 14.88 16.365 14.8922 16.3468 14.9164C15.656 15.7286 14.8137 16.3287 13.8199 16.7045C13.6927 16.753 13.6987 16.8317 13.6987 16.9287C13.6987 18.2864 13.7048 19.6381 13.6927 20.9958C13.6927 21.1655 13.7533 21.1897 13.8987 21.1897C14.4744 21.1837 15.05 21.1837 15.6257 21.1897C16.7952 21.1958 17.7769 22.1777 17.7829 23.3475C17.7829 24.0082 17.7769 24.6507 17.7769 25.2932Z" fill="#FCBE00"/>
<path d="M11.6405 10.9281C11.6405 15.7165 11.6405 20.5048 11.6405 25.2931C9.5924 25.2931 7.5503 25.2931 5.50215 25.2931C5.50215 24.681 5.50215 24.0688 5.50215 23.4566C5.50821 22.1656 6.46563 21.214 7.75633 21.2018C8.3017 21.1958 8.84706 21.1958 9.39243 21.2079C9.54998 21.2079 9.59846 21.1655 9.5924 21.0079C9.58634 19.6562 9.58634 18.2985 9.5924 16.9469C9.5924 16.8135 9.54998 16.7529 9.42273 16.7044C8.47743 16.3468 7.67756 15.7771 7.011 15.0194C6.96858 14.9709 6.93828 14.9043 6.86557 14.8861C6.82921 14.8194 6.79285 14.7527 6.74438 14.6921C5.90815 13.5647 5.49609 12.304 5.49609 10.9039C5.49609 8.4309 5.49609 5.95187 5.49609 3.4789C5.49609 3.10311 5.49609 2.72125 5.50215 2.34546C5.50215 2.03027 5.50215 2.03027 5.82937 2.03027C6.30808 2.03027 6.78073 2.03027 7.25944 2.03027C8.71981 2.03027 10.1802 2.03633 11.6405 2.03633C11.6405 2.8546 11.6405 3.6668 11.6405 4.48506C11.6345 4.49718 11.6345 4.5093 11.6345 4.52142C11.5557 4.57598 11.5254 4.66689 11.4891 4.74569C11.1376 5.4306 10.7861 6.12158 10.4407 6.8065C10.3741 6.93378 10.2893 7.00045 10.1499 7.01864C9.58028 7.09743 9.01067 7.16411 8.44713 7.25502C8.13203 7.30351 7.81087 7.31564 7.46547 7.42474C8.12597 8.06116 8.75011 8.67334 9.39243 9.26734C9.50756 9.37644 9.54392 9.4613 9.51362 9.61283C9.36819 10.4068 9.22882 11.2009 9.09551 12.0009C9.08339 12.0555 9.04097 12.1222 9.09551 12.1707C9.15004 12.2191 9.21064 12.1646 9.25912 12.1403C9.78024 11.8737 10.2953 11.613 10.8164 11.3463C11.0831 11.2009 11.3436 11.0311 11.6405 10.9281Z" fill="#FED92D"/>
<path d="M23.2771 8.83704C23.1801 9.00069 23.1922 9.19465 23.1437 9.37649C22.7499 10.8433 21.8894 11.9222 20.5139 12.5707C20.5139 12.0434 20.5139 11.5161 20.5139 10.9888C21.3925 10.3705 21.853 9.50983 21.9015 8.46125C21.95 7.30356 21.9136 6.14587 21.9197 4.98818C21.9197 4.86696 21.8773 4.83665 21.7622 4.83665C21.344 4.84271 20.932 4.83665 20.5139 4.84271C20.5139 4.38812 20.5078 3.93959 20.5078 3.485C21.4349 3.485 22.356 3.47894 23.2831 3.47894C23.2771 5.26093 23.2771 7.04899 23.2771 8.83704Z" fill="#FCBE01"/>
<path d="M20.5004 3.48504C20.5004 3.93963 20.5065 4.38816 20.5065 4.84275C20.5065 6.89143 20.5065 8.94012 20.5065 10.9888C20.5065 11.5161 20.5065 12.0435 20.5065 12.5708C20.5065 14.5467 20.5004 16.5227 20.5004 18.4986C20.5004 18.7896 20.5004 19.0866 20.5004 19.3836C20.4034 19.3775 20.3731 19.3108 20.3307 19.2623C19.7551 18.6926 19.1794 18.1228 18.6159 17.541C18.4765 17.4015 18.4098 17.4137 18.2826 17.547C17.6766 18.1531 17.0646 18.7471 16.4102 19.3896C16.4102 17.8501 16.4102 16.359 16.4102 14.874C16.8525 14.2679 17.2403 13.6315 17.4766 12.9041C17.6706 12.298 17.7857 11.6737 17.7796 11.0312C17.7736 8.61281 17.7796 6.20046 17.7796 3.78204C17.7796 3.679 17.7857 3.5699 17.7857 3.46686C18.6886 3.47898 19.5975 3.47898 20.5004 3.48504Z" fill="#FE641A"/>
<path d="M11.6328 4.51537C11.6328 4.50325 11.6389 4.49113 11.6389 4.479C11.8631 4.82449 12.0146 5.20029 12.2085 5.56396C12.4266 5.98218 12.6448 6.39434 12.8508 6.81863C12.9175 6.95803 13.0144 7.00652 13.1659 7.03077C13.99 7.13987 14.8081 7.26109 15.6322 7.38232C15.6867 7.38838 15.7715 7.37019 15.7837 7.44899C15.7897 7.50354 15.7231 7.52779 15.6806 7.56415C15.0504 8.16421 14.4263 8.77033 13.7961 9.37039C13.7173 9.44312 13.7537 9.52192 13.7658 9.60071C13.9112 10.4372 14.0506 11.2675 14.196 12.104C14.2021 12.1282 14.196 12.1464 14.196 12.1767C14.0991 12.2192 14.0385 12.1464 13.9718 12.11C13.275 11.7585 12.5842 11.4009 11.8873 11.0493C11.8085 11.0069 11.7237 10.9766 11.6389 10.9463C11.6389 10.5463 11.6389 10.1462 11.6389 9.74618C11.6328 7.98844 11.6328 6.25493 11.6328 4.51537Z" fill="#FE9100"/>
<path d="M6.86759 14.8801C6.86759 16.3772 6.86759 17.8804 6.86759 19.3775C6.77063 19.3957 6.74639 19.3169 6.70398 19.2744C6.13437 18.7107 5.55871 18.1471 5.00728 17.5712C4.84973 17.4076 4.7649 17.4258 4.62553 17.5773C4.05592 18.1955 3.48026 18.8077 2.9046 19.4199C2.86218 19.3957 2.81976 19.3654 2.77734 19.3411C2.77734 17.0863 2.77734 14.8316 2.77734 12.5768C2.77734 12.0434 2.77734 11.5161 2.7834 10.9827C2.7834 8.93404 2.7834 6.89141 2.7834 4.84273C2.7834 4.38814 2.78946 3.93355 2.78946 3.48502C3.69841 3.47896 4.60129 3.47896 5.51023 3.4729C5.51023 5.94587 5.51629 8.4249 5.51023 10.8979C5.51023 12.298 5.92229 13.5648 6.75851 14.6861C6.78881 14.7467 6.82517 14.8134 6.86759 14.8801Z" fill="#FE9100"/>
<path d="M11.636 4.51544C11.636 6.25501 11.6421 7.98851 11.6421 9.72807C11.6421 10.1281 11.6421 10.5281 11.6421 10.9282C11.3452 11.0252 11.0846 11.2009 10.8119 11.3403C10.2968 11.607 9.77571 11.8737 9.25458 12.1344C9.20005 12.1586 9.14551 12.2132 9.09097 12.1647C9.03038 12.1162 9.07886 12.0495 9.09097 11.995C9.23035 11.2009 9.36366 10.4009 9.50909 9.60685C9.53939 9.45532 9.50303 9.37046 9.3879 9.26136C8.74558 8.6613 8.12144 8.04912 7.46094 7.41875C7.80634 7.30965 8.1275 7.29753 8.4426 7.24904C9.00614 7.15812 9.57574 7.09145 10.1453 7.01265C10.2847 6.99447 10.3756 6.9278 10.4362 6.80051C10.7816 6.10954 11.1331 5.42462 11.4845 4.73971C11.5269 4.66091 11.5572 4.56999 11.636 4.51544Z" fill="#FCBE00"/>
<path d="M2.7753 10.9827C2.7753 11.5161 2.7753 12.0434 2.76925 12.5768C1.22404 11.8313 0.327219 10.6009 0.0484769 8.90981C0.00605962 8.64312 0 8.37037 0 8.09761C0.00605962 6.6308 0.00605962 5.17005 0 3.70931C0 3.52141 0.0424173 3.46686 0.236325 3.47292C1.08467 3.48504 1.93302 3.48504 2.7753 3.48504C2.7753 3.93963 2.76925 4.39422 2.76925 4.84275C2.36931 4.84275 1.96938 4.84881 1.56944 4.83669C1.41189 4.83063 1.36341 4.87306 1.36341 5.03671C1.36947 6.12772 1.36341 7.21268 1.36947 8.30369C1.36947 8.73404 1.45431 9.1462 1.62398 9.54018C1.87242 10.1221 2.21782 10.6373 2.7753 10.9827Z" fill="#FED92E"/>
</g>
<defs>
<clipPath id="clip0_2335_395">
<rect width="25" height="25" fill="white"/>
</clipPath>
</defs>
</svg>
