<svg width="45" height="45" viewBox="0 0 45 45" fill="none" xmlns="http://www.w3.org/2000/svg">
<circle cx="22.4946" cy="22.4946" r="21.4946" fill="#E92F24"/>
<path d="M13.6562 35.4687V29.8687H14.9522V34.4127H17.7602V35.4687H13.6562ZM18.4843 35.4687V29.8687H19.7803V35.4687H18.4843ZM22.7581 35.4687L20.3421 29.8687H21.7421L23.8541 34.8287H23.0301L25.1741 29.8687H26.4621L24.0381 35.4687H22.7581ZM28.1216 32.1247H30.8176V33.1327H28.1216V32.1247ZM28.2176 34.4287H31.2656V35.4687H26.9296V29.8687H31.1616V30.9087H28.2176V34.4287Z" fill="white"/>
<path d="M12.7188 15.284C12.818 14.9405 12.9277 14.602 13.1679 14.3182C13.5805 13.8304 14.1027 13.5516 14.7556 13.5317C15.2099 13.5168 15.6591 13.5217 16.1134 13.5217C18.6307 13.5217 21.1532 13.5217 23.6705 13.5217C24.6158 13.5217 25.3208 13.9001 25.7177 14.7215C25.8483 15.0002 25.911 15.3288 25.911 15.6374C25.9266 17.8726 25.9214 20.1128 25.9162 22.3529C25.9162 23.4232 25.2111 24.2446 24.1457 24.4388C23.9838 24.4687 23.8167 24.4687 23.6496 24.4687C20.7615 24.4687 17.8734 24.4687 14.9853 24.4687C13.7998 24.4687 13.0008 23.8563 12.7501 22.7512C12.7449 22.7363 12.7292 22.7213 12.7188 22.7064C12.7188 20.2323 12.7188 17.7581 12.7188 15.284Z" fill="white"/>
<path d="M32.2657 18.9922C32.2657 20.0376 32.2709 21.0781 32.2657 22.1235C32.2605 22.9548 31.4458 23.5323 30.6258 23.2983C30.49 23.2585 30.3543 23.1938 30.2289 23.1241C29.2001 22.5665 28.1764 22.004 27.1476 21.4465C27.0275 21.3817 26.9805 21.312 26.9805 21.1776C26.9857 19.7141 26.9857 18.2555 26.9805 16.7919C26.9805 16.6923 26.9857 16.6127 27.1006 16.5529C28.1817 15.9655 29.2575 15.3632 30.3438 14.7807C31.075 14.3875 31.9524 14.731 32.203 15.4926C32.25 15.632 32.2605 15.7913 32.2605 15.9406C32.2709 16.9512 32.2657 17.9717 32.2657 18.9922Z" fill="white"/>
</svg>
