<svg width="60" height="55" viewBox="0 0 60 55" fill="none" xmlns="http://www.w3.org/2000/svg">
<path d="M29.1687 46.6759C29.1687 44.2834 29.1687 41.87 29.1687 39.4359C28.2311 39.4359 27.3143 39.4359 26.3142 39.4359C26.5434 38.895 26.7101 38.4372 26.9393 38.0003C28.1061 35.7326 29.8772 34.1307 32.2524 33.1945C32.4608 33.1112 32.6275 33.132 32.815 33.2569C35.7528 35.3998 39.6283 35.3997 42.587 33.2985C42.8162 33.132 43.0037 33.1113 43.2538 33.2153C47.025 34.7132 49.4629 38.2084 49.5254 42.2653C49.5462 43.7424 49.5254 45.1988 49.5045 46.6759C42.7329 46.6759 35.9612 46.6759 29.1687 46.6759Z" fill="#2F1793"/>
<path d="M19.4802 46.676C18.8968 46.5303 18.3134 46.4471 17.7716 46.239C14.813 45.1988 12.8752 42.4526 12.8336 39.3111C12.8127 37.7715 12.8336 36.2111 12.8336 34.6716C12.8336 34.526 12.8336 34.3803 12.8336 34.2139C12.2293 34.2139 11.6667 34.2139 11 34.2139C12.4585 32.071 13.8754 29.9905 15.313 27.8477C16.7507 29.9697 18.1675 32.0502 19.6052 34.1723C18.9801 34.1723 18.3968 34.1723 17.8134 34.1723C17.8134 34.3179 17.7925 34.4428 17.7925 34.5468C17.7925 36.0863 17.7925 37.6259 17.7925 39.1654C17.7925 40.6842 18.8343 41.7244 20.3553 41.7244C22.3556 41.7244 24.3558 41.7244 26.3769 41.7244C26.5227 41.7244 26.6894 41.7244 26.8978 41.7244C26.8978 43.4096 26.8978 45.0324 26.8978 46.676C24.3975 46.676 21.9388 46.676 19.4802 46.676Z" fill="#2F1793"/>
<path d="M24.5223 7C24.7724 7.06241 25.0224 7.12482 25.2724 7.18723C27.356 7.76977 28.8561 9.60056 28.9187 11.7851C28.9812 13.3246 29.002 14.8641 28.8562 16.3829C28.6478 18.7754 26.6059 20.6479 24.2514 20.7935C21.8137 20.9392 19.6259 19.3372 19.0216 16.9862C18.9591 16.7574 18.8966 16.5286 18.8966 16.2997C18.9175 14.5313 18.7716 12.7213 19.0008 10.9737C19.2717 8.89324 20.9802 7.4369 23.0846 7.06241C23.1472 7.04161 23.2096 7.0208 23.2513 7C23.6889 7 24.1056 7 24.5223 7Z" fill="#2F1793"/>
<path d="M31.7317 24.1864C31.7317 23.1254 31.6275 22.0644 31.7526 21.0241C32.1276 18.1739 34.6279 16.0518 37.5866 15.9478C40.4411 15.8646 43.0455 17.9034 43.629 20.6912C43.6706 20.9201 43.7332 21.149 43.7332 21.3778C43.754 23.4999 43.9832 25.6428 43.6082 27.7441C43.1081 30.5527 40.4619 32.6123 37.6074 32.5291C34.6696 32.4459 32.1484 30.2822 31.7526 27.4112C31.6067 26.3501 31.6484 25.2475 31.6067 24.1657C31.6484 24.1865 31.69 24.1864 31.7317 24.1864Z" fill="#2F1793"/>
<path d="M15.459 23.9119C16.3133 22.726 17.4176 21.8314 18.7927 21.3113C18.8969 21.2697 19.0636 21.3113 19.1678 21.3737C22.1056 23.683 25.6477 23.7038 28.6064 21.3737C28.8148 21.2073 28.9814 21.2489 29.1273 21.3529C29.2315 21.4153 29.3148 21.5818 29.3148 21.7066C29.3356 22.9133 29.3565 24.1407 29.3148 25.3474C29.2315 27.4487 29.5648 29.4459 30.7941 31.1727C30.0649 31.6096 29.3565 32.0465 28.648 32.4626C28.5439 32.525 28.398 32.525 28.273 32.525C26.0436 32.525 23.8142 32.525 21.6056 32.525C21.4597 32.525 21.2305 32.4418 21.168 32.3169C19.2719 29.5499 17.3967 26.7829 15.5215 24.0159C15.5007 23.9951 15.4798 23.9535 15.459 23.9119Z" fill="#2F1793"/>
</svg>
