<svg width="60" height="55" viewBox="0 0 60 55" fill="none" xmlns="http://www.w3.org/2000/svg">
<path d="M31.7438 6.02321C31.9066 6.48838 32.0228 6.95357 32.2089 7.41874C32.2786 7.55829 32.4414 7.72111 32.581 7.79088C33.2787 8.09324 33.9996 8.39562 34.7206 8.67472C34.8834 8.74449 35.1159 8.74449 35.2787 8.67472C35.6043 8.55843 35.9299 8.37238 36.2322 8.18631C36.4648 8.04676 36.6043 8.04676 36.8136 8.25608C37.395 8.88406 38.0229 9.48873 38.6276 10.0935C38.7904 10.2563 38.8601 10.3959 38.6973 10.5819C38.0462 11.4192 38.0229 12.2333 38.6276 13.0938C38.8369 13.3962 38.9299 13.8148 39.023 14.187C39.0927 14.4893 39.2555 14.6289 39.5346 14.6987C39.8602 14.7684 40.1857 14.9313 40.5113 15.001C40.7671 15.0708 40.8136 15.2104 40.8136 15.443C40.7904 16.3035 40.7904 17.1641 40.8136 18.0246C40.8136 18.2572 40.7671 18.3968 40.5113 18.4201C40.4648 18.4201 40.395 18.4665 40.3485 18.4665C39.488 18.6061 38.8834 19.0015 38.7904 19.9318C38.7671 20.2109 38.581 20.2807 38.3252 20.2574C37.9996 20.2342 37.6508 20.2574 37.2555 20.2574C37.2555 18.9317 37.2555 17.6525 37.2555 16.3733C37.2555 15.0941 37.2555 13.7916 37.2555 12.4659C36.3252 12.4659 35.395 12.4659 34.4182 12.4659C34.4182 15.0476 34.4182 17.6293 34.4182 20.2342C33.4647 20.2342 32.5345 20.2342 31.581 20.2342C31.581 16.6989 31.581 13.1636 31.581 9.60505C30.6042 9.60505 29.674 9.60505 28.7205 9.60505C28.7205 13.1403 28.7205 16.6757 28.7205 20.2342C27.767 20.2342 26.8367 20.2342 25.8832 20.2342C25.8832 18.1177 25.8832 16.0011 25.8832 13.8613C24.9065 13.8613 23.9763 13.8613 23.0228 13.8613C23.0228 15.9779 23.0228 18.0712 23.0228 20.2342C22.5809 20.2342 22.1855 20.2342 21.7669 20.2342C21.6971 20.2342 21.6041 20.1412 21.5343 20.0714C21.4878 20.0249 21.4646 19.9319 21.4646 19.8621C21.3715 18.955 20.7902 18.5596 19.9529 18.4433C19.5343 18.3735 19.418 18.1409 19.4413 17.7455C19.4878 16.9547 19.4646 16.1639 19.4413 15.3964C19.4413 15.1638 19.4878 15.001 19.7436 14.9545C20.7669 14.8382 21.3483 14.28 21.5343 13.2334C21.6041 12.8845 21.8134 12.5356 21.9995 12.2333C22.2088 11.9077 22.1855 11.6518 21.9995 11.3494C21.7902 11.0006 21.4878 10.5819 21.5343 10.233C21.5808 9.90738 22.046 9.65155 22.325 9.37245C22.7204 8.97705 23.1157 8.60491 23.4878 8.20952C23.6506 8.02345 23.8134 7.95366 24.0227 8.11647C24.8367 8.74445 25.6507 8.79103 26.5112 8.18631C26.6972 8.04676 26.953 7.95369 27.1623 7.93043C27.86 7.83739 28.1623 7.44202 28.2786 6.79078C28.3251 6.51168 28.4414 6.25584 28.5344 6C29.6042 6.02326 30.674 6.02321 31.7438 6.02321Z" fill="#2F1793"/>
<path d="M52.2331 12.187C52.0238 12.5591 51.861 12.9778 51.5587 13.2569C50.5819 14.2571 48.9307 14.0012 48.2331 12.7685C48.0935 12.5126 47.954 12.4429 47.6982 12.4429C45.6749 12.4429 43.6283 12.4429 41.5818 12.4429C41.5818 11.9777 41.5818 11.5125 41.5818 11.0241C41.7446 11.0241 41.9074 11.0241 42.0469 11.0241C43.9307 11.0241 45.8144 11.0241 47.6982 11.0241C47.8609 11.0241 48.0935 10.9311 48.1865 10.7915C48.6516 9.97748 49.3494 9.55883 50.2796 9.6286C51.2331 9.69838 51.861 10.2566 52.1634 11.1637C52.1866 11.2102 52.2098 11.2567 52.2563 11.3032C52.2331 11.5823 52.2331 11.8846 52.2331 12.187Z" fill="#2F1793"/>
<path d="M52.2331 22.1402C52.0238 22.5123 51.861 22.931 51.5587 23.2101C50.5819 24.2102 48.9307 23.9543 48.2331 22.7216C48.0935 22.4658 47.954 22.396 47.6982 22.396C45.6749 22.396 43.6283 22.396 41.5818 22.396C41.5818 21.9308 41.5818 21.4657 41.5818 20.9773C41.7446 20.9773 41.9074 20.9773 42.0469 20.9773C43.9307 20.9773 45.8144 20.9773 47.6982 20.9773C47.8609 20.9773 48.0935 20.8842 48.1865 20.7447C48.6516 19.9306 49.3494 19.512 50.2796 19.5817C51.2331 19.6515 51.861 20.2097 52.1634 21.1168C52.1866 21.1633 52.2098 21.2098 52.2563 21.2563C52.2331 21.5587 52.2331 21.8611 52.2331 22.1402Z" fill="#2F1793"/>
<path d="M8.04656 11.2806C8.25586 10.9317 8.39537 10.513 8.67445 10.2339C9.6512 9.1873 11.3256 9.44317 12.0233 10.6991C12.1629 10.955 12.3024 11.0247 12.5582 11.0247C14.5815 11.0247 16.6281 11.0247 18.6746 11.0247C18.6746 11.4899 18.6746 11.9551 18.6746 12.4435C18.5118 12.4435 18.349 12.4435 18.2095 12.4435C16.3257 12.4435 14.442 12.4435 12.5582 12.4435C12.3955 12.4435 12.1396 12.5366 12.0698 12.6761C11.6047 13.4902 10.907 13.9321 9.97678 13.8391C9.02328 13.7693 8.39537 13.2111 8.09304 12.304C8.06979 12.2575 8.04651 12.2109 8 12.1644C8.04651 11.8853 8.04656 11.583 8.04656 11.2806Z" fill="#2F1793"/>
<path d="M8.04656 21.2572C8.25586 20.9083 8.39537 20.4896 8.67445 20.2105C9.6512 19.1639 11.3256 19.4197 12.0233 20.6757C12.1629 20.9315 12.3024 21.0013 12.5582 21.0013C14.5815 21.0013 16.6281 21.0013 18.6746 21.0013C18.6746 21.4664 18.6746 21.9317 18.6746 22.4201C18.5118 22.4201 18.349 22.4201 18.2095 22.4201C16.3257 22.4201 14.442 22.4201 12.5582 22.4201C12.3955 22.4201 12.1396 22.5131 12.0698 22.6526C11.6047 23.4667 10.907 23.9086 9.97678 23.8155C9.02328 23.7458 8.39537 23.1876 8.09304 22.2805C8.06979 22.234 8.04651 22.1875 8 22.141C8.04651 21.8619 8.04656 21.5595 8.04656 21.2572Z" fill="#2F1793"/>
<path d="M45.0703 23.8388C45.0703 28.8394 45.0703 33.7935 45.0703 38.7708C35.1167 38.7708 25.1631 38.7708 15.1863 38.7708C15.1863 33.8167 15.1863 28.8394 15.1863 23.8388C16.0933 23.8388 17.0002 23.8388 17.9072 23.8388C18.6514 23.8388 19.4654 23.6527 20.1166 23.9086C20.7445 24.1644 21.1863 24.8622 21.698 25.3971C22.2096 25.9088 22.7445 26.4205 23.2329 26.9322C23.3957 27.095 23.5352 27.1647 23.7212 27.0252C23.8142 26.9554 23.9073 26.9322 24.0003 26.8856C25.3259 26.2111 25.3259 26.2111 26.6747 26.8159C26.791 26.8624 26.9073 27.0484 26.9539 27.1647C27.1399 27.6997 27.3259 28.2579 27.4887 28.8161C29.2562 28.8161 31.0236 28.8161 32.7911 28.8161C32.9771 28.2812 33.14 27.723 33.326 27.188C33.3725 27.0717 33.4423 26.9089 33.5586 26.8392C33.9772 26.6298 34.419 26.4437 34.8609 26.3042C34.9772 26.2577 35.1399 26.3274 35.2562 26.374C35.7679 26.6298 36.2563 26.8856 36.8144 27.1647C37.4191 26.56 38.0237 25.9553 38.6284 25.3506C39.14 24.8389 39.5587 24.1644 40.1866 23.9086C40.7912 23.6527 41.5586 23.8388 42.2563 23.8388C43.1866 23.8388 44.1401 23.8388 45.0703 23.8388ZM17.3491 29.5604C17.3491 31.956 17.3491 34.3051 17.3491 36.631C20.2096 36.631 23.0235 36.631 25.8375 36.631C25.8375 34.2586 25.8375 31.9095 25.8375 29.5604C23.0003 29.5604 20.1863 29.5604 17.3491 29.5604ZM43.6517 30.2814C38.4191 30.2814 33.2097 30.2814 28.0236 30.2814C28.0236 30.7466 28.0236 31.1885 28.0236 31.6537C33.233 31.6537 38.4423 31.6537 43.6517 31.6537C43.6517 31.1885 43.6517 30.7466 43.6517 30.2814ZM43.6517 35.9797C38.4191 35.9797 33.233 35.9797 28.0236 35.9797C28.0236 36.4682 28.0236 36.9101 28.0236 37.352C33.2562 37.352 38.4423 37.352 43.6517 37.352C43.6517 36.9101 43.6517 36.4682 43.6517 35.9797ZM40.8145 33.1422C36.5353 33.1422 32.2795 33.1422 28.0469 33.1422C28.0469 33.6306 28.0469 34.0725 28.0469 34.5144C32.326 34.5144 36.5586 34.5144 40.8145 34.5144C40.8145 34.0493 40.8145 33.6074 40.8145 33.1422ZM43.6517 33.1422C43.1633 33.1422 42.7215 33.1422 42.2796 33.1422C42.2796 33.6306 42.2796 34.0725 42.2796 34.5144C42.7447 34.5144 43.1866 34.5144 43.6517 34.5144C43.6517 34.0493 43.6517 33.6074 43.6517 33.1422Z" fill="#2F1793"/>
<path d="M50.7911 43.1207C50.7911 43.9348 50.8376 44.7255 50.7678 45.4931C50.6748 46.5397 49.7678 47.3305 48.7212 47.3538C48.605 47.3538 48.4887 47.3538 48.3724 47.3538C36.2095 47.3538 24.0698 47.3538 11.9069 47.3538C11.3255 47.3538 10.7905 47.2607 10.3254 46.9119C9.86029 46.563 9.55802 46.0978 9.5115 45.5163C9.46499 44.7255 9.48822 43.9115 9.48822 43.0974C9.65102 43.0974 9.79056 43.0742 9.9301 43.0742C14.465 43.0742 19.0232 43.0742 23.5581 43.0742C23.8837 43.0742 24.0466 43.1905 24.1861 43.4696C24.5117 44.1906 24.8837 44.8651 25.2326 45.5861C25.3489 45.8187 25.4884 45.935 25.7675 45.935C28.6745 45.9117 31.5815 45.935 34.4885 45.935C34.7443 45.935 34.8839 45.8652 35.0002 45.6326C35.3723 44.8651 35.7443 44.1208 36.1397 43.3765C36.2095 43.237 36.4187 43.0974 36.5583 43.0974C41.2328 43.0742 45.9073 43.0974 50.5818 43.0974C50.6515 43.0974 50.698 43.0975 50.7911 43.1207ZM40.8607 44.5394C40.8607 45.0279 40.8607 45.4698 40.8607 45.9117C41.349 45.9117 41.7909 45.9117 42.2328 45.9117C42.2328 45.4465 42.2328 45.0046 42.2328 44.5394C41.7676 44.5394 41.3258 44.5394 40.8607 44.5394ZM43.6979 44.5394C43.6979 45.0279 43.6979 45.4698 43.6979 45.9117C44.1863 45.9117 44.6282 45.9117 45.07 45.9117C45.07 45.4465 45.07 45.0046 45.07 44.5394C44.6049 44.5394 44.1863 44.5394 43.6979 44.5394ZM46.5352 45.9117C47.0235 45.9117 47.4654 45.9117 47.9073 45.9117C47.9073 45.4233 47.9073 44.9814 47.9073 44.5394C47.4421 44.5394 47.0003 44.5394 46.5352 44.5394C46.5352 45.0046 46.5352 45.4465 46.5352 45.9117Z" fill="#2F1793"/>
<path d="M13.7441 23.8626C13.7441 24.0719 13.7441 24.2347 13.7441 24.4207C13.7441 29.119 13.7441 33.8405 13.7441 38.5387C13.7441 39.7249 14.2558 40.2366 15.4651 40.2366C25.2327 40.2366 35.0234 40.2366 44.791 40.2366C46.0003 40.2366 46.512 39.7249 46.512 38.4922C46.512 33.794 46.512 29.119 46.512 24.4207C46.512 24.2347 46.512 24.0719 46.512 23.909C47.3027 23.7462 47.9306 24.2347 47.9306 25.0022C47.9306 30.3982 47.9306 35.7709 47.9306 41.1669C47.9306 41.3065 47.9306 41.4692 47.9306 41.632C36.07 41.632 24.2094 41.632 12.3022 41.632C12.3022 41.4692 12.3022 41.3064 12.3022 41.1204C12.3022 35.7942 12.3022 30.468 12.3022 25.1417C12.3255 24.2812 12.8371 23.816 13.7441 23.8626Z" fill="#2F1793"/>
<path d="M30.1627 21.6991C32.6744 21.6991 35.1861 21.6991 37.6745 21.6991C37.9768 21.6991 38.1396 21.7688 38.2792 22.0479C38.8141 23.1178 38.814 23.1178 37.9768 23.9551C37.5815 24.3505 37.1628 24.7459 36.7907 25.1646C36.6279 25.3274 36.4652 25.4204 36.2559 25.2576C35.4419 24.6296 34.628 24.5831 33.7675 25.1878C33.4651 25.3972 33.0698 25.4902 32.6977 25.5832C32.3489 25.653 32.2093 25.839 32.1395 26.1647C32.0232 26.5833 31.9768 27.1183 31.6744 27.3276C31.4186 27.5369 30.8837 27.3974 30.4651 27.3974C29.9069 27.3974 29.3721 27.3974 28.8139 27.3974C28.5814 27.3974 28.4418 27.3276 28.4185 27.095C28.279 26.0484 27.7208 25.4669 26.6743 25.2576C26.279 25.1878 25.9302 24.9087 25.5348 24.7459C25.372 24.6762 25.1395 24.6762 24.9767 24.7459C24.5348 24.9087 24.0929 25.3506 23.6975 25.2808C23.3022 25.2111 22.9999 24.6761 22.6743 24.3505C22.3255 24.0016 21.9999 23.6528 21.6278 23.3039C21.465 23.1411 21.4417 23.0248 21.558 22.8154C22.1162 21.6758 22.1162 21.6758 23.372 21.6758C25.6511 21.699 27.9069 21.6991 30.1627 21.6991Z" fill="#2F1793"/>
<path d="M42.2559 17.4415C42.2559 16.9531 42.2559 16.5112 42.2559 16.046C42.3721 16.0228 42.4884 16.0228 42.6047 16.0228C43.2093 16.0228 43.814 15.9996 44.4187 16.0228C44.907 16.0461 45.2559 15.9762 45.5583 15.4646C46.0234 14.6505 47.0699 14.3947 47.9536 14.6971C48.8374 14.9994 49.3955 15.86 49.3722 16.7903C49.349 17.7207 48.6978 18.5115 47.7908 18.7673C46.8838 19.0231 45.9303 18.651 45.4652 17.837C45.2792 17.5114 45.0698 17.4183 44.6977 17.4183C43.907 17.4415 43.0931 17.4415 42.2559 17.4415Z" fill="#2F1793"/>
<path d="M18.0004 16.0246C18.0004 16.4898 18.0004 16.9317 18.0004 17.4201C17.2097 17.4201 16.419 17.4434 15.605 17.4201C15.2329 17.4201 15.0003 17.4667 14.791 17.8388C14.3259 18.6761 13.3259 19.025 12.4189 18.7691C11.512 18.5133 10.884 17.6527 10.884 16.6991C10.884 15.7455 11.5352 14.9082 12.4422 14.6524C13.3724 14.3966 14.3492 14.7454 14.8143 15.6059C15.0004 15.9316 15.1864 16.0246 15.5353 16.0014C16.3027 15.9781 17.0701 16.0014 17.8376 16.0014C17.9073 16.0014 17.9306 16.0246 18.0004 16.0246Z" fill="#2F1793"/>
<path d="M34.6745 43.1211C34.4652 43.563 34.2792 43.9584 34.0466 44.3538C34.0001 44.4468 33.8141 44.5166 33.6978 44.5166C31.3257 44.5166 28.9536 44.5166 26.5814 44.5166C26.4652 44.5166 26.3023 44.4701 26.2558 44.3771C26.0233 43.9817 25.8372 43.563 25.6279 43.1211C28.6512 43.1211 31.6047 43.1211 34.6745 43.1211Z" fill="#2F1793"/>
</svg>
