<svg width="60" height="55" viewBox="0 0 60 55" fill="none" xmlns="http://www.w3.org/2000/svg">
<path d="M30.4555 6C31.1984 6.08741 31.9631 6.13114 32.706 6.2404C35.2623 6.59003 37.6439 7.39855 39.8944 8.64409C40.4188 8.92816 40.4843 9.34329 40.1347 9.82402C39.3918 10.8292 38.6271 11.8344 37.8842 12.8395C37.2724 13.6481 37.1413 14.5658 37.4035 15.5273C37.5128 15.8988 37.6002 16.2484 37.7095 16.6199C37.9061 17.2973 38.1246 17.9747 38.2776 18.6521C38.5834 19.9632 39.4356 20.6187 40.7247 20.7717C41.3146 20.8591 41.9045 20.9247 42.4944 21.0121C43.0625 21.0995 43.4558 21.4054 43.6961 21.9298C44.1113 22.8476 44.5482 23.7654 44.9852 24.6831C45.2256 25.2076 45.2256 25.6664 44.9197 26.1909C44.5045 26.8901 44.1331 27.6112 43.7617 28.3323C43.3684 29.0752 43.3684 29.8401 43.7835 30.583C44.155 31.2386 44.5483 31.8941 44.9634 32.5278C45.8374 33.8171 46.7332 35.0845 47.629 36.3518C47.9131 36.7452 47.913 37.0948 47.6727 37.51C46.0122 40.2414 43.8491 42.4921 41.1616 44.2621C40.8557 44.4588 40.5717 44.6117 40.2221 44.3932C39.8725 44.1528 39.8725 43.8469 39.938 43.4536C40.2876 41.6181 40.6372 39.7607 40.965 37.9033C41.1179 37.0948 40.8995 36.3737 40.3314 35.8056C39.086 34.5382 37.7969 33.2926 36.4859 32.069C35.9834 31.5882 35.3497 31.5227 34.6942 31.5227C32.9682 31.5008 31.2202 31.5227 29.4941 31.5227C28.7075 31.5227 28.1832 30.9326 28.2488 30.1897C28.2925 29.7745 28.5109 29.4905 28.8387 29.272C29.4286 28.8786 29.9967 28.4634 30.5648 28.0701C31.3732 27.5238 31.7883 26.759 31.7883 25.8194C31.8102 23.4813 31.832 21.165 31.7883 18.8269C31.7665 17.6688 30.9143 16.751 29.8 16.5107C28.642 16.2484 27.5714 16.6854 26.9596 17.6906C26.8503 17.8654 26.7411 18.0403 26.6537 18.2151C26.2386 19.2203 24.6873 19.2421 24.1848 18.3462C24.0755 18.1495 23.9444 17.9528 23.8352 17.7561C23.6604 17.4502 23.5074 17.1661 23.3545 16.8602C22.7864 15.7458 21.9561 15.0903 20.6889 14.8718C18.8535 14.5659 17.0401 14.1288 15.2048 13.7355C14.8989 13.6699 14.6366 13.5388 14.5274 13.2329C14.4181 12.9052 14.5711 12.6429 14.8114 12.4026C17.9359 9.19038 21.6721 7.18001 26.0638 6.37151C26.8941 6.21854 27.7462 6.17481 28.5983 6.06555C28.7731 6.0437 28.9479 6.02185 29.1227 6C29.5815 6 30.0185 6 30.4555 6Z" fill="#2F1793"/>
<path d="M9 25.5798C9.06555 25.121 9.10928 24.6402 9.17483 24.1813C9.26223 23.4602 9.58997 23.2417 10.2673 23.4165C10.4421 23.4602 10.5951 23.5257 10.7699 23.5476C11.5783 23.635 11.9934 24.1158 12.2337 24.8369C12.9547 26.8909 13.6976 28.9231 14.4186 30.9772C14.7464 31.8949 15.3145 32.5068 16.2322 32.8564C18.3952 33.6649 20.5583 34.4953 22.6995 35.3256C23.4642 35.6097 23.7045 35.9812 23.6827 36.8115C23.6608 37.9259 23.6172 39.0186 23.5953 40.133C23.5735 40.9633 23.9231 41.6407 24.5348 42.2088C25.9332 43.5199 27.3097 44.8748 28.6862 46.2077C29.2761 46.7759 29.2106 47.2129 28.5114 47.6062C28.4022 47.6062 28.2929 47.6062 28.1836 47.6062C28.0962 47.5843 28.0089 47.5406 27.9215 47.5406C25.5399 47.344 23.2457 46.754 21.1045 45.727C14.659 42.5804 10.7043 37.4889 9.32779 30.4309C9.17485 29.6879 9.10925 28.945 9 28.1802C9 27.328 9 26.4539 9 25.5798Z" fill="#2F1793"/>
<path d="M50.6001 28.0926C50.4909 28.8793 50.4472 29.6878 50.2724 30.4526C49.9883 31.6981 49.6169 32.9218 49.2673 34.1674C49.1799 34.4733 48.9833 34.6918 48.6556 34.7355C48.3278 34.7792 48.1093 34.6044 47.9127 34.3203C46.995 32.9656 46.0773 31.6107 45.1378 30.2778C44.8319 29.8408 44.7882 29.4037 45.0067 28.9448C45.247 28.4641 45.5311 28.0052 45.7714 27.5245C46.0336 27 46.274 26.4756 46.4706 25.9294C46.6454 25.4049 46.5798 24.8804 46.3613 24.3778C45.8807 23.329 45.3563 22.2801 44.8756 21.2312C44.4168 20.2479 43.652 19.7454 42.6033 19.6361C42.0133 19.5705 41.4234 19.4613 40.8335 19.3957C40.2217 19.3083 39.8284 19.0024 39.6536 18.3905C39.3477 17.2324 39.0419 16.0962 38.7141 14.938C38.6049 14.5665 38.6267 14.2169 38.8671 13.8891C39.7192 12.731 40.5713 11.551 41.4453 10.3929C41.7293 10.0214 42.1008 10.0214 42.5159 10.3273C45.0723 12.3158 47.0824 14.7413 48.5026 17.6476C49.6606 20.0294 50.3598 22.5423 50.5564 25.1863C50.5564 25.2956 50.6001 25.4267 50.622 25.536C50.6001 26.4319 50.6001 27.2623 50.6001 28.0926Z" fill="#2F1793"/>
<path d="M30.4337 22.4341C30.4337 23.483 30.4337 24.5537 30.4337 25.6025C30.4337 26.1051 30.2808 26.5203 29.8875 26.8044C29.4942 27.1103 29.079 27.3944 28.6639 27.6785C28.358 27.897 28.0303 28.1155 27.7462 28.3559C26.8723 29.0988 26.6101 30.1259 27.0034 31.1747C27.3748 32.2017 28.3143 32.8791 29.4286 32.8791C31.1766 32.8791 32.9245 32.901 34.6724 32.8791C35.1094 32.8791 35.459 32.9884 35.7649 33.2943C36.9447 34.4306 38.1246 35.5669 39.2826 36.725C39.4574 36.8999 39.5448 37.2494 39.523 37.4898C39.4137 38.4513 39.2608 39.3909 39.086 40.3305C38.7801 41.9913 38.4524 43.652 38.1465 45.3127C38.081 45.706 37.8843 45.9682 37.5129 46.1212C35.9397 46.733 34.301 47.1482 32.6186 47.4104C32.1817 47.476 31.8758 47.3449 31.5699 47.0608C30.1278 45.6623 28.6639 44.2638 27.2219 42.8653C26.632 42.2972 26.0638 41.729 25.4739 41.1827C25.1243 40.8549 24.9714 40.5053 24.9714 40.0465C25.0151 38.9757 25.0369 37.905 25.0588 36.8343C25.1025 35.4139 24.5125 34.518 23.2016 34.0154C21.1477 33.2287 19.0939 32.4421 17.0183 31.6773C16.2754 31.4151 15.8384 30.978 15.5762 30.1914C14.9426 28.2247 14.2216 26.28 13.5442 24.3352C13.1291 23.1115 12.2988 22.3686 11.0097 22.1719C10.7912 22.1282 10.5727 22.0626 10.3324 21.997C9.87356 21.8659 9.65506 21.5382 9.78616 21.0793C10.3979 18.8942 11.3593 16.8838 12.6484 15.0264C12.8887 14.6768 13.2165 14.7642 13.5224 14.8297C14.3308 14.9608 15.1392 15.1357 15.9477 15.3105C17.5427 15.6382 19.1376 16.0097 20.7545 16.3375C21.2133 16.4249 21.5629 16.6434 21.8032 17.0368C22.0217 17.4082 22.2402 17.7797 22.4587 18.1512C22.6553 18.5008 22.852 18.8286 23.0487 19.1564C24.0974 20.8608 26.8941 20.7515 27.7462 19.0471C27.8555 18.8504 27.9866 18.6538 28.0958 18.4571C28.4236 17.9327 28.9043 17.7142 29.4724 17.8671C30.0623 18.0201 30.39 18.4353 30.39 19.0908C30.4555 20.1834 30.4337 21.3197 30.4337 22.4341Z" fill="#2F1793"/>
</svg>
