<svg width="30" height="31" viewBox="0 0 30 31" fill="none" xmlns="http://www.w3.org/2000/svg">
<path d="M4 20.4244C4 15.5665 4 10.5929 4 5.73497C4 5.73497 4 5.73497 4 5.61931C4.23141 4.69399 4.92565 4 5.8513 4C8.04971 4 10.2481 4 12.5622 4C13.4879 4 14.2978 4.57832 14.4135 5.50364C14.5292 6.08197 14.5292 6.54463 14.6449 7.12295C14.8764 8.74226 14.9921 10.2459 15.2235 11.8652C15.4549 13.3689 15.5706 14.9882 15.802 16.4918C16.0334 18.1111 16.2648 19.7304 16.3805 21.3497C16.3805 21.6967 16.1491 22.0437 15.9177 22.0437C12.5622 22.0437 9.20677 22.0437 5.8513 22.0437C5.27277 22.0437 4.69424 21.8124 4.34712 21.3497C4.11571 21.1184 4 20.7714 4 20.4244ZM10.7109 13.8315C10.8267 14.1785 10.8267 14.5255 10.9424 14.7568C11.0581 15.1038 11.0581 15.4508 11.1738 15.7978C11.2895 16.1448 11.6366 16.3761 11.9837 16.3761C12.3308 16.2605 12.5622 15.9135 12.4465 15.5665C11.9837 13.4845 11.5209 11.4026 11.1738 9.20492C11.0581 8.85793 10.8267 8.6266 10.3638 8.6266C10.0167 8.6266 9.55389 8.6266 9.20677 8.6266C8.74395 8.6266 8.51253 8.85793 8.51253 9.20492C8.16542 10.7086 7.934 12.2122 7.58689 13.7159C7.47118 14.2942 7.35547 14.9882 7.23977 15.5665C7.12406 15.9135 7.35547 16.2605 7.70259 16.3761C8.04971 16.4918 8.39683 16.2605 8.51253 15.9135C8.51253 15.7978 8.51253 15.6822 8.62824 15.5665C8.74395 14.9882 8.85965 14.4098 8.97536 13.8315C9.55389 13.8315 10.1324 13.8315 10.7109 13.8315Z" fill="#20DEC2"/>
<path d="M24.2491 26.0906C21.0093 26.0906 17.6538 26.0906 14.4141 26.0906L14.5298 25.9749C15.4554 24.934 16.2654 24.0086 17.191 22.9676C17.6538 22.505 17.7695 21.9267 17.7695 21.3483C17.6538 20.423 17.5381 19.4977 17.4224 18.5724C17.191 17.0687 17.0753 15.4494 16.8439 13.9458C16.6125 12.5578 16.4968 11.0542 16.2654 9.66618C16.1497 9.08786 16.1497 8.6252 16.0339 8.04688C16.1497 8.04688 16.1497 8.04688 16.1497 8.04688C18.8109 8.04688 21.3564 8.04688 24.0177 8.04688C24.3648 8.04688 24.5962 8.16254 24.8276 8.27821C25.6375 8.6252 25.9847 9.31919 25.9847 10.1288C25.9847 11.4012 25.9847 12.6735 25.9847 14.0615C25.9847 17.4157 25.9847 20.77 25.9847 24.24C25.9847 24.934 25.7532 25.5123 25.1747 25.8593C24.9433 25.8593 24.5962 25.9749 24.2491 26.0906ZM20.5465 17.8784C20.4308 17.9941 20.4308 17.9941 20.3151 18.1097C19.8522 18.4567 19.5051 18.8037 19.0423 19.1507C18.8109 19.382 18.6952 19.729 18.9266 20.076C19.158 20.3074 19.5051 20.423 19.8522 20.1917C19.9679 20.076 20.0837 20.076 20.1994 19.9604C20.6622 19.6134 21.0093 19.2664 21.4721 18.9194C21.5878 19.035 21.5878 19.035 21.7035 19.1507C22.1664 19.4977 22.6292 19.8447 22.9763 20.1917C23.3234 20.423 23.6705 20.423 23.902 20.076C24.1334 19.729 24.0177 19.382 23.7862 19.1507C23.5548 18.9194 23.3234 18.8037 23.092 18.5724C22.8606 18.3411 22.6292 18.2254 22.3978 17.9941C23.092 17.1844 23.5548 16.2591 23.902 15.2181C23.902 15.2181 24.0177 15.1024 24.1334 15.1024C24.5962 15.1024 24.8276 14.7554 24.8276 14.4084C24.8276 14.0615 24.4805 13.8301 24.1334 13.8301C23.7862 13.8301 23.4391 13.8301 23.092 13.8301C22.7449 13.8301 22.5135 13.8301 22.1664 13.8301C22.1664 13.5988 22.1664 13.4831 22.1664 13.2518C22.1664 12.7891 21.935 12.5578 21.4721 12.5578C21.125 12.5578 20.7779 12.9048 20.7779 13.2518C20.7779 13.4831 20.7779 13.5988 20.7779 13.8301C20.6622 13.8301 20.5465 13.8301 20.5465 13.8301C19.9679 13.8301 19.5051 13.8301 18.9266 13.8301C18.4638 13.8301 18.2324 14.0615 18.2324 14.4084C18.2324 14.7554 18.4638 15.1024 18.9266 15.1024H19.0423C19.3894 16.1434 19.8522 17.0687 20.5465 17.8784Z" fill="#20DEC2"/>
<path d="M14.8765 23.5469C14.1822 24.3565 13.488 25.1662 12.678 25.8602C11.6367 25.3975 11.521 24.4722 11.4053 23.5469C12.678 23.5469 13.7194 23.5469 14.8765 23.5469Z" fill="#20DEC2"/>
<path d="M9.09082 12.4431C9.32223 11.6334 9.43794 10.8238 9.66935 9.89844C9.78506 9.89844 9.90076 9.89844 9.90076 9.89844C10.1322 10.8238 10.2479 11.6334 10.4793 12.4431C10.0165 12.4431 9.55364 12.4431 9.09082 12.4431Z" fill="#20DEC2"/>
<path d="M20.4307 15.1055C21.1249 15.1055 21.8191 15.1055 22.5134 15.1055C22.282 15.7995 21.9348 16.3778 21.472 16.9561C21.0092 16.3778 20.6621 15.7995 20.4307 15.1055Z" fill="#20DEC2"/>
</svg>
