<svg width="10" height="16" viewBox="0 0 10 16" fill="none" xmlns="http://www.w3.org/2000/svg">
<g clip-path="url(#clip0_284_18)">
<path d="M8.94485 1.16486e-08C9.25562 0.0716616 9.5324 0.192591 9.73635 0.42997C10.0811 0.833067 10.0908 1.41532 9.7412 1.81841C9.67322 1.89455 9.60038 1.9707 9.52269 2.04236C7.39098 4.00857 5.25927 5.97479 3.12271 7.94548C3.07415 7.99027 3.01588 8.0261 2.92848 8.1336C2.98675 8.16495 3.05958 8.18286 3.10814 8.22765C5.26413 10.2118 7.41526 12.2004 9.57125 14.1845C9.95 14.5339 10.1005 14.9415 9.93058 15.4207C9.68293 16.1328 8.69235 16.415 8.04652 15.9582C7.97368 15.9089 7.9057 15.8507 7.84257 15.7924C5.37095 13.5127 2.89934 11.233 0.427723 8.95323C-0.0335805 8.52773 -0.130696 7.99923 0.180077 7.51552C0.252915 7.39907 0.359739 7.29605 0.461712 7.202C2.86535 4.98048 5.2787 2.75897 7.68233 0.537462C7.9494 0.291125 8.22619 0.0716617 8.60494 1.54012e-08C8.71662 1.41682e-08 8.83316 1.28816e-08 8.94485 1.16486e-08Z" fill="white"/>
</g>
<defs>
<clipPath id="clip0_284_18">
<rect width="10" height="16" fill="white"/>
</clipPath>
</defs>
</svg>
