<svg width="19" height="19" viewBox="0 0 19 19" fill="none" xmlns="http://www.w3.org/2000/svg">
<path d="M2 15.9834C2 14.6095 2 13.2394 2 11.8655C2.00794 11.8378 2.02382 11.8102 2.02779 11.7825C2.11116 11.1232 2.37318 10.5428 2.81385 10.0414C2.88928 9.95848 2.92104 9.87557 2.91707 9.76502C2.9131 8.21732 2.90913 6.66568 2.91707 5.11799C2.92104 3.91379 3.84208 3.00175 5.05292 3.00175C8.07806 2.99781 11.1072 3.00175 14.1323 3.00175C14.303 3.00175 14.4817 3.01755 14.6484 3.05703C15.621 3.28602 16.2681 4.11515 16.2681 5.12983C16.2721 6.65778 16.2681 8.18969 16.2721 9.71764C16.2721 9.79265 16.2999 9.88741 16.3515 9.93874C16.9391 10.5783 17.2408 11.3285 17.2448 12.1971C17.2487 13.3816 17.2448 14.566 17.2448 15.7505C17.2448 15.8689 17.2329 15.9874 17.2051 16.1019C17.0502 16.6941 16.4944 17.0573 15.8672 16.9823C15.2995 16.9152 14.8469 16.4098 14.831 15.8255C14.827 15.6952 14.831 15.561 14.831 15.4307C11.3493 15.4307 7.8875 15.4307 4.41772 15.4307C4.41772 15.5689 4.42169 15.6992 4.41772 15.8255C4.39787 16.3072 4.16762 16.6665 3.73489 16.8718C3.30613 17.0771 2.88928 17.0336 2.49625 16.7573C2.21835 16.5717 2.08337 16.2953 2 15.9834ZM2.5955 13.0657C2.68681 13.0657 2.75827 13.0657 2.82576 13.0657C5.39434 13.0657 7.9669 13.0657 10.5355 13.0657C10.603 13.0657 10.6744 13.0657 10.7419 13.0776C10.8809 13.1012 10.9801 13.2197 10.9841 13.3579C10.9881 13.5 10.8848 13.6264 10.738 13.65C10.6705 13.6619 10.599 13.6579 10.5315 13.6579C7.95102 13.6579 5.37052 13.6579 2.79003 13.6579C2.72651 13.6579 2.66696 13.6579 2.60344 13.6579C2.60344 14.0607 2.60344 14.4397 2.60344 14.8227C7.28803 14.8227 11.9607 14.8227 16.6413 14.8227C16.6413 14.4318 16.6413 14.0488 16.6413 13.6579C16.5738 13.6579 16.5143 13.6579 16.4547 13.6579C15.5734 13.6579 14.6881 13.6579 13.8068 13.6579C13.7432 13.6579 13.6757 13.6579 13.6122 13.65C13.4693 13.6264 13.374 13.5158 13.3701 13.3737C13.3661 13.1842 13.4971 13.0697 13.7274 13.0697C14.6405 13.0697 15.5535 13.0697 16.4666 13.0697C16.5222 13.0697 16.5818 13.0697 16.6532 13.0697C16.6532 12.7735 16.6532 12.4972 16.6532 12.2247C16.6493 10.7126 15.4821 9.52418 13.9656 9.52023C11.0714 9.50838 8.18128 9.51233 5.28715 9.52023C4.06837 9.52418 3.0322 10.3138 2.69872 11.4627C2.54389 11.98 2.61138 12.513 2.5955 13.0657ZM15.6726 9.38599C15.6726 9.32677 15.6726 9.28334 15.6726 9.23596C15.6726 7.87778 15.6766 6.52355 15.6726 5.16537C15.6726 4.23359 15.0295 3.59793 14.0886 3.59793C11.0913 3.59793 8.09394 3.59793 5.09659 3.59793C4.97749 3.59793 4.85839 3.60188 4.73929 3.62162C4.00088 3.76376 3.5086 4.36388 3.5086 5.12983C3.50463 6.5196 3.5086 7.91331 3.5086 9.30308C3.5086 9.33861 3.51654 9.37414 3.52051 9.41363C3.70313 9.32677 3.8659 9.23991 4.04058 9.16884C4.12395 9.13331 4.14776 9.08988 4.14776 9.00302C4.14379 8.70295 4.13982 8.39894 4.14776 8.09888C4.17158 7.26186 4.81869 6.58672 5.65636 6.56303C6.57343 6.53934 7.4905 6.55118 8.41154 6.55908C8.80059 6.56303 9.13407 6.72096 9.41594 6.98154C9.4874 7.04866 9.55092 7.12367 9.62238 7.19869C9.65017 7.1671 9.67399 7.14341 9.69781 7.11578C10.0114 6.75254 10.4124 6.55513 10.8967 6.55118C11.7662 6.54723 12.6316 6.53539 13.5011 6.55118C14.438 6.56698 15.093 7.25002 15.101 8.18574C15.101 8.46211 15.097 8.73849 15.1049 9.01486C15.1049 9.05829 15.1367 9.11751 15.1724 9.13725C15.3233 9.22806 15.4861 9.29913 15.6726 9.38599ZM4.77105 8.928C6.27568 8.928 7.79619 8.928 9.32463 8.928C9.32463 8.66347 9.32463 8.43448 9.32463 8.20153C9.32463 7.56587 8.91175 7.15526 8.27656 7.14736C7.77237 7.14341 7.26421 7.14736 6.76002 7.14736C6.38684 7.14736 6.01366 7.13947 5.64445 7.15921C5.2276 7.17895 4.83457 7.5027 4.78296 7.91331C4.73532 8.25286 4.77105 8.60425 4.77105 8.928ZM9.94395 8.93195C11.4565 8.93195 12.9691 8.93195 14.4856 8.93195C14.4856 8.62794 14.5174 8.30024 14.4777 7.98043C14.4221 7.5027 14.037 7.15921 13.5566 7.15131C12.6555 7.13552 11.7503 7.13552 10.8491 7.15131C10.3965 7.15921 10.0114 7.48691 9.95189 7.93305C9.90822 8.24891 9.94395 8.57661 9.94395 8.93195ZM2.59947 15.4307C2.59947 15.5847 2.58756 15.7268 2.60344 15.8689C2.63123 16.165 2.88134 16.394 3.17909 16.4059C3.48081 16.4217 3.75871 16.2243 3.80635 15.9321C3.83414 15.7702 3.81032 15.6044 3.81032 15.4307C3.40538 15.4307 3.01235 15.4307 2.59947 15.4307ZM15.4265 15.4307C15.4265 15.5728 15.4225 15.7031 15.4265 15.8294C15.4384 16.1177 15.6568 16.3585 15.9347 16.398C16.2443 16.4414 16.5421 16.2756 16.6135 15.9795C16.6572 15.8018 16.6453 15.6162 16.6572 15.4267C16.2324 15.4307 15.8394 15.4307 15.4265 15.4307Z" fill="#20DEC2"/>
<path d="M11.8809 13.3611C11.8809 13.1993 12.0079 13.069 12.1707 13.065C12.3374 13.0611 12.4764 13.2032 12.4724 13.3651C12.4684 13.527 12.3374 13.6533 12.1707 13.6533C12.0079 13.6533 11.8809 13.527 11.8809 13.3611Z" fill="#20DEC2"/>
</svg>
