<svg width="28" height="26" viewBox="0 0 28 26" fill="none" xmlns="http://www.w3.org/2000/svg">
<path d="M4 22.2658C4 20.6983 4 19.1308 4 17.5751C4.01045 17.5395 4.03133 17.492 4.03133 17.4564C4.13579 16.4114 4.47003 15.4614 5.00275 14.6064C5.07587 14.4876 5.11763 14.3333 5.11763 14.1908C5.12808 11.1508 5.11764 8.12266 5.12809 5.08266C5.12809 4.63141 5.26389 4.40577 5.62948 4.28702C8.00059 3.52702 10.4239 3.09951 12.889 3.01638C15.9809 2.90951 19.0205 3.32513 22.0079 4.27513C22.4466 4.41763 22.5719 4.59578 22.5719 5.11828C22.5719 8.12266 22.5719 11.127 22.5719 14.1314C22.5719 14.2383 22.6033 14.3689 22.6555 14.452C23.3867 15.5445 23.7627 16.7676 23.7627 18.1333C23.7627 19.4158 23.7627 20.7101 23.7627 21.9926C23.7627 22.4558 23.5329 22.7527 23.1778 22.7527C22.8226 22.7527 22.6033 22.4558 22.6033 21.9808C22.6033 21.7908 22.6033 21.5889 22.6033 21.3989C16.7747 21.3989 10.9671 21.3989 5.14897 21.3989C5.14897 21.5651 5.14897 21.7314 5.14897 21.8858C5.14897 22.3726 5.0132 22.6339 4.71028 22.7289C4.42825 22.812 4.19846 22.6695 4 22.2658ZM14.4454 12.1601C14.4559 12.1245 14.4558 12.1008 14.4558 12.0889C14.4558 11.3408 14.4558 10.5808 14.4558 9.83266C14.4558 8.87078 15.0303 8.21764 15.8764 8.21764C16.8583 8.21764 17.8401 8.21764 18.8325 8.21764C19.6681 8.21764 20.2531 8.87078 20.2531 9.83266C20.2531 10.5689 20.2739 11.2933 20.2426 12.0295C20.2322 12.3858 20.3157 12.5639 20.6186 12.6708C20.8902 12.7658 21.1409 12.9558 21.4125 13.122C21.4125 13.027 21.4125 12.9439 21.4125 12.8608C21.4125 10.4858 21.4125 8.11077 21.4229 5.73577C21.4229 5.51014 21.3707 5.42702 21.1827 5.36765C19.1981 4.79765 17.1925 4.45329 15.1452 4.34641C12.1996 4.20391 9.30624 4.54827 6.45465 5.40327C6.31886 5.43889 6.28752 5.51013 6.28752 5.65263C6.28752 8.09888 6.28752 10.557 6.28752 13.0033C6.28752 13.0626 6.29797 13.1101 6.29797 13.1458C6.66356 12.9439 7.00825 12.742 7.36339 12.5639C7.47829 12.5045 7.50964 12.4452 7.50964 12.3145C7.4992 11.4714 7.4992 10.6283 7.50964 9.79703C7.50964 8.89453 8.09459 8.22953 8.88844 8.22953C9.90165 8.22953 10.9044 8.22953 11.9176 8.22953C12.7115 8.22953 13.286 8.89453 13.2964 9.79703C13.2964 10.5095 13.2964 11.2101 13.2964 11.9226C13.2964 12.0058 13.2964 12.077 13.2964 12.1601C13.6933 12.1601 14.0694 12.1601 14.4454 12.1601ZM22.551 17.4208C22.551 17.3733 22.551 17.3376 22.5406 17.302C22.2377 15.1645 20.556 13.4901 18.6236 13.4901C15.4586 13.4783 12.2936 13.4783 9.12867 13.4901C7.99012 13.502 7.01871 14.0126 6.2353 14.9626C5.67125 15.6514 5.32656 16.4708 5.20122 17.4208C10.988 17.4208 16.7643 17.4208 22.551 17.4208ZM22.5928 18.7626C16.7747 18.7626 10.9671 18.7626 5.16988 18.7626C5.16988 19.202 5.16988 19.6295 5.16988 20.057C10.988 20.057 16.7852 20.057 22.5928 20.057C22.5928 19.6295 22.5928 19.202 22.5928 18.7626ZM12.1474 12.172C12.1474 11.3527 12.1474 10.5808 12.1474 9.80888C12.1474 9.59513 12.0429 9.53578 11.8758 9.53578C10.8939 9.53578 9.92253 9.53578 8.94066 9.53578C8.73175 9.53578 8.66907 9.60702 8.66907 9.85639C8.66907 10.4976 8.66907 11.1389 8.66907 11.792C8.66907 11.9227 8.66907 12.0651 8.66907 12.1839C9.83895 12.172 10.9775 12.172 12.1474 12.172ZM15.6153 12.172C16.7852 12.172 17.9237 12.172 19.0727 12.172C19.0727 12.172 19.0831 12.1601 19.0831 12.1483C19.0831 11.3645 19.0831 10.5689 19.0831 9.78515C19.0831 9.63077 18.9996 9.54763 18.8638 9.54763C17.8506 9.54763 16.8478 9.54763 15.8346 9.54763C15.6988 9.54763 15.6153 9.6189 15.6153 9.78515C15.6153 10.5689 15.6153 11.3527 15.6153 12.172Z" fill="#2F1793"/>
</svg>
