<svg width="30" height="31" viewBox="0 0 30 31" fill="none" xmlns="http://www.w3.org/2000/svg">
<path d="M12.1919 5C12.5654 5.09718 12.9287 5.23756 13.2192 5.50751C13.624 5.88545 13.873 6.33898 13.8938 6.90048C13.9145 7.66715 13.9041 8.42301 13.9041 9.18968C13.9041 10.1723 13.9145 11.1549 13.9041 12.1484C13.8938 13.2066 13.2503 14.0272 12.2852 14.2216C12.1192 14.254 11.9532 14.254 11.7872 14.254C10.2513 14.254 8.70507 14.2324 7.16922 14.2648C6.08997 14.2864 5.18715 13.5413 5.03149 12.5047C5.03149 12.4939 5.02112 12.4831 5.01074 12.4723C5.01074 10.5718 5.01074 8.66057 5.01074 6.7601C5.02112 6.7277 5.04187 6.70609 5.04187 6.6737C5.13527 6.18778 5.37393 5.78826 5.73714 5.46431C6.01733 5.21595 6.3598 5.09718 6.70226 5C8.53905 5 10.3654 5 12.1919 5Z" fill="#20DEC2"/>
<path d="M24.8004 12.4831C24.707 12.8826 24.572 13.2606 24.2918 13.5737C23.939 13.9732 23.5032 14.2432 22.9843 14.254C22.2164 14.2756 21.4485 14.2648 20.6805 14.2648C19.757 14.2648 18.8334 14.2756 17.9202 14.2648C16.9136 14.254 16.1145 13.5845 15.9277 12.5911C15.8966 12.4183 15.8966 12.2347 15.8966 12.0512C15.8966 10.4531 15.9173 8.84415 15.8862 7.24603C15.8654 6.11223 16.5815 5.18356 17.5777 5.02158C17.5881 5.02158 17.5984 5.0108 17.6088 5C19.4352 5 21.272 5 23.0985 5C23.1296 5.0108 23.1503 5.03239 23.1815 5.03239C23.6484 5.12958 24.022 5.36714 24.3334 5.74507C24.5824 6.04742 24.6966 6.39296 24.8004 6.7601C24.8004 8.68217 24.8004 10.5826 24.8004 12.4831Z" fill="#20DEC2"/>
<path d="M5 18.1185C5.0934 17.719 5.22829 17.3411 5.50848 17.0279C5.86131 16.6284 6.29717 16.3584 6.81604 16.3476C7.55283 16.326 8.30002 16.3368 9.03681 16.3368C9.98115 16.3368 10.9255 16.326 11.8802 16.3368C12.8972 16.3476 13.6858 17.0171 13.8726 18.0213C13.9038 18.1941 13.9038 18.3669 13.9038 18.5397C13.9038 20.1378 13.883 21.7467 13.9141 23.3448C13.9349 24.4678 13.2292 25.4072 12.2226 25.5692C12.2123 25.5692 12.2019 25.58 12.1915 25.5908C10.3651 25.5908 8.52832 25.5908 6.7019 25.5908C6.67077 25.58 6.65 25.5584 6.61887 25.5584C6.15188 25.4613 5.75755 25.2129 5.45661 24.8349C5.21793 24.5434 5.10378 24.1871 5.01039 23.8307C5.00001 21.9195 5 20.019 5 18.1185Z" fill="#20DEC2"/>
<path d="M17.6085 25.6042C17.2245 25.507 16.8613 25.3666 16.5604 25.0751C16.1764 24.7079 15.917 24.2544 15.9066 23.7145C15.8858 22.8507 15.8962 21.9868 15.8962 21.123C15.8962 20.2267 15.8858 19.3413 15.8962 18.445C15.9066 17.3868 16.55 16.5662 17.5151 16.3718C17.6811 16.3394 17.8472 16.3394 18.0132 16.3394C19.5491 16.3394 21.0953 16.361 22.6311 16.3286C23.7207 16.307 24.6132 17.0521 24.7688 18.0887C24.7688 18.0995 24.7792 18.1103 24.7896 18.1211C24.7896 20.0215 24.7896 21.9328 24.7896 23.8333C24.7792 23.8657 24.7585 23.8873 24.7585 23.9197C24.6651 24.4056 24.4264 24.8159 24.0632 25.1291C23.783 25.3774 23.4406 25.4962 23.0981 25.5934C21.2613 25.6042 19.4349 25.6042 17.6085 25.6042Z" fill="#20DEC2"/>
</svg>
