<svg width="30" height="31" viewBox="0 0 30 31" fill="none" xmlns="http://www.w3.org/2000/svg">
<path d="M10.163 7.39761C10.2564 7.32203 10.3498 7.17083 10.3602 7.04126C10.381 6.53374 10.3706 6.02625 10.3602 5.50794C10.3498 5.184 10.2045 4.98963 9.86208 5.00043C9.01114 5.01123 8.14981 5.00043 7.29887 5.00043C6.97717 5.00043 6.79038 5.16239 6.78 5.49713C6.76963 6.99807 6.78 8.4882 6.78 10.0755C7.9734 9.14689 9.07341 8.28306 10.163 7.39761Z" fill="#20DEC2"/>
<path d="M24.7222 13.1212C24.7326 12.8081 24.6184 12.6029 24.3901 12.4193C21.3495 10.0113 18.309 7.60336 15.2684 5.18458C14.9674 4.94702 14.7392 4.95783 14.4486 5.19538C13.3486 6.08083 12.2486 6.94467 11.1382 7.81932C9.21841 9.34186 7.2986 10.8536 5.39954 12.3869C5.22312 12.5273 5.04669 12.7865 5.02594 13.0024C4.98443 13.7259 5.00519 14.4602 5.00519 15.1836C5.00519 15.5292 5.16086 15.6912 5.49293 15.6912C5.89765 15.6912 6.30236 15.6912 6.77971 15.6912C6.77971 15.8963 6.77971 16.0583 6.77971 16.2095C6.77971 19.071 6.77971 21.9217 6.77971 24.7832C6.77971 25.3771 6.89388 25.4958 7.47501 25.4958C8.60614 25.4958 9.74765 25.4958 10.8788 25.4958C11.0033 25.4958 11.1174 25.4742 11.2524 25.4634C11.2524 25.2475 11.2524 25.0747 11.2524 24.8911C11.2524 21.7705 11.2524 18.6499 11.2524 15.5292C11.2524 14.8921 11.3769 14.7625 11.9891 14.7625C13.8571 14.7625 15.7146 14.7625 17.5825 14.7625C18.3297 14.7625 18.3609 14.7841 18.5269 15.5184C18.5165 15.4644 19.575 15.2808 19.6788 15.27C20.0523 15.2268 20.426 15.2268 20.7995 15.2592C21.1627 15.3024 21.5259 15.378 21.8788 15.4968C22.0552 15.5508 22.2316 15.6264 22.3976 15.702C22.5222 15.756 22.6259 15.8855 22.7712 15.8855C22.8958 15.8855 22.9995 15.7776 23.1137 15.7344C23.2382 15.6804 23.3835 15.6696 23.5184 15.6696C23.8297 15.6696 24.1618 15.7451 24.4524 15.5832C24.6288 15.486 24.7222 15.324 24.7222 15.1189C24.7118 14.471 24.7014 13.8015 24.7222 13.1212ZM14.8326 12.4625C13.8571 12.4517 13.058 11.6095 13.0684 10.5836C13.0788 9.55782 13.8882 8.71558 14.8533 8.71558C15.8391 8.70478 16.6693 9.57941 16.6589 10.616C16.6486 11.6526 15.8495 12.4625 14.8326 12.4625Z" fill="#20DEC2"/>
<path d="M14.9359 19.9661C15.1746 18.3356 16.0048 17.0938 17.302 16.1652C17.4161 16.0896 17.4991 15.96 17.5925 15.852C17.5718 15.8196 17.5406 15.798 17.5199 15.7656C15.7454 15.7656 13.9812 15.7656 12.1963 15.7656C12.1963 19.0159 12.1963 22.2445 12.1963 25.4947C13.8359 25.4947 15.4548 25.4947 17.1774 25.4947C17.0217 25.3651 16.9387 25.2896 16.8557 25.214C15.3095 23.821 14.6246 22.0825 14.9359 19.9661Z" fill="#20DEC2"/>
<path d="M14.8843 9.65645C14.3965 9.64565 13.9814 10.0776 13.9814 10.5959C13.9918 11.1142 14.3654 11.4921 14.8635 11.4921C15.3616 11.4921 15.7352 11.1034 15.7456 10.5851C15.7456 10.0884 15.3616 9.67804 14.8843 9.65645Z" fill="#20DEC2"/>
<path d="M19.6992 19.837C19.6992 20.0422 19.8341 20.1718 20.0417 20.2582V19.4375C19.8237 19.4807 19.6992 19.6103 19.6992 19.837Z" fill="#20DEC2"/>
<path d="M20.4053 21.2734V22.1157C20.6336 22.0725 20.7788 21.9105 20.7788 21.6945C20.7685 21.4786 20.6232 21.3598 20.4053 21.2734Z" fill="#20DEC2"/>
<path d="M20.2289 16.1329C17.7695 16.1221 15.777 18.1953 15.7666 20.7653C15.7563 23.3352 17.7072 25.4084 20.1459 25.4192C22.6676 25.4408 24.6912 23.3676 24.6912 20.7868C24.6912 18.2493 22.6676 16.1437 20.2289 16.1329ZM20.4053 22.9033V23.3784H20.0421V22.8925C19.2638 22.8169 18.7034 22.3958 18.6723 21.6399H19.71C19.7308 21.8775 19.8449 22.0286 20.0421 22.0934V21.154C19.4298 20.992 18.6723 20.8084 18.6723 19.8798C18.6723 19.1347 19.2742 18.7028 20.0421 18.6488V18.1737H20.4053V18.6488C21.1836 18.7136 21.6817 19.1239 21.7336 19.8798H20.6959C20.6751 19.6638 20.561 19.5235 20.4053 19.4695V20.3873C21.0176 20.5601 21.7959 20.7328 21.7959 21.6507C21.7959 22.2986 21.2978 22.8601 20.4053 22.9033Z" fill="#20DEC2"/>
</svg>
