<svg width="30" height="31" viewBox="0 0 30 31" fill="none" xmlns="http://www.w3.org/2000/svg">
<path d="M26.5236 24.283C26.5236 24.7337 26.5236 25.0717 26.5236 25.5224C18.9764 25.5224 11.5472 25.5224 4 25.5224C4 25.0717 4 24.7337 4 24.283C4.70755 24.283 5.53302 24.283 6.24057 24.283C6.24057 24.1703 6.24057 24.0577 6.24057 23.945C6.24057 20.0013 6.24057 16.1703 6.24057 12.2267C6.24057 11.0999 6.24057 9.86048 6.24057 8.73371C6.24057 8.62104 6.24057 8.50836 6.47641 8.50836C8.83491 8.17033 11.1934 7.71963 13.434 7.3816C13.9057 7.26893 14.2594 7.26893 14.6132 7.15625C14.6132 12.9027 14.6132 18.5365 14.6132 24.1703C15.0849 24.1703 15.4387 24.1703 15.9104 24.1703C15.9104 19.4379 15.9104 14.8182 15.9104 10.0858C18.7406 10.0858 21.4528 10.0858 24.1651 10.0858C24.1651 14.8182 24.1651 19.4379 24.1651 24.1703C25.1085 24.283 25.816 24.283 26.5236 24.283ZM11.4292 22.4802C11.4292 23.0436 11.4292 23.7196 11.4292 24.283C11.9009 24.283 12.2547 24.283 12.7264 24.283C12.7264 23.2689 12.7264 22.2548 12.7264 21.2408C11.1934 21.2408 9.7783 21.2408 8.24528 21.2408C8.24528 22.2548 8.24528 23.2689 8.24528 24.283C8.71698 24.283 9.07075 24.283 9.54245 24.283C9.54245 23.7196 9.54245 23.0436 9.54245 22.4802C10.25 22.4802 10.8396 22.4802 11.4292 22.4802ZM12.8443 8.95907C12.3726 8.95907 11.9009 8.95907 11.4292 8.95907C11.4292 9.40977 11.4292 9.7478 11.4292 10.1985C11.9009 10.1985 12.3726 10.1985 12.8443 10.1985C12.8443 9.7478 12.8443 9.2971 12.8443 8.95907ZM12.8443 19.3253C12.8443 18.8746 12.8443 18.5365 12.8443 18.0858C12.3726 18.0858 11.9009 18.0858 11.4292 18.0858C11.4292 18.5365 11.4292 18.8746 11.4292 19.3253C11.9009 19.3253 12.3726 19.3253 12.8443 19.3253ZM19.2123 19.3253C19.2123 18.8746 19.2123 18.5365 19.2123 18.0858C18.7406 18.0858 18.2689 18.0858 17.7972 18.0858C17.7972 18.5365 17.7972 18.8746 17.7972 19.3253C18.2689 19.3253 18.7406 19.3253 19.2123 19.3253ZM19.2123 21.2408C18.7406 21.2408 18.2689 21.2408 17.7972 21.2408C17.7972 21.6915 17.7972 22.0295 17.7972 22.4802C18.2689 22.4802 18.7406 22.4802 19.2123 22.4802C19.2123 22.0295 19.2123 21.5788 19.2123 21.2408ZM21.0991 22.3675C21.5708 22.3675 22.0425 22.3675 22.5142 22.3675C22.5142 21.9168 22.5142 21.5788 22.5142 21.1281C22.0425 21.1281 21.5708 21.1281 21.0991 21.1281C21.0991 21.5788 21.0991 22.0295 21.0991 22.3675ZM9.54245 12.0013C9.07075 12.0013 8.59906 12.0013 8.12736 12.0013C8.12736 12.452 8.12736 12.7901 8.12736 13.2408C8.59906 13.2408 9.07075 13.2408 9.54245 13.2408C9.54245 12.7901 9.54245 12.452 9.54245 12.0013ZM11.4292 13.2408C11.9009 13.2408 12.3726 13.2408 12.8443 13.2408C12.8443 12.7901 12.8443 12.452 12.8443 12.0013C12.3726 12.0013 11.9009 12.0013 11.4292 12.0013C11.4292 12.452 11.4292 12.7901 11.4292 13.2408ZM17.7972 12.0013C17.7972 12.452 17.7972 12.7901 17.7972 13.2408C18.2689 13.2408 18.7406 13.2408 19.2123 13.2408C19.2123 12.7901 19.2123 12.452 19.2123 12.0013C18.7406 12.0013 18.2689 12.0013 17.7972 12.0013ZM21.0991 12.0013C21.0991 12.452 21.0991 12.7901 21.0991 13.2408C21.5708 13.2408 22.0425 13.2408 22.5142 13.2408C22.5142 12.7901 22.5142 12.452 22.5142 12.0013C21.9245 12.0013 21.5708 12.0013 21.0991 12.0013ZM9.54245 15.0436C9.07075 15.0436 8.59906 15.0436 8.12736 15.0436C8.12736 15.4943 8.12736 15.8323 8.12736 16.283C8.59906 16.283 8.95283 16.283 9.42453 16.283L9.54245 16.1703C9.66038 15.8323 9.54245 15.4943 9.54245 15.0436ZM12.8443 16.283C12.8443 15.8323 12.8443 15.4943 12.8443 15.0436C12.3726 15.0436 11.9009 15.0436 11.4292 15.0436C11.4292 15.4943 11.4292 15.8323 11.4292 16.283C11.9009 16.283 12.3726 16.283 12.8443 16.283ZM19.2123 15.0436C18.7406 15.0436 18.2689 15.0436 17.7972 15.0436C17.7972 15.4943 17.7972 15.8323 17.7972 16.283C18.2689 16.283 18.7406 16.283 19.2123 16.283C19.2123 15.8323 19.2123 15.4943 19.2123 15.0436ZM22.3962 15.0436C21.9245 15.0436 21.4528 15.0436 20.9811 15.0436C20.9811 15.4943 20.9811 15.8323 20.9811 16.283C21.4528 16.283 21.9245 16.283 22.3962 16.283C22.3962 15.8323 22.3962 15.4943 22.3962 15.0436ZM8.24528 19.3253C8.71698 19.3253 9.18868 19.3253 9.66038 19.3253C9.66038 18.8746 9.66038 18.5365 9.66038 18.0858C9.18868 18.0858 8.71698 18.0858 8.24528 18.0858C8.24528 18.5365 8.24528 18.9872 8.24528 19.3253ZM22.3962 18.0858C21.9245 18.0858 21.4528 18.0858 20.9811 18.0858C20.9811 18.5365 20.9811 18.8746 20.9811 19.3253C21.4528 19.3253 21.9245 19.3253 22.3962 19.3253C22.3962 18.9872 22.3962 18.5365 22.3962 18.0858Z" fill="#20DEC2"/>
<path d="M13.0803 4C13.0803 4.67606 13.0803 5.35211 13.0803 6.02817L12.9624 6.14085C11.901 6.3662 10.9576 6.47887 10.0142 6.70423C9.3067 6.8169 8.71707 6.92958 7.8916 7.04225C7.8916 6.02817 7.8916 5.01408 7.8916 4.11268C9.66047 4 11.3114 4 13.0803 4Z" fill="#20DEC2"/>
</svg>
