<svg width="30" height="31" viewBox="0 0 30 31" fill="none" xmlns="http://www.w3.org/2000/svg">
<path d="M20.0908 22.0284L16.7493 19.8181C16.604 19.7251 16.3964 19.7561 16.2927 19.8904L15.3172 21.1298C15.0059 21.543 14.4351 21.6566 13.9785 21.4087L13.8021 21.3054C13.1587 20.9542 12.3493 20.5204 10.7408 18.9195C9.13228 17.3185 8.69644 16.5233 8.34361 15.8725L8.23986 15.6969C7.9908 15.2528 8.10494 14.6847 8.52004 14.3645L9.76533 13.3937C9.91061 13.28 9.94172 13.0838 9.83795 12.9392L7.61721 9.61337C7.51344 9.45844 7.31626 9.41715 7.1606 9.5101L5.75965 10.3467C5.45871 10.5223 5.24079 10.8012 5.14739 11.1317C4.69079 12.7946 5.07474 15.7073 9.51625 20.1279C13.9578 24.5486 16.8842 24.9308 18.5549 24.4763C18.887 24.3833 19.1776 24.1664 19.3436 23.8669L20.1842 22.4725C20.2879 22.3279 20.2464 22.1317 20.0908 22.0284Z" fill="#20DEC2"/>
<path d="M24.7499 6.05166C24.7084 6.01035 24.6669 6 24.615 6H9.80653C9.75465 6 9.70275 6.02068 9.67162 6.05166C9.64049 6.08265 9.61975 6.1343 9.61975 6.18594V11.3089L10.4603 12.5587C10.7613 13.0132 10.6679 13.6226 10.232 13.9634L8.98674 14.9343C8.85184 15.0376 8.8103 15.2132 8.89332 15.3681L8.9971 15.554C9.3188 16.1634 9.71315 16.7418 10.1801 17.2685H24.6358C24.7396 17.2685 24.833 17.1859 24.833 17.0826V6.19625C24.8122 6.13427 24.7914 6.08265 24.7499 6.05166ZM14.7046 12.4451L11.083 16.308C10.9481 16.4526 10.7301 16.4629 10.5848 16.3286C10.4396 16.1944 10.4292 15.9775 10.5641 15.8329L14.1858 11.97C14.3207 11.8254 14.5386 11.815 14.6839 11.9493C14.8292 12.0836 14.8396 12.3108 14.7046 12.4451ZM17.2056 12.1765C16.9462 12.1765 16.7075 12.0939 16.4999 11.9493L10.5952 7.48733C10.4396 7.37371 10.4084 7.1465 10.533 6.99157C10.6471 6.83664 10.8754 6.80566 11.0311 6.9296L16.9358 11.3916C17.1018 11.5155 17.3301 11.5155 17.4962 11.3916L23.4009 6.9296C23.5565 6.81599 23.7745 6.84695 23.899 7.00188C24.0132 7.15681 23.982 7.37372 23.8264 7.49767L17.9216 11.9596C17.7141 12.0939 17.465 12.1765 17.2056 12.1765ZM23.8471 16.3286C23.7745 16.3906 23.6914 16.4216 23.5981 16.4216C23.5047 16.4216 23.4113 16.3803 23.349 16.308L19.7273 12.4451C19.6028 12.3005 19.6131 12.0836 19.7584 11.9596C19.8933 11.8357 20.1112 11.8357 20.2462 11.97L23.8679 15.8329C24.0028 15.9672 23.9924 16.1944 23.8471 16.3286Z" fill="#20DEC2"/>
</svg>
