<svg width="30" height="31" viewBox="0 0 30 31" fill="none" xmlns="http://www.w3.org/2000/svg">
<path d="M5 12.3041C5 12.0149 5 11.7153 5 11.4261C5.01038 11.3538 5.03113 11.2919 5.03113 11.2196C5.1349 10.1661 5.46696 9.19516 6.07922 8.3069C7.29337 6.52004 9.53488 5.6421 11.6519 6.13788C12.866 6.42708 13.8104 7.11912 14.5887 8.05902C14.6613 8.15198 14.7339 8.24493 14.8066 8.33788C14.8377 8.31723 14.8481 8.30689 14.8585 8.29656C14.9208 8.21393 14.983 8.13132 15.0453 8.05902C16.384 6.45808 18.0755 5.70408 20.1613 6.10689C22.1849 6.49938 23.5236 7.72849 24.2189 9.62896C24.9868 11.7257 24.6547 13.7191 23.4509 15.5783C22.7764 16.6111 21.9566 17.52 21.0434 18.336C19.2481 19.9266 17.4217 21.4966 15.6056 23.0665C15.0868 23.5107 14.516 23.49 13.9764 23.0355C12.5755 21.8374 11.1745 20.6393 9.78395 19.4308C8.61131 18.4186 7.48018 17.3651 6.54622 16.1153C5.94433 15.2994 5.45658 14.4318 5.20753 13.4402C5.11413 13.0684 5.07264 12.6862 5 12.3041Z" fill="#20DEC2"/>
</svg>
