<svg width="30" height="31" viewBox="0 0 30 31" fill="none" xmlns="http://www.w3.org/2000/svg">
<path d="M25.7688 14.1408C25.7688 14.5915 25.7688 14.9296 25.7688 15.3803C25.7688 15.831 25.6604 16.169 25.6604 16.6197C25.2264 19.2113 24.033 21.4648 21.9717 23.0423C18.8255 25.6338 15.2453 26.3099 11.5566 24.6197C7.54243 22.9296 5.37262 19.662 5.04715 15.1549C4.83017 13.0141 5.37262 11.0986 6.45753 9.1831C8.08488 6.3662 10.4717 4.67606 13.6179 4.11268C13.9434 4.11268 14.3773 4 14.7028 4C15.1368 4 15.4622 4 15.8962 4H16.0047C17.4151 4.11268 18.8254 4.4507 20.1273 5.23944C23.1651 6.92958 24.9009 9.52113 25.5519 12.9014C25.6604 13.2394 25.6604 13.6901 25.7688 14.1408ZM19.3679 11.7746C19.3679 10.8732 19.0424 10.1972 18.5 9.6338C17.849 8.95775 17.1981 8.61972 16.3302 8.50704C14.9198 8.28169 13.6179 8.50704 12.533 9.52113C11.8821 10.0845 11.4481 10.8732 11.3396 11.7746C11.3396 12.2254 11.5566 12.5634 11.8821 12.7887C12.4245 13.1268 13.0755 12.9014 13.4009 12.2254C13.5094 11.8873 13.6179 11.5493 13.7264 11.3239C13.9434 10.9859 14.1604 10.6479 14.4858 10.4225C15.0283 10.1972 15.5707 10.1972 16.1132 10.3099C17.0896 10.6479 17.5236 11.7746 16.8726 12.6761C16.7641 12.7887 16.6556 12.9014 16.5471 13.1268C16.0047 13.5775 15.5707 14.0282 15.0283 14.5915C14.3773 15.2676 14.1604 16.0563 14.1604 16.9577C14.1604 17.5211 14.4858 17.8592 15.0283 17.9718C15.5707 17.9718 15.8962 17.7465 16.0047 17.1831C16.0047 17.0704 16.1132 16.9577 16.1132 16.8451C16.2217 16.3944 16.4387 16.0563 16.7641 15.7183C17.3066 15.2676 17.849 14.7042 18.283 14.2535C18.9339 13.3521 19.3679 12.6761 19.3679 11.7746ZM16.4387 19.7746C16.4387 19.0986 15.8962 18.5352 15.2453 18.5352C14.5943 18.5352 14.0519 19.0986 13.9434 19.7746C13.9434 20.4507 14.4858 21.0141 15.1368 21.0141C15.8962 21.0141 16.4387 20.5634 16.4387 19.7746Z" fill="#20DEC2"/>
</svg>
