<svg width="33" height="32" viewBox="0 0 33 32" fill="none" xmlns="http://www.w3.org/2000/svg">
<path d="M27.9904 14.1549L17.5079 3.68807C17.0573 3.23817 16.461 3 15.8381 3C15.2153 3 14.6189 3.2514 14.1683 3.68807L3.69907 14.1417L3.6858 14.1549C2.7714 15.0812 2.7714 16.5765 3.6858 17.4895C4.10988 17.9129 4.66646 18.1511 5.24956 18.1776C5.27606 18.1776 5.30261 18.1776 5.32911 18.1776H5.75315V25.8789C5.75315 27.4006 6.99886 28.6445 8.52287 28.6445H12.6178C13.0287 28.6445 13.3732 28.3137 13.3732 27.8902V21.8562C13.3732 21.1549 13.9431 20.5991 14.6322 20.5991H17.0441C17.7465 20.5991 18.303 21.1681 18.303 21.8562V27.8902C18.303 28.3004 18.6343 28.6445 19.0584 28.6445H23.1534C24.6774 28.6445 25.9231 27.4006 25.9231 25.8789V18.1776H26.3074C26.9435 18.1776 27.5266 17.9262 27.9772 17.4895C28.9049 16.5765 28.9181 15.0812 27.9904 14.1549Z" fill="#2F1793"/>
</svg>
