<svg width="30" height="31" viewBox="0 0 30 31" fill="none" xmlns="http://www.w3.org/2000/svg">
<path d="M24.5691 13.707L16.3606 5.53708C16.0078 5.1859 15.5408 5 15.0531 5C14.5653 5 14.0984 5.19623 13.7455 5.53708L5.54742 13.6967L5.53703 13.707C4.82099 14.43 4.82099 15.5972 5.53703 16.3098C5.8691 16.6404 6.30495 16.8263 6.76155 16.8469C6.7823 16.8469 6.80309 16.8469 6.82384 16.8469H7.15589V22.8582C7.15589 24.046 8.13136 25.0169 9.32476 25.0169H12.5314C12.8531 25.0169 13.1229 24.7587 13.1229 24.4282V19.7183C13.1229 19.1709 13.5691 18.7371 14.1087 18.7371H15.9974C16.5474 18.7371 16.9833 19.1812 16.9833 19.7183V24.4282C16.9833 24.7484 17.2427 25.0169 17.5748 25.0169H20.7814C21.9748 25.0169 22.9502 24.046 22.9502 22.8582V16.8469H23.2512C23.7493 16.8469 24.2059 16.6507 24.5587 16.3098C25.2852 15.5972 25.2955 14.43 24.5691 13.707Z" fill="#20DEC2"/>
</svg>
