<svg width="104" height="91" viewBox="0 0 104 91" fill="none" xmlns="http://www.w3.org/2000/svg">
<path d="M15 62.9031C15 46.3683 15 29.44 15 12.9053C15 12.9053 15 12.9053 15 12.5116C15.7876 9.3621 18.1506 7 21.3012 7C28.7838 7 36.2665 7 44.1429 7C47.2935 7 50.0503 8.96842 50.4441 12.1179C50.8379 14.0863 50.8379 15.661 51.2317 17.6295C52.0194 23.141 52.4132 28.2589 53.2009 33.7705C53.9885 38.8884 54.3823 44.3999 55.17 49.5178C55.9576 55.0294 56.7453 60.541 57.1391 66.0525C57.1391 67.2336 56.3514 68.4146 55.5638 68.4146C44.1429 68.4146 32.722 68.4146 21.3012 68.4146C19.3321 68.4146 17.3629 67.6273 16.1815 66.0525C15.3938 65.2652 15 64.0841 15 62.9031ZM37.8417 40.4631C38.2356 41.6441 38.2356 42.8252 38.6294 43.6126C39.0232 44.7936 39.0232 45.9747 39.417 47.1557C39.8109 48.3368 40.9923 49.1241 42.1738 49.1241C43.3553 48.7304 44.1429 47.5494 43.7491 46.3683C42.1738 39.282 40.5985 32.1957 39.417 24.7158C39.0232 23.5347 38.2356 22.7473 36.6603 22.7473C35.4788 22.7473 33.9035 22.7473 32.722 22.7473C31.1468 22.7473 30.3591 23.5347 30.3591 24.7158C29.1776 29.8336 28.39 34.9515 27.2085 40.0694C26.8147 42.0378 26.4209 44.3999 26.0271 46.3683C25.6332 47.5494 26.4209 48.7304 27.6023 49.1241C28.7838 49.5178 29.9653 48.7304 30.3591 47.5494C30.3591 47.1557 30.3591 46.762 30.7529 46.3683C31.1468 44.3999 31.5406 42.4315 31.9344 40.4631C33.9035 40.4631 35.8726 40.4631 37.8417 40.4631Z" fill="#2F1793"/>
<path d="M83.9203 82.192C72.8932 82.192 61.4724 82.192 50.4453 82.192L50.8391 81.7983C53.9897 78.2551 56.7465 75.1057 59.8971 71.5625C61.4724 69.9878 61.8662 68.0194 61.8662 66.0509C61.4724 62.9015 61.0785 59.752 60.6847 56.6025C59.8971 51.4847 59.5032 45.9731 58.7156 40.8552C57.928 36.131 57.5341 31.0131 56.7465 26.2889C56.3527 24.3205 56.3527 22.7458 55.9588 20.7773C56.3527 20.7773 56.3527 20.7773 56.3527 20.7773C65.4106 20.7773 74.0747 20.7773 83.1326 20.7773C84.3141 20.7773 85.1018 21.171 85.8894 21.5647C88.6462 22.7458 89.8276 25.1079 89.8276 27.8636C89.8276 32.1942 89.8276 36.5247 89.8276 41.2489C89.8276 52.6657 89.8276 64.0825 89.8276 75.893C89.8276 78.2551 89.04 80.2236 87.0709 81.4046C86.2832 81.4046 85.1018 81.7983 83.9203 82.192ZM71.3179 54.2404C70.9241 54.6341 70.9241 54.6341 70.5303 55.0278C68.955 56.2089 67.7735 57.3899 66.1982 58.571C65.4106 59.3583 65.0168 60.5394 65.8044 61.7204C66.5921 62.5078 67.7735 62.9015 68.955 62.1141C69.3488 61.7204 69.7427 61.7204 70.1365 61.3267C71.7118 60.1457 72.8932 58.9646 74.4685 57.7836C74.8624 58.1773 74.8624 58.1773 75.2562 58.571C76.8315 59.752 78.4068 60.9331 79.5882 62.1141C80.7697 62.9015 81.9512 62.9015 82.7388 61.7204C83.5265 60.5394 83.1326 59.3583 82.345 58.571C81.5574 57.7836 80.7697 57.3899 79.9821 56.6025C79.1944 55.8152 78.4068 55.4215 77.6191 54.6341C79.9821 51.8783 81.5573 48.7289 82.7388 45.1857C82.7388 45.1857 83.1326 44.792 83.5265 44.792C85.1018 44.792 85.8894 43.611 85.8894 42.4299C85.8894 41.2489 84.7079 40.4615 83.5265 40.4615C82.345 40.4615 81.1635 40.4615 79.9821 40.4615C78.8006 40.4615 78.0129 40.4615 76.8315 40.4615C76.8315 39.6742 76.8315 39.2805 76.8315 38.4931C76.8315 36.9184 76.0438 36.131 74.4685 36.131C73.2871 36.131 72.1056 37.3121 72.1056 38.4931C72.1056 39.2805 72.1056 39.6742 72.1056 40.4615C71.7118 40.4615 71.3179 40.4615 71.3179 40.4615C69.3488 40.4615 67.7735 40.4615 65.8044 40.4615C64.2291 40.4615 63.4415 41.2489 63.4415 42.4299C63.4415 43.611 64.2291 44.792 65.8044 44.792H66.1982C67.3797 48.3352 68.955 51.4847 71.3179 54.2404Z" fill="#2F1793"/>
<path d="M52.0198 73.5312C49.6568 76.287 47.2939 79.0428 44.5371 81.4049C40.9927 79.8302 40.5989 76.6807 40.2051 73.5312C44.5371 73.5312 48.0815 73.5312 52.0198 73.5312Z" fill="#2F1793"/>
<path d="M32.3281 35.7392C33.1158 32.9834 33.5096 30.2276 34.2972 27.0781C34.6911 27.0781 35.0849 27.0781 35.0849 27.0781C35.8725 30.2276 36.2664 32.9834 37.054 35.7392C35.4787 35.7392 33.9034 35.7392 32.3281 35.7392Z" fill="#2F1793"/>
<path d="M70.9219 44.793C73.2848 44.793 75.6478 44.793 78.0107 44.793C77.223 47.1551 76.0416 49.1235 74.4663 51.0919C72.891 49.1235 71.7095 47.1551 70.9219 44.793Z" fill="#2F1793"/>
</svg>
