<svg width="30" height="31" viewBox="0 0 30 31" fill="none" xmlns="http://www.w3.org/2000/svg">
<path d="M21.4401 25.0477C17.1656 25.0477 12.8802 25.0477 8.60564 25.0477C8.58394 25.0374 8.57311 25.0271 8.55141 25.0271C7.54244 24.7999 7 24.1595 7 23.1679C7 18.1482 7.01084 13.1285 7.02169 8.10878C7.02169 7.92286 7.0217 7.73695 7.06509 7.56136C7.42311 6.25995 8.55139 6.05338 9.69054 6.20831C9.69054 6.42521 9.6797 6.64211 9.69054 6.84868C9.70139 7.00361 9.70141 7.16888 9.74481 7.31348C9.92924 8.03649 10.5693 8.52192 11.383 8.52192C13.7915 8.52192 16.2 8.52192 18.5976 8.52192C19.6934 8.52192 20.3769 7.87122 20.3769 6.8177C20.3769 6.6008 20.3769 6.39422 20.3769 6.16699C20.6698 6.16699 20.9302 6.16699 21.1797 6.16699C22.232 6.17732 23.0457 6.94164 23.0457 7.94352C23.0457 13.0252 23.0349 18.1069 23.0349 23.1989C23.0349 24.1492 22.4816 24.7895 21.5052 25.0168C21.4835 25.0271 21.4618 25.0477 21.4401 25.0477ZM17.4368 19.8834C16.7316 19.8834 16.0264 19.8834 15.3212 19.8834C14.9089 19.8834 14.6269 20.121 14.616 20.4618C14.616 20.813 14.8981 21.0506 15.3103 21.0506C16.7207 21.0506 18.1311 21.0506 19.5415 21.0506C19.9646 21.0506 20.2358 20.813 20.2467 20.4618C20.2467 20.1106 19.9646 19.8731 19.5523 19.8731C18.8471 19.8834 18.142 19.8834 17.4368 19.8834ZM17.4368 13.2318C18.1311 13.2318 18.8363 13.2318 19.5306 13.2318C19.9429 13.2318 20.225 12.9942 20.2358 12.6431C20.2358 12.2919 19.9538 12.0543 19.5415 12.0543C18.142 12.0543 16.7316 12.0543 15.3321 12.0543C14.9198 12.0543 14.6269 12.2919 14.6269 12.6431C14.6269 12.9942 14.9089 13.2318 15.3212 13.2318C16.0264 13.2318 16.7316 13.2318 17.4368 13.2318ZM17.4368 17.1463C18.1311 17.1463 18.8363 17.1463 19.5306 17.1463C19.9429 17.1463 20.225 16.9088 20.225 16.5576C20.225 16.2064 19.9429 15.9689 19.5306 15.9689C18.1311 15.9689 16.7207 15.9689 15.3212 15.9689C14.9089 15.9689 14.6269 16.2064 14.616 16.5576C14.616 16.9088 14.8981 17.1463 15.3103 17.1463C16.0264 17.1463 16.7316 17.1463 17.4368 17.1463ZM11.1769 16.6299C11.0575 16.506 10.9708 16.3923 10.8623 16.2994C10.6019 16.0721 10.233 16.0722 9.99432 16.2891C9.75564 16.5163 9.74481 16.8675 9.98349 17.1154C10.233 17.3632 10.4934 17.6111 10.7538 17.8487C11.025 18.0966 11.3722 18.0966 11.6325 17.8487C12.2509 17.2703 12.8693 16.6816 13.4769 16.0928C13.6288 15.9482 13.6938 15.7623 13.6504 15.5557C13.5962 15.3388 13.4552 15.1839 13.2273 15.1116C12.9887 15.0496 12.7825 15.0909 12.6089 15.2665C12.1424 15.7106 11.6759 16.1445 11.1769 16.6299ZM11.1769 20.5445C11.0575 20.4205 10.9599 20.3069 10.8514 20.2139C10.591 19.9867 10.2222 19.9867 9.98349 20.2139C9.74481 20.4412 9.73396 20.7924 9.98349 21.0403C10.233 21.2881 10.4934 21.536 10.7538 21.7736C11.025 22.0111 11.3722 22.0111 11.6325 21.7632C12.2509 21.1848 12.8693 20.5961 13.4769 20.0074C13.6288 19.8628 13.6938 19.6872 13.6504 19.491C13.607 19.2741 13.466 19.1088 13.2382 19.0365C12.9995 18.9642 12.7825 19.0158 12.5981 19.1914C12.1424 19.6252 11.6759 20.0693 11.1769 20.5445ZM11.166 12.4158C11.0575 12.2919 10.9599 12.1783 10.8514 12.0853C10.591 11.8478 10.2222 11.8581 9.98349 12.0853C9.74481 12.3125 9.73396 12.6637 9.98349 12.9116C10.233 13.1595 10.4934 13.4074 10.7538 13.6449C11.025 13.8928 11.3722 13.8928 11.6325 13.6449C12.2509 13.0665 12.8693 12.4778 13.4769 11.8891C13.6288 11.7445 13.6938 11.5586 13.6504 11.352C13.5962 11.1351 13.4552 10.9801 13.2273 10.9182C12.9778 10.8459 12.7717 10.9078 12.5873 11.0834C12.1316 11.4966 11.6759 11.9407 11.166 12.4158Z" fill="#20DEC2"/>
<path d="M15.0504 7.35493C13.857 7.35493 12.6527 7.35493 11.4593 7.35493C11.0796 7.35493 10.9386 7.22064 10.9277 6.85914C10.9277 6.40468 10.9277 5.9502 10.9277 5.48542C10.9277 5.14457 11.0796 5 11.4376 5C13.8353 5 16.2329 5 18.6306 5C18.9994 5 19.1405 5.13424 19.1405 5.48542C19.1405 5.9502 19.1405 6.41502 19.1405 6.86948C19.1405 7.21033 18.9994 7.34459 18.6414 7.34459C17.448 7.35492 16.2546 7.35493 15.0504 7.35493Z" fill="#20DEC2"/>
</svg>
