<svg width="30" height="31" viewBox="0 0 30 31" fill="none" xmlns="http://www.w3.org/2000/svg">
<path d="M24.8429 24.6967C18.5071 24.6967 12.1821 24.6967 5.84623 24.6967C5.42311 24.5624 5.14104 24.2939 5 23.8911C5 17.8592 5 11.8376 5 5.80563C5.14104 5.40282 5.42311 5.13427 5.84623 5C12.1821 5 18.5071 5 24.8429 5C25.266 5.13427 25.5481 5.40282 25.6892 5.80563C25.6892 11.8376 25.6892 17.8592 25.6892 23.8911C25.5481 24.2939 25.266 24.5624 24.8429 24.6967ZM18.9194 11.4554C20.7854 11.4554 22.6514 11.4554 24.5174 11.4554C24.8646 11.4554 24.984 11.3418 24.984 11.0113C24.984 10.3916 24.984 9.78216 24.984 9.16244C24.984 8.86291 24.8538 8.73896 24.5392 8.73896C20.7962 8.73896 17.0533 8.73896 13.2995 8.73896C12.9741 8.73896 12.8547 8.86291 12.8547 9.16244C12.8547 9.7615 12.8547 10.3606 12.8547 10.97C12.8547 11.3624 12.9632 11.4554 13.3646 11.4554C15.2198 11.4554 17.0642 11.4554 18.9194 11.4554ZM17.8236 17.57C19.3425 17.57 20.8722 17.57 22.391 17.57C22.7057 17.57 22.8359 17.446 22.8359 17.1465C22.8359 16.5268 22.8359 15.8967 22.8359 15.277C22.8359 14.9775 22.7057 14.8535 22.391 14.8535C19.3642 14.8535 16.3264 14.8535 13.2995 14.8535C12.9741 14.8535 12.8547 14.9775 12.8547 15.277C12.8547 15.8864 12.8547 16.4958 12.8547 17.1052C12.8547 17.4667 12.9632 17.57 13.3429 17.57C14.8401 17.57 16.3264 17.57 17.8236 17.57ZM6.96368 7.72678C6.69245 7.72678 6.43208 7.72678 6.16086 7.72678C5.96557 7.72678 5.80282 7.77841 5.73773 7.97465C5.67263 8.16057 5.78114 8.28451 5.92218 8.38779C6.36699 8.71831 6.80095 9.05915 7.24576 9.38967C7.3868 9.49296 7.44103 9.58593 7.36509 9.76152C7.1698 10.2573 7.00708 10.7634 6.83349 11.2695C6.7684 11.4554 6.75756 11.6207 6.94199 11.7446C7.12642 11.8685 7.28915 11.7962 7.44104 11.6723C7.875 11.3418 8.31982 11.0113 8.74294 10.6704C8.87313 10.5671 8.9599 10.5568 9.10094 10.6601C9.5349 11.001 9.97971 11.3314 10.4137 11.6723C10.5656 11.7859 10.7283 11.8479 10.9019 11.7343C11.0863 11.6103 11.0863 11.4451 11.0212 11.2592C10.8368 10.7427 10.6632 10.2263 10.4788 9.70986C10.4245 9.57558 10.4462 9.49295 10.5656 9.41032C11.0321 9.06947 11.4877 8.71832 11.9434 8.36715C12.0844 8.25353 12.1821 8.12958 12.117 7.94367C12.0519 7.76808 11.9 7.70611 11.7156 7.71644C11.184 7.71644 10.6415 7.70612 10.1099 7.72678C9.94716 7.72678 9.88209 7.67513 9.82784 7.53053C9.65426 7.0141 9.4698 6.50798 9.29622 6.00188C9.23112 5.82629 9.14433 5.69203 8.92735 5.69203C8.71037 5.69203 8.62358 5.81596 8.55849 6.00188C8.3849 6.52864 8.18962 7.04506 8.01604 7.57182C7.97264 7.69576 7.91839 7.73708 7.77736 7.73708C7.50613 7.71643 7.2349 7.72678 6.96368 7.72678ZM6.97454 13.831C6.70331 13.831 6.42122 13.831 6.15 13.831C5.95471 13.831 5.81368 13.8826 5.74859 14.0685C5.68349 14.2545 5.77029 14.3784 5.92218 14.492C6.36699 14.8329 6.81179 15.1737 7.26745 15.5042C7.39764 15.6075 7.4519 15.6902 7.38681 15.8554C7.19152 16.3615 7.02879 16.8779 6.84435 17.384C6.77926 17.5699 6.77924 17.7352 6.96368 17.8592C7.13726 17.9728 7.30001 17.9108 7.4519 17.7972C7.87501 17.4667 8.31981 17.1465 8.73208 16.816C8.88397 16.692 8.98161 16.6714 9.14435 16.8056C9.56746 17.1465 10.0123 17.4667 10.4462 17.8075C10.5981 17.9211 10.7609 17.9831 10.9344 17.8592C11.108 17.7456 11.108 17.5803 11.0429 17.4047C10.8585 16.8883 10.6849 16.3718 10.5005 15.8554C10.4462 15.7108 10.4679 15.6282 10.5981 15.5352C11.0538 15.1944 11.5094 14.8432 11.9542 14.5024C12.0953 14.3887 12.2038 14.2648 12.1387 14.0892C12.0736 13.9033 11.9217 13.8413 11.7156 13.8413C11.184 13.8413 10.6415 13.831 10.1099 13.8517C9.94716 13.8517 9.89293 13.8 9.84953 13.6657C9.68679 13.1596 9.50235 12.6638 9.32876 12.1577C9.26367 11.9718 9.17689 11.8066 8.93821 11.8169C8.71038 11.8169 8.62359 11.9718 8.56935 12.1577C8.39576 12.6742 8.20048 13.1906 8.0269 13.707C7.9835 13.8206 7.94009 13.862 7.8099 13.862C7.51698 13.831 7.24576 13.831 6.97454 13.831ZM6.95282 19.9455C6.69244 19.9455 6.43209 19.9455 6.17172 19.9455C5.97643 19.9455 5.81367 19.9869 5.73773 20.1728C5.66178 20.369 5.77029 20.493 5.92218 20.6066C6.38869 20.9474 6.83349 21.3089 7.29999 21.6498C7.39764 21.7221 7.4302 21.7944 7.38681 21.9183C7.19152 22.4347 7.01793 22.9615 6.83349 23.4883C6.7684 23.6742 6.75756 23.8395 6.94199 23.9634C7.12642 24.0873 7.28915 24.015 7.44104 23.8911C7.88585 23.5502 8.34152 23.2094 8.77548 22.8685C8.88397 22.7859 8.94905 22.7859 9.05754 22.8685C9.50235 23.2197 9.95801 23.5606 10.4137 23.9117C10.5656 24.0253 10.7283 24.0873 10.9019 23.9737C11.0755 23.8601 11.0863 23.7052 11.0212 23.5192C10.8368 23.0028 10.6632 22.4761 10.4679 21.9493C10.4137 21.8047 10.4462 21.7324 10.5656 21.6498C11.0321 21.3089 11.4877 20.9578 11.9434 20.6066C12.0844 20.493 12.1821 20.369 12.1061 20.1831C12.041 20.0075 11.8892 19.9559 11.6939 19.9559C11.1514 19.9559 10.609 19.9559 10.0665 19.9559C9.93634 19.9559 9.87124 19.9249 9.82784 19.801C9.65426 19.2742 9.45898 18.7577 9.28539 18.231C9.2203 18.0554 9.13351 17.9211 8.91653 17.9211C8.69955 17.9211 8.61272 18.0554 8.54763 18.231C8.37404 18.7371 8.18963 19.2329 8.0269 19.739C7.97265 19.9145 7.87499 19.9662 7.7014 19.9559C7.46273 19.9352 7.20235 19.9455 6.95282 19.9455ZM16.4241 23.6845C17.4656 23.6845 18.5071 23.6845 19.5486 23.6845C19.8632 23.6845 19.9934 23.5606 19.9934 23.261C19.9934 22.6413 19.9934 22.0113 19.9934 21.3915C19.9934 21.092 19.8632 20.9681 19.5486 20.9681C17.4656 20.9681 15.3826 20.9681 13.3104 20.9681C12.9849 20.9681 12.8656 21.092 12.8656 21.3915C12.8656 22.0113 12.8656 22.6207 12.8656 23.2404C12.8656 23.5709 12.9849 23.6845 13.3321 23.6845C14.3519 23.6845 15.3825 23.6845 16.4241 23.6845Z" fill="#20DEC2"/>
<path d="M7.89637 10.402C7.90722 10.4123 7.92889 10.4123 7.93974 10.4226C8.16757 10.247 8.40627 10.0714 8.6341 9.89583C8.87277 9.72024 8.98125 9.72024 9.23078 9.89583C9.46946 10.0714 9.69728 10.247 9.93596 10.4226C9.88172 10.1437 9.79493 9.89583 9.70814 9.63761C9.6105 9.34841 9.63221 9.26579 9.89259 9.06955C10.1747 8.85265 10.4459 8.64608 10.7714 8.39819C10.4242 8.39819 10.1312 8.39819 9.83832 8.39819C9.42606 8.39819 9.38269 8.36719 9.2525 7.99536C9.15486 7.71649 9.0572 7.44797 8.95955 7.14844C8.92701 7.18975 8.90532 7.18974 8.90532 7.20007C8.80768 7.46861 8.72088 7.73716 8.62324 8.0057C8.5039 8.34655 8.43882 8.38786 8.06996 8.38786C7.76618 8.38786 7.47325 8.38786 7.11523 8.38786C7.39731 8.60476 7.62514 8.78036 7.86382 8.95595C8.29778 9.28647 8.29777 9.28645 8.12419 9.78223C8.0374 9.99913 7.96146 10.1954 7.89637 10.402Z" fill="#20DEC2"/>
<path d="M8.95967 19.3984C8.94882 19.3984 8.92715 19.3984 8.9163 19.3984C8.80781 19.698 8.68845 20.0078 8.59081 20.3074C8.51486 20.5346 8.37385 20.6275 8.13517 20.6275C7.80969 20.6172 7.49506 20.6275 7.10449 20.6275C7.42996 20.8754 7.71205 21.0923 7.99412 21.3092C8.2328 21.4952 8.26535 21.5778 8.16771 21.8567C8.08092 22.1149 7.98328 22.3731 7.89649 22.621C8.17856 22.4557 8.40639 22.2801 8.64507 22.1045C8.8729 21.9393 8.99224 21.9393 9.22007 22.1045C9.45875 22.2801 9.6974 22.4661 9.93608 22.6416C9.88183 22.3731 9.79505 22.1149 9.70826 21.867C9.61062 21.5778 9.63232 21.4951 9.88185 21.2989C10.1639 21.082 10.446 20.8754 10.7281 20.6482C10.6955 20.6275 10.6738 20.6172 10.663 20.6172C10.3701 20.6172 10.088 20.6172 9.79507 20.6172C9.43705 20.6172 9.37196 20.5656 9.25262 20.2454C9.15498 19.9665 9.05731 19.6876 8.95967 19.3984Z" fill="#20DEC2"/>
<path d="M24.2575 9.42969C24.2575 9.87382 24.2575 10.3076 24.2575 10.7621C20.7099 10.7621 17.1514 10.7621 13.582 10.7621C13.582 10.3283 13.582 9.88415 13.582 9.42969C17.1405 9.42969 20.6882 9.42969 24.2575 9.42969Z" fill="#20DEC2"/>
<path d="M13.582 16.8793C13.582 16.4248 13.582 15.991 13.582 15.5469C16.4245 15.5469 19.2669 15.5469 22.1094 15.5469C22.1094 15.9807 22.1094 16.4248 22.1094 16.8793C19.2778 16.8793 16.4353 16.8793 13.582 16.8793Z" fill="#20DEC2"/>
<path d="M7.8966 10.4008C7.9617 10.2046 8.03764 9.998 8.10274 9.80176C8.27632 9.30598 8.2763 9.306 7.84234 8.97548C7.61451 8.79989 7.37583 8.62429 7.09375 8.40739C7.45177 8.40739 7.75555 8.40739 8.04847 8.40739C8.42819 8.40739 8.48245 8.36608 8.60178 8.02523C8.69943 7.75669 8.78623 7.48814 8.88387 7.2196C8.88387 7.20927 8.90556 7.19895 8.9381 7.16797C9.03574 7.45717 9.13337 7.73605 9.23102 8.01492C9.3612 8.38676 9.41546 8.41773 9.81687 8.41773C10.1098 8.41773 10.3919 8.41773 10.7499 8.41773C10.4244 8.66561 10.1532 8.88251 9.87111 9.08908C9.61073 9.28532 9.58905 9.36797 9.68669 9.65717C9.77348 9.90506 9.86027 10.1633 9.91451 10.4421C9.67583 10.2665 9.44801 10.091 9.20933 9.91539C8.97065 9.7398 8.85132 9.7398 8.61264 9.91539C8.38481 10.091 8.14612 10.2665 7.91829 10.4421C7.92914 10.4111 7.90745 10.4008 7.8966 10.4008Z" fill="#20DEC2"/>
<path d="M10.7391 14.5347C10.4245 14.7722 10.1424 14.9995 9.8495 15.206C9.66507 15.3403 9.61083 15.4952 9.68677 15.7018C9.78442 15.96 9.87121 16.2286 9.92545 16.5178C9.68678 16.3422 9.45895 16.1563 9.22027 15.9807C8.98159 15.8051 8.87308 15.8051 8.62355 15.9807C8.39572 16.1563 8.15705 16.3318 7.88583 16.4868C7.97262 16.2492 8.04857 16.0013 8.13537 15.7638C8.25471 15.4229 8.23299 15.3713 7.95092 15.1441C7.67969 14.9375 7.40848 14.7309 7.08301 14.483C7.45188 14.483 7.76648 14.483 8.0811 14.483C8.39572 14.483 8.47168 14.4314 8.56932 14.1525C8.67781 13.853 8.7863 13.5534 8.93819 13.2539C9.03583 13.5328 9.13346 13.822 9.2311 14.1009C9.35044 14.4417 9.41555 14.483 9.79527 14.483C10.0773 14.483 10.3594 14.483 10.6415 14.483C10.674 14.514 10.6849 14.5244 10.7391 14.5347Z" fill="#20DEC2"/>
<path d="M8.95967 19.3984C9.05731 19.6773 9.15498 19.9665 9.25262 20.2454C9.37196 20.5759 9.43705 20.6172 9.79507 20.6172C10.088 20.6172 10.3701 20.6172 10.663 20.6172C10.6738 20.6172 10.6847 20.6275 10.7281 20.6482C10.4351 20.8651 10.1531 21.082 9.88185 21.2989C9.63232 21.4951 9.61062 21.5675 9.70826 21.867C9.79505 22.1149 9.88183 22.3731 9.93608 22.6416C9.6974 22.4661 9.45875 22.2801 9.22007 22.1045C8.99224 21.9289 8.8729 21.9289 8.64507 22.1045C8.40639 22.2801 8.16771 22.466 7.89649 22.621C7.98328 22.3627 8.08092 22.1045 8.16771 21.8567C8.26535 21.5778 8.2328 21.4952 7.99412 21.3092C7.71205 21.0923 7.42996 20.8754 7.10449 20.6275C7.48421 20.6275 7.80969 20.6172 8.13517 20.6275C8.37385 20.6379 8.52571 20.5346 8.59081 20.3074C8.68845 19.9975 8.80781 19.698 8.9163 19.3984C8.92715 19.3984 8.93797 19.3984 8.95967 19.3984Z" fill="#20DEC2"/>
<path d="M13.582 22.9926C13.582 22.5484 13.582 22.1043 13.582 21.6602C15.4806 21.6602 17.3683 21.6602 19.2669 21.6602C19.2669 22.1043 19.2669 22.5381 19.2669 22.9926C17.3683 22.9926 15.4806 22.9926 13.582 22.9926Z" fill="#20DEC2"/>
</svg>
