<svg width="66" height="54" viewBox="0 0 66 54" fill="none" xmlns="http://www.w3.org/2000/svg">
<path d="M11.0229 31.3203C11.2522 30.9076 11.619 30.793 12.0775 30.793C25.9468 30.793 39.8162 30.793 53.6626 30.793C54.144 30.793 54.4878 30.9076 54.7171 31.3203C54.7171 34.0715 54.7171 36.8457 54.7171 39.5969C54.4878 40.0096 54.1669 40.1472 53.7084 40.1472C39.8161 40.1472 25.9009 40.1472 12.0087 40.1472C11.5502 40.1472 11.2063 40.0096 11 39.5969C11.0229 36.8457 11.0229 34.0715 11.0229 31.3203ZM25.7176 35.4701C26.1531 35.172 26.5658 34.9198 26.9555 34.6447C27.4369 34.3237 27.5515 33.8881 27.2764 33.4755C27.0013 33.0857 26.5658 33.0398 26.0844 33.3379C25.7634 33.5442 25.4654 33.7505 25.0757 34.0027C25.0757 33.6588 25.0757 33.4295 25.0757 33.2003C25.0528 32.6959 24.7318 32.352 24.2963 32.352C23.8607 32.352 23.5398 32.6959 23.5168 33.2003C23.4939 33.4525 23.5168 33.7047 23.5168 33.9339C23.4481 33.9339 23.4251 33.9339 23.4022 33.9339C23.0812 33.7276 22.7832 33.5213 22.4852 33.3379C22.0267 33.0398 21.5682 33.1086 21.316 33.4983C21.0639 33.8881 21.1785 34.3237 21.6141 34.6447C22.0267 34.9198 22.4393 35.1949 22.8978 35.5159C22.4623 35.814 22.0497 36.0891 21.637 36.3642C21.1785 36.6622 21.0639 37.0979 21.316 37.4877C21.5682 37.9004 22.0267 37.9691 22.5082 37.6481C22.8291 37.4418 23.15 37.2355 23.4939 36.9833C23.6085 37.6482 23.2876 38.5652 24.2963 38.5881C25.3508 38.611 25.0069 37.6481 25.1445 37.0062C25.4883 37.2354 25.8093 37.4418 26.1302 37.6481C26.5887 37.9462 27.0243 37.8774 27.2994 37.5105C27.5745 37.1208 27.4598 36.6852 26.9784 36.3413C26.5658 36.0203 26.1761 35.7681 25.7176 35.4701ZM40.6643 36.9603C40.8019 37.6252 40.458 38.5652 41.5125 38.5423C42.5212 38.5194 42.2003 37.6023 42.3149 37.0062C42.3607 37.0062 42.4066 37.0062 42.4066 37.0062C42.7046 37.1896 42.9797 37.373 43.2548 37.5564C43.7592 37.8774 44.2177 37.8316 44.4928 37.4189C44.7449 37.0291 44.6074 36.5935 44.126 36.2725C43.7362 35.9974 43.3236 35.7452 42.911 35.4471C43.1631 35.2866 43.3465 35.1491 43.5528 35.0115C43.7592 34.874 43.9884 34.7364 44.1947 34.5759C44.6303 34.2549 44.7449 33.8193 44.4928 33.4296C44.2406 33.0398 43.7821 32.994 43.3236 33.2691C43.0026 33.4755 42.6588 33.7047 42.292 33.9569C42.292 33.6359 42.292 33.3837 42.292 33.1544C42.2691 32.65 41.9481 32.3062 41.5125 32.3062C41.077 32.3062 40.756 32.6271 40.7331 33.1315C40.7102 33.3837 40.7331 33.6359 40.7331 33.9569C40.3205 33.6818 40.0225 33.4525 39.7015 33.2691C39.4952 33.1545 39.2201 33.0398 39.0367 33.1086C38.7845 33.2003 38.5553 33.4525 38.4407 33.6818C38.3031 34.0028 38.4865 34.3008 38.7616 34.4842C39.1972 34.7823 39.6328 35.0803 40.1142 35.4013C39.6557 35.6994 39.266 35.9745 38.8533 36.2496C38.3719 36.5706 38.2573 37.0062 38.5324 37.4189C38.8075 37.8086 39.2431 37.8545 39.7015 37.5564C39.9766 37.396 40.2975 37.1896 40.6643 36.9603ZM14.3011 35.4701C13.8426 35.7681 13.453 36.0432 13.0403 36.3184C12.5589 36.6393 12.4442 37.075 12.7193 37.4877C12.9944 37.8774 13.43 37.9462 13.9115 37.6252C14.2324 37.4189 14.5304 37.2125 14.9201 36.9603C14.9201 37.2813 14.9201 37.5335 14.9201 37.7628C14.9431 38.2901 15.2181 38.6111 15.6766 38.6111C16.1351 38.6111 16.4561 38.2901 16.479 37.7628C16.479 37.5106 16.479 37.2813 16.479 36.9603C16.8687 37.2125 17.1667 37.4189 17.4877 37.6252C17.9691 37.9462 18.4276 37.9004 18.6797 37.4877C18.9319 37.0979 18.8173 36.6393 18.3588 36.3184C17.9691 36.0432 17.5564 35.791 17.1209 35.493C17.5794 35.1949 17.992 34.9198 18.4046 34.6447C18.8402 34.3466 18.9548 33.8881 18.7027 33.4983C18.4505 33.1086 17.992 33.0398 17.5335 33.3379C17.2126 33.5442 16.8687 33.7735 16.479 34.0257C16.479 33.6818 16.479 33.4066 16.479 33.1544C16.4561 32.6959 16.1351 32.352 15.6996 32.3749C15.264 32.3749 14.9659 32.6959 14.943 33.1774C14.943 33.4296 14.943 33.7047 14.943 34.0257C14.5304 33.7506 14.2094 33.5213 13.8656 33.3149C13.43 33.0398 12.9945 33.1086 12.7423 33.4755C12.4672 33.8652 12.5818 34.3008 13.0174 34.6218C13.43 34.874 13.8426 35.1491 14.3011 35.4701ZM34.3143 35.4701C34.5664 35.3096 34.7498 35.172 34.9561 35.0345C35.1625 34.8969 35.3917 34.7593 35.598 34.5988C36.0336 34.3008 36.1482 33.8423 35.8731 33.4525C35.6209 33.0627 35.1625 33.0169 34.704 33.292C34.3831 33.4983 34.0621 33.7277 33.6494 33.9798C33.6494 33.6359 33.6494 33.3837 33.6494 33.1315C33.6265 32.6271 33.3056 32.3062 32.8471 32.3062C32.4115 32.3291 32.1135 32.65 32.0906 33.1315C32.0906 33.3837 32.0906 33.6589 32.0906 33.9798C31.8613 33.8194 31.7009 33.7276 31.5404 33.613C31.3799 33.4984 31.2195 33.3837 31.0361 33.292C30.5776 32.9939 30.142 33.0627 29.8669 33.4525C29.6147 33.8193 29.7294 34.2779 30.1649 34.5988C30.5776 34.874 30.9902 35.1491 31.4487 35.4701C31.0131 35.7681 30.6234 36.0203 30.2108 36.2954C29.7293 36.6164 29.6147 37.052 29.8669 37.4418C30.142 37.8545 30.5776 37.9232 31.1048 37.5793C31.4258 37.373 31.7238 37.1666 32.0906 36.9374C32.0906 37.2813 32.0906 37.5564 32.0906 37.8086C32.1135 38.2901 32.4344 38.5881 32.87 38.5881C33.3056 38.5881 33.6265 38.2671 33.6494 37.7857C33.6494 37.5335 33.6494 37.2584 33.6494 36.9145C34.0392 37.1667 34.3601 37.3959 34.6811 37.6023C35.1625 37.9003 35.6209 37.8545 35.8731 37.4418C36.1253 37.052 35.9878 36.6164 35.5522 36.3184C35.1625 36.0203 34.7728 35.7681 34.3143 35.4701ZM50.0405 38.5881C50.797 38.5881 51.5535 38.5881 52.31 38.5881C52.8373 38.5881 53.1812 38.2671 53.1812 37.8086C53.1812 37.3501 52.8373 37.0291 52.2871 37.0291C50.797 37.0291 49.3069 37.0291 47.8168 37.0291C47.2666 37.0291 46.9457 37.3271 46.9457 37.8086C46.9457 38.2901 47.2666 38.5652 47.8168 38.5881C48.5733 38.5881 49.3069 38.5881 50.0405 38.5881Z" fill="#2F1793"/>
<path d="M46.6479 48.7462C37.478 48.7462 28.3082 48.7462 19.1613 48.7462C19.0696 48.7003 18.955 48.6544 18.8633 48.6086C17.9234 48.2417 17.3503 47.5539 17.3044 46.5451C17.2586 44.9632 17.2815 43.3812 17.3044 41.7992C17.3044 41.7763 17.3274 41.7534 17.3503 41.7305C27.7351 41.7305 38.1199 41.7305 48.5047 41.7305C48.5047 43.3812 48.5276 45.009 48.4818 46.6139C48.4589 47.3476 48.0692 47.9437 47.4273 48.3334C47.198 48.5169 46.9 48.6086 46.6479 48.7462Z" fill="#2F1793"/>
<path d="M33.8329 5C34.7499 5.20634 35.6898 5.321 36.5609 5.59612C41.2146 7.06345 44.5157 11.5342 44.5845 16.4176C44.6074 17.7933 44.5845 19.1688 44.5845 20.5903C43.5529 20.5903 42.5671 20.5903 41.4897 20.5903C41.4897 20.4298 41.4667 20.2693 41.4667 20.1088C41.4438 18.7332 41.4897 17.3576 41.4209 15.982C41.2146 12.1991 38.0739 8.82883 34.3372 8.25566C29.4543 7.52199 25.1444 10.6171 24.4109 15.5235C24.2045 16.9449 24.3192 18.4122 24.2963 19.8796C24.2963 20.1088 24.2963 20.361 24.2963 20.6132C23.2417 20.6132 22.2559 20.6132 21.2473 20.6132C21.2243 20.5903 21.2014 20.5674 21.2014 20.5445C21.2473 18.3205 20.9952 16.0737 21.5224 13.8727C22.6686 9.19562 26.8179 5.57319 31.5633 5.09173C31.6779 5.0688 31.8155 5.04588 31.9301 5.02295C32.572 5.00002 33.2139 5 33.8329 5Z" fill="#2F1793"/>
<path d="M17.3045 29.1641C17.3045 29.0265 17.2816 28.9118 17.2816 28.7743C17.2816 27.3987 17.2816 26.0231 17.2816 24.6245C17.2816 23.1572 18.2903 22.1714 19.7574 22.1484C28.5146 22.1484 37.2947 22.1484 46.0519 22.1484C47.519 22.1484 48.5048 23.1572 48.5277 24.6245C48.5277 26.1148 48.5277 27.605 48.5277 29.1411C38.0971 29.1641 27.7122 29.1641 17.3045 29.1641ZM20.3993 25.3124C20.9266 25.3124 21.408 25.3353 21.8894 25.3124C22.3937 25.2894 22.7147 24.9913 22.7377 24.5328C22.7377 24.0743 22.4396 23.7533 21.9123 23.7533C21.1788 23.7304 20.4222 23.7304 19.6887 23.7533C19.1385 23.7762 18.8405 24.0513 18.8405 24.6016C18.8175 25.3352 18.8175 26.046 18.8405 26.7797C18.8405 27.3299 19.1614 27.6509 19.6428 27.6509C20.1013 27.6509 20.3993 27.307 20.4223 26.7567C20.4223 26.2982 20.3993 25.8397 20.3993 25.3124Z" fill="#2F1793"/>
<path d="M20.3992 25.3146C20.3992 25.8419 20.3992 26.3004 20.3992 26.7589C20.3762 27.3091 20.0782 27.6302 19.6197 27.6531C19.1612 27.6531 18.8403 27.3321 18.8174 26.7818C18.7944 26.0482 18.7944 25.3374 18.8174 24.6038C18.8403 24.0535 19.1154 23.7555 19.6656 23.7555C20.3991 23.7325 21.1557 23.7325 21.8892 23.7555C22.4165 23.7784 22.7146 24.0994 22.7146 24.535C22.7146 24.9935 22.3936 25.2916 21.8664 25.3146C21.4079 25.3375 20.9264 25.3146 20.3992 25.3146Z" fill="#2F1793"/>
</svg>
