<svg width="33" height="32" viewBox="0 0 33 32" fill="none" xmlns="http://www.w3.org/2000/svg">
<path d="M7.8292 11.8213C7.94215 8.64614 9.34777 6.23648 12.2217 4.84341C15.1208 3.4378 17.9446 3.8143 20.4923 5.78467C23.5294 8.13155 24.2824 12.612 22.2242 15.8875C20.2789 18.9874 18.2835 22.0496 16.3005 25.1244C15.8738 25.7896 15.3342 25.7896 14.9075 25.1244C12.9371 22.0622 10.9667 19 9.00892 15.9252C8.21826 14.6827 7.8041 13.3148 7.8292 11.8213ZM15.5601 15.373C17.543 15.373 19.1494 13.8042 19.162 11.8464C19.1745 9.92623 17.5681 8.2947 15.6354 8.2947C13.6525 8.2947 12.0461 9.8635 12.0335 11.8213C12.021 13.7415 13.6399 15.3604 15.5601 15.373Z" fill="#9B9B9B"/>
<path d="M16.3376 28.2493C12.9239 28.1364 10.3009 27.9104 7.81601 26.8939C7.0128 26.5676 6.25979 26.1534 5.65738 25.5008C4.79142 24.5847 4.77889 23.3799 5.6323 22.4511C6.58611 21.422 7.85367 20.9577 9.15888 20.5561C10.0499 20.2925 10.0625 20.3051 10.5645 21.1083C11.5434 22.6394 12.5223 24.1831 13.5138 25.7016C14.6182 27.4084 16.5885 27.3959 17.6929 25.6765C18.7597 24.0073 19.8265 22.3507 20.8933 20.669C21.069 20.3804 21.2321 20.3051 21.5709 20.4055C22.8008 20.7443 24.0057 21.1459 25.0348 21.9366C25.725 22.4762 26.2522 23.1163 26.1894 24.0827C26.1392 24.911 25.6497 25.4757 25.0348 25.9401C23.8551 26.8562 22.462 27.3331 21.0188 27.5841C19.2366 27.9355 17.4043 28.1112 16.3376 28.2493Z" fill="#9B9B9B"/>
</svg>
