<svg width="19" height="19" viewBox="0 0 19 19" fill="none" xmlns="http://www.w3.org/2000/svg">
<path d="M1.00788 10.8176C1.09853 10.5001 1.24829 10.2179 1.57146 10.0886C1.75275 10.018 1.95768 9.97884 2.1508 9.97492C6.40717 9.96708 10.6635 9.971 14.916 9.971C14.983 9.971 15.05 9.971 15.1327 9.971C15.1327 9.91221 15.1327 9.86517 15.1327 9.82206C15.1327 7.67028 15.1327 5.51851 15.1327 3.36281C15.1327 2.9787 14.9357 2.73178 14.5967 2.68475C14.4273 2.66123 14.2617 2.69259 14.1435 2.81017C13.8519 3.09629 13.576 3.39417 13.2804 3.7038C13.4972 3.84882 13.4538 4.07223 13.4026 4.30348C13.3001 4.76597 13.2095 5.23239 13.1188 5.6988C13.0912 5.84382 13.0242 5.95356 12.8784 6.0006C12.7287 6.04763 12.6104 5.98884 12.508 5.88694C11.8498 5.21671 11.1956 4.54648 10.5414 3.87234C10.3207 3.64109 10.4152 3.34321 10.7305 3.28834C11.2783 3.19035 11.8262 3.09237 12.3779 3.02182C12.508 3.00614 12.6538 3.10021 12.8232 3.15508C13.0439 2.93559 13.3001 2.67691 13.5602 2.41822C14.0292 1.95965 14.6283 1.8695 15.1721 2.19089C15.5387 2.40646 15.7436 2.7357 15.7869 3.159C15.7948 3.25306 15.7948 3.34713 15.7948 3.4412C15.7948 5.54594 15.7948 7.65069 15.7948 9.75935C15.7948 9.82206 15.7948 9.88477 15.7948 9.971C15.8815 9.971 15.9564 9.971 16.0313 9.971C16.6146 9.971 16.9496 10.2218 17.119 10.7784C17.123 10.7941 17.1348 10.8058 17.1427 10.8176C17.1427 10.9234 17.1427 11.0253 17.1427 11.1312C17.0481 11.4682 16.8786 11.7504 16.5397 11.8876C16.4215 11.9346 16.3781 12.0052 16.3466 12.1189C16.0825 13.0556 15.8145 13.9963 15.5387 14.933C15.3258 15.6581 14.8726 16.1833 14.1711 16.4694C13.911 16.5753 13.6233 16.6262 13.3435 16.7046C13.3553 16.736 13.3789 16.7869 13.4026 16.834C13.509 17.0495 13.6193 17.2612 13.7258 17.4767C13.8085 17.6453 13.7888 17.7903 13.6824 17.8961C13.5129 18.0686 13.2568 18.0215 13.1346 17.7903C12.9612 17.4571 12.7917 17.1201 12.6301 16.783C12.5828 16.6889 12.5277 16.6576 12.4252 16.6576C10.1945 16.6615 7.95995 16.6615 5.7293 16.6576C5.61501 16.6576 5.56378 16.7007 5.51648 16.7948C5.35884 17.124 5.19331 17.4493 5.02385 17.7746C4.92138 17.9745 4.74009 18.049 4.57062 17.9667C4.38145 17.8765 4.32233 17.6884 4.42086 17.4728C4.53121 17.2416 4.64944 17.0142 4.76373 16.7869C4.78344 16.7477 4.7992 16.7046 4.80314 16.6889C4.54303 16.6223 4.28292 16.587 4.04646 16.4969C3.27795 16.2029 2.80502 15.6385 2.58038 14.8546C2.31632 13.9257 2.04833 12.9968 1.78033 12.0718C1.76457 12.0209 1.74092 11.9464 1.70151 11.9307C1.31135 11.7975 1.10641 11.5074 1 11.1312C1.00788 11.0253 1.00788 10.9234 1.00788 10.8176ZM15.6924 11.9856C11.2783 11.9856 6.8801 11.9856 2.47397 11.9856C2.48185 12.0209 2.48185 12.0444 2.48973 12.0718C2.7459 12.9694 2.99419 13.8709 3.26612 14.7645C3.50653 15.5484 4.12922 15.9913 4.95291 15.9913C7.52643 15.9913 10.1 15.9913 12.6735 15.9913C12.8784 15.9913 13.0834 15.9952 13.2883 15.9913C14.0135 15.9717 14.6125 15.5601 14.849 14.8782C15.0303 14.3529 15.1682 13.8081 15.3258 13.2712C15.448 12.8479 15.5702 12.4207 15.6924 11.9856ZM9.07922 11.3115C11.365 11.3115 13.6509 11.3115 15.9328 11.3115C16.0273 11.3115 16.1219 11.3075 16.2126 11.2919C16.3505 11.2683 16.4293 11.1782 16.4569 11.041C16.5042 10.8137 16.3505 10.6451 16.0786 10.6412C15.8106 10.6373 15.5426 10.6412 15.2746 10.6412C10.9 10.6412 6.5254 10.6412 2.14686 10.6412C2.07986 10.6412 2.00892 10.6451 1.94192 10.6608C1.78034 10.6922 1.67393 10.8254 1.67787 10.9822C1.68181 11.139 1.78822 11.2723 1.9498 11.2958C2.04045 11.3115 2.13897 11.3115 2.23356 11.3115C4.51939 11.3115 6.80127 11.3115 9.07922 11.3115ZM12.571 4.9933C12.6301 4.70718 12.6853 4.45242 12.7287 4.19765C12.7365 4.15454 12.7129 4.09575 12.6814 4.06439C12.5868 3.95857 12.4843 3.86058 12.3818 3.76651C12.3543 3.73908 12.3109 3.70772 12.2794 3.71556C12.0114 3.75475 11.7473 3.80179 11.4518 3.84882C11.834 4.23685 12.1927 4.60527 12.571 4.9933Z" fill="#20DEC2"/>
<path d="M8.71661 5.95972C9.00037 5.96756 9.18166 6.26544 9.02402 6.45357C8.78755 6.73577 8.51167 6.98661 8.23974 7.23746C8.12939 7.33936 7.94416 7.30017 7.83775 7.19826C7.7274 7.09244 7.69193 6.90039 7.79834 6.78672C8.04269 6.52412 8.3028 6.27327 8.56291 6.02635C8.60626 5.97931 8.68114 5.97148 8.71661 5.95972Z" fill="#20DEC2"/>
<path d="M10.0757 6.66103C9.97715 6.59048 9.87468 6.53952 9.80768 6.45721C9.72492 6.35531 9.72492 6.21813 9.81162 6.12406C10.0639 5.85754 10.32 5.59886 10.592 5.35193C10.7102 5.2461 10.8954 5.2853 11.0058 5.40288C11.1161 5.52047 11.1319 5.689 11.0255 5.81835C10.9112 5.95553 10.7811 6.07703 10.655 6.20245C10.5565 6.30436 10.4619 6.41018 10.3516 6.50033C10.2806 6.55912 10.186 6.5944 10.0757 6.66103Z" fill="#20DEC2"/>
<path d="M9.46904 8.62681C9.28381 8.63073 9.18134 8.5641 9.11828 8.44259C9.05128 8.31325 9.07493 8.18391 9.16951 8.07808C9.29563 7.93698 9.43357 7.80764 9.56756 7.67438C9.65821 7.58032 9.74885 7.48625 9.84738 7.40002C9.99714 7.26676 10.1863 7.26676 10.3164 7.39218C10.4464 7.51368 10.4582 7.71358 10.3282 7.8586C10.1075 8.09376 9.87103 8.32109 9.6385 8.5445C9.58333 8.59545 9.50056 8.61113 9.46904 8.62681Z" fill="#20DEC2"/>
<path d="M4.84566 15.3212C4.45943 15.3095 4.0732 15.0547 3.95103 14.6863C3.77762 14.1532 3.62786 13.6084 3.4781 13.0675C3.43081 12.8912 3.53721 12.7187 3.6988 12.6717C3.88797 12.6168 4.06138 12.7109 4.12444 12.9147C4.26631 13.385 4.39637 13.8553 4.53431 14.3257C4.55796 14.4041 4.58554 14.4981 4.64466 14.5452C4.71954 14.6079 4.82595 14.6432 4.92448 14.6667C5.12153 14.7215 5.23188 14.8509 5.20823 15.0351C5.18853 15.2115 5.03877 15.3291 4.84566 15.3212Z" fill="#20DEC2"/>
</svg>
