<svg width="30" height="31" viewBox="0 0 30 31" fill="none" xmlns="http://www.w3.org/2000/svg">
<path d="M18.9577 25.0462C18.5737 24.9533 18.169 24.912 17.7954 24.7777C15.9794 24.1167 14.8586 22.8256 14.5576 20.9148C14.1529 18.3223 15.7822 15.988 18.335 15.4096C21.085 14.7796 23.8558 16.6904 24.2397 19.4688C24.6133 22.1646 22.7869 24.6021 20.0991 25.005C20.0057 25.0153 19.9227 25.0359 19.8293 25.0566C19.5388 25.0463 19.2482 25.0462 18.9577 25.0462ZM19.0614 20.5016C19.0303 20.5016 19.0199 20.5016 19.0199 20.5016C18.719 20.2847 18.4284 20.0782 18.1274 19.8613C17.8369 19.665 17.4841 19.7064 17.2869 19.9749C17.0897 20.2435 17.152 20.6049 17.4425 20.8218C17.8888 21.142 18.335 21.4726 18.7812 21.7824C19.0925 21.9993 19.4039 21.958 19.6426 21.6585C20.0161 21.204 20.3793 20.7392 20.7529 20.2848C21.002 19.9749 21.2511 19.6754 21.4897 19.3655C21.6454 19.1589 21.6661 18.9317 21.5312 18.7045C21.4171 18.4876 21.1784 18.3636 20.9293 18.4359C20.7841 18.4772 20.6284 18.5702 20.535 18.6941C20.0369 19.2932 19.5491 19.9026 19.0614 20.5016Z" fill="#20DEC2"/>
<path d="M14.2255 23.3333C14.1425 23.3333 14.0698 23.3333 13.9972 23.3333C11.8179 23.3333 9.62832 23.3333 7.44907 23.3333C6.02737 23.3333 5 22.3108 5 20.8854C5 16.4028 5 11.9202 5 7.43754C5 6.03285 6.03775 5 7.44907 5C10.8425 5 14.2255 5 17.6189 5C19.0302 5 20.0679 6.03284 20.0679 7.4272C20.0679 9.60655 20.0679 11.7859 20.0679 13.9653C20.0679 14.0272 20.0679 14.0892 20.0679 14.1615C17.6085 14.0169 15.6264 14.8845 14.3085 16.9502C12.9802 19.0366 13.0528 21.1746 14.2255 23.3333ZM9.77359 19.4807C10.3132 19.4807 10.8632 19.4807 11.4028 19.4807C11.4859 19.4807 11.5689 19.4808 11.6519 19.4601C11.9528 19.3981 12.1293 19.1399 12.1085 18.8404C12.0877 18.5512 11.8594 18.3136 11.5585 18.3136C10.3651 18.3033 9.17169 18.3033 7.9783 18.3136C7.67735 18.3136 7.4387 18.5512 7.41794 18.8404C7.39719 19.1399 7.58395 19.3878 7.87452 19.4601C7.95754 19.4808 8.04058 19.4807 8.12359 19.4807C8.68397 19.4807 9.23397 19.4807 9.77359 19.4807ZM9.77359 8.87324C9.21321 8.87324 8.64245 8.87324 8.08208 8.87324C7.68774 8.87324 7.4283 9.10046 7.4283 9.4413C7.4283 9.78215 7.67737 10.0403 8.06133 10.0403C9.20284 10.0507 10.3443 10.0403 11.4858 10.0403C11.8698 10.0403 12.1293 9.79248 12.1189 9.4413C12.1189 9.10046 11.8594 8.87323 11.4651 8.8629C10.9047 8.87323 10.3443 8.87324 9.77359 8.87324ZM9.78398 11.2178C9.21322 11.2178 8.64244 11.2178 8.07169 11.2178C7.68773 11.2178 7.43868 11.445 7.4283 11.7859C7.41792 12.1371 7.67736 12.3953 8.05095 12.3953C9.20283 12.4056 10.3443 12.4056 11.4962 12.3953C11.8802 12.3953 12.1293 12.1371 12.1189 11.7859C12.1085 11.445 11.8594 11.2282 11.4755 11.2178C10.9151 11.2178 10.3444 11.2178 9.78398 11.2178ZM9.77359 13.5728C9.21321 13.5728 8.64245 13.5728 8.08208 13.5728C7.98868 13.5728 7.89527 13.5831 7.81226 13.6141C7.54244 13.707 7.3868 13.9859 7.43869 14.2648C7.49057 14.554 7.72924 14.7502 8.07169 14.7502C9.2132 14.7502 10.3547 14.7502 11.4962 14.7502C11.8802 14.7502 12.1396 14.492 12.1292 14.1512C12.1292 13.8103 11.8698 13.5831 11.4962 13.5831C10.9151 13.5728 10.3443 13.5728 9.77359 13.5728ZM9.77359 15.9173C9.21321 15.9173 8.6632 15.9173 8.10282 15.9173C8.00942 15.9173 7.90565 15.9277 7.81226 15.9587C7.54244 16.0516 7.3868 16.3305 7.43869 16.6094C7.49057 16.8986 7.73961 17.0845 8.07169 17.0948C9.20282 17.0948 10.3443 17.0948 11.4755 17.0948C11.8698 17.0948 12.1396 16.8469 12.1292 16.4957C12.1292 16.1549 11.8698 15.9277 11.4755 15.9277C10.9047 15.9174 10.334 15.9173 9.77359 15.9173ZM15.2736 8.87324C14.7132 8.87324 14.1424 8.87324 13.5821 8.87324C13.1877 8.87324 12.9283 9.10047 12.9283 9.45164C12.9283 9.79249 13.1774 10.0507 13.5717 10.0507C14.7132 10.0507 15.8547 10.061 16.9962 10.0507C17.3802 10.0507 17.6396 9.79249 17.6293 9.45164C17.6189 9.1108 17.3698 8.88355 16.9858 8.88355C16.4151 8.87322 15.8443 8.87324 15.2736 8.87324ZM15.284 11.2178C14.7132 11.2178 14.1425 11.2178 13.5717 11.2178C13.1981 11.2178 12.9387 11.4554 12.9387 11.7859C12.9283 12.1371 13.1877 12.385 13.5717 12.385C14.7132 12.3953 15.8547 12.385 16.9962 12.385C17.3802 12.385 17.6396 12.1371 17.6396 11.7859C17.6396 11.445 17.3802 11.2075 16.9858 11.2075C16.4047 11.2178 15.8443 11.2178 15.284 11.2178ZM14.3811 13.5728C14.101 13.5728 13.8208 13.5728 13.5406 13.5728C13.1877 13.5728 12.9387 13.8103 12.9283 14.1305C12.9179 14.461 13.1566 14.7296 13.5094 14.7399C14.0802 14.7502 14.6509 14.7502 15.2217 14.7399C15.5642 14.7296 15.8132 14.461 15.8028 14.1512C15.8028 13.8206 15.5434 13.5831 15.1906 13.5728C14.9208 13.5728 14.651 13.5728 14.3811 13.5728Z" fill="#20DEC2"/>
</svg>
