<svg width="30" height="31" viewBox="0 0 30 31" fill="none" xmlns="http://www.w3.org/2000/svg">
<path d="M14.9 5C9.44152 5 5 9.6216 5 15.3014C5 20.9812 9.44152 25.6028 14.9 25.6028C20.3585 25.6028 24.8 20.9812 24.8 15.3014C24.8 9.6216 20.3585 5 14.9 5ZM16.3632 20.6141C15.8547 20.7544 15.3462 21.0028 14.8274 21.0244C14.0075 21.0676 13.3745 20.3981 13.4472 19.5451C13.5406 18.5516 13.7689 17.5582 13.9245 16.5756C14.0076 16.0681 14.1217 15.5714 14.1632 15.0639C14.2151 14.3404 13.9764 14.146 13.2708 14.2756C13.2189 14.2864 13.1566 14.2972 13.1047 14.308C12.866 13.9516 12.8972 13.6925 13.3123 13.5845C13.8519 13.4441 14.4019 13.185 14.9415 13.2066C15.8132 13.2498 16.3113 14.0056 16.1764 15.0098C16.0519 15.9277 15.834 16.8347 15.6575 17.7418C15.5745 18.1521 15.4915 18.5624 15.4396 18.9728C15.3255 19.761 15.5538 19.9986 16.3113 19.9446C16.3943 19.9338 16.4877 19.9338 16.5707 19.9338C16.7472 20.2578 16.7472 20.5061 16.3632 20.6141ZM15.5019 12.4507C14.7651 12.4507 14.1528 11.8028 14.1528 11.0146C14.1528 10.2047 14.734 9.57839 15.4915 9.57839C16.2387 9.57839 16.8406 10.2047 16.8406 11.0038C16.8406 11.792 16.2387 12.4507 15.5019 12.4507Z" fill="#20DEC2"/>
</svg>
