<svg width="66" height="54" viewBox="0 0 66 54" fill="none" xmlns="http://www.w3.org/2000/svg">
<path d="M16.6743 7.10252C17.238 7.02565 17.8273 7 18.4679 7C20.159 7 21.8245 7 23.5156 7C26.8722 7 30.2544 7 33.611 7C34.6872 7 35.7634 7 36.8395 7C39.4018 7 41.9641 7 44.5008 7C45.7819 7 47.063 7 48.3442 7C50.0609 7 51.7008 7.12815 53.0588 8.30693C54.2374 9.33195 54.8012 10.8182 54.8268 12.3557C54.8268 19.864 54.8268 27.3723 54.8268 34.9062C54.8268 36.3669 53.8275 37.3919 52.367 37.3919C39.7862 37.3919 27.1796 37.3919 14.5988 37.3919C13.1383 37.3919 12.139 36.3669 12.139 34.9062C12.139 33.2662 12.139 31.6518 12.139 30.0117C12.139 24.1435 12.139 18.2752 12.139 12.407C12.139 10.5363 12.8565 8.99881 14.4195 7.97378C15.137 7.46127 15.88 7.23065 16.6743 7.10252ZM37.2494 18.9159C39.0174 16.3533 38.0694 13.8164 36.6857 12.5351C35.0715 11.0489 32.6374 10.8438 30.8181 12.0738C29.8957 12.6888 29.2551 13.5345 28.922 14.6108C28.4352 16.174 28.7683 17.6346 29.6907 18.9159C29.2039 19.3259 28.7427 19.6846 28.3327 20.0946C26.7697 21.6834 26.2316 23.6566 26.3341 25.8348C26.3854 26.8086 26.9235 27.3979 27.9227 27.3979C29.3832 27.3979 30.8694 27.3979 32.3299 27.3979C34.5847 27.3979 36.8139 27.3979 39.0687 27.3979C39.863 27.3979 40.5036 26.911 40.5548 26.1679C40.7342 24.0153 40.2986 21.9909 38.7868 20.3509C38.3256 19.864 37.7875 19.4284 37.2494 18.9159ZM33.4316 33.1125C36.5576 33.1125 39.6836 33.1125 42.8096 33.1125C43.4758 33.1125 43.9883 32.8562 44.2445 32.2412C44.6801 31.2674 43.937 30.268 42.8096 30.268C37.7619 30.268 32.7142 30.268 27.6921 30.268C26.4622 30.268 25.258 30.268 24.0281 30.268C23.3875 30.268 22.9007 30.5755 22.6444 31.1649C22.2345 32.1387 22.9519 33.1125 24.0793 33.1125C27.2053 33.1125 30.3057 33.1125 33.4316 33.1125Z" fill="#2F1793"/>
<path d="M53.1871 47.717C51.5472 47.9989 49.728 47.8195 48.165 47.8195C46.4739 47.8195 44.8084 47.8195 43.1173 47.8195C39.7607 47.8195 36.4041 47.8195 33.0219 47.8195C29.6909 47.8195 26.36 47.8195 23.029 47.8195C21.3379 47.8195 19.6724 47.8195 17.9813 47.8195C17.1357 47.8195 16.2901 47.8195 15.4702 47.8195C13.3435 47.8195 11.2937 47.4864 10.0638 45.5132C9.39761 44.437 8.47521 42.0537 9.37201 40.9006C9.78198 40.3624 10.4225 40.2344 11.0631 40.2344C26.0012 40.26 40.9137 40.26 55.8519 40.2344C56.5437 40.2344 57.3636 40.4138 57.6711 41.1313C58.1836 42.3101 57.6711 44.0782 57.1074 45.1544C56.2362 46.7689 54.8013 47.4607 53.1871 47.717Z" fill="#2F1793"/>
<path d="M37.6602 24.5546C34.8673 24.5546 32.0744 24.5546 29.2815 24.5546C29.2302 22.7095 31.2032 20.8645 33.253 20.7876C35.5334 20.7107 37.5577 22.4533 37.6602 24.5546Z" fill="#2F1793"/>
<path d="M33.4577 14.125C34.5082 14.125 35.3537 14.9962 35.3537 16.0213C35.3537 17.0719 34.4826 17.9176 33.4577 17.9176C32.4071 17.9176 31.5615 17.0463 31.5615 16.0213C31.5615 14.9706 32.4328 14.125 33.4577 14.125Z" fill="#2F1793"/>
</svg>
