<svg width="60" height="55" viewBox="0 0 60 55" fill="none" xmlns="http://www.w3.org/2000/svg">
<path d="M49.1886 47.8641C36.6757 47.8641 24.1842 47.8641 11.6712 47.8641C10.8356 47.5856 10.2785 47.0284 10 46.1927C10 33.6785 10 21.1856 10 8.67142C10.2785 7.83571 10.8356 7.27857 11.6712 7C24.1842 7 36.6757 7 49.1886 7C50.0242 7.27857 50.5813 7.83571 50.8598 8.67142C50.8598 21.1856 50.8598 33.6785 50.8598 46.1927C50.5813 47.0284 50.0242 47.5856 49.1886 47.8641ZM37.4899 20.3928C41.1752 20.3928 44.8604 20.3928 48.5457 20.3928C49.2314 20.3928 49.4671 20.1571 49.4671 19.4714C49.4671 18.1857 49.4671 16.9214 49.4671 15.6357C49.4671 15.0142 49.21 14.7571 48.5886 14.7571C41.1966 14.7571 33.8045 14.7571 26.391 14.7571C25.7483 14.7571 25.5126 15.0142 25.5126 15.6357C25.5126 16.8785 25.5126 18.1214 25.5126 19.3857C25.5126 20.1999 25.7268 20.3928 26.5196 20.3928C30.1835 20.3928 33.826 20.3928 37.4899 20.3928ZM35.3258 33.0785C38.3255 33.0785 41.3465 33.0785 44.3462 33.0785C44.9676 33.0785 45.2247 32.8213 45.2247 32.1999C45.2247 30.9142 45.2247 29.6071 45.2247 28.3214C45.2247 27.6999 44.9676 27.4428 44.3462 27.4428C38.3683 27.4428 32.369 27.4428 26.391 27.4428C25.7483 27.4428 25.5126 27.6999 25.5126 28.3214C25.5126 29.5856 25.5126 30.8499 25.5126 32.1142C25.5126 32.8642 25.7268 33.0785 26.4768 33.0785C29.4336 33.0785 32.369 33.0785 35.3258 33.0785ZM13.8781 12.6571C13.3425 12.6571 12.8283 12.6571 12.2926 12.6571C11.9069 12.6571 11.5855 12.7643 11.457 13.1714C11.3284 13.5571 11.5427 13.8143 11.8212 14.0285C12.6997 14.7142 13.5568 15.4214 14.4352 16.1071C14.7138 16.3214 14.8209 16.5143 14.6709 16.8786C14.2852 17.9071 13.9639 18.9571 13.621 20.0071C13.4925 20.3928 13.4711 20.7357 13.8353 20.9928C14.1996 21.2499 14.5209 21.0999 14.8209 20.8428C15.6779 20.1571 16.5564 19.4714 17.3921 18.7642C17.6492 18.5499 17.8206 18.5285 18.0991 18.7428C18.9562 19.45 19.8346 20.1356 20.6917 20.8428C20.9916 21.0785 21.313 21.2071 21.6559 20.9713C22.0201 20.7142 22.0201 20.3714 21.8915 19.9857C21.5273 18.9142 21.1845 17.8428 20.8202 16.7714C20.7131 16.4928 20.756 16.3214 20.9917 16.1499C21.913 15.4428 22.8129 14.7143 23.7128 13.9857C23.9913 13.75 24.1841 13.4928 24.0556 13.1071C23.927 12.7428 23.6271 12.6143 23.2628 12.6357C22.2129 12.6357 21.1416 12.6143 20.0917 12.6571C19.7703 12.6571 19.6418 12.55 19.5347 12.25C19.1919 11.1786 18.8276 10.1286 18.4848 9.07856C18.3562 8.71428 18.1848 8.43574 17.7563 8.43574C17.3278 8.43574 17.1564 8.69285 17.0278 9.07856C16.685 10.1714 16.2993 11.2428 15.9565 12.3357C15.8708 12.5928 15.7636 12.6785 15.4851 12.6785C14.9494 12.6357 14.4138 12.6571 13.8781 12.6571ZM13.8996 25.3213C13.3639 25.3213 12.8068 25.3213 12.2712 25.3213C11.8855 25.3213 11.607 25.4285 11.4784 25.8142C11.3499 26.1999 11.5213 26.4571 11.8212 26.6928C12.6997 27.3999 13.5782 28.1071 14.4781 28.7928C14.7352 29.0071 14.8424 29.1785 14.7138 29.5214C14.3281 30.5713 14.0067 31.6427 13.6425 32.6927C13.5139 33.0784 13.5139 33.4213 13.8781 33.6785C14.221 33.9142 14.5424 33.7856 14.8423 33.5499C15.678 32.8642 16.5564 32.1999 17.3706 31.5142C17.6706 31.257 17.8634 31.2142 18.1848 31.4927C19.0205 32.1999 19.8989 32.8642 20.7559 33.5713C21.0559 33.807 21.3773 33.9356 21.7201 33.6785C22.063 33.4428 22.063 33.0999 21.9344 32.7356C21.5702 31.6642 21.2274 30.5928 20.8631 29.5214C20.756 29.2214 20.7988 29.0499 21.0559 28.8571C21.9558 28.1499 22.8557 27.4214 23.7342 26.7142C24.0128 26.4785 24.227 26.2213 24.0985 25.857C23.9699 25.4713 23.6699 25.3428 23.2628 25.3428C22.2129 25.3428 21.1416 25.3214 20.0917 25.3642C19.7703 25.3642 19.6632 25.2571 19.5775 24.9785C19.2561 23.9285 18.8919 22.8999 18.549 21.8499C18.4205 21.4642 18.2491 21.1214 17.7777 21.1428C17.3278 21.1428 17.1564 21.4642 17.0492 21.8499C16.7064 22.9213 16.3208 23.9928 15.9779 25.0642C15.8922 25.2999 15.8065 25.3857 15.5494 25.3857C14.9709 25.3214 14.4352 25.3213 13.8996 25.3213ZM13.8567 38.007C13.3425 38.007 12.8283 38.007 12.3141 38.007C11.9284 38.007 11.607 38.0927 11.457 38.4784C11.307 38.8856 11.5213 39.1428 11.8212 39.3785C12.7426 40.0856 13.621 40.8356 14.5423 41.5427C14.7352 41.6927 14.7995 41.8427 14.7138 42.0999C14.3281 43.1713 13.9853 44.2641 13.621 45.357C13.4925 45.7427 13.4711 46.0856 13.8353 46.3427C14.1996 46.5999 14.5209 46.4498 14.8209 46.1927C15.6994 45.4856 16.5993 44.7784 17.4563 44.0712C17.6706 43.8998 17.7991 43.8998 18.0134 44.0712C18.8919 44.7998 19.7918 45.507 20.6917 46.2355C20.9916 46.4713 21.313 46.5998 21.6559 46.3641C21.9987 46.1284 22.0201 45.807 21.8915 45.4212C21.5273 44.3498 21.1845 43.257 20.7988 42.1641C20.6917 41.8641 20.756 41.7141 20.9917 41.5427C21.913 40.8356 22.8129 40.107 23.7128 39.3785C23.9913 39.1428 24.1841 38.8856 24.0341 38.4999C23.9056 38.1356 23.6057 38.0285 23.22 38.0285C22.1487 38.0285 21.0774 38.0285 20.0061 38.0285C19.749 38.0285 19.6204 37.9642 19.5347 37.707C19.1919 36.6142 18.8062 35.5427 18.4634 34.4499C18.3348 34.0856 18.1634 33.807 17.7349 33.807C17.3064 33.807 17.1349 34.0856 17.0063 34.4499C16.6635 35.4999 16.2993 36.5284 15.9779 37.5784C15.8708 37.9427 15.6779 38.0499 15.3351 38.0285C14.8637 37.9856 14.3495 38.007 13.8567 38.007ZM32.5618 45.7641C34.6187 45.7641 36.6756 45.7641 38.7326 45.7641C39.3539 45.7641 39.611 45.507 39.611 44.8855C39.611 43.5998 39.611 42.2927 39.611 41.007C39.611 40.3856 39.3539 40.1284 38.7326 40.1284C34.6187 40.1284 30.5049 40.1284 26.4125 40.1284C25.7697 40.1284 25.534 40.3856 25.534 41.007C25.534 42.2927 25.534 43.557 25.534 44.8427C25.534 45.5284 25.7697 45.7641 26.4553 45.7641C28.4694 45.7641 30.5049 45.7641 32.5618 45.7641Z" fill="#2F1793"/>
<path d="M15.7209 18.207C15.7423 18.2284 15.7851 18.2284 15.8066 18.2498C16.2565 17.8855 16.7279 17.5212 17.1779 17.1569C17.6493 16.7927 17.8635 16.7927 18.3563 17.1569C18.8277 17.5212 19.2776 17.8855 19.749 18.2498C19.6419 17.6713 19.4705 17.1569 19.2991 16.6212C19.1062 16.0212 19.1491 15.8498 19.6633 15.4427C20.2204 14.9927 20.7561 14.5641 21.3988 14.0499C20.7132 14.0499 20.1347 14.0499 19.5562 14.0499C18.742 14.0499 18.6563 13.9855 18.3992 13.2141C18.2064 12.6355 18.0135 12.0785 17.8206 11.457C17.7564 11.5427 17.7135 11.5427 17.7135 11.5641C17.5207 12.1213 17.3493 12.6784 17.1564 13.2356C16.9207 13.9427 16.7922 14.0284 16.0637 14.0284C15.4638 14.0284 14.8853 14.0284 14.1782 14.0284C14.7353 14.4784 15.1853 14.8427 15.6566 15.207C16.5137 15.8927 16.5137 15.8927 16.1708 16.9213C15.9994 17.3713 15.8495 17.7784 15.7209 18.207Z" fill="#2F1793"/>
<path d="M17.8208 36.8711C17.7994 36.8711 17.7566 36.8711 17.7352 36.8711C17.5209 37.4925 17.2852 38.1354 17.0924 38.7568C16.9424 39.2282 16.6639 39.4211 16.1925 39.4211C15.5497 39.3997 14.9283 39.4211 14.157 39.4211C14.7998 39.9354 15.3569 40.3854 15.9139 40.8354C16.3853 41.2211 16.4496 41.3925 16.2568 41.9711C16.0854 42.5068 15.8925 43.0425 15.7211 43.5568C16.2782 43.2139 16.7282 42.8496 17.1995 42.4853C17.6495 42.1425 17.8852 42.1425 18.3351 42.4853C18.8065 42.8496 19.2778 43.2354 19.7492 43.5997C19.6421 43.0425 19.4707 42.5068 19.2993 41.9925C19.1064 41.3925 19.1493 41.2211 19.6421 40.8139C20.1992 40.3639 20.7562 39.9353 21.3133 39.4639C21.2491 39.4211 21.2062 39.3996 21.1848 39.3996C20.6063 39.3996 20.0492 39.3996 19.4707 39.3996C18.7636 39.3996 18.6351 39.2925 18.3994 38.6282C18.2066 38.0497 18.0137 37.4711 17.8208 36.8711Z" fill="#2F1793"/>
<path d="M48.0314 16.1914C48.0314 17.1128 48.0314 18.0128 48.0314 18.9557C41.025 18.9557 33.9972 18.9557 26.948 18.9557C26.948 18.0557 26.948 17.1343 26.948 16.1914C33.9758 16.1914 40.9822 16.1914 48.0314 16.1914Z" fill="#2F1793"/>
<path d="M26.948 31.6432C26.948 30.7003 26.948 29.8003 26.948 28.8789C32.5617 28.8789 38.1753 28.8789 43.789 28.8789C43.789 29.7789 43.789 30.7003 43.789 31.6432C38.1967 31.6432 32.5831 31.6432 26.948 31.6432Z" fill="#2F1793"/>
<path d="M15.7206 18.2071C15.8492 17.8 15.9991 17.3714 16.1277 16.9642C16.4705 15.9357 16.4705 15.9357 15.6134 15.25C15.1635 14.8857 14.6921 14.5214 14.135 14.0714C14.8421 14.0714 15.442 14.0714 16.0205 14.0714C16.7704 14.0714 16.8776 13.9857 17.1133 13.2785C17.3061 12.7214 17.4776 12.1643 17.6704 11.6071C17.6704 11.5857 17.7132 11.5643 17.7775 11.5C17.9703 12.1 18.1631 12.6786 18.356 13.2572C18.6131 14.0286 18.7202 14.0928 19.513 14.0928C20.0915 14.0928 20.6486 14.0928 21.3556 14.0928C20.7128 14.6071 20.1772 15.0571 19.6201 15.4857C19.1059 15.8928 19.0631 16.0643 19.2559 16.6643C19.4273 17.1786 19.5987 17.7142 19.7058 18.2928C19.2345 17.9285 18.7845 17.5643 18.3131 17.2C17.8418 16.8357 17.6061 16.8357 17.1347 17.2C16.6848 17.5643 16.2134 17.9285 15.7634 18.2928C15.7848 18.2285 15.742 18.2071 15.7206 18.2071Z" fill="#2F1793"/>
<path d="M21.3339 26.7783C20.7125 27.2711 20.1554 27.7425 19.5769 28.1711C19.2127 28.4497 19.1056 28.7711 19.2556 29.1997C19.4484 29.7354 19.6198 30.2925 19.7269 30.8925C19.2556 30.5282 18.8056 30.1425 18.3342 29.7782C17.8629 29.414 17.6486 29.414 17.1558 29.7782C16.7058 30.1425 16.2345 30.5068 15.6988 30.8282C15.8702 30.3354 16.0202 29.8211 16.1916 29.3283C16.4273 28.6211 16.3844 28.514 15.8274 28.0425C15.2917 27.614 14.7561 27.1854 14.1133 26.6711C14.8418 26.6711 15.4631 26.6711 16.0845 26.6711C16.7058 26.6711 16.8558 26.564 17.0487 25.9854C17.2629 25.364 17.4772 24.7425 17.7771 24.1211C17.97 24.6997 18.1628 25.2997 18.3556 25.8782C18.5913 26.5854 18.7199 26.6711 19.4698 26.6711C20.0269 26.6711 20.584 26.6711 21.1411 26.6711C21.2054 26.7354 21.2268 26.7568 21.3339 26.7783Z" fill="#2F1793"/>
<path d="M17.8208 36.8711C18.0137 37.4497 18.2066 38.0497 18.3994 38.6282C18.6351 39.314 18.7636 39.3996 19.4707 39.3996C20.0492 39.3996 20.6063 39.3996 21.1848 39.3996C21.2062 39.3996 21.2276 39.4211 21.3133 39.4639C20.7348 39.9139 20.1777 40.3639 19.6421 40.8139C19.1493 41.2211 19.1064 41.3711 19.2993 41.9925C19.4707 42.5068 19.6421 43.0425 19.7492 43.5997C19.2778 43.2354 18.8065 42.8496 18.3351 42.4853C17.8852 42.1211 17.6495 42.1211 17.1995 42.4853C16.7282 42.8496 16.2568 43.2353 15.7211 43.5568C15.8925 43.0211 16.0854 42.4854 16.2568 41.9711C16.4496 41.3925 16.3853 41.2211 15.9139 40.8354C15.3569 40.3854 14.7998 39.9354 14.157 39.4211C14.9069 39.4211 15.5497 39.3997 16.1925 39.4211C16.6639 39.4425 16.9638 39.2282 17.0924 38.7568C17.2852 38.114 17.5209 37.4925 17.7352 36.8711C17.7566 36.8711 17.778 36.8711 17.8208 36.8711Z" fill="#2F1793"/>
<path d="M26.948 44.3307C26.948 43.4093 26.948 42.4878 26.948 41.5664C30.6976 41.5664 34.4257 41.5664 38.1753 41.5664C38.1753 42.4878 38.1753 43.3878 38.1753 44.3307C34.4257 44.3307 30.6976 44.3307 26.948 44.3307Z" fill="#2F1793"/>
</svg>
