<svg width="60" height="55" viewBox="0 0 60 55" fill="none" xmlns="http://www.w3.org/2000/svg">
<path d="M9 34.0506C9 25.007 9 15.9415 9 6.8978C9.19737 6.50365 9.48247 6.19708 9.89915 6C16.1493 6 22.3775 6 28.6276 6C28.6276 15.3502 28.6276 24.7005 28.6276 34.0945C28.4302 34.0945 28.2986 34.0945 28.167 34.0945C21.9169 34.0945 15.6668 34.0945 9.41668 34.0945C9.2851 34.0945 9.13158 34.0725 9 34.0506Z" fill="#2F1793"/>
<path d="M50.711 6.89932C50.711 12.9649 50.711 19.0524 50.711 25.118C50.5795 25.1399 50.4479 25.1618 50.3163 25.1618C44.0662 25.1618 37.8161 25.1618 31.566 25.1618C31.4125 25.1618 31.2809 25.1399 31.1055 25.1399C31.1055 18.7458 31.1055 12.3737 31.1055 6.02344C37.3556 6.02344 43.5837 6.02344 49.8338 6.02344C50.2067 6.19862 50.5137 6.50517 50.711 6.89932Z" fill="#2F1793"/>
<path d="M9 40.3977C9 39.1058 9 37.792 9 36.5C9.15351 36.5219 9.32896 36.5438 9.48247 36.5438C23.0573 36.5438 36.6321 36.5438 50.2069 36.5438C50.3604 36.5438 50.5359 36.5219 50.6894 36.5C50.6894 37.792 50.6894 39.1058 50.6894 40.3977C50.4043 41.0985 49.856 41.3175 49.1104 41.3175C44.8559 41.2956 40.6015 41.2955 36.347 41.2955C36.1935 41.2955 36.04 41.2955 35.8426 41.2955C35.8426 42.6094 35.8426 43.8795 35.8426 45.1714C36.5005 45.1714 37.1584 45.1495 37.7944 45.1714C38.562 45.1933 39.1321 45.8721 39.0005 46.5728C38.9128 47.1203 38.54 47.405 38.0576 47.602C32.575 47.602 27.0924 47.602 21.6099 47.602C20.8423 47.2298 20.5353 46.7481 20.6888 46.1349C20.8424 45.478 21.3029 45.1714 22.1581 45.1714C22.7064 45.1714 23.2547 45.1714 23.8249 45.1714C23.8249 43.8576 23.8249 42.6094 23.8249 41.2955C23.6494 41.2955 23.4739 41.2955 23.3204 41.2955C19.066 41.2955 14.8115 41.2737 10.557 41.3175C9.83333 41.3394 9.30702 41.0985 9 40.3977Z" fill="#2F1793"/>
<path d="M50.7114 34.0504C50.5798 34.0723 50.4482 34.0943 50.3166 34.0943C44.0665 34.0943 37.8164 34.0943 31.5663 34.0943C31.4347 34.0943 31.3031 34.0943 31.1277 34.0943C31.1277 31.9264 31.1277 29.7805 31.1277 27.5907C31.3031 27.5907 31.4786 27.5907 31.6541 27.5907C37.8384 27.5907 44.0227 27.5907 50.207 27.5907C50.3825 27.5907 50.5579 27.5688 50.7333 27.5469C50.7114 29.7147 50.7114 31.8826 50.7114 34.0504ZM40.9086 29.6272C40.2068 29.6491 39.6586 30.1965 39.6586 30.8534C39.6805 31.5103 40.2287 32.0577 40.8428 32.0577C41.5445 32.0577 42.0928 31.4884 42.0928 30.8315C42.0928 30.1746 41.5227 29.6272 40.9086 29.6272Z" fill="#2F1793"/>
</svg>
