<svg width="52" height="49" viewBox="0 0 52 49" fill="none" xmlns="http://www.w3.org/2000/svg">
<path d="M6 22.0435C6.25995 21.3069 6.71485 20.722 7.49469 20.332C7.49469 20.527 7.49469 20.7004 7.49469 20.852C7.49469 23.9284 7.49469 27.0047 7.49469 30.0594C7.49469 30.926 7.81958 31.4459 8.46944 31.7058C9.11931 31.9441 9.68254 31.7709 10.2458 31.1426C11.8487 29.3878 13.4517 27.6113 15.0547 25.8348C15.3797 25.4882 15.7696 25.3149 16.2245 25.4232C16.6794 25.5532 17.0476 25.8565 17.0693 26.3114C17.091 26.6581 16.961 27.0913 16.7661 27.373C16.2029 28.1529 15.553 28.8895 14.9248 29.6044C14.4482 30.146 14.2099 30.7526 14.2316 31.4892C14.2532 32.7241 13.82 33.8073 12.9535 34.6955C11.7838 35.8871 11.2422 37.3386 11.2422 39.0067C11.2639 40.9782 11.2422 42.9714 11.2422 44.9428C9.48756 44.9428 7.75463 44.9428 6 44.9428C6 37.3386 6 29.6911 6 22.0435Z" fill="#2F1793"/>
<path d="M39.9662 3.04337C40.3562 3.30334 40.4428 3.67164 40.4428 4.12659C40.4211 8.76277 40.4428 13.3989 40.4428 18.0134C40.4428 18.3167 40.3778 18.5334 40.1396 18.7501C39.7496 19.0967 39.403 19.4866 38.9481 19.9416C38.9481 14.7421 38.9481 9.67263 38.9481 4.55984C29.4601 4.55984 19.9938 4.55984 10.4841 4.55984C10.4841 4.73315 10.4841 4.90645 10.4841 5.07976C10.4841 12.749 10.4841 20.4182 10.4841 28.0874C10.4841 28.4774 10.3975 28.759 10.1159 29.0406C9.74761 29.4089 9.42265 29.7989 9.01107 30.2322C8.98941 30.0372 8.96777 29.9072 8.96777 29.7772C8.96777 21.1765 8.96777 12.5973 8.96777 3.99654C8.96777 3.56326 9.11941 3.25997 9.44434 3C19.6255 3.04333 29.8067 3.04337 39.9662 3.04337Z" fill="#2F1793"/>
<path d="M45.6846 43.8602C45.5546 43.7518 45.4246 43.6435 45.2946 43.5351C43.0634 41.3037 40.8323 39.094 38.6227 36.8625C38.0379 36.2776 37.3664 35.9743 36.5432 35.996C36.0883 36.0176 35.6334 35.996 35.1785 35.996C34.4636 35.996 33.7704 35.8226 33.1855 35.411C32.0158 34.5661 30.8461 33.6995 29.698 32.8113C29.373 32.573 29.2431 32.2264 29.3731 31.8148C29.503 31.4248 29.7629 31.1865 30.1529 31.1865C30.3911 31.1865 30.6511 31.2731 30.8461 31.4031C31.8425 31.9447 32.8173 32.5297 33.8138 33.093C34.7669 33.6346 35.785 33.5045 36.4782 32.7896C37.1931 32.053 37.258 31.0348 36.6515 30.0816C36.1749 29.345 36.1749 29.345 36.7815 28.7384C37.1497 28.3701 37.5397 27.9802 37.9079 27.6119C37.9296 27.5902 37.9512 27.5902 38.0162 27.5469C38.0812 27.6335 38.1679 27.7202 38.2328 27.8068C38.3195 27.9152 38.3845 28.0452 38.4495 28.1535C40.2691 31.4898 42.6952 34.3278 45.4897 36.8625C45.5546 36.9059 45.5979 36.9709 45.6629 37.0142C45.6846 39.3106 45.6846 41.5854 45.6846 43.8602Z" fill="#2F1793"/>
<path d="M25.9938 30.0166C25.3222 30.0166 24.6723 30.0166 24.0008 30.0166C24.0008 30.5149 24.0008 30.9915 24.0008 31.5114C24.499 31.5114 24.9756 31.5331 25.4522 31.5114C25.8205 31.4898 26.0804 31.5331 26.2103 31.923C26.2537 32.0747 26.3837 32.2047 26.5353 32.4214C26.2537 32.6813 25.9721 32.9629 25.6905 33.2445C24.954 33.9811 24.1958 34.7178 23.481 35.4544C23.3726 35.5843 23.2426 35.7577 23.2426 35.931C23.221 36.9275 23.2426 37.9241 23.2426 39.0073C23.8058 39.0073 24.3691 38.9423 24.9107 39.029C26.1021 39.2023 26.9685 38.769 27.7267 37.8591C28.5282 36.9058 29.4597 36.0826 30.3695 35.1944C30.911 35.5844 31.4093 35.9526 31.8859 36.3426C32.9256 37.1658 34.117 37.5558 35.4384 37.5341C35.8716 37.5341 36.3049 37.5341 36.7381 37.5341C37.258 37.5558 37.4313 37.7291 37.4313 38.2274C37.4313 38.964 37.4313 39.7222 37.4313 40.5021C29.1781 40.5021 20.9898 40.5021 12.7799 40.5021C12.5849 38.6607 12.7799 36.9492 14.2096 35.5843C14.6212 35.1944 14.8811 34.6744 15.1627 34.3061C15.7909 34.3928 16.3758 34.5228 16.9823 34.5444C17.7838 34.5877 18.607 34.5661 19.4085 34.5444C20.7515 34.5228 21.7047 33.5912 21.7263 32.248C21.7263 31.2948 21.7263 30.3415 21.7263 29.3883C21.7263 28.0234 20.7732 27.0702 19.4085 27.0486C19.1702 27.0486 18.9102 27.0486 18.6286 27.0486C18.7152 26.2037 18.4987 25.4887 17.9355 24.7954C18.477 24.7954 18.9319 24.7954 19.3868 24.7954C20.7515 24.7738 21.7046 23.8422 21.7046 22.4557C21.7046 22.0008 21.7046 21.5458 21.7046 21.0692C21.2064 21.0692 20.7298 21.0692 20.21 21.0692C20.21 21.5241 20.21 21.9791 20.21 22.434C20.1883 23.019 19.9284 23.2789 19.3435 23.3006C18.4337 23.3006 17.5022 23.3006 16.5924 23.3006C16.0075 23.3006 15.7475 23.019 15.7259 22.434C15.7259 21.5241 15.7259 20.5926 15.7259 19.6827C15.7259 19.0977 16.0075 18.8377 16.5924 18.8377C17.0256 18.8377 17.4589 18.8377 17.9355 18.8377C17.9355 18.3395 17.9355 17.8629 17.9355 17.2996C17.2639 17.3429 16.5707 17.2996 15.8992 17.4296C14.9244 17.6245 14.2529 18.4912 14.2312 19.4877C14.2095 20.5493 14.1662 21.6108 14.2529 22.6724C14.2962 23.1923 14.5561 23.6906 14.7078 24.1672C13.8629 25.0555 12.9531 26.0087 12 27.0053C12 20.051 12 13.1183 12 6.16406C20.4482 6.16406 28.8964 6.16406 37.388 6.16406C37.388 6.31571 37.4097 6.46739 37.4097 6.59738C37.4097 11.4285 37.4097 16.2597 37.4097 21.1125C37.4097 21.4158 37.323 21.6325 37.1064 21.8491C36.6081 22.3041 36.1533 22.8023 35.6767 23.2573C35.5468 23.3656 35.3301 23.4306 35.1568 23.4306C33.4238 23.4089 31.6909 23.3439 29.9796 23.3873C29.0481 23.4089 28.4199 24.0155 28.0733 24.8821C27.4451 26.442 26.8169 28.0018 26.2103 29.5616C26.1453 29.6483 26.0804 29.8216 25.9938 30.0166ZM20.2966 11.2986C20.2533 11.3419 20.2316 11.3635 20.2316 11.3852C20.2316 11.7968 20.2316 12.2301 20.21 12.6418C20.21 13.2484 19.9283 13.53 19.3218 13.53C18.412 13.53 17.5238 13.53 16.614 13.53C16.0075 13.53 15.7259 13.2484 15.7259 12.6418C15.7259 11.7319 15.7259 10.8436 15.7259 9.93371C15.7259 9.30544 16.0075 9.04546 16.6573 9.04546C17.0906 9.04546 17.5239 9.04546 17.9355 9.04546C17.9355 8.50385 17.9355 8.0489 17.9355 7.55061C17.3939 7.55061 16.8956 7.52895 16.3974 7.55061C15.206 7.59394 14.2529 8.5472 14.2312 9.73874C14.2095 10.757 14.2095 11.7968 14.2312 12.815C14.2529 14.0283 15.206 14.9815 16.3974 15.0032C17.4372 15.0248 18.477 15.0248 19.5384 15.0032C20.4699 14.9815 21.3581 14.3749 21.5747 13.4866C21.748 12.7717 21.7046 12.0351 21.7696 11.2769C21.2064 11.2986 20.7515 11.2986 20.2966 11.2986ZM24.0008 7.55061C24.0008 8.0489 24.0008 8.52554 24.0008 9.00216C27.7267 9.00216 31.4526 9.00216 35.1568 9.00216C35.1568 8.50388 35.1568 8.02723 35.1568 7.55061C31.4309 7.55061 27.7484 7.55061 24.0008 7.55061ZM24.0008 18.7511C27.7484 18.7511 31.4526 18.7511 35.1785 18.7511C35.1785 18.2529 35.1785 17.7762 35.1785 17.2996C31.4309 17.2996 27.7267 17.2996 24.0008 17.2996C24.0008 17.7979 24.0008 18.2745 24.0008 18.7511ZM24.0008 10.562C24.0008 11.0819 24.0008 11.5585 24.0008 12.0135C26.9902 12.0135 29.9579 12.0135 32.9256 12.0135C32.9256 11.5152 32.9256 11.0386 32.9256 10.562C29.9362 10.562 26.9902 10.562 24.0008 10.562ZM24.0008 21.7408C26.5136 21.7408 28.9614 21.7408 31.4309 21.7408C31.4309 21.2425 31.4309 20.7659 31.4309 20.2893C28.9398 20.2893 26.492 20.2893 24.0008 20.2893C24.0008 20.7876 24.0008 21.2425 24.0008 21.7408ZM20.4916 7.87557C19.2568 9.11044 18.0221 10.3453 16.809 11.5585C17.0906 11.8618 17.4156 12.1868 17.7188 12.4901C18.9536 11.2552 20.1883 10.0203 21.4447 8.76382C21.1414 8.48218 20.7948 8.1572 20.4916 7.87557ZM17.7188 22.2174C18.9752 20.9608 20.1883 19.7476 21.3797 18.5561C21.0981 18.2311 20.7732 17.8846 20.5133 17.6029C19.2569 18.8595 18.0438 20.0726 16.8524 21.2641C17.134 21.5674 17.4372 21.9141 17.7188 22.2174Z" fill="#2F1793"/>
<path d="M12.7583 43.4898C12.7583 42.9699 12.7583 42.4933 12.7583 42.0166C21.4665 42.0166 30.1746 42.0166 38.9045 42.0166C38.9045 41.1501 38.9045 40.3052 38.9045 39.3086C39.4677 39.8719 39.9226 40.3051 40.3558 40.7818C40.4208 40.8468 40.4208 41.0201 40.4208 41.1284C40.4208 41.605 40.4208 42.1033 40.4208 42.5799C40.4208 43.2515 40.1609 43.5115 39.4677 43.5115C37.1065 43.5115 34.767 43.5115 32.4058 43.5115C26.0372 43.5115 19.6902 43.5115 13.3215 43.5115C13.1699 43.4898 12.9749 43.4898 12.7583 43.4898Z" fill="#2F1793"/>
<path d="M39.7714 21.457C40.0531 21.7603 40.4213 22.1286 40.8113 22.5403C40.7463 22.6052 40.6596 22.7135 40.5729 22.8218C38.0601 25.3566 35.5257 27.8696 33.0129 30.4044C32.7746 30.6427 32.6013 30.686 32.298 30.491C31.9731 30.2744 31.6048 30.0794 31.3232 29.9278C34.1177 27.1114 36.9554 24.2951 39.7714 21.457Z" fill="#2F1793"/>
<path d="M20.2322 30.7543C20.2322 31.2309 20.2539 31.7292 20.2322 32.2058C20.2106 32.7041 19.9289 32.9857 19.4524 33.0074C18.4776 33.0291 17.5244 33.0291 16.5496 33.0074C16.0514 33.0074 15.7915 32.7258 15.7482 32.2275C15.6615 31.4693 15.8131 30.7976 16.398 30.2344C16.8529 29.8011 17.1778 29.2595 17.6111 28.8262C17.7627 28.6745 18.0227 28.5662 18.2393 28.5445C18.6292 28.5012 19.0408 28.5229 19.4524 28.5445C19.9506 28.5662 20.2322 28.8478 20.2322 29.3461C20.2322 29.7794 20.2322 30.2777 20.2322 30.7543Z" fill="#2F1793"/>
<path d="M27.4454 31.2743C27.4454 30.9927 27.3588 30.6893 27.4671 30.451C28.1386 28.7179 28.8101 27.0064 29.5466 25.2949C29.6333 25.0783 29.9798 24.8183 30.1965 24.7966C31.4745 24.7533 32.7526 24.775 33.944 24.775C31.8211 26.8981 29.6549 29.0429 27.4454 31.2743Z" fill="#2F1793"/>
<path d="M24.781 37.5549C24.6294 36.7533 24.7377 36.19 25.3225 35.6701C26.254 34.8468 27.0989 33.9369 27.9437 33.0703C28.3336 33.5036 28.7019 33.8936 29.0918 34.3052C28.0953 35.3018 27.0989 36.3633 26.0158 37.3165C25.7558 37.5548 25.2142 37.4899 24.781 37.5549Z" fill="#2F1793"/>
<path d="M41.9156 21.4157C41.5257 21.0258 41.1575 20.6575 40.8325 20.3325C41.3091 19.8125 41.7423 19.2926 42.2622 18.816C42.5655 18.5344 43.0421 18.6643 43.302 18.9676C43.5836 19.2709 43.627 19.7259 43.3237 20.0292C42.8905 20.5058 42.4139 20.9391 41.9156 21.4157Z" fill="#2F1793"/>
<path d="M39.1426 26.4643C39.5758 26.0094 39.9874 25.5977 40.4423 25.1211C40.4423 25.706 40.4423 26.226 40.4423 26.7459C40.4423 27.2659 40.4423 27.7858 40.4423 28.3274C40.4207 28.3491 40.3773 28.3491 40.3557 28.3708C39.9441 27.7208 39.5325 27.0709 39.1426 26.4643Z" fill="#2F1793"/>
<path d="M35.1138 30.5156C35.6121 31.1222 35.677 31.4038 35.4171 31.7071C35.1355 32.0321 34.7889 31.9671 34.0957 31.4689C34.4206 31.1656 34.7672 30.8406 35.1138 30.5156Z" fill="#2F1793"/>
</svg>
