<svg width="28" height="26" viewBox="0 0 28 26" fill="none" xmlns="http://www.w3.org/2000/svg">
<path d="M13.928 12.1748C13.8968 12.2148 13.8656 12.2548 13.8344 12.2948C13.7199 12.4448 13.6055 12.6048 13.4911 12.7548V12.7648C11.4108 15.5448 9.32015 18.3348 7.23986 21.1148C7.18786 21.1748 7.13587 21.2448 7.09426 21.3048C6.85503 21.6948 7.09423 22.1448 7.55189 22.1848C7.63511 22.1948 7.71834 22.1848 7.80155 22.1848C12.1597 22.1848 16.5179 22.1848 20.8761 22.1848C21.5106 22.1848 21.6666 22.0348 21.6666 21.4148C21.6666 18.3948 21.6666 15.3848 21.6666 12.3648C21.6666 12.2648 21.6666 12.1548 21.6666 12.0348V10.8948C21.6666 10.7648 21.6666 10.6548 21.6666 10.5548C21.6666 8.28478 21.6666 6.02477 21.6666 3.75477C21.6666 3.66477 21.677 3.57479 21.6562 3.49479C21.6042 3.07479 21.1362 2.86476 20.7721 3.09476C20.6577 3.16476 20.5641 3.27476 20.4913 3.37476C18.7958 5.63476 17.1004 7.88478 15.4154 10.1448L13.928 12.1748ZM16.6323 11.4348C16.9236 11.5848 17.1628 11.5548 17.35 11.3448C17.5373 11.1348 17.5373 10.8448 17.3293 10.6248C17.194 10.4848 17.0276 10.3748 16.8612 10.2348C17.0276 9.99478 17.2044 9.76478 17.3708 9.52478C18.0989 9.96478 18.3278 9.98478 18.5566 9.67478C18.7854 9.36478 18.6814 9.12479 18.0989 8.65479C18.2654 8.42479 18.4214 8.19477 18.5982 7.94477C18.7438 8.02477 18.879 8.11479 19.0247 8.18479C19.2639 8.31479 19.4823 8.27476 19.68 8.09476C19.8672 7.91476 19.8984 7.67477 19.7632 7.44477C19.7424 7.41477 19.7216 7.38477 19.7008 7.35477C19.3263 6.85477 19.3263 6.85477 19.7112 6.35477C19.9504 6.04477 20.2 5.72477 20.4809 5.35477C20.4809 10.6348 20.4809 15.8448 20.4809 21.0648C16.5908 21.0648 12.7006 21.0648 8.76887 21.0648C9.20573 20.4948 9.6114 19.9548 10.0483 19.3948C10.2771 19.5448 10.4851 19.6848 10.7035 19.8248C11.0156 20.0248 11.39 19.9748 11.5773 19.7148C11.7749 19.4448 11.6917 19.0948 11.3692 18.8948C11.1612 18.7548 10.9324 18.6348 10.6931 18.4948C10.87 18.2448 11.0364 18.0148 11.2132 17.7648C11.442 17.9148 11.6501 18.0548 11.8685 18.1848C12.2014 18.3848 12.4718 18.3548 12.6694 18.1048C12.867 17.8448 12.815 17.5248 12.5238 17.2848C12.4302 17.2048 12.3158 17.1348 12.2117 17.0648C12.1181 16.9948 12.0245 16.9248 11.9205 16.8548C12.0973 16.6148 12.2638 16.3848 12.4406 16.1248C12.659 16.2548 12.8566 16.3848 13.0647 16.5048C13.3871 16.6848 13.6575 16.6448 13.8448 16.4048C14.032 16.1648 13.9904 15.8448 13.7303 15.6248C13.5535 15.4848 13.3663 15.3648 13.1479 15.2148C13.3247 14.9748 13.4911 14.7348 13.6679 14.4948C13.876 14.6348 14.0632 14.7548 14.2504 14.8748C14.5312 15.0448 14.7913 15.0148 14.9889 14.7948C15.1762 14.5848 15.197 14.2948 14.9785 14.0748C14.8121 13.9048 14.5937 13.7748 14.3856 13.6248C14.5521 13.3848 14.7289 13.1548 14.8953 12.9148C15.0721 13.0248 15.2386 13.1348 15.3946 13.2348C15.717 13.4248 16.0083 13.3848 16.1955 13.1248C16.3931 12.8548 16.3515 12.3948 16.1019 12.2148C15.9458 12.1048 15.7794 12.0148 15.6026 11.8948C15.7794 11.6548 15.9355 11.4248 16.1227 11.1748C16.3099 11.2448 16.4659 11.3448 16.6323 11.4348Z" fill="#2F1793"/>
<path d="M19.013 15.7445C19.013 16.8245 19.013 17.8945 19.013 18.9745C19.013 19.5145 18.8257 19.6945 18.2537 19.6945C16.8079 19.6945 15.3621 19.6945 13.9059 19.6945C13.6146 19.6945 13.365 19.6245 13.2298 19.3745C13.0842 19.1245 13.1778 18.8845 13.3338 18.6645C14.8628 16.4645 16.3814 14.2745 17.9104 12.0745C18.0977 11.8045 18.3057 11.7145 18.5761 11.7845C18.8361 11.8445 19.0026 12.0645 19.0026 12.3845C19.013 13.0245 19.0026 13.6745 19.0026 14.3145C19.013 14.7945 19.013 15.2645 19.013 15.7445ZM14.8628 18.5345C15.8821 18.5345 16.8495 18.5345 17.8064 18.5345C17.8064 17.1145 17.8064 15.7145 17.8064 14.2545C16.8079 15.7145 15.8405 17.1045 14.8628 18.5345Z" fill="#2F1793"/>
</svg>
