<svg width="51" height="50" viewBox="0 0 51 50" fill="none" xmlns="http://www.w3.org/2000/svg">
<circle cx="24.9321" cy="24.9321" r="22.9321" fill="#2F1793"/>
<path d="M15.015 24.9018C14.9945 30.3816 19.4224 34.822 24.914 34.8495C30.3809 34.877 34.8348 30.4351 34.8554 24.9368C34.876 19.4704 30.448 15.0299 24.963 15.0092M24.963 15.0092C24.9631 15.0092 24.9631 15.0092 24.9632 15.0092L24.9621 15.2092L24.9629 15.0092C24.9629 15.0092 24.963 15.0092 24.963 15.0092ZM13.2527 24.9293C13.2527 18.5059 18.5182 13.2469 24.9419 13.2469C31.3721 13.2469 36.6308 18.519 36.6109 24.9422C36.5911 31.3799 31.3652 36.6052 24.9417 36.6118C18.525 36.6184 13.2527 31.3529 13.2527 24.9293Z" fill="white" stroke="#2F1793" stroke-width="0.4"/>
<path d="M23.655 24.0499C23.2695 24.0399 22.8811 24.0412 22.4913 24.0425C22.3607 24.0429 22.2299 24.0433 22.0989 24.0433C21.6204 24.0433 21.1436 24.0433 20.6602 24.05L20.6574 24.05C20.0642 24.05 19.684 24.4215 19.6786 24.9232L23.655 24.0499ZM23.655 24.0499C23.7422 24.0534 23.876 24.0475 23.9679 23.9413C24.0119 23.8904 24.0308 23.8333 24.0398 23.7871C24.0487 23.7421 24.0503 23.6955 24.0503 23.6547L24.0503 23.6533C24.0436 22.664 24.0436 21.668 24.0503 20.6787H24.0503V20.6773C24.0503 20.1004 24.4197 19.7228 24.919 19.7119C25.4106 19.7013 25.8066 20.0928 25.8126 20.679C25.8193 21.6614 25.8193 22.6439 25.8126 23.6331L25.8126 23.6331V23.6345C25.8126 23.6822 25.8146 23.7342 25.8248 23.7835C25.8354 23.8346 25.8571 23.8949 25.9053 23.9471C26.001 24.0506 26.1395 24.0568 26.2281 24.0568L26.2295 24.0568C27.2055 24.05 28.1815 24.05 29.1584 24.05C29.4577 24.05 29.6982 24.1478 29.8621 24.301C30.0251 24.4533 30.1237 24.6706 30.1237 24.9345C30.1237 25.4387 29.7472 25.8123 29.1718 25.8123C28.9269 25.8123 28.6822 25.8127 28.4378 25.8132C27.7056 25.8144 26.9752 25.8157 26.2444 25.8056V25.8056H26.2416C26.1443 25.8056 26.0026 25.8141 25.9057 25.9209C25.8573 25.9743 25.8355 26.0357 25.8249 26.088C25.8146 26.1387 25.8126 26.1922 25.8126 26.2413L25.8126 26.2427C25.8193 27.2253 25.8193 28.2078 25.8126 29.1971V29.1985C25.8126 29.6188 25.5838 29.943 25.2319 30.0675L25.2307 30.0679C24.895 30.189 24.5107 30.0943 24.2768 29.8278L24.2768 29.8277L24.2747 29.8254C24.1183 29.6528 24.0503 29.4476 24.0503 29.1985C24.0503 28.952 24.0499 28.7057 24.0495 28.4595C24.0482 27.7219 24.0469 26.9851 24.057 26.2441H24.057V26.2413C24.057 26.192 24.055 26.1385 24.0449 26.0877C24.0345 26.0357 24.0133 25.974 23.9655 25.9201C23.8675 25.8096 23.7244 25.8023 23.6233 25.8056C22.8883 25.8157 22.1539 25.8144 21.4148 25.8132C21.1674 25.8127 20.9195 25.8123 20.6709 25.8123C20.3634 25.8123 20.1139 25.7137 19.9443 25.5589C19.7762 25.4055 19.6758 25.1878 19.6786 24.9232L23.655 24.0499ZM28.4393 26.0132C27.7067 26.0144 26.9742 26.0157 26.2416 26.0056L23.6617 23.85C23.8234 23.8568 23.8503 23.8029 23.8503 23.6547C23.8436 22.6645 23.8436 21.6675 23.8503 20.6773C23.8503 20.0037 24.2949 19.5255 24.9146 19.512C25.5343 19.4985 26.0059 19.997 26.0126 20.6773C26.0193 21.6608 26.0193 22.6443 26.0126 23.6345C26.0126 23.8096 26.0463 23.8568 26.2281 23.8568C27.2049 23.85 28.1816 23.85 29.1584 23.85C29.8454 23.85 30.3237 24.3013 30.3237 24.9345C30.3237 25.561 29.8454 26.0123 29.1718 26.0123C28.9276 26.0123 28.6835 26.0127 28.4393 26.0132Z" fill="white" stroke="#2F1793" stroke-width="0.4"/>
</svg>
