<svg width="30" height="31" viewBox="0 0 30 31" fill="none" xmlns="http://www.w3.org/2000/svg">
<path d="M5.02729 24.0067C4.99616 23.7476 5.00655 23.4992 5.00655 23.2292C5.00655 22.8297 5.00655 22.4302 5.00655 22.0306C5.00655 21.2316 5.00655 20.4217 5.00655 19.6226C5.00655 18.0137 5.00655 16.4156 5.00655 14.8067C5.00655 14.4935 5.00655 11.0273 5.00655 11.0273C11.5962 11.0273 18.1858 11.0273 24.7858 11.0273C24.7858 11.0921 24.7858 11.1353 24.7858 11.1677C24.7858 12.7766 24.7858 14.3748 24.7858 15.9837C24.7858 17.5926 24.7858 19.1907 24.7858 20.7997C24.7858 21.3828 24.7962 21.9766 24.7962 22.5597C24.7962 23.0996 24.8584 23.7043 24.7235 24.2227C24.516 25.0541 23.8311 25.5724 22.9594 25.5724C18.6839 25.5724 14.398 25.5724 10.1226 25.5724C9.45843 25.5724 8.78391 25.5724 8.11975 25.5724C7.78768 25.5724 7.45559 25.5724 7.13389 25.5724C6.66691 25.5724 6.23105 25.5508 5.82634 25.2917C5.48388 25.0649 5.23486 24.7302 5.11033 24.3306C5.05844 24.2335 5.03767 24.1255 5.02729 24.0067ZM9.53106 18.0137C9.82163 17.5386 9.87353 17.0527 9.6141 16.5776C9.35466 16.0917 8.92917 15.8757 8.38954 15.8973C8.09898 15.9081 7.80842 15.8973 7.51785 15.8973C7.11313 15.8973 6.98863 16.0269 6.98863 16.448C6.98863 17.517 6.98863 18.586 6.98863 19.6658C6.98863 19.871 6.97825 20.0762 6.98863 20.2922C6.999 20.5729 7.14429 20.7241 7.4141 20.7241C7.84995 20.7241 8.28578 20.7349 8.72163 20.7241C9.48955 20.7025 10.1018 20.0654 10.1122 19.2663C10.1226 18.748 9.91502 18.3377 9.53106 18.0137ZM17.6565 18.3053C17.6565 16.9771 16.6188 15.8973 15.332 15.8973C14.066 15.8973 13.0282 16.9771 13.0179 18.2945C13.0075 19.6227 14.0556 20.7133 15.332 20.7133C16.6084 20.7133 17.6565 19.6335 17.6565 18.3053ZM21.9735 18.7048C21.9216 19.2879 21.548 19.763 21.0499 19.871C20.2094 20.0654 19.3377 19.4283 19.2235 18.5536C19.099 17.5926 19.7631 16.7396 20.666 16.6964C21.0084 16.6856 21.3094 16.7719 21.5999 16.9663C21.7452 17.0635 21.9009 17.0743 22.0565 16.9663C22.1914 16.8691 22.2537 16.7072 22.1915 16.5668C22.1396 16.4372 22.0254 16.3076 21.9112 16.2429C20.9877 15.6706 19.7943 15.8541 19.0679 16.6748C18.3207 17.5062 18.2273 18.7372 18.8292 19.6767C19.5141 20.7349 20.9046 21.0696 21.849 20.4001C22.5546 19.9034 22.7933 19.1583 22.7933 18.3161C22.7933 18.0785 22.6273 17.9381 22.3782 17.9381C22.0254 17.9381 21.6726 17.9381 21.3198 17.9381C21.0499 17.9381 20.8839 18.0893 20.8735 18.3269C20.8735 18.5752 21.0396 18.7372 21.3198 18.7372C21.5377 18.7048 21.7556 18.7048 21.9735 18.7048ZM11.6688 19.9142C11.6688 19.8062 11.6688 19.7307 11.6688 19.6551C11.6688 18.5537 11.6688 17.463 11.6688 16.3616C11.6688 16.0809 11.5235 15.9081 11.2952 15.8973C11.0669 15.8973 10.9009 16.0701 10.9009 16.3508C10.9009 17.6574 10.9009 18.964 10.9009 20.2705C10.9009 20.5729 11.0565 20.7241 11.3471 20.7241C11.7622 20.7241 12.1669 20.7241 12.582 20.7241C12.8518 20.7241 13.0179 20.5621 13.0179 20.3245C13.0179 20.0762 12.8518 19.925 12.582 19.925C12.2914 19.9142 11.9905 19.9142 11.6688 19.9142Z" fill="#20DEC2"/>
<path d="M5.00664 9.82765C5.00664 9.25535 5.00664 8.69383 5.00664 8.12153C5.00664 7.84078 5.00664 7.56003 5.00664 7.27927C5.00664 6.97693 4.97549 6.69617 5.04813 6.39382C5.17266 5.88631 5.44249 5.4868 5.87834 5.23845C6.034 5.15206 6.20004 5.08725 6.36607 5.04405C6.54249 4.99006 6.69814 5.00089 6.87455 5.00089C7.25852 5.00089 7.64249 5.00089 8.02646 5.00089C8.79438 5.00089 9.56229 5.00089 10.3406 5.00089C10.6 5.00089 10.8595 5.00089 11.1293 5.00089C12.6651 5.00089 14.2114 5.00089 15.7472 5.00089C17.2831 5.00089 18.8293 5.00089 20.3651 5.00089C20.9463 5.00089 21.517 5.00089 22.0982 5.00089C22.3783 5.00089 22.6689 5.00089 22.9491 5.00089C23.4472 5.00089 23.9661 5.20604 24.3085 5.59477C24.6302 5.95111 24.7548 6.43704 24.7548 6.92295C24.7548 7.81919 24.7548 8.71543 24.7548 9.61167C24.7548 9.67646 24.7548 9.75206 24.7548 9.82765C18.1755 9.82765 11.5859 9.82765 5.00664 9.82765ZM8.32738 6.81496C8.19247 6.81496 8.05758 6.80416 7.92268 6.81496C7.61136 6.82576 7.36229 7.0957 7.36229 7.40885C7.36229 7.72199 7.60097 8.00274 7.91229 8.01354C8.19248 8.02434 8.46231 8.02434 8.7425 8.01354C9.05382 8.00274 9.2925 7.73279 9.2925 7.40885C9.2925 7.0849 9.04343 6.82576 8.73211 6.81496C8.5972 6.80416 8.46228 6.81496 8.32738 6.81496ZM11.4198 6.81496C11.2953 6.81496 11.1604 6.81496 11.0359 6.81496C10.7142 6.82576 10.4548 7.0849 10.4548 7.40885C10.4548 7.73279 10.7038 8.00274 11.0255 8.01354C11.2849 8.02434 11.5548 8.02434 11.8142 8.01354C12.1359 8.00274 12.3849 7.73279 12.3849 7.40885C12.3849 7.0849 12.1359 6.82576 11.8246 6.81496C11.6897 6.80416 11.5547 6.81496 11.4198 6.81496ZM14.4915 8.01354C14.6264 8.01354 14.7614 8.01354 14.8963 8.01354C15.2283 8.00274 15.4774 7.7436 15.4774 7.41966C15.4774 7.09571 15.2283 6.82576 14.9066 6.81496C14.6472 6.80416 14.3774 6.80416 14.118 6.81496C13.7963 6.82576 13.5472 7.09571 13.5472 7.41966C13.5472 7.7436 13.7963 8.00274 14.1076 8.01354C14.2321 8.02434 14.367 8.01354 14.4915 8.01354Z" fill="#20DEC2"/>
<path d="M7.77734 18.5526C8.1198 18.5526 8.45189 18.531 8.77359 18.5526C9.10567 18.5742 9.34434 18.8765 9.34434 19.222C9.34434 19.5676 9.11602 19.8699 8.78395 19.9023C8.45187 19.9347 8.1198 19.9131 7.77734 19.9131C7.77734 19.4596 7.77734 19.0169 7.77734 18.5526Z" fill="#20DEC2"/>
<path d="M7.77734 16.6962C8.03678 16.6962 8.27546 16.6854 8.52451 16.6962C8.8047 16.707 9.0019 16.9446 9.0019 17.2253C9.0019 17.5061 8.80471 17.722 8.5349 17.7328C8.29622 17.7436 8.04717 17.7328 7.78773 17.7328C7.77735 17.3981 7.77734 17.0633 7.77734 16.6962Z" fill="#20DEC2"/>
<path d="M16.8781 18.3043C16.8781 19.2005 16.1932 19.9132 15.3318 19.9132C14.4809 19.9132 13.7856 19.1789 13.796 18.2934C13.8064 17.408 14.4913 16.6953 15.3318 16.6953C16.1932 16.6953 16.8781 17.408 16.8781 18.3043Z" fill="#20DEC2"/>
</svg>
