<svg width="33" height="32" viewBox="0 0 33 32" fill="none" xmlns="http://www.w3.org/2000/svg">
<path d="M9.59371 5.94284C9.71298 5.85006 9.83226 5.66449 9.84551 5.50544C9.87201 4.88252 9.85876 4.25962 9.84551 3.62345C9.83226 3.22584 9.64671 2.98727 9.20939 3.00052C8.1227 3.01378 7.02276 3.00052 5.93608 3.00052C5.52526 3.00052 5.28672 3.19932 5.27347 3.61018C5.26022 5.45244 5.27347 7.28143 5.27347 9.22972C6.79748 8.0899 8.20223 7.02964 9.59371 5.94284Z" fill="#9B9B9B"/>
<path d="M28.1859 12.9692C28.1992 12.5849 28.0534 12.3331 27.7618 12.1078C23.8789 9.15219 19.996 6.19661 16.1131 3.22779C15.7288 2.93621 15.4373 2.94948 15.0662 3.24106C13.6615 4.32786 12.2567 5.38814 10.8387 6.46168C8.38705 8.33045 5.93539 10.186 3.51023 12.068C3.28494 12.2403 3.05963 12.5584 3.03312 12.8235C2.98011 13.7115 3.00663 14.6127 3.00663 15.5007C3.00663 15.9248 3.20542 16.1236 3.62949 16.1236C4.14633 16.1236 4.66315 16.1236 5.27276 16.1236C5.27276 16.3754 5.27276 16.5742 5.27276 16.7598C5.27276 20.272 5.27276 23.771 5.27276 27.2832C5.27276 28.0121 5.41855 28.1579 6.16068 28.1579C7.60517 28.1579 9.06292 28.1579 10.5074 28.1579C10.6664 28.1579 10.8122 28.1314 10.9845 28.1181C10.9845 27.8531 10.9845 27.641 10.9845 27.4157C10.9845 23.5854 10.9845 19.7551 10.9845 15.9248C10.9845 15.1428 11.1435 14.9838 11.9254 14.9838C14.3108 14.9838 16.6829 14.9838 19.0684 14.9838C20.0225 14.9838 20.0623 15.0103 20.2743 15.9115C20.2611 15.8453 21.6128 15.6199 21.7453 15.6067C22.2224 15.5537 22.6995 15.5537 23.1766 15.5935C23.6404 15.6465 24.1042 15.7393 24.5548 15.8851C24.78 15.9513 25.0053 16.0441 25.2174 16.1369C25.3764 16.2031 25.5089 16.3622 25.6945 16.3622C25.8535 16.3622 25.986 16.2296 26.1318 16.1766C26.2908 16.1104 26.4764 16.0971 26.6486 16.0971C27.0462 16.0971 27.4703 16.1899 27.8413 15.9911C28.0666 15.8718 28.1859 15.673 28.1859 15.4212C28.1727 14.6259 28.1594 13.8042 28.1859 12.9692ZM15.5565 12.1608C14.3108 12.1475 13.2904 11.1137 13.3036 9.85461C13.3169 8.59552 14.3505 7.56176 15.583 7.56176C16.842 7.54851 17.9021 8.62202 17.8889 9.89437C17.8756 11.1667 16.8552 12.1608 15.5565 12.1608Z" fill="#9B9B9B"/>
<path d="M15.689 21.3705C15.9938 19.3692 17.054 17.845 18.7106 16.7052C18.8563 16.6124 18.9623 16.4534 19.0816 16.3209C19.0551 16.2811 19.0153 16.2546 18.9888 16.2148C16.7227 16.2148 14.4698 16.2148 12.1904 16.2148C12.1904 20.2042 12.1904 24.167 12.1904 28.1564C14.2843 28.1564 16.3516 28.1564 18.5515 28.1564C18.3527 27.9973 18.2467 27.9046 18.1407 27.8118C16.1661 26.1021 15.2915 23.9682 15.689 21.3705Z" fill="#9B9B9B"/>
<path d="M15.6227 8.71509C14.9998 8.70183 14.4697 9.23197 14.4697 9.86815C14.483 10.5043 14.9601 10.9682 15.5962 10.9682C16.2323 10.9682 16.7094 10.4911 16.7226 9.85488C16.7226 9.24521 16.2323 8.74159 15.6227 8.71509Z" fill="#9B9B9B"/>
<path d="M21.7715 21.213C21.7715 21.4649 21.9437 21.6239 22.2088 21.7299V20.7227C21.9305 20.7757 21.7715 20.9347 21.7715 21.213Z" fill="#9B9B9B"/>
<path d="M22.6729 22.9766V24.0103C22.9644 23.9573 23.1499 23.7585 23.1499 23.4934C23.1367 23.2284 22.9511 23.0826 22.6729 22.9766Z" fill="#9B9B9B"/>
<path d="M22.4475 16.668C19.3067 16.6548 16.7623 19.1995 16.7491 22.3538C16.7358 25.5082 19.2272 28.0529 22.3415 28.0662C25.5618 28.0927 28.146 25.548 28.146 22.3803C28.146 19.2657 25.5618 16.6813 22.4475 16.668ZM22.6728 24.978V25.5612H22.209V24.9648C21.2151 24.872 20.4994 24.3551 20.4597 23.4274H21.7849C21.8114 23.719 21.9572 23.9045 22.209 23.984V22.831C21.4271 22.6322 20.4597 22.4069 20.4597 21.267C20.4597 20.3525 21.2283 19.8224 22.209 19.7561V19.1729H22.6728V19.7561C23.6668 19.8356 24.3029 20.3393 24.3691 21.267H23.0439C23.0174 21.002 22.8716 20.8297 22.6728 20.7634V21.89C23.4547 22.102 24.4486 22.3141 24.4486 23.4406C24.4486 24.2358 23.8125 24.925 22.6728 24.978Z" fill="#9B9B9B"/>
</svg>
