<svg width="28" height="26" viewBox="0 0 28 26" fill="none" xmlns="http://www.w3.org/2000/svg">
<path d="M25.3427 19.4815C25.2115 19.8095 25.128 20.1614 24.9372 20.4536C24.6032 20.9605 24.0903 21.2289 23.482 21.2527C22.9155 21.2766 22.349 21.2826 21.7824 21.2289C20.9058 21.1454 20.1722 20.3642 20.1126 19.4815C20.0887 19.0999 20.1066 18.7182 20.1066 18.3186C16.1349 18.3186 12.2108 18.3186 8.25096 18.3186C8.25096 18.6228 8.25693 18.915 8.25096 19.2132C8.23904 20.0481 7.88122 20.6802 7.12384 21.0559C6.93897 21.1454 6.72428 21.2229 6.52152 21.2289C5.94901 21.2527 5.37054 21.2945 4.80399 21.2349C3.74247 21.1335 3.01491 20.3224 3.00895 19.2549C2.99702 17.0066 2.99702 14.7643 3.00895 12.516C3.01491 11.7527 3.28924 11.0728 3.87367 10.5898C4.476 10.0948 4.83381 9.49249 5.07832 8.75897C5.45999 7.63781 5.90726 6.53454 6.31875 5.41934C6.67061 4.47113 7.35642 4 8.36427 4C12.342 4 16.3138 4 20.2915 4C21.2994 4 21.9852 4.47709 22.337 5.4253C22.8559 6.82675 23.3747 8.2282 23.9055 9.62369C23.977 9.80856 24.0903 9.98151 24.2215 10.1306C24.5436 10.4884 24.9014 10.8105 25.0863 11.2696C25.1876 11.532 25.2592 11.8004 25.3427 12.0688C25.3427 14.5437 25.3427 17.0126 25.3427 19.4815ZM14.1788 17.3585C16.5106 17.3585 18.8423 17.3585 21.1801 17.3585C21.9136 17.3585 22.6471 17.3645 23.3807 17.3525C23.9651 17.3406 24.3825 16.8993 24.3825 16.3089C24.3825 15.0327 24.3885 13.7505 24.3766 12.4743C24.3766 12.2894 24.3408 12.0986 24.2991 11.9137C24.1917 11.4247 23.816 11.1146 23.5059 10.7627C23.3926 10.6315 23.2733 10.5838 23.0944 10.5838C17.2322 10.5898 11.364 10.5898 5.50174 10.5898C5.45999 10.5898 5.41228 10.5779 5.37054 10.5898C5.30494 10.6077 5.22741 10.6256 5.1797 10.6673C4.95905 10.8701 4.74436 11.0728 4.52967 11.2816C4.12414 11.6632 3.95716 12.1463 3.96312 12.695C3.96312 13.8698 3.96312 15.0506 3.96312 16.2254C3.96312 16.3387 3.96909 16.458 3.99294 16.5713C4.11818 17.0842 4.51178 17.3585 5.12007 17.3585C8.14958 17.3585 11.1612 17.3585 14.1788 17.3585ZM5.77606 9.61773C8.97256 9.61773 12.1392 9.61773 15.3 9.61773C15.622 7.87635 17.0115 6.89832 18.4189 6.84465C19.1703 6.81483 19.8562 7.02355 20.4645 7.47082C21.198 8.00755 21.6214 8.73511 21.7824 9.62965C22.1522 9.62965 22.504 9.62965 22.8797 9.62965C22.8559 9.55809 22.8439 9.49845 22.8201 9.43882C22.3609 8.20435 21.9017 6.96392 21.4425 5.72945C21.2457 5.19869 20.9177 4.97207 20.3511 4.97207C16.3436 4.97207 12.3301 4.97207 8.32253 4.97207C7.76195 4.97207 7.43395 5.19869 7.23715 5.73541C7.00457 6.36159 6.77199 6.98777 6.53941 7.61395C6.28297 8.25802 6.0325 8.92595 5.77606 9.61773ZM7.28486 18.3127C6.99264 18.3127 6.71832 18.3246 6.44399 18.3127C5.62101 18.2709 4.77418 18.4677 3.97505 18.0622C3.97505 18.5214 3.95716 18.9568 3.98101 19.3861C4.01083 19.8811 4.42829 20.2866 4.92327 20.3105C5.40036 20.3284 5.88341 20.3284 6.3605 20.3105C6.81373 20.2926 7.23119 19.9348 7.2789 19.4935C7.31468 19.1118 7.28486 18.7242 7.28486 18.3127ZM21.0608 18.3127C21.0608 18.7003 21.0429 19.0462 21.0668 19.3921C21.1026 19.899 21.52 20.2926 22.0329 20.3105C22.4921 20.3224 22.9453 20.3224 23.4045 20.3105C23.8935 20.2986 24.3289 19.9288 24.3706 19.4398C24.4064 18.9866 24.3766 18.5333 24.3766 18.0801C24.1798 18.1457 23.9889 18.2411 23.7921 18.259C23.3508 18.3008 22.9095 18.3008 22.4682 18.3127C22.009 18.3186 21.5439 18.3127 21.0608 18.3127ZM20.7865 9.61773C20.5718 8.52638 19.5878 7.76304 18.4428 7.79286C17.4111 7.81671 16.433 8.64566 16.284 9.61773C17.7868 9.61773 19.2777 9.61773 20.7865 9.61773Z" fill="#2F1793"/>
<path d="M7.52944 12.4987C8.08405 12.4987 8.63271 12.4987 9.18732 12.4987C9.62267 12.4987 9.78965 12.6598 9.78965 13.0832C9.78965 13.8406 9.78965 14.592 9.78965 15.3494C9.78965 15.7489 9.6167 15.9278 9.2231 15.9278C8.09002 15.9338 6.95693 15.9338 5.82384 15.9278C5.44813 15.9278 5.26326 15.743 5.26326 15.3613C5.2573 14.592 5.2573 13.8227 5.26326 13.0534C5.26923 12.6717 5.4541 12.5047 5.83577 12.4987C6.39635 12.4928 6.96289 12.4987 7.52944 12.4987ZM6.21744 14.9558C7.10006 14.9558 7.95882 14.9558 8.81758 14.9558C8.81758 14.4488 8.81758 13.9598 8.81758 13.4649C7.94093 13.4649 7.08216 13.4649 6.21744 13.4649C6.21744 13.9718 6.21744 14.4548 6.21744 14.9558Z" fill="#2F1793"/>
<path d="M20.8282 12.5C21.3888 12.5 21.9493 12.5 22.504 12.5C22.9155 12.5 23.0944 12.6729 23.1003 13.0725C23.1063 13.8359 23.1063 14.5992 23.1003 15.3625C23.0944 15.7442 22.9155 15.9291 22.5397 15.9291C21.4067 15.935 20.2736 15.935 19.1405 15.9291C18.7469 15.9291 18.5739 15.7502 18.5739 15.3506C18.568 14.5932 18.5739 13.8418 18.5739 13.0844C18.5739 12.661 18.7409 12.5 19.1763 12.5C19.7249 12.5 20.2795 12.5 20.8282 12.5ZM19.5341 14.963C20.4048 14.963 21.2635 14.963 22.1342 14.963C22.1342 14.4561 22.1342 13.967 22.1342 13.4661C21.2635 13.4661 20.4048 13.4661 19.5341 13.4661C19.5341 13.973 19.5341 14.462 19.5341 14.963Z" fill="#2F1793"/>
<path d="M14.1731 13.9776C13.4635 13.9776 12.7478 13.9776 12.0382 13.9776C11.9249 13.9776 11.8056 13.9657 11.6982 13.9299C11.5193 13.8703 11.3822 13.6496 11.406 13.4647C11.4299 13.2501 11.5491 13.101 11.7579 13.0413C11.8056 13.0294 11.8593 13.0234 11.907 13.0234C13.4158 13.0234 14.9246 13.0234 16.4393 13.0234C16.7077 13.0234 16.8687 13.1487 16.9343 13.3693C17.0059 13.6317 16.8568 13.8882 16.5884 13.9478C16.4989 13.9657 16.4035 13.9717 16.3081 13.9776C15.5925 13.9776 14.8828 13.9776 14.1731 13.9776Z" fill="#2F1793"/>
<path d="M14.1913 14.5006C14.9308 14.5006 15.6703 14.4947 16.4157 14.5006C16.8093 14.5066 17.0538 14.7928 16.9167 15.1149C16.863 15.2401 16.7139 15.3415 16.5827 15.419C16.5111 15.4608 16.3978 15.4488 16.3084 15.4488C14.895 15.4488 13.4757 15.4488 12.0623 15.4488C11.6329 15.4488 11.3824 15.2699 11.4003 14.9598C11.4182 14.7213 11.5434 14.4768 12.0563 14.4887C12.7719 14.5126 13.4816 14.5006 14.1913 14.5006Z" fill="#2F1793"/>
</svg>
