<svg width="33" height="32" viewBox="0 0 33 32" fill="none" xmlns="http://www.w3.org/2000/svg">
<path d="M29.9396 28.3079C29.9396 28.8703 29.9396 29.2921 29.9396 29.8544C20.9127 29.8544 12.0269 29.8544 3 29.8544C3 29.2921 3 28.8703 3 28.3079C3.84627 28.3079 4.83358 28.3079 5.67985 28.3079C5.67985 28.1673 5.67985 28.0267 5.67985 27.8861C5.67985 22.9653 5.67985 18.1851 5.67985 13.2643C5.67985 11.8583 5.67985 10.3118 5.67985 8.90583C5.67985 8.76523 5.67985 8.62464 5.96194 8.62464C8.78284 8.20285 11.6037 7.64047 14.2836 7.21869C14.8478 7.07809 15.2709 7.07809 15.694 6.9375C15.694 14.1078 15.694 21.1376 15.694 28.1673C16.2582 28.1673 16.6813 28.1673 17.2455 28.1673C17.2455 22.2623 17.2455 16.4979 17.2455 10.593C20.6306 10.593 23.8746 10.593 27.1187 10.593C27.1187 16.4979 27.1187 22.2623 27.1187 28.1673C28.247 28.3079 29.0933 28.3079 29.9396 28.3079ZM11.8858 26.0584C11.8858 26.7614 11.8858 27.6049 11.8858 28.3079C12.45 28.3079 12.8731 28.3079 13.4373 28.3079C13.4373 27.0425 13.4373 25.7772 13.4373 24.5118C11.6037 24.5118 9.9112 24.5118 8.07761 24.5118C8.07761 25.7772 8.07761 27.0425 8.07761 28.3079C8.64179 28.3079 9.06493 28.3079 9.62911 28.3079C9.62911 27.6049 9.62911 26.7614 9.62911 26.0584C10.4754 26.0584 11.1806 26.0584 11.8858 26.0584ZM13.5784 9.18702C13.0142 9.18702 12.45 9.18702 11.8858 9.18702C11.8858 9.74939 11.8858 10.1712 11.8858 10.7336C12.45 10.7336 13.0142 10.7336 13.5784 10.7336C13.5784 10.1712 13.5784 9.6088 13.5784 9.18702ZM13.5784 22.1217C13.5784 21.5593 13.5784 21.1376 13.5784 20.5752C13.0142 20.5752 12.45 20.5752 11.8858 20.5752C11.8858 21.1376 11.8858 21.5593 11.8858 22.1217C12.45 22.1217 13.0142 22.1217 13.5784 22.1217ZM21.1948 22.1217C21.1948 21.5593 21.1948 21.1376 21.1948 20.5752C20.6306 20.5752 20.0664 20.5752 19.5022 20.5752C19.5022 21.1376 19.5022 21.5593 19.5022 22.1217C20.0664 22.1217 20.6306 22.1217 21.1948 22.1217ZM21.1948 24.5118C20.6306 24.5118 20.0664 24.5118 19.5022 24.5118C19.5022 25.0742 19.5022 25.496 19.5022 26.0584C20.0664 26.0584 20.6306 26.0584 21.1948 26.0584C21.1948 25.496 21.1948 24.9336 21.1948 24.5118ZM23.4515 25.9178C24.0157 25.9178 24.5799 25.9178 25.144 25.9178C25.144 25.3554 25.144 24.9336 25.144 24.3712C24.5799 24.3712 24.0157 24.3712 23.4515 24.3712C23.4515 24.9336 23.4515 25.496 23.4515 25.9178ZM9.62911 12.9831C9.06493 12.9831 8.50075 12.9831 7.93657 12.9831C7.93657 13.5455 7.93657 13.9672 7.93657 14.5296C8.50075 14.5296 9.06493 14.5296 9.62911 14.5296C9.62911 13.9672 9.62911 13.5455 9.62911 12.9831ZM11.8858 14.5296C12.45 14.5296 13.0142 14.5296 13.5784 14.5296C13.5784 13.9672 13.5784 13.5455 13.5784 12.9831C13.0142 12.9831 12.45 12.9831 11.8858 12.9831C11.8858 13.5455 11.8858 13.9672 11.8858 14.5296ZM19.5022 12.9831C19.5022 13.5455 19.5022 13.9672 19.5022 14.5296C20.0664 14.5296 20.6306 14.5296 21.1948 14.5296C21.1948 13.9672 21.1948 13.5455 21.1948 12.9831C20.6306 12.9831 20.0664 12.9831 19.5022 12.9831ZM23.4515 12.9831C23.4515 13.5455 23.4515 13.9672 23.4515 14.5296C24.0157 14.5296 24.5799 14.5296 25.144 14.5296C25.144 13.9672 25.144 13.5455 25.144 12.9831C24.4388 12.9831 24.0157 12.9831 23.4515 12.9831ZM9.62911 16.7791C9.06493 16.7791 8.50075 16.7791 7.93657 16.7791C7.93657 17.3415 7.93657 17.7633 7.93657 18.3257C8.50075 18.3257 8.92388 18.3257 9.48806 18.3257L9.62911 18.1851C9.77015 17.7633 9.62911 17.3415 9.62911 16.7791ZM13.5784 18.3257C13.5784 17.7633 13.5784 17.3415 13.5784 16.7791C13.0142 16.7791 12.45 16.7791 11.8858 16.7791C11.8858 17.3415 11.8858 17.7633 11.8858 18.3257C12.45 18.3257 13.0142 18.3257 13.5784 18.3257ZM21.1948 16.7791C20.6306 16.7791 20.0664 16.7791 19.5022 16.7791C19.5022 17.3415 19.5022 17.7633 19.5022 18.3257C20.0664 18.3257 20.6306 18.3257 21.1948 18.3257C21.1948 17.7633 21.1948 17.3415 21.1948 16.7791ZM25.003 16.7791C24.4388 16.7791 23.8746 16.7791 23.3105 16.7791C23.3105 17.3415 23.3105 17.7633 23.3105 18.3257C23.8746 18.3257 24.4388 18.3257 25.003 18.3257C25.003 17.7633 25.003 17.3415 25.003 16.7791ZM8.07761 22.1217C8.64179 22.1217 9.20597 22.1217 9.77015 22.1217C9.77015 21.5593 9.77015 21.1376 9.77015 20.5752C9.20597 20.5752 8.64179 20.5752 8.07761 20.5752C8.07761 21.1376 8.07761 21.6999 8.07761 22.1217ZM25.003 20.5752C24.4388 20.5752 23.8746 20.5752 23.3105 20.5752C23.3105 21.1376 23.3105 21.5593 23.3105 22.1217C23.8746 22.1217 24.4388 22.1217 25.003 22.1217C25.003 21.6999 25.003 21.1376 25.003 20.5752Z" fill="#9B9B9B"/>
<path d="M13.8603 3C13.8603 3.84357 13.8603 4.68714 13.8603 5.5307L13.7192 5.6713C12.4498 5.95249 11.3215 6.09308 10.1931 6.37427C9.34683 6.51487 8.64161 6.65546 7.6543 6.79606C7.6543 5.5307 7.6543 4.26535 7.6543 3.14059C9.76997 3 11.7446 3 13.8603 3Z" fill="#9B9B9B"/>
</svg>
