<svg width="30" height="31" viewBox="0 0 30 31" fill="none" xmlns="http://www.w3.org/2000/svg">
<path d="M4 17.5768C6.49057 17.5768 8.98113 17.5768 11.4717 17.5768H11.5849C11.5849 16.5627 11.5849 15.436 11.5849 14.4219C13.0566 15.774 14.4151 17.2388 15.8868 18.5909C14.4151 19.943 12.9434 21.4078 11.5849 22.7599C11.5849 21.7458 11.5849 20.7317 11.5849 19.605C11.4717 19.605 11.3585 19.605 11.2453 19.605C8.86792 19.605 6.60377 19.605 4.22641 19.605C4.11321 19.605 4 19.605 4 19.605C4 18.9289 4 18.2529 4 17.5768Z" fill="#20DEC2"/>
<path d="M18.0382 8C18.0382 9.01408 18.0382 10.0282 18.0382 11.1549C20.5288 11.1549 23.1326 11.1549 25.6231 11.1549C25.6231 11.831 25.6231 12.6197 25.6231 13.2958C23.1326 13.2958 20.642 13.2958 18.0382 13.2958C18.0382 14.4225 18.0382 15.4366 18.0382 16.4507C16.5665 14.9859 15.208 13.6338 13.7363 12.2817C15.0948 10.8169 16.5665 9.35211 18.0382 8Z" fill="#20DEC2"/>
</svg>
