<svg width="52" height="49" viewBox="0 0 52 49" fill="none" xmlns="http://www.w3.org/2000/svg">
<path d="M48.0156 35.998C47.6608 36.7538 47.0457 36.99 46.2415 36.9664C44.6802 36.9192 43.1427 36.9664 41.5815 36.9428C41.1793 36.9428 40.8955 37.0373 40.5879 37.2971C37.7966 39.6355 35.0053 41.9739 32.214 44.3122C30.4399 45.8003 27.9324 45.1153 27.3174 42.9659C27.0572 42.0447 27.2464 41.218 27.6959 40.3677C27.2228 40.7692 26.726 41.1708 26.2529 41.5723C24.8809 42.6824 22.9648 42.4462 21.9477 41.0527C21.2144 40.0606 21.1907 38.7143 21.8767 37.675C21.9477 37.5805 22.0187 37.4624 22.1133 37.3443C20.3155 37.9821 19.0854 37.7459 18.1865 36.5649C17.3586 35.4784 17.3822 34.1557 18.3284 32.7857C18.1629 32.8566 18.0446 32.9038 17.9499 32.951C16.6016 33.5415 15.0403 33.0692 14.2361 31.841C13.4555 30.6127 13.6447 29.0302 14.7565 28.0618C16.1521 26.8336 17.5951 25.6525 19.0381 24.4715C19.1563 24.3771 19.3456 24.3298 19.5112 24.3298C22.2315 24.3298 24.9282 24.3298 27.6486 24.3298C27.8378 24.3298 28.0743 24.4479 28.2163 24.566C29.2334 25.5581 30.2506 26.5973 31.2678 27.5894C32.8764 29.1719 34.8161 29.6679 36.9687 29.0066C39.074 28.3452 40.3514 26.8808 40.8008 24.7078C41.132 23.1252 40.7535 21.6608 39.7837 20.2672C39.9966 20.2672 40.1385 20.2672 40.2804 20.2672C42.2911 20.2672 44.3254 20.2909 46.3361 20.2436C47.1404 20.22 47.7318 20.4798 48.063 21.2356C48.0157 26.1722 48.0156 31.0851 48.0156 35.998Z" fill="#2F1793"/>
<path d="M3.02368 18.544C3.35485 17.8118 3.94625 17.552 4.75053 17.552C7.96763 17.5756 11.1611 17.552 14.3782 17.5756C14.662 17.5756 14.8749 17.5048 15.0641 17.2922C16.6254 15.6624 18.5414 14.9066 20.8123 14.9302C23.3198 14.9538 25.8509 14.9538 28.3583 14.9302C29.8722 14.9302 31.1733 15.4262 32.2378 16.4891C33.941 18.1661 35.6678 19.8668 37.3236 21.5674C38.9795 23.268 38.2226 26.0315 35.9517 26.5511C34.8399 26.8109 33.8463 26.5039 33.0184 25.6772C31.8829 24.5435 30.7238 23.4097 29.612 22.2523C29.2099 21.8271 28.7605 21.6618 28.1691 21.6618C25.0703 21.6854 21.9714 21.6618 18.849 21.6855C18.6361 21.6855 18.3522 21.7799 18.1866 21.9217C16.6254 23.1971 15.0878 24.4962 13.5266 25.7953C10.1912 28.5824 10.9955 33.7079 15.0168 35.3613C15.1351 35.4086 15.2771 35.503 15.3244 35.6211C15.5609 36.3061 15.7974 36.991 16.0103 37.676C15.1351 37.7705 14.3072 37.7233 13.6212 36.9438C12.8642 36.0699 11.989 35.2668 11.1374 34.4638C10.9954 34.322 10.7353 34.2276 10.5224 34.2276C8.60632 34.2039 6.6902 34.1803 4.77414 34.2276C3.96986 34.2512 3.35483 34.015 3 33.2591C3.02366 28.3698 3.02368 23.457 3.02368 18.544Z" fill="#2F1793"/>
<path d="M16.0334 6.07031C16.1989 6.16479 16.5538 6.25925 16.7903 6.49545C17.9494 7.6292 19.1085 8.76291 20.244 9.92028C20.8117 10.4872 20.8117 11.2666 20.2913 11.8099C19.7709 12.3532 18.9429 12.3531 18.3752 11.7863C17.2161 10.6525 16.0807 9.49516 14.9452 8.33779C14.5195 7.91264 14.4248 7.36937 14.6614 6.84973C14.8979 6.35372 15.3001 6.09393 16.0334 6.07031Z" fill="#2F1793"/>
<path d="M36.59 7.41578C36.4245 7.72283 36.3062 8.07717 36.0696 8.33698C34.9342 9.49435 33.7987 10.6517 32.6396 11.7855C32.0719 12.3523 31.2913 12.3524 30.7472 11.8327C30.2032 11.3131 30.2268 10.4863 30.7945 9.91947C31.93 8.7621 33.0891 7.62837 34.2245 6.471C34.6267 6.06946 35.1471 5.97497 35.6675 6.16393C36.1879 6.35289 36.4954 6.8489 36.59 7.41578Z" fill="#2F1793"/>
<path d="M26.8445 6.5194C26.8445 7.20437 26.8445 7.88933 26.8445 8.57431C26.8445 9.401 26.3004 9.96787 25.5434 9.96787C24.7865 9.96787 24.2188 9.401 24.2188 8.57431C24.2188 7.18074 24.2188 5.76356 24.2188 4.36999C24.2188 3.56692 24.7865 3 25.5434 3C26.2767 3 26.8445 3.56692 26.8445 4.36999C26.8445 5.07858 26.8445 5.78718 26.8445 6.5194Z" fill="#2F1793"/>
</svg>
