<svg width="66" height="54" viewBox="0 0 66 54" fill="none" xmlns="http://www.w3.org/2000/svg">
<path d="M11 36.5341C11.0938 36.0893 11.1641 35.6679 11.2813 35.2231C11.9379 32.6478 13.3915 30.6345 15.6424 29.2064C18.4091 27.4505 21.3868 26.1863 24.5756 25.4605C24.81 25.4137 25.1383 25.4605 25.3493 25.5775C29.3118 27.825 33.2978 27.8017 37.3071 25.6712C37.7995 25.4137 38.245 25.32 38.7608 25.4839C39.9097 25.8584 41.0586 26.1862 42.2075 26.5842C37.0961 28.0357 33.7432 31.2432 32.7115 36.4405C31.6564 41.6613 33.626 45.8754 37.8464 49.2233C36.6975 49.3169 35.6658 49.3871 34.6342 49.4808C34.3059 49.5042 33.9777 49.551 33.6495 49.5744C32.2427 49.5744 30.8124 49.5744 29.4056 49.5744C29.2181 49.551 29.0539 49.5042 28.8663 49.4808C23.5674 49.2232 18.4326 48.1931 13.415 46.5075C12.2192 46.1095 11.3517 45.4774 11 44.2366C11 41.6613 11 39.1094 11 36.5341Z" fill="#2F1793"/>
<path d="M32.5476 5C33.3448 5.18729 34.1889 5.32776 34.9626 5.58529C39.0658 6.98999 41.809 10.8997 41.809 15.2543C41.809 19.4918 39.0188 23.3548 34.9391 24.8063C27.9989 27.2645 20.9649 22.0437 21.2932 14.6924C21.5042 9.82283 25.3495 5.67896 30.1795 5.09367C30.2967 5.07025 30.4139 5.02341 30.5312 5C31.2111 5 31.8676 5 32.5476 5Z" fill="#2F1793"/>
<path d="M44.036 49.434C42.934 49.3637 41.832 49.1062 40.73 48.6614C36.5565 46.9992 33.7898 42.4105 34.2353 37.9857C34.7277 33.1863 38.1978 29.2765 42.7699 28.4103C48.3502 27.3568 54.2587 31.1495 55.4545 36.7215C56.7206 42.551 52.2657 48.4272 46.4979 49.3403C45.7007 49.4808 44.8801 49.5042 44.036 49.434ZM46.1462 38.8285C46.3806 38.6412 46.5682 38.5241 46.7323 38.3602C47.764 37.3301 48.7956 36.3234 49.8038 35.2933C50.3431 34.7549 50.39 34.2398 49.968 33.8418C49.5694 33.4438 49.0535 33.5141 48.5377 34.0057C48.3736 34.1696 48.186 34.3569 48.0219 34.5208C46.9902 35.5509 45.9821 36.5576 44.927 37.6111C44.7629 37.4472 44.6222 37.3301 44.4815 37.2131C43.4498 36.183 42.3947 35.1295 41.363 34.0994C40.7769 33.5141 40.2845 33.4438 39.8625 33.8418C39.417 34.2632 39.5108 34.7783 40.1204 35.3636C40.9176 36.1595 41.6913 36.9322 42.4885 37.7281C42.8637 38.1027 43.2623 38.4773 43.7546 38.9455C43.4967 39.1328 43.3092 39.2265 43.1685 39.367C42.0899 40.4439 41.0114 41.4975 39.9328 42.5978C39.4405 43.1129 39.5108 43.8386 40.097 44.0961C40.5425 44.3068 40.9176 44.1664 41.2458 43.8152C42.3244 42.7148 43.4264 41.6379 44.5284 40.5376C44.6456 40.4205 44.7862 40.3034 44.9504 40.1395C45.9351 41.1228 46.8496 42.0593 47.7875 42.9958C48.0923 43.3235 48.3971 43.6513 48.7488 43.9322C49.1239 44.26 49.6397 44.2366 49.968 43.9322C50.3197 43.6044 50.3432 43.0894 49.9915 42.668C49.8742 42.5276 49.7335 42.4105 49.5928 42.27C48.4908 41.1462 47.3654 40.0459 46.1462 38.8285Z" fill="#2F1793"/>
</svg>
