<svg width="52" height="49" viewBox="0 0 52 49" fill="none" xmlns="http://www.w3.org/2000/svg">
<path d="M15.1406 45.1692C14.4131 44.8282 14.2085 44.2599 14.2085 43.4642C14.2312 37.4396 14.2313 31.415 14.2313 25.3904C14.2313 25.2313 14.2313 25.0493 14.2313 24.9811C15.3907 24.7765 16.5047 24.5719 17.6186 24.3446C18.0506 24.2536 18.4825 24.0945 18.8918 23.9126C19.4374 23.6398 19.983 23.5944 20.5514 23.5944C25.5984 23.6171 30.6454 23.5944 35.6925 23.5944C36.7155 23.5944 37.352 22.7077 36.9883 21.8438C36.7382 21.2754 36.2608 21.0708 35.6697 21.0708C31.7139 21.0708 27.7809 21.0708 23.8251 21.0708C23.666 21.0708 23.4841 21.0708 23.234 21.0708C24.9846 19.2293 26.144 17.1833 26.6442 14.7734C30.9864 14.7734 35.2832 14.7734 39.6255 14.7734C39.6255 14.9553 39.6255 15.1145 39.6255 15.2964C39.6255 24.6856 39.6255 34.0976 39.6482 43.4869C39.6482 44.2599 39.4436 44.851 38.7161 45.192C30.8273 45.1692 22.984 45.1692 15.1406 45.1692ZM28.2129 26.1178C25.6893 26.1178 23.1885 26.1178 20.665 26.1178C20.0739 26.1178 19.6192 26.3452 19.3692 26.8908C18.9827 27.7547 19.6193 28.6413 20.6424 28.6641C23.4614 28.6641 26.2805 28.6641 29.0995 28.6641C31.282 28.6641 33.4872 28.6641 35.6697 28.6641C36.2153 28.6641 36.6473 28.4595 36.8974 27.9593C37.3293 27.0954 36.7155 26.1406 35.6925 26.1406C33.2144 26.1179 30.7136 26.1178 28.2129 26.1178ZM28.1674 31.1876C25.6666 31.1876 23.1658 31.1876 20.665 31.1876C20.0739 31.1876 19.6192 31.415 19.3692 31.9606C18.9827 32.8245 19.6193 33.7339 20.6424 33.7339C23.3705 33.7339 26.1213 33.7339 28.8494 33.7339C31.1228 33.7339 33.3963 33.7339 35.6697 33.7339C36.2153 33.7339 36.6473 33.5293 36.8974 33.0291C37.3293 32.1652 36.7155 31.2104 35.6925 31.2104C33.1917 31.1876 30.6909 31.1876 28.1674 31.1876ZM28.2129 36.2347C25.6893 36.2347 23.1885 36.2347 20.665 36.2347C20.0739 36.2347 19.6192 36.462 19.3692 37.0076C18.9827 37.8488 19.6193 38.7809 20.5968 38.7809C23.0976 38.7809 25.5984 38.7809 28.0992 38.7809C30.6227 38.7809 33.1462 38.7809 35.6697 38.7809C36.2381 38.7809 36.6927 38.5536 36.9201 38.0307C37.3293 37.1668 36.6928 36.2574 35.6925 36.2574C33.2144 36.2347 30.7136 36.2347 28.2129 36.2347Z" fill="#2F1793"/>
<path d="M15.1398 2.02269C15.8673 2.18183 16.5948 2.2955 17.2996 2.52285C21.6873 3.93237 24.5746 8.20647 24.3245 12.7988C24.0517 17.3911 20.7325 21.2105 16.2083 22.1426C14.2986 22.5291 12.4344 22.3699 10.6157 21.6652C10.3202 21.5515 10.0701 21.5515 9.77454 21.6652C9.31985 21.8698 8.86515 22.0289 8.41047 22.2108C7.93304 22.4154 7.47837 22.37 7.06915 22.0289C6.65993 21.6879 6.50074 21.2332 6.65988 20.7331C6.95542 19.7328 6.77357 18.9598 6.04608 18.1186C4.88662 16.7773 4.29554 15.1404 4.0682 13.3672C4.04547 13.2535 4.02273 13.1625 4 13.0488C4 12.4578 4 11.8667 4 11.2756C4.02273 11.1846 4.0682 11.0937 4.0682 11.0028C4.56836 6.75145 7.81934 3.18215 12.0025 2.25004C12.4344 2.15911 12.8436 2.09094 13.2756 2C13.9121 2.02273 14.526 2.02269 15.1398 2.02269ZM10.4338 12.2304C10.4338 11.5484 9.86545 10.9801 9.18342 10.9573C8.50139 10.9573 7.91031 11.5029 7.91031 12.1849C7.88757 12.8897 8.47866 13.4808 9.18342 13.4808C9.84272 13.4808 10.411 12.9125 10.4338 12.2304ZM15.4808 12.2304C15.4808 11.5484 14.9125 10.9801 14.2304 10.9573C13.5484 10.9573 12.9573 11.5029 12.9573 12.1849C12.9346 12.8897 13.5257 13.4808 14.2304 13.4808C14.9125 13.4808 15.4808 12.9125 15.4808 12.2304ZM20.5278 12.2304C20.5278 11.5484 19.9822 10.9573 19.3002 10.9573C18.6181 10.9346 18.0271 11.5029 18.0044 12.1849C17.9816 12.8897 18.5727 13.4808 19.2547 13.4808C19.9595 13.4808 20.5278 12.9125 20.5278 12.2304Z" fill="#2F1793"/>
<path d="M47.1727 41.715C46.8316 42.4425 46.2633 42.6926 45.4676 42.6471C44.3763 42.6016 43.2851 42.6243 42.1256 42.6243C42.1256 32.4848 42.1256 22.3681 42.1256 12.2285C41.9892 12.2058 41.8755 12.2058 41.7619 12.183C40.466 11.9784 39.5566 10.9327 39.5566 9.65956C39.5566 8.43191 40.4888 7.31795 41.7846 7.20428C42.5803 7.11335 43.4215 7.1133 44.2172 7.29517C45.7404 7.61345 46.6725 8.6365 47.059 10.137C47.0817 10.2506 47.1272 10.3416 47.1499 10.4553C47.1726 20.8676 47.1727 31.3027 47.1727 41.715Z" fill="#2F1793"/>
<path d="M26.8703 12.2046C26.8475 10.4541 26.5065 8.81726 25.8018 7.20312C29.803 7.20312 33.736 7.20312 37.7373 7.20312C37.3281 7.99883 37.078 8.79452 37.078 9.68116C37.078 10.5678 37.3281 11.3862 37.7373 12.2046C34.0771 12.2046 30.5078 12.2046 26.8703 12.2046Z" fill="#2F1793"/>
</svg>
