<svg width="52" height="49" viewBox="0 0 52 49" fill="none" xmlns="http://www.w3.org/2000/svg">
<path d="M25.6972 2C26.7074 2.65 27.7174 3.32243 28.7276 3.97244C28.8174 4.03968 28.9745 4.01729 29.0867 3.99487C30.1193 3.8828 31.1519 3.74829 32.1845 3.61381C32.4539 3.56898 32.5885 3.65862 32.7232 3.88276C33.2395 4.75691 33.8007 5.6535 34.3394 6.50523C34.4517 6.66212 34.6313 6.81898 34.8109 6.88622C35.7986 7.24485 36.7862 7.58108 37.7739 7.89488C38.0208 7.96212 38.1106 8.0742 38.1331 8.32075C38.2229 9.39662 38.3351 10.4501 38.4698 11.5259C38.4922 11.6828 38.6045 11.8622 38.7167 11.9742C39.4575 12.7139 40.1983 13.4535 40.9615 14.1708C41.1411 14.3501 41.1635 14.4846 41.0737 14.7087C40.7145 15.6725 40.3554 16.6364 40.0187 17.6002C39.9513 17.8019 39.9513 18.0708 40.0187 18.2725C40.3554 19.2363 40.6921 20.2002 41.0737 21.164C41.1635 21.3881 41.1411 21.545 40.9615 21.7019C40.1983 22.4191 39.4575 23.1588 38.7392 23.8985C38.6045 24.033 38.5147 24.2571 38.4698 24.4364C38.3351 25.4898 38.2454 26.5433 38.1107 27.5968C38.0882 27.7312 37.9086 27.9329 37.7739 27.9778C36.7862 28.3364 35.7986 28.6502 34.8109 29.0089C34.6313 29.0761 34.4517 29.2105 34.3394 29.3898C33.8007 30.2416 33.262 31.1157 32.7457 31.9899C32.611 32.2364 32.4763 32.3485 32.1396 32.3037C31.1295 32.1468 30.1193 32.0347 29.1092 31.9451C28.8847 31.9227 28.6378 31.9898 28.4357 32.1019C27.5603 32.6399 26.6849 33.2002 25.8319 33.7606C25.6299 33.8951 25.4951 33.8951 25.2931 33.7606C24.4401 33.2002 23.5646 32.6399 22.6892 32.1019C22.5096 31.9898 22.2403 31.9227 22.0158 31.9451C20.9832 32.0347 19.9731 32.1692 18.9405 32.3037C18.6487 32.3485 18.5365 32.2588 18.4018 32.0347C17.8855 31.1829 17.3691 30.3313 16.808 29.4795C16.6733 29.2778 16.4488 29.0761 16.2244 29.0089C15.2816 28.6502 14.3387 28.3364 13.3735 28.045C13.0817 27.9553 12.9919 27.7985 12.9695 27.5071C12.8797 26.476 12.7674 25.4226 12.6328 24.3916C12.6103 24.2347 12.498 24.0553 12.3858 23.9433C11.645 23.2036 10.9043 22.4639 10.1635 21.7467C9.98394 21.5674 9.96152 21.4329 10.0513 21.2088C10.4105 20.245 10.7696 19.2588 11.1063 18.2725C11.1737 18.0932 11.1737 17.8467 11.1063 17.6674C10.7696 16.6812 10.4105 15.6949 10.0513 14.7311C9.96152 14.507 9.98394 14.3501 10.1635 14.1932C10.9043 13.4984 11.6226 12.7812 12.3409 12.0639C12.4981 11.907 12.6327 11.638 12.6552 11.4139C12.7898 10.3828 12.9021 9.35177 12.9919 8.29831C13.0144 8.05176 13.1491 7.98456 13.3511 7.91732C14.3163 7.60352 15.2816 7.26731 16.2244 6.9311C16.4488 6.84144 16.6733 6.66215 16.808 6.46042C17.3467 5.63111 17.863 4.80173 18.3568 3.95C18.514 3.70345 18.6711 3.59142 18.963 3.63624C19.9507 3.77073 20.9608 3.90522 21.9485 3.99487C22.1729 4.01729 22.4198 3.97247 22.6218 3.8604C23.5422 3.30005 24.4401 2.71724 25.338 2.13448C25.3829 2.11206 25.4054 2.04485 25.4503 2.02244C25.5849 2.00002 25.6299 2 25.6972 2ZM14.653 17.9812C14.653 24.0329 19.5466 28.9192 25.6074 28.9192C31.6682 28.9192 36.5842 24.0105 36.5618 17.9812C36.5618 11.9294 31.6458 7.02077 25.6074 7.02077C19.569 7.02077 14.653 11.9294 14.653 17.9812Z" fill="#2F1793"/>
<path d="M21.7912 45.3498C20.2199 44.0946 18.6485 42.817 17.0772 41.5619C16.9425 41.4498 16.6732 41.4723 16.4712 41.4723C14.7427 41.5619 13.0142 41.674 11.2633 41.7636C11.1062 41.7636 10.9491 41.7636 10.7246 41.7636C11.8694 38.155 13.0143 34.5912 14.1591 31.0273C14.6529 31.117 15.0121 31.2739 15.259 31.7222C15.8426 32.7532 16.5161 33.7618 17.1222 34.7929C17.2568 35.017 17.3915 35.0842 17.6609 35.0618C18.8955 34.8825 20.1526 34.7481 21.4096 34.6136C21.6341 34.5912 21.9259 34.6584 22.1055 34.7704C22.8463 35.2187 23.587 35.7119 24.3278 36.1602C24.5972 36.3171 24.6421 36.4515 24.5523 36.7653C23.6768 39.4774 22.8014 42.1671 21.9484 44.8791C21.9035 45.0136 21.881 45.1706 21.8585 45.3275C21.8585 45.3499 21.8137 45.3498 21.7912 45.3498Z" fill="#2F1793"/>
<path d="M29.3334 45.3498C29.0191 44.2964 28.6824 43.2205 28.3457 42.1671C27.7845 40.374 27.2009 38.5809 26.6172 36.7877C26.5274 36.474 26.5723 36.3394 26.8417 36.1825C27.56 35.7342 28.2784 35.286 28.9742 34.8153C29.2436 34.636 29.5129 34.5688 29.8497 34.6136C31.0618 34.7705 32.2965 34.9049 33.5086 35.0618C33.778 35.1067 33.9126 35.017 34.0473 34.7929C34.6759 33.7618 35.3269 32.7756 35.9105 31.7222C36.1574 31.2739 36.539 31.117 37.0104 31.0273C38.1552 34.5912 39.3001 38.155 40.4674 41.786C39.6817 41.7412 38.9634 41.7188 38.2451 41.674C37.0105 41.6067 35.7983 41.5395 34.5636 41.4723C34.429 41.4723 34.2269 41.4722 34.1371 41.5619C32.5658 42.817 30.9945 44.0722 29.4232 45.3498C29.4007 45.3498 29.3559 45.3498 29.3334 45.3498Z" fill="#2F1793"/>
<path d="M17.1899 18.0058C17.1899 13.3661 20.9611 9.57812 25.6078 9.57812C30.2319 9.57812 34.0031 13.3437 34.0256 17.9834C34.048 22.623 30.2768 26.3886 25.6526 26.411C20.9835 26.411 17.2124 22.6455 17.1899 18.0058Z" fill="#2F1793"/>
</svg>
