<svg width="30" height="31" viewBox="0 0 30 31" fill="none" xmlns="http://www.w3.org/2000/svg">
<path d="M14.8798 21.9873C11.1838 21.9873 7.47543 21.9873 3.77945 21.9873C3.08256 21.9873 3.0079 21.9129 3.0079 21.2317C3.0079 21.0954 3.0079 20.9716 3.0079 20.8354C3.02035 20.5381 2.94565 20.1789 3.09498 19.9807C3.21943 19.7949 3.59278 19.7578 3.85411 19.6711C4.60077 19.4358 5.04878 18.7669 4.98655 17.9742C4.92433 17.2558 4.31456 16.6489 3.55546 16.587C3.15724 16.5498 2.99546 16.3764 3.0079 15.9925C3.02035 15.5713 3.02035 15.1378 3.0079 14.7043C2.99546 14.2584 3.20699 14.0974 3.64254 14.0974C4.8372 14.1098 6.01945 14.1098 7.21411 14.085C7.45055 14.085 7.73676 13.9735 7.89854 13.8249C9.75275 12.128 11.607 10.4064 13.4363 8.67235C13.5856 8.5361 13.6852 8.30078 13.7225 8.1026C13.8345 7.47092 14.3323 6.98785 14.9172 7.00023C15.5145 7.00023 15.9998 7.48328 16.1118 8.11496C16.1492 8.31314 16.2487 8.5485 16.398 8.68474C18.2398 10.4188 20.0816 12.128 21.9358 13.8373C22.0976 13.9859 22.3589 14.085 22.5705 14.0974C23.7651 14.1222 24.9474 14.1098 26.142 14.1098C26.702 14.1098 26.8016 14.2212 26.814 14.7662C26.814 15.1502 26.814 15.5218 26.814 15.9057C26.8265 16.2649 26.6771 16.4383 26.3038 16.4879C25.4202 16.5746 24.8353 17.2187 24.8353 18.0485C24.8353 18.9032 25.4078 19.5348 26.3287 19.6463C26.6771 19.6834 26.8264 19.8569 26.8264 20.1913C26.8264 20.5381 26.8264 20.8849 26.8264 21.2317C26.8264 21.9625 26.7642 22.0244 26.0424 22.0244C23.4042 22.0244 20.7536 22.0244 18.1154 22.0244C17.0203 21.9873 15.95 21.9873 14.8798 21.9873ZM8.78208 14.0602C12.9136 14.0602 16.9207 14.0602 21.0274 14.0602C19.198 12.351 17.4309 10.7036 15.6638 9.05631C15.1287 9.46504 14.6185 9.37833 14.1207 9.08107C12.3536 10.7284 10.6114 12.3634 8.78208 14.0602ZM16.0994 17.5035C16.1367 17.5035 16.1616 17.4911 16.199 17.4911C16.2612 17.5655 16.3234 17.6522 16.3732 17.7265C16.9456 18.5316 17.4932 19.3491 18.0905 20.1418C18.19 20.278 18.4514 20.3895 18.6131 20.3523C18.7251 20.3275 18.862 20.055 18.862 19.894C18.8869 18.6554 18.8745 17.4292 18.8745 16.1906C18.8745 15.9181 18.8123 15.6828 18.4887 15.6704C18.1403 15.658 18.078 15.9181 18.078 16.2154C18.0905 16.8718 18.078 17.5283 18.078 18.1848C18.078 18.3086 18.0656 18.4449 18.0407 18.6802C17.3563 17.7017 16.7465 16.8223 16.1118 15.9677C15.9998 15.819 15.7385 15.7819 15.5518 15.6828C15.4647 15.8562 15.3154 16.042 15.3154 16.2154C15.2905 17.4168 15.303 18.6183 15.303 19.8197C15.303 20.1046 15.3278 20.3771 15.6887 20.3895C16.0745 20.4018 16.0994 20.1046 16.0994 19.795C16.0994 19.0394 16.0994 18.2715 16.0994 17.5035ZM9.36696 18.3334C9.46652 18.2591 9.52873 18.2095 9.59095 18.16C10.1136 17.7141 10.2754 17.1567 10.0638 16.5746C9.83985 15.9801 9.36698 15.6704 8.68254 15.6704C8.28432 15.6704 7.88611 15.6828 7.48789 15.6704C7.10211 15.658 6.96521 15.8438 6.96521 16.203C6.97765 17.4292 6.96521 18.6678 6.96521 19.894C6.96521 20.1789 7.0523 20.4018 7.37586 20.3895C7.69941 20.3771 7.77407 20.1541 7.76163 19.8816C7.74918 19.411 7.76163 18.9403 7.76163 18.482C8.27185 18.3334 8.58298 18.4449 8.7572 18.9279C8.89409 19.2995 9.10562 19.6339 9.27985 19.9807C9.41673 20.2408 9.56608 20.5133 9.91452 20.3523C10.2505 20.1913 10.1634 19.9064 10.0265 19.6339C9.80252 19.2252 9.60341 18.7917 9.36696 18.3334ZM12.167 19.6091C12.167 19.2128 12.167 18.8412 12.167 18.4201C12.6398 18.4201 13.1003 18.4201 13.5607 18.4201C13.8594 18.4201 14.1083 18.3582 14.0959 18.0114C14.0834 17.6893 13.847 17.6274 13.5732 17.6274C13.1003 17.6398 12.6274 17.6274 12.1545 17.6274C12.1545 17.2063 12.1545 16.8347 12.1545 16.4383C12.6523 16.4383 13.1127 16.4383 13.5732 16.4383C13.847 16.4383 14.0834 16.3764 14.0959 16.0544C14.1083 15.7447 13.8967 15.6456 13.6105 15.6456C13.0132 15.6456 12.4283 15.6456 11.831 15.6456C11.5074 15.6456 11.3332 15.7819 11.3332 16.1163C11.3332 17.3797 11.3332 18.6431 11.3332 19.9064C11.3332 20.2285 11.4825 20.3895 11.8185 20.3895C12.4283 20.3895 13.0381 20.4142 13.6478 20.3647C13.8096 20.3523 13.9589 20.117 14.1083 19.9931C13.9589 19.8569 13.8096 19.6339 13.6478 19.6215C13.175 19.5844 12.6896 19.6091 12.167 19.6091ZM22.0478 16.4507C22.4585 16.4507 22.8069 16.4879 23.1429 16.4383C23.3171 16.4136 23.5785 16.2278 23.6033 16.0792C23.6656 15.7819 23.4167 15.6704 23.1305 15.6704C22.1349 15.6704 21.1518 15.6704 20.1563 15.6704C19.87 15.6704 19.6212 15.7819 19.6834 16.0792C19.7207 16.2278 19.9696 16.4136 20.1438 16.4383C20.4923 16.5003 20.8531 16.4507 21.2389 16.4507C21.2389 17.5035 21.2389 18.482 21.2389 19.4605C21.2389 19.6091 21.1892 19.7826 21.2514 19.894C21.3385 20.0798 21.4629 20.3275 21.6122 20.3647C21.9109 20.4266 22.0353 20.1913 22.0353 19.9064C22.0478 18.7793 22.0478 17.6522 22.0478 16.4507Z" fill="#20DEC2"/>
<path d="M7.78613 17.6392C7.78613 17.2304 7.78613 16.8713 7.78613 16.4625C8.12213 16.4625 8.4457 16.4502 8.76925 16.4625C9.10525 16.4873 9.32924 16.6855 9.34168 17.0199C9.35413 17.3791 9.11769 17.602 8.76925 17.6268C8.45814 17.6516 8.14702 17.6392 7.78613 17.6392Z" fill="#20DEC2"/>
</svg>
