<svg width="30" height="31" viewBox="0 0 30 31" fill="none" xmlns="http://www.w3.org/2000/svg">
<path d="M23.2538 15.6282C23.316 14.9568 23.2953 14.2855 23.1915 13.6244L24.717 12.9531C24.5717 12.2197 24.3538 11.4967 24.0425 10.7944C23.7311 10.092 23.3368 9.45166 22.8802 8.85259L21.3547 9.52395C20.9293 9.00752 20.4415 8.54271 19.9019 8.15022L20.5038 6.60093C19.8915 6.17745 19.2066 5.82628 18.4906 5.56806C17.7745 5.28919 17.0377 5.10329 16.2906 5L15.6887 6.5493C15.0141 6.48732 14.3396 6.50798 13.6755 6.61127L13.0009 5.10329C11.5066 5.39249 10.0953 6.0432 8.89151 6.94179L9.56603 8.42912C9.04716 8.85259 8.5802 9.33803 8.18586 9.87512L6.62925 9.28638C6.20378 9.89577 5.85093 10.5775 5.57074 11.2901C5.29055 12.0028 5.11415 12.7361 5 13.4798L6.5566 14.0789C6.49434 14.7502 6.51509 15.4216 6.61887 16.0826L5.09339 16.754C5.23868 17.4873 5.45659 18.2103 5.76791 18.9127C6.07924 19.615 6.4736 20.2554 6.93021 20.8545L8.45568 20.1831C8.88115 20.6995 9.36888 21.1643 9.9085 21.5568L9.3066 23.1061C9.91886 23.5296 10.6038 23.8808 11.3198 24.139C12.0358 24.4178 12.7726 24.6038 13.5198 24.7071L14.1217 23.1578C14.7962 23.2197 15.4708 23.1991 16.1349 23.0958L16.8094 24.6038C18.3038 24.3146 19.7151 23.6639 20.9189 22.7653L20.2443 21.2779C20.7632 20.8545 21.2302 20.369 21.6245 19.8319L23.1708 20.4207C23.5962 19.8113 23.9491 19.1296 24.2292 18.4169C24.5094 17.7042 24.6962 16.9709 24.8 16.2272L23.2538 15.6282ZM19.1132 16.4648C18.2208 18.7887 15.6057 19.9455 13.2811 19.047C10.9566 18.1587 9.78397 15.5559 10.6868 13.2423C11.5793 10.9287 14.1943 9.76151 16.5189 10.6601C18.8538 11.538 20.0057 14.1409 19.1132 16.4648Z" fill="#20DEC2"/>
</svg>
