<svg width="28" height="26" viewBox="0 0 28 26" fill="none" xmlns="http://www.w3.org/2000/svg">
<path d="M21.6023 18.207C21.524 18.3031 21.4164 18.5529 21.2305 18.6201C21.0349 18.697 20.7219 18.6778 20.5361 18.5721C20.2817 18.428 20.047 18.1878 19.91 17.938C19.8122 17.7555 19.7927 17.4384 19.8905 17.2559C19.9785 17.0926 20.2524 16.9581 20.4578 16.9389C20.8882 16.9005 21.612 17.669 21.6023 18.207Z" fill="#2F1793"/>
<path d="M18.0983 14.547C18.4993 14.5566 19.2525 15.2868 19.2134 15.671C19.1938 15.8728 19.0569 16.1322 18.8808 16.2282C18.7145 16.3243 18.3819 16.3339 18.2254 16.2282C17.9418 16.0457 17.6777 15.7767 17.4918 15.4885C17.2277 15.085 17.5994 14.5374 18.0983 14.547Z" fill="#2F1793"/>
<path d="M16.8573 16.3077C16.8573 16.423 16.867 16.5383 16.8573 16.6536C16.8279 17.0283 16.554 17.2973 16.2019 17.3069C15.8498 17.3165 15.5563 17.0571 15.5172 16.6824C15.4976 16.4614 15.4976 16.2405 15.5074 16.0195C15.527 15.5968 15.8106 15.3086 16.1921 15.3086C16.5736 15.3086 16.8377 15.5968 16.8573 16.0291C16.8573 16.1252 16.8573 16.2117 16.8573 16.3077Z" fill="#2F1793"/>
<path d="M12.5842 17.4484C12.5744 17.996 11.8604 18.755 11.4691 18.7069C11.2539 18.6781 10.9702 18.534 10.8724 18.3515C10.7746 18.1785 10.8138 17.8615 10.9214 17.679C11.0583 17.4388 11.2833 17.2082 11.5278 17.0737C11.7137 16.968 12.0266 16.9392 12.2125 17.0161C12.3983 17.1025 12.5157 17.3619 12.5842 17.4484Z" fill="#2F1793"/>
<path d="M14.952 15.2129C14.952 15.6164 14.2575 16.3658 13.8467 16.3274C13.6413 16.3082 13.3674 16.1833 13.2598 16.0296C13.1522 15.8662 13.1326 15.5492 13.2304 15.3859C13.4163 15.0977 13.6804 14.8287 13.964 14.6461C14.4042 14.3675 14.952 14.7134 14.952 15.2129Z" fill="#2F1793"/>
<path d="M16.8582 19.6599C16.8582 19.7368 16.8582 19.8137 16.8582 19.8905C16.8484 20.3517 16.5843 20.6303 16.1735 20.6207C15.7822 20.6111 15.5279 20.3421 15.5083 19.9001C15.4985 19.708 15.4985 19.5062 15.5083 19.3141C15.5377 18.8914 15.8213 18.6224 16.2126 18.6416C16.5941 18.6608 16.8288 18.9202 16.8484 19.3333C16.8582 19.4486 16.8582 19.5543 16.8582 19.6599Z" fill="#2F1793"/>
<path d="M6.02937 22.5994H7.40854C7.39876 22.513 7.38899 22.4361 7.38899 22.3689C7.38899 17.9784 7.36944 13.5879 7.39878 9.19744C7.40856 7.23758 8.87578 5.68124 10.9006 5.37381C12.759 5.09521 14.6371 6.21923 15.2631 8.00616C15.3414 8.23673 15.3805 8.46731 15.4392 8.69788C15.136 8.79395 14.8816 8.8708 14.6371 8.96688C12.9645 9.63938 12.0743 11.0997 12.1037 13.1172C12.1135 13.7608 12.3384 13.9818 12.9938 13.9818C14.9599 13.9818 16.9357 13.9818 18.9018 13.9818C20.1636 13.9818 20.2615 13.8857 20.2321 12.656C20.193 10.773 18.9605 9.22629 17.102 8.77475C16.8673 8.71711 16.789 8.62102 16.7401 8.40006C16.3 6.23845 14.9794 4.85502 12.8569 4.19213C12.5928 4.10566 12.3189 4.05764 12.0548 4C11.6342 4 11.2038 4 10.7832 4C10.0593 4.25939 9.26704 4.41309 8.61168 4.79738C6.87057 5.82534 6 7.39132 6 9.39921C6 13.636 6 17.8727 6 22.0999C6.02934 22.244 6.02937 22.3977 6.02937 22.5994ZM18.8627 12.6368C17.0825 12.6368 15.3022 12.6368 13.5318 12.6368C13.4046 11.2918 14.6664 10.0237 16.1337 10.0045C17.6596 9.97564 18.9605 11.2246 18.8627 12.6368Z" fill="#2F1793"/>
</svg>
