<svg width="27" height="26" viewBox="0 0 27 26" fill="none" xmlns="http://www.w3.org/2000/svg">
<path d="M18.0246 1.00578C18.0419 1.31226 18.0709 1.62452 18.0709 1.93099C18.0825 3.67155 17.2542 4.88589 15.7135 5.64919C15.0764 5.96723 14.4161 6.18697 13.7152 6.29684C13.6747 6.30262 13.6283 6.30262 13.5588 6.3084C13.5241 4.66037 13.8948 3.20894 15.3138 2.18543C16.0668 1.64187 16.8951 1.27178 17.7929 1.04626C17.8276 1.04048 17.8566 1.01735 17.8913 1C17.9319 1.00578 17.9782 1.00578 18.0246 1.00578Z" fill="#A8A8A8"/>
<path d="M22.3049 8.92191C20.7179 10.1247 19.6058 11.5877 19.8607 13.6868C20.1039 15.6817 21.1176 17.1852 23 18.0757C22.9479 18.2087 22.9015 18.3475 22.8436 18.4863C22.2934 19.7989 21.6968 21.0884 20.8222 22.2276C20.2777 22.9389 19.5595 23.4651 18.8181 23.9566C18.2273 24.3498 17.5844 24.3093 16.9414 24.0954C16.4838 23.945 16.0205 23.7831 15.5803 23.5923C14.5782 23.1586 13.582 23.1702 12.5742 23.5576C12.0876 23.7426 11.5953 23.9219 11.103 24.0954C10.2168 24.4076 9.40586 24.2226 8.64709 23.7195C7.78985 23.1528 7.14692 22.3837 6.5735 21.5453C5.49037 19.9666 4.77794 18.2261 4.35512 16.3641C4.04813 14.9994 3.88016 13.6116 4.10026 12.218C4.47675 9.8529 5.65835 8.03139 7.89411 7.04257C9.09308 6.51636 10.3442 6.57997 11.5663 7.07149C11.937 7.22183 12.3135 7.36061 12.6842 7.51674C13.3271 7.78853 13.9585 7.71913 14.584 7.48205C15.0937 7.28544 15.5919 7.05992 16.1074 6.89223C17.8971 6.31397 19.5595 6.59732 21.077 7.70179C21.552 8.04874 21.9632 8.44774 22.3049 8.92191Z" fill="#A8A8A8"/>
</svg>
