<svg width="133" height="132" viewBox="0 0 133 132" fill="none" xmlns="http://www.w3.org/2000/svg">
<path d="M78.3202 59.2455C78.8051 59.2779 79.2901 59.3102 79.775 59.3102C94.8727 59.3102 109.97 59.3102 125.068 59.3102C125.876 59.3102 126.361 59.3102 126.361 60.4094C126.329 80.3564 126.329 100.303 126.329 120.218C126.329 120.412 126.296 120.606 126.296 120.832C105.089 120.832 83.8808 120.832 62.6729 120.832C62.285 120.832 61.8647 120.865 61.4768 120.8C55.5929 119.862 50.9375 114.431 50.9375 108.418C50.9375 92.0918 50.9375 75.798 50.9375 59.4718C51.3578 59.1162 51.875 59.2779 52.3276 59.2779C60.9595 59.2455 69.6237 59.2455 78.3202 59.2455ZM67.8133 67.7804C67.8133 67.7804 67.8133 67.8127 67.8133 67.7804C66.9404 67.7804 66.0352 67.7481 65.1623 67.8127C63.9338 67.9097 63.0932 68.7179 63.0609 69.7525C63.0286 70.7547 63.7398 71.5952 64.9683 71.7245C65.8089 71.7892 65.9382 72.1448 65.9382 72.8561C65.9382 74.6665 65.8412 76.4769 66.1645 78.2873C67.587 85.917 73.8911 91.6392 81.8117 92.4151C89.1181 93.1264 96.4244 88.6003 99.2694 81.6496C100.433 78.8046 100.692 75.8627 100.595 72.8561C100.563 72.1448 100.692 71.7892 101.532 71.6922C102.89 71.4982 103.44 70.7547 103.343 69.5585C103.246 68.524 102.502 67.8127 101.241 67.7804C99.4957 67.7481 97.7823 67.7157 96.0365 67.7804C94.7757 67.8127 93.9351 68.621 93.8705 69.6555C93.8058 70.69 94.5494 71.5629 95.8425 71.6922C96.6184 71.7892 96.7801 72.0802 96.7477 72.7591C96.7154 74.0199 96.6831 75.2484 96.5861 76.5092C96.1012 81.7465 92.2863 86.4019 87.1137 87.9537C81.8441 89.5378 76.0248 87.6628 72.7273 83.4923C70.2379 80.3564 69.6237 76.7679 69.7853 72.8884C69.8177 72.1125 69.9146 71.7569 70.7875 71.6276C72.0807 71.4659 72.598 70.7223 72.5333 69.5908C72.4686 68.524 71.7251 67.8451 70.4966 67.7481C69.5913 67.7481 68.6861 67.7804 67.8133 67.7804Z" fill="#FE6E56"/>
<path d="M78.3204 59.2437C69.6562 59.2437 60.992 59.2437 52.3278 59.2761C51.8752 59.2761 51.3579 59.1144 50.9377 59.47C47.8664 59.47 44.7952 59.47 41.7239 59.47C40.0428 59.47 40.0428 59.47 40.0428 61.1511C40.0428 81.0335 40.0428 100.948 40.0428 120.831C36.4866 120.831 32.9304 120.798 29.3742 120.831C22.6821 120.928 16.9922 115.27 16.9922 108.481C16.9922 83.8461 16.9922 59.1791 16.9922 34.5444C19.4169 34.512 21.8415 34.512 24.2339 34.4797C24.2339 36.7104 24.2339 38.9088 24.2985 41.1395C24.2985 41.7537 24.1369 41.98 23.4903 42.0124C22.1002 42.077 21.3566 42.8529 21.3889 43.9844C21.4213 45.0836 22.2941 45.8595 23.6196 45.8595C25.3654 45.8918 27.0788 45.8918 28.8246 45.8595C30.2148 45.8272 31.023 45.1483 31.0553 43.9844C31.12 42.8206 30.4087 42.1093 28.9863 41.98C28.372 41.9477 28.1457 41.7214 28.1457 41.1071C28.178 38.8764 28.178 36.6781 28.2104 34.4474C37.5211 34.4474 46.8319 34.4474 56.1426 34.4474C56.175 36.6781 56.175 38.8764 56.2073 41.1071C56.2073 41.7214 56.0133 41.9477 55.3667 41.98C53.9119 42.077 53.2654 42.7559 53.2977 43.9521C53.33 45.1483 54.1382 45.8272 55.593 45.8595C57.2742 45.8595 58.9876 45.8918 60.6687 45.8595C61.9619 45.8272 62.8994 45.0836 62.9317 43.9844C62.9964 42.8852 62.2205 42.077 60.8304 41.98C60.1838 41.9477 60.0221 41.7214 60.0221 41.1071C60.0545 38.8764 60.0544 36.6781 60.0868 34.4474C65.7444 34.4474 71.4019 34.4797 77.0272 34.415C78.0617 34.415 78.288 34.706 78.288 35.7082C78.288 43.5965 78.3204 51.4201 78.3204 59.2437Z" fill="#FEC161"/>
<path d="M40.0098 120.831C40.0098 100.949 40.0098 81.0342 40.0098 61.1518C40.0098 59.4707 40.0098 59.4707 41.6909 59.4707C44.7621 59.4707 47.8334 59.4707 50.9046 59.4707C50.9046 75.7969 50.9046 92.0907 50.9046 108.417C50.9046 114.43 55.56 119.861 61.4439 120.799C61.8319 120.864 62.2521 120.831 62.6401 120.831C83.8479 120.831 105.056 120.831 126.264 120.831C126.264 122.448 126.231 124.064 126.328 125.681C126.393 126.747 126.134 127.103 124.97 127.103C118.602 127.038 112.233 127.071 105.864 127.071C96.6825 127.071 87.4688 127.071 78.2873 127.038C77.9964 126.844 77.6731 126.909 77.3498 126.909C65.4204 126.909 53.5233 126.909 41.5939 126.909C41.2383 126.909 40.8503 126.812 40.527 127.071C40.3654 127.038 40.2037 127.038 40.0421 127.006C40.0421 124.937 40.0098 122.9 40.0098 120.831Z" fill="#ED6148"/>
<path d="M40.0101 120.831C40.0101 122.9 40.0425 124.937 40.0425 127.006C39.6868 127.039 39.3312 127.071 38.9433 127.071C28.404 127.071 17.8648 127.071 7.29316 127.103C6.29096 127.103 6 126.877 6 125.842C6.03233 95.8087 6.03233 65.8073 6 35.7737C6 34.8038 6.16165 34.4482 7.2285 34.4805C10.4614 34.5775 13.6943 34.5452 16.9272 34.5452C16.9272 59.1799 16.9272 83.8469 16.9272 108.482C16.9272 115.271 22.6171 120.928 29.3092 120.831C32.8977 120.799 36.4539 120.831 40.0101 120.831Z" fill="#FEAF45"/>
<path d="M28.2092 34.4807C28.1768 36.7114 28.1768 38.9098 28.1445 41.1405C28.1445 41.7547 28.3708 41.9487 28.9851 42.0134C30.4075 42.1103 31.0864 42.8539 31.0541 44.0178C30.9895 45.1816 30.2136 45.8605 28.8234 45.8928C27.0776 45.9252 25.3642 45.9252 23.6184 45.8928C22.2929 45.8605 21.4201 45.1169 21.3877 44.0178C21.3554 42.8862 22.099 42.1103 23.4891 42.0457C24.1357 42.0134 24.2973 41.7871 24.2973 41.1728C24.265 38.9421 24.265 36.7437 24.2327 34.513C24.2327 30.7952 24.265 27.0773 24.265 23.3595C24.2973 14.1781 30.2459 7.00102 39.201 5.28759C49.0614 3.4125 58.9864 10.9452 59.9239 20.9348C60.0856 22.7129 60.0532 24.491 60.0532 26.2691C60.0856 29.0171 60.0856 31.7651 60.1179 34.513C60.0856 36.7437 60.0856 38.9421 60.0532 41.1728C60.0532 41.7871 60.2149 42.0134 60.8615 42.0457C62.2193 42.1427 62.9952 42.9186 62.9629 44.0501C62.8982 45.1169 61.993 45.8928 60.6998 45.9252C59.0187 45.9575 57.3053 45.9575 55.6242 45.9252C54.1694 45.9252 53.3611 45.2139 53.3288 44.0178C53.2965 42.8539 53.9754 42.175 55.3979 42.0457C56.0444 42.0134 56.2384 41.7871 56.2384 41.1728C56.2061 38.9421 56.1738 36.7437 56.1738 34.513C56.2061 30.0193 56.497 25.5256 56.0444 21.0642C55.3332 14.2427 49.223 8.94077 42.2076 8.97309C35.2246 8.97309 29.1467 14.1781 28.4031 20.9672C27.8535 25.4286 28.1768 29.9546 28.2092 34.4807Z" fill="#534750"/>
<path d="M40.5273 127.07C40.8506 126.811 41.2386 126.908 41.5942 126.908C53.5236 126.908 65.4207 126.908 77.3501 126.908C77.6734 126.908 77.9967 126.844 78.2876 127.038C77.9644 127.07 77.6411 127.102 77.3178 127.102C65.3237 127.102 53.362 127.102 41.3679 127.102C41.0769 127.102 40.786 127.07 40.5273 127.07Z" fill="#FEAF45"/>
<path d="M67.814 67.7789C68.6869 67.7789 69.5921 67.7465 70.465 67.7789C71.6935 67.8435 72.437 68.5548 72.5017 69.6216C72.5664 70.7531 72.0168 71.4967 70.7559 71.6583C69.883 71.7877 69.7861 72.1433 69.7537 72.9192C69.5921 76.7663 70.2063 80.3548 72.6957 83.5231C75.9932 87.6935 81.8125 89.5363 87.0821 87.9845C92.2224 86.4327 96.0696 81.7773 96.5545 76.54C96.6515 75.2792 96.6838 74.0507 96.7161 72.7899C96.7485 72.1109 96.5868 71.82 95.8109 71.723C94.5178 71.5937 93.8065 70.7208 93.8389 69.6863C93.9035 68.6517 94.7441 67.8435 96.0049 67.8112C97.7507 67.7465 99.4641 67.7465 101.21 67.8112C102.438 67.8435 103.214 68.5548 103.311 69.5893C103.408 70.7531 102.859 71.529 101.501 71.723C100.66 71.82 100.531 72.2079 100.563 72.8868C100.66 75.8934 100.402 78.8354 99.2378 81.6803C96.3928 88.6311 89.0865 93.1571 81.7801 92.4459C73.8595 91.67 67.5554 85.9478 66.1329 78.3181C65.8096 76.5077 65.9066 74.6973 65.9066 72.8868C65.9066 72.1756 65.7773 71.82 64.9367 71.7553C63.7405 71.6583 63.0293 70.7855 63.0293 69.7833C63.0616 68.7487 63.9022 67.9405 65.1307 67.8435C66.0359 67.7465 66.9088 67.8112 67.814 67.7789C67.814 67.7789 67.814 67.8112 67.814 67.7789Z" fill="#54454E"/>
</svg>
