<svg width="48" height="45" viewBox="0 0 48 45" fill="none" xmlns="http://www.w3.org/2000/svg">
<path d="M9 36.5308C9 30.9219 9 25.3208 9 19.7119C18.921 19.7119 28.8342 19.7119 38.7553 19.7119C38.8334 19.7119 38.9037 19.7275 38.9974 19.7353C38.9974 19.8291 38.9974 19.9072 38.9974 19.9853C38.9974 25.4067 38.9974 30.8203 39.0053 36.2418C39.0053 36.6089 38.8568 36.8511 38.5287 36.9995C28.8421 36.9995 19.1554 36.9995 9.46871 36.9995C9.31247 36.8433 9.15624 36.687 9 36.5308ZM19.8897 32.9452C19.8741 33.5467 20.3584 33.8435 20.8662 33.5779C21.8817 33.0545 22.8894 32.5233 23.8894 31.9843C24.0456 31.8984 24.1628 31.9062 24.319 31.9843C25.3267 32.5233 26.3345 33.0467 27.3422 33.5779C27.5844 33.7029 27.8343 33.7185 28.0609 33.5389C28.2718 33.3748 28.3343 33.1561 28.2952 32.8905C28.0999 31.7578 27.9125 30.625 27.7172 29.4923C27.6859 29.3127 27.725 29.2033 27.85 29.0861C28.6702 28.2893 29.4826 27.4925 30.3029 26.6957C30.506 26.5004 30.5919 26.2739 30.4982 26.0083C30.4122 25.7505 30.2013 25.6333 29.9435 25.5942C28.8264 25.4302 27.7015 25.2661 26.5844 25.1177C26.3891 25.0943 26.2798 25.0161 26.186 24.8365C25.7173 23.86 25.2252 22.8991 24.7565 21.9227C24.6159 21.6336 24.4596 21.3836 24.1003 21.3758C23.7253 21.368 23.5691 21.6336 23.4206 21.9305C22.9519 22.907 22.4754 23.8756 21.9833 24.8365C21.9286 24.9458 21.788 25.0708 21.6786 25.0865C20.5693 25.2583 19.46 25.4146 18.3508 25.5708C18.0539 25.6098 17.7961 25.7036 17.6946 26.0161C17.593 26.3285 17.7414 26.5551 17.9602 26.766C18.7492 27.5237 19.5225 28.2893 20.3115 29.0471C20.4521 29.1799 20.5068 29.3127 20.4756 29.508C20.3975 29.8907 20.3428 30.2735 20.2725 30.6563C20.1475 31.4531 20.0147 32.2343 19.8897 32.9452Z" fill="white"/>
<path d="M9 11.8061C9.18748 11.4702 9.46871 11.3608 9.85149 11.3764C10.5936 11.3999 11.3357 11.3843 12.1247 11.3843C12.1247 11.5327 12.1169 11.6655 12.1247 11.7983C12.156 12.5248 12.1013 13.2747 12.2419 13.9856C12.5466 15.5011 14.0152 16.5244 15.5385 16.3682C17.1243 16.212 18.3351 14.9152 18.3742 13.345C18.3898 12.7045 18.3742 12.0639 18.3742 11.3999C22.1317 11.3999 25.8579 11.3999 29.6232 11.3999C29.6232 11.9389 29.6076 12.4857 29.6311 13.0247C29.6467 13.3763 29.6623 13.7278 29.7482 14.0637C30.1154 15.5089 31.5137 16.4854 33.0058 16.3682C34.49 16.251 35.7087 15.0793 35.8415 13.6028C35.8961 12.9935 35.8727 12.3764 35.8805 11.7592C35.8805 11.642 35.8805 11.5327 35.8805 11.3843C36.2242 11.3843 36.5289 11.3843 36.8414 11.3843C37.3023 11.3843 37.7554 11.3843 38.2163 11.3843C38.7865 11.3843 38.9974 11.5952 38.9974 12.1576C38.9974 12.7123 38.9974 13.2669 38.9974 13.8294C38.9974 15.2511 38.9974 16.6807 38.9974 18.1024C38.9974 18.2118 38.9974 18.3133 38.9974 18.4696C38.849 18.4696 38.7162 18.4696 38.5834 18.4696C28.8577 18.4696 19.1319 18.4696 9.40622 18.4696C9.27341 18.4696 9.1328 18.4852 9 18.4852C9 16.2588 9 14.0325 9 11.8061Z" fill="white"/>
<path d="M9 36.5317C9.15624 36.688 9.31247 36.8442 9.46871 37.0004C9.31247 37.0004 9.15624 37.0004 9 37.0004C9 36.8442 9 36.688 9 36.5317Z" fill="white"/>
<path d="M34.6149 11.0718C34.6149 11.8218 34.6305 12.5717 34.6149 13.3295C34.5915 14.2825 33.8962 15.0012 32.9354 15.1262C32.0683 15.2356 31.2011 14.6497 30.959 13.7747C30.9043 13.5873 30.8809 13.392 30.8809 13.1967C30.873 11.7827 30.873 10.3688 30.8809 8.94703C30.8809 8.16585 31.2246 7.56433 31.9198 7.2128C32.576 6.8847 33.2322 6.93939 33.8337 7.35341C34.3259 7.69714 34.6071 8.18147 34.6149 8.78298C34.6227 9.54854 34.6149 10.3063 34.6149 11.0718Z" fill="white"/>
<path d="M13.3824 11.0485C13.3824 10.3455 13.3746 9.64241 13.3824 8.93934C13.3902 7.83788 14.187 7.00982 15.2338 7.00982C16.2806 7.00201 17.1086 7.81444 17.1242 8.9081C17.1399 10.3533 17.1399 11.7985 17.1242 13.2437C17.1086 14.2748 16.4056 15.017 15.3978 15.1263C14.5073 15.2201 13.6402 14.5951 13.4292 13.6811C13.3902 13.5015 13.3824 13.314 13.3824 13.1265C13.3746 12.4312 13.3824 11.7438 13.3824 11.0485Z" fill="white"/>
</svg>
