<svg width="68" height="62" viewBox="0 0 68 62" fill="none" xmlns="http://www.w3.org/2000/svg">
<path d="M16 48.9828C16 38.0636 16 27.1549 16 16.2357C16.0211 16.183 16.0527 16.1303 16.0632 16.0776C16.2003 15.1607 16.643 14.4229 17.3388 13.8221C17.8448 13.39 18.4562 13.1792 19.0887 13C29.0188 13 38.9489 13 48.8896 13C48.9107 13.0105 48.9212 13.0422 48.9423 13.0422C50.766 13.3373 52.0204 15.0026 51.9994 16.9524C51.9467 23.0128 51.9783 29.0837 51.9783 35.1441C51.9783 36.1875 51.9888 37.231 51.9783 38.2744C51.9677 39.0438 51.7147 39.7394 51.2404 40.3507C50.4497 41.3731 49.3956 41.7947 48.1201 41.7947C39.9398 41.7842 31.7491 41.7947 23.5688 41.7842C23.3053 41.7842 23.1155 41.8579 22.9258 42.0476C20.6172 44.3664 18.3086 46.6746 16 48.9828ZM44.7679 20.2198C42.3644 22.138 40.0031 24.0246 37.5785 25.9639C37.5785 23.993 37.5785 22.1169 37.5785 20.1987C37.4204 20.1987 37.2939 20.1987 37.1674 20.1987C32.6451 20.1987 28.1228 20.1987 23.611 20.1881C23.2631 20.1881 23.1893 20.283 23.1893 20.6203C23.1999 25.1418 23.1999 29.6634 23.1999 34.1744C23.1999 34.3009 23.1999 34.4274 23.1999 34.5644C28.0173 34.5644 32.7927 34.5644 37.5996 34.5644C37.5996 32.6672 37.5996 30.7912 37.5996 28.8413C40.0136 30.7701 42.3749 32.6567 44.7784 34.5749C44.7679 29.7583 44.7679 25.0259 44.7679 20.2198Z" fill="white"/>
</svg>
