<svg width="50" height="35" viewBox="0 0 50 35" fill="none" xmlns="http://www.w3.org/2000/svg">
<path d="M6.46924 8.07666L6.46951 8.07635C7.16893 7.24932 8.01821 6.80381 9.08994 6.77112L9.09171 6.77107C9.80284 6.74769 10.5051 6.74922 11.2266 6.75079C11.4092 6.75119 11.593 6.75159 11.7785 6.75159H11.8079H11.8374H11.8668H11.8963H11.9257H11.9552H11.9846H12.0141H12.0435H12.073H12.1024H12.1319H12.1614H12.1908H12.2203H12.2497H12.2792H12.3086H12.3381H12.3675H12.397H12.4265H12.4559H12.4854H12.5148H12.5443H12.5737H12.6032H12.6327H12.6621H12.6916H12.721H12.7505H12.78H12.8094H12.8389H12.8683H12.8978H12.9273H12.9567H12.9862H13.0156H13.0451H13.0746H13.104H13.1335H13.1629H13.1924H13.2219H13.2513H13.2808H13.3103H13.3397H13.3692H13.3987H13.4281H13.4576H13.487H13.5165H13.546H13.5754H13.6049H13.6344H13.6638H13.6933H13.7228H13.7522H13.7817H13.8112H13.8406H13.8701H13.8996H13.929H13.9585H13.988H14.0174H14.0469H14.0764H14.1058H14.1353H14.1648H14.1942H14.2237H14.2532H14.2826H14.3121H14.3416H14.3711H14.4005H14.43H14.4595H14.4889H14.5184H14.5479H14.5773H14.6068H14.6363H14.6658H14.6952H14.7247H14.7542H14.7836H14.8131H14.8426H14.8721H14.9015H14.931H14.9605H14.9899H15.0194H15.0489H15.0784H15.1078H15.1373H15.1668H15.1963H15.2257H15.2552H15.2847H15.3142H15.3436H15.3731H15.4026H15.432H15.4615H15.491H15.5205H15.5499H15.5794H15.6089H15.6384H15.6678H15.6973H15.7268H15.7563H15.7858H15.8152H15.8447H15.8742H15.9037H15.9331H15.9626H15.9921H16.0216H16.051H16.0805H16.11H16.1395H16.1689H16.1984H16.2279H16.2574H16.2869H16.3163H16.3458H16.3753H16.4048H16.4342H16.4637H16.4932H16.5227H16.5522H16.5816H16.6111H16.6406H16.6701H16.6996H16.729H16.7585H16.788H16.8175H16.847H16.8764H16.9059H16.9354H16.9649H16.9943H17.0238H17.0533H17.0828H17.1123H17.1417H17.1712H17.2007H17.2302H17.2597H17.2891H17.3186H17.3481H17.3776H17.4071H17.4366H17.466H17.4955H17.525H17.5545H17.584H17.6134H17.6429H17.6724H17.7019H17.7314H17.7608H17.7903H17.8198H17.8493H17.8788H17.9082H17.9377H17.9672H17.9967H18.0262H18.0557H18.0851H18.1146H18.1441H18.1736H18.2031H18.2325H18.262H18.2915H18.321H18.3505H18.38H18.4094H18.4389H18.4684H18.4979H18.5274H18.5569H18.5863H18.6158H18.6453H18.6748H18.7043H18.7337H18.7632H18.7927H18.8222H18.8517H18.8812H18.9106H18.9401H18.9696H18.9991H19.0286H19.0581H19.0875H19.117H19.1465H19.176H19.2055H19.235H19.2644H19.2939H19.3234H19.3529H19.3824H19.4118H19.4413H19.4708H19.5003H19.5298H19.5593H19.5887H19.6182H19.6477H19.6772H19.7067H19.7362H19.7656H19.7951H19.8246H19.8541H19.8836H19.913H19.9425H19.972H20.0015H20.031H20.0605H20.0899H20.1194H20.1489H20.1784H20.2079H20.2374H20.2668H20.2963H20.3258H20.3553H20.3848H20.4142H20.4437H20.4732H20.5027H20.5322H20.5617H20.5911H20.6206H20.6501H20.6796H20.7091H20.7385H20.768H20.7975H20.827H20.8565H20.886H20.9154H20.9449H20.9744H21.0039H21.0334H21.0628H21.0923H21.1218H21.1513H21.1808H21.2102H21.2397H21.2692H21.2987H21.3282H21.3576H21.3871H21.4166H21.4461H21.4756H21.505H21.5345H21.564H21.5935H21.623H21.6524H21.6819H21.7114H21.7409H21.7704H21.7998H21.8293H21.8588H21.8883H21.9178H21.9472H21.9767H22.0062H22.0357H22.0652H22.0946H22.1241H22.1536H22.1831H22.2125H22.242H22.2715H22.301H22.3305H22.3599H22.3894H22.4189H22.4484H22.4778H22.5073H22.5368H22.5663H22.5958H22.6252H22.6547H22.6842H22.7137H22.7431H22.7726H22.8021H22.8316H22.861H22.8905H22.92H22.9495H22.9789H23.0084H23.0379H23.0674H23.0968H23.1263H23.1558H23.1853H23.2147H23.2442H23.2737H23.3032H23.3326H23.3621H23.3916H23.4211H23.4505H23.48H23.5095H23.539H23.5684H23.5979H23.6274H23.6568H23.6863H23.7158H23.7453H23.7747H23.8042H23.8337H23.8632H23.8926H23.9221H23.9516H23.981H24.0105H24.04H24.0695H24.0989H24.1284H24.1579H24.1873H24.2168H24.2463H24.2757H24.3052H24.3347H24.3641H24.3936H24.4231H24.4526H24.482H24.5115H24.541H24.5704H24.5999H24.6294H24.6588H24.6883H24.7178H24.7472H24.7767H24.8062H24.8356H24.8651H24.8946H24.924H24.9535H24.983H25.0124H25.0419H25.0714H25.1008H25.1303H25.1597H25.1892H25.2187H25.2481H25.2776H25.3071H25.3365H25.366H25.3955H25.4249H25.4544H25.4838H25.5133H25.5428H25.5722H25.6017H25.6312H25.6606H25.6901H25.7195H25.749H25.7785H25.8079H25.8374H25.8668H25.8963H25.9258H25.9552H25.9847H26.0141H26.0436H26.073H26.1025H26.132H26.1614H26.1909H26.2203H26.2498H26.2793H26.3087H26.3382H26.3676H26.3971H26.4265H26.456H26.4854H26.5149H26.5444H26.5738H26.6033H26.6327H26.6622H26.6916H26.7211H26.7505H26.78H26.8094H26.8389H26.8683C27.713 6.75159 28.4012 6.92038 28.9499 7.23498C29.4919 7.54573 29.942 8.02373 30.279 8.71936C30.485 9.16124 30.5921 9.70425 30.5921 10.2262L30.5921 10.2315C30.6234 14.6906 30.613 19.1602 30.6025 23.6339V23.6357C30.6025 25.3974 29.4668 26.7377 27.6829 27.0628L27.6813 27.0631C27.437 27.1082 27.1728 27.1103 26.8266 27.1103H26.7928H26.759H26.7253H26.6915H26.6577H26.6239H26.5901H26.5563H26.5225H26.4887H26.4549H26.4211H26.3874H26.3536H26.3198H26.286H26.2522H26.2184H26.1846H26.1508H26.117H26.0832H26.0494H26.0157H25.9819H25.9481H25.9143H25.8805H25.8467H25.8129H25.7791H25.7453H25.7115H25.6778H25.644H25.6102H25.5764H25.5426H25.5088H25.475H25.4412H25.4074H25.3736H25.3398H25.3061H25.2723H25.2385H25.2047H25.1709H25.1371H25.1033H25.0695H25.0357H25.0019H24.9682H24.9344H24.9006H24.8668H24.833H24.7992H24.7654H24.7316H24.6978H24.664H24.6302H24.5965H24.5627H24.5289H24.4951H24.4613H24.4275H24.3937H24.3599H24.3261H24.2923H24.2586H24.2248H24.191H24.1572H24.1234H24.0896H24.0558H24.022H23.9882H23.9544H23.9206H23.8869H23.8531H23.8193H23.7855H23.7517H23.7179H23.6841H23.6503H23.6165H23.5827H23.549H23.5152H23.4814H23.4476H23.4138H23.38H23.3462H23.3124H23.2786H23.2448H23.2111H23.1773H23.1435H23.1097H23.0759H23.0421H23.0083H22.9745H22.9407H22.9069H22.8731H22.8394H22.8056H22.7718H22.738H22.7042H22.6704H22.6366H22.6028H22.569H22.5352H22.5014H22.4677H22.4339H22.4001H22.3663H22.3325H22.2987H22.2649H22.2311H22.1973H22.1635H22.1298H22.096H22.0622H22.0284H21.9946H21.9608H21.927H21.8932H21.8594H21.8256H21.7919H21.7581H21.7243H21.6905H21.6567H21.6229H21.5891H21.5553H21.5215H21.4877H21.4539H21.4202H21.3864H21.3526H21.3188H21.285H21.2512H21.2174H21.1836H21.1498H21.116H21.0823H21.0485H21.0147H20.9809H20.9471H20.9133H20.8795H20.8457H20.8119H20.7781H20.7443H20.7106H20.6768H20.643H20.6092H20.5754H20.5416H20.5078H20.474H20.4402H20.4064H20.3727H20.3389H20.3051H20.2713H20.2375H20.2037H20.1699H20.1361H20.1023H20.0685H20.0347H20.001H19.9672H19.9334H19.8996H19.8658H19.832H19.7982H19.7644H19.7306H19.6968H19.6631H19.6293H19.5955H19.5617H19.5279H19.4941H19.4603H19.4265H19.3927H19.3589H19.3251H19.2914H19.2576H19.2238H19.19H19.1562H19.1224H19.0886H19.0548H19.021H18.9872H18.9535H18.9197H18.8859H18.8521H18.8183H18.7845H18.7507H18.7169H18.6831H18.6493H18.6156H18.5818H18.548H18.5142H18.4804H18.4466H18.4128H18.379H18.3452H18.3114H18.2776H18.2439H18.2101H18.1763H18.1425H18.1087H18.0749H18.0411H18.0073H17.9735H17.9397H17.906H17.8722H17.8384H17.8046H17.7708H17.737H17.7032H17.6694H17.6356H17.6018H17.568H17.5343H17.5005H17.4667H17.4329H17.3991H17.3653H17.3315H17.2977H17.2639H17.2301H17.1964H17.1626H17.1288H17.095H17.0612H17.0274H16.9936H16.9598H16.926H16.8922H16.8584H16.8247H16.7909H16.7571H16.7233H16.6895H16.6557H16.6219H16.5881H16.5543H16.5205H16.4868H16.453H16.4192H16.3854H16.3516H16.3178H16.284H16.2502H16.2164H16.1826H16.1488H16.1151H16.0813H16.0475H16.0137H15.9799H15.9461H15.9123H15.8785H15.8447H15.8109H15.7772H15.7434H15.7096H15.6758H15.642H15.6082H15.5744H15.5406H15.5068H15.473H15.4392H15.4055H15.3717H15.3379H15.3041H15.2703H15.2365H15.2027H15.1689H15.1351H15.1013H15.0676H15.0338H15H14.9662H14.9324H14.8986H14.8648H14.831H14.7972H14.7634H14.7296H14.6959H14.6621H14.6283H14.5945H14.5607H14.5269H14.4931H14.4593H14.4255H14.3917H14.358H14.3242H14.2904H14.2566H14.2228H14.189H14.1552H14.1214H14.0876H14.0538H14.0201H13.9863H13.9525H13.9187H13.8849H13.8511H13.8173H13.7835H13.7497H13.7159H13.6821H13.6484H13.6146H13.5808H13.547H13.5132H13.4794H13.4456H13.4118H13.378H13.3442H13.3105H13.2767H13.2429H13.2091H13.1753H13.1415H13.1077H13.0739H13.0401H13.0063H12.9725H12.9388H12.905H12.8712H12.8374H12.8036H12.7698H12.736H12.7022H12.6684H12.6346H12.6009H12.5671H12.5333H12.4995H12.4657H12.4319H12.3981H12.3643H12.3305H12.2967H12.2629H12.2292H12.1954H12.1616H12.1278H12.094H12.0602H12.0264H11.9926H11.9588H11.925H11.8913H11.8575H11.8237H11.7899H11.7561H11.7223H11.6885H11.6547H11.6209H11.5871H11.5533H11.5196H11.4858H11.452H11.4182H11.3844H11.3506H11.3168H11.283H11.2492H11.2154H11.1817H11.1479H11.1141H11.0803H11.0465H11.0127H10.9789H10.9451H10.9113H10.8775H10.8438H10.81H10.7762H10.7424H10.7086H10.6748H10.641H10.6072H10.5734H10.5396H10.5058H10.4721H10.4383H10.4045H10.3707H10.3369H10.3031H10.2693H10.2355H10.2017H10.1679H10.1342H10.1004H10.0666H10.0328H9.99899H9.9652H9.93141H9.89762H9.86383H9.83004H9.79625H9.76246H9.72867H9.69487H9.66108H9.62729H9.5935H9.55971H9.52592C8.47189 27.1103 7.65167 26.8395 7.05099 26.3783C6.4533 25.9194 6.01181 25.2253 5.79399 24.265L5.78458 24.2235L5.77053 24.1833C5.764 24.1647 5.75708 24.147 5.75 24.1305V9.62748C5.93781 8.9888 6.12175 8.48709 6.46924 8.07666ZM37.2431 22.8416C36.2384 22.2933 35.2325 21.7444 34.2241 21.1977L44.0169 10.831C44.0325 12.344 44.0306 13.8682 44.0286 15.3952C44.028 15.9047 44.0273 16.4146 44.0273 16.9244C44.0273 17.6206 44.0285 18.3157 44.0296 19.0104V19.0115V19.0126C44.0319 20.4002 44.0343 21.7863 44.0273 23.1769L43.2773 23.1722C43.2773 23.1725 43.2773 23.1728 43.2773 23.1731C43.2696 24.2974 42.1574 25.1419 40.9613 24.8023C40.7658 24.7447 40.5502 24.6447 40.3247 24.5194L40.3247 24.5193L40.3176 24.5155C39.2915 23.9594 38.2679 23.4008 37.2431 22.8416L37.2431 22.8416Z" stroke="#6D6D6D" stroke-width="1.5"/>
</svg>
