<svg width="50" height="35" viewBox="0 0 50 35" fill="none" xmlns="http://www.w3.org/2000/svg">
<path d="M31.7419 30.3673C31.3719 30.3059 30.995 30.2581 30.6251 30.1899C29.1862 29.9239 27.8364 29.3849 26.5346 28.7437C24.39 27.6932 22.403 26.4107 20.6147 24.835C17.0313 21.6766 14.2015 17.9861 12.6051 13.4429C12.2145 12.3242 11.9747 11.1645 12.0021 9.97077C12.0295 8.81793 12.4064 7.80151 13.2217 6.9761C13.948 6.2462 14.6537 5.48218 15.428 4.80685C16.6887 3.7154 17.9837 3.72904 19.1896 4.86142C20.4092 6.00744 21.5877 7.20122 22.7319 8.42228C23.6774 9.42505 23.6706 10.7825 22.7456 11.799C22.1015 12.5084 21.4027 13.1769 20.7175 13.8454C20.5805 13.975 20.5668 14.0705 20.649 14.2411C21.3341 15.6668 22.3208 16.8674 23.3965 18.0134C24.4859 19.1799 25.685 20.2168 27.0348 21.0763C27.391 21.3014 27.7747 21.4788 28.1379 21.697C28.2818 21.7857 28.3708 21.7653 28.4873 21.6493C29.056 21.0695 29.6384 20.4896 30.2208 19.9166C30.673 19.4664 31.18 19.1048 31.831 19.0025C32.708 18.8593 33.448 19.139 34.0646 19.7461C35.1883 20.8443 36.2983 21.9563 37.4082 23.0682C38.6004 24.262 38.7032 25.6194 37.5932 26.8883C36.8258 27.7682 35.9831 28.58 35.1335 29.3781C34.5305 29.9443 33.77 30.224 32.9409 30.3195C32.8793 30.3263 32.8245 30.3536 32.7696 30.3673C32.4271 30.3673 32.0845 30.3673 31.7419 30.3673ZM13.3451 9.98441C13.3519 11.4033 13.6876 12.5289 14.1124 13.6408C15.2909 16.7719 17.1889 19.4459 19.4499 21.8812C21.6562 24.2483 24.2256 26.1379 27.1444 27.5568C28.5969 28.2662 30.0906 28.8392 31.7145 29.0098C32.7011 29.1121 33.6398 28.9961 34.3866 28.2867C35.1472 27.5568 35.8872 26.7996 36.6066 26.0219C37.1821 25.3943 37.1753 24.7531 36.5792 24.146C35.4281 22.9727 34.2633 21.8198 33.0917 20.6738C32.6189 20.2099 32.0022 20.2031 31.4747 20.6124C31.3513 20.7079 31.2417 20.8171 31.1321 20.9262C30.488 21.5606 29.8577 22.2018 29.2136 22.8362C28.7956 23.2455 28.3434 23.3206 27.8227 23.0545C27.4459 22.8635 27.069 22.6725 26.7127 22.4542C25.0067 21.4378 23.5267 20.1485 22.1975 18.6887C21.0875 17.4745 20.0734 16.192 19.3883 14.6777C19.032 13.9 19.1005 13.5589 19.7171 12.9654C20.3886 12.3242 21.0532 11.6762 21.6904 11.0008C22.2317 10.421 22.2317 9.81388 21.6767 9.24086C20.834 8.36088 19.9638 7.50819 19.1005 6.64185C18.7853 6.32806 18.4701 6.00744 18.1344 5.71411C17.6 5.25707 17.0039 5.25025 16.4557 5.68001C16.3461 5.76187 16.2433 5.85737 16.1474 5.95287C15.5513 6.54635 14.9621 7.14664 14.3523 7.7333C13.6534 8.40863 13.3177 9.22722 13.3451 9.98441Z" fill="#6D6D6D"/>
</svg>
