<svg width="26" height="21" viewBox="0 0 26 21" fill="none" xmlns="http://www.w3.org/2000/svg">
<path d="M21.3609 7.05273C21.6626 7.82934 21.8704 8.63562 21.9495 9.46168C22.1919 12.019 21.5587 14.3389 19.966 16.367C18.6007 18.1082 16.8299 19.2261 14.6831 19.7504C14.2478 19.8543 13.8076 19.9384 13.3574 19.9582C13.3277 19.9582 13.2931 19.9582 13.2783 19.9928C13.1052 19.9928 12.932 19.9928 12.7589 19.9928C12.7045 19.9384 12.6303 19.9582 12.566 19.9582C12.2791 19.9532 11.9922 19.9137 11.7053 19.8691C10.8594 19.7356 10.0433 19.4833 9.26172 19.1272C9.2815 19.048 9.34581 19.0084 9.39527 18.954C9.82067 18.5187 10.2659 18.1032 10.6764 17.6531C10.711 17.6581 10.7506 17.663 10.7852 17.6679C11.2749 17.7916 11.7745 17.851 12.2741 17.8658C12.8133 17.8955 13.3475 17.851 13.8719 17.7471C15.6773 17.386 17.1613 16.4907 18.3039 15.0413C19.2537 13.8344 19.7632 12.4543 19.867 10.9259C19.9165 10.1641 19.8374 9.41222 19.6543 8.67024C19.7038 8.62572 19.7582 8.58615 19.8077 8.53669C20.2677 8.08161 20.7228 7.62158 21.1828 7.1665C21.2323 7.12693 21.2718 7.05273 21.3609 7.05273Z" fill="#FEDD50"/>
<path d="M4.29599 15.2883C3.63315 14.1556 3.22259 12.9387 3.06925 11.6328C3.05441 11.5042 3.0742 11.3608 3 11.2421C3 10.7375 3 10.228 3 9.71855C3.08904 9.5108 3.06925 9.2882 3.10388 9.07056C3.55896 6.30546 4.95387 4.13889 7.26884 2.57085C8.54998 1.71015 9.97458 1.22045 11.5129 1.05227C11.7009 1.03248 11.8938 1.02753 12.0867 1.0127C12.0818 1.08689 12.0224 1.07205 11.9779 1.08195C11.2458 1.19572 10.5286 1.35895 9.83608 1.62606C8.70827 2.05641 7.69918 2.67472 6.81376 3.48595C5.79972 4.406 5.02807 5.49918 4.47901 6.76054C3.99425 7.87845 3.75682 9.04583 3.70735 10.2528C3.67767 10.9552 3.75682 11.6526 3.89037 12.3451C4.05855 13.2058 4.33061 14.0369 4.75601 14.8135C4.64224 15.0064 4.46911 15.1449 4.29599 15.2883Z" fill="#EFCD03"/>
<path d="M11.7547 19.9994C11.5222 19.9203 11.2749 19.9302 11.0375 19.8906C10.3499 19.7719 9.67716 19.6185 9.03906 19.3366C9.10831 19.2624 9.16767 19.1734 9.2666 19.1338C10.0482 19.4899 10.8594 19.7373 11.7102 19.8758C11.9921 19.9203 12.279 19.9648 12.5709 19.9648C12.6352 19.9648 12.7094 19.945 12.7638 19.9994C12.4225 19.9994 12.0911 19.9994 11.7547 19.9994Z" fill="#F0CE09"/>
<path d="M4.7541 14.8157C4.33364 14.0391 4.06158 13.213 3.88846 12.3474C3.7549 11.6549 3.67576 10.9574 3.70544 10.255C3.7549 9.04806 3.98739 7.87574 4.47709 6.76278C5.02615 5.50142 5.79781 4.40824 6.81184 3.48819C7.70221 2.67696 8.7113 2.06359 9.83416 1.6283C10.5267 1.36119 11.2439 1.19795 11.976 1.08418C12.0255 1.07924 12.0799 1.08913 12.0848 1.01493C13.0989 0.955574 14.0981 1.07429 15.0775 1.3513C15.8541 1.56894 16.596 1.87562 17.2886 2.30102C17.2341 2.36038 17.1847 2.42469 17.1303 2.4791C16.6752 2.93912 16.2201 3.39915 15.765 3.86412C15.7304 3.85423 15.6958 3.84434 15.6611 3.8295C14.563 3.30517 13.4105 3.07763 12.2035 3.12709C11.8375 3.1172 11.4764 3.17161 11.1252 3.24581C9.15154 3.64648 7.56866 4.66051 6.41612 6.31759C5.68404 7.3712 5.26359 8.53857 5.14487 9.81972C5.07067 10.6211 5.13003 11.4026 5.30316 12.1841C5.42682 12.7332 5.62963 13.2526 5.85717 13.767C5.59005 14.0292 5.32789 14.2914 5.05583 14.5486C4.9569 14.6426 4.88765 14.7613 4.7541 14.8157Z" fill="#FEDD4F"/>
<path d="M21.3596 7.05361C21.2706 7.05361 21.2359 7.12781 21.1865 7.17727C20.7264 7.63235 20.2714 8.09238 19.8113 8.54745C19.7619 8.59692 19.7124 8.63649 19.658 8.68101C19.5591 8.32981 19.4502 7.9885 19.3117 7.65214C19.0891 7.10802 18.7874 6.61337 18.4609 6.12861C18.7874 5.7972 19.1139 5.46083 19.4453 5.12942C19.6135 4.96124 19.7668 4.77327 19.9647 4.63477C20.2466 4.92661 20.4445 5.27287 20.6522 5.61417C20.9342 6.0742 21.1716 6.55401 21.3596 7.05361Z" fill="#FEE993"/>
<path d="M15.7617 3.86388C16.2168 3.40385 16.6719 2.94383 17.127 2.47886C17.1814 2.42444 17.2358 2.36014 17.2852 2.30078C17.8986 2.6322 18.4477 3.05265 18.9522 3.52752C18.8681 3.53246 18.8286 3.60171 18.7741 3.65118C18.324 4.09636 17.8739 4.54155 17.4188 4.98179C16.9143 4.5465 16.3553 4.17551 15.7617 3.86388Z" fill="#FEE993"/>
<path d="M17.4219 4.9865C17.872 4.54131 18.3221 4.09613 18.7772 3.65589C18.8267 3.60642 18.8663 3.53717 18.9553 3.53223C19.3213 3.86364 19.6676 4.23463 19.9644 4.64024C19.7665 4.77875 19.6132 4.96671 19.445 5.1349C19.1136 5.46136 18.7871 5.79773 18.4606 6.13409C18.1391 5.72848 17.7978 5.34265 17.4219 4.9865Z" fill="#FEDD50"/>
<path d="M12.2798 17.8827C11.7753 17.863 11.2806 17.8036 10.7909 17.6849C10.7563 17.675 10.7167 17.675 10.6821 17.67C10.049 17.487 9.4257 17.2644 8.85685 16.9231C8.59963 16.7698 8.34241 16.6065 8.09014 16.4483C8.07036 16.3938 8.02089 16.3642 7.97637 16.3295C7.74389 16.1416 7.50645 15.9586 7.30859 15.736C7.31849 15.7063 7.32343 15.6717 7.34322 15.6519C7.8626 15.1325 8.38199 14.618 8.90632 14.1036C9.27236 14.7813 9.81153 15.271 10.5387 15.5183C10.7613 15.5975 10.8256 15.6865 10.8008 15.9041C10.7761 16.1515 10.8058 16.3938 10.9393 16.6164C11.152 16.9676 11.7456 17.0369 11.988 16.7302C12.0127 16.745 12.0375 16.7648 12.0671 16.7797C12.5469 17.1061 13.1207 16.8638 13.2197 16.29C13.2444 16.1317 13.2444 15.9684 13.2345 15.8102C13.2246 15.6667 13.2691 15.5975 13.4126 15.5529C15.0993 14.9989 15.9205 13.144 15.2131 11.4968C14.8718 10.7004 14.204 10.2701 13.4175 10.003C13.2642 9.94855 13.2048 9.87929 13.2395 9.72595C13.5016 9.49347 13.7539 9.24614 13.9814 8.97903C14.0705 8.92957 14.1595 8.8801 14.2485 8.83064C14.2634 8.83558 14.2832 8.84053 14.298 8.85042C14.5503 9.0285 14.8124 9.04333 15.0796 8.89989C15.3566 8.75149 15.4703 8.49922 15.4555 8.19253C15.4456 7.98478 15.411 7.77703 15.3862 7.57422C15.4357 7.5297 15.4901 7.49013 15.5396 7.44067C16.0639 6.92128 16.5833 6.39695 17.1076 5.87757C17.1571 5.8281 17.1967 5.75885 17.2857 5.75391C17.3302 5.79348 17.3846 5.83305 17.4193 5.87757C17.8249 6.40685 18.181 6.9658 18.4432 7.57917C18.7647 8.32609 18.9725 9.10269 19.0219 9.90897C19.0615 10.557 19.0516 11.2099 18.923 11.8579C18.7202 12.8719 18.3443 13.8167 17.7556 14.6675C17.2758 15.36 16.6971 15.9635 16.0145 16.4582C15.1834 17.0567 14.2733 17.4722 13.2741 17.6948C12.9377 17.7789 12.6063 17.8036 12.2798 17.8827Z" fill="#F9A200"/>
<path d="M12.2784 17.8801C12.6048 17.8009 12.9412 17.7762 13.2677 17.702C14.2669 17.4794 15.182 17.0639 16.008 16.4654C16.6906 15.9707 17.2743 15.3673 17.7492 14.6747C18.3378 13.8239 18.7088 12.8792 18.9166 11.8651C19.0452 11.2171 19.0551 10.5642 19.0155 9.9162C18.966 9.10992 18.7583 8.33332 18.4368 7.5864C18.1746 6.97303 17.8185 6.40913 17.4128 5.8848C17.3782 5.83533 17.3238 5.80071 17.2793 5.76114C17.2793 5.70673 17.2447 5.6721 17.21 5.63747C16.8737 5.30111 16.5521 4.95486 16.1713 4.66796C15.2463 3.9705 14.2273 3.49069 13.0846 3.27799C12.7928 3.22358 12.496 3.18401 12.1992 3.13454C13.4062 3.08508 14.5587 3.31261 15.6519 3.83694C15.6865 3.85178 15.7211 3.86168 15.7558 3.87157C16.3493 4.1832 16.9033 4.55914 17.4178 4.99443C17.7937 5.35058 18.135 5.7364 18.4566 6.14202C18.783 6.62678 19.0848 7.12637 19.3074 7.66554C19.4459 8.00191 19.5596 8.34322 19.6536 8.69442C19.8366 9.43639 19.9158 10.1883 19.8663 10.95C19.7624 12.4785 19.2529 13.8586 18.3032 15.0655C17.1606 16.5148 15.6717 17.4102 13.8711 17.7713C13.3518 17.8652 12.8126 17.9098 12.2784 17.8801Z" fill="#F58E01"/>
<path d="M8.08318 16.4443C8.3404 16.6026 8.59267 16.7659 8.84989 16.9192C9.42368 17.2556 10.042 17.4831 10.6752 17.6661C10.2695 18.1212 9.81941 18.5318 9.39401 18.9671C9.34454 19.0215 9.27529 19.061 9.26045 19.1402C9.16152 19.1798 9.10216 19.2688 9.03291 19.343C8.65203 19.249 8.31567 19.0511 7.97436 18.8731C7.52422 18.6406 7.10872 18.3586 6.7031 18.052C6.67342 18.0322 6.65364 17.9975 6.62891 17.9679C6.72784 17.8541 6.83171 17.7403 6.93064 17.6315C7.30163 17.2655 7.67262 16.8994 8.04361 16.5334C8.06834 16.5086 8.06834 16.474 8.08318 16.4443Z" fill="#FEE993"/>
<path d="M4.75299 14.8162C4.88655 14.7667 4.9558 14.643 5.05473 14.554C5.32679 14.2968 5.58895 14.0346 5.85607 13.7725C6.0935 14.183 6.32104 14.5936 6.61288 14.9745C6.74149 15.1426 6.90967 15.2861 7.00366 15.479C6.96408 15.479 6.9344 15.4988 6.90473 15.5235C6.55352 15.8797 6.20232 16.2358 5.85112 16.587C5.73735 16.7008 5.62358 16.8146 5.50981 16.9283C5.13388 16.5771 4.84203 16.1567 4.55513 15.7362C4.46115 15.5928 4.35233 15.4592 4.29297 15.291C4.4661 15.1476 4.63922 15.0091 4.75299 14.8162Z" fill="#FEE993"/>
<path d="M5.51172 16.9272C5.62549 16.8135 5.73926 16.6997 5.85303 16.5859C5.94701 16.5909 5.98164 16.67 6.03605 16.7294C6.318 17.046 6.61479 17.3477 6.93631 17.6297C6.83738 17.7434 6.73351 17.8572 6.63458 17.966C6.22402 17.6593 5.84808 17.3131 5.51172 16.9272Z" fill="#EFCD04"/>
<path d="M7.00627 15.4736C6.91229 15.2758 6.7441 15.1373 6.6155 14.9691C6.32365 14.5931 6.09611 14.1776 5.85868 13.7671C5.63114 13.2526 5.42339 12.7333 5.30467 12.1842C5.13154 11.4026 5.07713 10.6211 5.14638 9.81977C5.2651 8.53862 5.68555 7.3663 6.41764 6.31764C7.57017 4.66056 9.15306 3.64652 11.1267 3.24586C11.4779 3.17166 11.839 3.11725 12.2051 3.12714C12.5018 3.1766 12.7937 3.21618 13.0905 3.27059C14.2331 3.48329 15.2521 3.9631 16.1771 4.66056C16.558 4.94745 16.8795 5.29371 17.2159 5.63007C17.2505 5.6647 17.2851 5.69932 17.2851 5.75374C17.201 5.75374 17.1615 5.82793 17.107 5.8774C16.5827 6.39678 16.0633 6.92111 15.539 7.44049C15.4895 7.48996 15.4401 7.52953 15.3857 7.57405C15.3708 7.53943 15.356 7.5048 15.3461 7.47017C15.0839 6.59464 14.5398 5.96149 13.7137 5.57071C13.5604 5.49652 13.3329 5.48168 13.2587 5.36791C13.1795 5.2393 13.2389 5.02165 13.229 4.84358C13.2141 4.59625 13.1399 4.37366 12.9223 4.22032C12.6305 4.01751 12.3436 4.03235 11.9825 4.27473C11.6857 3.92353 11.0426 4.06203 10.8596 4.51711C10.7656 4.74959 10.7904 4.99197 10.7953 5.22941C10.8002 5.36791 10.7458 5.41737 10.6222 5.45694C9.75158 5.7389 9.13822 6.30774 8.78701 7.1536C8.57926 7.66309 8.51496 8.19236 8.59905 8.74637C8.67324 9.26576 8.85626 9.73073 9.20747 10.1264C9.59824 10.5617 10.0929 10.8289 10.637 11.0119C10.7458 11.0514 10.8002 11.096 10.7953 11.2196C10.7854 11.551 10.7903 11.8874 10.7903 12.2188C10.3847 11.9418 10.1374 11.9369 9.75653 12.2089C9.7219 12.1446 9.66749 12.11 9.60319 12.0803C9.12338 11.8627 8.56442 12.2139 8.56937 12.7382C8.56937 13.218 8.67819 13.6731 8.90078 14.0985C8.3814 14.6129 7.85707 15.1323 7.33769 15.6468C7.3179 15.6665 7.31295 15.7012 7.30306 15.7308C7.20413 15.6468 7.1052 15.5627 7.00627 15.4736Z" fill="#FEBC00"/>
<path d="M9.75151 12.2084C10.1324 11.9363 10.3748 11.9413 10.7853 12.2183C10.909 12.3864 10.9782 12.5645 10.9881 12.7822C11.0079 13.257 11.2107 13.6478 11.5916 13.9397C11.6312 13.9693 11.6757 14.0336 11.7351 14.0089C11.7944 13.9842 11.7647 13.91 11.7647 13.8605C11.7647 12.9899 11.7598 12.1193 11.7697 11.2488C11.7697 11.1053 11.7202 11.0459 11.5867 11.0064C11.1415 10.8629 10.7309 10.6552 10.3847 10.3336C9.66742 9.67576 9.44977 8.8398 9.57343 7.90986C9.73172 6.70786 10.4143 5.90652 11.5323 5.48112C11.7301 5.40692 11.7845 5.32778 11.7697 5.13487C11.745 4.82818 11.7647 4.52644 11.9873 4.28407C12.3484 4.04169 12.6353 4.0219 12.9272 4.22965C13.1448 4.383 13.224 4.60064 13.2339 4.85291C13.2437 5.03099 13.1794 5.24863 13.2635 5.37724C13.3377 5.49596 13.5653 5.5108 13.7186 5.58005C14.5447 5.97083 15.0888 6.60398 15.351 7.47951C15.3609 7.51414 15.3757 7.54876 15.3905 7.58339C15.4153 7.79114 15.4499 7.99395 15.4598 8.2017C15.4746 8.50838 15.3609 8.76066 15.0838 8.90905C14.8167 9.0525 14.5546 9.03766 14.3023 8.85959C14.2875 8.84969 14.2677 8.84475 14.2528 8.8398C14.0995 8.66667 14.0203 8.47871 14.0105 8.23633C13.9907 7.74662 13.7829 7.34596 13.3773 7.05411C13.3427 7.02938 13.313 6.98486 13.2635 7.00465C13.2091 7.02443 13.2339 7.07884 13.2339 7.11842C13.2339 7.68232 13.2388 8.24127 13.2388 8.80518C13.2388 9.11681 13.2388 9.42349 13.2388 9.73512C13.2042 9.88846 13.2635 9.96266 13.4169 10.0121C14.2034 10.2792 14.8711 10.7096 15.2125 11.506C15.9198 13.1482 15.0937 15.0081 13.4119 15.5621C13.2635 15.6116 13.224 15.6759 13.2339 15.8193C13.2437 15.9776 13.2487 16.1408 13.219 16.2991C13.1201 16.8729 12.5463 17.1104 12.0665 16.7888C12.0417 16.774 12.017 16.7542 11.9873 16.7394C11.8241 16.5465 11.7548 16.3239 11.7647 16.0716C11.7697 15.9677 11.7598 15.8589 11.7697 15.755C11.7796 15.6462 11.7301 15.6066 11.6361 15.572C10.5133 15.1961 9.8356 14.4195 9.58827 13.2719C9.50913 12.8959 9.45966 12.52 9.75151 12.2084ZM13.2289 12.7723C13.2289 13.1482 13.2289 13.5241 13.2289 13.9001C13.2289 14.0237 13.2586 14.0435 13.3625 13.9693C13.5851 13.8061 13.7582 13.6033 13.872 13.3461C14.1341 12.7574 14.0352 11.9116 13.4169 11.5802C13.3625 11.5505 13.313 11.4862 13.2536 11.5208C13.2042 11.5505 13.2289 11.6247 13.2289 11.6742C13.2289 12.0451 13.2289 12.4062 13.2289 12.7723ZM11.7647 8.25117C11.7647 7.87523 11.7647 7.4993 11.7647 7.11842C11.7647 7.07884 11.7845 7.01949 11.745 6.9997C11.6905 6.96507 11.6559 7.02443 11.6163 7.04916C11.2206 7.33606 11.0129 7.73178 10.9881 8.21159C10.9634 8.73098 11.1167 9.17616 11.6163 9.43338C11.745 9.50263 11.7647 9.46801 11.7647 9.3394C11.7598 8.9783 11.7647 8.61226 11.7647 8.25117Z" fill="#FEE892"/>
<path d="M9.75253 12.2093C9.46068 12.5209 9.5052 12.8969 9.58435 13.258C9.82673 14.4105 10.5093 15.1871 11.6322 15.5581C11.7311 15.5927 11.7757 15.6323 11.7658 15.7411C11.7559 15.845 11.7658 15.9489 11.7608 16.0577C11.7509 16.31 11.8202 16.5326 11.9834 16.7255C11.741 17.0322 11.1474 16.9678 10.9347 16.6117C10.8012 16.3891 10.7715 16.1467 10.7962 15.8994C10.821 15.6867 10.7567 15.5927 10.5341 15.5136C9.80694 15.2613 9.26777 14.7765 8.90173 14.0989C8.67914 13.6735 8.57031 13.2134 8.57031 12.7386C8.57031 12.2093 9.12432 11.8631 9.60413 12.0807C9.66844 12.1104 9.72285 12.145 9.75253 12.2093Z" fill="#F58E01"/>
<path d="M7.0041 15.4727C7.10303 15.5617 7.20196 15.6458 7.30089 15.7348C7.49875 15.9574 7.73618 16.1404 7.96867 16.3284C8.01319 16.363 8.06265 16.3878 8.08244 16.4471C8.07255 16.4768 8.0676 16.5114 8.04781 16.5263C7.67682 16.8923 7.30584 17.2583 6.93485 17.6244C6.61332 17.3474 6.31653 17.0456 6.03458 16.7241C5.98017 16.6648 5.94555 16.5906 5.85156 16.5807C6.20276 16.2245 6.55397 15.8733 6.90517 15.5172C6.9299 15.4924 6.96453 15.4727 7.0041 15.4727Z" fill="#FEDD50"/>
<path d="M13.241 8.79596C13.241 8.23205 13.2361 7.6731 13.2361 7.1092C13.2361 7.06962 13.2113 7.01521 13.2658 6.99543C13.3103 6.98059 13.3449 7.02016 13.3795 7.04489C13.7802 7.33674 13.9879 7.7374 14.0127 8.22711C14.0226 8.46454 14.1017 8.65745 14.2551 8.83058C14.166 8.88005 14.077 8.92951 13.9879 8.97898C13.7109 9.00866 13.4587 8.97898 13.241 8.79596Z" fill="#F58E02"/>
<path d="M13.2383 8.79492C13.4559 8.97794 13.7131 9.00762 13.9803 8.97794C13.7527 9.24505 13.5004 9.49238 13.2383 9.72486C13.2383 9.41323 13.2383 9.10655 13.2383 8.79492Z" fill="#FEBC00"/>
<path d="M11.9895 4.27861C11.762 4.52099 11.7471 4.82273 11.7719 5.12941C11.7867 5.32232 11.7323 5.40147 11.5344 5.47567C10.4165 5.90107 9.72894 6.7024 9.5756 7.9044C9.45194 8.83435 9.66958 9.67031 10.3868 10.3282C10.7331 10.6448 11.1486 10.8525 11.5888 11.0009C11.7224 11.0454 11.7719 11.0998 11.7719 11.2433C11.7669 12.1139 11.7669 12.9845 11.7669 13.8551C11.7669 13.9045 11.7966 13.9787 11.7372 14.0034C11.6828 14.0282 11.6383 13.9639 11.5938 13.9342C11.2129 13.6424 11.0101 13.2516 10.9903 12.7767C10.9804 12.5591 10.9161 12.381 10.7875 12.2128C10.7875 11.8814 10.7875 11.545 10.7924 11.2136C10.7974 11.09 10.743 11.0454 10.6342 11.0059C10.09 10.8228 9.59539 10.5508 9.20461 10.1204C8.85341 9.72472 8.67039 9.25974 8.59619 8.74036C8.51705 8.1913 8.57641 7.65708 8.78416 7.14759C9.13041 6.30173 9.74873 5.73288 10.6193 5.45093C10.743 5.41136 10.7974 5.3619 10.7924 5.22339C10.7875 4.98596 10.7628 4.74358 10.8567 4.5111C11.0497 4.06591 11.6927 3.92246 11.9895 4.27861Z" fill="#F58E01"/>
<path d="M13.2288 12.7736C13.2288 12.4076 13.2288 12.0465 13.2288 11.6804C13.2288 11.626 13.2041 11.5518 13.2536 11.5271C13.3129 11.4925 13.3624 11.5617 13.4168 11.5864C14.0351 11.9179 14.1341 12.7637 13.8719 13.3523C13.7581 13.6046 13.585 13.8074 13.3624 13.9756C13.2635 14.0498 13.2288 14.03 13.2288 13.9064C13.2338 13.5255 13.2288 13.1495 13.2288 12.7736Z" fill="#F58E02"/>
<path d="M11.7635 8.25124C11.7635 8.61728 11.7586 8.97838 11.7635 9.34442C11.7635 9.47303 11.7437 9.50765 11.6151 9.4384C11.1155 9.17624 10.9622 8.73105 10.9869 8.21661C11.0067 7.7368 11.2194 7.34108 11.6151 7.05418C11.6497 7.02945 11.6893 6.97009 11.7437 7.00472C11.7833 7.02945 11.7635 7.08386 11.7635 7.12344C11.7635 7.49442 11.7635 7.87531 11.7635 8.25124Z" fill="#F58E02"/>
</svg>
