<svg width="12" height="12" viewBox="0 0 12 12" fill="none" xmlns="http://www.w3.org/2000/svg">
<path d="M1.73857 3.0578C1.38687 2.97573 1.14654 2.76234 1.03712 2.39712C1.02931 2.37045 1.03126 2.33557 1 2.3171C1 2.20835 1 2.09756 1 1.98881C1.05666 1.90469 1.06448 1.80004 1.11333 1.71182C1.31067 1.3548 1.72098 1.15988 2.09613 1.25221C2.48496 1.34865 2.76436 1.70361 2.77608 2.12833C2.78195 2.33762 2.72333 2.53049 2.60219 2.70079C2.58265 2.72746 2.56702 2.75824 2.54943 2.78491C2.31497 2.99625 2.0551 3.11936 1.73857 3.0578Z" fill="#FE9F01"/>
<path d="M10.9844 2.31094C10.9199 2.64949 10.6659 2.94085 10.3357 3.03934C10.3122 3.04549 10.2907 3.05165 10.2673 3.0578C10.0875 3.09679 9.91559 3.06396 9.74951 2.99215C9.63619 2.9429 9.55217 2.85467 9.45252 2.78696C9.38804 2.65975 9.30207 2.5428 9.26299 2.39917C9.0891 1.78158 9.60102 1.14962 10.2067 1.2399C10.3943 1.26863 10.576 1.34454 10.7167 1.47996C10.7851 1.54562 10.8417 1.62154 10.8867 1.70566C10.9101 1.7508 10.9316 1.79594 10.9472 1.84313C11.0039 2.00112 11.0117 2.16116 10.9844 2.31094Z" fill="#FE7817"/>
<path d="M9.45057 2.78696C9.55021 2.85467 9.63619 2.9429 9.74756 2.99214C9.91559 3.06396 10.0856 3.09679 10.2653 3.0578C10.0328 3.89084 9.80031 4.72592 9.5678 5.55896C9.45447 5.96316 9.33919 6.36532 9.22392 6.76747C8.15123 6.76747 7.07659 6.76747 6.00391 6.76747L6.00195 6.76542C6.00195 6.39609 6.00195 6.02677 6.00195 5.6595C6.26573 5.3866 6.5295 5.11371 6.79132 4.83877C6.85971 4.76696 6.97499 4.69515 6.98085 4.61718C6.98671 4.5269 6.86166 4.46124 6.79132 4.38737C6.5295 4.11243 6.26573 3.83954 6.00195 3.56665C6.00195 2.99214 6.00195 2.41764 6.00195 1.84313C6.03322 1.83903 6.06643 1.83492 6.09769 1.83492C6.2286 1.82877 6.34193 1.75901 6.46503 1.72002C6.45721 1.72413 6.52755 1.94983 6.53341 1.96829C6.57249 2.10576 6.61743 2.24118 6.67018 2.37455C6.82259 2.76234 7.00039 3.13372 7.30129 3.42097C7.47909 3.59127 7.6823 3.69797 7.93239 3.69181C8.24306 3.68566 8.52442 3.58307 8.7882 3.42097C8.98359 3.30197 9.14967 3.14398 9.30402 2.97368C9.35678 2.91623 9.40172 2.85057 9.45057 2.78696ZM7.75264 4.80594C7.74482 4.8121 7.7331 4.82031 7.72528 4.83056C7.61 4.95162 7.49668 5.07268 7.37945 5.19168C7.33841 5.23272 7.36772 5.25529 7.39312 5.28196C7.49863 5.39276 7.6061 5.50356 7.70965 5.61641C7.74873 5.65744 7.77218 5.6595 7.81125 5.61641C7.91481 5.50356 8.02032 5.39071 8.12974 5.28196C8.16882 5.24093 8.17077 5.2163 8.12974 5.17527C8.02227 5.06652 7.91676 4.95367 7.81125 4.84288C7.79562 4.82851 7.78195 4.80594 7.75264 4.80594Z" fill="#FE9E00"/>
<path d="M6.00195 1.84313C6.00195 2.41764 6.00195 2.99214 6.00195 3.56665L6.00391 3.57075C5.98437 3.58717 5.96092 3.60153 5.94334 3.62C5.6483 3.92777 5.35522 4.23964 5.06018 4.54536C5.00743 4.59871 5.00743 4.62744 5.06018 4.68283C5.31809 4.94752 5.57014 5.21836 5.82806 5.48509C5.88472 5.54459 5.93357 5.61436 6.00586 5.65744L6.00391 5.66155C6.00391 6.03087 6.00391 6.4002 6.00391 6.76747C4.93122 6.76747 3.85658 6.76747 2.7839 6.76747C2.56897 6.00009 2.35209 5.23272 2.13716 4.46534C2.0043 3.99548 1.87339 3.52561 1.74248 3.05575C2.0551 3.11936 2.31497 2.99625 2.54748 2.78696C2.53185 2.80133 2.74287 3.02087 2.7585 3.03728C3.03204 3.32659 3.35834 3.55229 3.73935 3.65283C4.14185 3.75952 4.4916 3.67745 4.78468 3.34506C5.15201 2.92649 5.37866 2.37045 5.51153 1.82467C5.51544 1.81236 5.54084 1.71797 5.5467 1.72002C5.69519 1.77953 5.83978 1.84724 6.00195 1.84313ZM4.24541 4.79774C4.23173 4.81005 4.21805 4.81825 4.20633 4.82851C4.09105 4.94957 3.97773 5.07063 3.86245 5.18963C3.82141 5.23067 3.84877 5.25324 3.87612 5.27991C3.98163 5.39071 4.0891 5.49945 4.19265 5.6123C4.22782 5.65129 4.25322 5.66155 4.29426 5.61641C4.39977 5.49945 4.50723 5.38866 4.61665 5.27581C4.65182 5.23887 4.65573 5.21425 4.61665 5.17732C4.50723 5.06652 4.39977 4.95162 4.2923 4.83877C4.27862 4.82851 4.26299 4.8162 4.24541 4.79774Z" fill="#FCBE00"/>
<path d="M5.49394 1.87596C5.46073 2.07088 5.38843 2.25349 5.31419 2.4361C5.18132 2.76645 5.01915 3.07832 4.78273 3.34506C4.4916 3.67745 4.1399 3.75952 3.7374 3.65283C3.44041 3.57486 3.17077 3.43944 2.94607 3.21784C3.22939 2.85878 3.57913 2.58383 3.96796 2.36429C4.44666 2.0955 4.95662 1.93752 5.49394 1.87596Z" fill="#FE4C01"/>
<path d="M9.05393 3.20758C8.98359 3.30607 8.88394 3.36352 8.78624 3.42302C8.52247 3.58512 8.24111 3.68771 7.93044 3.69386C7.68034 3.69797 7.47714 3.59332 7.29934 3.42302C6.99844 3.13372 6.82259 2.76234 6.66823 2.3766C6.60375 2.21246 6.54709 2.04626 6.51192 1.87391C6.97108 1.93136 7.41266 2.05242 7.83079 2.2576C8.29973 2.48535 8.7159 2.79107 9.05393 3.20758Z" fill="#CC1F0D"/>
<path d="M6.46503 1.72002C6.34193 1.75901 6.23056 1.82877 6.09769 1.83492C6.06643 1.83698 6.03322 1.84108 6.00195 1.84313C6.00195 1.22964 6.00195 0.614099 6.00195 0.000608403C6.56467 -0.0219615 7.00821 0.587426 6.85189 1.16193C6.78742 1.39994 6.64478 1.57229 6.46503 1.72002Z" fill="#FE7817"/>
<path d="M6.00195 0.000608403C6.00195 0.614099 6.00195 1.22964 6.00195 1.84313C5.83978 1.84518 5.69519 1.77953 5.5467 1.72002C5.37866 1.58666 5.23603 1.43277 5.17155 1.21323C4.98789 0.605892 5.39429 0.0108674 6.00195 0.000608403Z" fill="#FE9F01"/>
<path d="M2.77999 6.76952C3.85268 6.76952 4.92732 6.76952 6 6.76952L6.00195 6.77158C6.00195 7.17989 6.00195 7.59025 6.00195 7.99856C5.6737 8.00061 5.34545 8.00061 5.01524 8.00266C4.30012 8.00266 3.58304 8.00266 2.86792 8.00471C2.79562 8.00471 2.77413 7.9883 2.77608 7.91033C2.78195 7.52664 2.77999 7.14706 2.77999 6.76952Z" fill="#FE9E00"/>
<path d="M6.00195 7.99651C6.00195 7.5882 6.00195 7.17783 6.00195 6.76952C7.07464 6.76952 8.14928 6.76952 9.22196 6.76952C9.22196 7.15526 9.22196 7.541 9.22587 7.92879C9.22587 7.97599 9.22196 8.00266 9.1653 8.00266C8.1102 7.99856 7.05705 7.99651 6.00195 7.99651Z" fill="#FE7816"/>
<path d="M6.00195 3.56665C6.26573 3.83954 6.5295 4.11243 6.79132 4.38737C6.86166 4.46124 6.98671 4.5269 6.98085 4.61718C6.97499 4.69515 6.86166 4.76696 6.79132 4.83877C6.5295 5.11371 6.26573 5.3866 6.00195 5.6595L6.00391 5.65539C6.00391 4.95983 6.00391 4.26427 6.00391 3.5687L6.00195 3.56665Z" fill="#CC1E0D"/>
<path d="M7.75264 4.80594C7.78195 4.80594 7.79562 4.82851 7.81125 4.84493C7.91676 4.95572 8.02227 5.06857 8.12974 5.17732C8.17077 5.21836 8.16882 5.24298 8.12974 5.28401C8.02227 5.39276 7.91481 5.50356 7.81125 5.61846C7.77218 5.66155 7.74873 5.65949 7.70965 5.61846C7.6061 5.50561 7.49863 5.39481 7.39312 5.28401C7.36772 5.25734 7.33841 5.23477 7.37945 5.19373C7.49668 5.07473 7.61 4.95162 7.72528 4.83262C7.7331 4.82031 7.74482 4.8121 7.75264 4.80594Z" fill="#CD210D"/>
<path d="M6.00391 3.57075C6.00391 4.26632 6.00391 4.96188 6.00391 5.65744C5.93357 5.61436 5.88472 5.54459 5.8261 5.48509C5.57015 5.21836 5.31614 4.94752 5.05823 4.68284C5.00547 4.62949 5.00547 4.60076 5.05823 4.54536C5.35522 4.23964 5.6483 3.92777 5.94138 3.62C5.96288 3.60153 5.98437 3.58717 6.00391 3.57075Z" fill="#FE4C00"/>
<path d="M4.24541 4.79774C4.26299 4.81415 4.27862 4.82646 4.2923 4.84082C4.39977 4.95367 4.50723 5.06858 4.61665 5.17937C4.65377 5.21631 4.65182 5.24093 4.61665 5.27786C4.50723 5.38866 4.39781 5.50151 4.29426 5.61846C4.25322 5.6636 4.22782 5.65334 4.19265 5.61436C4.0891 5.50151 3.98163 5.39276 3.87612 5.28196C3.85072 5.25529 3.82337 5.23272 3.86245 5.19168C3.97773 5.07268 4.09301 4.95162 4.20633 4.83056C4.2161 4.81825 4.22978 4.81005 4.24541 4.79774Z" fill="#FE4E00"/>
</svg>
