<svg width="36" height="31" viewBox="0 0 36 31" fill="none" xmlns="http://www.w3.org/2000/svg">
<g clip-path="url(#clip0_1810_379)">
<path d="M26.3571 28.4923C26.3303 28.6621 26.2983 28.8247 26.2904 28.9975C26.2508 29.6165 25.9356 29.9859 25.3408 30.1307C18.8187 29.104 12.2967 28.0773 5.77459 27.0506C5.25309 26.73 5.06033 26.2807 5.21909 25.6804C5.26365 25.5199 5.27784 25.3481 5.31084 25.1792C5.44617 25.7484 5.80033 26.0298 6.38982 26.1226C12.6003 27.0873 18.8088 28.0647 25.0154 29.0546C25.6049 29.1474 26.0346 28.9894 26.3571 28.4923Z" fill="#9E9E9E"/>
<path d="M29.9998 12.0414C30.2945 11.108 31.1412 10.5064 32.0759 10.5698C33.0169 10.6341 33.7658 11.3064 33.9576 12.2519C33.9718 12.325 33.9434 12.4237 34.0306 12.4825C34.0207 12.5454 34.0108 12.6083 34.0008 12.6712C33.8355 12.6194 33.754 12.729 33.6652 12.844C33.1853 13.4839 32.4816 13.7083 31.7561 13.5812C31.0547 13.4644 30.4883 13.0207 30.2441 12.2861C30.2002 12.1567 30.1543 12.0399 29.9998 12.0414ZM33.5315 12.3459C33.5813 12.0702 33.4038 11.8102 33.1298 11.7541C32.8559 11.6981 32.5901 11.8755 32.535 12.144C32.4707 12.4303 32.6588 12.7049 32.9473 12.7503C33.2212 12.8063 33.4817 12.6217 33.5315 12.3459Z" fill="#838383"/>
<path d="M30.0032 12.0416C30.163 12.0474 30.2099 12.1579 30.2475 12.2863C30.4917 13.0209 31.0591 13.4583 31.7595 13.5815C32.485 13.7086 33.1824 13.4832 33.6686 12.8442C33.7574 12.7293 33.8389 12.6196 34.0043 12.6714C33.9677 12.9042 33.932 13.1306 33.8954 13.3633C33.7211 13.6131 33.594 13.8896 33.363 14.0917C32.8699 14.5298 32.3005 14.7173 31.6463 14.6272C31.2479 14.5452 30.907 14.3432 30.568 14.1287C30.0065 13.5311 29.7669 12.8488 30.0032 12.0416Z" fill="#808080"/>
<path d="M31.0091 15.7387C30.1601 17.2939 29.3112 18.8491 28.456 20.4033C27.6368 21.8923 26.8113 23.3803 25.9931 24.8629C25.9571 24.9282 25.9211 24.9934 25.8799 25.0514C23.5031 24.6772 21.1273 24.2968 18.7505 23.9226C18.7564 23.7624 18.7937 23.6071 18.7673 23.4483C18.6633 22.884 18.7891 22.4526 19.3502 22.1542C19.7222 21.9549 19.8242 21.552 19.7235 21.13C19.6228 20.7081 19.3581 20.3892 18.9363 20.3744C18.3422 20.3518 18.0986 20.062 18.0554 19.5202C18.0474 19.4481 18.0332 19.3749 18.0055 19.3061C17.9134 19.0338 17.7623 18.8102 17.5147 18.6681C16.9859 18.3528 16.3403 18.5347 16.0301 19.1176C15.765 19.6173 15.5003 19.9109 14.8455 19.7433C14.2533 19.5856 13.72 20.1978 13.7503 20.8214C13.7662 21.2107 14.0312 21.4458 14.2246 21.7276C14.3293 21.8794 14.3616 22.0006 14.287 22.1886C14.1593 22.5102 14.0127 22.8287 13.9573 23.181C12.609 22.9687 11.2659 22.7637 9.91762 22.5515C9.12745 22.4271 8.58945 21.8848 8.54819 21.0854C8.53135 20.7025 8.41054 20.3676 8.29172 20.0201C7.42364 17.4921 6.56283 14.9587 5.70829 12.4263C5.55085 11.9567 5.70961 11.7239 6.22253 11.6499C6.65491 12.6591 7.05924 13.6832 7.52596 14.6784C7.95009 15.5767 8.40229 16.4601 8.91686 17.3146C8.95713 17.3854 9.01818 17.4466 9.07199 17.513C9.29313 17.9862 9.62848 18.387 9.97307 18.77C10.3777 19.2205 10.8144 19.6309 11.4653 19.7011C11.7432 19.7319 12.0053 19.6185 12.2789 19.6358C12.501 19.7352 12.7037 19.6318 12.9047 19.5796C14.0688 19.2472 14.8656 18.4315 15.5046 17.475C16.5073 15.9633 17.1193 14.2806 17.5061 12.5173C17.6609 11.8197 18.1329 11.475 18.8363 11.5793C19.0119 11.607 19.1937 11.6356 19.3703 11.6569C19.3 13.5732 19.3079 15.4824 19.6456 17.3791C19.7529 17.9633 19.8935 18.5397 20.0945 19.0999C20.1351 19.2095 20.1476 19.3339 20.2981 19.3576C20.2509 19.4533 20.2882 19.543 20.3255 19.6326C20.7777 20.6385 21.8013 21.8116 23.2635 21.3005C23.3691 21.3236 23.4661 21.3195 23.5734 21.2913C24.3451 21.084 25.055 20.7381 25.7204 20.3079C27.4685 19.1649 28.8564 17.6559 30.1001 16.0017C30.4106 15.5801 30.5397 15.5359 31.0091 15.7387Z" fill="#BABABA"/>
<path d="M6.21547 11.6424C5.70882 11.7173 5.54379 11.9492 5.70124 12.4187C6.56205 14.9521 7.42286 17.4855 8.28466 20.0126C8.40349 20.3601 8.52429 20.6949 8.54113 21.0779C8.5771 21.87 9.12039 22.4196 9.91057 22.544C11.2589 22.7562 12.6019 22.9612 13.9502 23.1734C13.8017 23.872 14.5892 24.6664 15.454 24.2353C15.7336 24.0923 16.0392 23.8246 16.2963 23.8651C16.5534 23.9055 16.7611 24.2605 16.9842 24.4761C17.6747 25.1521 18.6619 24.6371 18.7414 23.9277C21.1182 24.3018 23.494 24.6823 25.8708 25.0564C25.7722 25.7242 25.6662 26.3972 25.5675 27.0649C19.2085 26.0639 12.8557 25.0638 6.49671 24.0628C6.59276 23.4527 6.68782 22.8488 6.79014 22.2397C6.81391 22.0887 6.79179 21.9434 6.76242 21.8034C6.02009 17.9866 5.27776 14.1698 4.53544 10.353C4.93977 10.3973 5.32627 10.3099 5.71476 10.2099C5.88375 10.6877 6.05275 11.1656 6.21547 11.6424Z" fill="#9F9F9F"/>
<path d="M6.49531 24.0635C12.8543 25.0646 19.2071 26.0646 25.5661 27.0657C26.2649 27.2401 26.5203 27.6993 26.3579 28.486C26.0355 28.9831 25.6057 29.141 25.0037 29.0463C18.7972 28.0563 12.5886 27.079 6.37815 26.1142C5.79492 26.0224 5.43449 25.7401 5.29916 25.1709C5.39257 24.3734 5.77676 24.0149 6.49531 24.0635Z" fill="#BABABA"/>
<path d="M12.2771 19.6297C12.0045 19.6061 11.7414 19.7258 11.4635 19.695C10.8126 19.6248 10.377 19.2081 9.97131 18.7639C9.62672 18.3809 9.29137 17.9801 9.07022 17.5069C9.38345 15.558 9.68942 13.6144 10.0026 11.6655C10.3829 11.822 10.7773 11.8067 11.1727 11.7852C11.613 13.9688 12.2718 16.0707 13.5601 17.9301C13.6657 18.0756 13.7786 18.2159 13.8915 18.3561C13.8978 18.4796 13.8043 18.5422 13.7403 18.6224C13.3403 19.0815 12.8082 19.3588 12.2771 19.6297Z" fill="#7F7F7F"/>
<path d="M23.2653 21.2882C21.8031 21.7993 20.7796 20.6262 20.3274 19.6203C20.2891 19.5369 20.2591 19.442 20.3 19.3453C21.3321 18.7085 22.1566 17.8391 22.9128 16.9139C23.6689 15.9887 24.3274 14.9901 24.904 13.94C25.2737 14.082 25.6444 14.2177 26.0543 14.1855C25.7546 16.1301 25.4477 18.08 25.148 20.0246C25.0661 20.0956 24.9915 20.1612 24.9097 20.2321C24.3892 20.64 23.8337 20.9845 23.2653 21.2882Z" fill="#7F7F7F"/>
<path d="M12.2777 19.6297C12.8088 19.3588 13.3409 19.0816 13.7366 18.6089C13.8006 18.5287 13.8941 18.4661 13.8878 18.3426C14.0891 18.3292 14.1565 18.1464 14.2472 18.0189C15.0572 16.9152 15.6312 15.6777 16.1141 14.4066C16.6468 12.9821 17.1052 11.5395 17.4046 10.046C17.4528 10.0665 17.5102 10.0691 17.5502 10.1011C18.1697 10.5339 18.8298 10.5862 19.5269 10.3221C19.4012 10.7535 19.4708 11.2092 19.3754 11.6519C19.1998 11.6242 19.018 11.5956 18.8414 11.5743C18.1327 11.4627 17.666 11.8147 17.5112 12.5122C17.1244 14.2755 16.5177 15.9655 15.5097 17.4699C14.8697 18.4327 14.0677 19.2411 12.9098 19.5745C12.7015 19.632 12.4936 19.7282 12.2777 19.6297Z" fill="#9F9F9F"/>
<path d="M16.7735 7.89695C17.0864 6.88908 18.0291 6.28975 19.045 6.44968C20.061 6.60961 20.7686 7.46229 20.762 8.52482C20.5967 8.47301 20.5488 8.61373 20.4693 8.71079C19.9484 9.32495 19.2639 9.59105 18.4965 9.44447C17.7604 9.30281 17.2511 8.823 16.9851 8.1043C16.9382 7.99378 16.9092 7.89252 16.7735 7.89695ZM19.2246 8.53419C19.5005 8.57762 19.7547 8.39203 19.8045 8.11625C19.8543 7.84048 19.6705 7.57948 19.4018 7.53074C19.1143 7.47904 18.8467 7.66896 18.8074 7.95929C18.7638 8.23605 18.9549 8.49174 19.2246 8.53419Z" fill="#838383"/>
<path d="M2.91025 7.77684C3.22216 6.77525 4.17209 6.17062 5.18175 6.32956C6.19142 6.4885 6.90436 7.34846 6.89875 8.4047C6.72712 8.3519 6.65615 8.47609 6.57463 8.58573C6.08415 9.21113 5.39828 9.44479 4.66653 9.3167C3.95986 9.19257 3.40601 8.75086 3.16077 8.02254C3.1106 7.89217 3.06472 7.77537 2.91025 7.77684ZM5.85674 8.49206C6.13168 8.54179 6.3921 8.35718 6.44095 8.08769C6.49607 7.81919 6.31948 7.5529 6.04652 7.49059C5.7663 7.43359 5.48607 7.62153 5.44052 7.91087C5.39695 8.18763 5.58179 8.44233 5.85674 8.49206Z" fill="#838383"/>
<path d="M23.2647 21.2884C23.8403 20.9794 24.3948 20.6412 24.9028 20.2313C24.9836 20.1667 25.0592 20.0948 25.1411 20.0239C25.9365 19.4207 26.6204 18.7097 27.3 17.9852C28.4575 16.7558 29.5477 15.4642 30.5696 14.1167C30.9086 14.3312 31.2486 14.5394 31.6479 14.6152C31.435 14.9878 31.2222 15.3603 31.0093 15.7329C30.5462 15.5311 30.4109 15.5742 30.1022 15.9833C28.8576 17.6438 27.4697 19.1528 25.7226 20.2895C25.0562 20.726 24.3473 21.0656 23.5756 21.2729C23.4663 21.3137 23.364 21.3105 23.2647 21.2884Z" fill="#A0A0A0"/>
<path d="M24.3804 12.0531C24.6576 11.3941 25.2986 11.0374 26.0072 11.1489C26.7159 11.2605 27.21 11.7959 27.2777 12.5092C27.1711 12.4924 27.1331 12.5702 27.0783 12.6325C26.5159 13.2659 25.7066 13.3448 25.0187 12.8562C24.7164 12.6539 24.6246 12.2978 24.3804 12.0531Z" fill="#808080"/>
<path d="M2.9109 7.77689C3.07065 7.7827 3.11125 7.89222 3.15515 8.02161C3.40039 8.74992 3.95423 9.19164 4.6609 9.31577C5.39266 9.44386 6.07853 9.21019 6.569 8.5848C6.6568 8.47615 6.72149 8.35097 6.89312 8.40377C6.85748 9.24257 6.43764 9.82752 5.71447 10.2165C5.32598 10.3165 4.93849 10.4102 4.53515 10.3595C3.56245 10.2515 2.49766 9.13638 2.9109 7.77689Z" fill="#808080"/>
<path d="M9.36346 9.63131C9.6757 9.03587 10.1721 8.74015 10.828 8.77893C11.4399 8.81081 11.8686 9.14903 12.1218 9.70456C12.1697 9.80878 12.2238 9.91399 12.1852 10.0368C11.8271 10.7604 10.7009 11.1375 9.89123 10.4428C9.63147 10.215 9.52651 9.90192 9.36346 9.63131Z" fill="#808080"/>
<path d="M16.7708 7.89711C16.9055 7.89897 16.9345 8.00023 16.9761 8.10347C17.2431 8.81588 17.7514 9.30199 18.4875 9.44364C19.2611 9.59121 19.9394 9.32413 20.4603 8.70996C20.5388 8.61919 20.5867 8.47847 20.753 8.524C20.6619 9.34762 20.3335 10.005 19.5179 10.3278C18.8208 10.5919 18.1607 10.5396 17.5412 10.1069C17.5003 10.0811 17.4438 10.0722 17.3956 10.0517C17.0144 9.65652 16.7371 9.21322 16.6791 8.64329C16.6559 8.38181 16.7259 8.14144 16.7708 7.89711Z" fill="#808080"/>
<path d="M9.36486 9.63127C9.53418 9.90287 9.63914 10.2159 9.89362 10.4365C10.7023 11.1374 11.8295 10.7541 12.1876 10.0305C12.4222 10.6218 11.9641 11.3683 11.508 11.6123C11.3957 11.672 11.2782 11.7244 11.167 11.7778C10.7716 11.7994 10.3772 11.8146 9.99694 11.6581C9.37972 11.2515 9.08793 10.6964 9.23184 9.94552C9.25593 9.83329 9.29257 9.72303 9.36486 9.63127Z" fill="#707070"/>
<path d="M24.3816 12.0532C24.6195 12.297 24.7176 12.654 25.0126 12.8616C25.7078 13.3449 26.5161 13.2723 27.0722 12.6379C27.127 12.5757 27.166 12.4915 27.2716 12.5146C27.3891 13.3195 26.8171 13.9321 26.3019 14.1024C26.2134 14.1336 26.125 14.1648 26.0375 14.1897C25.6276 14.2218 25.2569 14.0861 24.8872 13.9441C24.2433 13.34 24.0729 12.7072 24.3816 12.0532Z" fill="#707070"/>
<path d="M33.5336 12.3469C33.4837 12.6226 33.2243 12.801 32.9484 12.7575C32.6599 12.7121 32.4728 12.4313 32.5361 12.1512C32.5912 11.8827 32.8569 11.7053 33.1309 11.7614C33.4058 11.8111 33.5824 12.0774 33.5336 12.3469Z" fill="#F0F0F0"/>
<path d="M18.7421 23.9277C18.6626 24.6372 17.6753 25.1521 16.9848 24.4762C16.7627 24.2543 16.5541 23.9056 16.297 23.8651C16.0399 23.8247 15.7332 24.0987 15.4547 24.2353C14.5899 24.6664 13.8086 23.8731 13.9509 23.1735C14.0054 22.8276 14.1466 22.5017 14.2806 22.1812C14.3552 21.9931 14.3229 21.872 14.2182 21.7202C14.0248 21.4383 13.7598 21.2032 13.7439 20.814C13.7146 20.1841 14.247 19.5782 14.8391 19.7359C15.4929 19.9097 15.7649 19.6109 16.0237 19.1102C16.3349 18.521 16.9733 18.3443 17.5083 18.6606C17.7549 18.809 17.906 19.0326 17.9991 19.2987C18.0206 19.3665 18.041 19.4406 18.049 19.5128C18.0922 20.0546 18.3285 20.3496 18.9299 20.3669C19.3517 20.3818 19.6164 20.7006 19.7171 21.1226C19.8178 21.5445 19.7221 21.9484 19.3438 22.1467C18.7827 22.4451 18.6622 22.8838 18.7609 23.4408C18.7916 23.6132 18.7481 23.7675 18.7421 23.9277Z" fill="#727272"/>
<path d="M19.2261 8.53413C18.9502 8.49069 18.7654 8.23599 18.8027 7.95824C18.8419 7.66791 19.1169 7.4727 19.3971 7.5297C19.672 7.57943 19.8486 7.84572 19.7998 8.11521C19.7625 8.39296 19.5021 8.57757 19.2261 8.53413Z" fill="#F0F0F0"/>
<path d="M5.85799 8.49309C5.58304 8.44336 5.40547 8.18335 5.44805 7.91288C5.4936 7.62354 5.76755 7.43461 6.05404 7.4926C6.32172 7.54764 6.49832 7.81393 6.44848 8.08971C6.39237 8.36449 6.12666 8.54183 5.85799 8.49309Z" fill="#F0F0F0"/>
</g>
<defs>
<clipPath id="clip0_1810_379">
<rect width="36" height="31" fill="white"/>
</clipPath>
</defs>
</svg>
