<svg width="36" height="31" viewBox="0 0 36 31" fill="none" xmlns="http://www.w3.org/2000/svg">
<path d="M31.2655 18.3404C30.8946 18.9829 30.6076 19.6569 30.2806 20.3226C29.3716 22.1739 28.468 24.0333 27.5577 25.8914C27.536 25.9288 27.5142 25.9662 27.4939 25.9969C25.9179 25.6681 24.3433 25.3325 22.7659 25.0104C22.3452 24.9227 21.9548 25.1907 21.8614 25.6046C21.7776 26.0064 22.0575 26.4353 22.4715 26.5217C23.9139 26.8226 25.3564 27.1236 26.7988 27.4245C26.428 28.1999 26.0572 28.9752 25.673 29.7478C25.5068 30.0766 25.1883 30.2338 24.8477 30.1627C21.836 29.5344 18.8242 28.906 15.8138 28.271C16.022 27.273 16.2317 26.2682 16.4346 25.2622C16.7499 25.3209 16.9957 25.2115 17.2119 24.977C18.1955 23.9031 19.1844 22.8373 20.1747 21.7649C20.3923 21.5237 20.4643 21.2452 20.3614 20.9371C19.88 19.5366 19.392 18.1347 18.9026 16.7396C18.8074 16.4611 18.6136 16.2878 18.3211 16.2198C18.8438 13.7148 19.3678 11.203 19.8972 8.69936C20.2339 8.75562 20.4031 8.97966 20.4994 9.28632C20.8797 10.47 21.2599 11.6537 21.6468 12.8388C21.997 13.9323 22.3539 15.0273 22.7109 16.1222C22.7356 16.2042 22.7318 16.3223 22.8534 16.3407C22.8094 16.4852 22.8738 16.6105 22.9168 16.7383C23.2526 17.8009 23.6032 18.8596 23.9323 19.9207C24.0039 20.1454 24.1044 20.1314 24.2751 20.0482C24.8636 19.7656 25.4614 19.5059 26.0514 19.2166C26.4854 19.0066 26.9445 18.8437 27.3496 18.5718C27.5598 18.5667 27.7269 18.4338 27.9109 18.3534C28.627 18.0275 29.3392 17.6868 30.0566 17.3542C30.7271 17.0468 31.1349 17.2297 31.3508 17.9318C31.3214 18.0724 31.2935 18.2064 31.2655 18.3404Z" fill="#FEC24D"/>
<path d="M16.4399 25.2639C16.2303 26.2686 16.0221 27.2666 15.8206 28.266C14.3514 27.9595 12.8808 27.6597 11.4184 27.3546C9.93586 27.0453 8.44667 26.7346 6.96415 26.4253C6.4032 26.3082 6.21916 26.0881 6.19212 25.5163C6.15916 24.7056 6.12481 23.9017 6.09185 23.091C7.52762 23.3905 8.96199 23.6968 10.3925 23.9882C10.8466 24.083 11.2556 23.8258 11.3437 23.4039C11.4359 22.9618 11.173 22.5854 10.7136 22.4826C9.15093 22.1566 7.59496 21.8319 6.03231 21.5059C5.98537 20.4617 5.92507 19.4146 5.88481 18.3718C5.8043 16.5866 5.73046 14.8028 5.65802 13.0124C5.64247 12.6527 5.8164 12.3534 6.09174 12.2361C6.45172 12.0806 6.76419 12.1528 7.03443 12.4608C7.65442 13.1633 8.2744 13.8658 8.89439 14.5683C8.96195 14.6453 9.01196 14.7396 9.12688 14.7566C9.11291 14.8236 9.16074 14.8615 9.1991 14.9114C9.93837 15.7437 10.6696 16.5812 11.4088 17.4134C11.5147 17.5404 11.5927 17.5007 11.6927 17.3888C12.3875 16.5971 13.0956 15.8083 13.7851 15.0085C13.9216 14.8553 14.1274 14.7374 14.1429 14.496C14.2617 14.5278 14.3041 14.4248 14.3662 14.3609C15.953 12.5671 17.5332 10.772 19.1214 8.97152C19.3322 8.72894 19.5875 8.60747 19.9148 8.67574C19.3921 11.1808 18.8681 13.6926 18.3388 16.1962L18.3374 16.2029C18.0569 16.1444 17.8114 16.219 17.6208 16.4309C16.6035 17.5326 15.5847 18.6411 14.5674 19.7429C14.3702 19.9534 14.3238 20.2093 14.4137 20.4797C14.9042 21.9031 15.3961 23.3197 15.888 24.7364C15.9846 25.0082 16.1731 25.1733 16.4536 25.2318L16.4399 25.2639Z" fill="#FEE980"/>
<path d="M14.1337 14.5152C14.1182 14.7565 13.9125 14.8744 13.776 15.0276C13.0864 15.8274 12.3797 16.6095 11.6835 17.4079C11.5835 17.5198 11.5056 17.5595 11.3996 17.4325C10.6618 16.5936 9.92918 15.7628 9.18992 14.9305C9.15016 14.8873 9.10372 14.8427 9.1177 14.7757C9.7067 13.3888 10.2957 12.002 10.8847 10.6151C11.02 10.3008 11.265 10.1283 11.6009 10.1215C11.9368 10.1147 12.1788 10.291 12.3166 10.5993C12.9218 11.9068 13.5285 13.2076 14.1337 14.5152Z" fill="#FEC24D"/>
<path d="M27.3488 18.5792C26.945 18.8444 26.4859 19.0073 26.0505 19.2239C25.4672 19.5146 24.8628 19.773 24.2742 20.0556C24.1035 20.1388 23.9977 20.1447 23.9314 19.9281C23.6023 18.8669 23.2517 17.8083 22.9159 16.7457C22.8729 16.6179 22.8085 16.4926 22.8526 16.348C23.9463 15.381 25.0334 14.4126 26.1257 13.4523C26.3644 13.2435 26.6458 13.1973 26.9376 13.3351C27.2495 13.4771 27.3984 13.7318 27.3967 14.0739C27.3881 15.0507 27.378 16.0341 27.3693 17.0108C27.3608 17.5193 27.3548 18.0492 27.3488 18.5792Z" fill="#FE9934"/>
<path d="M6.03125 21.5195C7.5939 21.8456 9.14987 22.1702 10.7125 22.4962C11.1733 22.5923 11.4348 22.9754 11.3426 23.4175C11.2532 23.8462 10.8455 24.0966 10.3914 24.0019C8.95565 23.7023 7.51988 23.4028 6.09079 23.1046C6.06204 22.5744 6.01854 22.0481 6.03125 21.5195Z" fill="#FEC24D"/>
<path d="M26.7965 27.4246C25.3541 27.1237 23.9116 26.8227 22.4692 26.5218C22.0485 26.434 21.7739 26.0132 21.8591 25.6047C21.9458 25.1894 22.3362 24.9214 22.7636 25.0105C24.3396 25.3393 25.9156 25.6682 27.4916 25.997C27.2599 26.4729 27.0282 26.9487 26.7965 27.4246Z" fill="#FE9933"/>
<path d="M18.3281 16.2217C18.6139 16.2883 18.8077 16.4615 18.9096 16.7414C19.3976 18.1433 19.887 19.5385 20.3683 20.9389C20.4713 21.247 20.4059 21.5269 20.1817 21.7667C19.1914 22.8392 18.2025 23.905 17.2188 24.9788C17.0041 25.2066 16.7568 25.3228 16.4416 25.264L16.443 25.2573C17.0718 22.2432 17.6993 19.2358 18.3281 16.2217Z" fill="#EF3800"/>
<path d="M18.3237 16.2279C17.6948 19.2421 17.0673 22.2495 16.4385 25.2636C16.158 25.205 15.9628 25.0385 15.8729 24.7681C15.381 23.3515 14.8905 21.9281 14.3986 20.5114C14.302 20.2396 14.3551 19.9851 14.5523 19.7746C15.571 18.6662 16.5884 17.5644 17.6057 16.4626C17.8043 16.2454 18.0446 16.1627 18.3237 16.2279Z" fill="#FE6A4D"/>
</svg>
