<svg width="36" height="31" viewBox="0 0 36 31" fill="none" xmlns="http://www.w3.org/2000/svg">
<path d="M28.9842 13.9381C28.8511 13.5251 28.646 13.1307 28.6005 12.683C28.3929 10.756 30.3227 9.16585 32.1499 9.76766C33.3563 10.1647 34.0763 11.0778 34.181 12.3523C34.1845 12.4032 34.1626 12.4558 34.22 12.4849C34.1658 12.7892 34.1116 13.0934 34.0574 13.3977C33.871 13.5655 33.8194 13.82 33.6722 14.0136C33.0868 14.7695 32.3283 15.1618 31.3724 15.1862C30.7935 15.2024 30.2769 15.0098 29.7991 14.705C29.4782 14.5034 29.2589 14.188 28.9842 13.9381Z" fill="#FE7817"/>
<path d="M28.9857 13.9379C29.2593 14.1939 29.4797 14.5031 29.7995 14.7108C30.2834 15.0168 30.794 15.2082 31.3728 15.192C30.2105 17.5343 29.0472 19.8826 27.8849 22.2249C27.3194 23.3611 26.7489 24.4902 26.1784 25.6193C22.8472 25.0258 19.5099 24.4313 16.1787 23.8378L16.1737 23.8306C16.3689 22.7352 16.564 21.6397 16.7581 20.5503C17.7215 19.8868 18.6848 19.2233 19.6432 18.5526C19.8935 18.3775 20.2895 18.2282 20.3489 18.0002C20.4148 17.7357 20.0611 17.4717 19.8817 17.2137C19.2139 16.2533 18.539 15.298 17.864 14.3426C18.1676 12.6385 18.4712 10.9345 18.7748 9.23039C18.874 9.23552 18.9794 9.24172 19.0764 9.25902C19.4862 9.31319 19.875 9.16896 20.2779 9.12143C20.3004 9.27614 20.264 9.44547 20.3433 9.59773C20.3604 10.1345 20.4485 10.6588 20.5631 11.1753C20.8314 12.4098 21.1874 13.6098 21.97 14.6283C22.4322 15.2318 23.0069 15.6607 23.7868 15.7808C24.7548 15.9344 25.6828 15.7858 26.5876 15.4509C26.9224 15.3285 27.2622 15.2132 27.5327 14.96C27.8925 14.8734 28.1447 14.6169 28.4258 14.4096C28.6261 14.2694 28.8004 14.0995 28.9857 13.9379ZM22.2466 21.5092C22.2742 21.4953 22.3149 21.4775 22.3435 21.4574C22.7655 21.1621 23.1814 20.8658 23.6083 20.5776C23.7574 20.4786 23.6844 20.3965 23.6136 20.3023C23.3445 19.9153 23.0693 19.5272 22.8073 19.1352C22.7137 18.9929 22.637 18.9667 22.4929 19.0729C22.1116 19.3503 21.7244 19.6267 21.3271 19.8887C21.1851 19.9827 21.1589 20.0596 21.2647 20.2041C21.5409 20.5861 21.8089 20.9792 22.0781 21.3662C22.1311 21.4196 22.1556 21.493 22.2466 21.5092Z" fill="#FE9E00"/>
<path d="M16.7565 20.5566C16.5613 21.6521 16.3661 22.7475 16.1721 23.8369C12.8409 23.2435 9.50359 22.6489 6.17238 22.0555C5.91043 19.6604 5.64241 17.2643 5.38046 14.8692C5.21614 13.402 5.05789 11.9359 4.89963 10.4698C5.41907 10.6816 5.95109 10.6822 6.49049 10.5711C6.8795 10.496 7.21022 10.2912 7.55372 10.12C7.80419 10.5414 8.02497 10.9889 8.33157 11.3763C8.40351 11.4645 8.44684 11.5727 8.56386 11.6186C9.15062 12.4013 9.91642 12.9521 10.7914 13.3466C11.985 13.8858 13.1145 13.8359 14.2003 13.0121C15.0766 12.3456 15.7439 11.5164 16.3311 10.61C16.651 10.1145 16.972 9.6128 17.1853 9.04801C17.3245 8.93466 17.3266 8.74667 17.4315 8.61466C17.8552 8.87223 18.2756 9.14805 18.7803 9.23169C18.4767 10.9358 18.1731 12.6398 17.8695 14.3439L17.8734 14.3572C17.8041 14.395 17.7237 14.4247 17.6593 14.4697C16.5804 15.2194 15.5055 15.9823 14.4277 16.7259C14.2357 16.8549 14.2205 16.9401 14.355 17.1336C15.0161 18.0614 15.6557 19.0042 16.3157 19.9381C16.4603 20.1459 16.5751 20.3799 16.7768 20.5477L16.7565 20.5566ZM12.7974 18.5327C12.7746 18.4847 12.7629 18.4449 12.7369 18.4151C12.4379 17.9851 12.1378 17.5612 11.846 17.1262C11.7563 16.9972 11.6837 17.0533 11.5907 17.1184C11.1973 17.3936 10.809 17.6761 10.4045 17.9431C10.2554 18.0421 10.2474 18.1223 10.3542 18.2607C10.6305 18.6427 10.8996 19.0297 11.1616 19.4217C11.2552 19.564 11.3308 19.5963 11.476 19.484C11.8644 19.2016 12.2638 18.9274 12.6572 18.6521C12.7072 18.6171 12.7462 18.5738 12.7974 18.5327Z" fill="#FCBE00"/>
<path d="M6.17267 22.0618C9.50387 22.6553 12.8411 23.2498 16.1723 23.8433L16.1773 23.8504C15.9616 25.0615 15.7447 26.2787 15.529 27.4898C14.5085 27.3143 13.4891 27.1327 12.4626 26.9561C10.2418 26.5605 8.01489 26.1638 5.79301 25.7742C5.5685 25.7342 5.51043 25.6736 5.5577 25.4434C5.77258 24.3075 5.9671 23.1805 6.17267 22.0618Z" fill="#FE9E00"/>
<path d="M15.5274 27.4841C15.7432 26.273 15.96 25.0558 16.1758 23.8447C19.507 24.4382 22.8443 25.0327 26.1755 25.6262C25.9716 26.7704 25.7678 27.9145 25.575 29.0669C25.5501 29.2069 25.5238 29.2839 25.3479 29.2525C22.0734 28.6566 18.7979 28.0668 15.5274 27.4841Z" fill="#FE7816"/>
<path d="M7.54869 10.1267C7.19912 10.2968 6.8684 10.5016 6.48546 10.5778C5.94606 10.6889 5.41404 10.6883 4.8946 10.4765C3.68845 9.97276 3.01113 8.96046 3.05591 7.72517C3.10177 6.48379 4.09183 5.35411 5.31735 5.15174C7.01292 4.87613 8.44352 5.94729 8.61627 7.64831C8.70546 8.51816 8.39179 9.25973 7.7806 9.87922C7.69759 9.95862 7.59357 10.0154 7.54869 10.1267Z" fill="#FE9F01"/>
<path d="M17.1858 9.04828C16.9797 9.60807 16.6587 10.1097 16.3316 10.6103C15.7444 11.5166 15.076 12.352 14.2008 13.0124C13.1211 13.8372 11.9855 13.8861 10.7919 13.3469C9.91084 12.9513 9.14505 12.4005 8.56435 11.6189C9.63392 10.7106 10.8653 10.0886 12.1888 9.65249C13.8114 9.11899 15.4786 8.93251 17.1858 9.04828Z" fill="#FE4C01"/>
<path d="M27.5371 14.9677C27.2666 15.2209 26.9268 15.3362 26.5919 15.4586C25.6871 15.7935 24.7592 15.9421 23.7911 15.7885C23.0123 15.6623 22.4365 15.2395 21.9744 14.636C21.1928 13.6114 20.843 12.4126 20.5674 11.183C20.4539 10.6605 20.3658 10.1361 20.3477 9.60547C21.7432 10.0299 23.0506 10.6333 24.2406 11.4732C25.5766 12.4082 26.7074 13.5453 27.5371 14.9677Z" fill="#CC1F0D"/>
<path d="M20.2752 9.12269C19.8724 9.17022 19.4897 9.31553 19.0738 9.26028C18.9756 9.24907 18.8703 9.24286 18.7721 9.23165C19.0963 7.41195 19.4216 5.58616 19.7458 3.76645C21.5052 4.01083 22.5606 6.06375 21.7716 7.68134C21.4456 8.35164 20.9176 8.78503 20.2752 9.12269Z" fill="#FE7817"/>
<path d="M19.7507 3.7667C19.4265 5.5864 19.1012 7.41219 18.777 9.23189C18.2723 9.14826 17.858 8.87351 17.4283 8.61487C16.9769 8.12631 16.6153 7.59095 16.5311 6.90408C16.2756 4.99994 17.8521 3.45986 19.7507 3.7667Z" fill="#FE9F01"/>
<path d="M17.8633 14.3428C18.5382 15.2981 19.2132 16.2535 19.881 17.2139C20.0604 17.4719 20.414 17.7358 20.3481 18.0004C20.2887 18.2284 19.8988 18.3787 19.6424 18.5528C18.6841 19.2235 17.7207 19.887 16.7574 20.5505L16.7656 20.5394C17.1332 18.4762 17.5007 16.4131 17.8683 14.3499L17.8633 14.3428Z" fill="#CC1E0D"/>
<path d="M22.2435 21.5103C22.1525 21.494 22.122 21.4195 22.0821 21.3622C21.813 20.9752 21.545 20.5821 21.2687 20.2001C21.163 20.0557 21.1831 19.9776 21.3312 19.8847C21.7224 19.6216 22.1146 19.3524 22.4969 19.0689C22.6411 18.9627 22.7189 18.9828 22.8114 19.1312C23.0733 19.5232 23.3485 19.9113 23.6176 20.2983C23.6824 20.3915 23.7615 20.4746 23.6124 20.5736C23.1854 20.8618 22.7685 21.1642 22.3476 21.4534C22.3118 21.4785 22.2771 21.4974 22.2435 21.5103Z" fill="#CD210D"/>
<path d="M17.8722 14.3576C17.5046 16.4207 17.1371 18.4839 16.7695 20.547C16.5738 20.3803 16.459 20.1464 16.3084 19.9374C15.6545 19.0046 15.0088 18.0608 14.3477 17.133C14.2121 16.9456 14.2273 16.8604 14.4204 16.7252C15.5042 15.9827 16.5792 15.2198 17.652 14.4691C17.7224 14.4251 17.7968 14.3944 17.8722 14.3576Z" fill="#FE4C00"/>
<path d="M12.7973 18.5329C12.7461 18.574 12.701 18.6162 12.657 18.6523C12.2637 18.9276 11.8642 19.2018 11.4759 19.4842C11.3317 19.5904 11.2561 19.5581 11.1614 19.4219C10.8995 19.0299 10.6304 18.6429 10.3541 18.2609C10.2533 18.1236 10.2614 18.0434 10.4044 17.9433C10.8027 17.6752 11.1972 17.3938 11.5905 17.1186C11.6764 17.0585 11.7561 16.9974 11.8458 17.1264C12.1388 17.5553 12.4439 17.9864 12.7368 18.4153C12.7628 18.4451 12.7745 18.4848 12.7973 18.5329Z" fill="#FE4E00"/>
</svg>
