<svg width="33" height="34" viewBox="0 0 33 34" fill="none" xmlns="http://www.w3.org/2000/svg">
<path d="M7.77734 3C13.5901 3 19.4099 3 25.2227 3C25.2227 3.4746 25.2227 3.94919 25.2227 4.45213C25.3501 4.45213 25.4492 4.45213 25.5483 4.45213C26.8298 4.45213 28.1113 4.44504 29.3928 4.45921C29.676 4.45921 29.9734 4.51588 30.2424 4.61505C30.6885 4.77797 30.8655 5.18881 31 5.60674C31 7.05887 31 8.51808 31 9.9702C30.9788 10.0623 30.9504 10.1473 30.9434 10.2394C30.5752 13.087 28.345 15.3962 25.5059 15.8495C25.2722 15.885 25.1943 15.97 25.1943 16.2037C25.1873 17.2096 25.0173 18.2013 24.6492 19.1363C23.5447 21.9272 21.5481 23.7477 18.6453 24.541C18.5674 24.5623 18.4966 24.5977 18.3975 24.6331C18.7231 25.6106 19.0347 26.5669 19.3674 27.5161C19.3887 27.5799 19.5374 27.6436 19.6294 27.6436C20.6277 27.6507 21.6331 27.6436 22.6313 27.6507C23.3323 27.6507 23.8137 28.0049 24.0403 28.6566C24.3943 29.6695 24.7483 30.6825 25.1023 31.7025C25.1306 31.7946 25.1589 31.8867 25.1873 31.9929C19.3816 31.9929 13.6184 31.9929 7.83398 31.9929C7.85522 31.915 7.8623 31.8512 7.88354 31.7946C8.25171 30.725 8.61987 29.6553 8.99512 28.5857C9.19336 28.0261 9.68188 27.672 10.2908 27.6507C10.5173 27.6436 10.7439 27.6507 10.9705 27.6507C11.8484 27.6507 12.7263 27.6507 13.6113 27.6507C13.9512 26.6378 14.2839 25.639 14.6238 24.6119C14.4893 24.5765 14.376 24.5481 14.2698 24.5198C11.5227 23.7264 9.58276 22.0193 8.46411 19.3842C8.02515 18.3571 7.83398 17.2733 7.81274 16.1612C7.81274 15.9912 7.77026 15.8991 7.57202 15.8637C4.21606 15.2687 2.00708 12.6265 2 9.23351C2 8.18515 2 7.13679 2 6.08842C2 4.96922 2.50977 4.45921 3.62134 4.45213C4.89575 4.45213 6.17017 4.45213 7.44458 4.45213C7.55078 4.45213 7.66406 4.45213 7.77734 4.45213C7.77734 3.94211 7.77734 3.46751 7.77734 3ZM13.6042 17.4929C13.7317 17.4292 13.8096 17.3867 13.8875 17.3442C14.6875 16.905 15.4946 16.4658 16.2876 16.0195C16.4363 15.9345 16.5496 15.9345 16.6982 16.0195C17.3567 16.395 18.0151 16.7491 18.6807 17.1104C18.9001 17.2308 19.1196 17.3512 19.3816 17.4929C19.3604 17.4008 19.3533 17.3583 19.3462 17.3158C19.1409 16.4941 18.9285 15.6724 18.7373 14.8437C18.709 14.7091 18.7444 14.5249 18.8223 14.4116C19.417 13.5899 20.04 12.7753 20.6489 11.9607C20.6985 11.8898 20.748 11.819 20.833 11.7057C19.863 11.7057 18.9568 11.6986 18.0576 11.7128C17.8665 11.7128 17.7744 11.6561 17.6965 11.479C17.3425 10.6786 16.9814 9.87811 16.6204 9.07767C16.585 9.00684 16.5496 8.936 16.4929 8.83683C16.4292 8.96434 16.3796 9.05642 16.3372 9.14851C15.9902 9.92062 15.6362 10.6927 15.2964 11.4719C15.2256 11.6419 15.1335 11.7057 14.9424 11.7057C14.1282 11.6915 13.321 11.6986 12.5068 11.6986C12.4077 11.6986 12.3086 11.7057 12.1741 11.7128C12.252 11.8261 12.3015 11.8969 12.3582 11.9748C12.96 12.7753 13.5547 13.5757 14.1565 14.3762C14.2769 14.532 14.3052 14.6737 14.2556 14.8649C14.0361 15.7291 13.8308 16.5862 13.6042 17.4929ZM25.2227 7.37054C25.2227 9.25476 25.2227 11.1106 25.2227 12.9949C25.343 12.9665 25.4421 12.9524 25.5413 12.924C26.7166 12.5203 27.4812 11.6986 27.8989 10.544C28.1538 9.8427 28.1042 9.11309 28.1042 8.39057C28.1042 8.05765 28.1042 7.71764 28.1042 7.37054C27.1272 7.37054 26.1855 7.37054 25.2227 7.37054ZM7.77734 12.9807C7.77734 11.0965 7.77734 9.2406 7.77734 7.37763C6.80737 7.37763 5.86572 7.37763 4.89575 7.37763C4.89575 7.97973 4.90283 8.56766 4.89575 9.14851C4.87451 10.296 5.27808 11.2665 6.11353 12.0528C6.58081 12.499 7.12598 12.8178 7.77734 12.9807Z" fill="white"/>
</svg>
