<svg width="48" height="42" viewBox="0 0 48 42" fill="none" xmlns="http://www.w3.org/2000/svg">
<path d="M26.0273 13.9978C26.8766 13.3654 27.5361 12.5974 27.8795 11.5765C28.0511 11.0435 28.1324 10.5014 28.1324 9.94124C28.1324 8.08912 28.1324 6.23701 28.1324 4.37586C28.1324 3.2917 28.8733 2.78575 29.8942 3.16521C33.4268 4.48428 36.3179 6.66164 38.5314 9.72441C40.1757 12.0011 41.2418 14.5309 41.7206 17.3045C41.811 17.8285 41.8652 18.3525 41.9375 18.8766C41.9465 18.9398 41.9194 19.0301 42.0097 19.0573C42.0097 20.024 42.0097 20.9816 42.0097 21.9484C41.8471 22.364 41.9103 22.8157 41.8019 23.2494C41.7658 23.3849 41.7568 23.5385 41.7297 23.674C41.558 24.6407 40.7539 25.0292 39.9046 24.5503C38.6669 23.8547 37.4472 23.1319 36.2095 22.4272C35.4505 21.9935 34.7278 21.4786 33.8875 21.1894C32.8305 20.81 31.7644 20.819 30.7073 21.2165C30.617 21.2527 30.5266 21.2708 30.4363 21.2979C30.4905 20.1505 30.373 19.0301 29.9394 17.946C29.4425 16.7173 28.6655 15.7144 27.5994 14.9103C27.1115 14.5399 26.5243 14.3411 26.0273 13.9978Z" fill="#FEC007"/>
<path d="M24.4357 2C24.526 2.11745 24.6616 2.05421 24.77 2.07228C25.3934 2.16262 25.8451 2.6776 25.809 3.301C25.7728 3.91536 25.2579 4.40323 24.6345 4.37613C23.9026 4.33999 23.1708 4.32192 22.439 4.37613C21.7705 4.4213 21.2555 3.96053 21.1922 3.33714C21.138 2.73181 21.5536 2.2078 22.1951 2.08131C22.2674 2.06324 22.3668 2.10842 22.4119 2C23.0895 2 23.7671 2 24.4357 2Z" fill="#FEC10A"/>
<path d="M16.6392 21.6501C15.1213 21.108 13.6938 21.2977 12.3115 22.1108C10.6401 23.0956 8.95966 24.0443 7.27921 25.011C6.33057 25.5531 5.55358 25.1736 5.34578 24.0985C4.76756 21.0899 4.91212 18.1175 5.79752 15.1812C6.67389 12.254 8.20075 9.7062 10.342 7.53787C12.2754 5.56831 14.5612 4.13179 17.1451 3.16508C18.1118 2.80369 18.8707 3.30963 18.8798 4.33959C18.8798 6.02908 18.9249 7.70953 18.8707 9.39902C18.8075 11.3053 19.4128 12.8683 20.9849 13.9977C20.8313 14.1693 20.6235 14.2326 20.4247 14.3139C19.9097 14.5307 19.449 14.8469 19.0424 15.2083C17.4161 16.6358 16.585 18.4518 16.5669 20.6292C16.5488 20.9634 16.6482 21.2977 16.6392 21.6501Z" fill="#FEC007"/>
<path d="M27.7323 26.0688C27.9763 27.7403 28.8888 28.9238 30.3524 29.7369C31.9877 30.6494 33.6049 31.6071 35.2221 32.5558C35.8455 32.9172 36.0804 33.4592 35.8726 34.0284C35.7913 34.2543 35.6467 34.4259 35.4751 34.5795C32.7827 36.8653 29.7109 38.2928 26.2145 38.7987C21.4803 39.4763 17.1346 38.4374 13.1594 35.8173C12.7618 35.5553 12.3824 35.2481 12.0029 34.959C11.235 34.3717 11.2801 33.4321 12.1204 32.9352C13.3491 32.2034 14.5959 31.4987 15.8336 30.7759C16.5112 30.3784 17.225 30.0441 17.8303 29.5562C18.8874 28.6979 19.4385 27.5686 19.5469 26.2224C20.4052 26.7284 21.2906 27.153 22.2934 27.3337C23.748 27.5867 25.1213 27.406 26.4584 26.7826C26.8921 26.5658 27.2806 26.2676 27.7323 26.0688Z" fill="#FEC008"/>
<path d="M27.7345 26.0687C27.2828 26.2675 26.8943 26.5747 26.4516 26.7825C25.1145 27.3968 23.7412 27.5866 22.2866 27.3336C21.2837 27.1619 20.3983 26.7283 19.54 26.2223C18.5282 25.4544 17.715 24.5328 17.182 23.3674C16.929 22.8162 16.7935 22.238 16.6399 21.6598C16.6489 21.3074 16.5586 20.9732 16.5586 20.6208C16.5767 18.4434 17.4079 16.6365 19.0341 15.2C19.4407 14.8386 19.9014 14.5224 20.4164 14.3056C20.6152 14.2242 20.823 14.161 20.9766 13.9893C21.5186 13.908 22.0336 13.7002 22.5847 13.628C23.6689 13.4924 24.7169 13.6008 25.7469 13.9442C25.8372 13.9713 25.9276 14.0074 26.027 13.9893C26.5239 14.3417 27.1111 14.5405 27.599 14.9109C28.6651 15.715 29.433 16.7178 29.939 17.9465C30.3727 19.0217 30.4901 20.151 30.4359 21.2984C30.3004 21.5333 30.3184 21.8044 30.2552 22.0664C29.8938 23.5932 29.1078 24.8491 27.9152 25.8609C27.8429 25.9151 27.7616 25.9694 27.7345 26.0687Z" fill="#FEA000"/>
<path d="M23.4873 6.63422C23.93 6.60712 24.3547 6.66132 24.7703 6.7065C25.4027 6.77877 25.8454 7.31182 25.8093 7.92618C25.7731 8.54054 25.2581 9.03745 24.6257 9.00131C23.8758 8.95614 23.135 8.96517 22.3941 9.00131C21.7346 9.02842 21.2196 8.53151 21.1925 7.90811C21.1654 7.27568 21.6352 6.76071 22.2857 6.7065C22.6923 6.66132 23.0988 6.60712 23.4873 6.63422Z" fill="#FEC10A"/>
<path d="M14.2629 27.8123C14.2629 28.3272 14.0009 28.7157 13.5401 28.9055C13.1245 29.0771 12.6095 28.9958 12.3114 28.6525C11.6699 27.9026 11.173 27.0443 10.8568 26.1047C10.6761 25.5626 10.9833 25.0025 11.4983 24.7766C12.0223 24.5507 12.6728 24.7314 12.9438 25.2374C13.3143 25.9421 13.6847 26.6377 14.1274 27.2973C14.2358 27.4509 14.2719 27.6406 14.2629 27.8123Z" fill="#FEC10A"/>
<path d="M33.7844 29.2496C32.8177 29.2586 32.2395 28.2919 32.7183 27.5149C33.1249 26.8463 33.5495 26.1958 33.929 25.5092C34.2181 24.9762 34.8686 24.8135 35.4016 25.0665C35.9166 25.3104 36.2057 25.9158 35.9889 26.4578C35.6455 27.3613 35.0944 28.1564 34.4981 28.9153C34.3084 29.1411 34.0193 29.2315 33.7844 29.2496Z" fill="#FEC10A"/>
<path d="M40.0579 28.4277C40.0759 28.6084 40.0127 28.789 39.9223 28.9607C39.57 29.6835 39.1634 30.3792 38.6936 31.0387C38.2961 31.5988 37.6275 31.7253 37.0764 31.3549C36.5705 31.0206 36.4169 30.334 36.7692 29.7919C37.1758 29.1504 37.5552 28.4999 37.9257 27.8404C38.1877 27.3616 38.7117 27.1718 39.2267 27.3164C39.7055 27.4338 40.0488 27.8946 40.0579 28.4277Z" fill="#FEC109"/>
<path d="M9.08716 31.2908C8.65349 31.2908 8.32824 31.092 8.09334 30.7306C7.67775 30.0892 7.28925 29.4206 6.94594 28.7249C6.63876 28.0925 6.84655 27.4149 7.43381 27.1258C8.02106 26.8367 8.66253 27.0445 8.98778 27.6679C9.3311 28.3184 9.71055 28.9418 10.0719 29.5742C10.5417 30.3693 9.98159 31.2908 9.08716 31.2908Z" fill="#FEC10A"/>
</svg>
