<svg width="68" height="62" viewBox="0 0 68 62" fill="none" xmlns="http://www.w3.org/2000/svg">
<path d="M17 47.734C17.2291 46.9959 17.4582 46.2578 17.6789 45.5111C18.4002 42.9912 19.1215 40.4714 19.8428 37.96C19.8682 37.8751 19.8937 37.7903 19.9106 37.7563C22.6007 40.4459 25.2992 43.1355 27.9977 45.8335C27.9722 45.842 27.8704 45.8844 27.777 45.9099C24.5948 46.8177 21.4126 47.7256 18.2304 48.6334C17.5855 48.8201 17.3564 48.7352 17.0085 48.2092C17 48.048 17 47.8953 17 47.734Z" fill="white"/>
<path d="M44.3604 14C45.1156 14.1273 45.6503 14.5854 46.1679 15.1115C47.7632 16.732 49.384 18.3271 50.9879 19.9391C51.8789 20.83 52.0401 22.0687 51.3358 22.9426C50.8775 23.5111 50.3344 24.0116 49.8508 24.5207C46.974 21.636 44.1228 18.7852 41.2461 15.909C42.0353 15.2133 42.6293 14.2121 43.8258 14C43.9955 14 44.1737 14 44.3604 14Z" fill="white"/>
<path d="M29.3714 44.9C26.5286 42.0577 23.6774 39.207 20.8516 36.3816C27.2754 29.9589 33.7161 23.5192 40.1314 17.105C42.9572 19.9303 45.8085 22.7811 48.6427 25.6234C42.2359 32.0376 35.8036 38.4688 29.3714 44.9Z" fill="white"/>
</svg>
