<svg width="26" height="21" viewBox="0 0 26 21" fill="none" xmlns="http://www.w3.org/2000/svg">
<path d="M16.2948 18.0898C15.9073 18.0898 15.5265 18.0898 15.139 18.0898C15.1322 18.0216 15.0846 17.9875 15.0235 17.9807C13.2695 17.7555 11.8486 16.8618 10.5705 15.7225C8.45614 13.8327 6.8721 11.5472 5.79794 8.92062C5.22008 7.51522 4.82576 6.06207 5.07731 4.52022C5.20648 3.70837 5.5532 3.01931 6.27384 2.5554C7.06926 2.0369 7.95986 1.94821 8.86405 2.02325C10.4141 2.14606 11.8486 2.70549 13.2151 3.40136C14.2756 3.94715 15.275 4.60209 16.2336 5.33208C17.77 6.51234 19.1161 7.84952 20.0611 9.5551C20.9993 11.2402 21.3732 13.0004 20.5302 14.8424C19.8368 16.3569 18.681 17.3735 17.0834 17.8715C16.8182 17.9534 16.5191 17.892 16.2948 18.0898ZM15.9209 12.7616C17.233 12.7684 18.2459 11.8952 18.4159 10.7354C18.5383 9.91668 18.2527 9.21398 17.8244 8.55904C17.1922 7.57662 16.3152 6.84663 15.3498 6.21898C14.5 5.66637 13.5958 5.2161 12.5692 5.10012C11.4339 4.97732 10.7608 5.48217 10.788 6.66243C10.7948 6.90804 10.8356 7.16046 10.8968 7.39924C11.4407 9.30949 12.5352 10.8445 14.0989 12.0384C14.6767 12.4682 15.3226 12.7479 15.9209 12.7616Z" fill="#FAB006"/>
<path d="M15.9209 12.7616C15.3226 12.7479 14.6763 12.4673 14.1121 12.0375C12.5416 10.8436 11.4471 9.30859 10.91 7.39835C10.842 7.15956 10.8012 6.90714 10.8012 6.66154C10.7672 5.48128 11.4471 4.97642 12.5824 5.09923C13.609 5.20838 14.5064 5.66548 15.363 6.21809C16.3284 6.84574 17.2054 7.57573 17.8376 8.55814C18.2591 9.2199 18.5515 9.9226 18.4291 10.7345C18.2455 11.8943 17.233 12.7684 15.9209 12.7616Z" fill="#FCDE9A"/>
</svg>
