<svg width="46" height="47" viewBox="0 0 46 47" fill="none" xmlns="http://www.w3.org/2000/svg">
<circle cx="23.5" cy="23.5" r="20.5" fill="#ED2D21"/>
<path d="M15 28.6163C15 25.9595 15 23.3073 15 20.6506C15.0271 20.6596 15.0542 20.6686 15.0768 20.6822C17.4263 22.2455 19.7713 23.8134 22.1208 25.3767C23.1419 26.0589 24.2037 26.0635 25.2248 25.3857C27.5427 23.8405 29.8651 22.2952 32.1829 20.7455C32.2327 20.7138 32.2824 20.6822 32.3546 20.637C32.3546 20.7003 32.3546 20.7364 32.3546 20.7771C32.3546 23.3073 32.3546 25.8375 32.3546 28.3678C32.3546 28.5078 32.3366 28.6524 32.3049 28.788C32.1152 29.5335 31.4871 29.9943 30.6739 29.9989C28.365 29.9989 26.0562 29.9989 23.7428 29.9989C21.3933 29.9989 19.0438 29.9989 16.6943 29.9989C16.2335 29.9989 15.8314 29.8633 15.4925 29.5425C15.2169 29.294 15.0813 28.9687 15 28.6163Z" fill="white"/>
<path d="M15 18.3837C15.0271 18.2888 15.0542 18.1894 15.0858 18.0945C15.3072 17.4394 15.8991 17.0147 16.6221 17.0056C16.9519 16.9966 17.2862 17.0011 17.6206 17.0011C21.9626 17.0011 26.3047 17.0011 30.6467 17.0011C31.1528 17.0011 31.5911 17.1502 31.9344 17.5343C32.5806 18.2527 32.4676 19.328 31.6679 19.8702C30.6151 20.5886 29.5488 21.289 28.487 21.9938C27.2219 22.8342 25.9613 23.6791 24.6962 24.5195C23.9688 25.003 23.3814 25.003 22.6585 24.5195C20.431 23.0375 18.208 21.551 15.9759 20.0781C15.5015 19.7618 15.1175 19.4094 15 18.8265C15 18.6774 15 18.5328 15 18.3837Z" fill="white"/>
</svg>
