<svg width="33" height="29" viewBox="0 0 33 29" fill="none" xmlns="http://www.w3.org/2000/svg">
<path d="M30.0691 24.146C29.9958 24.146 29.9896 24.2013 29.9652 24.2566C29.7881 24.8098 29.3666 25.1294 28.7985 25.1294C28.1694 25.1294 27.5341 25.1294 26.905 25.1294C26.8195 25.1294 26.7278 25.1601 26.6484 25.0863C27.2043 24.7729 27.3509 24.2935 27.3448 23.6666C27.3264 19.7637 27.3326 15.867 27.3326 11.9641C27.3326 11.8596 27.3387 11.749 27.3448 11.6445C27.5097 11.8658 27.5036 12.1424 27.5586 12.3944C27.8212 13.5867 28.0717 14.7791 28.3282 15.9715C28.8108 18.2271 29.2933 20.489 29.7759 22.7446C29.8369 23.0335 29.9041 23.3162 29.9652 23.6051C29.9774 23.6604 30.008 23.6911 30.0629 23.6973C30.069 23.851 30.0691 23.9985 30.0691 24.146Z" fill="#E1E1E1"/>
<path d="M6.85691 25.1294C6.66144 25.1294 6.46598 25.1171 6.27662 25.1356C5.74521 25.1786 5.36039 24.9573 5.09773 24.5025C5.0733 24.4595 5.04276 24.4472 5 24.4472C5 19.5486 5 14.644 5 9.7454C5.34206 9.7454 5.68412 9.73926 6.02619 9.73926V9.7577C6.02619 14.5087 6.02619 19.2536 6.02619 24.0047C6.02619 24.2505 6.10559 24.4656 6.22165 24.6746C6.36825 24.9205 6.6309 24.9942 6.85691 25.1294Z" fill="#E1E1E1"/>
<path d="M6.02619 9.7257C5.68412 9.7257 5.34206 9.73185 5 9.73185C5 8.55177 5 7.3717 5 6.19162C5.25044 5.50939 5.75742 5.26354 6.44765 5.31271C6.56982 5.31885 6.69198 5.31885 6.81415 5.325C6.80193 5.36802 6.78361 5.39261 6.74085 5.41105C6.25219 5.61387 6.02619 5.98879 6.03229 6.51737C6.02619 7.58681 6.02619 8.65626 6.02619 9.7257Z" fill="#C83741"/>
<path d="M6.02734 9.7255C6.02734 8.65605 6.03345 7.58661 6.02734 6.51716C6.02734 5.98859 6.24724 5.61367 6.7359 5.41084C6.77866 5.3924 6.80309 5.36782 6.8092 5.32479C6.86417 5.32479 6.91304 5.32479 6.96801 5.32479C6.99245 5.35552 7.01077 5.36167 7.04131 5.33094C7.35283 5.33094 7.66435 5.33094 7.98198 5.32479C7.98198 5.84108 7.98809 6.35736 7.98198 6.87364C7.98198 7.16866 8.10414 7.39607 8.37291 7.48827C8.70275 7.60505 9.05703 7.5989 9.39909 7.52514C9.44796 7.52514 9.49682 7.52514 9.54569 7.52514C10.3092 7.58661 10.4314 7.17481 10.4192 6.64623C10.4131 6.2037 10.4192 5.76732 10.4253 5.32479C11.763 5.32479 13.0946 5.32479 14.4323 5.32479C14.4323 5.81034 14.4323 6.30204 14.4384 6.7876C14.4445 7.08876 14.5239 7.37149 14.8293 7.48212C15.1592 7.5989 15.5073 7.59275 15.8494 7.519C15.9471 7.519 16.0449 7.519 16.1426 7.519C16.6679 7.51285 16.8756 7.31003 16.8756 6.78145C16.8756 6.2959 16.8756 5.8042 16.8817 5.31865C18.2316 5.31865 19.5815 5.31865 20.9314 5.31865C20.9314 5.85951 20.9314 6.39424 20.9376 6.93511C20.9376 7.18096 21.1086 7.45139 21.3285 7.50056C21.6644 7.58046 22.0126 7.60505 22.3547 7.519C22.4585 7.519 22.5685 7.519 22.6723 7.519C23.1243 7.51285 23.332 7.30388 23.3381 6.83677C23.3381 6.32663 23.3381 5.82264 23.3381 5.3125C23.9123 5.3125 24.4864 5.3125 25.0667 5.31865C25.8852 5.32479 26.3311 5.76732 26.3495 6.57862C26.3495 6.67696 26.3556 6.7753 26.3617 6.87364C26.3617 7.82016 26.3617 8.76668 26.3556 9.7132C26.2517 9.71935 26.1418 9.7255 26.0379 9.7255C19.4716 9.7255 12.9113 9.7255 6.34497 9.7255C6.24113 9.7255 6.13118 9.73164 6.02734 9.73779V9.7255Z" fill="#FE4B4B"/>
<path d="M26.3451 9.72628C26.3451 8.77976 26.3451 7.83324 26.3512 6.88672C26.5223 7.34769 26.5773 7.83324 26.6872 8.3065C26.901 9.24687 27.0903 10.1995 27.298 11.1461C27.3347 11.3182 27.3225 11.4841 27.3469 11.6562C27.3408 11.7607 27.3347 11.8713 27.3347 11.9758C27.3347 15.8787 27.3225 19.7754 27.3469 23.6782C27.353 24.299 27.2064 24.7846 26.6505 25.098C26.3696 25.1718 26.0886 25.1349 25.8076 25.1472C25.7038 25.1533 25.5999 25.1718 25.4961 25.1779C25.4961 25.141 25.5022 25.1103 25.5388 25.098C26.1497 24.9075 26.3574 24.4342 26.3574 23.8565C26.3512 19.1362 26.3451 14.4281 26.3451 9.72628Z" fill="#B9B9B9"/>
<path d="M16.8825 5.32535C16.8825 5.8109 16.8825 6.3026 16.8763 6.78815C16.8763 7.31673 16.6687 7.51956 16.1434 7.5257C16.0456 7.5257 15.9479 7.5257 15.8502 7.5257C15.6608 7.34132 15.4531 7.18151 15.4531 6.86806C15.4592 5.46671 15.4592 4.07152 15.4531 2.67018C15.4531 2.43662 15.5447 2.25838 15.728 2.12931C15.7769 2.09243 15.8257 2.07399 15.8441 2.01253C16.0456 1.98795 16.2472 2.00024 16.4427 2.04326C16.7175 2.10472 16.8702 2.35672 16.8702 2.70705C16.8763 3.57367 16.8763 4.45258 16.8825 5.32535Z" fill="#FECD66"/>
<path d="M10.4218 5.3315C10.4218 5.77403 10.4096 6.21041 10.4157 6.65294C10.4279 7.18151 10.3058 7.59946 9.54225 7.53185C9.49338 7.5257 9.44452 7.53185 9.39565 7.53185C9.09635 7.32902 8.9864 7.05859 8.99251 6.68367C9.01694 5.42984 9.01694 4.16986 8.99251 2.90988C8.9864 2.52267 9.06581 2.22765 9.38954 2.01253C9.59112 1.98795 9.79269 2.00024 9.98204 2.04326C10.2508 2.10472 10.4035 2.3813 10.4035 2.76237C10.4035 3.51836 10.4035 4.28049 10.4035 5.03648C10.4157 5.13482 10.4157 5.23316 10.4218 5.3315Z" fill="#FECD68"/>
<path d="M23.3322 5.32552C23.3322 5.83565 23.3322 6.33964 23.3322 6.84978C23.3322 7.31075 23.1245 7.52587 22.6664 7.53201C22.5626 7.53201 22.4526 7.53201 22.3488 7.53201C22.0312 7.33533 21.9395 7.05875 21.9457 6.68383C21.964 5.41771 21.964 4.15158 21.9457 2.88546C21.9395 2.51054 22.0128 2.21552 22.3427 2.0127C22.5198 2.01884 22.697 2.0004 22.868 2.03113C23.1551 2.07416 23.3261 2.30771 23.3261 2.63346C23.3383 3.52467 23.3322 4.42202 23.3322 5.32552Z" fill="#FECE66"/>
<path d="M22.3468 2.00664C22.017 2.20946 21.9437 2.50448 21.9498 2.8794C21.9681 4.14553 21.9681 5.41165 21.9498 6.67778C21.9437 7.0527 22.0353 7.32928 22.3529 7.52596C22.0108 7.60586 21.6627 7.58127 21.3267 7.50752C21.1129 7.45835 20.9419 7.18791 20.9358 6.94206C20.9297 6.40119 20.9358 5.86647 20.9297 5.3256C20.9297 4.45284 20.9297 3.57393 20.9297 2.70116C20.9297 2.24019 21.1557 2.01278 21.6138 2.00664C21.8581 2.00049 22.1025 2.00664 22.3468 2.00664Z" fill="#FEB351"/>
<path d="M9.39928 2.00664C9.07555 2.22176 8.99614 2.52292 9.00225 2.90399C9.02668 4.15782 9.02668 5.4178 9.00225 6.67778C8.99614 7.0527 9.09998 7.32313 9.40539 7.52596C9.05722 7.59971 8.70905 7.60586 8.37921 7.48908C8.11045 7.39688 7.98828 7.16333 7.98828 6.87445C7.98828 6.35817 7.98828 5.84189 7.98828 5.3256C7.98828 4.45899 7.98828 3.59237 7.99439 2.73189C7.99439 2.24634 8.22039 2.01278 8.70294 2.00664C8.92895 2.00049 9.16106 2.00664 9.39928 2.00664Z" fill="#FEB351"/>
<path d="M15.8485 2.00664C15.8302 2.0681 15.7813 2.09269 15.7324 2.12342C15.5492 2.25863 15.4576 2.43687 15.4576 2.66428C15.4576 4.06563 15.4637 5.46082 15.4576 6.86216C15.4576 7.17562 15.6591 7.34157 15.8546 7.51981C15.5126 7.59971 15.1644 7.60586 14.8345 7.48293C14.5291 7.3723 14.4436 7.08957 14.4436 6.78841C14.4375 6.30286 14.4375 5.81116 14.4375 5.3256C14.4436 4.50815 14.4436 3.69071 14.4497 2.87326C14.4497 2.75033 14.4619 2.62741 14.4803 2.51063C14.5291 2.20946 14.7368 2.01893 15.0483 2.00664C15.311 2.00049 15.5797 2.00664 15.8485 2.00664Z" fill="#FEB250"/>
<path d="M7.03814 5.33134C7.01371 5.36207 6.98928 5.35593 6.96484 5.3252C6.98928 5.3252 7.01371 5.3252 7.03814 5.33134Z" fill="#FEB351"/>
<path d="M26.3495 9.72656C26.3495 14.4346 26.3556 19.1364 26.3495 23.8445C26.3495 24.4284 26.1418 24.9016 25.531 25.086C25.4943 25.0983 25.4882 25.129 25.4882 25.1659C25.2805 25.2151 25.0912 25.1229 24.8835 25.1229C19.0379 25.129 13.1923 25.129 7.34672 25.1167C7.1818 25.1167 7.01688 25.2397 6.85806 25.1229C6.63206 24.9877 6.3694 24.9139 6.22281 24.6619C6.10064 24.4529 6.02734 24.244 6.02734 23.992C6.02734 19.2409 6.02734 14.496 6.02734 9.745C6.13118 9.73885 6.24113 9.73271 6.34497 9.73271C12.9113 9.73271 19.4716 9.73271 26.0379 9.73271C26.1357 9.73885 26.2456 9.72656 26.3495 9.72656ZM20.2534 13.4635C20.229 13.4389 20.2107 13.4143 20.1862 13.3959C19.7281 13.0517 19.215 13.1193 18.6958 13.5864C18.5126 13.4635 18.3354 13.3344 18.1522 13.2176C17.5047 12.8181 16.8023 12.5846 16.0449 12.5477C15.8005 12.5231 15.5623 12.517 15.318 12.5354C13.9131 12.6522 12.7647 13.2606 11.8913 14.3608C10.9445 15.547 10.6268 16.9177 10.9384 18.3928C11.4392 20.7775 13.6016 22.437 16.0449 22.2219C16.1548 22.2464 16.2525 22.1973 16.3564 22.185C17.3398 22.0559 18.2011 21.6564 18.9157 20.9803C20.5039 19.4929 20.9253 17.354 20.0519 15.3504C20.1618 15.209 20.2779 15.0738 20.3878 14.9324C20.7543 14.4407 20.6993 13.8384 20.2534 13.4635Z" fill="#EEEEEE"/>
<path d="M16.0367 12.541C16.8002 12.5779 17.5027 12.8114 18.144 13.211C18.3273 13.3277 18.5044 13.4568 18.6877 13.5797C18.5838 13.7088 18.4861 13.8379 18.3822 13.9608C17.5698 14.9196 16.7513 15.8723 15.945 16.8372C15.8107 17.0032 15.7374 16.9786 15.6274 16.8188C15.493 16.6221 15.3464 16.4377 15.1998 16.2533C14.7417 15.6756 14.0943 15.6326 13.5506 16.1243C13.1658 16.5422 13.1353 17.0708 13.4956 17.5502C13.9354 18.1402 14.3813 18.7241 14.8333 19.3019C15.3403 19.9472 16.0611 19.9718 16.6047 19.3633C16.959 18.97 17.295 18.5582 17.637 18.1525C18.4372 17.2183 19.2374 16.2779 20.0437 15.3437C20.9172 17.3474 20.4957 19.4863 18.9075 20.9736C18.1868 21.6497 17.3255 22.0492 16.3482 22.1783C16.2444 22.1906 16.1466 22.2459 16.0367 22.2152C16.0245 22.2029 16.0122 22.1906 16 22.1845C14.7906 21.9939 13.7827 21.4469 12.9887 20.5004C12.2557 19.6215 11.8831 18.6012 11.8464 17.4703C11.8159 16.5668 12.048 15.7125 12.5061 14.9258C13.1047 13.9116 13.9477 13.1987 15.0594 12.8053C15.3831 12.6947 15.7129 12.6332 16.0367 12.541Z" fill="#85C1EE"/>
<path d="M20.0509 15.3436C19.2507 16.2779 18.4506 17.2182 17.6443 18.1525C17.3022 18.5581 16.9601 18.9699 16.612 19.3633C16.0683 19.9779 15.3476 19.9533 14.8406 19.3018C14.3886 18.7241 13.9427 18.1402 13.5029 17.5501C13.1425 17.0707 13.173 16.5422 13.5579 16.1242C13.6189 16.1242 13.6617 16.1611 13.6983 16.2103C14.0771 16.7142 14.4741 17.2121 14.8406 17.7284C15.2926 18.3614 16.1783 18.3184 16.5753 17.839C16.8868 17.4579 17.2167 17.0892 17.5404 16.7081C18.0963 16.0505 18.6582 15.399 19.208 14.7413C19.5562 14.3172 19.9532 13.9239 20.2586 13.4629C20.7045 13.8378 20.7595 14.4463 20.393 14.9257C20.2769 15.0671 20.1609 15.2084 20.0509 15.3436Z" fill="#F1961E"/>
<path d="M16.0386 12.5406C15.7148 12.6328 15.3789 12.6942 15.0613 12.8049C13.9496 13.1982 13.1066 13.9112 12.508 14.9253C12.0499 15.712 11.8178 16.5664 11.8483 17.4699C11.885 18.6008 12.2515 19.6211 12.9906 20.5C13.7846 21.4465 14.7986 21.9935 16.0019 22.184C16.0141 22.184 16.0264 22.2025 16.0386 22.2148C13.5953 22.4299 11.4391 20.7643 10.9321 18.3857C10.6206 16.9106 10.9382 15.54 11.885 14.3537C12.7646 13.2536 13.9068 12.6451 15.3117 12.5283C15.5621 12.5099 15.8004 12.516 16.0386 12.5406Z" fill="#6AAFEA"/>
<path d="M20.2515 13.4633C19.9461 13.9242 19.5552 14.3176 19.2009 14.7417C18.6512 15.4055 18.0892 16.057 17.5334 16.7085C17.2096 17.0834 16.8798 17.4583 16.5683 17.8394C16.1712 18.3188 15.2855 18.3618 14.8335 17.7288C14.467 17.2125 14.07 16.7146 13.6913 16.2106C13.6546 16.1615 13.618 16.1246 13.5508 16.1246C14.0944 15.6267 14.748 15.6759 15.2 16.2537C15.3466 16.438 15.4932 16.6224 15.6276 16.8191C15.7375 16.9789 15.8108 16.9974 15.9452 16.8376C16.7515 15.8726 17.57 14.9199 18.3824 13.9611C18.4862 13.8382 18.584 13.7091 18.6878 13.5801C19.207 13.1129 19.7201 13.0453 20.1782 13.3895C20.2088 13.408 20.2271 13.4387 20.2515 13.4633Z" fill="#FDA82D"/>
</svg>
