<svg width="27" height="26" viewBox="0 0 27 26" fill="none" xmlns="http://www.w3.org/2000/svg">
<path d="M10.7848 14.7224C10.3436 14.7224 9.93261 14.7224 9.52765 14.7224C9.18314 14.7224 8.83258 14.7286 8.48806 14.7224C8.12542 14.7162 8.00453 14.6048 8.00453 14.2333C7.99849 13.2675 7.99849 12.3017 8.00453 11.3297C8.01058 10.9644 8.1375 10.8468 8.49411 10.8468C9.16501 10.8406 9.8359 10.8468 10.5128 10.8468C10.5975 10.8468 10.676 10.8468 10.7909 10.8468C10.7909 10.7415 10.7909 10.6548 10.7909 10.562C10.809 9.68282 10.7727 8.79748 10.8453 7.91834C11.0326 5.68333 12.6948 4.0922 14.8827 4.01791C15.7712 3.98695 16.6658 4.00553 17.5542 4.00553C17.8685 4.00553 17.9955 4.13554 17.9955 4.45748C18.0015 5.36139 18.0015 6.2653 17.9955 7.1754C17.9955 7.5221 17.8746 7.64593 17.5301 7.65831C16.9196 7.67069 16.3092 7.67069 15.6927 7.68308C15.0036 7.69546 14.7196 7.96787 14.7014 8.66128C14.6893 9.36088 14.6954 10.0667 14.6954 10.7972C14.7981 10.7972 14.8767 10.7972 14.9613 10.7972C15.741 10.7972 16.5147 10.7972 17.2944 10.7972C17.7839 10.7972 17.8988 10.9149 17.8988 11.4102C17.8988 12.3326 17.8988 13.2489 17.8988 14.1714C17.8988 14.5862 17.79 14.6915 17.385 14.6977C16.5026 14.7038 15.6201 14.6977 14.6893 14.6977C14.6893 14.8029 14.6893 14.902 14.6893 14.9948C14.6893 17.4156 14.6893 19.8363 14.6893 22.2633C14.6893 22.9319 14.6228 23 13.958 23C13.0876 23 12.2233 23 11.353 23C10.8876 23 10.7727 22.8824 10.7727 22.4118C10.7727 19.954 10.7727 17.4899 10.7727 15.032C10.7848 14.9329 10.7848 14.8401 10.7848 14.7224Z" fill="#A8A8A8"/>
</svg>
