<svg width="26" height="25" viewBox="0 0 26 25" fill="none" xmlns="http://www.w3.org/2000/svg">
<path d="M11.9451 18.6758C11.9451 17.1553 11.9451 15.6349 11.9451 14.1144C11.9451 13.7037 11.8377 13.5956 11.4225 13.5956C9.08136 13.5956 6.74026 13.5956 4.40632 13.5956C3.62595 13.5956 3.20355 14.0279 3.20355 14.8206C3.20355 17.3643 3.20355 19.9152 3.20355 22.4589C3.20355 23.266 3.61879 23.6839 4.42063 23.6839C6.78322 23.6839 9.1458 23.6839 11.5084 23.6839C11.9021 23.6839 11.9523 23.6335 11.9523 23.2372C11.9451 21.7167 11.9451 20.1963 11.9451 18.6758ZM13.7206 18.6902C13.7206 20.2179 13.7206 21.7455 13.7206 23.2732C13.7206 23.6191 13.7922 23.6839 14.1359 23.6839C16.5128 23.6839 18.8897 23.6839 21.2666 23.6839C22.0541 23.6839 22.4765 23.2588 22.4765 22.4661C22.4765 19.9224 22.4765 17.3715 22.4765 14.8278C22.4765 14.0207 22.0612 13.5956 21.2594 13.5956C18.9326 13.5956 16.613 13.5956 14.2862 13.5956C13.828 13.5956 13.7278 13.6965 13.7278 14.1505C13.7206 15.6637 13.7206 17.177 13.7206 18.6902ZM7.29153 12.3994C8.70192 12.3994 10.1051 12.3994 11.5155 12.3994C11.8592 12.3994 11.9451 12.3057 11.9451 11.967C11.9451 10.461 11.9451 8.95495 11.9451 7.4489C11.9451 7.07419 11.8377 6.9661 11.4583 6.9661C8.70192 6.9661 5.94557 6.9661 3.18923 6.9661C2.42318 6.9661 2.00794 7.39125 2.00794 8.15509C2.00794 9.14951 2.02942 10.1511 2.00078 11.1456C1.9793 11.8445 2.4017 12.421 3.2465 12.3994C4.59246 12.3778 5.94557 12.3994 7.29153 12.3994ZM18.3742 6.97331C16.9566 6.97331 15.5462 6.97331 14.1287 6.97331C13.8352 6.97331 13.7206 7.0814 13.7206 7.36963C13.7206 8.92612 13.7206 10.4826 13.7206 12.0391C13.7206 12.2697 13.8208 12.3706 14.0499 12.3922C14.1144 12.3994 14.1788 12.3994 14.2504 12.3994C16.9924 12.3994 19.7345 12.3994 22.4765 12.3994C23.2425 12.3994 23.6578 11.9743 23.6578 11.2104C23.6578 10.2088 23.6363 9.19995 23.6649 8.19832C23.6793 7.49214 23.2282 6.95169 22.4407 6.9661C21.0876 6.98772 19.7273 6.97331 18.3742 6.97331Z" fill="white"/>
<path d="M7.50593 1C7.67776 1.03603 7.84958 1.05765 8.02141 1.10088C9.51771 1.4828 10.8207 2.20339 11.9376 3.27708C12.0664 3.39959 12.1738 3.54371 12.2669 3.68782C12.6177 4.22107 12.5318 4.81195 12.0593 5.24431C11.7085 5.55417 11.2932 5.72711 10.8493 5.84961C9.38884 6.23874 7.91402 6.35403 6.44635 5.91447C5.64451 5.67667 5.00732 5.2227 4.71379 4.3868C4.39162 3.47885 4.71379 1.91516 5.73042 1.3675C6.04543 1.19456 6.41055 1.1225 6.7542 1.0072C7.00478 0.999998 7.25536 1 7.50593 1ZM10.3983 4.22107C10.4055 4.19945 10.4126 4.17783 10.4198 4.14901C10.384 4.12739 10.341 4.11298 10.3124 4.08415C9.74681 3.659 9.15258 3.28429 8.49392 3.02487C7.96413 2.8087 7.42718 2.65737 6.84727 2.72943C6.61817 2.75826 6.46783 2.86634 6.38908 3.08252C6.1385 3.75988 6.27453 4.05533 6.95466 4.29313C6.99762 4.30754 7.04058 4.32195 7.08353 4.32916C7.90686 4.54534 8.73734 4.5021 9.56782 4.3868C9.84704 4.34357 10.1191 4.27151 10.3983 4.22107Z" fill="white"/>
<path d="M18.9024 1C19.3033 1.08647 19.7042 1.16574 20.0478 1.41074C20.6635 1.8431 20.9499 2.46281 21.0502 3.18341C21.2363 4.52372 20.5776 5.50373 19.2388 5.91447C18.1435 6.25315 17.0266 6.23874 15.9097 6.073C15.2654 5.97932 14.6282 5.84241 14.0412 5.53255C13.6904 5.3452 13.3968 5.10019 13.2608 4.70386C13.0818 4.17062 13.3181 3.75268 13.6474 3.37797C14.213 2.74384 14.9146 2.28987 15.652 1.88633C16.4252 1.46118 17.2342 1.1225 18.1291 1.02882C18.1506 1.02882 18.1721 1.01441 18.1864 1C18.437 1 18.6733 1 18.9024 1ZM15.2726 4.12739C15.2797 4.16342 15.2869 4.19945 15.3012 4.23548C15.7021 4.30033 16.103 4.3868 16.504 4.43004C17.2199 4.5093 17.9358 4.50931 18.6446 4.31474C19.3677 4.11298 19.5395 3.78871 19.3033 3.08973C19.2961 3.06811 19.2961 3.03929 19.2818 3.02487C19.1529 2.92399 19.0384 2.78708 18.8952 2.72943C18.7663 2.67899 18.6088 2.6934 18.4585 2.70061C17.7569 2.73664 17.1125 2.99605 16.5111 3.33473C16.0887 3.58694 15.6878 3.86797 15.2726 4.12739Z" fill="white"/>
<path d="M11.944 18.6759C11.944 20.1964 11.944 21.7168 11.944 23.2373C11.944 23.6264 11.8867 23.6841 11.5001 23.6841C9.13756 23.6841 6.77498 23.6841 4.4124 23.6841C3.61055 23.6841 3.19531 23.2661 3.19531 22.459C3.19531 19.9153 3.19531 17.3644 3.19531 14.8207C3.19531 14.0281 3.61772 13.5957 4.39808 13.5957C6.73919 13.5957 9.08029 13.5957 11.4142 13.5957C11.8295 13.5957 11.9369 13.7038 11.9369 14.1145C11.944 15.635 11.944 17.1555 11.944 18.6759Z" fill="white"/>
<path d="M13.722 18.6903C13.722 17.1771 13.722 15.6638 13.722 14.1506C13.722 13.6894 13.8222 13.5957 14.2804 13.5957C16.6072 13.5957 18.9268 13.5957 21.2536 13.5957C22.0555 13.5957 22.4707 14.0209 22.4707 14.8279C22.4707 17.3716 22.4707 19.9225 22.4707 22.4662C22.4707 23.2589 22.0483 23.6841 21.2608 23.6841C18.8839 23.6841 16.507 23.6841 14.1301 23.6841C13.7864 23.6841 13.7148 23.6192 13.7148 23.2733C13.722 21.7457 13.722 20.218 13.722 18.6903Z" fill="white"/>
<path d="M7.29153 12.3997C5.94557 12.3997 4.59246 12.3781 3.2465 12.4069C2.4017 12.4213 1.9793 11.8521 2.00078 11.1531C2.02942 10.1587 2.00794 9.16425 2.00794 8.16262C2.00794 7.39878 2.43034 6.97363 3.18923 6.97363C5.94557 6.97363 8.70192 6.97363 11.4583 6.97363C11.8377 6.97363 11.9451 7.07452 11.9451 7.45643C11.9451 8.96248 11.9451 10.4685 11.9451 11.9746C11.9451 12.3133 11.8592 12.4069 11.5155 12.4069C10.1051 12.3997 8.70192 12.3997 7.29153 12.3997Z" fill="white"/>
<path d="M18.3762 6.97331C19.7293 6.97331 21.0896 6.99493 22.4427 6.9661C23.2303 6.95169 23.6813 7.49214 23.667 8.19832C23.6383 9.19995 23.6598 10.2088 23.6598 11.2104C23.6598 11.9742 23.2374 12.3994 22.4785 12.3994C19.7365 12.3994 16.9945 12.3994 14.2524 12.3994C14.188 12.3994 14.1236 12.3994 14.052 12.3922C13.8229 12.3706 13.7227 12.2697 13.7227 12.0391C13.7227 10.4826 13.7227 8.92612 13.7227 7.36963C13.7227 7.0814 13.8372 6.98051 14.1307 6.97331C15.5411 6.97331 16.9587 6.97331 18.3762 6.97331Z" fill="white"/>
</svg>
