<svg width="47" height="47" viewBox="0 0 47 47" fill="none" xmlns="http://www.w3.org/2000/svg">
<path d="M42.7632 18.7612C42.5929 19.1018 42.3469 19.3762 42.082 19.6411C39.4042 22.2431 36.7265 24.8546 34.0488 27.4566C33.9826 27.5134 33.9163 27.5702 33.8501 27.627C33.2824 27.5607 32.762 27.3242 32.2227 27.1539C29.9613 26.4348 27.6999 25.6967 25.4385 24.9587C24.814 24.7505 24.1895 24.5424 23.4609 24.2964C23.6691 24.2207 23.7732 24.1639 23.8867 24.1355C24.8045 23.8327 25.7318 23.5394 26.6496 23.2366C29.8383 22.1958 33.0364 21.1645 36.225 20.1237C38.3729 19.4235 40.5302 18.7139 42.6781 18.0137C42.7064 18.0137 42.7254 18.0137 42.7538 18.0137C42.7632 18.2597 42.7632 18.5152 42.7632 18.7612Z" fill="#F6AC16"/>
<path d="M42.6861 18.0048C40.5382 18.705 38.3904 19.4147 36.2331 20.1148C33.0444 21.1557 29.8463 22.187 26.6576 23.2278C25.7398 23.5306 24.8125 23.8239 23.8947 24.1267C23.7812 24.1645 23.6677 24.2118 23.469 24.2875C24.1881 24.5335 24.8125 24.7417 25.4465 24.9499C27.7079 25.6879 29.9598 26.4354 32.2307 27.145C32.77 27.3153 33.2904 27.5519 33.8581 27.6181C33.9906 28.4413 34.1231 29.2645 34.2555 30.0877C34.4637 31.3367 34.6813 32.5951 34.8989 33.8441C35.1166 35.093 35.3247 36.3515 35.5423 37.6004C35.6559 38.2344 35.7978 38.8778 35.8641 39.5117C35.9208 40.0321 35.7316 40.4674 35.268 40.7607C35.2774 40.6566 35.2301 40.5715 35.1639 40.4863C34.7854 39.9848 34.4258 39.4739 34.0568 38.963C32.5051 36.8151 30.9533 34.6767 29.3921 32.5289C27.4619 29.8701 25.5222 27.2113 23.592 24.5525C23.5447 24.4862 23.5163 24.3822 23.3838 24.4389C23.3838 28.0439 23.3838 31.6489 23.3838 35.2539C21.5766 36.2095 19.7599 37.1747 17.9527 38.1208C17.2714 38.4804 16.5807 38.8305 15.89 39.1806C15.5304 38.821 15.4547 38.3763 15.521 37.9032C15.5872 37.4017 15.7007 36.9003 15.7764 36.3988C15.8805 35.6891 16.0697 34.989 16.1171 34.2698C16.1738 34.1752 16.2117 34.0806 16.2022 33.9765C16.3725 33.9576 16.4388 33.8157 16.5239 33.6927C17.4039 32.4721 18.2933 31.261 19.1733 30.0404C20.4601 28.2615 21.7564 26.4922 23.0432 24.7133C23.1094 24.6282 23.2797 24.5336 23.1662 24.4011C23.081 24.297 22.9486 24.42 22.8539 24.4484C21.1981 24.9877 19.5328 25.5365 17.877 26.0853C17.7256 26.1326 17.5742 26.2083 17.4039 26.1799C17.3471 25.8488 17.0159 25.7731 16.8172 25.5744C15.9657 24.7039 15.1141 23.8239 14.2247 22.9913C13.3826 22.2154 12.5783 21.4111 11.793 20.5785C11.916 20.5785 12.039 20.5974 12.162 20.6447C13.0703 20.938 13.9787 21.2313 14.887 21.5247C17.5647 22.3952 20.2424 23.2751 22.9202 24.1456C23.0242 24.1835 23.1283 24.2497 23.2892 24.1645C21.1697 21.2503 19.0597 18.336 16.9497 15.4217C18.1798 12.9333 19.4003 10.4353 20.6304 7.94683C21.1508 6.89656 21.6617 5.84629 22.1821 4.80548C22.4281 4.31346 22.7877 3.97283 23.3838 4.01068C23.3838 10.7286 23.3838 17.4371 23.3838 24.1551C23.4122 24.1645 23.4406 24.174 23.469 24.1929C25.5884 21.2787 27.7079 18.3549 29.8274 15.4407C30.8303 15.5826 31.8427 15.7151 32.8457 15.8664C34.3218 16.0746 35.7978 16.2922 37.2739 16.5099C38.7215 16.718 40.1787 16.9167 41.6264 17.1438C42.1278 17.2006 42.5347 17.4655 42.6861 18.0048Z" fill="#F1D322"/>
<path d="M23.3828 35.2629C23.3828 31.658 23.3828 28.053 23.3828 24.448C23.5153 24.3912 23.5437 24.4953 23.591 24.5615C25.5212 27.2203 27.4609 29.8791 29.3911 32.5379C30.9429 34.6858 32.5041 36.8242 34.0558 38.972C34.4249 39.483 34.7939 39.9939 35.1629 40.4954C35.2291 40.5805 35.267 40.6657 35.267 40.7698C34.8506 41.0158 34.4532 41.0536 33.9991 40.8265C30.8483 39.2275 27.7447 37.5433 24.6129 35.9158C24.1965 35.7077 23.7897 35.4806 23.3828 35.2629Z" fill="#F6AC16"/>
<path d="M29.8186 15.4307C27.6991 18.345 25.5796 21.2687 23.4602 24.183C23.4318 24.1735 23.4034 24.164 23.375 24.1451C23.375 17.4272 23.375 10.7187 23.375 4.00071C23.99 3.98179 24.3401 4.34134 24.5956 4.84282C25.485 6.65951 26.3839 8.46673 27.2828 10.2834C28.1343 12.0055 28.9764 13.7181 29.8186 15.4307Z" fill="#F6AC16"/>
<path d="M16.9499 15.4209C19.0599 18.3352 21.1794 21.24 23.2894 24.1637C23.1285 24.2489 23.0245 24.1826 22.9204 24.1448C20.2427 23.2743 17.5649 22.3943 14.8872 21.5238C13.9789 21.2305 13.0705 20.9372 12.1622 20.6439C12.0392 20.606 11.9162 20.5776 11.7932 20.5776C11.7175 20.5303 11.6418 20.4736 11.5661 20.4262C11.5377 20.3695 11.4809 20.3506 11.4147 20.3506C11.4147 20.2559 11.3674 20.1802 11.3012 20.1235C10.5064 19.4801 9.83456 18.7136 9.11545 17.9945C8.74644 17.635 8.39635 17.2376 8.61397 16.6415C9.22899 16.4806 9.8724 16.4333 10.5064 16.3387C11.9919 16.1116 13.4774 15.894 14.9724 15.6858C15.6252 15.5912 16.2876 15.5155 16.9499 15.4209Z" fill="#F6AC16"/>
<path d="M11.575 20.4262C11.6507 20.4735 11.7264 20.5302 11.8021 20.5775C12.5875 21.4102 13.3917 22.2145 14.2338 22.9903C15.1233 23.823 15.9748 24.6935 16.8264 25.5734C17.0251 25.7721 17.3468 25.8478 17.413 26.179C17.413 26.2074 17.413 26.2263 17.413 26.2547C17.3184 26.2736 17.2143 26.2925 17.1197 26.3209C15.8897 26.7183 14.6691 27.1157 13.439 27.5226C13.2687 27.5794 13.1079 27.6361 12.9281 27.6361C12.7483 27.4753 12.5685 27.3239 12.3982 27.163C9.7489 24.5799 7.10903 21.9968 4.46916 19.4137C4.06229 19.0163 3.88252 18.5622 4.08122 18.0039C6.30477 18.723 8.51885 19.4421 10.7424 20.1612C10.9695 20.2369 11.1871 20.3505 11.4237 20.3505C11.452 20.4072 11.5088 20.4262 11.575 20.4262Z" fill="#EEB516"/>
<path d="M12.918 27.6266C13.0978 27.636 13.2586 27.5698 13.4289 27.513C14.659 27.1156 15.8796 26.7088 17.1096 26.3114C17.2042 26.283 17.2988 26.264 17.4029 26.2451C17.507 26.3303 17.4881 26.4533 17.4692 26.5574C17.261 27.759 17.0434 28.9701 16.8352 30.1718C16.6176 31.4397 16.4094 32.7076 16.1918 33.9755C16.2013 34.0796 16.154 34.1742 16.1066 34.2688C16.0215 34.3067 15.9836 34.3918 15.9363 34.458C14.4887 36.4545 13.041 38.4415 11.5933 40.438C11.5271 40.5326 11.4703 40.6272 11.3378 40.6272C10.7701 40.1541 10.8742 39.5486 10.9878 38.943C11.2338 37.5332 11.4798 36.1233 11.7258 34.7135C11.9718 33.3037 12.2178 31.8939 12.4544 30.484C12.6247 29.5473 12.7666 28.5917 12.918 27.6266Z" fill="#F38B19"/>
<path d="M11.3398 40.6475C11.4723 40.6475 11.5291 40.5528 11.5953 40.4582C13.043 38.4618 14.4907 36.4748 15.9383 34.4783C15.9856 34.4026 16.0235 34.3269 16.1086 34.2891C16.0613 35.0082 15.8721 35.7083 15.768 36.418C15.6923 36.9195 15.5882 37.421 15.5125 37.9224C15.4463 38.3955 15.522 38.8497 15.8816 39.1998C14.8597 39.7486 13.8472 40.3163 12.8064 40.8272C12.3144 41.0827 11.7846 41.0827 11.3398 40.6475Z" fill="#EEB616"/>
<path d="M11.4245 20.3507C11.1785 20.3412 10.9608 20.2277 10.7432 20.1614C8.51966 19.4423 6.30558 18.7232 4.08203 18.0041C4.19557 17.5783 4.47943 17.2755 4.88629 17.1904C6.1258 16.9444 7.36531 16.7646 8.62374 16.6416C8.39666 17.2377 8.75621 17.6256 9.12523 17.9947C9.84433 18.7138 10.5161 19.4802 11.3109 20.1236C11.3772 20.1804 11.4245 20.256 11.4245 20.3507Z" fill="#F38B19"/>
<path d="M16.2031 33.9864C16.4113 32.7185 16.6289 31.4506 16.8465 30.1827C17.0547 28.981 17.2723 27.7699 17.4805 26.5682C17.4994 26.4642 17.5183 26.3411 17.4142 26.256C17.4142 26.2276 17.4142 26.2087 17.4142 26.1803C17.5846 26.2087 17.736 26.1424 17.8873 26.0857C19.5432 25.5369 21.199 24.9976 22.8643 24.4488C22.9684 24.4204 23.0914 24.2974 23.1765 24.4015C23.2806 24.5339 23.1103 24.6285 23.0535 24.7137C21.7667 26.4925 20.4799 28.2714 19.1836 30.0408C18.2942 31.2613 17.4142 32.4725 16.5343 33.693C16.4397 33.8255 16.3734 33.9674 16.2031 33.9864Z" fill="#F6AB16"/>
<path d="M11.5733 20.4263C11.507 20.4263 11.4597 20.4074 11.4219 20.3506C11.4786 20.3506 11.5354 20.3695 11.5733 20.4263Z" fill="#F38B19"/>
</svg>
