<svg width="27" height="26" viewBox="0 0 27 26" fill="none" xmlns="http://www.w3.org/2000/svg">
<path d="M12.4716 4C12.8035 4 13.1247 4 13.4565 4C13.5208 4.01071 13.5957 4.02142 13.66 4.03213C13.949 4.06426 14.2274 4.08568 14.5164 4.13923C15.6941 4.33201 16.7861 4.76041 17.8032 5.40301C18.0387 5.55295 18.2529 5.7136 18.4884 5.87425C17.7818 6.7846 17.0966 7.68424 16.4007 8.58388C14.0347 6.79531 10.9299 7.24513 9.12059 9.02299C7.41832 10.7045 6.89372 13.3498 8.0928 15.6203C9.22765 17.7516 11.6365 18.9726 14.1739 18.4478C16.4007 17.9872 17.8996 16.188 18.2743 14.7207C16.5185 14.7207 14.7734 14.7207 13.0176 14.7207C13.0176 13.5747 13.0176 12.4395 13.0176 11.2935C13.1032 11.2935 13.1782 11.2935 13.2531 11.2935C16.0902 11.2935 18.9274 11.2935 21.7752 11.2935C21.8501 11.2935 21.9251 11.2935 22 11.2828C22 12.0325 22 12.7822 22 13.5319C21.9893 13.5962 21.9786 13.6604 21.9679 13.714C21.9144 14.0995 21.8822 14.4958 21.7966 14.8706C21.3255 17.0341 20.2228 18.8012 18.4563 20.14C16.2722 21.8 13.7991 22.3462 11.1119 21.7893C8.96 21.3395 7.21491 20.2149 5.87665 18.4692C4.42062 16.5842 3.82108 14.453 4.04591 12.0968C4.22791 10.1904 4.96663 8.50891 6.24065 7.06306C7.63244 5.48869 9.36683 4.50337 11.4438 4.13923C11.7864 4.07497 12.129 4.04284 12.4716 4Z" fill="#A8A8A8"/>
</svg>
