<svg width="50" height="51" viewBox="0 0 50 51" fill="none" xmlns="http://www.w3.org/2000/svg">
<circle cx="25.5" cy="25.5" r="20.5" fill="#ED2D21"/>
<path d="M24.9959 17C25.3096 17 25.6131 17 25.9268 17C25.9875 17.0101 26.0583 17.0202 26.119 17.0304C26.3922 17.0607 26.6552 17.0809 26.9284 17.1315C28.0414 17.3136 29.0734 17.7184 30.0345 18.3254C30.2571 18.4671 30.4595 18.6188 30.6821 18.7706C30.0143 19.6306 29.3668 20.4805 28.7091 21.3304C26.4731 19.6407 23.539 20.0657 21.8291 21.7452C20.2204 23.3337 19.7246 25.8328 20.8578 27.9777C21.9303 29.9911 24.2067 31.1446 26.6046 30.6488C28.7091 30.2137 30.1256 28.5139 30.4797 27.1278C28.8204 27.1278 27.1712 27.1278 25.5119 27.1278C25.5119 26.0452 25.5119 24.9728 25.5119 23.8902C25.5929 23.8902 25.6637 23.8902 25.7345 23.8902C28.4157 23.8902 31.0969 23.8902 33.7882 23.8902C33.859 23.8902 33.9299 23.8902 34.0007 23.88C34.0007 24.5883 34.0007 25.2965 34.0007 26.0048C33.9906 26.0655 33.9804 26.1262 33.9703 26.1768C33.9197 26.541 33.8894 26.9154 33.8084 27.2695C33.3633 29.3132 32.3211 30.9827 30.6517 32.2474C28.5877 33.8156 26.2505 34.3316 23.711 33.8055C21.6773 33.3806 20.0281 32.3182 18.7634 30.669C17.3975 28.8984 16.8309 26.8749 17.0434 24.649C17.2154 22.848 17.9135 21.2596 19.1175 19.8937C20.4328 18.4064 22.0719 17.4755 24.0347 17.1315C24.3484 17.0708 24.6722 17.0405 24.9959 17Z" fill="white"/>
</svg>
