<svg width="133" height="132" viewBox="0 0 133 132" fill="none" xmlns="http://www.w3.org/2000/svg">
<path d="M33.8538 46.9667C38.8294 44.9621 43.805 42.9576 48.7805 40.9172C52.3959 39.4496 56.0112 37.9104 59.6266 36.407C61.309 35.7269 63.0271 35.0826 64.7095 34.3308C65.6402 33.9013 66.4277 33.8655 67.3584 34.2951C69.0408 35.0468 70.759 35.6911 72.4413 36.3712C80.9965 39.9865 89.5874 43.5661 98.2499 46.9667C99.4311 47.5036 100.577 48.0405 101.794 48.5059C102.438 48.7564 102.581 49.0786 102.51 49.7229C101.937 54.6269 101.436 59.5667 100.791 64.4706C100.29 68.4797 99.6101 72.4888 99.0374 76.4979C98.5004 78.932 98.0351 81.3661 97.4266 83.7644C96.4243 87.8451 95.422 91.9615 92.9163 95.5411C91.7351 97.2235 90.1601 98.5479 88.8715 100.123C87.6902 101.125 86.509 102.127 85.3277 103.13C79.6362 107.389 73.6942 111.22 67.4658 114.692C66.3919 115.3 65.6402 115.264 64.5663 114.692C58.3379 111.22 52.3959 107.389 46.7044 103.13C45.5947 102.056 44.4493 101.018 43.1607 100.123C42.9817 99.9081 42.8743 99.6934 42.6595 99.5144C38.9368 96.2212 36.7533 92.0331 35.5004 87.2723C34.5697 83.7286 33.8538 80.1133 33.0305 76.5337C32.7084 74.386 32.3862 72.2025 32.0283 70.0547C30.9544 63.3252 30.2743 56.524 29.5226 49.7229C29.451 49.1144 29.63 48.7564 30.2743 48.5059C31.5271 48.0405 32.6726 47.4678 33.8538 46.9667ZM93.9186 53.9826C94.0618 52.9087 93.3101 52.8729 92.7732 52.6581C84.3612 49.4365 75.9493 46.2149 67.5374 42.9576C66.4993 42.5638 65.6402 42.528 64.6021 42.9218C60.2709 44.6757 55.868 46.3223 51.501 48.0047C47.3845 49.5797 43.268 51.1547 39.1516 52.7655C38.6146 52.9803 38.0419 53.1593 38.1493 53.9468C38.543 57.6337 38.7936 61.2848 39.2589 64.9718C39.9749 70.5559 40.8339 76.14 41.872 81.6882C43.0175 87.8093 46.0243 92.6775 50.8567 96.5434C55.3669 100.123 60.1277 103.345 65.0675 106.28C65.7834 106.709 66.2845 106.745 67.0004 106.28C72.6203 102.879 78.1686 99.3712 83.001 94.861C85.2561 92.749 87.3323 90.5297 88.4777 87.5587C89.9095 83.7644 90.6254 79.8269 91.3056 75.8894C91.9141 72.2025 92.451 68.5155 92.8805 64.7928C93.2743 61.1775 93.5965 57.4905 93.9186 53.9826Z" fill="#75452E"/>
<path d="M33.8536 46.9667C32.6723 47.5036 31.5269 48.0405 30.3098 48.5059C29.6655 48.7564 29.5223 49.0786 29.5581 49.7229C30.3098 56.524 30.99 63.2894 32.0638 70.0547C32.386 72.2025 32.7439 74.386 33.0661 76.5337C28.9496 77.7866 24.8331 79.0752 21.003 81.0439C21.003 75.5314 20.9672 70.0547 20.9672 64.5422C20.9672 54.8059 20.9314 45.0337 21.003 35.2973C21.003 34.0087 20.6093 33.7581 19.428 33.7939C17.2087 33.8655 14.9894 33.8297 12.4121 33.8297C13.7723 32.2547 14.9178 30.9303 16.0632 29.6059C19.607 25.561 23.1507 21.5519 26.6587 17.4712C27.1598 16.8985 27.482 16.6837 28.0905 17.3996C32.7081 22.7331 37.3973 28.0309 42.015 33.3644C42.0508 33.436 42.0508 33.5076 42.1581 33.8297C39.9388 33.8297 37.7911 33.8297 35.6076 33.8297C33.5672 33.8297 33.8178 33.5434 33.8178 35.5837C33.8178 39.378 33.8536 43.1723 33.8536 46.9667Z" fill="#FED23A"/>
<path d="M99.0379 76.4979C99.6464 72.4888 100.291 68.4797 100.792 64.4706C101.436 59.5666 101.937 54.6268 102.51 49.7228C102.582 49.1143 102.403 48.7564 101.794 48.5058C100.577 48.0405 99.4317 47.5035 98.2504 46.9666C98.2504 42.9575 98.2504 38.9126 98.2862 34.9035C98.2862 34.0086 97.9999 33.7939 97.1408 33.7939C94.7783 33.8297 92.4158 33.7939 89.6953 33.7939C91.0555 32.2547 92.201 30.9302 93.3464 29.6058C96.8902 25.5609 100.398 21.5518 103.942 17.5069C104.407 16.97 104.765 16.6478 105.374 17.3995C109.991 22.7331 114.681 28.0308 119.298 33.3643C119.334 33.4359 119.37 33.5075 119.477 33.8297C117.544 33.8297 115.719 33.8297 113.857 33.8297C111.101 33.8297 111.101 33.8297 111.101 36.5143C111.101 50.8325 111.101 65.1149 111.101 79.4331C111.101 79.97 111.065 80.5069 111.065 81.0439C107.271 79.0035 103.154 77.7149 99.0379 76.4979Z" fill="#FED23A"/>
<path d="M8.33125 127.757C8.58182 124.858 9.47671 122.102 10.0494 119.274C10.658 116.231 11.3381 113.153 12.0898 110.146C12.3403 109.144 12.0182 108.714 11.3023 108.177C9.15455 106.638 7.07841 105.027 4.96648 103.452C3.67784 102.486 3.67784 102.486 4.96648 101.448C9.11875 98.2617 13.7006 96.0066 18.533 94.2169C19.3205 93.9305 20.1438 93.6799 20.9313 93.3936C20.9313 97.3311 20.9313 101.269 20.9313 105.206C20.9313 105.671 20.7523 106.208 21.2176 106.566C21.3966 107.032 21.7903 107.032 22.1841 107.103C24.9761 107.783 27.7682 108.499 30.5602 109.215C35.7506 110.54 40.9409 111.864 46.1313 113.188C38.3279 113.367 30.775 114.692 23.5443 117.806C18.2108 120.097 13.3426 123.14 9.08296 127.149C8.90398 127.399 8.7608 127.793 8.33125 127.757Z" fill="#C7322F"/>
<path d="M123.773 127.757C121.661 126.218 119.799 124.357 117.616 122.853C109.49 117.305 100.47 114.334 90.6976 113.511C89.0868 113.367 87.476 113.296 85.8652 113.224C86.0084 113.153 86.1874 113.045 86.3306 113.009C93.9908 111.112 101.651 109.215 109.275 107.282C109.705 107.175 110.457 107.354 110.528 106.566C111.352 106.387 111.065 105.743 111.065 105.278C111.101 101.304 111.101 97.3669 111.101 93.3936C116.793 95.2549 122.162 97.7248 126.923 101.376C128.354 102.486 128.354 102.486 126.958 103.559C124.846 105.134 122.77 106.745 120.623 108.284C119.871 108.821 119.764 109.287 119.943 110.182C121.195 115.623 122.377 121.063 123.594 126.504C123.737 126.898 123.88 127.328 123.773 127.757Z" fill="#C6322F"/>
<path d="M72.4408 36.3713C70.7585 35.6912 69.0045 35.0827 67.3579 34.2952C66.4272 33.8656 65.6397 33.9014 64.709 34.331C63.0266 35.0827 61.3443 35.727 59.6261 36.4071C59.6261 31.6105 59.5903 26.8497 59.6261 22.0531C59.6261 21.0866 59.3397 20.8361 58.409 20.8719C56.0465 20.9435 53.7198 20.9077 51.0352 20.9077C52.4312 19.3327 53.5766 18.0082 54.7221 16.6838C58.23 12.6747 61.738 8.66562 65.246 4.65653C65.6397 4.19119 65.9619 3.58267 66.6778 4.40596C71.3312 9.77528 76.0204 15.1088 80.7096 20.4423C80.7454 20.5139 80.7454 20.6213 80.817 20.8719C78.4903 20.8719 76.1994 20.9435 73.9085 20.8361C72.7988 20.8003 72.5124 21.1224 72.5124 22.2321C72.5124 26.9571 72.4766 31.6463 72.4408 36.3713Z" fill="#FED23A"/>
<path d="M111.172 93.3574C111.172 97.3307 111.172 101.268 111.136 105.241C111.136 105.707 111.422 106.387 110.599 106.53C103.69 103.237 96.3523 101.376 88.8711 100.087C90.1597 98.5119 91.7347 97.1875 92.916 95.5051C95.4217 91.9614 96.3881 87.8449 97.4262 83.7284C98.0347 81.3301 98.5001 78.896 99.037 76.4619C103.153 77.679 107.27 79.0034 111.1 80.9721C111.136 85.1244 111.136 89.2409 111.172 93.3574Z" fill="#EA423F"/>
<path d="M21.2538 106.567C20.7884 106.209 20.9674 105.672 20.9674 105.206C20.9674 101.269 20.9674 97.3313 20.9674 93.3938C20.9674 89.2774 21.0032 85.1609 21.0032 81.0444C24.8333 79.0399 28.9498 77.7512 33.0663 76.5342C33.8896 80.1137 34.6055 83.7291 35.5362 87.2728C36.789 92.0336 38.9725 96.2217 42.6953 99.5149C42.8743 99.6938 43.0174 99.9086 43.1964 100.123C41.4066 100.446 39.6169 100.732 37.8271 101.126C32.0998 102.343 26.5515 104.061 21.2538 106.567Z" fill="#EA423F"/>
<path d="M21.2539 106.567C26.5516 104.061 32.1357 102.343 37.8272 101.054C39.617 100.66 41.4068 100.41 43.1965 100.052C44.4852 100.947 45.6306 101.985 46.7403 103.059C46.7403 106.101 46.7403 109.108 46.7045 112.151C46.7045 112.509 47.134 113.224 46.2033 113.189C41.013 111.864 35.8227 110.54 30.6323 109.215C27.8403 108.499 25.0482 107.784 22.2562 107.103C21.8266 107.032 21.4329 107.032 21.2539 106.567Z" fill="#962523"/>
<path d="M88.9068 100.087C96.388 101.411 103.726 103.273 110.635 106.53C110.527 107.318 109.811 107.139 109.382 107.246C101.722 109.179 94.0613 111.076 86.4369 112.973C86.2579 113.009 86.1147 113.116 85.9715 113.188C85.005 113.26 85.4704 112.508 85.4346 112.15C85.3988 109.107 85.3988 106.101 85.3988 103.058C86.5442 102.091 87.7255 101.089 88.9068 100.087Z" fill="#962523"/>
<path d="M8.33201 127.757C8.29621 127.828 8.29621 127.864 8.26042 127.936C8.11724 127.757 8.22462 127.757 8.33201 127.757Z" fill="#C7322F"/>
<path d="M123.771 127.757C123.843 127.793 123.879 127.793 123.95 127.828C123.736 128.007 123.807 127.828 123.771 127.757Z" fill="#C6322F"/>
<path d="M93.9187 53.9822C93.5607 57.4901 93.2743 61.1771 92.8448 64.8282C92.4152 68.5151 91.8783 72.2379 91.2698 75.9248C90.5897 79.8623 89.8738 83.7998 88.4419 87.5941C87.3323 90.5651 85.2204 92.7844 82.9652 94.8964C78.1328 99.4066 72.5846 102.915 66.9647 106.315C66.2488 106.745 65.7476 106.745 65.0317 106.315C60.0919 103.344 55.3311 100.158 50.8209 96.5788C45.9885 92.7129 42.9817 87.8447 41.8362 81.7237C40.7982 76.1754 39.9033 70.5913 39.2232 65.0072C38.7578 61.356 38.5073 57.6691 38.1135 53.9822C38.0419 53.1947 38.6147 52.9799 39.1158 52.8009C43.2323 51.1901 47.3487 49.6151 51.4652 48.0401C55.8323 46.3577 60.2351 44.7111 64.5664 42.9572C65.6044 42.5276 66.4635 42.5634 67.5016 42.993C75.9135 46.2503 84.3255 49.4719 92.7374 52.6935C93.3101 52.8725 94.0976 52.9083 93.9187 53.9822ZM53.1834 87.4509C53.7919 87.272 54.2215 87.1646 54.6152 87.0214C58.0874 85.8759 61.5595 84.7305 65.0317 83.5492C65.7834 83.2987 66.4635 83.2629 67.2152 83.5492C70.58 84.7305 73.9806 85.8401 77.3811 86.9498C77.8465 87.093 78.3118 87.4509 78.9203 87.3435C78.276 84.0146 77.6675 80.793 76.9874 77.5714C76.8442 76.9629 76.9516 76.5691 77.3096 76.1038C79.0635 73.8129 80.7817 71.4504 82.5357 69.1236C83.18 68.3004 82.9652 68.0498 81.9988 67.8708C79.2425 67.3697 76.4863 66.7969 73.73 66.26C72.9067 66.1168 72.2624 65.7589 71.7613 65.043C70.1505 62.8236 68.4681 60.6759 66.8931 58.4924C66.2846 57.6333 65.9266 57.5617 65.2465 58.4566C63.6715 60.6759 61.9891 62.8236 60.3783 65.043C59.8772 65.7589 59.2328 66.1168 58.4095 66.2958C55.6533 66.8327 52.897 67.4413 50.1408 67.9066C48.9953 68.1214 49.0669 68.4793 49.6397 69.2668C51.3578 71.5219 53.076 73.8486 54.7942 76.1396C55.1522 76.6049 55.2595 76.9987 55.1164 77.6072C54.472 80.7572 53.8635 83.9788 53.1834 87.4509Z" fill="#AC6643"/>
<path d="M53.1833 87.4514C53.8634 83.9792 54.472 80.7218 55.1521 77.5002C55.2953 76.8917 55.1879 76.498 54.8299 76.0326C53.1117 73.7775 51.3936 71.4508 49.6754 69.1599C49.1027 68.3724 48.9953 68.0144 50.1765 67.7997C52.9328 67.3343 55.689 66.7258 58.4453 66.1889C59.2686 66.0457 59.9129 65.6519 60.414 64.936C62.0248 62.7167 63.7072 60.6048 65.2822 58.3497C65.9265 57.419 66.2845 57.5264 66.9288 58.3854C68.5038 60.6048 70.1862 62.7525 71.797 64.936C72.2981 65.6519 72.9424 65.9741 73.7657 66.1531C76.522 66.69 79.2782 67.2627 82.0345 67.7639C83.001 67.9428 83.1799 68.1934 82.5714 69.0167C80.8174 71.3076 79.0993 73.6701 77.3453 75.9968C76.9873 76.4622 76.9157 76.8559 77.0231 77.4644C77.7032 80.686 78.3118 83.9076 78.9561 87.2366C78.3476 87.344 77.8822 86.986 77.4169 86.8428C74.0163 85.7332 70.6157 84.5877 67.251 83.4423C66.4993 83.1917 65.8191 83.1917 65.0674 83.4423C61.5953 84.6235 58.1231 85.769 54.6509 86.9144C54.1856 87.165 53.7561 87.2724 53.1833 87.4514Z" fill="#FDD13A"/>
</svg>
