<svg width="68" height="62" viewBox="0 0 68 62" fill="none" xmlns="http://www.w3.org/2000/svg">
<path d="M34.4665 25.9405C35.5718 24.9889 36.6387 24.0374 37.7344 23.1339C40.1084 21.1828 42.6074 19.4047 45.3755 18.011C50.3927 15.4928 55.8327 18.0879 58.226 21.7883C61.7534 27.238 59.7542 34.437 53.9008 37.2532C53.4972 37.4454 53.3914 37.6665 53.3818 38.0798C53.3434 40.3481 53.2665 42.626 53.0839 45C53.0166 44.8847 52.9589 44.7501 52.8724 44.6444C51.027 42.5106 49.1816 40.3769 47.3362 38.2528C47.2016 38.099 47.0383 37.9356 46.8556 37.8779C44.2509 37.0033 41.973 35.5615 39.8297 33.8892C38.138 32.5724 36.5522 31.1307 34.9182 29.737C34.7836 29.6217 34.6587 29.4967 34.4953 29.3429C34.3607 29.4583 34.2262 29.5736 34.1012 29.6889C31.4004 32.2071 28.5939 34.5908 25.3548 36.3881C24.3648 36.936 23.298 37.3301 22.2695 37.8202C22.0485 37.926 21.8178 38.0605 21.6544 38.2431C19.857 40.2904 18.0789 42.3472 16.3008 44.4041C16.147 44.5771 15.9932 44.7597 15.8395 44.9327C15.7818 44.9231 15.7241 44.9135 15.6761 44.8943C15.6761 43.7121 15.6857 42.5395 15.6761 41.3573C15.6665 40.2039 15.6088 39.0505 15.5992 37.8971C15.5992 37.6088 15.5031 37.4454 15.2339 37.3204C11.7161 35.6096 9.59201 32.8223 9.09221 28.9489C8.34252 23.2204 12.2544 18.2801 17.5407 17.1844C20.0397 16.6654 22.2887 17.2902 24.4609 18.4532C27.4501 20.0487 30.0933 22.1247 32.6403 24.3258C33.2458 24.8448 33.8417 25.383 34.4665 25.9405ZM17.9444 38.5603C18.0116 38.5699 18.0789 38.5795 18.1462 38.5892C18.8671 37.753 19.5783 36.9168 20.3184 36.0998C20.4818 35.9268 20.7125 35.8018 20.9431 35.7057C21.9427 35.2732 22.9904 34.956 23.9419 34.437C27.1521 32.6781 29.9106 30.3233 32.573 27.8243C32.6307 27.7763 32.6595 27.6994 32.7172 27.6129C32.1309 27.0842 31.5638 26.5652 30.9775 26.0654C28.5554 23.9894 26.0564 21.9998 23.2211 20.5196C21.7793 19.7603 20.2992 19.2221 18.5883 19.4335C13.9941 20.0006 10.6108 24.5853 11.5527 29.1219C12.2255 32.3994 14.2055 34.5523 17.3965 35.5615C17.8098 35.6961 17.9924 35.8595 17.9636 36.3209C17.9059 37.0609 17.9444 37.8106 17.9444 38.5603ZM50.9886 35.7826C51.2577 35.6961 51.4499 35.6288 51.6518 35.5615C54.6986 34.562 56.6785 32.5243 57.3514 29.391C58.0338 26.2 57.063 23.4511 54.5929 21.327C52.8724 19.8468 50.8156 19.0779 48.5473 19.5104C47.3554 19.7411 46.1828 20.2986 45.0967 20.8945C41.8865 22.6726 39.0992 25.037 36.3984 27.4975C36.3407 27.5456 36.3119 27.6225 36.2446 27.7282C37.2538 28.6221 38.2342 29.5256 39.2434 30.3714C41.4636 32.236 43.7223 34.1198 46.4712 35.1098C48.0955 35.6961 49.2393 36.638 50.2293 37.9356C50.3446 38.0894 50.4792 38.2335 50.6041 38.3681C50.681 38.4546 50.7771 38.5219 50.9693 38.6949C50.9886 37.628 50.9886 36.6957 50.9886 35.7826Z" fill="white"/>
<path d="M20.213 25.5071C18.4252 25.5071 16.6279 25.5071 14.8402 25.5071C14.696 25.5071 14.523 25.5456 14.4173 25.4783C14.2827 25.4014 14.1289 25.238 14.1289 25.1131C14.1289 24.9881 14.2827 24.8151 14.4173 24.7382C14.5422 24.6709 14.7248 24.7094 14.8882 24.7094C18.4348 24.7094 21.9911 24.7094 25.5377 24.7094C25.653 24.7094 25.7876 24.6709 25.8645 24.719C26.0279 24.8343 26.1528 24.9881 26.2874 25.1323C26.1528 25.2572 26.0279 25.4591 25.8645 25.4879C25.5569 25.5456 25.2301 25.5071 24.9034 25.5071C23.3559 25.5071 21.7796 25.5071 20.213 25.5071Z" fill="white"/>
<path d="M20.1921 28.7754C18.4044 28.7754 16.607 28.7754 14.8193 28.7754C14.6655 28.7754 14.4829 28.785 14.3483 28.7177C14.2426 28.6697 14.1081 28.5063 14.1177 28.4006C14.1273 28.266 14.233 28.1026 14.3483 28.0353C14.4541 27.9681 14.6271 27.9777 14.7616 27.9777C18.3756 27.9777 21.9895 27.9777 25.6034 27.9777C25.6995 27.9777 25.8244 27.9488 25.8821 27.9873C26.0359 28.093 26.2569 28.2372 26.2569 28.3717C26.2569 28.4967 26.0455 28.6601 25.8917 28.7562C25.7956 28.8139 25.6418 28.7658 25.5169 28.7658C23.7484 28.7754 21.9702 28.7754 20.1921 28.7754Z" fill="white"/>
<path d="M20.1635 30.4093C18.4046 30.4093 16.6457 30.4093 14.8868 30.4093C14.7426 30.4093 14.5696 30.4477 14.4639 30.39C14.3197 30.3035 14.1275 30.1402 14.1371 30.0056C14.1371 29.871 14.3389 29.7269 14.4735 29.6211C14.5504 29.5635 14.6945 29.6019 14.8003 29.6019C18.3949 29.6019 21.9992 29.6019 25.5939 29.6019C25.7189 29.6019 25.8727 29.5635 25.9688 29.6307C26.1033 29.7076 26.286 29.871 26.2667 29.9864C26.2571 30.1305 26.0937 30.2939 25.9495 30.3804C25.8438 30.4477 25.6708 30.4093 25.5266 30.4093C23.7485 30.4093 21.9512 30.4093 20.1635 30.4093Z" fill="white"/>
<path d="M20.213 27.1422C18.4252 27.1422 16.6279 27.1422 14.8402 27.1422C14.696 27.1422 14.523 27.171 14.4173 27.1133C14.2827 27.0365 14.1289 26.8731 14.1289 26.7481C14.1289 26.6232 14.2923 26.4598 14.4269 26.3733C14.523 26.3156 14.6768 26.3444 14.8017 26.3444C18.3868 26.3444 21.9622 26.3444 25.5473 26.3444C25.6915 26.3444 25.8645 26.306 25.9702 26.3733C26.1048 26.4598 26.2586 26.6328 26.2778 26.7769C26.2874 26.8827 26.1048 27.0557 25.9702 27.123C25.8549 27.1806 25.6915 27.1518 25.5473 27.1518C23.7596 27.1422 21.9911 27.1422 20.213 27.1422Z" fill="white"/>
<path d="M48.6164 30.4093C46.8575 30.4093 45.0986 30.4093 43.3301 30.4093C43.186 30.4093 43.013 30.4477 42.9072 30.39C42.7534 30.2939 42.5612 30.1402 42.5324 29.9864C42.5132 29.8903 42.7438 29.7076 42.888 29.6211C42.9841 29.5635 43.1379 29.6019 43.2629 29.6019C46.8479 29.6019 50.433 29.6019 54.0181 29.6019C54.143 29.6019 54.2968 29.5731 54.3929 29.6307C54.5275 29.7172 54.6909 29.871 54.6909 29.996C54.6909 30.1209 54.5371 30.2939 54.4025 30.3708C54.2968 30.4381 54.1238 30.3997 53.9796 30.3997C52.2015 30.4093 50.4042 30.4093 48.6164 30.4093Z" fill="white"/>
<path d="M48.6134 27.9685C50.4108 27.9685 52.1985 27.9685 53.9959 27.9685C54.14 27.9685 54.313 27.9397 54.4188 28.007C54.5533 28.0839 54.7167 28.2569 54.7071 28.3818C54.7071 28.5068 54.5341 28.6606 54.3995 28.7471C54.3034 28.8047 54.1496 28.7759 54.0247 28.7759C50.4396 28.7759 46.8545 28.7759 43.2695 28.7759C43.2022 28.7759 43.1445 28.7759 43.0772 28.7759C42.7985 28.7855 42.5198 28.7086 42.5198 28.3914C42.5102 28.0454 42.7889 27.9685 43.0965 27.9685C44.9322 27.9685 46.768 27.9685 48.6134 27.9685Z" fill="white"/>
<path d="M48.6139 27.1417C46.8358 27.1417 45.0577 27.1417 43.2892 27.1417C43.1258 27.1417 42.9528 27.1706 42.8182 27.1033C42.6933 27.0456 42.5299 26.8822 42.5395 26.7765C42.5491 26.6323 42.6836 26.4593 42.8182 26.3824C42.9431 26.3152 43.1258 26.3344 43.2892 26.3344C46.8454 26.3344 50.392 26.3344 53.9483 26.3344C54.0636 26.3344 54.1982 26.2959 54.2751 26.344C54.4481 26.4497 54.5922 26.6035 54.746 26.7381C54.5922 26.8726 54.4577 27.0937 54.2943 27.1225C53.9675 27.1802 53.6215 27.1417 53.2851 27.1417C51.7184 27.1417 50.1614 27.1417 48.6139 27.1417Z" fill="white"/>
<path d="M48.6611 24.7005C50.42 24.7005 52.1789 24.7005 53.9378 24.7005C54.0628 24.7005 54.2262 24.6621 54.3127 24.7198C54.4665 24.8159 54.5818 24.9793 54.7164 25.1138C54.5818 25.2388 54.4472 25.3926 54.2935 25.4887C54.2166 25.5367 54.0724 25.4983 53.9667 25.4983C50.4008 25.4983 46.835 25.4983 43.2595 25.4983C43.1826 25.4983 43.0769 25.5271 43.0192 25.4887C42.8366 25.3733 42.5386 25.258 42.5194 25.1042C42.481 24.8063 42.7405 24.6909 43.0384 24.6909C44.9223 24.7005 46.7869 24.7005 48.6611 24.7005Z" fill="white"/>
</svg>
