<svg width="33" height="29" viewBox="0 0 33 29" fill="none" xmlns="http://www.w3.org/2000/svg">
<path d="M6.43088 25.2242C6.39933 25.2242 6.37229 25.2242 6.34074 25.2242C5.74579 24.9838 5.66016 24.4986 5.66016 23.9181C5.67368 20.5031 5.66917 17.0926 5.66917 13.6776C5.66917 13.5778 5.67368 13.4826 5.67818 13.3828C6.41736 13.3828 7.15203 13.3828 7.8912 13.3873C7.88219 13.4327 7.88219 13.4781 7.86416 13.5189C7.49457 14.5393 7.21963 15.5869 6.99878 16.6482C6.90413 17.0926 6.82751 17.5371 6.76892 17.986C6.84103 17.9906 6.86808 17.9452 6.89963 17.918C7.5757 17.3103 8.30135 16.7615 9.04954 16.2445C9.22532 16.1221 9.31096 16.1402 9.40561 16.3262C9.69406 16.8885 10.0366 17.4237 10.3927 17.9452C10.5414 18.1629 10.6811 18.3942 10.8794 18.5983C10.902 18.5484 10.9245 18.5257 10.929 18.4985C10.9966 17.9996 11.0958 17.5053 11.213 17.0155C11.5059 15.7683 11.8981 14.5484 12.4344 13.3828C12.8536 13.3828 13.2682 13.3828 13.6874 13.3828C13.6919 13.4826 13.6964 13.5778 13.6964 13.6776C13.6964 17.4146 13.6964 21.1471 13.6964 24.8841C13.6964 24.9838 13.7054 25.0791 13.7099 25.1789H13.6919C11.3572 25.1789 9.027 25.1789 6.6923 25.1834C6.60215 25.1789 6.503 25.138 6.43088 25.2242Z" fill="#FEC63B"/>
<path d="M24.6868 25.2245C24.6553 25.2245 24.6282 25.2245 24.5967 25.2245C24.5246 25.1429 24.4254 25.1791 24.3443 25.1791C22.0276 25.1746 19.7109 25.1746 17.3897 25.1746H17.3672C17.3717 25.0839 17.3807 24.9932 17.3807 24.9025C17.3807 22.6304 17.3807 20.3582 17.3807 18.0906C17.3807 16.5214 17.3852 14.9523 17.3852 13.3831C17.8044 13.3831 18.2235 13.3831 18.6427 13.3831C19.2377 14.6802 19.6568 16.0362 19.9543 17.433C20.0354 17.814 20.0985 18.1949 20.1706 18.5759C20.2608 18.5668 20.2833 18.5079 20.3149 18.458C20.8062 17.7913 21.2524 17.0929 21.649 16.3673C21.7977 16.0997 21.7977 16.0997 22.0591 16.272C22.6992 16.7074 23.3166 17.17 23.9026 17.6779C24.0243 17.7868 24.1324 17.9228 24.3127 17.9954C24.173 17.0203 23.9792 16.077 23.7178 15.1518C23.551 14.5577 23.3617 13.9727 23.1814 13.3786C23.9206 13.3786 24.6553 13.374 25.3944 13.374C25.3944 13.3876 25.3989 13.4058 25.3989 13.4194C25.3989 17.043 25.4035 20.6666 25.3989 24.2902C25.3989 24.7392 25.1826 25.0159 24.7544 25.1655C24.7274 25.1837 24.6958 25.1882 24.6868 25.2245Z" fill="#FEC63B"/>
<path d="M24.1042 6.78027C24.573 6.82563 25.0417 6.78934 25.5105 6.79842C25.7403 6.80295 25.9747 6.81655 26.2046 6.79388C26.6237 6.7576 26.9077 6.92086 27.0744 7.30636C27.0744 8.60796 27.0744 9.90502 27.0744 11.2066C26.9167 11.6148 26.6192 11.7781 26.1955 11.7508C25.9341 11.7372 25.6727 11.7508 25.4068 11.7508C24.4468 11.7508 23.4867 11.7508 22.5267 11.7508C22.4771 11.6511 22.4276 11.5468 22.3825 11.447C22.1436 10.939 21.9092 10.422 21.6208 9.94131C21.2647 9.2066 20.8275 8.52179 20.3633 7.85512C20.5526 7.75988 20.7599 7.72813 20.9582 7.67371C22.0039 7.36985 23.0541 7.07506 24.1042 6.78027Z" fill="#FEC63B"/>
<path d="M4 7.31089C4.16676 6.9254 4.45072 6.78027 4.86988 6.79388C5.48736 6.81655 6.10935 6.80295 6.72683 6.79842C6.80796 6.79842 6.88909 6.78481 6.97022 6.78027C7.36234 6.89819 7.75446 7.01157 8.15109 7.12948C8.7821 7.31543 9.42211 7.45148 10.0441 7.67371C9.21929 8.90728 8.4711 10.1817 7.87616 11.5468C7.80855 11.7055 7.71841 11.769 7.53812 11.7645C6.91613 11.7508 6.29414 11.7599 5.67216 11.7599C5.41074 11.7599 5.14482 11.7418 4.8834 11.7599C4.45973 11.7871 4.15775 11.6239 4.00451 11.2157C4 9.90956 4 8.60796 4 7.31089Z" fill="#FEC63B"/>
<path d="M6.43359 25.2253C6.50571 25.1436 6.60487 25.1799 6.68599 25.1799C9.0207 25.1754 11.3509 25.1754 13.6856 25.1754C13.6856 25.189 13.6901 25.2071 13.6901 25.2207C11.2698 25.2253 8.85394 25.2253 6.43359 25.2253Z" fill="#FED97E"/>
<path d="M17.3912 25.1754C19.7079 25.1754 22.0246 25.1754 24.3458 25.1799C24.4314 25.1799 24.5261 25.1436 24.5982 25.2253C22.1959 25.2253 19.789 25.2253 17.3867 25.2253C17.3867 25.2071 17.3912 25.1935 17.3912 25.1754Z" fill="#FED97E"/>
<path d="M17.3924 25.1748C17.3924 25.1884 17.3879 25.2066 17.3879 25.2202C16.1574 25.2202 14.9225 25.2202 13.692 25.2202C13.692 25.2066 13.6875 25.1884 13.6875 25.1748H13.7055C14.927 25.1748 16.1484 25.1748 17.3699 25.1748H17.3924Z" fill="#FE6844"/>
<path d="M17.3705 25.174C16.149 25.174 14.9276 25.174 13.7061 25.174C13.7016 25.0742 13.6926 24.979 13.6926 24.8792C13.6926 21.1422 13.6926 17.4097 13.6926 13.6727C13.6926 13.5729 13.6881 13.4777 13.6836 13.3779H13.7016C14.914 13.3779 16.122 13.3779 17.3344 13.3779C17.3479 13.3779 17.3614 13.3779 17.375 13.3825L17.384 13.3779C17.384 14.9471 17.3795 16.5163 17.3795 18.0855C17.3795 20.3576 17.3795 22.6297 17.3795 24.8973C17.384 24.9971 17.375 25.0833 17.3705 25.174Z" fill="#FE4440"/>
<path d="M12.4311 13.3875C11.8948 14.5531 11.5072 15.773 11.2097 17.0202C11.0925 17.51 10.9978 18.0044 10.9257 18.5032C10.9212 18.5304 10.9032 18.5576 10.8762 18.603C10.6778 18.3989 10.5381 18.1676 10.3894 17.9499C10.0333 17.4284 9.69077 16.8978 9.40231 16.3309C9.30766 16.1449 9.22203 16.1268 9.04625 16.2492C8.29806 16.7662 7.57241 17.315 6.89633 17.9227C6.86478 17.9499 6.83774 17.9953 6.76562 17.9907C6.82422 17.5372 6.90084 17.0928 6.99549 16.6529C7.22085 15.5916 7.49578 14.544 7.86086 13.5236C7.87439 13.4828 7.87889 13.4329 7.88791 13.3921C8.09073 12.8841 8.28904 12.3671 8.50539 11.8682C8.78934 11.2152 9.08681 10.5621 9.45189 9.94531C9.5195 9.95438 9.58711 9.95892 9.65021 9.97706C10.4119 10.1857 11.1736 10.3943 11.9308 10.6075C12.4897 10.7616 13.0486 10.9249 13.6075 11.0882C13.4858 11.3149 13.3641 11.5372 13.2469 11.7639C12.9359 12.2764 12.67 12.8252 12.4311 13.3875Z" fill="#FE4440"/>
<path d="M9.45068 9.93654C9.0856 10.5533 8.79263 11.2064 8.50417 11.8595C8.28332 12.3629 8.08952 12.8753 7.88669 13.3833C7.14752 13.3833 6.41285 13.3788 5.67368 13.3788C5.66917 12.8345 5.66466 12.2903 5.66016 11.7506C6.28214 11.7506 6.90413 11.7415 7.52612 11.7552C7.70641 11.7597 7.79655 11.6962 7.86416 11.5375C8.4591 10.1769 9.20729 8.89798 10.0321 7.66895C10.2575 7.69616 10.4738 7.75058 10.6766 7.85489C10.4693 8.18596 10.2575 8.50796 10.0591 8.84356C9.85182 9.20184 9.61744 9.55105 9.45068 9.93654Z" fill="#EEAF25"/>
<path d="M12.4336 13.3882C12.668 12.8258 12.9384 12.2816 13.2494 11.751C13.3981 11.751 13.5424 11.751 13.6911 11.751C13.6956 12.2952 13.7046 12.8394 13.7091 13.3836H13.6911C13.2674 13.3836 12.8528 13.3882 12.4336 13.3882Z" fill="#EEAF25"/>
<path d="M21.6198 9.94043C21.9083 10.4257 22.1427 10.9382 22.3816 11.4461C22.4311 11.5459 22.4762 11.6502 22.5258 11.75C22.7421 12.2942 22.963 12.8384 23.1793 13.3872C23.3596 13.9768 23.5444 14.5663 23.7157 15.1604C23.9771 16.0856 24.1709 17.0289 24.3106 18.004C24.1348 17.9314 24.0267 17.7954 23.9005 17.6865C23.3145 17.1786 22.6971 16.716 22.057 16.2806C21.7956 16.1038 21.7956 16.1038 21.6469 16.3759C21.2503 17.1015 20.804 17.7999 20.3128 18.4666C20.2767 18.5119 20.2587 18.5754 20.1685 18.5845C20.0964 18.2036 20.0333 17.8226 19.9522 17.4416C19.6592 16.0448 19.2356 14.6888 18.6406 13.3917C18.5099 13.1105 18.3792 12.8339 18.253 12.5527C18.0231 12.0448 17.7121 11.5822 17.4688 11.0833C17.5319 11.0606 17.5904 11.0289 17.6581 11.0107C18.555 10.7613 19.4474 10.5028 20.3488 10.267C20.768 10.149 21.1781 9.99485 21.6198 9.94043Z" fill="#FE4440"/>
<path d="M23.1809 13.3882C22.9645 12.844 22.7437 12.2997 22.5273 11.751C23.4874 11.751 24.4474 11.751 25.4074 11.751C25.4029 12.2952 25.3984 12.8394 25.3939 13.3791C24.6547 13.3836 23.9201 13.3882 23.1809 13.3882Z" fill="#EEAF25"/>
<path d="M17.4696 11.0788C17.713 11.5777 18.0285 12.0403 18.2539 12.5482C18.3801 12.8294 18.5108 13.1061 18.6415 13.3873C18.2223 13.3873 17.8032 13.3873 17.384 13.3873L17.375 13.3918C17.375 13.3736 17.3795 13.3555 17.3795 13.3419C17.3795 12.8158 17.375 12.2852 17.375 11.7591C17.3795 11.5142 17.3795 11.2693 17.384 11.0244C17.4156 11.038 17.4426 11.0562 17.4696 11.0788Z" fill="#EEAF25"/>
<path d="M17.4685 11.0794C17.4415 11.0612 17.4145 11.0431 17.3829 11.0249C17.0719 10.4308 16.6708 9.9002 16.2651 9.36958C16.2156 9.30155 16.1525 9.30609 16.0848 9.30609C15.7198 9.30609 15.3502 9.30609 14.9851 9.30609C14.9175 9.30609 14.8544 9.30155 14.8048 9.36958C14.3992 9.9002 13.998 10.4308 13.687 11.0249C13.66 11.0431 13.6329 11.0612 13.6059 11.0794C13.047 10.9206 12.4926 10.7574 11.9292 10.5986C11.1675 10.3855 10.4058 10.1768 9.64862 9.96823C9.58552 9.95009 9.51791 9.94555 9.4503 9.93648C9.61707 9.55099 9.84693 9.20178 10.0588 8.8435C10.2571 8.5079 10.4689 8.18136 10.6763 7.85483C10.9918 7.88204 11.2847 7.99996 11.5867 8.08159C12.1636 8.23579 12.7405 8.39905 13.3174 8.55325C13.3851 8.57139 13.4887 8.63942 13.4752 8.47615C13.4346 7.89565 13.4662 7.31514 13.4617 6.73464C13.4617 6.58951 13.4121 6.50334 13.2859 6.42624C12.7541 6.11331 12.2087 5.83667 11.6453 5.58723C11.0999 5.34233 10.5455 5.1065 9.95961 4.97951C9.62158 4.90695 9.28354 4.83892 8.94099 4.8616C8.60746 4.88428 8.32802 5.02487 8.09816 5.27884C7.95393 5.44211 7.73758 5.4421 7.59335 5.31965C7.45814 5.20627 7.41757 4.96591 7.53025 4.82532C7.76012 4.54414 8.02604 4.30831 8.39563 4.21307C8.96804 4.06794 9.53594 4.11783 10.1038 4.24935C11.1856 4.50332 12.1726 4.98858 13.1552 5.49199C13.2498 5.54188 13.3265 5.63712 13.4707 5.62805C13.4121 5.21534 13.4707 4.82985 13.687 4.47611C14.0611 4.14957 14.5118 4.13597 14.9761 4.15411C15.3502 4.16771 15.7243 4.16771 16.0984 4.15411C16.5581 4.13597 17.0043 4.16318 17.3784 4.47611C17.5407 4.7709 17.6533 5.07475 17.6083 5.41943C17.5812 5.62805 17.6623 5.63258 17.8201 5.54188C18.4781 5.16092 19.1632 4.84346 19.8754 4.58042C20.7092 4.27202 21.552 4.01352 22.458 4.17678C22.8952 4.25388 23.2647 4.4489 23.5081 4.83892C23.6118 5.00673 23.5893 5.17906 23.4405 5.31058C23.2918 5.4421 23.125 5.43303 22.9673 5.31512C22.9177 5.27884 22.8771 5.23349 22.8366 5.18813C22.6247 4.96137 22.3543 4.8616 22.0523 4.85706C21.5836 4.84346 21.1284 4.93416 20.6867 5.07929C19.6455 5.41036 18.6765 5.90016 17.7254 6.43078C17.6173 6.48973 17.6128 6.5759 17.6128 6.67568C17.6128 7.25618 17.6218 7.84122 17.6038 8.42173C17.5992 8.57139 17.6173 8.59407 17.748 8.55778C18.059 8.47162 18.37 8.38998 18.6765 8.30381C19.2399 8.14961 19.7897 7.96367 20.3621 7.85029C20.8264 8.51697 21.2591 9.20178 21.6196 9.93648C21.1824 9.9909 20.7678 10.1496 20.3441 10.2585C19.4427 10.4943 18.5503 10.7528 17.6533 11.0023C17.5947 11.0249 17.5316 11.0521 17.4685 11.0794Z" fill="#E92F2F"/>
<path d="M20.3666 7.85553C19.7941 7.96891 19.2398 8.15485 18.6809 8.30905C18.3699 8.39521 18.0589 8.47231 17.7524 8.56302C17.6172 8.5993 17.6037 8.58116 17.6082 8.42696C17.6262 7.84645 17.6172 7.26595 17.6172 6.68091C17.6172 6.58114 17.6217 6.49497 17.7299 6.43601C18.6809 5.90539 19.6499 5.41559 20.6911 5.08452C21.1328 4.94393 21.588 4.85323 22.0567 4.8623C22.3587 4.87137 22.6291 4.96661 22.841 5.19337C22.8815 5.23872 22.9221 5.28407 22.9717 5.32035C23.1294 5.43827 23.2962 5.44734 23.4449 5.31582C23.5937 5.1843 23.6162 5.01196 23.5126 4.84416C23.2737 4.45413 22.8996 4.25912 22.4624 4.18202C21.5564 4.01875 20.7136 4.27726 19.8798 4.58565C19.1676 4.84869 18.4826 5.16615 17.8245 5.54711C17.6713 5.63781 17.5856 5.63328 17.6127 5.42466C17.6577 5.07999 17.5451 4.77613 17.3828 4.48134C18.0995 4.13667 18.8116 3.78746 19.5282 3.44278C20.3936 3.02554 21.259 2.6083 22.1243 2.20014C23.0573 1.76022 24.0038 2.08676 24.4185 3.02101C24.6754 3.59698 24.8962 4.19109 25.072 4.7988C25.3109 5.63328 24.9098 6.42694 24.1075 6.77615C23.0573 7.07547 22.0072 7.37026 20.9615 7.66958C20.7587 7.72854 20.5513 7.76029 20.3666 7.85553Z" fill="#FE4440"/>
<path d="M13.6931 4.48054C13.4768 4.83429 13.4182 5.21978 13.4768 5.63248C13.3325 5.64155 13.2559 5.54632 13.1613 5.49643C12.1787 4.99302 11.1916 4.50775 10.1099 4.25378C9.54201 4.12226 8.97862 4.07238 8.4017 4.2175C8.03211 4.30821 7.76619 4.54857 7.53633 4.82975C7.42365 4.97035 7.46421 5.21071 7.59943 5.32409C7.74365 5.44654 7.96 5.44654 8.10423 5.28327C8.33409 5.02477 8.61354 4.88871 8.94707 4.86604C9.29412 4.83882 9.63215 4.91139 9.96568 4.98395C10.5561 5.11094 11.106 5.34677 11.6514 5.59167C12.2148 5.8411 12.7601 6.11775 13.292 6.43068C13.4182 6.50778 13.4677 6.59394 13.4677 6.73907C13.4723 7.31958 13.4407 7.90008 13.4813 8.48059C13.4903 8.64385 13.3911 8.57583 13.3235 8.55769C12.7466 8.40349 12.1697 8.24022 11.5928 8.08602C11.2908 8.00439 10.9978 7.88648 10.6823 7.85926C10.4795 7.75949 10.2632 7.70053 10.0378 7.67332C9.42032 7.4511 8.77579 7.31504 8.14479 7.1291C7.75267 7.01572 7.36055 6.8978 6.96392 6.77989C6.10305 6.40347 5.73346 5.54178 6.04896 4.6302C6.22474 4.1268 6.40954 3.62339 6.60334 3.12452C6.97744 2.17667 7.90141 1.74128 8.82087 2.15852C10.4615 2.90229 12.0705 3.70502 13.6931 4.48054Z" fill="#FE4440"/>
<path d="M17.3783 11.7555C17.3783 12.2816 17.3828 12.8122 17.3828 13.3383C17.3692 13.3519 17.3557 13.37 17.3422 13.3836C16.1298 13.3836 14.9219 13.3836 13.7094 13.3836C13.7049 12.8394 13.6959 12.2952 13.6914 11.751L13.7049 11.7555C14.9264 11.7555 16.1523 11.7555 17.3783 11.7555Z" fill="#E92F2F"/>
<path d="M17.3359 13.3878C17.3494 13.3743 17.3628 13.3563 17.3762 13.3428C17.3762 13.3608 17.3717 13.3788 17.3717 13.3923C17.3628 13.3878 17.3494 13.3878 17.3359 13.3878Z" fill="#FE6844"/>
<path d="M13.6112 11.0749C13.6382 11.0568 13.6653 11.0386 13.6923 11.0205C13.6968 11.2654 13.6968 11.5103 13.7013 11.7552L13.6878 11.7507C13.5391 11.7507 13.3948 11.7507 13.2461 11.7507C13.3678 11.5284 13.4895 11.3017 13.6112 11.0749Z" fill="#FEC63B"/>
<path d="M13.7004 11.7544C13.6959 11.5095 13.6959 11.2646 13.6914 11.0197C14.0024 10.4256 14.4035 9.89496 14.8092 9.36434C14.8588 9.29631 14.9219 9.30084 14.9895 9.30084C15.3545 9.30084 15.7241 9.30084 16.0892 9.30084C16.1568 9.30084 16.2199 9.29631 16.2695 9.36434C16.6751 9.89496 17.0763 10.4256 17.3873 11.0197C17.3828 11.2646 17.3828 11.5095 17.3783 11.7544C16.1523 11.7544 14.9264 11.7544 13.7004 11.7544Z" fill="#FE4440"/>
</svg>
