<svg width="33" height="29" viewBox="0 0 33 29" fill="none" xmlns="http://www.w3.org/2000/svg">
<path d="M10.2422 27.221C10.501 26.5934 10.8394 26.0058 11.1314 25.3914C11.2177 25.2045 11.3172 25.0309 11.4101 24.8506C12.014 25.0242 12.6046 25.2178 13.2217 25.3313C14.5423 25.565 15.8562 25.5851 17.1834 25.3714C17.8868 25.2579 18.5637 25.0576 19.2339 24.8506C19.5857 25.5584 19.9374 26.2662 20.2891 26.9806C20.3289 27.0608 20.3952 27.1275 20.3753 27.2277C16.9976 27.221 13.6199 27.221 10.2422 27.221Z" fill="#FED23F"/>
<path d="M4.07503 16.2977C3.78968 16.4779 3.50434 16.6582 3.21235 16.8385C3.14599 16.8786 3.0929 16.952 3 16.9387C3 14.9689 3 12.9991 3 11.0293C3.31189 11.1495 3.55742 11.3765 3.84941 11.5368C3.92904 11.5768 4.00203 11.6236 4.08166 11.6703C4.59264 12.0175 5.10361 12.3581 5.64112 12.6585C6.22509 13.0859 6.85551 13.4465 7.45938 13.8404C7.68501 13.9873 7.68501 13.9806 7.45938 14.1275C6.85551 14.5215 6.245 14.9155 5.64112 15.3094C5.09697 15.6099 4.586 15.9504 4.07503 16.2977Z" fill="#ED2849"/>
<path d="M19.2402 24.8436C18.5633 25.0505 17.8865 25.2509 17.1897 25.3644C15.8691 25.5781 14.5486 25.558 13.228 25.3243C12.6109 25.2175 12.0136 25.0172 11.4164 24.8436C10.5802 24.4963 9.76402 24.1224 9.01416 23.6149C7.72678 22.7469 6.63847 21.6785 5.78906 20.3698C5.85542 20.283 5.90188 20.3631 5.94833 20.3898C6.35312 20.6302 6.77119 20.8572 7.20253 21.0509C7.88604 21.358 8.58282 21.6251 9.32605 21.752C9.38577 21.7854 9.4455 21.8121 9.51186 21.8455C9.74412 22.0792 10.0295 22.2394 10.3082 22.4064C10.713 22.6467 11.1178 22.8938 11.569 23.0273C11.6287 23.0941 11.7084 23.1008 11.7814 23.1342C12.4582 23.4013 13.1616 23.5882 13.885 23.7017C14.7145 23.8286 15.5506 23.8486 16.3801 23.7552C17.3025 23.6483 18.1917 23.4079 19.0478 23.0674C20.2223 22.5666 21.2775 21.8722 22.1932 20.9707C22.8104 20.3564 23.3479 19.6687 23.7726 18.9008C23.9849 18.5135 24.2106 18.1396 24.3433 17.7189C24.7813 16.6706 25.0401 15.5822 25.0732 14.4471C25.0932 13.7927 25.0865 13.145 24.9803 12.4906C24.8543 11.7094 24.6618 10.9482 24.3433 10.2203C24.0513 9.47249 23.673 8.77806 23.1687 8.1504C23.1355 8.0903 23.1024 8.03021 23.0692 7.97011C23.0625 7.89666 23.0559 7.82322 23.036 7.75644C22.7639 6.62799 22.3127 5.57965 21.7221 4.58474C21.6889 4.53132 21.6358 4.48458 21.6491 4.41113C22.0074 4.538 22.2729 4.79841 22.5582 5.03212C24.7481 6.85501 26.1483 9.1787 26.6128 11.9965C27.2034 15.5889 26.3009 18.8006 23.9451 21.5717C22.6976 23.0407 21.1514 24.0823 19.3597 24.7768C19.3198 24.8035 19.28 24.8235 19.2402 24.8436Z" fill="#9E1666"/>
<path d="M21.6541 4.41132C21.6409 4.48477 21.6939 4.53151 21.7271 4.58492C22.3177 5.57984 22.769 6.62817 23.041 7.75663C23.0609 7.83008 23.0609 7.90352 23.0742 7.9703C23.0543 7.95694 23.0344 7.94359 23.0211 7.92356C22.3044 7.00878 21.4617 6.23421 20.4729 5.6199C20.0084 5.33278 19.5372 5.05901 19.013 4.89876C18.94 4.85869 18.8736 4.81195 18.8006 4.78524C17.7123 4.37125 16.5909 4.1509 15.4296 4.13087C14.7461 4.11752 14.0692 4.18429 13.4056 4.33119C12.7951 4.46474 12.1846 4.60496 11.6271 4.89876C11.302 4.98556 11.01 5.14581 10.718 5.30607C8.6874 6.43453 7.19431 8.06378 6.29845 10.2272C5.97329 11.0018 5.76094 11.8097 5.64149 12.6444C5.10397 12.3439 4.593 11.9967 4.08203 11.6561C4.28111 10.8015 4.52001 9.96012 4.90489 9.16553C6.67007 5.51974 9.52354 3.28954 13.4985 2.60178C16.3321 2.11434 18.9865 2.68858 21.4351 4.21768C21.5081 4.26442 21.5811 4.31784 21.6541 4.36458C21.6276 4.38461 21.6077 4.40464 21.6608 4.41799L21.6541 4.41132Z" fill="#EB4C96"/>
<path d="M27.6933 8.38403C27.6801 8.62441 27.5805 8.77131 27.3682 8.82473C27.1558 8.88483 26.9966 8.79134 26.897 8.61105C26.7245 8.29722 26.5719 7.97004 26.3927 7.65621C25.5101 6.08705 24.3488 4.76495 22.9088 3.68992C22.8358 3.6365 22.7628 3.58308 22.6964 3.52298C22.5106 3.34937 22.4841 3.11567 22.6234 2.92871C22.7628 2.74842 23.0017 2.70836 23.2141 2.85526C23.4463 3.02219 23.6719 3.1958 23.8909 3.37608C25.4836 4.6915 26.7178 6.28737 27.6071 8.15701C27.6535 8.23713 27.6734 8.33061 27.6933 8.38403Z" fill="#3C3B58"/>
<path d="M26.9411 4.1439C26.9411 4.31751 26.8614 4.44437 26.7088 4.51782C26.5628 4.59127 26.4036 4.59795 26.2974 4.49112C25.6869 3.87681 25.0697 3.26918 24.4393 2.6749C24.2867 2.528 24.3132 2.321 24.4526 2.16075C24.5986 1.99382 24.791 1.94708 24.9768 2.06727C25.156 2.18078 25.3086 2.32768 25.4679 2.4679C25.9258 2.87522 26.3571 3.30924 26.7619 3.76997C26.8614 3.88348 26.9477 3.99032 26.9411 4.1439Z" fill="#3C3B58"/>
<path d="M27.6314 6.02677C27.3992 6.02677 27.1072 5.70625 27.0939 5.44584C27.0873 5.21881 27.2731 5.0185 27.5054 5.01182C27.7575 5.00514 28.0561 5.32565 28.0495 5.6061C28.0495 5.82644 27.8571 6.02677 27.6314 6.02677Z" fill="#3C3B58"/>
<path d="M21.6558 4.41865C21.6093 4.4053 21.6226 4.38527 21.6491 4.36523C21.6557 4.37859 21.6624 4.38527 21.6624 4.39862C21.669 4.4053 21.6624 4.41197 21.6558 4.41865Z" fill="#9E1666"/>
<path d="M9.31665 21.7653C8.57342 21.6385 7.87664 21.3647 7.19313 21.0642C6.76179 20.8706 6.34372 20.6436 5.93893 20.4032C5.89248 20.3765 5.84602 20.2963 5.77966 20.3832C4.98998 19.1946 4.44583 17.9059 4.12731 16.5103C4.11403 16.4369 4.09413 16.3701 4.07422 16.2967C4.58519 15.9561 5.1028 15.6089 5.63368 15.3018C5.73985 16.1364 5.97211 16.9377 6.27736 17.7189C6.72197 18.8207 7.36567 19.8022 8.16198 20.677C8.52033 21.0642 8.93176 21.4048 9.31665 21.7653Z" fill="#EB4B96"/>
<path d="M6.28041 17.7186C5.97515 16.9374 5.74289 16.1361 5.63672 15.3014C6.24059 14.9075 6.85111 14.5135 7.45498 14.1196C7.6806 13.9727 7.6806 13.9793 7.45498 13.8324C6.85111 13.4385 6.22069 13.0779 5.63672 12.6506C5.75617 11.8159 5.96851 11.008 6.28704 10.2334C6.69184 10.3469 7.07009 10.5472 7.46161 10.7075C9.70458 11.6423 11.9542 12.5771 14.1971 13.5053C14.5555 13.6522 14.9006 13.8391 15.2854 13.9326C15.2854 13.966 15.2854 13.9994 15.2854 14.0328C15.2058 14.0261 15.1461 14.0595 15.0731 14.0862C14.4493 14.3466 13.8255 14.607 13.2017 14.8674C11.6224 15.5218 10.0496 16.1895 8.47028 16.8372C7.74696 17.1243 7.03027 17.4582 6.28041 17.7186Z" fill="#FED23F"/>
<path d="M18.9955 4.89844C19.5197 5.05869 19.9909 5.33246 20.4554 5.61959C21.4442 6.23389 22.2869 7.00178 23.0036 7.92324C23.0169 7.94327 23.0434 7.95662 23.0567 7.96998C23.0899 8.03007 23.1231 8.09017 23.1562 8.15026C23.1562 8.22371 23.143 8.30384 23.1562 8.37061C23.3155 9.11179 23.3619 9.85964 23.3487 10.6075L23.342 10.6142C22.4329 10.9948 21.5238 11.3687 20.6146 11.7493C19.5197 12.2034 18.4248 12.6708 17.3298 13.1181C16.6729 13.3852 16.0358 13.6857 15.3656 13.9127C15.3457 13.9127 15.3324 13.9127 15.3125 13.9127C15.7505 12.8511 16.1884 11.7827 16.6264 10.721C17.2834 9.11846 17.947 7.52261 18.5973 5.92006C18.7499 5.5862 18.9357 5.26569 18.9955 4.89844Z" fill="#F9A31B"/>
<path d="M6.27734 17.7196C7.02057 17.4659 7.73726 17.1253 8.46722 16.8315C10.0466 16.1838 11.6193 15.5228 13.1987 14.8617C13.8225 14.6013 14.4462 14.3409 15.07 14.0805C15.1364 14.0538 15.2027 14.0137 15.2824 14.0271C15.2691 14.0671 15.2625 14.1072 15.2492 14.1406C14.9041 14.9886 14.5524 15.8299 14.2007 16.6779C13.63 18.0601 13.0593 19.4423 12.4953 20.8245C12.3227 21.2452 12.1104 21.6525 11.9976 22.0999C11.9843 22.0999 11.9644 22.0999 11.9511 22.0999C11.4999 22.0999 11.0486 22.0665 10.5974 22.0064C10.2324 21.953 9.86741 21.9062 9.4958 21.8595C9.43607 21.8261 9.37635 21.7994 9.30999 21.766C8.91847 21.4054 8.51367 21.0716 8.15533 20.6776C7.36565 19.8029 6.72859 18.8213 6.27734 17.7196Z" fill="#F1624C"/>
<path d="M24.3432 17.7251C24.2105 18.1458 23.9849 18.5264 23.7725 18.907C23.3478 19.6749 22.8103 20.3626 22.1931 20.9769C21.284 21.8784 20.2289 22.5728 19.0477 23.0736C18.8685 22.6262 18.6827 22.1855 18.5102 21.7381C18.331 21.2841 18.1054 20.8501 17.9727 20.376C18.8619 19.7617 19.7046 19.0873 20.428 18.2793C20.8859 17.7719 21.2973 17.2243 21.649 16.6367C21.7419 16.6634 21.8348 16.6901 21.9211 16.7235C22.7307 17.0574 23.5402 17.3912 24.3432 17.7251Z" fill="#D34A43"/>
<path d="M17.9701 20.3839C18.1029 20.858 18.3285 21.292 18.5076 21.7461C18.6802 22.1935 18.866 22.6342 19.0452 23.0815C18.1825 23.4221 17.2933 23.6624 16.3775 23.7693C15.5414 23.8628 14.7119 23.8427 13.8824 23.7159C13.159 23.6024 12.4623 23.4221 11.7788 23.1483C11.7058 23.1216 11.6195 23.1082 11.5664 23.0415C11.7389 22.7477 11.865 22.4338 11.9579 22.1066C11.9712 22.1066 11.9911 22.1066 12.0044 22.1066C12.6414 22.0799 13.2785 22.0265 13.9089 21.9197C15.3489 21.6659 16.6894 21.1518 17.9303 20.3839C17.9436 20.3772 17.9569 20.3772 17.9701 20.3839Z" fill="#EF8015"/>
<path d="M24.3415 17.7261C23.5319 17.3922 22.7289 17.0584 21.9193 16.7245C21.8331 16.6911 21.7335 16.6644 21.6473 16.6377C21.6473 16.6244 21.6406 16.611 21.6406 16.591C21.7468 16.5309 21.7933 16.424 21.8463 16.3239C22.2379 15.6428 22.5564 14.9283 22.7953 14.1805C23.1735 13.0253 23.3925 11.8434 23.3593 10.6215L23.366 10.6148C23.6911 10.4879 24.0163 10.3544 24.3415 10.2275C24.66 10.9554 24.8524 11.7166 24.9785 12.4978C25.0847 13.1455 25.0913 13.7999 25.0714 14.4542C25.0383 15.5894 24.7861 16.6778 24.3415 17.7261Z" fill="#E9B32D"/>
<path d="M24.3457 10.2262C24.0206 10.3531 23.6954 10.4866 23.3702 10.6135C23.3835 9.85895 23.337 9.11109 23.1778 8.37659C23.1645 8.30314 23.1778 8.2297 23.1778 8.15625C23.6755 8.77724 24.0604 9.47835 24.3457 10.2262Z" fill="#EF8015"/>
<path d="M11.9526 22.0986C11.853 22.4258 11.7336 22.7396 11.5611 23.0334C11.1032 22.8999 10.705 22.6528 10.3002 22.4125C10.0215 22.2455 9.73617 22.0853 9.50391 21.8516C9.86889 21.8983 10.2405 21.945 10.6055 21.9985C11.0501 22.0719 11.5013 22.0986 11.9526 22.0986Z" fill="#D34A43"/>
<path d="M15.2836 13.9261C14.8987 13.8326 14.5536 13.6457 14.1953 13.4988C11.9457 12.5706 9.70269 11.6358 7.45973 10.701C7.06821 10.5407 6.69659 10.3471 6.28516 10.2269C7.18101 8.06346 8.67412 6.43421 10.7047 5.30575C10.9901 5.14549 11.2887 4.98524 11.6139 4.89844C11.6205 4.9385 11.6271 4.97856 11.6404 5.01863C12.5429 7.21545 13.452 9.41227 14.3479 11.6091C14.6664 12.377 15.0115 13.1382 15.2836 13.9261Z" fill="#F9A31B"/>
<path d="M15.2791 13.9251C15.0004 13.1372 14.6619 12.3827 14.3434 11.6081C13.4409 9.41131 12.5384 7.21449 11.6359 5.01767C11.6226 4.98429 11.616 4.93755 11.6094 4.89748C12.1668 4.60368 12.7773 4.46346 13.3878 4.32992C14.0514 4.18302 14.7349 4.11624 15.4118 4.1296C16.5731 4.14963 17.6946 4.36998 18.7829 4.78397C18.8559 4.81068 18.9222 4.8641 18.9952 4.89748C18.9355 5.26473 18.7431 5.58524 18.6103 5.92578C17.96 7.52833 17.2964 9.13087 16.6395 10.7267C16.2015 11.7884 15.7635 12.8568 15.3255 13.9185C15.3123 13.9185 15.2924 13.9185 15.2791 13.9251Z" fill="#F1624C"/>
<path d="M15.2821 13.9189C15.2954 13.9189 15.3086 13.9189 15.3285 13.9189C15.3484 13.9189 15.3617 13.9189 15.3816 13.9189C15.3816 13.9523 15.3816 13.979 15.3816 14.0124C15.3484 14.0458 15.3418 14.0725 15.3617 14.1193C15.4679 14.3663 15.5807 14.6134 15.6802 14.8604C16.1713 16.0423 16.6624 17.2309 17.1468 18.4194C17.4122 19.0671 17.7042 19.7081 17.9298 20.3759C16.6889 21.1437 15.3484 21.6579 13.9084 21.9116C13.278 22.0251 12.641 22.0719 12.0039 22.0986C12.1167 21.6512 12.3291 21.2439 12.5016 20.8232C13.0657 19.441 13.6364 18.0589 14.207 16.6767C14.5588 15.8286 14.9038 14.9873 15.2555 14.1393C15.2688 14.0992 15.2754 14.0592 15.2887 14.0258C15.2821 13.9857 15.2821 13.9523 15.2821 13.9189Z" fill="#F9A31B"/>
<path d="M15.3867 14.02C15.3867 13.9866 15.3867 13.9599 15.3867 13.9265C16.057 13.6995 16.7006 13.399 17.351 13.1319C18.4525 12.6845 19.5408 12.2171 20.6358 11.7631C21.5449 11.3825 22.454 11.0085 23.3632 10.6279C23.3963 11.8499 23.1774 13.0251 22.7991 14.1869C22.5536 14.9348 22.2417 15.6492 21.8502 16.3303C21.7971 16.4238 21.7506 16.5373 21.6444 16.5974C21.6113 16.5907 21.5781 16.5907 21.5515 16.5774C20.3637 16.0833 19.1759 15.5825 17.988 15.0883C17.1187 14.7278 16.2494 14.3739 15.3867 14.02Z" fill="#FED23F"/>
<path d="M15.3845 14.0205C16.2538 14.3744 17.1165 14.7283 17.9858 15.0889C19.1737 15.583 20.3615 16.0838 21.5493 16.5779C21.5759 16.5913 21.6157 16.5913 21.6422 16.5979C21.6422 16.6113 21.6489 16.6246 21.6489 16.6447C21.3038 17.239 20.8857 17.7798 20.4279 18.2873C19.7045 19.0952 18.8618 19.7763 17.9726 20.3839C17.9593 20.3839 17.946 20.3839 17.9261 20.3773C17.7071 19.7095 17.4085 19.0752 17.1431 18.4208C16.6653 17.2323 16.1676 16.0504 15.6765 14.8618C15.577 14.6148 15.4641 14.3677 15.358 14.1207C15.3447 14.0806 15.3513 14.0472 15.3845 14.0205Z" fill="#F1624C"/>
</svg>
