<svg width="14" height="13" viewBox="0 0 14 13" fill="none" xmlns="http://www.w3.org/2000/svg">
<path d="M2 6.70579C2 6.55328 2 6.39828 2 6.24577C2.005 6.21327 2.015 6.18327 2.0175 6.15076C2.0525 5.72324 2.15751 5.31072 2.33002 4.91821C2.81754 3.81315 3.64008 3.03562 4.72263 2.53059C5.86768 1.99307 7.06774 1.87056 8.3003 2.13307C9.51786 2.39309 10.5479 2.98311 11.3329 3.96566C11.8855 4.65569 12.198 5.44573 12.2355 6.33327C12.2805 7.45333 11.9005 8.42837 11.1554 9.25341C10.1254 10.3935 8.81282 10.931 7.29525 10.9985C6.60022 11.031 5.92019 10.926 5.26015 10.7035C5.22515 10.691 5.17015 10.7035 5.14015 10.726C5.00264 10.826 4.87764 10.9435 4.73763 11.0385C4.1876 11.411 3.57757 11.5935 2.91254 11.601C2.75504 11.6035 2.64253 11.511 2.60753 11.3635C2.57503 11.2235 2.65253 11.1285 2.73503 11.036C3.13755 10.581 3.29256 10.0535 3.18006 9.45342C3.17006 9.40092 3.14505 9.34592 3.11005 9.30592C2.52002 8.64088 2.14501 7.87585 2.035 6.9883C2.0225 6.8958 2.0125 6.8008 2 6.70579ZM3.84009 6.49078C3.82509 6.9758 4.22511 7.38832 4.72263 7.40332C5.20515 7.42083 5.62017 7.02331 5.63767 6.52328C5.65767 6.03826 5.25015 5.61574 4.75013 5.60574C4.26761 5.59574 3.85509 5.99576 3.84009 6.49078ZM7.12524 7.40582C7.61027 7.42083 8.02279 7.02331 8.03779 6.52328C8.05529 6.04076 7.65777 5.62574 7.15774 5.60824C6.67272 5.58824 6.2502 5.99576 6.2377 6.49578C6.2302 6.9783 6.62772 7.39082 7.12524 7.40582ZM9.54286 5.60574C9.05534 5.60324 8.64532 6.00826 8.64032 6.50078C8.63531 6.9883 9.03783 7.39832 9.53286 7.40582C10.0229 7.41332 10.4404 7.00081 10.4404 6.50578C10.4404 6.01576 10.0329 5.60824 9.54286 5.60574Z" fill="white"/>
</svg>
