<svg width="42" height="39" viewBox="0 0 42 39" fill="none" xmlns="http://www.w3.org/2000/svg">
<path d="M27.557 5C28.0286 5.11245 28.5145 5.18272 28.9647 5.33734C31.5943 6.25798 33.1807 8.66853 32.9806 11.4164C32.7305 14.7757 29.4292 17.2987 26.0492 16.7154C23.5411 16.2867 21.6974 14.5508 21.1329 12.1051C20.4469 9.12534 22.412 5.96984 25.4204 5.21786C25.7491 5.13353 26.0849 5.07028 26.4208 5C26.7924 5 27.1711 5 27.557 5Z" fill="white"/>
<path d="M16.5253 33.7439C16.0751 33.3012 15.6392 32.8655 15.1747 32.4157C15.6607 31.9378 16.1537 31.4529 16.6539 30.9609C16.8969 30.722 17.147 30.4901 17.3685 30.237C17.7329 29.8154 17.6829 29.211 17.2899 28.8385C16.904 28.4731 16.3038 28.445 15.8893 28.8034C15.5606 29.0845 15.2676 29.4148 14.9389 29.6959C13.4741 30.982 11.116 30.5041 10.2799 28.7542C9.77255 27.6859 9.96548 26.3999 10.773 25.5284C11.0159 25.2684 11.2874 25.0294 11.5304 24.7624C11.5947 24.6921 11.6376 24.5445 11.6162 24.4531C11.4447 23.7293 11.5804 23.0757 12.0449 22.4924C14.4745 19.4282 16.904 16.3641 19.3407 13.3C19.355 13.2789 19.3836 13.2648 19.4193 13.2227C20.3197 15.7597 22.049 17.4675 24.65 18.353C24.3999 18.5498 24.1713 18.7255 23.9355 18.9011C21.0843 21.0938 18.226 23.2725 15.382 25.4722C14.7174 25.9993 14.01 26.2242 13.1739 26.0133C13.1025 25.9922 12.9881 26.0344 12.931 26.0836C12.688 26.3085 12.4522 26.5404 12.2235 26.7794C11.8234 27.2081 11.8234 27.8265 12.2235 28.2271C12.6166 28.6206 13.2525 28.6417 13.6956 28.2552C13.9957 27.9952 14.2601 27.693 14.5531 27.4329C15.4106 26.681 16.411 26.4631 17.4971 26.8145C18.5833 27.1659 19.255 27.9319 19.4694 29.0212C19.6623 29.984 19.4265 30.8696 18.7262 31.5864C18.0045 32.3243 17.247 33.0412 16.5253 33.7439Z" fill="white"/>
</svg>
