<svg width="68" height="62" viewBox="0 0 68 62" fill="none" xmlns="http://www.w3.org/2000/svg">
<path d="M45.4526 48.0016C44.4956 47.391 43.5478 46.7714 42.5908 46.1608C38.7445 43.7277 34.8983 41.2946 31.0521 38.8615C30.9792 38.8159 30.9062 38.7612 30.8516 38.7248C35.7368 33.8403 40.613 28.9741 45.5073 24.0806C45.5073 24.2081 45.5073 24.3357 45.5073 24.4633C45.5073 32.1818 45.5073 39.9094 45.5073 47.628C45.5073 47.7555 45.5165 47.874 45.5256 48.0016C45.4982 48.0016 45.48 48.0016 45.4526 48.0016Z" fill="white"/>
<path d="M45.5095 13.3076C45.5095 14.5379 45.5095 15.6952 45.5095 16.9436C45.6553 16.8069 45.7373 16.734 45.8194 16.6429C46.8949 15.5676 47.9703 14.4832 49.0549 13.4079C49.7659 12.7062 50.8596 12.9431 51.1512 13.8635C51.2788 14.2736 51.215 14.6563 50.9598 14.9935C50.8778 15.1029 50.7775 15.194 50.6773 15.2942C40.5878 25.3912 30.4891 35.479 20.3996 45.576C20.0259 45.9496 19.6249 46.1774 19.0872 46.0589C18.2122 45.8767 17.8385 44.8378 18.3671 44.1179C18.4492 44.0086 18.5494 43.9083 18.6406 43.8172C20.5546 41.9035 22.4777 39.9807 24.3917 38.067C24.4828 37.9759 24.5922 37.9121 24.6833 37.8392C24.6651 37.8028 24.656 37.7663 24.6378 37.7299C24.5193 37.7299 24.4099 37.7299 24.2914 37.7299C22.423 37.7299 20.5546 37.7299 18.6861 37.7299C17.5924 37.7299 17 37.1375 17 36.0349C17 32.4353 17 28.8358 17 25.2363C17 24.1518 17.5833 23.5686 18.6679 23.5686C21.9946 23.5686 25.3213 23.5686 28.6481 23.5686C29.0491 23.5686 29.3954 23.4775 29.7418 23.2588C34.8731 20.0055 40.0136 16.7614 45.154 13.5172C45.2452 13.4626 45.3454 13.4079 45.5095 13.3076Z" fill="white"/>
</svg>
