<svg width="19" height="31" viewBox="0 0 19 31" fill="none" xmlns="http://www.w3.org/2000/svg">
<path d="M3.43972 27.6809C2.90497 27.5438 2.43877 27.297 2.21253 26.7691C2.09598 26.4949 2.01371 26.1864 2.01371 25.8916C2 18.8575 2 11.8166 2 4.78251C2 3.69929 2.71301 3 3.80994 3C7.37496 3 10.94 3 14.5119 3C15.6499 3 16.3492 3.69244 16.3492 4.8305C16.3492 8.05274 16.3492 11.275 16.3492 14.4972C16.3492 18.2816 16.3492 22.066 16.3492 25.8504C16.3492 26.5977 16.0681 27.1736 15.3826 27.5164C15.2317 27.5918 15.0672 27.6261 14.9095 27.6809C11.084 27.6809 7.25841 27.6809 3.43972 27.6809ZM15.17 24.589C15.17 18.2611 15.17 11.9606 15.17 5.66006C11.1662 5.66006 7.17614 5.66006 3.1792 5.66006C3.1792 11.9743 3.1792 18.2816 3.1792 24.589C7.183 24.589 11.1662 24.589 15.17 24.589ZM10.0007 26.0218C10.0007 25.5625 9.64424 25.1923 9.1849 25.1854C8.73241 25.1786 8.35534 25.5488 8.34849 26.0013C8.34163 26.4743 8.71185 26.8514 9.17119 26.8514C9.62367 26.8445 10.0007 26.4743 10.0007 26.0218ZM9.15062 4.59741C9.7128 4.59741 10.275 4.59741 10.8303 4.59741C10.9743 4.59741 11.1251 4.58369 11.1251 4.39859C11.1251 4.21348 10.9811 4.19977 10.8303 4.19977C9.72651 4.19977 8.61587 4.19977 7.51208 4.19977C7.36125 4.19977 7.21728 4.22034 7.21728 4.39859C7.21728 4.58369 7.36125 4.59741 7.51208 4.59741C8.06054 4.59741 8.60215 4.59741 9.15062 4.59741Z" fill="#27B0FF"/>
</svg>
