<svg width="46" height="47" viewBox="0 0 46 47" fill="none" xmlns="http://www.w3.org/2000/svg">
<circle cx="23.5" cy="23.5" r="20.5" fill="#3E95E5"/>
<path d="M17.4397 35.681C16.905 35.5438 16.4388 35.297 16.2125 34.7691C16.096 34.4949 16.0137 34.1864 16.0137 33.8916C16 26.8575 16 19.8166 16 12.7825C16 11.6993 16.713 11 17.8099 11C21.375 11 24.94 11 28.5119 11C29.6499 11 30.3492 11.6924 30.3492 12.8305C30.3492 16.0527 30.3492 19.275 30.3492 22.4972C30.3492 26.2816 30.3492 30.066 30.3492 33.8504C30.3492 34.5977 30.0681 35.1736 29.3826 35.5164C29.2317 35.5918 29.0672 35.6261 28.9095 35.681C25.084 35.681 21.2584 35.681 17.4397 35.681ZM29.17 32.589C29.17 26.2611 29.17 19.9606 29.17 13.6601C25.1662 13.6601 21.1761 13.6601 17.1792 13.6601C17.1792 19.9743 17.1792 26.2816 17.1792 32.589C21.183 32.589 25.1662 32.589 29.17 32.589ZM24.0007 34.0218C24.0007 33.5625 23.6442 33.1923 23.1849 33.1854C22.7324 33.1786 22.3553 33.5488 22.3485 34.0013C22.3416 34.4743 22.7118 34.8514 23.1712 34.8514C23.6237 34.8445 24.0007 34.4743 24.0007 34.0218ZM23.1506 12.5974C23.7128 12.5974 24.275 12.5974 24.8303 12.5974C24.9743 12.5974 25.1251 12.5837 25.1251 12.3986C25.1251 12.2135 24.9811 12.1998 24.8303 12.1998C23.7265 12.1998 22.6159 12.1998 21.5121 12.1998C21.3613 12.1998 21.2173 12.2203 21.2173 12.3986C21.2173 12.5837 21.3613 12.5974 21.5121 12.5974C22.0605 12.5974 22.6022 12.5974 23.1506 12.5974Z" fill="white"/>
</svg>
