<svg width="33" height="29" viewBox="0 0 33 29" fill="none" xmlns="http://www.w3.org/2000/svg">
<path d="M7.35351 19.8817C7.35351 22.1146 7.35351 24.1598 7.35351 26.2895C6.20133 26.2895 5.15218 26.2895 4 26.2895C4 20.0412 4 13.7554 4 7.39453C5.07724 7.39453 6.15449 7.39453 7.22237 7.39453C7.22237 9.48668 7.38161 11.5601 7.1849 13.5865C6.91324 16.3729 8.6462 18.512 11.344 18.3806C12.9083 18.3056 14.2572 17.1516 14.6694 15.5286C14.7724 15.1251 14.8474 14.7123 15.0066 13.9243C15.9527 14.975 16.7771 15.81 17.4983 16.7388C17.6763 16.964 17.6108 17.5269 17.4609 17.8365C15.4937 21.7769 10.8382 22.7713 7.84998 20.2007C7.76567 20.1257 7.66263 20.0787 7.35351 19.8817Z" fill="#27B0FF"/>
<path d="M28.0661 21.2141C26.6516 21.2141 25.2465 21.2516 23.832 21.186C23.4667 21.1672 23.0358 20.9327 22.7642 20.6606C20.0945 18.0243 17.4529 15.3692 14.8113 12.7142C14.6989 12.6016 14.5958 12.4984 14.5022 12.3764C12.5631 9.82459 11.0924 9.49623 8.23541 11.138C8.23541 10.1999 8.16984 9.33674 8.27288 8.49238C8.31035 8.17339 8.69441 7.78874 9.02226 7.61987C11.3922 6.34394 14.0057 6.81303 16.1321 8.92394C19.6917 12.4515 23.2138 16.0072 26.764 19.5442C27.2417 20.0226 27.7757 20.4354 28.2815 20.8764C28.216 20.989 28.141 21.1015 28.0661 21.2141Z" fill="#E92F24"/>
<path d="M22.1848 13.502C21.398 12.7327 20.6673 12.0197 19.8711 11.2316C20.939 10.0307 22.0162 8.80172 23.1309 7.61961C23.3089 7.43198 23.6649 7.34754 23.9459 7.34754C25.0887 7.31939 26.2315 7.33816 27.6835 7.33816C25.7257 9.51474 23.9365 11.5318 22.1848 13.502Z" fill="#E92F24"/>
<path d="M18.1276 2C18.1276 4.52371 18.1276 6.94422 18.1276 9.43978C17.041 8.55789 16.0012 7.75105 15.0082 6.89731C14.8396 6.75658 14.746 6.44698 14.746 6.21244C14.7179 4.84269 14.7366 3.47295 14.7366 2C15.8607 2 16.9379 2 18.1276 2Z" fill="#E92F24"/>
<path d="M15.9922 21.1569C16.7416 20.3313 17.3692 19.6465 18.0905 18.8584C18.0905 19.6746 18.0905 20.3876 18.0905 21.1569C17.4348 21.1569 16.8071 21.1569 15.9922 21.1569Z" fill="#E92F24"/>
</svg>
