<svg width="68" height="62" viewBox="0 0 68 62" fill="none" xmlns="http://www.w3.org/2000/svg">
<path d="M53.0253 16.2216C53.0253 16.4645 53.0253 16.7218 53.0253 16.9647C52.9682 17.3933 52.9253 17.822 52.8538 18.2364C52.4823 20.3225 51.7534 22.2943 50.8388 24.1804C48.8809 28.2241 46.2942 31.8534 43.2503 35.1541C42.9358 35.497 42.8501 35.8257 42.9644 36.2686C43.1359 36.883 43.2646 37.5117 43.4218 38.1404C43.679 39.1692 43.436 40.0551 42.6643 40.8124C39.8919 43.5701 37.1337 46.3421 34.3612 49.0998C34.0468 49.4142 33.7181 49.6999 33.3894 50C33.2608 50 33.1465 50 33.0179 50C32.7035 49.8 32.6463 49.4713 32.5891 49.1284C32.2605 47.0708 31.9318 44.999 31.6174 42.9414C31.4887 42.1127 31.6888 41.3697 32.189 40.6981C32.532 40.2409 32.532 40.1123 32.1461 39.7265C29.8596 37.426 27.5587 35.1398 25.2579 32.8393C24.8577 32.4393 24.7434 32.4393 24.2861 32.7822C23.6858 33.2251 23.0142 33.4823 22.271 33.3823C20.0845 33.068 17.898 32.7107 15.7114 32.3678C15.4399 32.3249 15.1255 32.2678 15.0255 31.9535C14.9254 31.6248 15.1398 31.4248 15.3256 31.2104C15.3542 31.1676 15.397 31.139 15.4256 31.1104C18.3696 28.167 21.3135 25.2235 24.2575 22.2943C24.9577 21.5942 25.8009 21.3656 26.7727 21.5942C27.3872 21.7371 28.016 21.8514 28.6163 22.0371C29.2879 22.2515 29.8167 22.1086 30.3312 21.6228C32.1604 19.9224 34.1326 18.3792 36.2191 16.9932C39.063 15.0928 42.0212 13.4354 45.3368 12.5066C46.6944 12.1208 48.0806 11.8779 49.5097 12.0636C51.1961 12.278 52.3965 13.321 52.7967 14.9928C52.8967 15.3929 52.9539 15.8073 53.0253 16.2216ZM47.609 21.4799C47.5947 19.2794 45.8369 17.5505 43.6647 17.5505C41.4782 17.5505 39.7204 19.308 39.7204 21.4942C39.7204 23.6946 41.5068 25.4521 43.6933 25.4378C45.8941 25.4235 47.6376 23.666 47.609 21.4799Z" fill="white"/>
<path d="M18.7706 45.9139C18.842 45.6281 18.9135 45.1423 19.0707 44.6708C20.1425 41.5273 21.5573 38.5838 23.8153 36.1119C24.2154 35.6689 24.4012 35.6546 24.83 36.0833C26.2591 37.4978 27.6882 38.9267 29.103 40.3556C29.5317 40.7842 29.4888 40.9557 29.0601 41.3987C27.6453 42.8418 25.959 43.8134 24.0725 44.5136C22.4862 45.0994 20.9571 45.8281 19.4137 46.4997C18.8849 46.7283 18.7563 46.6569 18.7706 45.9139Z" fill="white"/>
</svg>
