<svg width="33" height="29" viewBox="0 0 33 29" fill="none" xmlns="http://www.w3.org/2000/svg">
<path d="M29.2052 10.0911C29.4127 10.2511 29.4611 10.5015 29.5648 10.7172C29.5648 10.9119 29.5648 11.0998 29.5648 11.2946C29.468 11.3433 29.468 11.4546 29.4265 11.5311C29.2052 11.9207 28.8803 12.1502 28.4309 12.192C28.0299 12.2268 28.0299 12.2198 27.94 12.6163C27.2487 15.7747 26.5573 18.94 25.8659 22.0983C24.7805 22.0983 23.695 22.0983 22.6096 22.0914C22.575 21.994 22.5335 21.8966 22.499 21.7992C21.9182 20.3452 21.3375 18.8982 20.7567 17.4443C21.932 16.5677 23.1005 15.6912 24.2758 14.8216C25.4165 13.9729 26.5573 13.1242 27.6981 12.2894C27.9262 12.1224 28.0092 11.9485 27.9262 11.6702C27.8847 11.5381 27.8363 11.392 27.864 11.2389C27.9954 10.5085 28.4724 10.105 29.2052 10.0911Z" fill="#FDD303"/>
<path d="M20.7576 17.4512C21.3383 18.9052 21.9191 20.3522 22.4998 21.8061C22.5413 21.9035 22.5759 22.0009 22.6104 22.0983C18.8286 22.0983 15.0399 22.0983 11.2581 22.0983C11.272 22.0426 11.272 21.98 11.2996 21.9244C12.0048 20.1713 12.71 18.4252 13.4152 16.6721C14.5007 13.952 15.5792 11.2319 16.6785 8.51882C16.7753 8.28229 16.7269 8.15012 16.5679 7.99707C16.2291 7.66315 15.8972 7.32227 15.5585 6.98139C15.4133 6.84226 15.3649 6.68226 15.5239 6.52921C15.9871 6.06311 16.4296 5.57614 16.9274 5.13787C17.3906 5.60397 17.8607 6.06311 18.3239 6.52921C18.483 6.68921 18.4484 6.8353 18.2963 6.98139C17.9575 7.31532 17.6257 7.66315 17.2869 7.99011C17.121 8.15012 17.0795 8.31012 17.1694 8.52578C17.7224 9.88929 18.2686 11.2598 18.8148 12.6233C18.8425 12.6928 18.8494 12.7763 18.9323 12.8111C18.9946 13.145 19.1398 13.4511 19.2919 13.7503C19.2988 13.799 19.2988 13.8546 19.3195 13.9033C19.6237 14.6546 19.921 15.4129 20.2321 16.1642C20.3013 16.3382 20.3289 16.5329 20.4741 16.6721C20.5087 16.9503 20.6608 17.1938 20.7576 17.4512ZM16.9205 15.3573C16.7684 15.1346 16.6232 14.912 16.4642 14.6964C16.3466 14.5364 16.2153 14.5572 16.1046 14.7103C15.6069 15.399 15.116 16.0947 14.6251 16.7834C14.5422 16.8947 14.5283 16.9921 14.6113 17.1103C15.1091 17.8199 15.6069 18.5295 16.1046 19.2391C16.2222 19.4061 16.3604 19.413 16.478 19.2461C16.6301 19.0374 16.7684 18.8147 16.9135 18.5991C17.2523 18.1191 17.5842 17.6391 17.9229 17.159C18.0197 17.0199 18.0336 16.9016 17.9368 16.7556C17.598 16.2895 17.2592 15.8234 16.9205 15.3573Z" fill="#FDE35A"/>
<path d="M11.2551 22.0903C15.0369 22.0903 18.8256 22.0903 22.6074 22.0903C23.6928 22.0903 24.7783 22.0903 25.8637 22.0972C25.8637 23.419 25.8706 24.7408 25.8706 26.0626C25.8706 26.3756 25.7876 26.4452 25.4558 26.4452C23.8656 26.4452 22.2755 26.4452 20.6853 26.4452C17.0557 26.4452 13.4329 26.4452 9.80319 26.4452C9.63035 26.4452 9.45751 26.4521 9.28467 26.4521C9.18788 26.313 9.17405 26.153 9.18096 25.986C9.18788 25.5199 9.18096 25.0538 9.18096 24.5947C9.50591 24.5738 9.65801 24.4417 9.65109 24.1843C9.64418 23.9129 9.52665 23.8225 9.18096 23.8156C9.18096 23.2451 9.18096 22.6747 9.18096 22.0972C9.44368 22.0972 9.69949 22.0903 9.96221 22.0903C10.3978 22.0903 10.8264 22.0903 11.2551 22.0903ZM12.4511 24.2051C12.4511 23.9547 12.3198 23.8086 12.0778 23.8156C11.8496 23.8225 11.7252 23.9547 11.7252 24.1982C11.7252 24.3999 11.898 24.5877 12.0847 24.5947C12.2714 24.5947 12.4511 24.4069 12.4511 24.2051ZM15.2512 24.2051C15.2512 23.9547 15.1198 23.8086 14.8778 23.8156C14.6497 23.8225 14.5252 23.9547 14.5252 24.1982C14.5252 24.3999 14.6981 24.5877 14.8848 24.5947C15.0714 24.5947 15.2512 24.4069 15.2512 24.2051ZM17.3253 24.1843C17.3184 24.386 17.4843 24.5808 17.671 24.5947C17.8576 24.6086 18.0443 24.4208 18.0512 24.219C18.0581 23.9616 17.9268 23.8156 17.6917 23.8156C17.4636 23.8156 17.3322 23.9477 17.3253 24.1843ZM20.8513 24.2051C20.8513 23.9547 20.7199 23.8086 20.4779 23.8156C20.2498 23.8225 20.1253 23.9547 20.1184 24.1982C20.1184 24.3999 20.2913 24.5877 20.4779 24.5947C20.6715 24.6017 20.8513 24.4069 20.8513 24.2051ZM23.2918 23.8156C23.0637 23.8156 22.9323 23.9477 22.9254 24.1912C22.9185 24.4069 23.1051 24.6017 23.3056 24.5947C23.4923 24.5877 23.6651 24.393 23.6582 24.1912C23.6513 23.9547 23.52 23.8156 23.2918 23.8156Z" fill="#FD9901"/>
<path d="M9.96321 22.0915C9.70049 22.0915 9.44468 22.0984 9.18196 22.0984C8.64961 22.0984 8.11034 22.0915 7.57799 22.0915C7.56416 22.008 7.54342 21.9245 7.52268 21.841C6.99032 19.4757 6.45105 17.1105 5.9187 14.7452C5.70438 13.813 5.50388 12.8738 5.28956 11.9416C5.24807 11.7608 5.19276 11.6008 4.94387 11.6008C4.16262 11.6008 3.61644 10.9538 3.68558 10.2651C3.69941 10.119 3.72015 9.9729 3.73397 9.82681C4.21102 9.6181 4.66732 9.67376 5.05449 10.0146C5.44857 10.3625 5.57993 10.8077 5.42091 11.3086C5.34486 11.559 5.40017 11.7051 5.60758 11.8582C6.45105 12.4773 7.28761 13.1034 8.13108 13.7295C8.20022 13.7782 8.25553 13.8547 8.35232 13.8547C8.55282 14.0773 8.78097 14.2721 9.07134 14.3765C9.09208 14.4878 9.19579 14.5226 9.26493 14.5782C10.2052 15.2809 11.1455 15.9765 12.0857 16.6722C12.0788 16.7209 12.0788 16.7765 12.0581 16.8252C11.8092 17.4583 11.5534 18.0914 11.2976 18.7244C10.8551 19.8445 10.4126 20.9714 9.96321 22.0915Z" fill="#FDD302"/>
<path d="M9.96675 22.0909C10.4161 20.9709 10.8586 19.8439 11.308 18.7239C11.5638 18.0908 11.8127 17.4577 12.0685 16.8247C12.0893 16.776 12.0893 16.7273 12.0962 16.6716C12.1653 16.6438 12.186 16.5742 12.2137 16.5116C12.4972 15.809 12.7944 15.1064 13.0641 14.3968C13.2646 13.875 13.5204 13.3672 13.6587 12.8246C13.8384 12.5463 13.9214 12.2263 14.0458 11.9272C14.5021 10.8071 14.9446 9.68015 15.4078 8.56012C15.5046 8.32359 15.477 8.16359 15.2903 7.98967C14.9584 7.67662 14.6404 7.3427 14.3155 7.01574C14.115 6.81399 14.115 6.68877 14.3155 6.48702C14.8893 5.90962 15.4631 5.33221 16.037 4.75481C16.2375 4.55306 16.3688 4.55306 16.5624 4.74785C16.6938 4.87307 16.8113 5.0122 16.9288 5.14438C16.4311 5.5757 15.9955 6.06962 15.5254 6.53572C15.3663 6.68877 15.4217 6.84877 15.5599 6.98791C15.8987 7.32183 16.2306 7.66966 16.5693 8.00358C16.7283 8.15663 16.7767 8.29576 16.6799 8.52534C15.5876 11.2384 14.5021 13.9585 13.4167 16.6786C12.7184 18.4317 12.0063 20.1778 11.3011 21.9309C11.2803 21.9865 11.2734 22.0492 11.2596 22.1048C10.831 22.0909 10.4023 22.0909 9.96675 22.0909Z" fill="#FDDE31"/>
<path d="M13.6487 12.8242C13.5104 13.3737 13.2546 13.8746 13.0541 14.3964C12.7845 15.1059 12.4872 15.8086 12.2037 16.5112C12.1761 16.5808 12.1623 16.6434 12.0862 16.6712C11.1459 15.9755 10.2057 15.2799 9.26542 14.5772C9.19628 14.5216 9.09257 14.4868 9.07183 14.3755C9.08566 14.3477 9.11332 14.3129 9.11332 14.2851C9.43135 12.6989 9.74246 11.1198 10.0674 9.54059C10.1158 9.30406 10.0812 9.19276 9.86 9.06754C9.24468 8.71274 9.07875 8.01707 9.40369 7.38401C9.45209 7.28662 9.55579 7.2101 9.53505 7.08488C10.5583 7.12662 11.1045 8.10055 10.5998 8.99797C10.503 9.17189 10.5237 9.28319 10.6482 9.42928C11.6645 10.5493 12.6531 11.6902 13.6487 12.8242Z" fill="#FDE35A"/>
<path d="M20.4833 16.6717C20.345 16.5326 20.3174 16.3378 20.2413 16.1639C19.9302 15.4125 19.6329 14.6543 19.3287 13.9029C19.308 13.8542 19.308 13.7986 19.3011 13.7499C19.8887 13.082 20.4695 12.4142 21.0571 11.7464C21.6863 11.0229 22.3085 10.2994 22.9515 9.58979C23.0967 9.42978 23.0898 9.31848 22.9861 9.1376C22.6611 8.58802 22.7925 7.92018 23.2833 7.52365C23.4009 7.42625 23.5737 7.41234 23.6636 7.27321C24.4794 7.8367 24.4448 8.94281 23.5806 9.42978C23.4009 9.52718 23.3871 9.64544 23.4147 9.8124C23.6843 11.162 23.9609 12.5116 24.2305 13.8612C24.196 13.9029 24.1683 13.9447 24.1268 13.9795C22.91 14.8699 21.7001 15.7743 20.4833 16.6717Z" fill="#FDDE30"/>
<path d="M7.58231 22.0903C8.11466 22.0903 8.65393 22.0972 9.18629 22.0972C9.18629 22.6677 9.18629 23.2381 9.18629 23.8156C8.81986 24.0312 8.81986 24.3164 9.18629 24.6017C9.18629 25.0678 9.18629 25.5339 9.18629 25.993C9.18629 26.16 9.1932 26.32 9.28999 26.4591C8.54331 26.4661 7.78972 26.473 7.04304 26.4661C6.81489 26.4661 6.70427 26.3408 6.70427 26.1043C6.71118 24.7686 6.71119 23.4329 6.71119 22.0972C7.00156 22.0972 7.29194 22.0972 7.58231 22.0903Z" fill="#FA8801"/>
<path d="M7.57954 22.0909C7.28917 22.0909 6.99879 22.0909 6.70842 22.0979C6.06545 19.1552 5.42247 16.2125 4.7795 13.2698C4.72419 13.0263 4.66888 12.7829 4.62048 12.5324C4.579 12.3307 4.48912 12.2333 4.26097 12.2124C3.21009 12.1289 2.65699 11.0715 3.23083 10.2437C3.36219 10.0558 3.51429 9.89583 3.74244 9.82626C3.72862 9.97235 3.70787 10.1184 3.69405 10.2645C3.618 10.9532 4.17109 11.6002 4.95234 11.6002C5.20123 11.6002 5.25654 11.7533 5.29802 11.9411C5.51235 12.8733 5.71284 13.8125 5.92717 14.7446C6.45952 17.1099 6.99879 19.4752 7.53115 21.8405C7.54497 21.924 7.56572 22.0074 7.57954 22.0909Z" fill="#F9C602"/>
<path d="M20.4792 16.6712C21.696 15.7738 22.9059 14.8764 24.1227 13.972C24.1642 13.9442 24.1918 13.8955 24.2264 13.8538C24.5652 13.6799 24.8486 13.4155 25.1528 13.1998C25.7198 12.7894 26.2798 12.365 26.8398 11.9407C27.1716 11.6902 27.2684 11.7459 27.1163 11.1963C26.978 10.6815 27.2615 10.0972 27.7524 9.83975C28.2433 9.5754 28.8517 9.67975 29.2112 10.0902C28.4783 10.0971 28.0013 10.5076 27.8699 11.238C27.8423 11.3911 27.8907 11.5372 27.9321 11.6694C28.0151 11.9476 27.9321 12.1216 27.704 12.2885C26.5563 13.1303 25.4155 13.972 24.2817 14.8207C23.1064 15.6973 21.938 16.5738 20.7626 17.4434C20.6589 17.193 20.5068 16.9495 20.4792 16.6712Z" fill="#F9C602"/>
<path d="M23.6549 7.27366C23.5651 7.4128 23.3922 7.42671 23.2747 7.52411C22.7907 7.92064 22.6525 8.58848 22.9774 9.13806C23.0811 9.31894 23.0949 9.42329 22.9428 9.59025C22.2999 10.2998 21.6776 11.0303 21.0485 11.7468C20.4608 12.4147 19.8795 13.0824 19.2919 13.7503C19.1398 13.4511 18.9877 13.145 18.9323 12.8111C19.9003 11.705 20.8687 10.592 21.8505 9.49285C22.0095 9.31198 22.0855 9.18676 21.9265 8.93632C21.6223 8.44935 21.7399 7.80237 22.1547 7.4128C22.5833 7.01627 23.1572 6.96061 23.6549 7.27366Z" fill="#FDD404"/>
<path d="M9.55186 7.0778C9.57952 7.20997 9.4689 7.2865 9.4205 7.37693C9.08865 8.00999 9.26149 8.70566 9.87681 9.06046C10.0911 9.18568 10.1326 9.29698 10.0842 9.53351C9.75928 11.1127 9.44816 12.6988 9.13013 14.278C9.12322 14.3128 9.10247 14.3406 9.08865 14.3684C8.79827 14.2641 8.57704 14.0693 8.36963 13.8467C8.58395 12.7545 8.80519 11.6553 9.01951 10.5631C9.06791 10.3196 9.09556 10.0622 9.17161 9.82569C9.23384 9.61699 9.17853 9.5196 8.99186 9.41525C8.47333 9.12307 8.23826 8.55957 8.38345 7.99608C8.5079 7.47433 8.97803 7.10562 9.55186 7.0778Z" fill="#FDDE32"/>
<path d="M11.1052 3.12003C11.4025 2.87654 11.5753 2.54958 11.7067 2.20175C11.7413 2.10435 11.7758 2 11.9072 2C12.0386 2 12.0731 2.11131 12.1008 2.2087C12.3082 2.82785 12.7092 3.23829 13.3245 3.44699C13.4282 3.48178 13.5527 3.50961 13.5457 3.66265C13.5388 3.80874 13.4144 3.82961 13.3107 3.8644C12.9581 3.98962 12.647 4.19136 12.405 4.48354C12.2805 4.08701 12.0593 3.75309 11.7551 3.48178C11.5684 3.3009 11.3126 3.25916 11.1052 3.12003Z" fill="#FD9904"/>
<path d="M19.9524 4.55303C20.2151 4.30259 20.3949 4.00345 20.5193 3.66257C20.5608 3.55822 20.5885 3.433 20.7268 3.433C20.8512 3.433 20.8858 3.55126 20.9203 3.64866C21.1277 4.2678 21.5287 4.6852 22.151 4.88695C22.2478 4.91477 22.3584 4.9426 22.3653 5.08173C22.3722 5.23478 22.2547 5.26261 22.151 5.29739C21.7915 5.42957 21.4665 5.62436 21.2245 5.93045C21.1969 5.72175 21.1139 5.53392 21.0033 5.35305C20.7544 4.96347 20.3672 4.74781 19.9524 4.55303Z" fill="#FD9904"/>
<path d="M19.9553 4.55306C20.3632 4.74089 20.7504 4.95655 20.9993 5.36003C21.1099 5.54091 21.1928 5.72179 21.2205 5.93744C21.1168 6.1531 21.0062 6.36876 20.9094 6.59137C20.8679 6.68876 20.8264 6.76529 20.7089 6.75833C20.6052 6.75833 20.5637 6.68181 20.5291 6.59833C20.46 6.43137 20.3908 6.26441 20.3079 6.1044C20.0866 5.70787 19.734 5.4783 19.3192 5.3183C19.2086 5.27656 19.0703 5.25569 19.0634 5.10264C19.0565 4.94264 19.1948 4.91481 19.3054 4.88002C19.5474 4.8035 19.741 4.65741 19.9553 4.55306Z" fill="#FA8904"/>
<path d="M11.1052 3.12003C11.3057 3.26612 11.5609 3.30094 11.7545 3.47485C12.0656 3.75312 12.2799 4.08704 12.4044 4.47662C12.3007 4.70619 12.1901 4.9288 12.0863 5.15837C12.0449 5.24881 12.0034 5.31142 11.8997 5.31142C11.8029 5.31142 11.7407 5.25577 11.713 5.15837C11.5056 4.47662 11.0562 4.03139 10.3787 3.82964C10.2888 3.80182 10.2266 3.73225 10.2335 3.63486C10.2404 3.55138 10.2957 3.49572 10.3787 3.4679C10.6483 3.38442 10.8771 3.25221 11.1052 3.12003Z" fill="#FA8904"/>
<path d="M16.9135 18.5991C16.7684 18.8147 16.6301 19.0304 16.478 19.2461C16.3604 19.413 16.2222 19.413 16.1046 19.2391C15.6069 18.5295 15.116 17.8199 14.6113 17.1103C14.5283 16.9921 14.5422 16.8947 14.6251 16.7834C15.1229 16.0947 15.6138 15.406 16.1046 14.7103C16.2153 14.5572 16.3466 14.5364 16.4642 14.6964C16.6232 14.912 16.7684 15.1346 16.9205 15.3573C16.713 15.7468 16.4286 16.0876 16.1728 16.4424C15.7926 16.9711 15.7995 16.9433 16.1728 17.4859C16.4356 17.8407 16.7338 18.1817 16.9135 18.5991Z" fill="#824CA1"/>
<path d="M16.9124 18.5989C16.7327 18.1815 16.4354 17.8476 16.1796 17.4788C15.8062 16.9432 15.7993 16.9641 16.1796 16.4353C16.4354 16.0806 16.7189 15.7466 16.9263 15.3501C17.265 15.8162 17.6038 16.2893 17.9426 16.7554C18.0463 16.8945 18.0325 17.0197 17.9287 17.1588C17.5831 17.6319 17.2512 18.1189 16.9124 18.5989Z" fill="#925CB3"/>
<path d="M9.18806 24.5954C8.82163 24.3102 8.82163 24.025 9.18806 23.8093C9.53374 23.8163 9.65128 23.9137 9.65819 24.178C9.65819 24.4493 9.513 24.5746 9.18806 24.5954Z" fill="#FDD302"/>
<path d="M12.4542 24.2062C12.4542 24.408 12.2744 24.5958 12.0878 24.5958C11.9011 24.5958 11.7283 24.401 11.7283 24.1993C11.7283 23.9558 11.8596 23.8236 12.0809 23.8166C12.3228 23.8097 12.4611 23.9558 12.4542 24.2062Z" fill="#FDD302"/>
<path d="M15.2522 24.2062C15.2522 24.408 15.0725 24.5958 14.8858 24.5958C14.6991 24.5958 14.5263 24.401 14.5263 24.1993C14.5263 23.9558 14.6576 23.8166 14.8789 23.8166C15.1209 23.8097 15.2522 23.9558 15.2522 24.2062Z" fill="#FDD302"/>
<path d="M17.3302 24.1851C17.3371 23.9486 17.4685 23.8164 17.7035 23.8164C17.9386 23.8164 18.07 23.9694 18.063 24.2199C18.0561 24.4216 17.8625 24.6025 17.6828 24.5955C17.4823 24.5816 17.3233 24.3938 17.3302 24.1851Z" fill="#FDD302"/>
<path d="M20.8539 24.2062C20.8539 24.408 20.6742 24.5958 20.4875 24.5958C20.3008 24.5958 20.128 24.401 20.128 24.1993C20.128 23.9558 20.2594 23.8236 20.4875 23.8166C20.7226 23.8097 20.8609 23.9558 20.8539 24.2062Z" fill="#FDD302"/>
<path d="M23.2925 23.8164C23.5206 23.8164 23.652 23.9486 23.6589 24.1921C23.6658 24.3938 23.493 24.5886 23.3063 24.5955C23.1127 24.6025 22.926 24.4077 22.926 24.1921C22.9329 23.9486 23.0643 23.8164 23.2925 23.8164Z" fill="#FDD302"/>
</svg>
