<svg width="66" height="118" viewBox="0 0 66 118" fill="none" xmlns="http://www.w3.org/2000/svg">
<rect x="6.42773" y="16.6289" width="53.1429" height="84.1429" fill="#FF9089"/>
<path d="M8.22074 112.641C5.91018 112.049 3.89584 110.982 2.9183 108.701C2.41472 107.516 2.05925 106.183 2.05925 104.91C2 74.517 2 44.0946 2 13.7019C2 9.0215 5.08075 6 9.82035 6C25.2241 6 40.6278 6 56.0612 6C60.9785 6 64 8.99188 64 13.9092C64 27.8318 64 41.7544 64 55.677C64 72.0287 64 88.3803 64 104.732C64 107.961 62.7855 110.449 59.8232 111.93C59.1715 112.256 58.4606 112.404 57.7793 112.641C41.2499 112.641 24.7205 112.641 8.22074 112.641ZM58.9049 99.2814C58.9049 71.9398 58.9049 44.7167 58.9049 17.4936C41.6054 17.4936 24.365 17.4936 7.09508 17.4936C7.09508 44.7759 7.09508 72.0287 7.09508 99.2814C24.3946 99.2814 41.6054 99.2814 58.9049 99.2814ZM36.5695 105.473C36.5695 103.488 35.0291 101.888 33.0444 101.859C31.0893 101.829 29.4601 103.429 29.4305 105.384C29.4009 107.428 31.0005 109.057 32.9852 109.057C34.9403 109.027 36.5695 107.428 36.5695 105.473ZM32.8963 12.9021C35.3254 12.9021 37.7544 12.9021 40.1538 12.9021C40.7759 12.9021 41.4276 12.8428 41.4276 12.043C41.4276 11.2432 40.8055 11.1839 40.1538 11.1839C35.3846 11.1839 30.5858 11.1839 25.8165 11.1839C25.1648 11.1839 24.5428 11.2728 24.5428 12.043C24.5428 12.8428 25.1648 12.9021 25.8165 12.9021C28.1863 12.9021 30.5265 12.9021 32.8963 12.9021Z" fill="#ED2D21"/>
</svg>
