<svg width="24" height="24" viewBox="0 0 24 24" fill="none" xmlns="http://www.w3.org/2000/svg">
<circle cx="11.7472" cy="11.7472" r="10.2472" fill="#ED2D21" stroke="#FF6C63"/>
<path d="M20.8207 9.49707C20.834 9.49707 20.8429 9.49707 20.8562 9.49707C20.8562 9.61496 20.8562 9.72848 20.8562 9.84636C20.7762 10.0035 20.6606 10.1302 20.5362 10.2524C19.2783 11.4531 18.0205 12.6582 16.7627 13.8589C16.7315 13.8851 16.7004 13.9113 16.6693 13.9375C16.4026 13.9069 16.1582 13.7978 15.9048 13.7192C14.8426 13.3873 13.7803 13.0468 12.718 12.7062C12.4247 12.6102 12.1313 12.5141 11.7891 12.4006C11.8868 12.3656 11.9357 12.3394 11.9891 12.3264C12.4202 12.1866 12.8558 12.0513 13.2869 11.9116C14.7848 11.4313 16.2871 10.9554 17.7849 10.4751C18.8028 10.1476 19.8117 9.82453 20.8207 9.49707Z" fill="#CD1A0F"/>
<path d="M20.8127 9.49796C19.8037 9.82105 18.7948 10.1485 17.7814 10.4716C16.2835 10.9519 14.7812 11.4278 13.2834 11.9081C12.8522 12.0478 12.4167 12.1832 11.9855 12.3229C11.9322 12.3403 11.8789 12.3622 11.7855 12.3971C12.1233 12.5106 12.4167 12.6067 12.7145 12.7027C13.7767 13.0433 14.8346 13.3882 15.9013 13.7157C16.1546 13.7943 16.3991 13.9034 16.6658 13.934C16.728 14.3138 16.7902 14.6937 16.8525 15.0736C16.9502 15.6499 17.0525 16.2306 17.1547 16.8069C17.2569 17.3833 17.3547 17.964 17.4569 18.5403C17.5103 18.8328 17.5769 19.1297 17.608 19.4223C17.6347 19.6624 17.5458 19.8633 17.328 19.9986C17.3325 19.9506 17.3103 19.9113 17.2791 19.872C17.1014 19.6406 16.9325 19.4048 16.7591 19.169C16.0302 18.1779 15.3013 17.1912 14.5679 16.2C13.6612 14.9731 12.75 13.7462 11.8433 12.5193C11.8211 12.4888 11.8077 12.4408 11.7455 12.467C11.7455 14.1305 11.7455 15.794 11.7455 17.4575C10.8966 17.8985 10.0432 18.3438 9.19427 18.7804C8.87425 18.9464 8.54979 19.1079 8.22533 19.2694C8.05643 19.1035 8.02087 18.8983 8.05199 18.68C8.0831 18.4486 8.13643 18.2172 8.17199 17.9858C8.22088 17.6583 8.30978 17.3352 8.332 17.0034C8.35867 16.9597 8.37645 16.9161 8.372 16.8681C8.45201 16.8593 8.48312 16.7938 8.52312 16.7371C8.93648 16.1738 9.35428 15.615 9.76763 15.0517C10.3721 14.2309 10.981 13.4144 11.5855 12.5936C11.6166 12.5543 11.6966 12.5106 11.6433 12.4495C11.6033 12.4015 11.5411 12.4582 11.4966 12.4713C10.7188 12.7202 9.93653 12.9734 9.15871 13.2267C9.0876 13.2485 9.01648 13.2834 8.93648 13.2703C8.90981 13.1175 8.75424 13.0826 8.66091 12.9909C8.26089 12.5892 7.86086 12.1832 7.44306 11.7989C7.04749 11.4409 6.66969 11.0698 6.30078 10.6856C6.35856 10.6856 6.41634 10.6943 6.47412 10.7161C6.90081 10.8515 7.3275 10.9868 7.75419 11.1222C9.01204 11.5239 10.2699 11.9299 11.5277 12.3316C11.5766 12.3491 11.6255 12.3796 11.7011 12.3403C10.7055 10.9956 9.7143 9.65077 8.72313 8.30599C9.30094 7.15769 9.8743 6.00502 10.4521 4.85671C10.6966 4.37207 10.9366 3.88742 11.181 3.40714C11.2966 3.1801 11.4655 3.02292 11.7455 3.04039C11.7455 6.14037 11.7455 9.23599 11.7455 12.336C11.7588 12.3403 11.7722 12.3447 11.7855 12.3534C12.7811 11.0087 13.7767 9.6595 14.7723 8.31472C15.2435 8.38022 15.7191 8.44134 16.1902 8.5112C16.8836 8.60726 17.5769 8.70768 18.2703 8.8081C18.9503 8.90416 19.6348 8.99585 20.3149 9.10063C20.5504 9.12683 20.7415 9.24908 20.8127 9.49796Z" fill="#FF6C63"/>
<path d="M11.75 17.4619C11.75 15.7984 11.75 14.1349 11.75 12.4714C11.8122 12.4452 11.8256 12.4932 11.8478 12.5238C12.7545 13.7507 13.6657 14.9776 14.5724 16.2045C15.3013 17.1956 16.0347 18.1824 16.7636 19.1735C16.9369 19.4093 17.1103 19.645 17.2836 19.8764C17.3147 19.9157 17.3325 19.955 17.3325 20.0031C17.137 20.1166 16.9503 20.134 16.7369 20.0293C15.2569 19.2914 13.799 18.5142 12.3278 17.7632C12.1322 17.6672 11.9411 17.5624 11.75 17.4619Z" fill="#CD1A0F"/>
<path d="M14.769 8.30982C13.7734 9.6546 12.7778 11.0038 11.7822 12.3485C11.7689 12.3442 11.7555 12.3398 11.7422 12.3311C11.7422 9.23109 11.7422 6.13547 11.7422 3.03549C12.0311 3.02675 12.1955 3.19267 12.3156 3.42407C12.7334 4.26238 13.1556 5.09632 13.5778 5.93462C13.9779 6.72927 14.3734 7.51955 14.769 8.30982Z" fill="#CD1A0F"/>
<path d="M8.72462 8.30566C9.71579 9.65045 10.7114 10.9909 11.7026 12.34C11.627 12.3793 11.5781 12.3487 11.5292 12.3313C10.2714 11.9296 9.01353 11.5235 7.75568 11.1218C7.329 10.9865 6.90231 10.8511 6.47562 10.7158C6.41784 10.6983 6.36006 10.6852 6.30227 10.6852C6.26672 10.6634 6.23116 10.6372 6.1956 10.6154C6.18227 10.5892 6.1556 10.5804 6.12449 10.5804C6.12449 10.5368 6.10226 10.5018 6.07115 10.4757C5.6978 10.1788 5.38223 9.82509 5.04443 9.49326C4.87109 9.32735 4.70663 9.14397 4.80886 8.8689C5.09777 8.79468 5.4 8.77284 5.6978 8.72918C6.39561 8.62439 7.09343 8.52397 7.79569 8.42792C8.10237 8.38426 8.4135 8.34933 8.72462 8.30566Z" fill="#CD1A0F"/>
<path d="M6.20287 10.6148C6.23843 10.6366 6.27398 10.6628 6.30954 10.6847C6.67845 11.0689 7.05625 11.44 7.45182 11.798C7.86962 12.1823 8.26965 12.584 8.66967 12.99C8.76301 13.0817 8.91412 13.1166 8.94524 13.2694C8.94524 13.2825 8.94524 13.2913 8.94524 13.3044C8.90079 13.3131 8.8519 13.3218 8.80745 13.3349C8.22964 13.5183 7.65628 13.7017 7.07847 13.8894C6.99847 13.9156 6.92291 13.9418 6.83846 13.9418C6.75401 13.8676 6.66956 13.7978 6.58956 13.7235C5.34505 12.5316 4.10498 11.3396 2.86491 10.1476C2.67379 9.96425 2.58934 9.75467 2.68268 9.49707C3.72718 9.8289 4.76724 10.1607 5.81174 10.4926C5.91841 10.5275 6.02064 10.5799 6.13175 10.5799C6.14509 10.6061 6.17176 10.6148 6.20287 10.6148Z" fill="#FF6C63"/>
<path d="M6.83539 13.9382C6.91984 13.9426 6.9954 13.912 7.0754 13.8858C7.65321 13.7025 8.22658 13.5147 8.80438 13.3313C8.84883 13.3182 8.89328 13.3095 8.94217 13.3008C8.99106 13.3401 8.98217 13.3968 8.97328 13.4449C8.8755 13.9994 8.77327 14.5582 8.67549 15.1127C8.57326 15.6978 8.47548 16.2829 8.37325 16.8679C8.37769 16.916 8.35547 16.9596 8.33325 17.0033C8.29325 17.0208 8.27547 17.0601 8.25324 17.0906C7.57321 18.0119 6.89317 18.9288 6.21314 19.85C6.18202 19.8937 6.15536 19.9374 6.09313 19.9374C5.82645 19.7191 5.87534 19.4396 5.92868 19.1602C6.04424 18.5096 6.1598 17.8591 6.27536 17.2085C6.39092 16.5579 6.50648 15.9074 6.6176 15.2568C6.69761 14.8246 6.76428 14.3836 6.83539 13.9382Z" fill="#CD1A0F"/>
<path d="M6.08984 19.9458C6.15207 19.9458 6.17874 19.9021 6.20985 19.8585C6.88989 18.9372 7.56992 18.0203 8.24996 17.099C8.27218 17.0641 8.28996 17.0292 8.32996 17.0117C8.30774 17.3435 8.21885 17.6666 8.16995 17.9941C8.1344 18.2255 8.0855 18.4569 8.04995 18.6883C8.01883 18.9066 8.05439 19.1162 8.22329 19.2778C7.74326 19.531 7.26768 19.793 6.77877 20.0287C6.54765 20.1466 6.29874 20.1466 6.08984 19.9458Z" fill="#FF6C63"/>
<path d="M6.13267 10.5797C6.0171 10.5753 5.91488 10.5229 5.81265 10.4924C4.76815 10.1606 3.72809 9.82872 2.68359 9.49689C2.73693 9.30041 2.87027 9.1607 3.06139 9.1214C3.64364 9.00788 4.2259 8.92492 4.81704 8.86816C4.71037 9.14323 4.87927 9.32225 5.05261 9.49253C5.3904 9.82436 5.70598 10.178 6.07933 10.4749C6.11044 10.5011 6.13267 10.536 6.13267 10.5797Z" fill="#CD1A0F"/>
<path d="M8.375 16.8716C8.47278 16.2865 8.57501 15.7015 8.67724 15.1164C8.77502 14.5619 8.87725 14.003 8.97503 13.4485C8.98392 13.4005 8.99281 13.3437 8.94392 13.3044C8.94392 13.2913 8.94392 13.2826 8.94392 13.2695C9.02392 13.2826 9.09504 13.252 9.16615 13.2258C9.94397 12.977 10.7218 12.7237 11.5041 12.4705C11.5529 12.4574 11.6107 12.4006 11.6507 12.4487C11.6996 12.5098 11.6196 12.5534 11.5929 12.5927C10.9885 13.4136 10.384 14.2344 9.77507 15.0509C9.35727 15.6141 8.94392 16.173 8.53056 16.7362C8.48612 16.7974 8.455 16.8629 8.375 16.8716Z" fill="#CD1A0F"/>
<path d="M6.20028 10.6151C6.16906 10.6151 6.14675 10.6064 6.12891 10.5801C6.15567 10.5801 6.18244 10.5888 6.20028 10.6151Z" fill="#F38B19"/>
</svg>
