<svg width="68" height="62" viewBox="0 0 68 62" fill="none" xmlns="http://www.w3.org/2000/svg">
<path d="M34.8378 9C35.2212 9.31575 35.6385 9.60894 35.9882 9.9698C38.2552 12.259 40.8944 13.9167 43.9621 14.8865C45.7554 15.4503 47.6051 15.7435 49.4887 15.766C50.5376 15.7773 51 16.2509 51 17.2997C51 21.3706 51 25.4415 51 29.5124C50.9887 39.1089 45.5975 47.4875 36.8566 51.4569C36.2701 51.7275 35.6724 51.9869 35.052 52.1673C34.7137 52.2688 34.2738 52.2914 33.958 52.1673C25.5893 48.9986 20.4124 43.0332 18.4838 34.305C18.1454 32.7939 18.0552 31.2039 18.0326 29.6477C17.9762 25.5204 18.0101 21.3931 18.0101 17.2658C18.0101 16.2735 18.4838 15.7886 19.4763 15.7773C24.7434 15.6758 29.221 13.7475 32.9542 10.0375C33.3264 9.66533 33.755 9.34958 34.161 9.01127C34.3866 9 34.6122 9 34.8378 9ZM23.0742 30.5611C23.0742 36.8423 28.1947 41.9732 34.4656 41.9844C40.7703 41.9957 45.9021 36.8648 45.9021 30.5724C45.9021 24.2912 40.7929 19.1716 34.5107 19.1491C28.2172 19.1378 23.0742 24.2687 23.0742 30.5611Z" fill="white"/>
<path d="M34.4783 39.4474C29.5946 39.4361 25.6133 35.4442 25.6133 30.5613C25.6133 25.656 29.6172 21.6753 34.5347 21.6865C39.4183 21.6978 43.3884 25.7011 43.3771 30.5952C43.3658 35.478 39.3732 39.4587 34.4783 39.4474ZM32.7865 33.0084C31.9631 32.1852 31.1849 31.3845 30.4067 30.5952C30.0571 30.2456 29.6397 30.0652 29.1435 30.1779C28.1397 30.426 27.8239 31.5875 28.557 32.3431C29.6059 33.4256 30.6887 34.4744 31.7488 35.5457C32.4481 36.2448 33.1361 36.2448 33.8467 35.5457C34.7377 34.6661 35.6174 33.7752 36.5084 32.8843C37.7942 31.5988 39.0799 30.3132 40.3657 29.0277C40.7266 28.6668 40.9296 28.2496 40.7943 27.7309C40.5462 26.716 39.3732 26.4341 38.595 27.2009C36.7791 29.0051 34.9632 30.8207 33.1474 32.6362C33.0572 32.749 32.9444 32.8505 32.7865 33.0084Z" fill="white"/>
</svg>
