<svg width="33" height="34" viewBox="0 0 33 34" fill="none" xmlns="http://www.w3.org/2000/svg">
<path d="M13.9752 3.29646L13.9696 3.29547L13.9696 3.2954C13.9264 3.28672 13.8862 3.27611 13.8537 3.2675L13.8512 3.26686C13.8258 3.26016 13.8047 3.25462 13.7847 3.25H13.7827H13.7799H13.777H13.7742H13.7713H13.7685H13.7656H13.7628H13.7599H13.7571H13.7542H13.7514H13.7485H13.7457H13.7428H13.74H13.7372H13.7343H13.7315H13.7286H13.7258H13.7229H13.7201H13.7172H13.7144H13.7115H13.7087H13.7058H13.703H13.7001H13.6973H13.6944H13.6916H13.6888H13.6859H13.6831H13.6802H13.6774H13.6745H13.6717H13.6688H13.666H13.6631H13.6603H13.6575H13.6546H13.6518H13.6489H13.6461H13.6432H13.6404H13.6376H13.6347H13.6319H13.629H13.6262H13.6233H13.6205H13.6177H13.6148H13.612H13.6091H13.6063H13.6034H13.6006H13.5978H13.5949H13.5921H13.5892H13.5864H13.5836H13.5807H13.5779H13.575H13.5722H13.5693H13.5665H13.5637H13.5608H13.558H13.5551H13.5523H13.5495H13.5466H13.5438H13.5409H13.5381H13.5353H13.5324H13.5296H13.5268H13.5239H13.5211H13.5182H13.5154H13.5126H13.5097H13.5069H13.504H13.5012H13.4984H13.4955H13.4927H13.4899H13.487H13.4842H13.4813H13.4785H13.4757H13.4728H13.47H13.4672H13.4643H13.4615H13.4586H13.4558H13.453H13.4501H13.4473H13.4445H13.4416H13.4388H13.436H13.4331H13.4303H13.4274H13.4246H13.4218H13.4189H13.4161H13.4133H13.4104H13.4076H13.4048H13.4019H13.3991H13.3963H13.3934H13.3906H13.3877H13.3849H13.3821H13.3792H13.3764H13.3736H13.3707H13.3679H13.3651H13.3622H13.3594H13.3566H13.3537H13.3509H13.3481H13.3452H13.3424H13.3396H13.3367H13.3339H13.3311H13.3282H13.3254H13.3226H13.3197H13.3169H13.3141H13.3112H13.3084H13.3056H13.3027H13.2999H13.2971H13.2942H13.2914H13.2886H13.2857H13.2829H13.2801H13.2772H13.2744H13.2716H13.2687H13.2659H13.2631H13.2602H13.2574H13.2546H13.2517H13.2489H13.2461H13.2432H13.2404H13.2376H13.2347H13.2319H13.2291H13.2263H13.2234H13.2206H13.2178H13.2149H13.2121H13.2093H13.2064H13.2036H13.2008H13.1979H13.1951H13.1923H13.1894H13.1866H13.1838H13.1809H13.1781H13.1753H13.1725H13.1696H13.1668H13.164H13.1611H13.1583H13.1555H13.1526H13.1498H13.147H13.1441H13.1413H13.1385H13.1356H13.1328H13.13H13.1271H13.1243H13.1215H13.1187H13.1158H13.113H13.1102H13.1073H13.1045H13.1017H13.0988H13.096H13.0932H13.0903H13.0875H13.0847H13.0819H13.079H13.0762H13.0734H13.0705H13.0677H13.0649H13.062H13.0592H13.0564H13.0535H13.0507H13.0479H13.045H13.0422H13.0394H13.0366H13.0337H13.0309H13.0281H13.0252H13.0224H13.0196H13.0167H13.0139H13.0111H13.0082H13.0054H13.0026H12.9997H12.9969H12.9941H12.9912H12.9884H12.9856H12.9828H12.9799H12.9771H12.9743H12.9714H12.9686H12.9658H12.9629H12.9601H12.9573H12.9544H12.9516H12.9488H12.9459H12.9431H12.9403H12.9374H12.9346H12.9318H12.9289H12.9261H12.9233H12.9205H12.9176H12.9148H12.912H12.9091H12.9063H12.9035H12.9006H12.8978H12.895H12.8921H12.8893H12.8865H12.8836H12.8808H12.878H12.8751H12.8723H12.8695H12.8666H12.8638H12.861H12.8581H12.8553H12.8525H12.8496H12.8468H12.844H12.8411H12.8383H12.8355H12.8326H12.8298H12.827H12.8241H12.8213H12.8185H12.8156H12.8128H12.81H12.8071H12.8043H12.8015H12.7986H12.7958H12.793H12.7901H12.7873H12.7844H12.7816H12.7788H12.7759H12.7731H12.7703H12.7674H12.7646H12.7618H12.7589H12.7561H12.7533H12.7504H12.7476H12.7448H12.7419H12.7391H12.7362H12.7334H12.7306H12.7277H12.7249H12.7221H12.7192H12.7164H12.7136H12.7107H12.7079H12.705H12.7022H12.6994H12.6965H12.6937H12.6909H12.688H12.6852H12.6823H12.6795H12.6767H12.6738H12.671H12.6682H12.6653H12.6625H12.6596H12.6568H12.654H12.6511H12.6483H12.6455H12.6426H12.6398H12.6369H12.6341H12.6313H12.6284H12.6256H12.6227H12.6199H12.6171H12.6142H12.6114H12.6085H12.6057H12.6029H12.6H12.5972H12.5943H12.5915H12.5887H12.5858H12.583H12.5801H12.5773H12.5744H12.5716H12.5688H12.5659H12.5631H12.5602H12.5574H12.5546H12.5517H12.5489H12.546H12.5432H12.5403H12.5375H12.5347H12.5318H12.529H12.5261H12.5233H12.5204H12.5176H12.5147H12.5119H12.5091H12.5062H12.5034H12.5005H12.4977H12.4948H12.492H12.4891H12.4863H12.4835H12.4806H12.4778H12.4749H12.4721H12.4692H12.4664H12.4635H12.4607H12.4578H12.455H12.4521H12.4493H12.4465H12.4436H12.4408H12.4379H12.4351H12.4322H12.4294H12.4265H12.4237H12.4208H12.418H12.4151H12.4123H12.4094H12.4066H12.4037H12.4009H12.398H12.3952H12.3923H12.3895H12.3866H12.3838H12.3809H12.3785C12.173 3.28371 11.9726 3.31313 11.7749 3.34213C11.4186 3.39442 11.0713 3.44539 10.7192 3.51787L13.9752 3.29646ZM13.9752 3.29646C14.202 3.33663 14.4212 3.36894 14.6358 3.40058C15.0247 3.45791 15.3985 3.51301 15.7751 3.60863C22.4898 5.33586 25.8633 12.9766 22.6239 19.1283L22.6235 19.129M13.9752 3.29646L22.6235 19.129M22.6235 19.129C22.4216 19.5151 22.1897 19.8828 21.9416 20.2765C21.8263 20.4593 21.7075 20.6478 21.5865 20.8462L21.4685 21.0398M22.6235 19.129L21.4685 21.0398M21.4685 21.0398L21.6496 21.1761M21.4685 21.0398L21.6496 21.1761M21.6496 21.1761C21.6811 21.1998 21.7087 21.2189 21.7344 21.2367C21.7771 21.2662 21.8147 21.2922 21.8564 21.3297C24.0882 23.5698 26.3201 25.81 28.5521 28.043C28.8513 28.3434 29.1044 28.6146 29.238 28.9603V28.9608V28.9619V28.9629V28.964V28.965V28.9661V28.9671V28.9682V28.9692V28.9703V28.9713V28.9724V28.9734V28.9745V28.9756V28.9766V28.9777V28.9787V28.9798V28.9808V28.9819V28.9829V28.984V28.985V28.9861V28.9871V28.9882V28.9892V28.9903V28.9913V28.9924V28.9934V28.9945V28.9955V28.9966V28.9977V28.9987V28.9998V29.0008V29.0019V29.0029V29.004V29.005V29.0061V29.0071V29.0082V29.0092V29.0103V29.0113V29.0124V29.0134V29.0145V29.0155V29.0166V29.0176V29.0187V29.0198V29.0208V29.0219V29.0229V29.024V29.025V29.0261V29.0271V29.0282V29.0292V29.0303V29.0313V29.0324V29.0334V29.0345V29.0355V29.0366V29.0376V29.0387V29.0398V29.0408V29.0419V29.0429V29.044V29.045V29.0461V29.0471V29.0482V29.0492V29.0503V29.0513V29.0524V29.0534V29.0545V29.0555V29.0566V29.0576V29.0587V29.0597V29.0608V29.0619V29.0629V29.064V29.065V29.0661V29.0671V29.0682V29.0692V29.0703V29.0713V29.0724V29.0734V29.0745V29.0755V29.0766V29.0776V29.0787V29.0797V29.0808V29.0819V29.0829V29.084V29.085V29.0861V29.0871V29.0882V29.0892V29.0903V29.0913V29.0924V29.0934V29.0945V29.0955V29.0966V29.0976V29.0987V29.0997V29.1008V29.1018V29.1029V29.104V29.105V29.1061V29.1071V29.1082V29.1092V29.1103V29.1113V29.1124V29.1134V29.1145V29.1155V29.1166V29.1176V29.1187V29.1197V29.1208V29.1218V29.1229V29.1239V29.125V29.1261V29.1271V29.1282V29.1292V29.1303V29.1313V29.1324V29.1334V29.1345V29.1355V29.1366V29.1376V29.1387V29.1397V29.1408V29.1418V29.1429V29.1439V29.145V29.146V29.1471V29.1482V29.1492V29.1503V29.1513V29.1524V29.1534V29.1545V29.1555V29.1566V29.1576V29.1587V29.1597V29.1608V29.1618V29.1629V29.1639V29.165V29.166V29.1671V29.1682V29.1692V29.1703V29.1713V29.1724V29.1734V29.1745V29.1755V29.1766V29.1776V29.1787V29.1797V29.1808V29.1818V29.1829V29.1839V29.185V29.186V29.1871V29.1881V29.1892V29.1903V29.1913V29.1924V29.1934V29.1945V29.1955V29.1966V29.1976V29.1987V29.1997V29.2008V29.2018V29.2029V29.2039V29.205V29.206V29.2071V29.2081V29.2092V29.2102V29.2113V29.2124V29.2134V29.2145V29.2155V29.2166V29.2176V29.2187V29.2197V29.2208V29.2218V29.2229V29.2239V29.225V29.226V29.2271V29.2281V29.2292V29.2302V29.2313V29.2324V29.2334V29.2345V29.2355V29.2366V29.2376V29.2387V29.2397V29.2408V29.2418V29.2429V29.2439V29.245V29.246V29.2471V29.2481V29.2492V29.2502V29.2513V29.2523V29.2534V29.2545V29.2555V29.2566V29.2576V29.2587V29.2597V29.2608V29.2618V29.2629V29.2639V29.265V29.266V29.2671V29.2681V29.2692V29.2702V29.2713V29.2723V29.2734V29.2744V29.2755V29.2766V29.2776V29.2787V29.2797V29.2808V29.2818V29.2829V29.2839V29.285V29.286V29.2871V29.2881V29.2892V29.2902V29.2913V29.2923V29.2934V29.2944V29.2955V29.2966V29.2976V29.2987V29.2997V29.3008V29.3018V29.3029V29.3039V29.305V29.306V29.3071V29.3081V29.3092V29.3102V29.3113V29.3123V29.3134V29.3144V29.3155V29.3165V29.3176V29.3187V29.3197V29.3208V29.3218V29.3229V29.3239V29.325V29.326V29.3271V29.3281V29.3292V29.3302V29.3313V29.3323V29.3334V29.3344V29.3355V29.3365V29.3376V29.3386V29.3397V29.3408V29.3418V29.3429V29.3439V29.345V29.346V29.3471V29.3481V29.3492V29.3502V29.3513V29.3523V29.3534V29.3544V29.3555V29.3565V29.3576V29.3586V29.3597V29.3608V29.3618V29.3629V29.3639V29.365V29.366V29.3671V29.3681V29.3692V29.3702V29.3713V29.3723V29.3734V29.3744V29.3755V29.3765V29.3776V29.3786V29.3797V29.3807V29.3818V29.3829V29.3839V29.385V29.386V29.3871V29.3881V29.3892V29.3902V29.3913V29.3923V29.3934V29.3944V29.3955V29.3965V29.3976V29.3986V29.3997V29.4007V29.4018V29.4028V29.4039V29.405V29.406V29.4071V29.4081V29.4092V29.4094C29.1228 29.7154 29.0011 29.9538 28.782 30.1149C28.3147 30.4564 27.7281 30.4095 27.2378 29.9239C27.2376 29.9238 27.2375 29.9236 27.2373 29.9235L20.2429 22.9032C20.2169 22.8732 20.1996 22.8417 20.1718 22.791C20.1578 22.7654 20.141 22.7349 20.1191 22.6972L19.9776 22.4538L19.7526 22.6231C19.7155 22.6511 19.6841 22.6742 19.6567 22.6944C19.6122 22.7273 19.5785 22.7521 19.5489 22.7764M21.6496 21.1761L19.5489 22.7764M19.5489 22.7764C16.9852 24.6513 14.1504 25.3158 11.0213 24.7467L11.0212 24.7467C6.84843 23.989 3.3771 20.6037 2.50982 16.4431C2.4348 16.0664 2.37799 15.6856 2.32022 15.2983C2.29736 15.1451 2.27435 14.9908 2.25 14.8354V14.8343V14.8313V14.8284V14.8254V14.8225V14.8196V14.8166V14.8137V14.8107V14.8078V14.8048V14.8019V14.7989V14.796V14.793V14.7901V14.7871V14.7842V14.7812V14.7783V14.7753V14.7724V14.7695V14.7665V14.7636V14.7606V14.7577V14.7547V14.7518V14.7488V14.7459V14.7429V14.74V14.737V14.7341V14.7311V14.7282V14.7253V14.7223V14.7194V14.7164V14.7135V14.7105V14.7076V14.7046V14.7017V14.6987V14.6958V14.6928V14.6899V14.6869V14.684V14.681V14.6781V14.6752V14.6722V14.6693V14.6663V14.6634V14.6604V14.6575V14.6545V14.6516V14.6486V14.6457V14.6427V14.6398V14.6368V14.6339V14.6309V14.628V14.6251V14.6221V14.6192V14.6162V14.6133V14.6103V14.6074V14.6044V14.6015V14.5985V14.5956V14.5926V14.5897V14.5867V14.5838V14.5809V14.5779V14.575V14.572V14.5691V14.5661V14.5632V14.5602V14.5573V14.5543V14.5514V14.5484V14.5455V14.5425V14.5396V14.5366V14.5337V14.5308V14.5278V14.5249V14.5219V14.519V14.516V14.5131V14.5101V14.5072V14.5042V14.5013V14.4983V14.4954V14.4924V14.4895V14.4866V14.4836V14.4807V14.4777V14.4748V14.4718V14.4689V14.4659V14.463V14.46V14.4571V14.4541V14.4512V14.4482V14.4453V14.4423V14.4394V14.4365V14.4335V14.4306V14.4276V14.4247V14.4217V14.4188V14.4158V14.4129V14.4099V14.407V14.404V14.4011V14.3981V14.3952V14.3923V14.3893V14.3864V14.3834V14.3805V14.3775V14.3746V14.3716V14.3687V14.3657V14.3628V14.3598V14.3569V14.3539V14.351V14.348V14.3451V14.3422V14.3392V14.3363V14.3333V14.3304V14.3274V14.3245V14.3215V14.3186V14.3156V14.3127V14.3097V14.3068V14.3038V14.3009V14.298V14.295V14.2921V14.2891V14.2862V14.2832V14.2803V14.2773V14.2744V14.2714V14.2685V14.2655V14.2626V14.2596V14.2567V14.2537V14.2508V14.2479V14.2449V14.242V14.239V14.2361V14.2331V14.2302V14.2272V14.2243V14.2213V14.2184V14.2154V14.2125V14.2095V14.2066V14.2037V14.2007V14.1978V14.1948V14.1919V14.1889V14.186V14.183V14.1801V14.1771V14.1742V14.1712V14.1683V14.1653V14.1624V14.1594V14.1565V14.1536V14.1506V14.1477V14.1447V14.1418V14.1388V14.1359V14.1329V14.13V14.127V14.1241V14.1211V14.1182V14.1152V14.1123V14.1094V14.1064V14.1035V14.1005V14.0976V14.0946V14.0917V14.0887V14.0858V14.0828V14.0799V14.0769V14.074V14.071V14.0681V14.0651V14.0622V14.0593V14.0563V14.0534V14.0504V14.0475V14.0445V14.0416V14.0386V14.0357V14.0327V14.0298V14.0268V14.0239V14.0209V14.018V14.0151V14.0121V14.0092V14.0062V14.0033V14.0003V13.9974V13.9944V13.9915V13.9885V13.9856V13.9826V13.9797V13.9767V13.9738V13.9708V13.9679V13.965V13.962V13.9591V13.9561V13.9532V13.9502V13.9473V13.9443V13.9414V13.9384V13.9355V13.9325V13.9296V13.9266V13.9237V13.9208V13.9178V13.9149V13.9119V13.909V13.906V13.9031V13.9001V13.8972V13.8942V13.8913V13.8883V13.8854V13.8824V13.8795V13.8765V13.8736V13.8707V13.8677V13.8648V13.8618V13.8589V13.8559V13.853V13.85V13.8471V13.8441V13.8412V13.8382V13.8353V13.8323V13.8294V13.8264V13.8235V13.8206V13.8176V13.8147V13.8117V13.8088V13.8058V13.8029V13.7999V13.797V13.794V13.7911V13.7881V13.7852V13.7822V13.7793V13.7764V13.7734V13.7705V13.7675V13.7646V13.7616V13.7587V13.7557V13.7528V13.7498V13.7469V13.7439V13.741V13.738V13.7351V13.7321V13.7292V13.7263V13.7233V13.7204V13.7174V13.7145V13.7115V13.7086V13.7056V13.7027V13.6997V13.6968V13.6938V13.6909V13.6879V13.685V13.6821V13.6791V13.6762V13.6732V13.6703V13.6673V13.6644V13.6614V13.6585V13.6555V13.6526V13.6496V13.6467V13.6437V13.6408V13.6378V13.6349V13.632V13.629V13.6261V13.6231V13.6202V13.6172V13.6143V13.6113V13.6084V13.6054V13.6025V13.5995V13.5966V13.5936V13.5907V13.5878V13.5848V13.5819V13.5789V13.576V13.573V13.5701V13.5671V13.5642V13.5612V13.5583V13.5553V13.5524V13.5494V13.5465V13.5435V13.5406V13.5377V13.5347V13.5318V13.5288V13.5259V13.5229V13.52V13.517V13.5141V13.5111V13.5082V13.5052V13.5023V13.4993V13.4964V13.4935V13.4905V13.4876V13.4846V13.4817V13.4787V13.4758V13.4728V13.4699V13.4669V13.464V13.461V13.4581V13.4551V13.4522V13.4492V13.4463V13.4434V13.4404V13.4375V13.4345V13.4316V13.4286V13.4257V13.4227V13.4198V13.4168V13.4139V13.4109V13.408V13.405V13.4021V13.3992V13.3962V13.3933V13.3903V13.3874V13.3844V13.3815V13.3785V13.3756V13.3726V13.3697V13.3667V13.3654C2.27768 13.1866 2.30276 13.0119 2.32754 12.8391C2.36718 12.5628 2.40607 12.2917 2.45373 12.0176C3.20911 7.86396 6.60411 4.36641 10.7192 3.51789L19.5489 22.7764ZM4.49164 14.0708C4.46963 18.7928 8.3034 22.6625 13.0294 22.6921C17.7367 22.7217 21.5983 18.8649 21.6205 14.1232C21.6426 9.39414 17.8089 5.52398 13.0823 5.50178L13.0819 5.50178C8.37606 5.48697 4.50649 9.34253 4.49164 14.0708ZM4.49164 14.0708C4.49164 14.0707 4.49165 14.0707 4.49165 14.0706L4.74134 14.0718L4.49164 14.071C4.49164 14.0709 4.49164 14.0709 4.49164 14.0708Z" fill="white" stroke="#E92F24" stroke-width="0.5"/>
</svg>
