<svg width="40" height="33" viewBox="0 0 40 33" fill="none" xmlns="http://www.w3.org/2000/svg">
<path d="M26.1085 2.00691C26.3735 2.14519 26.6588 2.24889 26.8897 2.42864C27.2905 2.73975 27.406 3.20988 27.4739 3.69383C27.4943 3.83901 27.5147 4.04642 27.6098 4.11556C27.8136 4.26074 28.0649 4.32988 28.3027 4.41975C28.3434 4.43358 28.4114 4.37136 28.4657 4.33679C28.6627 4.20543 28.8529 4.06025 29.0499 3.9358C29.6409 3.58321 30.361 3.63161 30.8704 4.0879C31.1897 4.37136 31.4954 4.68247 31.7739 5.00741C32.229 5.53975 32.2766 6.27259 31.9233 6.8879C31.8826 6.95704 31.835 7.02617 31.7943 7.09531C31.4139 7.64839 31.4139 7.64839 31.706 8.25679C31.7399 8.33284 31.835 8.40197 31.9165 8.42271C32.1543 8.48494 32.3989 8.51259 32.6298 8.57481C33.3227 8.76148 33.7846 9.34913 33.8118 10.082C33.8254 10.4484 33.8254 10.8217 33.8118 11.1881C33.7846 11.9417 33.3023 12.5432 32.5891 12.723C32.4872 12.7506 32.3785 12.7852 32.2698 12.7852C31.8962 12.7921 31.672 12.9511 31.5497 13.3383C31.4682 13.5941 31.4682 13.7669 31.6312 13.9812C31.9301 14.3615 32.1611 14.7694 32.1407 15.2879C32.1203 15.6612 32.0184 16 31.7739 16.2765C31.509 16.5738 31.2305 16.8711 30.9316 17.1407C30.3745 17.6593 29.6477 17.7215 29.0024 17.3343C28.9073 17.279 28.8054 17.2237 28.7306 17.1477C28.4589 16.8711 28.194 16.8642 27.834 17.0301C27.5486 17.1615 27.4807 17.3481 27.4468 17.6109C27.3856 18.1709 27.2158 18.6894 26.7063 18.9867C26.4754 19.1249 26.1968 19.2286 25.9251 19.2563C25.5311 19.3047 25.1303 19.2839 24.7296 19.2632C24.0367 19.2356 23.4728 18.7654 23.2894 18.0879C23.2623 17.9911 23.2215 17.8874 23.2215 17.7906C23.2419 17.2928 22.9837 17.0509 22.5422 16.9264C22.386 16.8849 22.2773 16.8849 22.1482 16.9817C21.8018 17.2306 21.4757 17.5072 21.0274 17.5625C20.5586 17.6178 20.1375 17.521 19.791 17.203C19.4718 16.9126 19.1661 16.6084 18.8876 16.2835C18.4324 15.758 18.3849 15.039 18.7245 14.4306C18.7721 14.3407 18.8128 14.2439 18.8876 14.1748C19.3087 13.8015 19.1729 13.4005 18.9419 12.9995C18.9012 12.9304 18.7925 12.8751 18.7109 12.8543C18.4664 12.7921 18.2083 12.7644 17.9705 12.6953C17.3252 12.5017 16.8836 11.9348 16.8565 11.2504C16.8429 10.8701 16.8361 10.4968 16.8497 10.1165C16.8768 9.30765 17.3727 8.70617 18.1539 8.53333C18.2626 8.51259 18.3645 8.47802 18.4732 8.47802C18.7857 8.47111 18.9351 8.3121 19.0778 8.01481C19.268 7.62765 19.0914 7.40642 18.9012 7.12988C18.3034 6.27259 18.3713 5.49827 19.1049 4.7516C19.3223 4.53037 19.5329 4.30222 19.7639 4.09481C20.2869 3.6316 21.007 3.56938 21.6048 3.92198C21.6931 3.97037 21.7882 4.01185 21.8561 4.0879C22.2229 4.52346 22.6169 4.36444 23.0041 4.14321C23.0721 4.10864 23.1264 4.01185 23.1468 3.92889C23.1943 3.74222 23.2147 3.54864 23.2487 3.36198C23.3845 2.68445 23.7785 2.24889 24.4239 2.05531C24.4578 2.0484 24.4782 2.02074 24.5122 2C25.0624 2.00691 25.5855 2.00691 26.1085 2.00691ZM20.8032 13.7531C20.7353 13.9052 20.6809 14.0711 20.5926 14.2163C20.416 14.4928 20.2258 14.7625 20.0356 15.0321C19.9201 15.1911 19.9269 15.3294 20.0763 15.4677C20.253 15.6405 20.4296 15.8133 20.5926 15.9931C20.7353 16.1521 20.8711 16.159 21.0409 16.0346C21.3059 15.8341 21.5708 15.6543 21.8425 15.4607C22.1075 15.2672 22.3792 15.2464 22.6849 15.3916C23.0856 15.5783 23.4932 15.7511 23.9076 15.9101C24.2405 16.0346 24.4239 16.2627 24.4782 16.6153C24.5258 16.9264 24.5937 17.2306 24.6344 17.5417C24.6616 17.7768 24.7771 17.8528 24.9945 17.8459C25.2322 17.8321 25.4632 17.8321 25.7009 17.8459C25.9319 17.8597 26.0202 17.7422 26.0542 17.5279C26.1017 17.2168 26.1697 16.9126 26.2104 16.6015C26.258 16.242 26.4618 16.0346 26.7878 15.9101C27.1954 15.758 27.5962 15.5852 27.9902 15.4054C28.3027 15.2602 28.5812 15.281 28.8597 15.4815C29.1246 15.6751 29.3963 15.8617 29.6613 16.0553C29.8175 16.1728 29.9534 16.1659 30.0892 16.0207C30.2591 15.8341 30.4425 15.6543 30.6259 15.4746C30.7617 15.3432 30.7685 15.2118 30.6598 15.0597C30.4696 14.7901 30.2862 14.5136 30.096 14.2439C29.8922 13.9536 29.8719 13.6632 30.0213 13.3383C30.2047 12.9373 30.3677 12.5294 30.5172 12.1146C30.6395 11.7758 30.8636 11.5891 31.2101 11.5338C31.5226 11.4854 31.835 11.4163 32.1475 11.3679C32.3513 11.3402 32.426 11.2365 32.4192 11.036C32.4124 10.8148 32.4056 10.5936 32.4192 10.3723C32.4464 10.082 32.3377 9.95062 32.0524 9.91605C31.7535 9.88839 31.4682 9.81235 31.1693 9.76395C30.8433 9.70864 30.6395 9.52197 30.524 9.21086C30.3677 8.78914 30.2047 8.37432 30.0145 7.96642C29.8719 7.6484 29.8854 7.36494 30.0824 7.08148C30.2794 6.80494 30.4628 6.52148 30.6598 6.24494C30.7617 6.09975 30.7549 5.97531 30.6259 5.85086C30.4425 5.67111 30.2591 5.49136 30.0892 5.30469C29.9466 5.14568 29.8107 5.13185 29.6409 5.26321C29.3828 5.4637 29.111 5.64346 28.8393 5.83704C28.5744 6.03062 28.2959 6.05136 27.997 5.90617C27.5894 5.71951 27.1682 5.54667 26.7471 5.38074C26.4414 5.26321 26.258 5.04889 26.2104 4.71704C26.1629 4.3921 26.0949 4.06716 26.0474 3.73531C26.0134 3.54173 25.9183 3.44494 25.7145 3.45185C25.47 3.45877 25.2254 3.45877 24.9809 3.45185C24.7703 3.44494 24.6616 3.5279 24.6344 3.74222C24.5937 4.06025 24.5258 4.37827 24.4714 4.6963C24.4171 5.03506 24.2337 5.2563 23.9144 5.38074C23.5 5.53975 23.0924 5.70568 22.6916 5.89926C22.3792 6.04444 22.1007 6.03062 21.8221 5.83012C21.5572 5.63654 21.2855 5.44988 21.0274 5.2563C20.8643 5.13185 20.7353 5.14568 20.5994 5.29086C20.4296 5.47062 20.2598 5.65037 20.0831 5.8163C19.9269 5.96148 19.9133 6.09975 20.0424 6.27259C20.2326 6.54222 20.416 6.81876 20.6062 7.08839C20.7964 7.35802 20.8168 7.63457 20.6809 7.94568C20.4907 8.36049 20.3209 8.78913 20.1579 9.21778C20.0424 9.5358 19.8318 9.71555 19.5057 9.76395C19.2 9.81235 18.9012 9.88148 18.5955 9.92296C18.3713 9.95753 18.2558 10.0474 18.2694 10.2963C18.283 10.5383 18.2762 10.7733 18.2694 11.0153C18.2626 11.2296 18.3373 11.3402 18.5547 11.3679C18.8536 11.4094 19.1389 11.4854 19.4378 11.52C19.8182 11.5684 20.056 11.7758 20.185 12.1422C20.3277 12.5363 20.4975 12.9235 20.6537 13.3175C20.7081 13.4489 20.7488 13.5872 20.8032 13.7531Z" fill="#6D6D6D"/>
<path d="M6 18.5995C6.08831 18.3921 6.14945 18.164 6.26493 17.9704C6.56382 17.4381 7.03254 17.1131 7.61673 17.0647C8.28924 17.0163 8.72399 16.7882 8.90741 16.0692C8.98213 15.7719 9.02968 15.5783 8.82589 15.3363C8.64248 15.122 8.49303 14.8731 8.35717 14.6312C7.98356 13.9744 8.0379 13.1378 8.53379 12.564C8.89382 12.1423 9.29461 11.7482 9.70898 11.3749C10.2728 10.8702 11.1151 10.8079 11.7605 11.202C12.0662 11.3887 12.3379 11.6099 12.6436 11.7966C12.7183 11.845 12.8473 11.8657 12.9289 11.8381C13.2278 11.7275 13.5199 11.603 13.8052 11.4647C13.8867 11.4233 13.9682 11.3265 13.9886 11.2366C14.0565 10.9393 14.0905 10.6351 14.1516 10.3447C14.2399 9.95066 14.5932 9.70177 14.9532 9.76399C15.32 9.82622 15.5849 10.1788 15.5306 10.5729C15.4627 11.0845 15.3676 11.5892 15.2725 12.0939C15.2181 12.3912 15.0211 12.564 14.7494 12.6746C14.1992 12.8958 13.6421 13.1309 13.0987 13.3729C12.8066 13.5042 12.5417 13.4973 12.2767 13.3037C11.9167 13.041 11.5499 12.7852 11.1899 12.5294C10.8978 12.322 10.7211 12.3428 10.4698 12.5916C10.2252 12.8336 9.9807 13.0825 9.74295 13.3314C9.49161 13.5941 9.47123 13.76 9.67502 14.0642C9.91957 14.4237 10.1573 14.7763 10.4087 15.1289C10.6328 15.44 10.6328 15.7373 10.4698 16.083C10.2456 16.5739 10.0283 17.0716 9.85843 17.5833C9.72257 17.9773 9.4916 18.1986 9.09082 18.2608C8.66965 18.323 8.25528 18.406 7.83411 18.482C7.53522 18.5442 7.41974 18.6825 7.41974 19.0005C7.41295 19.3808 7.41295 19.7541 7.41974 20.1344C7.42653 20.4386 7.5556 20.5907 7.8477 20.646C8.26886 20.722 8.68324 20.805 9.1044 20.8672C9.48481 20.9225 9.70898 21.123 9.84484 21.4963C10.0283 22.0218 10.2456 22.5403 10.4766 23.045C10.626 23.3837 10.626 23.6741 10.4155 23.9783C10.1641 24.3378 9.91277 24.6973 9.66822 25.0637C9.47802 25.3403 9.49161 25.52 9.71577 25.7551C9.97391 26.0247 10.2388 26.2944 10.5038 26.5571C10.7279 26.7783 10.9046 26.7921 11.1559 26.6124C11.5159 26.3635 11.8692 26.1146 12.2224 25.8519C12.5213 25.6237 12.8202 25.6168 13.1598 25.7758C13.6557 26.0109 14.1652 26.2321 14.6815 26.4188C15.0483 26.5502 15.2453 26.7852 15.2996 27.1724C15.3608 27.5941 15.4423 28.0089 15.5102 28.4237C15.5713 28.7625 15.7072 28.88 16.0469 28.887C16.4069 28.8939 16.7737 28.8939 17.1337 28.887C17.4394 28.88 17.5821 28.7694 17.6364 28.4583C17.7179 28.0504 17.7927 27.6425 17.847 27.2346C17.9081 26.7783 18.1323 26.5225 18.5739 26.3842C19.0358 26.239 19.4909 26.0455 19.9257 25.8173C20.3197 25.6099 20.6525 25.6168 21.0057 25.8934C21.3182 26.1423 21.6511 26.3635 21.9839 26.5916C22.2828 26.799 22.4391 26.7783 22.704 26.5225C22.9553 26.2736 23.2067 26.0178 23.4512 25.762C23.6754 25.527 23.689 25.3403 23.5056 25.0707C23.261 24.7042 23.0097 24.3447 22.7583 23.9852C22.5342 23.6741 22.541 23.3768 22.6972 23.0312C22.9282 22.5334 23.1388 22.0218 23.3222 21.5033C23.4512 21.1299 23.6754 20.9225 24.0558 20.8672C24.4294 20.8119 24.803 20.7358 25.1767 20.6667C25.265 20.6529 25.3533 20.6391 25.4484 20.6321C25.8288 20.6045 26.1616 20.8672 26.216 21.2267C26.2703 21.5793 26.0326 21.9457 25.6725 22.0356C25.3804 22.1047 25.0816 22.1324 24.7962 22.2084C24.6944 22.2361 24.5925 22.3329 24.5381 22.4297C24.4498 22.5749 24.4362 22.7684 24.3411 22.9067C24.083 23.287 24.1645 23.5911 24.443 23.9299C24.7691 24.324 25.034 24.7665 25.0476 25.3195C25.0544 25.8242 24.9253 26.2736 24.5857 26.64C24.2528 27.0065 23.9132 27.366 23.5463 27.6909C22.8874 28.2855 22.0655 28.3408 21.3182 27.8637C21.0601 27.6978 20.8155 27.4973 20.5506 27.3383C20.4623 27.283 20.3197 27.2761 20.2178 27.3037C20.0547 27.3452 19.9121 27.4766 19.7422 27.5042C19.2939 27.5872 19.158 27.8707 19.0969 28.3062C19.0426 28.7003 18.9271 29.1013 18.7573 29.4539C18.5127 29.9516 18.0304 30.1729 17.5277 30.3319C16.896 30.3319 16.2574 30.3319 15.6257 30.3319C15.5849 30.3111 15.551 30.2835 15.5102 30.2766C14.763 30.0553 14.3078 29.5645 14.1448 28.7902C14.0837 28.4998 14.0565 28.2094 13.9818 27.926C13.9546 27.8223 13.8595 27.7047 13.7712 27.6563C13.5131 27.525 13.2346 27.4351 12.9764 27.3037C12.8338 27.2346 12.7387 27.2415 12.6096 27.3383C12.3243 27.5526 12.039 27.76 11.7333 27.9398C11.0812 28.327 10.2456 28.2509 9.68181 27.7393C9.28102 27.3729 8.89382 26.9788 8.53379 26.564C8.16697 26.1423 8.06507 25.6237 8.15338 25.0637C8.2349 24.566 8.52021 24.1857 8.81231 23.8124C9.02968 23.5358 8.98213 23.3215 8.89382 23.0035C8.71041 22.3398 8.31641 22.1116 7.68466 22.0702C7.08009 22.0287 6.5842 21.7107 6.27172 21.1645C6.16303 20.9709 6.08831 20.7497 6 20.5423C6 19.8855 6 19.2425 6 18.5995Z" fill="#6D6D6D"/>
<path d="M16.5579 24.3926C13.7592 24.3373 11.599 21.8899 11.8775 19.0692C12.1153 16.6494 14.1532 14.762 16.5307 14.7482C16.9315 14.7482 17.2576 15.0455 17.2847 15.4326C17.3051 15.8129 17.013 16.1516 16.6054 16.1724C15.7835 16.2139 15.043 16.4558 14.4181 17.0089C13.3584 17.9492 12.9984 19.4287 13.5078 20.7837C13.9901 22.0697 15.24 22.9269 16.6122 22.92C18.3377 22.9062 19.7438 21.565 19.8797 19.8228C19.9 19.5393 19.9 19.2489 20.131 19.0346C20.3416 18.841 20.6541 18.7857 20.8918 18.9102C21.1771 19.0623 21.3198 19.2973 21.313 19.6223C21.2654 21.8484 19.7981 23.7082 17.6651 24.2336C17.2983 24.3166 16.9247 24.3373 16.5579 24.3926Z" fill="#6D6D6D"/>
<path d="M25.3272 14.0713C23.4592 14.0644 21.9647 12.5364 21.9715 10.6352C21.9715 8.73398 23.4999 7.19225 25.368 7.20608C27.2225 7.21991 28.7305 8.77546 28.717 10.6629C28.7034 12.5503 27.1885 14.0782 25.3272 14.0713ZM25.3476 12.6332C26.4209 12.6263 27.304 11.7345 27.304 10.6421C27.304 9.54287 26.4005 8.63719 25.3205 8.6441C24.2539 8.65102 23.3777 9.56361 23.3844 10.656C23.3912 11.7552 24.2743 12.6332 25.3476 12.6332Z" fill="#6D6D6D"/>
</svg>
