<svg width="33" height="34" viewBox="0 0 33 34" fill="none" xmlns="http://www.w3.org/2000/svg">
<path d="M22.11 3.00691C22.3749 3.14519 22.6603 3.24889 22.8912 3.42864C23.292 3.73975 23.4075 4.20988 23.4754 4.69383C23.4958 4.83901 23.5162 5.04642 23.6113 5.11556C23.8151 5.26074 24.0664 5.32988 24.3042 5.41975C24.3449 5.43358 24.4129 5.37136 24.4672 5.33679C24.6642 5.20543 24.8544 5.06025 25.0514 4.9358C25.6424 4.58321 26.3624 4.63161 26.8719 5.0879C27.1912 5.37136 27.4969 5.68247 27.7754 6.00741C28.2305 6.53975 28.2781 7.27259 27.9248 7.8879C27.8841 7.95704 27.8365 8.02617 27.7958 8.09531C27.4154 8.64839 27.4154 8.64839 27.7075 9.25679C27.7414 9.33284 27.8365 9.40197 27.918 9.42271C28.1558 9.48494 28.4003 9.51259 28.6313 9.57481C29.3242 9.76148 29.7861 10.3491 29.8133 11.082C29.8269 11.4484 29.8269 11.8217 29.8133 12.1881C29.7861 12.9417 29.3038 13.5432 28.5906 13.723C28.4887 13.7506 28.38 13.7852 28.2713 13.7852C27.8977 13.7921 27.6735 13.9511 27.5512 14.3383C27.4697 14.5941 27.4697 14.7669 27.6327 14.9812C27.9316 15.3615 28.1626 15.7694 28.1422 16.2879C28.1218 16.6612 28.0199 17 27.7754 17.2765C27.5105 17.5738 27.2319 17.8711 26.9331 18.1407C26.376 18.6593 25.6492 18.7215 25.0038 18.3343C24.9087 18.279 24.8068 18.2237 24.7321 18.1477C24.4604 17.8711 24.1955 17.8642 23.8354 18.0301C23.5501 18.1615 23.4822 18.3481 23.4482 18.6109C23.3871 19.1709 23.2173 19.6894 22.7078 19.9867C22.4768 20.1249 22.1983 20.2286 21.9266 20.2563C21.5326 20.3047 21.1318 20.2839 20.731 20.2632C20.0382 20.2356 19.4743 19.7654 19.2909 19.0879C19.2638 18.9911 19.223 18.8874 19.223 18.7906C19.2434 18.2928 18.9852 18.0509 18.5437 17.9264C18.3875 17.8849 18.2788 17.8849 18.1497 17.9817C17.8033 18.2306 17.4772 18.5072 17.0289 18.5625C16.5601 18.6178 16.139 18.521 15.7925 18.203C15.4733 17.9126 15.1676 17.6084 14.8891 17.2835C14.4339 16.758 14.3864 16.039 14.726 15.4306C14.7736 15.3407 14.8143 15.2439 14.8891 15.1748C15.3102 14.8015 15.1744 14.4005 14.9434 13.9995C14.9026 13.9304 14.794 13.8751 14.7124 13.8543C14.4679 13.7921 14.2098 13.7644 13.972 13.6953C13.3267 13.5017 12.8851 12.9348 12.8579 12.2504C12.8444 11.8701 12.8376 11.4968 12.8512 11.1165C12.8783 10.3077 13.3742 9.70617 14.1554 9.53333C14.2641 9.51259 14.366 9.47802 14.4747 9.47802C14.7872 9.47111 14.9366 9.3121 15.0793 9.01481C15.2695 8.62765 15.0928 8.40642 14.9026 8.12988C14.3049 7.27259 14.3728 6.49827 15.1064 5.7516C15.3238 5.53037 15.5344 5.30222 15.7654 5.09481C16.2884 4.6316 17.0085 4.56938 17.6063 4.92198C17.6946 4.97037 17.7897 5.01185 17.8576 5.0879C18.2244 5.52346 18.6184 5.36444 19.0056 5.14321C19.0735 5.10864 19.1279 5.01185 19.1483 4.92889C19.1958 4.74222 19.2162 4.54864 19.2502 4.36198C19.386 3.68445 19.78 3.24889 20.4254 3.05531C20.4593 3.0484 20.4797 3.02074 20.5137 3C21.0639 3.00691 21.587 3.00691 22.11 3.00691ZM16.8047 14.7531C16.7368 14.9052 16.6824 15.0711 16.5941 15.2163C16.4175 15.4928 16.2273 15.7625 16.0371 16.0321C15.9216 16.1911 15.9284 16.3294 16.0778 16.4677C16.2545 16.6405 16.4311 16.8133 16.5941 16.9931C16.7368 17.1521 16.8726 17.159 17.0424 17.0346C17.3074 16.8341 17.5723 16.6543 17.844 16.4607C18.1089 16.2672 18.3807 16.2464 18.6863 16.3916C19.0871 16.5783 19.4947 16.7511 19.9091 16.9101C20.2419 17.0346 20.4254 17.2627 20.4797 17.6153C20.5273 17.9264 20.5952 18.2306 20.6359 18.5417C20.6631 18.7768 20.7786 18.8528 20.996 18.8459C21.2337 18.8321 21.4647 18.8321 21.7024 18.8459C21.9334 18.8597 22.0217 18.7422 22.0557 18.5279C22.1032 18.2168 22.1712 17.9126 22.2119 17.6015C22.2595 17.242 22.4633 17.0346 22.7893 16.9101C23.1969 16.758 23.5977 16.5852 23.9917 16.4054C24.3042 16.2602 24.5827 16.281 24.8612 16.4815C25.1261 16.6751 25.3978 16.8617 25.6628 17.0553C25.819 17.1728 25.9549 17.1659 26.0907 17.0207C26.2606 16.8341 26.444 16.6543 26.6274 16.4746C26.7632 16.3432 26.77 16.2118 26.6613 16.0597C26.4711 15.7901 26.2877 15.5136 26.0975 15.2439C25.8937 14.9536 25.8733 14.6632 26.0228 14.3383C26.2062 13.9373 26.3692 13.5294 26.5187 13.1146C26.641 12.7758 26.8651 12.5891 27.2116 12.5338C27.5241 12.4854 27.8365 12.4163 28.149 12.3679C28.3528 12.3402 28.4275 12.2365 28.4207 12.036C28.4139 11.8148 28.4071 11.5936 28.4207 11.3723C28.4479 11.082 28.3392 10.9506 28.0539 10.916C27.755 10.8884 27.4697 10.8123 27.1708 10.7639C26.8447 10.7086 26.641 10.522 26.5255 10.2109C26.3692 9.78914 26.2062 9.37432 26.016 8.96642C25.8733 8.64839 25.8869 8.36494 26.0839 8.08148C26.2809 7.80494 26.4643 7.52148 26.6613 7.24494C26.7632 7.09975 26.7564 6.97531 26.6274 6.85086C26.444 6.67111 26.2606 6.49136 26.0907 6.30469C25.9481 6.14568 25.8122 6.13185 25.6424 6.26321C25.3843 6.4637 25.1125 6.64346 24.8408 6.83704C24.5759 7.03062 24.2974 7.05136 23.9985 6.90617C23.5909 6.71951 23.1697 6.54667 22.7486 6.38074C22.4429 6.26321 22.2595 6.04889 22.2119 5.71704C22.1644 5.3921 22.0964 5.06716 22.0489 4.73531C22.0149 4.54173 21.9198 4.44494 21.716 4.45185C21.4715 4.45877 21.2269 4.45877 20.9824 4.45185C20.7718 4.44494 20.6631 4.5279 20.6359 4.74222C20.5952 5.06025 20.5273 5.37827 20.4729 5.6963C20.4186 6.03506 20.2352 6.2563 19.9159 6.38074C19.5015 6.53975 19.0939 6.70568 18.6931 6.89926C18.3807 7.04444 18.1022 7.03062 17.8236 6.83012C17.5587 6.63654 17.287 6.44988 17.0289 6.2563C16.8658 6.13185 16.7368 6.14568 16.6009 6.29086C16.4311 6.47062 16.2612 6.65037 16.0846 6.8163C15.9284 6.96148 15.9148 7.09975 16.0439 7.27259C16.2341 7.54222 16.4175 7.81876 16.6077 8.08839C16.7979 8.35802 16.8183 8.63457 16.6824 8.94568C16.4922 9.36049 16.3224 9.78913 16.1594 10.2178C16.0439 10.5358 15.8333 10.7156 15.5072 10.7639C15.2015 10.8123 14.9026 10.8815 14.597 10.923C14.3728 10.9575 14.2573 11.0474 14.2709 11.2963C14.2845 11.5383 14.2777 11.7733 14.2709 12.0153C14.2641 12.2296 14.3388 12.3402 14.5562 12.3679C14.8551 12.4094 15.1404 12.4854 15.4393 12.52C15.8197 12.5684 16.0575 12.7758 16.1865 13.1422C16.3292 13.5363 16.499 13.9235 16.6552 14.3175C16.7096 14.4489 16.7503 14.5872 16.8047 14.7531Z" fill="#E92F24"/>
<path d="M2 19.5999C2.08831 19.3925 2.14945 19.1644 2.26493 18.9708C2.56382 18.4385 3.03254 18.1135 3.61673 18.0651C4.28924 18.0167 4.72399 17.7886 4.90741 17.0696C4.98213 16.7723 5.02968 16.5787 4.82589 16.3367C4.64248 16.1224 4.49303 15.8735 4.35717 15.6315C3.98356 14.9748 4.0379 14.1382 4.53379 13.5644C4.89382 13.1427 5.29461 12.7486 5.70898 12.3753C6.2728 11.8706 7.11513 11.8083 7.76047 12.2024C8.06615 12.3891 8.33787 12.6103 8.64356 12.797C8.71828 12.8454 8.84735 12.8661 8.92887 12.8385C9.22776 12.7278 9.51986 12.6034 9.80516 12.4651C9.88668 12.4236 9.9682 12.3269 9.98858 12.237C10.0565 11.9397 10.0905 11.6355 10.1516 11.3451C10.2399 10.9511 10.5932 10.7022 10.9532 10.7644C11.32 10.8266 11.5849 11.1792 11.5306 11.5733C11.4627 12.0849 11.3676 12.5896 11.2725 13.0943C11.2181 13.3915 11.0211 13.5644 10.7494 13.675C10.1992 13.8962 9.64213 14.1313 9.09869 14.3733C8.80659 14.5046 8.54167 14.4977 8.27674 14.3041C7.91671 14.0414 7.54989 13.7856 7.18986 13.5298C6.89776 13.3224 6.72114 13.3432 6.4698 13.592C6.22525 13.834 5.9807 14.0829 5.74295 14.3318C5.49161 14.5945 5.47123 14.7604 5.67502 15.0646C5.91957 15.4241 6.15732 15.7767 6.40866 16.1293C6.63283 16.4404 6.63283 16.7377 6.4698 17.0834C6.24563 17.5743 6.02825 18.072 5.85843 18.5836C5.72257 18.9777 5.4916 19.199 5.09082 19.2612C4.66965 19.3234 4.25528 19.4064 3.83411 19.4824C3.53522 19.5446 3.41974 19.6829 3.41974 20.0009C3.41295 20.3812 3.41295 20.7545 3.41974 21.1348C3.42653 21.439 3.5556 21.5911 3.8477 21.6464C4.26886 21.7224 4.68324 21.8054 5.1044 21.8676C5.48481 21.9229 5.70898 22.1234 5.84484 22.4967C6.02825 23.0222 6.24563 23.5407 6.47659 24.0454C6.62604 24.3841 6.62604 24.6745 6.41545 24.9787C6.16411 25.3382 5.91277 25.6977 5.66822 26.0641C5.47802 26.3407 5.49161 26.5204 5.71577 26.7555C5.97391 27.0251 6.23883 27.2948 6.50376 27.5575C6.72793 27.7787 6.90455 27.7925 7.15589 27.6128C7.51592 27.3639 7.86916 27.115 8.2224 26.8523C8.52129 26.6241 8.82018 26.6172 9.15983 26.7762C9.65572 27.0113 10.1652 27.2325 10.6815 27.4192C11.0483 27.5506 11.2453 27.7856 11.2996 28.1728C11.3608 28.5945 11.4423 29.0093 11.5102 29.4241C11.5713 29.7629 11.7072 29.8804 12.0469 29.8873C12.4069 29.8943 12.7737 29.8943 13.1337 29.8873C13.4394 29.8804 13.5821 29.7698 13.6364 29.4587C13.7179 29.0508 13.7927 28.6429 13.847 28.235C13.9081 27.7787 14.1323 27.5229 14.5739 27.3846C15.0358 27.2394 15.4909 27.0459 15.9257 26.8177C16.3197 26.6103 16.6525 26.6172 17.0057 26.8938C17.3182 27.1427 17.6511 27.3639 17.9839 27.592C18.2828 27.7994 18.4391 27.7787 18.704 27.5229C18.9553 27.274 19.2067 27.0182 19.4512 26.7624C19.6754 26.5273 19.689 26.3407 19.5056 26.071C19.261 25.7046 19.0097 25.3451 18.7583 24.9856C18.5342 24.6745 18.541 24.3772 18.6972 24.0315C18.9282 23.5338 19.1388 23.0222 19.3222 22.5036C19.4512 22.1303 19.6754 21.9229 20.0558 21.8676C20.4294 21.8123 20.803 21.7362 21.1767 21.6671C21.265 21.6533 21.3533 21.6394 21.4484 21.6325C21.8288 21.6049 22.1616 21.8676 22.216 22.2271C22.2703 22.5797 22.0326 22.9461 21.6725 23.036C21.3804 23.1051 21.0816 23.1328 20.7962 23.2088C20.6944 23.2365 20.5925 23.3333 20.5381 23.4301C20.4498 23.5752 20.4362 23.7688 20.3411 23.9071C20.083 24.2873 20.1645 24.5915 20.443 24.9303C20.7691 25.3244 21.034 25.7669 21.0476 26.3199C21.0544 26.8246 20.9253 27.274 20.5857 27.6404C20.2528 28.0069 19.9132 28.3664 19.5463 28.6913C18.8874 29.2859 18.0655 29.3412 17.3182 28.8641C17.0601 28.6982 16.8155 28.4977 16.5506 28.3387C16.4623 28.2834 16.3197 28.2765 16.2178 28.3041C16.0547 28.3456 15.9121 28.477 15.7422 28.5046C15.2939 28.5876 15.158 28.8711 15.0969 29.3066C15.0426 29.7007 14.9271 30.1017 14.7573 30.4543C14.5127 30.952 14.0304 31.1733 13.5277 31.3323C12.896 31.3323 12.2574 31.3323 11.6257 31.3323C11.5849 31.3115 11.551 31.2839 11.5102 31.277C10.763 31.0557 10.3078 30.5649 10.1448 29.7906C10.0837 29.5002 10.0565 29.2098 9.98178 28.9264C9.95461 28.8227 9.85951 28.7051 9.7712 28.6567C9.51307 28.5254 9.23455 28.4355 8.97642 28.3041C8.83376 28.235 8.73866 28.2419 8.60959 28.3387C8.32429 28.553 8.03898 28.7604 7.7333 28.9402C7.08117 29.3273 6.24563 29.2513 5.68181 28.7397C5.28102 28.3733 4.89382 27.9792 4.53379 27.5644C4.16697 27.1427 4.06507 26.6241 4.15338 26.0641C4.2349 25.5664 4.52021 25.1861 4.81231 24.8128C5.02968 24.5362 4.98213 24.3219 4.89382 24.0039C4.71041 23.3402 4.31641 23.112 3.68466 23.0706C3.08009 23.0291 2.5842 22.7111 2.27172 22.1649C2.16303 21.9713 2.08831 21.7501 2 21.5427C2 20.8859 2 20.2429 2 19.5999Z" fill="#E92F24"/>
<path d="M12.5561 25.3925C9.75743 25.3372 7.59725 22.8898 7.87576 20.069C8.11352 17.6493 10.1514 15.7619 12.529 15.748C12.9298 15.748 13.2558 16.0453 13.283 16.4325C13.3034 16.8127 13.0113 17.1515 12.6037 17.1722C11.7817 17.2137 11.0413 17.4557 10.4164 18.0088C9.35664 18.949 8.99661 20.4285 9.50609 21.7836C9.98839 23.0695 11.2383 23.9268 12.6105 23.9199C14.3359 23.9061 15.7421 22.5648 15.8779 20.8226C15.8983 20.5392 15.8983 20.2488 16.1293 20.0345C16.3398 19.8409 16.6523 19.7856 16.8901 19.91C17.1754 20.0621 17.318 20.2972 17.3113 20.6221C17.2637 22.8483 15.7964 24.708 13.6634 25.2335C13.2966 25.3164 12.923 25.3372 12.5561 25.3925Z" fill="#E92F24"/>
<path d="M21.3284 15.0713C19.4603 15.0644 17.9659 13.5365 17.9727 11.6353C17.9727 9.73405 19.5011 8.19232 21.3692 8.20615C23.2237 8.21997 24.7317 9.77553 24.7181 11.6629C24.7045 13.5503 23.1897 15.0782 21.3284 15.0713ZM21.3488 13.6333C22.4221 13.6264 23.3052 12.7345 23.3052 11.6422C23.3052 10.5429 22.4017 9.63726 21.3216 9.64417C20.2551 9.65108 19.3788 10.5637 19.3856 11.656C19.3924 12.7553 20.2755 13.6333 21.3488 13.6333Z" fill="#E92F24"/>
</svg>
