<svg width="14" height="13" viewBox="0 0 14 13" fill="none" xmlns="http://www.w3.org/2000/svg">
<path d="M13.2734 3.74625C13.2415 3.58683 13.2159 3.42742 13.1776 3.268C12.8292 1.90979 11.5765 0.962859 10.1703 1.00112C9.39696 1.02344 8.71626 1.29444 8.16339 1.83327C7.44434 2.53469 6.73808 3.24887 6.02861 3.96305C5.67388 4.32333 5.68347 4.87491 6.03181 5.21925C6.38015 5.5604 6.92024 5.56039 7.28136 5.20649C7.63289 4.86216 7.97804 4.51463 8.32318 4.16711C8.35514 4.13522 8.3807 4.10015 8.41266 4.06508C9.42572 5.08215 10.4292 6.08328 11.4263 7.07803C11.455 7.07165 11.4646 7.07165 11.471 7.06846C11.8194 6.71775 12.1805 6.37979 12.516 6.01632C12.9379 5.55083 13.1776 4.99607 13.2511 4.37435C13.2543 4.34884 13.267 4.32333 13.2734 4.29464C13.2734 4.1129 13.2734 3.92798 13.2734 3.74625Z" fill="white"/>
<path d="M5.58699 7.24121C6.2581 7.28584 6.7087 7.75771 6.75664 8.39219C6.92282 8.44001 7.09539 8.46871 7.24559 8.54204C7.96784 8.88 8.15319 9.81736 7.60991 10.404C7.3958 10.6336 7.15931 10.8472 6.92282 11.0799C7.14972 11.2808 7.35105 11.488 7.58435 11.657C7.9199 11.8993 8.38649 11.8387 8.68369 11.5486C8.9809 11.2553 9.03523 10.8025 8.81472 10.4518C8.79555 10.4199 8.77317 10.3881 8.73483 10.3275C8.95533 10.4486 9.16306 10.4997 9.38676 10.4582C9.61366 10.4168 9.79582 10.3052 9.93644 10.1234C10.1282 9.87794 10.2304 9.44433 9.93005 9.03303C10.0579 9.06492 10.1921 9.11912 10.3295 9.13187C10.6938 9.16376 10.9783 9.01391 11.1636 8.70145C11.3458 8.39537 11.2914 8.0893 11.1253 7.79597C11.1093 7.76728 11.0869 7.74496 11.0645 7.72264C10.2049 6.8618 9.34202 6.00415 8.47916 5.1433C8.46318 5.12736 8.44401 5.11142 8.41525 5.08591C8.19474 5.30909 7.98062 5.53228 7.75692 5.74589C7.12415 6.35805 6.12068 6.34211 5.5039 5.7172C4.8967 5.10185 4.89031 4.1071 5.49431 3.4822C5.79791 3.16974 6.1079 2.86685 6.41469 2.56078C6.44665 2.52889 6.485 2.50657 6.51696 2.48107C5.77873 1.69674 4.93185 1.19618 3.82931 1.27589C2.44234 1.37791 1.343 2.32803 1.06816 3.68625C0.860435 4.70969 1.13208 5.61517 1.85113 6.37399C2.12916 6.66731 2.44234 6.93194 2.74914 7.21889C2.78429 7.18701 2.81625 7.15831 2.84501 7.12962C3.09109 6.88412 3.33077 6.63224 3.58323 6.39631C4.24796 5.77778 5.33452 6.10617 5.54544 6.98933C5.56462 7.06904 5.5742 7.15193 5.58699 7.24121Z" fill="white"/>
<path d="M4.07 9.48166C4.0764 9.64745 4.15949 9.79411 4.33525 9.87701C4.51102 9.95991 4.68679 9.94396 4.84019 9.81643C4.92967 9.7431 5.00637 9.65702 5.08946 9.57412C5.35471 9.30949 5.61996 9.04486 5.8852 8.78023C6.08654 8.57618 6.08973 8.28923 5.89799 8.09794C5.70944 7.91301 5.42182 7.91939 5.22368 8.11707C4.88812 8.44865 4.55576 8.78023 4.2234 9.11182C4.12433 9.20747 4.07 9.31906 4.07 9.48166Z" fill="white"/>
<path d="M5.246 10.6641C5.2524 10.8267 5.34188 10.9765 5.52404 11.053C5.703 11.1328 5.87877 11.1104 6.02577 10.9765C6.18556 10.8267 6.33896 10.6705 6.49555 10.5142C6.68091 10.3293 6.86946 10.1444 7.05481 9.95627C7.25934 9.74903 7.26893 9.46527 7.07718 9.27397C6.88863 9.08268 6.59782 9.08905 6.39329 9.28992C6.06093 9.61831 5.73176 9.9499 5.4026 10.2783C5.30033 10.3771 5.246 10.4887 5.246 10.6641Z" fill="white"/>
<path d="M2.89452 8.30566C2.90411 8.48102 2.9904 8.63087 3.17256 8.71058C3.36111 8.79347 3.54327 8.76478 3.69347 8.6213C3.8948 8.43 4.08974 8.22914 4.28788 8.03147C4.4285 7.89118 4.57231 7.7509 4.70972 7.60742C4.90786 7.40337 4.91425 7.1228 4.7289 6.93469C4.54035 6.74339 4.24634 6.74658 4.045 6.94744C3.71264 7.27584 3.38348 7.60423 3.05431 7.93582C2.95205 8.03147 2.89772 8.14625 2.89452 8.30566Z" fill="white"/>
</svg>
