<svg width="40" height="40" viewBox="0 0 40 40" fill="none" xmlns="http://www.w3.org/2000/svg">
<path d="M31 17.1159C30.9249 17.5475 30.8712 17.9846 30.7692 18.4055C30.4955 19.5278 29.9534 20.5153 29.2717 21.4326C28.2198 22.8463 26.9423 24.0441 25.622 25.1989C24.0655 26.5586 22.5036 27.9076 20.9417 29.2619C20.3406 29.7799 19.6965 29.8015 19.1169 29.2997C17.0827 27.5299 15.0485 25.76 13.0411 23.9632C12.0106 23.0405 11.082 22.0045 10.3253 20.8336C8.97271 18.7292 8.60237 16.4738 9.46113 14.105C10.2394 11.9629 11.7476 10.5599 14.0072 10.1229C16.3527 9.66962 18.242 10.5114 19.7448 12.3298C19.82 12.4161 19.8844 12.5132 19.9542 12.5996C19.9649 12.6104 19.9756 12.6157 20.0132 12.6481C20.0937 12.5456 20.1742 12.4377 20.2601 12.3352C21.1296 11.2668 22.1923 10.479 23.5502 10.1552C25.9172 9.59408 28.4291 10.5869 29.7924 12.605C30.4686 13.6032 30.839 14.7039 30.9624 15.8964C30.9678 15.972 30.9893 16.0475 31 16.1284C31 16.4522 31 16.7867 31 17.1159ZM20.0025 28.3554C20.0561 28.3123 20.1044 28.2799 20.1474 28.2421C21.8864 26.7313 23.6307 25.2366 25.3536 23.7096C26.5559 22.6412 27.6991 21.5135 28.5955 20.1591C29.4435 18.8695 29.8621 17.4612 29.6689 15.9072C29.4596 14.2291 28.7457 12.837 27.259 11.9575C25.8743 11.1427 24.4197 11.0402 22.9491 11.747C22.0796 12.1679 21.4409 12.8478 20.9042 13.641C20.829 13.7543 20.7592 13.873 20.6787 13.9809C20.3245 14.4665 19.6965 14.4665 19.3369 13.9863C19.0256 13.5654 18.7358 13.123 18.3815 12.7453C17.2329 11.5204 15.8106 11.051 14.1682 11.4071C12.4024 11.7902 11.2377 12.9179 10.6527 14.6122C9.97102 16.5817 10.2931 18.4325 11.4256 20.1591C12.1233 21.2329 12.9821 22.1718 13.9267 23.0243C15.4832 24.4326 17.0719 25.8086 18.6499 27.1953C19.0954 27.5784 19.5462 27.9615 20.0025 28.3554Z" fill="black"/>
</svg>
