<svg width="40" height="40" viewBox="0 0 40 40" fill="none" xmlns="http://www.w3.org/2000/svg">
<path d="M9 17.5198C9.06572 17.0903 9.11266 16.6609 9.20185 16.2362C9.62434 14.2635 10.6101 12.607 12.0701 11.2384C14.0463 9.38378 16.4076 8.36914 19.0833 8.08126C22.0219 7.76979 24.7728 8.34554 27.2748 9.95009C29.4577 11.3517 31.0115 13.263 31.6827 15.8161C32.3587 18.3834 31.9456 20.8044 30.528 23.0272C28.9929 25.434 26.7725 26.9206 24.0733 27.7134C22.3599 28.2137 20.6089 28.36 18.8345 28.0862C18.4965 28.0343 18.2243 28.0957 17.9332 28.275C16.478 29.1811 15.0134 30.0683 13.5488 30.9603C13.4783 31.0027 13.4173 31.0547 13.3563 31.1019C13.3422 31.1019 13.3281 31.1019 13.3093 31.1019C13.3093 29.4643 13.3093 27.8267 13.314 26.1891C13.314 26.0475 13.2718 25.9626 13.1591 25.8729C12.7742 25.5661 12.3799 25.2641 12.0231 24.9196C10.4881 23.4425 9.47882 21.6775 9.12675 19.5538C9.0798 19.2801 9.04225 19.0064 9 18.7374C9 18.3315 9 17.9257 9 17.5198ZM14.6989 28.5298C14.7833 28.4827 14.8444 28.4496 14.9101 28.4119C15.7691 27.8927 16.6376 27.3925 17.4826 26.8498C17.8675 26.5997 18.2336 26.4487 18.6843 26.6233C18.7594 26.6516 18.8486 26.6421 18.9284 26.6563C20.5432 26.897 22.1393 26.7743 23.6978 26.3118C25.9698 25.6417 27.8663 24.4052 29.2089 22.409C30.4528 20.559 30.8472 18.5297 30.3308 16.3494C29.8332 14.2446 28.6033 12.6259 26.8617 11.4178C24.2376 9.59615 21.3131 9.06287 18.2008 9.68109C15.5157 10.2144 13.2765 11.531 11.7368 13.8576C10.3003 16.0285 10.028 18.3787 10.9481 20.828C11.6335 22.6591 12.8963 24.0277 14.5252 25.0706C14.6754 25.165 14.7317 25.2688 14.727 25.4482C14.7035 26.4109 14.6989 27.3736 14.6895 28.3364C14.6895 28.393 14.6942 28.4496 14.6989 28.5298Z" fill="black"/>
<path d="M20.5154 15.9434C22.1631 15.9434 23.8061 15.9434 25.4538 15.9434C26.0124 15.9434 26.3739 16.4106 26.1955 16.9014C26.0923 17.1893 25.8763 17.345 25.5759 17.3828C25.5008 17.3922 25.4257 17.3875 25.3506 17.3875C22.1115 17.3875 18.8724 17.3875 15.6334 17.3875C15.5301 17.3875 15.4221 17.3922 15.3188 17.3686C14.9527 17.2931 14.7086 16.9533 14.7508 16.5899C14.7884 16.2266 15.0841 15.9481 15.4691 15.9434C16.1122 15.934 16.7553 15.9387 17.3984 15.9387C18.4359 15.9434 19.4733 15.9434 20.5154 15.9434Z" fill="black"/>
<path d="M20.4861 21.7218C19.3032 21.7218 18.1249 21.7265 16.9419 21.7218C16.4021 21.7218 16.05 21.2452 16.2284 20.7638C16.3317 20.4759 16.5476 20.3202 16.8481 20.2872C16.9232 20.2777 16.9983 20.2824 17.0734 20.2824C19.3548 20.2824 21.6362 20.2824 23.9176 20.2824C24.0209 20.2824 24.1289 20.2777 24.2322 20.3013C24.5889 20.3768 24.8283 20.7024 24.8002 21.0611C24.772 21.4198 24.4903 21.6982 24.1242 21.7265C24.0491 21.7313 23.974 21.7313 23.8989 21.7313C22.7582 21.7218 21.6221 21.7218 20.4861 21.7218Z" fill="black"/>
</svg>
