<svg width="40" height="40" viewBox="0 0 40 40" fill="none" xmlns="http://www.w3.org/2000/svg">
<path d="M26.1928 10C26.3533 10.0361 26.5178 10.0722 26.6783 10.1124C28.1991 10.5136 29.2664 11.9461 29.1861 13.4749C29.0979 15.136 27.9182 16.4682 26.3011 16.6889C25.2378 16.8374 24.3069 16.5284 23.5124 15.8021C23.4603 15.754 23.4041 15.7018 23.3519 15.6496C23.3479 15.6456 23.3399 15.6456 23.3158 15.6336C21.4861 16.7651 19.6484 17.9047 17.8026 19.0483C18.1035 19.8628 18.1035 20.6733 17.8026 21.4879C19.6443 22.6314 21.4781 23.767 23.3238 24.9066C23.4362 24.8022 23.5485 24.6979 23.6649 24.6016C24.7643 23.6787 26.3092 23.5543 27.541 24.2846C28.7729 25.0149 29.4028 26.4434 29.1179 27.8598C28.8451 29.228 27.7055 30.2954 26.3051 30.5C26.269 30.504 26.2329 30.5241 26.1928 30.5361C25.952 30.5361 25.7113 30.5361 25.4705 30.5361C25.1215 30.4318 24.7523 30.3676 24.4233 30.2191C22.8784 29.529 22.1121 27.7876 22.6216 26.1705C22.6738 26.002 22.6537 25.9217 22.4932 25.8254C20.7558 24.7621 19.0264 23.6827 17.297 22.6114C17.2569 22.5873 17.2168 22.5632 17.1606 22.5311C16.33 23.3738 15.3269 23.759 14.1472 23.5824C13.3005 23.458 12.5983 23.0447 12.0607 22.3787C10.9492 21.0184 11.0736 19.0763 12.3456 17.8445C13.5734 16.6568 15.7081 16.4963 17.1686 18.005C17.3893 17.8686 17.618 17.7281 17.8427 17.5877C19.4116 16.6167 20.9765 15.6456 22.5454 14.6786C22.6578 14.6104 22.6778 14.5542 22.6377 14.4258C21.9877 12.3875 23.2516 10.3692 25.3742 10.0321C25.4063 10.0281 25.4384 10.012 25.4665 10C25.7113 10 25.952 10 26.1928 10ZM25.8196 29.3123C26.9953 29.3163 27.9543 28.3694 27.9583 27.1937C27.9663 26.01 27.0114 25.047 25.8277 25.043C24.652 25.039 23.701 25.9819 23.689 27.1616C23.681 28.3493 24.6319 29.3123 25.8196 29.3123ZM25.8277 11.2318C24.652 11.2278 23.701 12.1708 23.693 13.3505C23.681 14.5221 24.6319 15.4891 25.8036 15.4972C26.9873 15.5052 27.9583 14.5542 27.9623 13.3745C27.9623 12.1908 27.0154 11.2359 25.8277 11.2318ZM12.5341 20.2761C12.5382 21.4558 13.4851 22.4027 14.6608 22.4027C15.8445 22.4027 16.8035 21.4478 16.7995 20.2681C16.7995 19.0844 15.8365 18.1334 14.6487 18.1414C13.4771 18.1454 12.5301 19.1004 12.5341 20.2761Z" fill="black"/>
</svg>
