<svg width="40" height="40" viewBox="0 0 40 40" fill="none" xmlns="http://www.w3.org/2000/svg">
<path d="M20.1527 10.0065C22.7896 10.0065 25.4331 10.0065 28.0699 10C28.3564 10 28.5648 10.0916 28.7536 10.3076C30.199 11.9571 31.6509 13.6066 33.0963 15.256C33.3893 15.5899 33.3828 15.8059 33.0638 16.1659C30.6092 18.9477 28.1546 21.7295 25.7 24.5114C24.0267 26.4096 22.3469 28.3078 20.6736 30.2125C20.2895 30.6445 20.0095 30.6445 19.6254 30.206C15.4975 25.5325 11.3761 20.859 7.25474 16.1855C6.91618 15.7993 6.91618 15.5964 7.24823 15.2168C8.65458 13.6131 10.0674 12.016 11.4673 10.4058C11.7082 10.1244 11.9686 10.0065 12.3462 10.0065C14.9441 10.0131 17.5484 10.0065 20.1527 10.0065ZM31.5988 16.2444C26.3511 16.2444 21.1684 16.2444 15.9467 16.2444C17.3466 20.1324 18.7399 23.9812 20.1527 27.9085C20.2113 27.7514 20.2374 27.6794 20.2634 27.6074C21.227 24.9827 22.1906 22.3645 23.1608 19.7397C23.33 19.2881 23.5775 19.1179 23.903 19.2422C24.222 19.3666 24.3002 19.6546 24.1374 20.1063C23.2194 22.6066 22.3013 25.107 21.3833 27.6074C21.3507 27.6859 21.3247 27.771 21.2987 27.8561C21.3117 27.8627 21.3312 27.8692 21.3442 27.8758C24.7429 24.0139 28.1481 20.1521 31.5988 16.2444ZM18.9873 27.9085C19.0003 27.9019 19.0133 27.8954 19.0264 27.8954C19.0133 27.8496 19.0003 27.7972 18.9808 27.7514C17.62 23.9746 16.2527 20.2044 14.8985 16.4277C14.8399 16.264 14.7618 16.2182 14.599 16.2182C12.7174 16.2248 10.8292 16.2182 8.94757 16.2248C8.87595 16.2248 8.80433 16.2379 8.68713 16.251C12.1509 20.1586 15.5691 24.0336 18.9873 27.9085ZM20.1658 11.4858C18.9548 12.6837 17.7112 13.9142 16.4676 15.1448C18.9222 15.1448 21.3768 15.1448 23.8704 15.1448C22.5943 13.8946 21.3638 12.6706 20.1658 11.4858ZM12.9843 11.0669C13.7656 12.3302 14.5209 13.5542 15.2371 14.7128C16.4741 13.4953 17.6982 12.2909 18.9417 11.0669C16.9559 11.0669 14.9962 11.0669 12.9843 11.0669ZM21.3182 11.0604C22.5878 12.3106 23.8184 13.5215 25.0489 14.7324C25.7846 13.5346 26.5399 12.3106 27.3147 11.0604C25.3028 11.0604 23.3366 11.0604 21.3182 11.0604ZM8.68062 15.1513C10.5818 15.1513 12.4113 15.1513 14.28 15.1513C13.4987 13.888 12.7434 12.6575 11.9686 11.4073C10.8618 12.664 9.78747 13.8946 8.68062 15.1513ZM26.0125 15.1513C27.9007 15.1513 29.7302 15.1513 31.6184 15.1513C30.505 13.888 29.4242 12.6575 28.3239 11.4073C27.5491 12.6706 26.7873 13.8946 26.0125 15.1513Z" fill="black"/>
<path d="M24.8993 17.7816C24.8993 17.4936 24.6779 17.2645 24.3914 17.2579C24.1115 17.2514 23.8771 17.487 23.8771 17.7685C23.8706 18.0565 24.0985 18.2856 24.3849 18.2856C24.6649 18.2921 24.8993 18.063 24.8993 17.7816Z" fill="white"/>
<path d="M24.8992 17.7829C24.8992 18.0709 24.6648 18.2934 24.3848 18.2934C24.0983 18.2934 23.877 18.0578 23.877 17.7763C23.8835 17.4949 24.1113 17.2592 24.3913 17.2658C24.6713 17.2592 24.8992 17.4949 24.8992 17.7829Z" fill="black"/>
</svg>
