<svg width="40" height="40" viewBox="0 0 40 40" fill="none" xmlns="http://www.w3.org/2000/svg">
<path d="M12.9355 21.4576C12.9355 18.7425 12.9355 16.0275 12.9355 13.3125C12.9355 11.7097 14.025 10.3807 15.5935 10.067C15.816 10.0214 16.0441 10.01 16.2723 10.0043C19.0672 9.99857 21.862 9.99857 24.6569 10.0043C26.5449 10.0043 27.9937 11.4473 27.9937 13.3353C27.9937 18.811 27.9937 24.281 27.9994 29.7566C27.9994 30.0589 27.9081 30.3042 27.6343 30.4525C27.3491 30.6065 27.0868 30.5324 26.8358 30.3555C24.7767 28.9125 22.7176 27.4751 20.6585 26.0263C20.5102 25.9237 20.4133 25.9294 20.2707 26.032C18.2116 27.4808 16.1525 28.9182 14.0934 30.3613C13.6257 30.6921 13.0781 30.521 12.9584 30.0076C12.9355 29.9106 12.9355 29.808 12.9355 29.711C12.9355 26.9618 12.9355 24.2068 12.9355 21.4576ZM26.6247 28.536C26.6247 28.4334 26.6247 28.3763 26.6247 28.325C26.6247 23.3341 26.6247 18.3433 26.6247 13.3524C26.6247 12.2003 25.7977 11.3732 24.6398 11.3732C21.8677 11.3732 19.0957 11.3732 16.3179 11.3732C15.1201 11.3732 14.3045 12.1888 14.3045 13.3866C14.3045 18.3547 14.3045 23.3227 14.3045 28.2908C14.3045 28.3592 14.3045 28.4277 14.3045 28.5303C14.4128 28.4619 14.487 28.4105 14.5611 28.3592C16.3521 27.1044 18.1431 25.8495 19.9341 24.5947C20.3562 24.2981 20.5673 24.2981 21.0008 24.6004C22.4552 25.6157 23.9097 26.6366 25.3585 27.6519C25.7692 27.9371 26.1798 28.2223 26.6247 28.536Z" fill="black"/>
</svg>
