<svg width="15" height="16" viewBox="0 0 15 16" fill="none" xmlns="http://www.w3.org/2000/svg">
<path d="M14.6527 6.21045C14.6634 6.21045 14.6706 6.21045 14.6814 6.21045C14.6814 6.30549 14.6814 6.39702 14.6814 6.49206C14.6169 6.61879 14.5237 6.72087 14.4233 6.81944C13.4092 7.78748 12.3951 8.75905 11.381 9.7271C11.3559 9.74822 11.3308 9.76934 11.3057 9.79046C11.0907 9.76582 10.8936 9.67781 10.6894 9.61445C9.83293 9.34692 8.97649 9.07235 8.12004 8.79777C7.88353 8.72033 7.64702 8.64288 7.37109 8.55136C7.44993 8.5232 7.48935 8.50208 7.53235 8.49152C7.87995 8.37887 8.23112 8.26975 8.57872 8.1571C9.78635 7.76988 10.9976 7.38618 12.2052 6.99897C13.0258 6.73495 13.8392 6.47446 14.6527 6.21045Z" fill="#198FD2"/>
<path d="M14.6492 6.21032C13.8358 6.47082 13.0223 6.73483 12.2053 6.99532C10.9977 7.38254 9.78646 7.76624 8.57884 8.15346C8.23124 8.2661 7.88006 8.37523 7.53247 8.48787C7.48947 8.50195 7.44646 8.51955 7.37121 8.54772C7.64355 8.63924 7.88006 8.71668 8.12015 8.79413C8.9766 9.0687 9.82947 9.34679 10.6895 9.61081C10.8938 9.67417 11.0908 9.76217 11.3059 9.78681C11.356 10.0931 11.4062 10.3993 11.4564 10.7056C11.5352 11.1702 11.6176 11.6384 11.7 12.1031C11.7825 12.5677 11.8613 13.0359 11.9437 13.5006C11.9867 13.7364 12.0405 13.9758 12.0655 14.2117C12.087 14.4053 12.0154 14.5672 11.8398 14.6763C11.8434 14.6376 11.8255 14.6059 11.8004 14.5742C11.657 14.3877 11.5209 14.1976 11.3811 14.0075C10.7934 13.2084 10.2057 12.4129 9.61446 11.6138C8.88343 10.6246 8.14882 9.63545 7.4178 8.64628C7.39988 8.62164 7.38913 8.58292 7.33896 8.60404C7.33896 9.94522 7.33896 11.2864 7.33896 12.6276C6.65452 12.9831 5.96649 13.3422 5.28205 13.6942C5.02404 13.828 4.76245 13.9582 4.50086 14.0885C4.36469 13.9547 4.33602 13.7892 4.3611 13.6132C4.38619 13.4267 4.42919 13.2401 4.45786 13.0535C4.49727 12.7895 4.56894 12.529 4.58686 12.2615C4.60836 12.2263 4.6227 12.1911 4.61911 12.1524C4.68361 12.1453 4.7087 12.0925 4.74095 12.0468C5.07421 11.5927 5.41106 11.1421 5.74432 10.688C6.23167 10.0262 6.7226 9.36791 7.20996 8.70612C7.23504 8.67444 7.29954 8.63924 7.25654 8.58996C7.22429 8.55124 7.17412 8.597 7.13829 8.60756C6.51118 8.80821 5.88049 9.01238 5.25338 9.21655C5.19605 9.23415 5.13871 9.26231 5.07421 9.25175C5.05271 9.12854 4.92729 9.10038 4.85204 9.02646C4.52953 8.7026 4.20701 8.37523 3.87017 8.06545C3.55124 7.7768 3.24665 7.47758 2.94922 7.16781C2.9958 7.16781 3.04239 7.17485 3.08897 7.19245C3.43299 7.30158 3.777 7.4107 4.12101 7.51983C5.13513 7.84368 6.14925 8.17106 7.16337 8.49491C7.20279 8.50899 7.24221 8.53363 7.30312 8.50195C6.50043 7.41774 5.70132 6.33353 4.90221 5.24932C5.36806 4.32351 5.83032 3.39419 6.29617 2.46839C6.49326 2.07765 6.68677 1.68691 6.88386 1.29969C6.97703 1.11664 7.1132 0.989916 7.33896 1.004C7.33896 3.50332 7.33896 5.99911 7.33896 8.49843C7.34971 8.50195 7.36046 8.50547 7.37121 8.51251C8.17391 7.4283 8.9766 6.34057 9.7793 5.25636C10.1591 5.30916 10.5426 5.35844 10.9224 5.41477C11.4814 5.49221 12.0405 5.57317 12.5995 5.65414C13.1478 5.73158 13.6996 5.8055 14.2479 5.88999C14.4378 5.91111 14.5919 6.00967 14.6492 6.21032Z" fill="#55BCF6"/>
<path d="M7.33984 12.6312C7.33984 11.29 7.33984 9.94883 7.33984 8.60765C7.39001 8.58652 7.40076 8.62525 7.41868 8.64989C8.14971 9.63905 8.88432 10.6282 9.61534 11.6174C10.203 12.4165 10.7943 13.212 11.382 14.0111C11.5217 14.2012 11.6615 14.3913 11.8013 14.5778C11.8263 14.6095 11.8407 14.6412 11.8407 14.6799C11.683 14.7715 11.5325 14.7855 11.3605 14.7011C10.1672 14.1061 8.99182 13.4796 7.80569 12.8741C7.64802 12.7966 7.49393 12.7122 7.33984 12.6312Z" fill="#198FD2"/>
<path d="M9.77627 5.25263C8.97358 6.33684 8.17088 7.42457 7.36819 8.50878C7.35744 8.50526 7.34669 8.50174 7.33594 8.4947C7.33594 5.99538 7.33594 3.49958 7.33594 1.00027C7.56886 0.993225 7.70145 1.12699 7.7982 1.31356C8.13505 1.98943 8.47548 2.66178 8.81591 3.33766C9.13842 3.97833 9.45735 4.61548 9.77627 5.25263Z" fill="#198FD2"/>
<path d="M4.90119 5.24902C5.7003 6.33323 6.503 7.41393 7.30211 8.50166C7.24119 8.53334 7.20177 8.5087 7.16236 8.49462C6.14824 8.17076 5.13412 7.84339 4.12 7.51953C3.77598 7.41041 3.43197 7.30128 3.08796 7.19216C3.04137 7.17807 2.99479 7.16751 2.9482 7.16751C2.91954 7.14991 2.89087 7.12879 2.8622 7.11119C2.85145 7.09007 2.82995 7.08303 2.80487 7.08303C2.80487 7.04783 2.78695 7.01967 2.76186 6.99855C2.46085 6.75918 2.20643 6.47404 1.93408 6.20651C1.79433 6.07274 1.66174 5.9249 1.74416 5.70313C1.97709 5.64328 2.22076 5.62568 2.46085 5.59048C3.02346 5.506 3.58606 5.42503 4.15225 5.34759C4.39951 5.31239 4.65035 5.28423 4.90119 5.24902Z" fill="#198FD2"/>
<path d="M2.86886 7.11161C2.89753 7.12921 2.9262 7.15033 2.95486 7.16793C3.25229 7.47771 3.55689 7.77692 3.87581 8.06558C4.21266 8.37535 4.53517 8.69921 4.85768 9.02658C4.93294 9.10051 5.05477 9.12867 5.07986 9.25187C5.07986 9.26243 5.07986 9.26947 5.07986 9.28003C5.04402 9.28708 5.0046 9.29412 4.96877 9.30468C4.50292 9.45252 4.04065 9.60037 3.5748 9.75174C3.5103 9.77286 3.44938 9.79398 3.3813 9.79398C3.31321 9.73414 3.24512 9.67781 3.18062 9.61797C2.17725 8.65697 1.17747 7.69596 0.177681 6.73495C0.0235924 6.58711 -0.0444934 6.41814 0.0307593 6.21045C0.872873 6.47798 1.7114 6.74551 2.55352 7.01305C2.63952 7.04121 2.72194 7.08345 2.81153 7.08345C2.82228 7.10457 2.84378 7.11161 2.86886 7.11161Z" fill="#55BCF6"/>
<path d="M3.37814 9.79031C3.44622 9.79383 3.50714 9.76919 3.57164 9.74807C4.03749 9.60022 4.49976 9.44886 4.96561 9.30101C5.00144 9.29045 5.03728 9.28341 5.0767 9.27637C5.11611 9.30805 5.10895 9.35381 5.10178 9.39253C5.02294 9.83959 4.94052 10.2902 4.86169 10.7372C4.77927 11.2089 4.70043 11.6806 4.61801 12.1523C4.6216 12.1911 4.60368 12.2263 4.58576 12.2615C4.55351 12.2755 4.53918 12.3072 4.52126 12.3319C3.97299 13.0746 3.42472 13.8139 2.87645 14.5566C2.85137 14.5918 2.82987 14.627 2.7797 14.627C2.56469 14.451 2.60411 14.2257 2.64711 14.0004C2.74028 13.4759 2.83345 12.9514 2.92662 12.4269C3.01979 11.9024 3.11296 11.3779 3.20255 10.8534C3.26705 10.5049 3.3208 10.1494 3.37814 9.79031Z" fill="#198FD2"/>
<path d="M2.77734 14.6336C2.82751 14.6336 2.84901 14.5984 2.8741 14.5632C3.42237 13.8205 3.97064 13.0812 4.51891 12.3385C4.53682 12.3103 4.55116 12.2821 4.58341 12.2681C4.56549 12.5356 4.49382 12.7961 4.4544 13.0601C4.42574 13.2467 4.38632 13.4332 4.35765 13.6198C4.33257 13.7958 4.36123 13.9648 4.49741 14.095C4.11039 14.2992 3.72696 14.5104 3.33278 14.7005C3.14644 14.7955 2.94577 14.7955 2.77734 14.6336Z" fill="#55BCF6"/>
<path d="M2.81202 7.08303C2.71885 7.07951 2.63643 7.03727 2.55401 7.01263C1.71189 6.74509 0.873364 6.47756 0.03125 6.21003C0.0742515 6.05162 0.181755 5.93898 0.335844 5.90729C0.805278 5.81577 1.27471 5.74889 1.75131 5.70312C1.66531 5.9249 1.80148 6.06922 1.94124 6.20651C2.21358 6.47404 2.468 6.75917 2.76902 6.99855C2.7941 7.01967 2.81202 7.04783 2.81202 7.08303Z" fill="#198FD2"/>
<path d="M4.62109 12.1559C4.69993 11.6842 4.78235 11.2125 4.86477 10.7408C4.94361 10.2938 5.02602 9.84318 5.10486 9.39612C5.11203 9.3574 5.1192 9.31163 5.07978 9.27995C5.07978 9.26939 5.07978 9.26235 5.07978 9.25179C5.14428 9.26235 5.20161 9.23771 5.25895 9.21659C5.88606 9.01594 6.51316 8.81177 7.14385 8.6076C7.18327 8.59704 7.22985 8.55128 7.2621 8.59C7.30152 8.63928 7.23702 8.67448 7.21552 8.70616C6.72817 9.36796 6.24082 10.0297 5.74988 10.688C5.41304 11.1421 5.07978 11.5927 4.74651 12.0468C4.71068 12.0961 4.6856 12.1489 4.62109 12.1559Z" fill="#198FD2"/>
<path d="M2.86669 7.11155C2.84128 7.11155 2.82312 7.10441 2.80859 7.08301C2.83038 7.08301 2.85217 7.09014 2.86669 7.11155Z" fill="#F38B19"/>
</svg>
