<svg width="42" height="39" viewBox="0 0 42 39" fill="none" xmlns="http://www.w3.org/2000/svg">
<path d="M9 16.1128C9.14393 15.6589 9.37903 15.2581 9.85401 15.1229C10.2282 15.0214 10.6217 14.9973 11.0103 14.9587C13.0205 14.7703 15.0308 14.5917 17.0411 14.413C17.2042 14.3985 17.2858 14.3357 17.3529 14.1812C18.2309 12.0902 19.1233 10.0089 20.0061 7.91793C20.1836 7.49297 20.4571 7.17909 20.9033 7.05353C21.5606 6.8652 22.1939 7.18392 22.4818 7.85032C23.0815 9.25557 23.6764 10.6657 24.2762 12.0757C24.5784 12.7856 24.8807 13.4906 25.1733 14.2005C25.2309 14.3357 25.3029 14.3985 25.4468 14.413C26.9245 14.5434 28.4023 14.6786 29.88 14.809C30.6908 14.8814 31.5016 14.9587 32.3124 15.0359C32.8786 15.089 33.272 15.3933 33.4495 15.9293C33.6318 16.4895 33.4735 16.9772 33.0369 17.3635C31.3433 18.8654 29.6449 20.3624 27.9417 21.8545C27.7881 21.9897 27.7306 22.1056 27.7785 22.3181C28.2871 24.5298 28.7861 26.7415 29.285 28.958C29.4146 29.5375 29.2802 30.0349 28.7957 30.3923C28.3111 30.7448 27.8025 30.7303 27.294 30.4212C25.3557 29.2574 23.4221 28.0936 21.4886 26.9202C21.3255 26.8188 21.2056 26.8188 21.0424 26.9202C19.1185 28.0888 17.185 29.2478 15.2563 30.4067C14.6038 30.7979 13.8985 30.6965 13.4715 30.1508C13.2029 29.8031 13.1357 29.412 13.2316 28.9918C13.7306 26.7801 14.2296 24.5636 14.7382 22.3519C14.7909 22.125 14.7477 21.9946 14.575 21.8449C12.8814 20.3672 11.2022 18.8702 9.51336 17.3877C9.26388 17.1704 9.11994 16.8951 9.0096 16.5909C9 16.4315 9 16.2722 9 16.1128Z" fill="white"/>
</svg>
