<svg width="35" height="36" viewBox="0 0 35 36" fill="none" xmlns="http://www.w3.org/2000/svg">
<path d="M30.9769 7.85786C30.9449 7.97504 30.9342 8.09223 30.8915 8.20941C29.77 11.5757 28.6379 14.942 27.5164 18.3083C27.431 18.564 27.3349 18.6598 27.0465 18.6598C20.5955 18.6492 14.1552 18.6492 7.70421 18.6598C7.42652 18.6598 7.31972 18.5746 7.23427 18.3189C6.11283 14.9527 4.99138 11.5864 3.86993 8.22006C3.83789 8.10288 3.84857 7.97504 3.83789 7.85786C3.95538 7.91113 4.09422 7.95374 4.19035 8.03896C6.31575 9.90321 8.44116 11.7675 10.5666 13.621C10.9724 13.9726 11.0686 13.9619 11.3676 13.5145C13.0978 10.9365 14.8174 8.35855 16.5369 5.76991C16.6865 5.5462 16.8253 5.41836 17.1137 5.53554C17.2418 5.58881 17.4234 5.58881 17.5516 5.5462C17.9147 5.40771 18.0856 5.58881 18.2779 5.87644C19.9654 8.42246 21.6636 10.9472 23.3511 13.4826C23.6822 13.9832 23.7676 13.9939 24.2055 13.6104C26.3095 11.7675 28.4136 9.91386 30.5176 8.07092C30.6244 7.97504 30.7312 7.88982 30.8381 7.8046C30.8915 7.81525 30.9342 7.83656 30.9769 7.85786Z" fill="white"/>
<path d="M17.3793 18.9782C20.765 18.9782 24.1613 18.9782 27.547 18.9782C28.5083 18.9782 29.1384 19.8198 28.8287 20.672C28.6471 21.1834 28.2626 21.4604 27.7286 21.5243C27.6111 21.5349 27.4936 21.5349 27.3655 21.5349C20.7009 21.5349 14.047 21.5349 7.38236 21.5349C7.2008 21.5349 7.00855 21.5349 6.82698 21.4923C6.19684 21.3432 5.7803 20.7573 5.84438 20.1288C5.90846 19.5002 6.4318 18.9996 7.08331 18.9889C8.08727 18.9676 9.08055 18.9782 10.0845 18.9782C12.5197 18.9782 14.9441 18.9782 17.3793 18.9782Z" fill="white"/>
<path d="M23.1277 31.1124C23.1277 31.8262 23.1277 32.4866 23.1277 33.1471C23.1277 33.7756 22.9034 33.9887 22.2839 33.9887C21.9422 33.9887 21.5897 33.9993 21.2479 33.9887C20.8207 33.978 20.5751 33.7437 20.5751 33.3176C20.5644 30.2495 20.5751 27.1709 20.5751 24.1029C20.5751 23.73 20.7887 23.4637 21.1518 23.4637C22.5937 23.4637 24.0462 23.3785 25.4667 23.5489C27.4319 23.7726 28.7456 25.6156 28.5961 27.6609C28.4679 29.4932 26.8338 31.0379 24.954 31.1124C24.3666 31.1337 23.7792 31.1124 23.1277 31.1124ZM23.149 28.5664C23.3306 28.5664 23.4908 28.5664 23.6403 28.5664C24.0569 28.5664 24.4627 28.5877 24.8793 28.5557C25.5094 28.5025 26.0007 27.9379 26.0114 27.3094C26.0221 26.6915 25.5415 26.0949 24.9113 26.0417C24.3346 25.9884 23.7472 26.031 23.149 26.031C23.149 26.8619 23.149 27.6822 23.149 28.5664Z" fill="white"/>
<path d="M10.0425 30.091C10.4698 28.0776 10.8863 26.1601 11.2815 24.2532C11.431 23.5608 11.5592 23.4543 12.2854 23.4543C12.5952 23.4543 12.9049 23.4436 13.204 23.4543C13.7166 23.4649 14.005 23.8058 13.8768 24.2959C13.0758 27.3532 12.2641 30.4106 11.4524 33.4679C11.3562 33.8195 11.1106 33.9899 10.7475 33.9899C10.3096 33.9899 9.87165 33.9899 9.42308 33.9899C8.88905 33.9899 8.70749 33.8514 8.57932 33.3401C7.85305 30.613 7.13746 27.8965 6.41119 25.1694C6.33643 24.8711 6.2403 24.5835 6.17622 24.2852C6.0801 23.7952 6.33643 23.4756 6.82773 23.4543C7.20154 23.4436 7.57536 23.4436 7.94917 23.4543C8.42979 23.4543 8.63272 23.6141 8.72885 24.0828C9.12402 25.9364 9.5192 27.8006 9.92506 29.6649C9.94642 29.7714 9.98914 29.8779 10.0425 30.091Z" fill="white"/>
<path d="M16.0781 28.7155C16.0781 27.2347 16.0781 25.7646 16.0781 24.2839C16.0781 23.6554 16.2811 23.453 16.9219 23.453C17.253 23.453 17.5841 23.4423 17.9258 23.453C18.3744 23.4636 18.6094 23.698 18.6414 24.1454C18.6521 24.2732 18.6414 24.4117 18.6414 24.5396C18.6414 27.3732 18.6414 30.2069 18.6414 33.0512C18.6414 33.8182 18.4599 33.9993 17.7016 33.9993C17.4345 33.9993 17.1675 33.9993 16.9005 33.9993C16.2917 33.9993 16.0781 33.7969 16.0781 33.1897C16.0781 31.6983 16.0781 30.2069 16.0781 28.7155Z" fill="white"/>
<path d="M23.8533 13.0551C23.3833 12.3413 22.9241 11.6809 22.4862 10.9991C22.4435 10.9245 22.4541 10.7647 22.4969 10.6902C22.8814 10.0829 23.2872 9.49704 23.6824 8.91113C23.9387 8.9644 24.1737 9.06027 24.398 9.06027C24.633 9.06027 24.8679 8.97505 25.1777 8.92179C25.5728 9.50769 26 10.1469 26.4379 10.7967C25.5728 11.5424 24.7291 12.2881 23.8533 13.0551Z" fill="white"/>
<path d="M10.9089 13.0556C10.0224 12.278 9.18933 11.5429 8.32422 10.7866C8.75144 10.1474 9.16797 9.51888 9.53111 8.97559C10.0758 8.97559 10.5564 8.97559 11.1225 8.97559C11.475 9.49757 11.8915 10.1048 12.2867 10.7333C12.3294 10.7972 12.308 10.9464 12.2546 11.0103C11.8274 11.6814 11.3788 12.3419 10.9089 13.0556Z" fill="white"/>
<path d="M18.3317 3.93764C18.3424 4.45963 17.9045 4.90705 17.3812 4.90705C16.8578 4.90705 16.4199 4.47029 16.4199 3.9483C16.4199 3.43696 16.8471 3.01085 17.3598 3.0002C17.8831 2.98954 18.3317 3.41565 18.3317 3.93764Z" fill="white"/>
<path d="M2.97212 5.55585C3.49546 5.56651 3.93336 6.01393 3.912 6.53592C3.90132 7.0579 3.44206 7.48402 2.91872 7.46271C2.40606 7.44141 1.98952 7.00464 2.0002 6.50396C2.0002 5.98197 2.44878 5.5452 2.97212 5.55585Z" fill="white"/>
<path d="M31.7972 7.46458C31.2738 7.46458 30.8359 7.01716 30.8359 6.49517C30.8466 5.98383 31.2632 5.55772 31.7758 5.54707C32.2992 5.53641 32.7477 5.97318 32.7477 6.49517C32.7584 7.02781 32.3205 7.46458 31.7972 7.46458Z" fill="white"/>
<path d="M10.9597 7.82573C10.9383 8.16662 10.6393 8.4436 10.2868 8.43295C9.94504 8.41164 9.66735 8.11336 9.67803 7.76182C9.69939 7.41027 9.99845 7.14395 10.3509 7.15461C10.7034 7.17591 10.981 7.47419 10.9597 7.82573Z" fill="white"/>
<path d="M24.4173 8.42227C24.0648 8.42227 23.7871 8.12399 23.7871 7.7831C23.7871 7.43156 24.0755 7.14393 24.4279 7.15458C24.7804 7.15458 25.0688 7.45286 25.0581 7.79375C25.0581 8.1453 24.7697 8.43292 24.4173 8.42227Z" fill="white"/>
</svg>
