<svg width="103" height="107" viewBox="0 0 103 107" fill="none" xmlns="http://www.w3.org/2000/svg">
<path d="M8.17101 102C6.97872 101.232 6.79685 100.788 7.1808 99.4133C11.1416 84.5602 15.1025 69.7071 19.0431 54.854C19.1239 54.571 19.1846 54.3083 19.2654 54.0254C19.3866 53.6617 19.326 53.4596 18.9218 53.3181C17.3052 52.7523 16.6383 51.56 16.6585 49.8827C16.6989 47.9629 16.6585 46.0229 16.6585 44.1031C16.6787 41.8398 17.9114 40.5869 20.1748 40.5869C26.7425 40.5667 33.3102 40.5667 39.8779 40.6071C40.7064 40.6071 40.9893 40.4252 40.9287 39.5563C40.8479 38.4246 40.9085 37.2929 40.9085 36.141C40.9085 34.6658 41.4339 34.1404 42.8889 34.1202C44.2833 34.1 44.1418 34.2415 44.1418 32.8269C44.1418 24.299 44.1418 15.7913 44.1418 7.26333C44.1418 5.50521 44.6471 5 46.385 5C49.2343 5 52.0635 5 54.9129 5C56.5093 5 57.055 5.54562 57.055 7.16229C57.055 15.771 57.0752 24.4 57.0348 33.0088C57.0348 33.8373 57.2166 34.1606 58.1058 34.1404C59.8033 34.0798 60.2681 34.6052 60.2681 36.3431C60.2681 37.4546 60.3085 38.5458 60.2479 39.6573C60.2075 40.4252 60.45 40.6071 61.1977 40.6071C67.6643 40.5869 74.131 40.5869 80.6179 40.5869C81.1231 40.5869 81.6283 40.5869 82.1133 40.6879C83.4471 40.991 84.4575 42.1631 84.4777 43.5373C84.5181 45.8815 84.5181 48.2054 84.4777 50.5496C84.4575 51.7419 83.7906 52.6917 82.6791 53.116C81.9314 53.4192 81.8102 53.7223 82.0123 54.4902C85.6498 68.05 89.2671 81.63 92.8843 95.21C93.2481 96.6044 93.6321 98.019 93.9958 99.4133C94.3596 100.808 94.1777 101.252 93.0056 102C90.5402 102 88.0748 102 85.6093 102C84.9829 101.596 84.6191 101.01 84.3564 100.323C83.9118 99.1506 83.4268 97.9988 82.8812 96.665C82.3356 98.019 81.8708 99.191 81.4262 100.363C81.1635 101.07 80.7795 101.636 80.1127 102C77.6473 102 75.1818 102 72.7164 102C72.0496 101.636 71.6858 101.05 71.4231 100.343C70.9785 99.1708 70.4935 97.9988 69.9681 96.6448C69.4225 97.9988 68.9375 99.1304 68.5131 100.303C68.2504 101.01 67.8866 101.576 67.24 101.98C64.7746 101.98 62.3091 101.98 59.8437 101.98C59.1768 101.656 58.8131 101.131 58.5504 100.444C58.1058 99.2517 57.6006 98.0594 57.0146 96.6448C56.4285 98.0998 55.9435 99.2921 55.4787 100.484C55.216 101.151 54.8321 101.697 54.145 101.98C51.7402 101.98 49.3556 101.98 46.9508 101.98C46.2637 101.697 45.8798 101.171 45.6171 100.484C45.1523 99.2719 44.6471 98.0796 44.0812 96.6448C43.5154 98.0796 43.0102 99.2517 42.5656 100.444C42.3029 101.131 41.9391 101.656 41.2723 101.98C38.8068 101.98 36.3414 101.98 33.876 101.98C33.2293 101.576 32.8656 101.01 32.6029 100.303C32.1583 99.1304 31.6733 97.9583 31.1277 96.6448C30.5821 97.9988 30.1173 99.1506 29.6727 100.323C29.41 101.03 29.026 101.596 28.3793 101.98C25.9139 101.98 23.4485 101.98 20.9831 101.98C20.3162 101.616 19.9323 101.03 19.6696 100.343C19.225 99.1708 18.74 97.9988 18.1943 96.6448C17.6487 97.9785 17.1637 99.1304 16.7393 100.303C16.4766 100.99 16.1129 101.576 15.4864 101.98C13.1018 102 10.6364 102 8.17101 102ZM50.6085 53.5C41.636 53.5 32.6837 53.5 23.7112 53.4798C22.9837 53.4798 22.7008 53.6617 22.4987 54.4094C18.8006 68.4138 15.0621 82.3979 11.3235 96.4023C10.6364 98.9687 10.7779 99.1102 13.5262 98.7667C13.8091 98.7263 13.9708 98.6454 14.0921 98.3625C15.0216 95.9577 16.1937 93.6338 16.8808 91.1279C17.9518 87.1873 18.9016 83.186 19.8918 79.2252C20.195 78.0329 21.0033 77.4873 21.9935 77.75C22.8423 77.9925 23.2868 78.9221 23.0241 79.9729C22.3371 82.7617 21.7712 85.5706 20.9023 88.2988C20.0737 90.8854 19.9525 93.2902 21.3873 95.6748C21.7914 96.3417 22.0137 97.1298 22.2562 97.8775C22.4785 98.5646 22.8625 98.8071 23.59 98.7465C24.2771 98.6858 24.9843 98.6656 25.6714 98.7465C26.6414 98.8677 27.0658 98.4838 27.3689 97.5946C28.0964 95.4525 29.2887 93.4519 29.7131 91.229C30.1375 89.0465 30.2789 86.8033 30.5618 84.5804C30.7841 82.7415 30.9862 80.8823 31.3096 79.0635C31.4712 78.134 32.32 77.6288 33.1081 77.7702C33.9568 77.9319 34.5833 78.7402 34.4621 79.6496C34.0781 82.7617 33.6941 85.894 33.2496 89.006C32.9868 90.8854 32.8656 92.684 33.8558 94.4219C34.26 95.1494 34.5025 95.9981 34.8056 96.7863C35.5735 98.7263 35.5735 98.7262 37.6348 98.7262C39.8375 98.7262 39.7364 98.6858 40.6862 96.665C42.121 93.6338 42.7879 90.5217 42.5454 87.1671C42.3837 84.8027 42.505 82.4383 42.505 80.074C42.505 79.791 42.505 79.5081 42.5454 79.2252C42.7273 78.2552 43.4548 77.649 44.3035 77.7298C45.1725 77.8106 45.7181 78.4169 45.7181 79.4273C45.7383 83.2871 45.7383 87.1267 45.7181 90.9865C45.7181 91.4715 45.7585 91.9362 45.9404 92.3808C46.7083 94.2804 47.4762 96.18 48.2239 98.0998C48.4058 98.5848 48.6887 98.7869 49.2141 98.7667C50.1235 98.7263 51.0531 98.7263 51.9625 98.7667C52.5687 98.8071 52.8718 98.5848 53.0739 98.019C53.6398 96.5235 54.2056 95.0079 54.8523 93.5327C55.3373 92.401 55.5393 91.2694 55.5393 90.0569C55.4989 86.5608 55.5191 83.0446 55.5191 79.5485C55.5191 78.4169 56.1052 77.7702 57.0348 77.75C57.9239 77.7298 58.611 78.3967 58.7323 79.4273C58.7525 79.6698 58.7525 79.9325 58.7525 80.175C58.7525 83.8731 58.7525 87.5712 58.7525 91.2492C58.7525 91.7342 58.7929 92.1788 58.9748 92.6435C59.7023 94.4623 60.45 96.2608 61.1573 98.0796C61.3391 98.5646 61.5816 98.7667 62.1273 98.7465C63.077 98.706 64.0268 98.706 64.9766 98.7465C65.5627 98.7869 65.8052 98.5444 66.0073 98.019C66.6135 96.4225 67.2198 94.8462 67.9068 93.2902C68.2706 92.4819 68.3716 91.6735 68.2706 90.8046C67.826 87.2075 67.3814 83.6306 66.9166 80.0335C66.755 78.7402 67.24 77.8915 68.2908 77.75C69.18 77.6288 69.9883 78.3563 70.1298 79.5081C70.4127 81.731 70.6754 83.9338 70.9381 86.1567C71.3018 89.4102 71.6454 92.6638 73.1812 95.6546C73.6864 96.6246 73.7066 98.0796 74.5554 98.5646C75.4041 99.0496 76.6975 98.6656 77.8089 98.7262C78.4556 98.7667 78.7789 98.5444 79.0012 97.9583C79.6883 96.1598 80.3956 94.3815 81.1433 92.6031C81.2848 92.2596 81.2848 91.9565 81.1837 91.6129C80.82 90.2388 80.4764 88.8646 80.1329 87.4904C79.5064 84.9846 78.88 82.4788 78.2535 79.9729C77.9908 78.9221 78.4354 78.0733 79.365 77.7904C80.1935 77.5479 81.0018 78.0733 81.3454 79.104C81.4262 79.3465 81.4666 79.589 81.5475 79.8315C83.0833 85.4494 84.0129 91.229 86.4379 96.5842C87.4079 98.7263 87.3068 98.7262 89.6106 98.7465C90.4795 98.7465 90.52 98.4635 90.3381 97.736C86.4581 83.2871 82.5983 68.8381 78.7587 54.3892C78.5566 53.601 78.2131 53.4394 77.4654 53.4394C68.4727 53.5 59.5406 53.5 50.6085 53.5ZM50.5075 50.2667C51.336 50.2667 52.1443 50.2667 52.9729 50.2667C62.0868 50.2667 71.221 50.2465 80.335 50.2869C81.1231 50.2869 81.3454 50.0848 81.3252 49.2967C81.2645 47.8417 81.2443 46.3867 81.3252 44.9519C81.3656 44.0425 81.1231 43.8 80.1935 43.8C60.4702 43.8202 40.7468 43.8202 21.0033 43.8202C20.8416 43.8202 20.68 43.8404 20.5385 43.8202C20.0333 43.7596 19.8918 43.9819 19.8918 44.4669C19.9121 46.0431 19.9525 47.6194 19.8716 49.1956C19.8312 50.0444 20.0535 50.2869 20.9427 50.2869C30.8043 50.2667 40.6458 50.2667 50.5075 50.2667ZM53.8216 21.3081C53.8216 17.2462 53.8014 13.1642 53.8418 9.10229C53.8418 8.47583 53.7206 8.19292 53.0133 8.21312C51.3966 8.25354 49.8002 8.25354 48.1835 8.21312C47.4762 8.19292 47.355 8.47583 47.355 9.10229C47.3752 17.1856 47.3752 25.2487 47.355 33.3321C47.355 34.0192 47.5773 34.1808 48.2239 34.1606C49.7396 34.1202 51.2552 34.1 52.7708 34.1606C53.5791 34.201 53.8418 33.999 53.8418 33.13C53.8014 29.1894 53.8216 25.2487 53.8216 21.3081ZM50.6085 40.5869C52.0029 40.5869 53.3771 40.5869 54.7714 40.5869C57.0954 40.5869 57.055 40.5869 57.0752 38.2629C57.0954 37.4546 56.7721 37.3333 56.085 37.3535C52.9123 37.3738 49.7193 37.3737 46.5466 37.3737C44.1014 37.3737 44.1418 37.3737 44.1418 39.7987C44.1418 40.506 44.4248 40.6273 45.031 40.6071C46.8902 40.5667 48.7493 40.5869 50.6085 40.5869Z" fill="#ED2D21"/>
<path d="M50.6088 53.4997C59.5409 53.4997 68.473 53.4997 77.405 53.4795C78.1527 53.4795 78.4761 53.6412 78.6984 54.4293C82.5177 68.8782 86.3977 83.3272 90.2777 97.7762C90.4798 98.5037 90.4192 98.7866 89.5502 98.7866C87.2465 98.7664 87.3475 98.7664 86.3775 96.6243C83.9525 91.2691 83.0027 85.4895 81.4871 79.8716C81.4265 79.6291 81.3659 79.3866 81.285 79.1441C80.9415 78.1135 80.1332 77.588 79.3046 77.8305C78.375 78.1135 77.9304 78.9622 78.1932 80.013C78.7994 82.5189 79.4461 85.0247 80.0725 87.5305C80.4161 88.9047 80.7596 90.2789 81.1234 91.653C81.2244 91.9966 81.2244 92.2997 81.083 92.6432C80.3555 94.4216 79.628 96.1999 78.9409 97.9985C78.7186 98.6047 78.3952 98.8068 77.7486 98.7664C76.6573 98.7057 75.3438 99.0695 74.495 98.6047C73.6463 98.1197 73.6261 96.6647 73.1209 95.6947C71.585 92.7039 71.2415 89.4503 70.8777 86.1968C70.6352 83.9739 70.3725 81.751 70.0694 79.5482C69.928 78.3964 69.1196 77.6689 68.2305 77.7901C67.1998 77.9316 66.6946 78.7601 66.8563 80.0737C67.3009 83.6707 67.7455 87.2476 68.2102 90.8447C68.3113 91.7137 68.2102 92.522 67.8465 93.3303C67.1594 94.8864 66.5532 96.4828 65.9469 98.0591C65.7448 98.5643 65.5023 98.8068 64.9163 98.7866C63.9665 98.726 63.0167 98.7462 62.0669 98.7866C61.5415 98.8068 61.299 98.6047 61.0969 98.1197C60.4098 96.3009 59.6621 94.4822 58.9144 92.6837C58.7325 92.2391 58.6921 91.7743 58.6921 91.2893C58.6921 87.5912 58.6921 83.893 58.6921 80.2151C58.6921 79.9726 58.7123 79.7099 58.6719 79.4674C58.5507 78.4368 57.8636 77.7497 56.9744 77.7901C56.0448 77.8103 55.4588 78.4772 55.4588 79.5887C55.4386 83.0847 55.4184 86.601 55.479 90.097C55.4992 91.3297 55.2971 92.4614 54.7919 93.5728C54.1452 95.048 53.5794 96.5435 53.0136 98.0591C52.8115 98.6249 52.5084 98.8472 51.9021 98.8068C50.9927 98.7664 50.0632 98.7664 49.1538 98.8068C48.6284 98.827 48.3455 98.6249 48.1636 98.1399C47.4159 96.2403 46.648 94.3407 45.88 92.421C45.6982 91.9764 45.6577 91.5116 45.6577 91.0266C45.6577 87.1668 45.678 83.3272 45.6577 79.4674C45.6577 78.457 45.1121 77.8305 44.2432 77.7699C43.3742 77.6891 42.6467 78.2953 42.485 79.2653C42.4446 79.5482 42.4446 79.8312 42.4446 80.1141C42.4446 82.4785 42.3032 84.863 42.485 87.2072C42.7275 90.582 42.0607 93.6941 40.6259 96.7051C39.6761 98.7259 39.7771 98.7664 37.5744 98.7664C35.5132 98.7664 35.5132 98.7664 34.7452 96.8264C34.4219 96.0382 34.1996 95.1895 33.7955 94.462C32.8255 92.7241 32.9265 90.9255 33.1892 89.0462C33.6338 85.9341 34.0177 82.8018 34.4017 79.6897C34.523 78.7803 33.8965 77.972 33.0477 77.8103C32.2596 77.6487 31.4109 78.1741 31.2492 79.1037C30.9461 80.9224 30.744 82.7816 30.5015 84.6205C30.2186 86.8435 30.0771 89.0866 29.6527 91.2691C29.2284 93.5122 28.0361 95.4926 27.3086 97.6347C27.0055 98.5239 26.5811 98.9078 25.6111 98.7866C24.924 98.6855 24.2167 98.726 23.5296 98.7866C22.8223 98.8472 22.4182 98.6047 22.1959 97.9176C21.9534 97.1699 21.7311 96.3818 21.3269 95.7149C19.8921 93.3101 20.0134 90.9255 20.8419 88.3389C21.7109 85.6107 22.2767 82.8018 22.9638 80.013C23.2265 78.942 22.7819 78.0124 21.9332 77.7901C20.943 77.5072 20.1346 78.0528 19.8315 79.2653C18.8211 83.2262 17.8915 87.2274 16.8205 91.168C16.1334 93.6537 14.9613 95.9776 14.0317 98.4026C13.9307 98.6855 13.7488 98.7664 13.4659 98.8068C10.7175 99.1503 10.5761 99.0089 11.2632 96.4222C15.0017 82.438 18.7402 68.4337 22.4384 54.4293C22.6405 53.6816 22.9234 53.4997 23.6509 53.4997C32.684 53.4997 41.6363 53.4997 50.6088 53.4997Z" fill="#FBB1AC"/>
<path d="M53.8221 21.3079C53.8221 25.2485 53.8019 29.1892 53.8423 33.1298C53.8626 33.9988 53.5796 34.2008 52.7713 34.1604C51.2557 34.0998 49.7401 34.12 48.2244 34.1604C47.5778 34.1806 47.3555 33.9988 47.3555 33.3319C47.3757 25.2485 47.3757 17.1854 47.3555 9.10209C47.3555 8.47563 47.4767 8.19271 48.184 8.21292C49.8007 8.25334 51.3971 8.25334 53.0138 8.21292C53.7211 8.19271 53.8423 8.47563 53.8423 9.10209C53.8221 13.164 53.8221 17.2258 53.8221 21.3079Z" fill="#FBB1AC"/>
<path d="M50.609 40.5888C48.7498 40.5888 46.8907 40.5686 45.0315 40.609C44.4252 40.6292 44.1423 40.508 44.1423 39.8007C44.1221 37.3757 44.1019 37.3757 46.5471 37.3757C49.74 37.3757 52.9127 37.3959 56.0855 37.3555C56.7725 37.3555 57.0959 37.4565 57.0757 38.2648C57.0555 40.5888 57.0757 40.5888 54.7719 40.5888C53.3775 40.5888 51.9832 40.5888 50.609 40.5888Z" fill="#FBB1AC"/>
</svg>
