<svg width="88" height="47" viewBox="0 0 88 47" fill="none" xmlns="http://www.w3.org/2000/svg">
<g clip-path="url(#clip0_1921_391)">
<path d="M78.3789 25.5693C78.2454 25.8362 78.0525 26.0513 77.8449 26.259C75.7461 28.2984 73.6474 30.3452 71.5486 32.3847C71.4967 32.4292 71.4448 32.4737 71.3929 32.5182C70.9479 32.4662 70.54 32.2808 70.1173 32.1474C68.3449 31.5837 66.5724 31.0053 64.8 30.4268C64.3105 30.2637 63.821 30.1005 63.25 29.9077C63.4132 29.8484 63.4947 29.8039 63.5837 29.7816C64.3031 29.5443 65.0299 29.3144 65.7492 29.0771C68.2485 28.2613 70.7551 27.453 73.2543 26.6372C74.9378 26.0884 76.6287 25.5322 78.3121 24.9834C78.3344 24.9834 78.3492 24.9834 78.3714 24.9834C78.3789 25.1762 78.3789 25.3765 78.3789 25.5693Z" fill="#F6AC16"/>
<path d="M78.323 24.9765C76.6395 25.5253 74.956 26.0815 73.2652 26.6303C70.7659 27.4461 68.2593 28.2544 65.7601 29.0702C65.0407 29.3075 64.3139 29.5374 63.5946 29.7747C63.5056 29.8044 63.4166 29.8415 63.2608 29.9008C63.8245 30.0936 64.3139 30.2568 64.8108 30.4199C66.5833 30.9984 68.3483 31.5843 70.1282 32.1405C70.5509 32.274 70.9588 32.4594 71.4037 32.5113C71.5076 33.1565 71.6114 33.8017 71.7152 34.4469C71.8784 35.4258 72.0489 36.4122 72.2195 37.3911C72.3901 38.37 72.5532 39.3564 72.7238 40.3353C72.8128 40.8322 72.924 41.3365 72.9759 41.8333C73.0204 42.2412 72.8721 42.5824 72.5087 42.8123C72.5161 42.7307 72.4791 42.6639 72.4272 42.5972C72.1305 42.2041 71.8487 41.8037 71.5595 41.4032C70.3432 39.7197 69.127 38.0437 67.9033 36.3602C66.3904 34.2763 64.8701 32.1924 63.3573 30.1085C63.3202 30.0566 63.2979 29.975 63.1941 30.0195C63.1941 32.845 63.1941 35.6705 63.1941 38.4961C61.7776 39.2451 60.3537 40.0016 58.9373 40.7432C58.4033 41.025 57.8619 41.2994 57.3205 41.5738C57.0387 41.292 56.9794 40.9434 57.0313 40.5726C57.0832 40.1795 57.1722 39.7865 57.2316 39.3934C57.3131 38.8372 57.4615 38.2884 57.4985 37.7248C57.543 37.6506 57.5727 37.5765 57.5653 37.4949C57.6988 37.4801 57.7507 37.3688 57.8174 37.2724C58.5071 36.3158 59.2042 35.3665 59.8939 34.4098C60.9025 33.0156 61.9185 31.6288 62.9271 30.2345C62.979 30.1678 63.1125 30.0936 63.0235 29.9898C62.9568 29.9082 62.853 30.0046 62.7788 30.0269C61.481 30.4496 60.1757 30.8797 58.8779 31.3099C58.7593 31.347 58.6406 31.4063 58.5071 31.384C58.4626 31.1245 58.2031 31.0651 58.0473 30.9094C57.3799 30.2271 56.7124 29.5374 56.0153 28.8848C55.3553 28.2767 54.7249 27.6463 54.1094 26.9937C54.2058 26.9937 54.3022 27.0085 54.3986 27.0456C55.1105 27.2755 55.8225 27.5054 56.5344 27.7353C58.6332 28.4176 60.732 29.1073 62.8307 29.7896C62.9123 29.8192 62.9939 29.8712 63.1199 29.8044C61.4587 27.5203 59.8049 25.2361 58.1512 22.9519C59.1152 21.0015 60.0719 19.0436 61.036 17.0932C61.4439 16.27 61.8444 15.4468 62.2523 14.6311C62.4451 14.2454 62.7269 13.9784 63.1941 14.0081C63.1941 19.2735 63.1941 24.5316 63.1941 29.797C63.2164 29.8044 63.2386 29.8118 63.2608 29.8267C64.9221 27.5425 66.5833 25.2509 68.2445 22.9668C69.0306 23.078 69.8241 23.1818 70.6102 23.3005C71.7671 23.4636 72.924 23.6342 74.0809 23.8048C75.2156 23.9679 76.3577 24.1237 77.4924 24.3017C77.8854 24.3462 78.2043 24.5538 78.323 24.9765Z" fill="#F1D322"/>
<path d="M63.1953 38.5031C63.1953 35.6776 63.1953 32.852 63.1953 30.0265C63.2991 29.982 63.3214 30.0636 63.3585 30.1155C64.8714 32.1994 66.3917 34.2833 67.9045 36.3673C69.1208 38.0507 70.3444 39.7268 71.5607 41.4102C71.8499 41.8107 72.1391 42.2111 72.4284 42.6042C72.4803 42.6709 72.5099 42.7377 72.5099 42.8193C72.1836 43.0121 71.8722 43.0418 71.5162 42.8638C69.0466 41.6104 66.6141 40.2904 64.1594 39.0148C63.8331 38.8517 63.5142 38.6737 63.1953 38.5031Z" fill="#F6AC16"/>
<path d="M68.2379 22.9592C66.5767 25.2434 64.9155 27.535 63.2542 29.8191C63.232 29.8117 63.2097 29.8043 63.1875 29.7894C63.1875 24.524 63.1875 19.266 63.1875 14.0006C63.6695 13.9857 63.9439 14.2675 64.1442 14.6606C64.8413 16.0845 65.5458 17.501 66.2504 18.9249C66.9178 20.2746 67.5778 21.6169 68.2379 22.9592Z" fill="#F6AC16"/>
<path d="M58.1487 22.9512C59.8025 25.2353 61.4637 27.5121 63.1175 29.8037C62.9914 29.8704 62.9098 29.8185 62.8282 29.7888C60.7295 29.1065 58.6307 28.4168 56.532 27.7346C55.82 27.5047 55.1081 27.2748 54.3961 27.0449C54.2997 27.0152 54.2033 26.9929 54.1069 26.9929C54.0476 26.9559 53.9882 26.9114 53.9289 26.8743C53.9067 26.8298 53.8622 26.815 53.8103 26.815C53.8103 26.7408 53.7732 26.6815 53.7213 26.637C53.0983 26.1327 52.5718 25.532 52.0081 24.9684C51.7189 24.6865 51.4445 24.3751 51.6151 23.9079C52.0971 23.7818 52.6014 23.7447 53.0983 23.6705C54.2626 23.4925 55.427 23.322 56.5987 23.1588C57.1104 23.0847 57.6295 23.0253 58.1487 22.9512Z" fill="#F6AC16"/>
<path d="M53.9372 26.8741C53.9965 26.9112 54.0559 26.9557 54.1152 26.9928C54.7307 27.6454 55.3611 28.2758 56.0211 28.8839C56.7183 29.5365 57.3857 30.2188 58.0532 30.9085C58.2089 31.0642 58.461 31.1235 58.5129 31.3831C58.5129 31.4053 58.5129 31.4202 58.5129 31.4424C58.4388 31.4573 58.3572 31.4721 58.283 31.4943C57.319 31.8058 56.3623 32.1173 55.3982 32.4362C55.2647 32.4807 55.1386 32.5252 54.9977 32.5252C54.8568 32.3991 54.7159 32.2804 54.5824 32.1544C52.5059 30.1298 50.4368 28.1052 48.3677 26.0806C48.0488 25.7691 47.9079 25.4131 48.0637 24.9756C49.8064 25.5392 51.5418 26.1028 53.2846 26.6665C53.4626 26.7258 53.6332 26.8148 53.8186 26.8148C53.8408 26.8593 53.8853 26.8741 53.9372 26.8741Z" fill="#EEB516"/>
<path d="M54.9891 32.5193C55.13 32.5267 55.2561 32.4748 55.3896 32.4303C56.3537 32.1188 57.3104 31.7999 58.2745 31.4884C58.3486 31.4662 58.4228 31.4514 58.5044 31.4365C58.586 31.5033 58.5711 31.5997 58.5563 31.6813C58.3931 32.6231 58.2226 33.5724 58.0594 34.5142C57.8888 35.508 57.7257 36.5017 57.5551 37.4955C57.5625 37.5771 57.5255 37.6512 57.4884 37.7254C57.4216 37.755 57.392 37.8218 57.3549 37.8737C56.2202 39.4385 55.0856 40.9959 53.9509 42.5607C53.899 42.6348 53.8545 42.709 53.7507 42.709C53.3057 42.3382 53.3873 41.8636 53.4763 41.3889C53.6691 40.2839 53.8619 39.1789 54.0547 38.0739C54.2475 36.9689 54.4404 35.8639 54.6258 34.7589C54.7592 34.0247 54.8705 33.2757 54.9891 32.5193Z" fill="#F38B19"/>
<path d="M53.75 42.7239C53.8538 42.7239 53.8983 42.6497 53.9502 42.5755C55.0849 41.0107 56.2196 39.4534 57.3542 37.8886C57.3913 37.8292 57.421 37.7699 57.4877 37.7402C57.4506 38.3039 57.3023 38.8527 57.2207 39.4089C57.1614 39.8019 57.0798 40.195 57.0205 40.588C56.9686 40.9588 57.0279 41.3148 57.3097 41.5892C56.5088 42.0193 55.7153 42.4643 54.8995 42.8648C54.5139 43.065 54.0986 43.065 53.75 42.7239Z" fill="#EEB616"/>
<path d="M53.8174 26.8143C53.6246 26.8069 53.454 26.7179 53.2834 26.666C51.5407 26.1024 49.8053 25.5388 48.0625 24.9751C48.1515 24.6414 48.374 24.4041 48.6929 24.3374C49.6644 24.1445 50.6359 24.0036 51.6222 23.9072C51.4442 24.3744 51.7261 24.6785 52.0153 24.9677C52.5789 25.5314 53.1055 26.1321 53.7284 26.6364C53.7803 26.6808 53.8174 26.7402 53.8174 26.8143Z" fill="#F38B19"/>
<path d="M57.5664 37.5018C57.7296 36.508 57.9001 35.5142 58.0707 34.5205C58.2339 33.5786 58.4044 32.6294 58.5676 31.6875C58.5824 31.606 58.5972 31.5095 58.5157 31.4428C58.5157 31.4206 58.5157 31.4057 58.5157 31.3835C58.6492 31.4057 58.7678 31.3538 58.8865 31.3093C60.1843 30.8792 61.4821 30.4565 62.7873 30.0263C62.8689 30.0041 62.9653 29.9077 63.0321 29.9892C63.1137 30.0931 62.9802 30.1672 62.9357 30.234C61.9271 31.6282 60.9185 33.0224 59.9025 34.4092C59.2054 35.3659 58.5157 36.3152 57.826 37.2719C57.7518 37.3757 57.6999 37.4869 57.5664 37.5018Z" fill="#F6AB16"/>
<path d="M53.939 26.8757C53.8871 26.8757 53.85 26.8609 53.8203 26.8164C53.8648 26.8164 53.9093 26.8312 53.939 26.8757Z" fill="#F38B19"/>
<path d="M61.999 8.3315C61.9375 8.45453 61.8486 8.55364 61.7529 8.64933C60.7858 9.58913 59.8186 10.5324 58.8515 11.4722C58.8276 11.4927 58.8036 11.5132 58.7797 11.5337C58.5747 11.5097 58.3867 11.4243 58.1919 11.3628C57.3751 11.1031 56.5584 10.8365 55.7416 10.5699C55.516 10.4948 55.2905 10.4196 55.0273 10.3307C55.1025 10.3034 55.1401 10.2829 55.1811 10.2726C55.5126 10.1633 55.8475 10.0573 56.179 9.94797C57.3307 9.57204 58.4858 9.19954 59.6375 8.82362C60.4133 8.57073 61.1925 8.31442 61.9682 8.06152C61.9785 8.06152 61.9853 8.06152 61.9956 8.06152C61.999 8.15038 61.999 8.24265 61.999 8.3315Z" fill="#F6AC16"/>
<path d="M61.9705 8.05938C61.1948 8.31227 60.419 8.56858 59.6398 8.82147C58.4881 9.1974 57.333 9.5699 56.1813 9.94582C55.8498 10.0552 55.5149 10.1611 55.1834 10.2705C55.1424 10.2842 55.1014 10.3012 55.0297 10.3286C55.2894 10.4174 55.5149 10.4926 55.7439 10.5678C56.5607 10.8344 57.374 11.1043 58.1942 11.3607C58.389 11.4222 58.577 11.5076 58.782 11.5315C58.8299 11.8288 58.8777 12.1262 58.9256 12.4235C59.0008 12.8746 59.0794 13.3291 59.158 13.7802C59.2366 14.2313 59.3117 14.6859 59.3903 15.137C59.4314 15.3659 59.4826 15.5983 59.5065 15.8273C59.527 16.0152 59.4587 16.1724 59.2912 16.2784C59.2947 16.2408 59.2776 16.21 59.2536 16.1793C59.1169 15.9982 58.9871 15.8136 58.8538 15.6291C58.2933 14.8533 57.7329 14.081 57.169 13.3052C56.4718 12.3449 55.7712 11.3846 55.0741 10.4243C55.057 10.4003 55.0467 10.3628 54.9989 10.3833C54.9989 11.6853 54.9989 12.9874 54.9989 14.2894C54.3462 14.6346 53.69 14.9832 53.0373 15.3249C52.7912 15.4548 52.5417 15.5812 52.2923 15.7077C52.1624 15.5778 52.1351 15.4172 52.159 15.2463C52.1829 15.0652 52.2239 14.8841 52.2513 14.7029C52.2888 14.4466 52.3572 14.1937 52.3743 13.934C52.3948 13.8998 52.4085 13.8657 52.405 13.8281C52.4666 13.8212 52.4905 13.77 52.5212 13.7255C52.8391 13.2847 53.1603 12.8473 53.4781 12.4064C53.9429 11.7639 54.4111 11.1248 54.8759 10.4824C54.8998 10.4516 54.9613 10.4174 54.9203 10.3696C54.8895 10.332 54.8417 10.3764 54.8075 10.3867C54.2095 10.5815 53.608 10.7797 53.0099 10.9779C52.9553 10.995 52.9006 11.0223 52.8391 11.0121C52.8186 10.8925 52.6989 10.8651 52.6272 10.7934C52.3196 10.4789 52.012 10.1611 51.6908 9.86038C51.3866 9.58015 51.0961 9.28967 50.8125 8.98893C50.8569 8.98893 50.9014 8.99576 50.9458 9.01285C51.2739 9.11879 51.6019 9.22474 51.93 9.33068C52.8972 9.64508 53.8643 9.96291 54.8314 10.2773C54.869 10.291 54.9066 10.3149 54.9647 10.2842C54.1992 9.23157 53.4371 8.17899 52.675 7.12641C53.1193 6.22761 53.5601 5.3254 54.0044 4.42661C54.1924 4.04727 54.3769 3.66793 54.5649 3.29201C54.6537 3.1143 54.7836 2.99127 54.9989 3.00494C54.9989 5.43134 54.9989 7.85433 54.9989 10.2807C55.0092 10.2842 55.0194 10.2876 55.0297 10.2944C55.7952 9.24182 56.5607 8.18582 57.3262 7.13324C57.6884 7.18451 58.0541 7.23235 58.4164 7.28703C58.9495 7.36221 59.4826 7.44082 60.0157 7.51942C60.5386 7.5946 61.0649 7.66637 61.5878 7.74839C61.7689 7.76889 61.9159 7.86458 61.9705 8.05938Z" fill="#F1D322"/>
<path d="M55 14.292C55 12.9899 55 11.6878 55 10.3858C55.0478 10.3653 55.0581 10.4029 55.0752 10.4268C55.7723 11.3871 56.4729 12.3474 57.1701 13.3077C57.7306 14.0835 58.2944 14.8558 58.8549 15.6316C58.9882 15.8161 59.1215 16.0007 59.2547 16.1818C59.2787 16.2126 59.2923 16.2433 59.2923 16.2809C59.142 16.3698 58.9984 16.3834 58.8344 16.3014C57.6964 15.7239 56.5755 15.1156 55.4443 14.5278C55.2939 14.4526 55.147 14.3706 55 14.292Z" fill="#F6AC16"/>
<path d="M57.3273 7.12856C56.5618 8.18114 55.7963 9.23714 55.0308 10.2897C55.0205 10.2863 55.0103 10.2829 55 10.276C55 7.84965 55 5.42666 55 3.00026C55.2221 2.99342 55.3486 3.12329 55.4409 3.30441C55.7621 3.96057 56.0868 4.6133 56.4114 5.26946C56.719 5.89144 57.0231 6.51 57.3273 7.12856Z" fill="#F6AC16"/>
<path d="M52.6796 7.12598C53.4417 8.17856 54.2072 9.22772 54.9693 10.2837C54.9112 10.3145 54.8736 10.2906 54.836 10.2769C53.8688 9.96248 52.9017 9.64465 51.9345 9.33024C51.6065 9.2243 51.2784 9.11836 50.9503 9.01242C50.9059 8.99875 50.8615 8.9885 50.817 8.9885C50.7897 8.97141 50.7624 8.95091 50.735 8.93382C50.7248 8.91331 50.7043 8.90648 50.6803 8.90648C50.6803 8.8723 50.6632 8.84496 50.6393 8.82446C50.3523 8.59207 50.1096 8.31526 49.8499 8.05553C49.7166 7.92566 49.5902 7.78213 49.6688 7.56683C49.8909 7.50873 50.1233 7.49165 50.3523 7.45747C50.8888 7.37545 51.4253 7.29685 51.9653 7.22167C52.2011 7.18749 52.4403 7.16015 52.6796 7.12598Z" fill="#F6AC16"/>
<path d="M50.736 8.93347C50.7633 8.95055 50.7906 8.97106 50.818 8.98815C51.1016 9.28888 51.3921 9.57937 51.6963 9.8596C52.0175 10.1603 52.3251 10.4747 52.6327 10.7926C52.7044 10.8643 52.8206 10.8917 52.8445 11.0113C52.8445 11.0215 52.8445 11.0284 52.8445 11.0386C52.8104 11.0455 52.7728 11.0523 52.7386 11.0625C52.2943 11.2061 51.8535 11.3496 51.4092 11.4966C51.3477 11.5171 51.2896 11.5376 51.2247 11.5376C51.1597 11.4795 51.0948 11.4248 51.0333 11.3667C50.0764 10.4337 49.1229 9.50077 48.1695 8.5678C48.0225 8.42426 47.9576 8.26022 48.0293 8.05859C48.8324 8.31832 49.6321 8.57805 50.4352 8.83778C50.5173 8.86512 50.5959 8.90613 50.6813 8.90613C50.6915 8.92663 50.712 8.93347 50.736 8.93347Z" fill="#EEB516"/>
<path d="M51.2216 11.5341C51.2865 11.5375 51.3446 11.5136 51.4062 11.4931C51.8504 11.3496 52.2913 11.2026 52.7356 11.0591C52.7697 11.0488 52.8039 11.042 52.8415 11.0352C52.8791 11.0659 52.8722 11.1103 52.8654 11.1479C52.7902 11.582 52.7116 12.0194 52.6364 12.4534C52.5578 12.9113 52.4827 13.3693 52.4041 13.8272C52.4075 13.8648 52.3904 13.899 52.3733 13.9332C52.3425 13.9468 52.3289 13.9776 52.3118 14.0015C51.7889 14.7226 51.266 15.4403 50.7432 16.1614C50.7192 16.1955 50.6987 16.2297 50.6509 16.2297C50.4458 16.0588 50.4834 15.8401 50.5244 15.6214C50.6133 15.1122 50.7022 14.603 50.791 14.0938C50.8799 13.5846 50.9687 13.0754 51.0542 12.5662C51.1157 12.2279 51.1669 11.8827 51.2216 11.5341Z" fill="#F38B19"/>
<path d="M50.6484 16.236C50.6963 16.236 50.7168 16.2018 50.7407 16.1676C51.2636 15.4466 51.7865 14.7289 52.3093 14.0078C52.3264 13.9805 52.3401 13.9531 52.3708 13.9395C52.3538 14.1992 52.2854 14.4521 52.2478 14.7084C52.2205 14.8895 52.1829 15.0706 52.1555 15.2518C52.1316 15.4226 52.159 15.5867 52.2888 15.7131C51.9197 15.9113 51.5541 16.1164 51.1781 16.3009C51.0004 16.3932 50.8091 16.3932 50.6484 16.236Z" fill="#EEB616"/>
<path d="M50.6832 8.90508C50.5944 8.90166 50.5157 8.86065 50.4371 8.83673C49.634 8.577 48.8344 8.31727 48.0312 8.05754C48.0723 7.90376 48.1748 7.7944 48.3217 7.76364C48.7694 7.67479 49.2171 7.60986 49.6716 7.56543C49.5896 7.78073 49.7195 7.92085 49.8528 8.05413C50.1125 8.31385 50.3551 8.59067 50.6422 8.82306C50.6661 8.84356 50.6832 8.8709 50.6832 8.90508Z" fill="#F38B19"/>
<path d="M52.4062 13.8303C52.4814 13.3723 52.56 12.9144 52.6386 12.4564C52.7138 12.0224 52.7924 11.585 52.8676 11.151C52.8744 11.1134 52.8813 11.0689 52.8437 11.0382C52.8437 11.0279 52.8437 11.0211 52.8437 11.0108C52.9052 11.0211 52.9599 10.9972 53.0146 10.9767C53.6126 10.7785 54.2107 10.5837 54.8121 10.3854C54.8497 10.3752 54.8942 10.3308 54.9249 10.3684C54.9625 10.4162 54.901 10.4504 54.8805 10.4811C54.4157 11.1236 53.9509 11.7661 53.4828 12.4052C53.1615 12.846 52.8437 13.2835 52.5259 13.7243C52.4917 13.7722 52.4678 13.8234 52.4062 13.8303Z" fill="#F6AB16"/>
<path d="M50.7344 8.93261C50.7104 8.93261 50.6934 8.92578 50.6797 8.90527C50.7002 8.90527 50.7207 8.91211 50.7344 8.93261Z" fill="#F38B19"/>
<path d="M39.999 8.3315C39.9375 8.45453 39.8486 8.55364 39.7529 8.64933C38.7858 9.58913 37.8186 10.5324 36.8515 11.4722C36.8276 11.4927 36.8036 11.5132 36.7797 11.5337C36.5747 11.5097 36.3867 11.4243 36.1919 11.3628C35.3751 11.1031 34.5584 10.8365 33.7416 10.5699C33.516 10.4948 33.2905 10.4196 33.0273 10.3307C33.1025 10.3034 33.1401 10.2829 33.1811 10.2726C33.5126 10.1633 33.8475 10.0573 34.179 9.94797C35.3307 9.57204 36.4858 9.19954 37.6375 8.82362C38.4133 8.57073 39.1925 8.31442 39.9682 8.06152C39.9785 8.06152 39.9853 8.06152 39.9956 8.06152C39.999 8.15038 39.999 8.24265 39.999 8.3315Z" fill="#F6AC16"/>
<path d="M39.9705 8.05938C39.1948 8.31227 38.419 8.56858 37.6398 8.82147C36.4881 9.1974 35.333 9.5699 34.1813 9.94582C33.8498 10.0552 33.5149 10.1611 33.1834 10.2705C33.1424 10.2842 33.1014 10.3012 33.0297 10.3286C33.2894 10.4174 33.5149 10.4926 33.7439 10.5678C34.5607 10.8344 35.374 11.1043 36.1942 11.3607C36.389 11.4222 36.577 11.5076 36.782 11.5315C36.8299 11.8288 36.8777 12.1262 36.9256 12.4235C37.0008 12.8746 37.0794 13.3291 37.158 13.7802C37.2366 14.2313 37.3117 14.6859 37.3903 15.137C37.4314 15.3659 37.4826 15.5983 37.5065 15.8273C37.527 16.0152 37.4587 16.1724 37.2912 16.2784C37.2947 16.2408 37.2776 16.21 37.2536 16.1793C37.1169 15.9982 36.9871 15.8136 36.8538 15.6291C36.2933 14.8533 35.7329 14.081 35.169 13.3052C34.4718 12.3449 33.7712 11.3846 33.0741 10.4243C33.057 10.4003 33.0467 10.3628 32.9989 10.3833C32.9989 11.6853 32.9989 12.9874 32.9989 14.2894C32.3462 14.6346 31.69 14.9832 31.0373 15.3249C30.7912 15.4548 30.5417 15.5812 30.2923 15.7077C30.1624 15.5778 30.1351 15.4172 30.159 15.2463C30.1829 15.0652 30.2239 14.8841 30.2513 14.7029C30.2888 14.4466 30.3572 14.1937 30.3743 13.934C30.3948 13.8998 30.4085 13.8657 30.405 13.8281C30.4666 13.8212 30.4905 13.77 30.5212 13.7255C30.8391 13.2847 31.1603 12.8473 31.4781 12.4064C31.9429 11.7639 32.4111 11.1248 32.8759 10.4824C32.8998 10.4516 32.9613 10.4174 32.9203 10.3696C32.8895 10.332 32.8417 10.3764 32.8075 10.3867C32.2095 10.5815 31.608 10.7797 31.0099 10.9779C30.9553 10.995 30.9006 11.0223 30.8391 11.0121C30.8186 10.8925 30.6989 10.8651 30.6272 10.7934C30.3196 10.4789 30.012 10.1611 29.6908 9.86038C29.3866 9.58015 29.0961 9.28967 28.8125 8.98893C28.8569 8.98893 28.9014 8.99576 28.9458 9.01285C29.2739 9.11879 29.6019 9.22474 29.93 9.33068C30.8972 9.64508 31.8643 9.96291 32.8314 10.2773C32.869 10.291 32.9066 10.3149 32.9647 10.2842C32.1992 9.23157 31.4371 8.17899 30.675 7.12641C31.1193 6.22761 31.5601 5.3254 32.0044 4.42661C32.1924 4.04727 32.3769 3.66793 32.5649 3.29201C32.6537 3.1143 32.7836 2.99127 32.9989 3.00494C32.9989 5.43134 32.9989 7.85433 32.9989 10.2807C33.0092 10.2842 33.0194 10.2876 33.0297 10.2944C33.7952 9.24182 34.5607 8.18582 35.3262 7.13324C35.6884 7.18451 36.0541 7.23235 36.4164 7.28703C36.9495 7.36221 37.4826 7.44082 38.0157 7.51942C38.5386 7.5946 39.0649 7.66637 39.5878 7.74839C39.7689 7.76889 39.9159 7.86458 39.9705 8.05938Z" fill="#F1D322"/>
<path d="M33 14.292C33 12.9899 33 11.6878 33 10.3858C33.0478 10.3653 33.0581 10.4029 33.0752 10.4268C33.7723 11.3871 34.4729 12.3474 35.1701 13.3077C35.7306 14.0835 36.2944 14.8558 36.8549 15.6316C36.9882 15.8161 37.1215 16.0007 37.2547 16.1818C37.2787 16.2126 37.2923 16.2433 37.2923 16.2809C37.142 16.3698 36.9984 16.3834 36.8344 16.3014C35.6964 15.7239 34.5755 15.1156 33.4443 14.5278C33.2939 14.4526 33.147 14.3706 33 14.292Z" fill="#F6AC16"/>
<path d="M35.3273 7.12856C34.5618 8.18114 33.7963 9.23714 33.0308 10.2897C33.0205 10.2863 33.0103 10.2829 33 10.276C33 7.84965 33 5.42666 33 3.00026C33.2221 2.99342 33.3486 3.12329 33.4409 3.30441C33.7621 3.96057 34.0868 4.6133 34.4114 5.26946C34.719 5.89144 35.0231 6.51 35.3273 7.12856Z" fill="#F6AC16"/>
<path d="M30.6796 7.12598C31.4417 8.17856 32.2072 9.22772 32.9693 10.2837C32.9112 10.3145 32.8736 10.2906 32.836 10.2769C31.8688 9.96248 30.9017 9.64465 29.9345 9.33024C29.6065 9.2243 29.2784 9.11836 28.9503 9.01242C28.9059 8.99875 28.8615 8.9885 28.817 8.9885C28.7897 8.97141 28.7624 8.95091 28.735 8.93382C28.7248 8.91331 28.7043 8.90648 28.6803 8.90648C28.6803 8.8723 28.6632 8.84496 28.6393 8.82446C28.3523 8.59207 28.1096 8.31526 27.8499 8.05553C27.7166 7.92566 27.5902 7.78213 27.6688 7.56683C27.8909 7.50873 28.1233 7.49165 28.3523 7.45747C28.8888 7.37545 29.4253 7.29685 29.9653 7.22167C30.2011 7.18749 30.4403 7.16015 30.6796 7.12598Z" fill="#F6AC16"/>
<path d="M28.736 8.93347C28.7633 8.95055 28.7906 8.97106 28.818 8.98815C29.1016 9.28888 29.3921 9.57937 29.6963 9.8596C30.0175 10.1603 30.3251 10.4747 30.6327 10.7926C30.7044 10.8643 30.8206 10.8917 30.8445 11.0113C30.8445 11.0215 30.8445 11.0284 30.8445 11.0386C30.8104 11.0455 30.7728 11.0523 30.7386 11.0625C30.2943 11.2061 29.8535 11.3496 29.4092 11.4966C29.3477 11.5171 29.2896 11.5376 29.2247 11.5376C29.1597 11.4795 29.0948 11.4248 29.0333 11.3667C28.0764 10.4337 27.1229 9.50077 26.1695 8.5678C26.0225 8.42426 25.9576 8.26022 26.0293 8.05859C26.8324 8.31832 27.6321 8.57805 28.4352 8.83778C28.5173 8.86512 28.5959 8.90613 28.6813 8.90613C28.6915 8.92663 28.712 8.93347 28.736 8.93347Z" fill="#EEB516"/>
<path d="M29.2216 11.5341C29.2865 11.5375 29.3446 11.5136 29.4062 11.4931C29.8504 11.3496 30.2913 11.2026 30.7356 11.0591C30.7697 11.0488 30.8039 11.042 30.8415 11.0352C30.8791 11.0659 30.8722 11.1103 30.8654 11.1479C30.7902 11.582 30.7116 12.0194 30.6364 12.4534C30.5578 12.9113 30.4827 13.3693 30.4041 13.8272C30.4075 13.8648 30.3904 13.899 30.3733 13.9332C30.3425 13.9468 30.3289 13.9776 30.3118 14.0015C29.7889 14.7226 29.266 15.4403 28.7432 16.1614C28.7192 16.1955 28.6987 16.2297 28.6509 16.2297C28.4458 16.0588 28.4834 15.8401 28.5244 15.6214C28.6133 15.1122 28.7022 14.603 28.791 14.0938C28.8799 13.5846 28.9687 13.0754 29.0542 12.5662C29.1157 12.2279 29.1669 11.8827 29.2216 11.5341Z" fill="#F38B19"/>
<path d="M28.6484 16.236C28.6963 16.236 28.7168 16.2018 28.7407 16.1676C29.2636 15.4466 29.7865 14.7289 30.3093 14.0078C30.3264 13.9805 30.3401 13.9531 30.3708 13.9395C30.3538 14.1992 30.2854 14.4521 30.2478 14.7084C30.2205 14.8895 30.1829 15.0706 30.1555 15.2518C30.1316 15.4226 30.159 15.5867 30.2888 15.7131C29.9197 15.9113 29.5541 16.1164 29.1781 16.3009C29.0004 16.3932 28.8091 16.3932 28.6484 16.236Z" fill="#EEB616"/>
<path d="M28.6832 8.90508C28.5944 8.90166 28.5157 8.86065 28.4371 8.83673C27.634 8.577 26.8344 8.31727 26.0312 8.05754C26.0723 7.90376 26.1748 7.7944 26.3217 7.76364C26.7694 7.67479 27.2171 7.60986 27.6716 7.56543C27.5896 7.78073 27.7195 7.92085 27.8528 8.05413C28.1125 8.31385 28.3551 8.59067 28.6422 8.82306C28.6661 8.84356 28.6832 8.8709 28.6832 8.90508Z" fill="#F38B19"/>
<path d="M30.4062 13.8303C30.4814 13.3723 30.56 12.9144 30.6386 12.4564C30.7138 12.0224 30.7924 11.585 30.8676 11.151C30.8744 11.1134 30.8813 11.0689 30.8437 11.0382C30.8437 11.0279 30.8437 11.0211 30.8437 11.0108C30.9052 11.0211 30.9599 10.9972 31.0146 10.9767C31.6126 10.7785 32.2107 10.5837 32.8121 10.3854C32.8497 10.3752 32.8942 10.3308 32.9249 10.3684C32.9625 10.4162 32.901 10.4504 32.8805 10.4811C32.4157 11.1236 31.9509 11.7661 31.4828 12.4052C31.1615 12.846 30.8437 13.2835 30.5259 13.7243C30.4917 13.7722 30.4678 13.8234 30.4062 13.8303Z" fill="#F6AB16"/>
<path d="M28.7344 8.93261C28.7104 8.93261 28.6934 8.92578 28.6797 8.90527C28.7002 8.90527 28.7207 8.91211 28.7344 8.93261Z" fill="#F38B19"/>
<path d="M40.3789 25.5693C40.2454 25.8362 40.0525 26.0513 39.8449 26.259C37.7461 28.2984 35.6474 30.3452 33.5486 32.3847C33.4967 32.4292 33.4448 32.4737 33.3929 32.5182C32.9479 32.4662 32.54 32.2808 32.1173 32.1474C30.3449 31.5837 28.5724 31.0053 26.8 30.4268C26.3105 30.2637 25.821 30.1005 25.25 29.9077C25.4132 29.8484 25.4947 29.8039 25.5837 29.7816C26.3031 29.5443 27.0299 29.3144 27.7492 29.0771C30.2485 28.2613 32.7551 27.453 35.2543 26.6372C36.9378 26.0884 38.6287 25.5322 40.3121 24.9834C40.3344 24.9834 40.3492 24.9834 40.3714 24.9834C40.3789 25.1762 40.3789 25.3765 40.3789 25.5693Z" fill="#F6AC16"/>
<path d="M40.323 24.9765C38.6395 25.5253 36.956 26.0815 35.2652 26.6303C32.7659 27.4461 30.2593 28.2544 27.7601 29.0702C27.0407 29.3075 26.3139 29.5374 25.5946 29.7747C25.5056 29.8044 25.4166 29.8415 25.2608 29.9008C25.8245 30.0936 26.3139 30.2568 26.8108 30.4199C28.5833 30.9984 30.3483 31.5843 32.1282 32.1405C32.5509 32.274 32.9588 32.4594 33.4037 32.5113C33.5076 33.1565 33.6114 33.8017 33.7152 34.4469C33.8784 35.4258 34.0489 36.4122 34.2195 37.3911C34.3901 38.37 34.5532 39.3564 34.7238 40.3353C34.8128 40.8322 34.924 41.3365 34.9759 41.8333C35.0204 42.2412 34.8721 42.5824 34.5087 42.8123C34.5161 42.7307 34.4791 42.6639 34.4272 42.5972C34.1305 42.2041 33.8487 41.8037 33.5595 41.4032C32.3432 39.7197 31.127 38.0437 29.9033 36.3602C28.3904 34.2763 26.8701 32.1924 25.3573 30.1085C25.3202 30.0566 25.2979 29.975 25.1941 30.0195C25.1941 32.845 25.1941 35.6705 25.1941 38.4961C23.7776 39.2451 22.3537 40.0016 20.9373 40.7432C20.4033 41.025 19.8619 41.2994 19.3205 41.5738C19.0387 41.292 18.9794 40.9434 19.0313 40.5726C19.0832 40.1795 19.1722 39.7865 19.2316 39.3934C19.3131 38.8372 19.4615 38.2884 19.4985 37.7248C19.543 37.6506 19.5727 37.5765 19.5653 37.4949C19.6988 37.4801 19.7507 37.3688 19.8174 37.2724C20.5071 36.3158 21.2042 35.3665 21.8939 34.4098C22.9025 33.0156 23.9185 31.6288 24.9271 30.2345C24.979 30.1678 25.1125 30.0936 25.0235 29.9898C24.9568 29.9082 24.853 30.0046 24.7788 30.0269C23.481 30.4496 22.1757 30.8797 20.8779 31.3099C20.7593 31.347 20.6406 31.4063 20.5071 31.384C20.4626 31.1245 20.2031 31.0651 20.0473 30.9094C19.3799 30.2271 18.7124 29.5374 18.0153 28.8848C17.3553 28.2767 16.7249 27.6463 16.1094 26.9937C16.2058 26.9937 16.3022 27.0085 16.3986 27.0456C17.1105 27.2755 17.8225 27.5054 18.5344 27.7353C20.6332 28.4176 22.732 29.1073 24.8307 29.7896C24.9123 29.8192 24.9939 29.8712 25.1199 29.8044C23.4587 27.5203 21.8049 25.2361 20.1512 22.9519C21.1152 21.0015 22.0719 19.0436 23.036 17.0932C23.4439 16.27 23.8444 15.4468 24.2523 14.6311C24.4451 14.2454 24.7269 13.9784 25.1941 14.0081C25.1941 19.2735 25.1941 24.5316 25.1941 29.797C25.2164 29.8044 25.2386 29.8118 25.2608 29.8267C26.9221 27.5425 28.5833 25.2509 30.2445 22.9668C31.0306 23.078 31.8241 23.1818 32.6102 23.3005C33.7671 23.4636 34.924 23.6342 36.0809 23.8048C37.2156 23.9679 38.3577 24.1237 39.4924 24.3017C39.8854 24.3462 40.2043 24.5538 40.323 24.9765Z" fill="#F1D322"/>
<path d="M25.1953 38.5031C25.1953 35.6776 25.1953 32.852 25.1953 30.0265C25.2991 29.982 25.3214 30.0636 25.3585 30.1155C26.8714 32.1994 28.3917 34.2833 29.9045 36.3673C31.1208 38.0507 32.3444 39.7268 33.5607 41.4102C33.8499 41.8107 34.1391 42.2111 34.4284 42.6042C34.4803 42.6709 34.5099 42.7377 34.5099 42.8193C34.1836 43.0121 33.8722 43.0418 33.5162 42.8638C31.0466 41.6104 28.6141 40.2904 26.1594 39.0148C25.8331 38.8517 25.5142 38.6737 25.1953 38.5031Z" fill="#F6AC16"/>
<path d="M30.2379 22.9592C28.5767 25.2434 26.9155 27.535 25.2542 29.8191C25.232 29.8117 25.2097 29.8043 25.1875 29.7894C25.1875 24.524 25.1875 19.266 25.1875 14.0006C25.6695 13.9857 25.9439 14.2675 26.1442 14.6606C26.8413 16.0845 27.5458 17.501 28.2504 18.9249C28.9178 20.2746 29.5778 21.6169 30.2379 22.9592Z" fill="#F6AC16"/>
<path d="M20.1487 22.9512C21.8025 25.2353 23.4637 27.5121 25.1175 29.8037C24.9914 29.8704 24.9098 29.8185 24.8282 29.7888C22.7295 29.1065 20.6307 28.4168 18.532 27.7346C17.82 27.5047 17.1081 27.2748 16.3961 27.0449C16.2997 27.0152 16.2033 26.9929 16.1069 26.9929C16.0476 26.9559 15.9882 26.9114 15.9289 26.8743C15.9067 26.8298 15.8622 26.815 15.8103 26.815C15.8103 26.7408 15.7732 26.6815 15.7213 26.637C15.0983 26.1327 14.5718 25.532 14.0081 24.9684C13.7189 24.6865 13.4445 24.3751 13.6151 23.9079C14.0971 23.7818 14.6014 23.7447 15.0983 23.6705C16.2626 23.4925 17.427 23.322 18.5987 23.1588C19.1104 23.0847 19.6295 23.0253 20.1487 22.9512Z" fill="#F6AC16"/>
<path d="M15.9372 26.8741C15.9965 26.9112 16.0559 26.9557 16.1152 26.9928C16.7307 27.6454 17.3611 28.2758 18.0211 28.8839C18.7183 29.5365 19.3857 30.2188 20.0532 30.9085C20.2089 31.0642 20.461 31.1235 20.5129 31.3831C20.5129 31.4053 20.5129 31.4202 20.5129 31.4424C20.4388 31.4573 20.3572 31.4721 20.283 31.4943C19.319 31.8058 18.3623 32.1173 17.3982 32.4362C17.2647 32.4807 17.1386 32.5252 16.9977 32.5252C16.8568 32.3991 16.7159 32.2804 16.5824 32.1544C14.5059 30.1298 12.4368 28.1052 10.3677 26.0806C10.0488 25.7691 9.90792 25.4131 10.0637 24.9756C11.8064 25.5392 13.5418 26.1028 15.2846 26.6665C15.4626 26.7258 15.6332 26.8148 15.8186 26.8148C15.8408 26.8593 15.8853 26.8741 15.9372 26.8741Z" fill="#EEB516"/>
<path d="M16.9891 32.5193C17.13 32.5267 17.2561 32.4748 17.3896 32.4303C18.3537 32.1188 19.3104 31.7999 20.2745 31.4884C20.3486 31.4662 20.4228 31.4514 20.5044 31.4365C20.586 31.5033 20.5711 31.5997 20.5563 31.6813C20.3931 32.6231 20.2226 33.5724 20.0594 34.5142C19.8888 35.508 19.7257 36.5017 19.5551 37.4955C19.5625 37.5771 19.5255 37.6512 19.4884 37.7254C19.4216 37.755 19.392 37.8218 19.3549 37.8737C18.2202 39.4385 17.0856 40.9959 15.9509 42.5607C15.899 42.6348 15.8545 42.709 15.7507 42.709C15.3057 42.3382 15.3873 41.8636 15.4763 41.3889C15.6691 40.2839 15.8619 39.1789 16.0547 38.0739C16.2475 36.9689 16.4404 35.8639 16.6258 34.7589C16.7592 34.0247 16.8705 33.2757 16.9891 32.5193Z" fill="#F38B19"/>
<path d="M15.75 42.7239C15.8538 42.7239 15.8983 42.6497 15.9502 42.5755C17.0849 41.0107 18.2196 39.4534 19.3542 37.8886C19.3913 37.8292 19.421 37.7699 19.4877 37.7402C19.4506 38.3039 19.3023 38.8527 19.2207 39.4089C19.1614 39.8019 19.0798 40.195 19.0205 40.588C18.9686 40.9588 19.0279 41.3148 19.3097 41.5892C18.5088 42.0193 17.7153 42.4643 16.8995 42.8648C16.5139 43.065 16.0986 43.065 15.75 42.7239Z" fill="#EEB616"/>
<path d="M15.8174 26.8143C15.6246 26.8069 15.454 26.7179 15.2834 26.666C13.5407 26.1024 11.8053 25.5388 10.0625 24.9751C10.1515 24.6414 10.374 24.4041 10.6929 24.3374C11.6644 24.1445 12.6359 24.0036 13.6222 23.9072C13.4442 24.3744 13.7261 24.6785 14.0153 24.9677C14.5789 25.5314 15.1055 26.1321 15.7284 26.6364C15.7803 26.6808 15.8174 26.7402 15.8174 26.8143Z" fill="#F38B19"/>
<path d="M19.5664 37.5018C19.7296 36.508 19.9001 35.5142 20.0707 34.5205C20.2339 33.5786 20.4044 32.6294 20.5676 31.6875C20.5824 31.606 20.5972 31.5095 20.5157 31.4428C20.5157 31.4206 20.5157 31.4057 20.5157 31.3835C20.6492 31.4057 20.7678 31.3538 20.8865 31.3093C22.1843 30.8792 23.4821 30.4565 24.7873 30.0263C24.8689 30.0041 24.9653 29.9077 25.0321 29.9892C25.1137 30.0931 24.9802 30.1672 24.9357 30.234C23.9271 31.6282 22.9185 33.0224 21.9025 34.4092C21.2054 35.3659 20.5157 36.3152 19.826 37.2719C19.7518 37.3757 19.6999 37.4869 19.5664 37.5018Z" fill="#F6AB16"/>
<path d="M15.939 26.8757C15.8871 26.8757 15.85 26.8609 15.8203 26.8164C15.8648 26.8164 15.9093 26.8312 15.939 26.8757Z" fill="#F38B19"/>
<g filter="url(#filter0_d_1921_391)">
<path d="M63.7632 20.7612C63.5929 21.1018 63.3469 21.3762 63.082 21.6411C60.4042 24.2431 57.7265 26.8546 55.0488 29.4566C54.9826 29.5134 54.9163 29.5702 54.8501 29.627C54.2824 29.5607 53.762 29.3242 53.2227 29.1539C50.9613 28.4348 48.6999 27.6967 46.4385 26.9587C45.814 26.7505 45.1895 26.5424 44.4609 26.2964C44.6691 26.2207 44.7732 26.1639 44.8867 26.1355C45.8045 25.8327 46.7318 25.5394 47.6496 25.2366C50.8383 24.1958 54.0364 23.1645 57.225 22.1237C59.3729 21.4235 61.5302 20.7139 63.6781 20.0137C63.7064 20.0137 63.7254 20.0137 63.7538 20.0137C63.7632 20.2597 63.7632 20.5152 63.7632 20.7612Z" fill="#F6AC16"/>
<path d="M63.6861 20.0048C61.5382 20.705 59.3904 21.4147 57.2331 22.1148C54.0444 23.1557 50.8463 24.187 47.6576 25.2278C46.7398 25.5306 45.8125 25.8239 44.8947 26.1267C44.7812 26.1645 44.6677 26.2118 44.469 26.2875C45.1881 26.5335 45.8125 26.7417 46.4465 26.9499C48.7079 27.6879 50.9598 28.4354 53.2307 29.145C53.77 29.3153 54.2904 29.5519 54.8581 29.6181C54.9906 30.4413 55.1231 31.2645 55.2555 32.0877C55.4637 33.3367 55.6813 34.5951 55.8989 35.8441C56.1166 37.093 56.3247 38.3515 56.5423 39.6004C56.6559 40.2344 56.7978 40.8778 56.8641 41.5117C56.9208 42.0321 56.7316 42.4674 56.268 42.7607C56.2774 42.6566 56.2301 42.5715 56.1639 42.4863C55.7854 41.9848 55.4258 41.4739 55.0568 40.963C53.5051 38.8151 51.9533 36.6767 50.3921 34.5289C48.4619 31.8701 46.5222 29.2113 44.592 26.5525C44.5447 26.4862 44.5163 26.3822 44.3838 26.4389C44.3838 30.0439 44.3838 33.6489 44.3838 37.2539C42.5766 38.2095 40.7599 39.1747 38.9527 40.1208C38.2714 40.4804 37.5807 40.8305 36.89 41.1806C36.5304 40.821 36.4547 40.3763 36.521 39.9032C36.5872 39.4017 36.7007 38.9003 36.7764 38.3988C36.8805 37.6891 37.0697 36.989 37.1171 36.2698C37.1738 36.1752 37.2117 36.0806 37.2022 35.9765C37.3725 35.9576 37.4388 35.8157 37.5239 35.6927C38.4039 34.4721 39.2933 33.261 40.1733 32.0404C41.4601 30.2615 42.7564 28.4922 44.0432 26.7133C44.1094 26.6282 44.2797 26.5336 44.1662 26.4011C44.081 26.297 43.9486 26.42 43.8539 26.4484C42.1981 26.9877 40.5328 27.5365 38.877 28.0853C38.7256 28.1326 38.5742 28.2083 38.4039 28.1799C38.3471 27.8488 38.0159 27.7731 37.8172 27.5744C36.9657 26.7039 36.1141 25.8239 35.2247 24.9913C34.3826 24.2154 33.5783 23.4111 32.793 22.5785C32.916 22.5785 33.039 22.5974 33.162 22.6447C34.0703 22.938 34.9787 23.2313 35.887 23.5247C38.5647 24.3952 41.2424 25.2751 43.9202 26.1456C44.0242 26.1835 44.1283 26.2497 44.2892 26.1645C42.1697 23.2503 40.0597 20.336 37.9497 17.4217C39.1798 14.9333 40.4003 12.4353 41.6304 9.94683C42.1508 8.89656 42.6617 7.84629 43.1821 6.80548C43.4281 6.31346 43.7877 5.97283 44.3838 6.01068C44.3838 12.7286 44.3838 19.4371 44.3838 26.1551C44.4122 26.1645 44.4406 26.174 44.469 26.1929C46.5884 23.2787 48.7079 20.3549 50.8274 17.4407C51.8303 17.5826 52.8427 17.7151 53.8457 17.8664C55.3218 18.0746 56.7978 18.2922 58.2739 18.5099C59.7215 18.718 61.1787 18.9167 62.6264 19.1438C63.1278 19.2006 63.5347 19.4655 63.6861 20.0048Z" fill="#F1D322"/>
<path d="M44.3828 37.2629C44.3828 33.658 44.3828 30.053 44.3828 26.448C44.5153 26.3912 44.5437 26.4953 44.591 26.5615C46.5212 29.2203 48.4609 31.8791 50.3911 34.5379C51.9429 36.6858 53.5041 38.8242 55.0558 40.972C55.4249 41.483 55.7939 41.9939 56.1629 42.4954C56.2291 42.5805 56.267 42.6657 56.267 42.7698C55.8506 43.0158 55.4532 43.0536 54.9991 42.8265C51.8483 41.2275 48.7447 39.5433 45.6129 37.9158C45.1965 37.7077 44.7897 37.4806 44.3828 37.2629Z" fill="#F6AC16"/>
<path d="M50.8186 17.4307C48.6991 20.345 46.5796 23.2687 44.4602 26.183C44.4318 26.1735 44.4034 26.164 44.375 26.1451C44.375 19.4272 44.375 12.7187 44.375 6.00071C44.99 5.98179 45.3401 6.34134 45.5956 6.84282C46.485 8.65951 47.3839 10.4667 48.2828 12.2834C49.1343 14.0055 49.9764 15.7181 50.8186 17.4307Z" fill="#F6AC16"/>
<path d="M37.9499 17.4209C40.0599 20.3352 42.1794 23.24 44.2894 26.1637C44.1285 26.2489 44.0245 26.1826 43.9204 26.1448C41.2427 25.2743 38.5649 24.3943 35.8872 23.5238C34.9789 23.2305 34.0705 22.9372 33.1622 22.6439C33.0392 22.606 32.9162 22.5776 32.7932 22.5776C32.7175 22.5303 32.6418 22.4736 32.5661 22.4262C32.5377 22.3695 32.4809 22.3506 32.4147 22.3506C32.4147 22.2559 32.3674 22.1802 32.3012 22.1235C31.5064 21.4801 30.8346 20.7136 30.1155 19.9945C29.7464 19.635 29.3963 19.2376 29.614 18.6415C30.229 18.4806 30.8724 18.4333 31.5064 18.3387C32.9919 18.1116 34.4774 17.894 35.9724 17.6858C36.6252 17.5912 37.2876 17.5155 37.9499 17.4209Z" fill="#F6AC16"/>
<path d="M32.575 22.4262C32.6507 22.4735 32.7264 22.5302 32.8021 22.5775C33.5875 23.4102 34.3917 24.2145 35.2338 24.9903C36.1233 25.823 36.9748 26.6935 37.8264 27.5734C38.0251 27.7721 38.3468 27.8478 38.413 28.179C38.413 28.2074 38.413 28.2263 38.413 28.2547C38.3184 28.2736 38.2143 28.2925 38.1197 28.3209C36.8897 28.7183 35.6691 29.1157 34.439 29.5226C34.2687 29.5794 34.1079 29.6361 33.9281 29.6361C33.7483 29.4753 33.5685 29.3239 33.3982 29.163C30.7489 26.5799 28.109 23.9968 25.4692 21.4137C25.0623 21.0163 24.8825 20.5622 25.0812 20.0039C27.3048 20.723 29.5189 21.4421 31.7424 22.1612C31.9695 22.2369 32.1871 22.3505 32.4237 22.3505C32.452 22.4072 32.5088 22.4262 32.575 22.4262Z" fill="#EEB516"/>
<path d="M33.918 29.6266C34.0978 29.636 34.2586 29.5698 34.4289 29.513C35.659 29.1156 36.8796 28.7088 38.1096 28.3114C38.2042 28.283 38.2988 28.264 38.4029 28.2451C38.507 28.3303 38.4881 28.4533 38.4692 28.5574C38.261 29.759 38.0434 30.9701 37.8352 32.1718C37.6176 33.4397 37.4094 34.7076 37.1918 35.9755C37.2013 36.0796 37.154 36.1742 37.1066 36.2688C37.0215 36.3067 36.9836 36.3918 36.9363 36.458C35.4887 38.4545 34.041 40.4415 32.5933 42.438C32.5271 42.5326 32.4703 42.6272 32.3378 42.6272C31.7701 42.1541 31.8742 41.5486 31.9878 40.943C32.2338 39.5332 32.4798 38.1233 32.7258 36.7135C32.9718 35.3037 33.2178 33.8939 33.4544 32.484C33.6247 31.5473 33.7666 30.5917 33.918 29.6266Z" fill="#F38B19"/>
<path d="M32.3398 42.6475C32.4723 42.6475 32.5291 42.5528 32.5953 42.4582C34.043 40.4618 35.4907 38.4748 36.9383 36.4783C36.9856 36.4026 37.0235 36.3269 37.1086 36.2891C37.0613 37.0082 36.8721 37.7083 36.768 38.418C36.6923 38.9195 36.5882 39.421 36.5125 39.9224C36.4463 40.3955 36.522 40.8497 36.8816 41.1998C35.8597 41.7486 34.8472 42.3163 33.8064 42.8272C33.3144 43.0827 32.7846 43.0827 32.3398 42.6475Z" fill="#EEB616"/>
<path d="M32.4245 22.3507C32.1785 22.3412 31.9608 22.2277 31.7432 22.1614C29.5197 21.4423 27.3056 20.7232 25.082 20.0041C25.1956 19.5783 25.4794 19.2755 25.8863 19.1904C27.1258 18.9444 28.3653 18.7646 29.6237 18.6416C29.3967 19.2377 29.7562 19.6256 30.1252 19.9947C30.8443 20.7138 31.5161 21.4802 32.3109 22.1236C32.3772 22.1804 32.4245 22.256 32.4245 22.3507Z" fill="#F38B19"/>
<path d="M37.2031 35.9864C37.4113 34.7185 37.6289 33.4506 37.8465 32.1827C38.0547 30.981 38.2723 29.7699 38.4805 28.5682C38.4994 28.4642 38.5183 28.3411 38.4142 28.256C38.4142 28.2276 38.4142 28.2087 38.4142 28.1803C38.5846 28.2087 38.736 28.1424 38.8873 28.0857C40.5432 27.5369 42.199 26.9976 43.8643 26.4488C43.9684 26.4204 44.0914 26.2974 44.1765 26.4015C44.2806 26.5339 44.1103 26.6285 44.0535 26.7137C42.7667 28.4925 41.4799 30.2714 40.1836 32.0408C39.2942 33.2613 38.4142 34.4725 37.5343 35.693C37.4397 35.8255 37.3734 35.9674 37.2031 35.9864Z" fill="#F6AB16"/>
<path d="M32.5733 22.4263C32.507 22.4263 32.4597 22.4074 32.4219 22.3506C32.4786 22.3506 32.5354 22.3695 32.5733 22.4263Z" fill="#F38B19"/>
</g>
</g>
<defs>
<filter id="filter0_d_1921_391" x="20" y="1" width="48.7617" height="47.001" filterUnits="userSpaceOnUse" color-interpolation-filters="sRGB">
<feFlood flood-opacity="0" result="BackgroundImageFix"/>
<feColorMatrix in="SourceAlpha" type="matrix" values="0 0 0 0 0 0 0 0 0 0 0 0 0 0 0 0 0 0 127 0" result="hardAlpha"/>
<feOffset/>
<feGaussianBlur stdDeviation="2.5"/>
<feComposite in2="hardAlpha" operator="out"/>
<feColorMatrix type="matrix" values="0 0 0 0 0.774884 0 0 0 0 0.126591 0 0 0 0 0.0882508 0 0 0 1 0"/>
<feBlend mode="normal" in2="BackgroundImageFix" result="effect1_dropShadow_1921_391"/>
<feBlend mode="normal" in="SourceGraphic" in2="effect1_dropShadow_1921_391" result="shape"/>
</filter>
<clipPath id="clip0_1921_391">
<rect width="88" height="47" fill="white"/>
</clipPath>
</defs>
</svg>
