<svg width="76" height="47" viewBox="0 0 76 47" fill="none" xmlns="http://www.w3.org/2000/svg">
<g clip-path="url(#clip0_1921_391)">
<path d="M72.3789 23.5693C72.2454 23.8362 72.0525 24.0513 71.8449 24.259C69.7461 26.2984 67.6474 28.3452 65.5486 30.3847C65.4967 30.4292 65.4448 30.4737 65.3929 30.5182C64.9479 30.4662 64.54 30.2808 64.1173 30.1474C62.3449 29.5837 60.5724 29.0053 58.8 28.4268C58.3105 28.2637 57.821 28.1005 57.25 27.9077C57.4132 27.8484 57.4947 27.8039 57.5837 27.7816C58.3031 27.5443 59.0299 27.3144 59.7492 27.0771C62.2485 26.2613 64.7551 25.453 67.2543 24.6372C68.9378 24.0884 70.6287 23.5322 72.3121 22.9834C72.3344 22.9834 72.3492 22.9834 72.3714 22.9834C72.3789 23.1762 72.3789 23.3765 72.3789 23.5693Z" fill="#F6AC16"/>
<path d="M72.323 22.9765C70.6395 23.5253 68.956 24.0815 67.2652 24.6303C64.7659 25.4461 62.2593 26.2544 59.7601 27.0702C59.0407 27.3075 58.3139 27.5374 57.5946 27.7747C57.5056 27.8044 57.4166 27.8415 57.2608 27.9008C57.8245 28.0936 58.3139 28.2568 58.8108 28.4199C60.5833 28.9984 62.3483 29.5843 64.1282 30.1405C64.5509 30.274 64.9588 30.4594 65.4037 30.5113C65.5076 31.1565 65.6114 31.8017 65.7152 32.4469C65.8784 33.4258 66.0489 34.4122 66.2195 35.3911C66.3901 36.37 66.5532 37.3564 66.7238 38.3353C66.8128 38.8322 66.924 39.3365 66.9759 39.8333C67.0204 40.2412 66.8721 40.5824 66.5087 40.8123C66.5161 40.7307 66.4791 40.6639 66.4272 40.5972C66.1305 40.2041 65.8487 39.8037 65.5595 39.4032C64.3432 37.7197 63.127 36.0437 61.9033 34.3602C60.3904 32.2763 58.8701 30.1924 57.3573 28.1085C57.3202 28.0566 57.2979 27.975 57.1941 28.0195C57.1941 30.845 57.1941 33.6705 57.1941 36.4961C55.7776 37.2451 54.3537 38.0016 52.9373 38.7432C52.4033 39.025 51.8619 39.2994 51.3205 39.5738C51.0387 39.292 50.9794 38.9434 51.0313 38.5726C51.0832 38.1795 51.1722 37.7865 51.2316 37.3934C51.3131 36.8372 51.4615 36.2884 51.4985 35.7248C51.543 35.6506 51.5727 35.5765 51.5653 35.4949C51.6988 35.4801 51.7507 35.3688 51.8174 35.2724C52.5071 34.3158 53.2042 33.3665 53.8939 32.4098C54.9025 31.0156 55.9185 29.6288 56.9271 28.2345C56.979 28.1678 57.1125 28.0936 57.0235 27.9898C56.9568 27.9082 56.853 28.0046 56.7788 28.0269C55.481 28.4496 54.1757 28.8797 52.8779 29.3099C52.7593 29.347 52.6406 29.4063 52.5071 29.384C52.4626 29.1245 52.2031 29.0651 52.0473 28.9094C51.3799 28.2271 50.7124 27.5374 50.0153 26.8848C49.3553 26.2767 48.7249 25.6463 48.1094 24.9937C48.2058 24.9937 48.3022 25.0085 48.3986 25.0456C49.1105 25.2755 49.8225 25.5054 50.5344 25.7353C52.6332 26.4176 54.732 27.1073 56.8307 27.7896C56.9123 27.8192 56.9939 27.8712 57.1199 27.8044C55.4587 25.5203 53.8049 23.2361 52.1512 20.9519C53.1152 19.0015 54.0719 17.0436 55.036 15.0932C55.4439 14.27 55.8444 13.4468 56.2523 12.6311C56.4451 12.2454 56.7269 11.9784 57.1941 12.0081C57.1941 17.2735 57.1941 22.5316 57.1941 27.797C57.2164 27.8044 57.2386 27.8118 57.2608 27.8267C58.9221 25.5425 60.5833 23.2509 62.2445 20.9668C63.0306 21.078 63.8241 21.1818 64.6102 21.3005C65.7671 21.4636 66.924 21.6342 68.0809 21.8048C69.2156 21.9679 70.3577 22.1237 71.4924 22.3017C71.8854 22.3462 72.2043 22.5538 72.323 22.9765Z" fill="#F1D322"/>
<path d="M57.1953 36.5031C57.1953 33.6776 57.1953 30.852 57.1953 28.0265C57.2991 27.982 57.3214 28.0636 57.3585 28.1155C58.8714 30.1994 60.3917 32.2833 61.9045 34.3673C63.1208 36.0507 64.3444 37.7268 65.5607 39.4102C65.8499 39.8107 66.1391 40.2111 66.4284 40.6042C66.4803 40.6709 66.5099 40.7377 66.5099 40.8193C66.1836 41.0121 65.8722 41.0418 65.5162 40.8638C63.0466 39.6104 60.6141 38.2904 58.1594 37.0148C57.8331 36.8517 57.5142 36.6737 57.1953 36.5031Z" fill="#F6AC16"/>
<path d="M62.2379 20.9592C60.5767 23.2434 58.9155 25.535 57.2542 27.8191C57.232 27.8117 57.2097 27.8043 57.1875 27.7894C57.1875 22.524 57.1875 17.266 57.1875 12.0006C57.6695 11.9857 57.9439 12.2675 58.1442 12.6606C58.8413 14.0845 59.5458 15.501 60.2504 16.9249C60.9178 18.2746 61.5778 19.6169 62.2379 20.9592Z" fill="#F6AC16"/>
<path d="M52.1487 20.9512C53.8025 23.2353 55.4637 25.5121 57.1175 27.8037C56.9914 27.8704 56.9098 27.8185 56.8282 27.7888C54.7295 27.1065 52.6307 26.4168 50.532 25.7346C49.82 25.5047 49.1081 25.2748 48.3961 25.0449C48.2997 25.0152 48.2033 24.9929 48.1069 24.9929C48.0476 24.9559 47.9882 24.9114 47.9289 24.8743C47.9067 24.8298 47.8622 24.815 47.8103 24.815C47.8103 24.7408 47.7732 24.6815 47.7213 24.637C47.0983 24.1327 46.5718 23.532 46.0081 22.9684C45.7189 22.6865 45.4445 22.3751 45.6151 21.9079C46.0971 21.7818 46.6014 21.7447 47.0983 21.6705C48.2626 21.4925 49.427 21.322 50.5987 21.1588C51.1104 21.0847 51.6295 21.0253 52.1487 20.9512Z" fill="#F6AC16"/>
<path d="M47.9372 24.8741C47.9965 24.9112 48.0559 24.9557 48.1152 24.9928C48.7307 25.6454 49.3611 26.2758 50.0211 26.8839C50.7183 27.5365 51.3857 28.2188 52.0532 28.9085C52.2089 29.0642 52.461 29.1235 52.5129 29.3831C52.5129 29.4053 52.5129 29.4202 52.5129 29.4424C52.4388 29.4573 52.3572 29.4721 52.283 29.4943C51.319 29.8058 50.3623 30.1173 49.3982 30.4362C49.2647 30.4807 49.1386 30.5252 48.9977 30.5252C48.8568 30.3991 48.7159 30.2804 48.5824 30.1544C46.5059 28.1298 44.4368 26.1052 42.3677 24.0806C42.0488 23.7691 41.9079 23.4131 42.0637 22.9756C43.8064 23.5392 45.5418 24.1028 47.2846 24.6665C47.4626 24.7258 47.6332 24.8148 47.8186 24.8148C47.8408 24.8593 47.8853 24.8741 47.9372 24.8741Z" fill="#EEB516"/>
<path d="M48.9891 30.5193C49.13 30.5267 49.2561 30.4748 49.3896 30.4303C50.3537 30.1188 51.3104 29.7999 52.2745 29.4884C52.3486 29.4662 52.4228 29.4514 52.5044 29.4365C52.586 29.5033 52.5711 29.5997 52.5563 29.6813C52.3931 30.6231 52.2226 31.5724 52.0594 32.5142C51.8888 33.508 51.7257 34.5017 51.5551 35.4955C51.5625 35.5771 51.5255 35.6512 51.4884 35.7254C51.4216 35.755 51.392 35.8218 51.3549 35.8737C50.2202 37.4385 49.0856 38.9959 47.9509 40.5607C47.899 40.6348 47.8545 40.709 47.7507 40.709C47.3057 40.3382 47.3873 39.8636 47.4763 39.3889C47.6691 38.2839 47.8619 37.1789 48.0547 36.0739C48.2475 34.9689 48.4404 33.8639 48.6258 32.7589C48.7592 32.0247 48.8705 31.2757 48.9891 30.5193Z" fill="#F38B19"/>
<path d="M47.75 40.7239C47.8538 40.7239 47.8983 40.6497 47.9502 40.5755C49.0849 39.0107 50.2196 37.4534 51.3542 35.8886C51.3913 35.8292 51.421 35.7699 51.4877 35.7402C51.4506 36.3039 51.3023 36.8527 51.2207 37.4089C51.1614 37.8019 51.0798 38.195 51.0205 38.588C50.9686 38.9588 51.0279 39.3148 51.3097 39.5892C50.5088 40.0193 49.7153 40.4643 48.8995 40.8648C48.5139 41.065 48.0986 41.065 47.75 40.7239Z" fill="#EEB616"/>
<path d="M47.8174 24.8143C47.6246 24.8069 47.454 24.7179 47.2834 24.666C45.5407 24.1024 43.8053 23.5388 42.0625 22.9751C42.1515 22.6414 42.374 22.4041 42.6929 22.3374C43.6644 22.1445 44.6359 22.0036 45.6222 21.9072C45.4442 22.3744 45.7261 22.6785 46.0153 22.9677C46.5789 23.5314 47.1055 24.1321 47.7284 24.6364C47.7803 24.6808 47.8174 24.7402 47.8174 24.8143Z" fill="#F38B19"/>
<path d="M51.5664 35.5018C51.7296 34.508 51.9001 33.5142 52.0707 32.5205C52.2339 31.5786 52.4044 30.6294 52.5676 29.6875C52.5824 29.606 52.5972 29.5095 52.5157 29.4428C52.5157 29.4206 52.5157 29.4057 52.5157 29.3835C52.6492 29.4057 52.7678 29.3538 52.8865 29.3093C54.1843 28.8792 55.4821 28.4565 56.7873 28.0263C56.8689 28.0041 56.9653 27.9077 57.0321 27.9892C57.1137 28.0931 56.9802 28.1672 56.9357 28.234C55.9271 29.6282 54.9185 31.0224 53.9025 32.4092C53.2054 33.3659 52.5157 34.3152 51.826 35.2719C51.7518 35.3757 51.6999 35.4869 51.5664 35.5018Z" fill="#F6AB16"/>
<path d="M47.939 24.8757C47.8871 24.8757 47.85 24.8609 47.8203 24.8164C47.8648 24.8164 47.9093 24.8312 47.939 24.8757Z" fill="#F38B19"/>
<path d="M34.3789 23.5693C34.2454 23.8362 34.0525 24.0513 33.8449 24.259C31.7461 26.2984 29.6474 28.3452 27.5486 30.3847C27.4967 30.4292 27.4448 30.4737 27.3929 30.5182C26.9479 30.4662 26.54 30.2808 26.1173 30.1474C24.3449 29.5837 22.5724 29.0053 20.8 28.4268C20.3105 28.2637 19.821 28.1005 19.25 27.9077C19.4132 27.8484 19.4947 27.8039 19.5837 27.7816C20.3031 27.5443 21.0299 27.3144 21.7492 27.0771C24.2485 26.2613 26.7551 25.453 29.2543 24.6372C30.9378 24.0884 32.6287 23.5322 34.3121 22.9834C34.3344 22.9834 34.3492 22.9834 34.3714 22.9834C34.3789 23.1762 34.3789 23.3765 34.3789 23.5693Z" fill="#F6AC16"/>
<path d="M34.323 22.9765C32.6395 23.5253 30.956 24.0815 29.2652 24.6303C26.7659 25.4461 24.2593 26.2544 21.7601 27.0702C21.0407 27.3075 20.3139 27.5374 19.5946 27.7747C19.5056 27.8044 19.4166 27.8415 19.2608 27.9008C19.8245 28.0936 20.3139 28.2568 20.8108 28.4199C22.5833 28.9984 24.3483 29.5843 26.1282 30.1405C26.5509 30.274 26.9588 30.4594 27.4037 30.5113C27.5076 31.1565 27.6114 31.8017 27.7152 32.4469C27.8784 33.4258 28.0489 34.4122 28.2195 35.3911C28.3901 36.37 28.5532 37.3564 28.7238 38.3353C28.8128 38.8322 28.924 39.3365 28.9759 39.8333C29.0204 40.2412 28.8721 40.5824 28.5087 40.8123C28.5161 40.7307 28.4791 40.6639 28.4272 40.5972C28.1305 40.2041 27.8487 39.8037 27.5595 39.4032C26.3432 37.7197 25.127 36.0437 23.9033 34.3602C22.3904 32.2763 20.8701 30.1924 19.3573 28.1085C19.3202 28.0566 19.2979 27.975 19.1941 28.0195C19.1941 30.845 19.1941 33.6705 19.1941 36.4961C17.7776 37.2451 16.3537 38.0016 14.9373 38.7432C14.4033 39.025 13.8619 39.2994 13.3205 39.5738C13.0387 39.292 12.9794 38.9434 13.0313 38.5726C13.0832 38.1795 13.1722 37.7865 13.2316 37.3934C13.3131 36.8372 13.4615 36.2884 13.4985 35.7248C13.543 35.6506 13.5727 35.5765 13.5653 35.4949C13.6988 35.4801 13.7507 35.3688 13.8174 35.2724C14.5071 34.3158 15.2042 33.3665 15.8939 32.4098C16.9025 31.0156 17.9185 29.6288 18.9271 28.2345C18.979 28.1678 19.1125 28.0936 19.0235 27.9898C18.9568 27.9082 18.853 28.0046 18.7788 28.0269C17.481 28.4496 16.1757 28.8797 14.8779 29.3099C14.7593 29.347 14.6406 29.4063 14.5071 29.384C14.4626 29.1245 14.2031 29.0651 14.0473 28.9094C13.3799 28.2271 12.7124 27.5374 12.0153 26.8848C11.3553 26.2767 10.7249 25.6463 10.1094 24.9937C10.2058 24.9937 10.3022 25.0085 10.3986 25.0456C11.1105 25.2755 11.8225 25.5054 12.5344 25.7353C14.6332 26.4176 16.732 27.1073 18.8307 27.7896C18.9123 27.8192 18.9939 27.8712 19.1199 27.8044C17.4587 25.5203 15.8049 23.2361 14.1512 20.9519C15.1152 19.0015 16.0719 17.0436 17.036 15.0932C17.4439 14.27 17.8444 13.4468 18.2523 12.6311C18.4451 12.2454 18.7269 11.9784 19.1941 12.0081C19.1941 17.2735 19.1941 22.5316 19.1941 27.797C19.2164 27.8044 19.2386 27.8118 19.2608 27.8267C20.9221 25.5425 22.5833 23.2509 24.2445 20.9668C25.0306 21.078 25.8241 21.1818 26.6102 21.3005C27.7671 21.4636 28.924 21.6342 30.0809 21.8048C31.2156 21.9679 32.3577 22.1237 33.4924 22.3017C33.8854 22.3462 34.2043 22.5538 34.323 22.9765Z" fill="#F1D322"/>
<path d="M19.1953 36.5031C19.1953 33.6776 19.1953 30.852 19.1953 28.0265C19.2991 27.982 19.3214 28.0636 19.3585 28.1155C20.8714 30.1994 22.3917 32.2833 23.9045 34.3673C25.1208 36.0507 26.3444 37.7268 27.5607 39.4102C27.8499 39.8107 28.1391 40.2111 28.4284 40.6042C28.4803 40.6709 28.5099 40.7377 28.5099 40.8193C28.1836 41.0121 27.8722 41.0418 27.5162 40.8638C25.0466 39.6104 22.6141 38.2904 20.1594 37.0148C19.8331 36.8517 19.5142 36.6737 19.1953 36.5031Z" fill="#F6AC16"/>
<path d="M24.2379 20.9592C22.5767 23.2434 20.9155 25.535 19.2542 27.8191C19.232 27.8117 19.2097 27.8043 19.1875 27.7894C19.1875 22.524 19.1875 17.266 19.1875 12.0006C19.6695 11.9857 19.9439 12.2675 20.1442 12.6606C20.8413 14.0845 21.5458 15.501 22.2504 16.9249C22.9178 18.2746 23.5778 19.6169 24.2379 20.9592Z" fill="#F6AC16"/>
<path d="M14.1487 20.9512C15.8025 23.2353 17.4637 25.5121 19.1175 27.8037C18.9914 27.8704 18.9098 27.8185 18.8282 27.7888C16.7295 27.1065 14.6307 26.4168 12.532 25.7346C11.82 25.5047 11.1081 25.2748 10.3961 25.0449C10.2997 25.0152 10.2033 24.9929 10.1069 24.9929C10.0476 24.9559 9.98824 24.9114 9.92891 24.8743C9.90666 24.8298 9.86217 24.815 9.81026 24.815C9.81026 24.7408 9.77317 24.6815 9.72126 24.637C9.09831 24.1327 8.57177 23.532 8.00814 22.9684C7.71891 22.6865 7.44452 22.3751 7.61509 21.9079C8.09714 21.7818 8.60143 21.7447 9.09831 21.6705C10.2626 21.4925 11.427 21.322 12.5987 21.1588C13.1104 21.0847 13.6295 21.0253 14.1487 20.9512Z" fill="#F6AC16"/>
<path d="M9.93721 24.8741C9.99654 24.9112 10.0559 24.9557 10.1152 24.9928C10.7307 25.6454 11.3611 26.2758 12.0211 26.8839C12.7183 27.5365 13.3857 28.2188 14.0532 28.9085C14.2089 29.0642 14.461 29.1235 14.5129 29.3831C14.5129 29.4053 14.5129 29.4202 14.5129 29.4424C14.4388 29.4573 14.3572 29.4721 14.283 29.4943C13.319 29.8058 12.3623 30.1173 11.3982 30.4362C11.2647 30.4807 11.1386 30.5252 10.9977 30.5252C10.8568 30.3991 10.7159 30.2804 10.5824 30.1544C8.5059 28.1298 6.43681 26.1052 4.36772 24.0806C4.04883 23.7691 3.90792 23.4131 4.06366 22.9756C5.80644 23.5392 7.54181 24.1028 9.2846 24.6665C9.46258 24.7258 9.63315 24.8148 9.81855 24.8148C9.8408 24.8593 9.8853 24.8741 9.93721 24.8741Z" fill="#EEB516"/>
<path d="M10.9891 30.5193C11.13 30.5267 11.2561 30.4748 11.3896 30.4303C12.3537 30.1188 13.3104 29.7999 14.2745 29.4884C14.3486 29.4662 14.4228 29.4514 14.5044 29.4365C14.586 29.5033 14.5711 29.5997 14.5563 29.6813C14.3931 30.6231 14.2226 31.5724 14.0594 32.5142C13.8888 33.508 13.7257 34.5017 13.5551 35.4955C13.5625 35.5771 13.5255 35.6512 13.4884 35.7254C13.4216 35.755 13.392 35.8218 13.3549 35.8737C12.2202 37.4385 11.0856 38.9959 9.95089 40.5607C9.89898 40.6348 9.85448 40.709 9.75065 40.709C9.30569 40.3382 9.38726 39.8636 9.47626 39.3889C9.66908 38.2839 9.8619 37.1789 10.0547 36.0739C10.2475 34.9689 10.4404 33.8639 10.6258 32.7589C10.7592 32.0247 10.8705 31.2757 10.9891 30.5193Z" fill="#F38B19"/>
<path d="M9.75 40.7239C9.85383 40.7239 9.89832 40.6497 9.95024 40.5755C11.0849 39.0107 12.2196 37.4534 13.3542 35.8886C13.3913 35.8292 13.421 35.7699 13.4877 35.7402C13.4506 36.3039 13.3023 36.8527 13.2207 37.4089C13.1614 37.8019 13.0798 38.195 13.0205 38.588C12.9686 38.9588 13.0279 39.3148 13.3097 39.5892C12.5088 40.0193 11.7153 40.4643 10.8995 40.8648C10.5139 41.065 10.0986 41.065 9.75 40.7239Z" fill="#EEB616"/>
<path d="M9.8174 24.8143C9.62458 24.8069 9.45401 24.7179 9.28344 24.666C7.54065 24.1024 5.80528 23.5388 4.0625 22.9751C4.15149 22.6414 4.37398 22.4041 4.69287 22.3374C5.66438 22.1445 6.63589 22.0036 7.62223 21.9072C7.44424 22.3744 7.72606 22.6785 8.01528 22.9677C8.57891 23.5314 9.10545 24.1321 9.7284 24.6364C9.78032 24.6808 9.8174 24.7402 9.8174 24.8143Z" fill="#F38B19"/>
<path d="M13.5664 35.5018C13.7296 34.508 13.9001 33.5142 14.0707 32.5205C14.2339 31.5786 14.4044 30.6294 14.5676 29.6875C14.5824 29.606 14.5972 29.5095 14.5157 29.4428C14.5157 29.4206 14.5157 29.4057 14.5157 29.3835C14.6492 29.4057 14.7678 29.3538 14.8865 29.3093C16.1843 28.8792 17.4821 28.4565 18.7873 28.0263C18.8689 28.0041 18.9653 27.9077 19.0321 27.9892C19.1137 28.0931 18.9802 28.1672 18.9357 28.234C17.9271 29.6282 16.9185 31.0224 15.9025 32.4092C15.2054 33.3659 14.5157 34.3152 13.826 35.2719C13.7518 35.3757 13.6999 35.4869 13.5664 35.5018Z" fill="#F6AB16"/>
<path d="M9.93897 24.8757C9.88706 24.8757 9.84998 24.8609 9.82031 24.8164C9.86481 24.8164 9.90931 24.8312 9.93897 24.8757Z" fill="#F38B19"/>
<g filter="url(#filter0_d_1921_391)">
<path d="M57.7632 18.7612C57.5929 19.1018 57.3469 19.3762 57.082 19.6411C54.4042 22.2431 51.7265 24.8546 49.0488 27.4566C48.9826 27.5134 48.9163 27.5702 48.8501 27.627C48.2824 27.5607 47.762 27.3242 47.2227 27.1539C44.9613 26.4348 42.6999 25.6967 40.4385 24.9587C39.814 24.7505 39.1895 24.5424 38.4609 24.2964C38.6691 24.2207 38.7732 24.1639 38.8867 24.1355C39.8045 23.8327 40.7318 23.5394 41.6496 23.2366C44.8383 22.1958 48.0364 21.1645 51.225 20.1237C53.3729 19.4235 55.5302 18.7139 57.6781 18.0137C57.7064 18.0137 57.7254 18.0137 57.7538 18.0137C57.7632 18.2597 57.7632 18.5152 57.7632 18.7612Z" fill="#F6AC16"/>
<path d="M57.6861 18.0048C55.5382 18.705 53.3904 19.4147 51.2331 20.1148C48.0444 21.1557 44.8463 22.187 41.6576 23.2278C40.7398 23.5306 39.8125 23.8239 38.8947 24.1267C38.7812 24.1645 38.6677 24.2118 38.469 24.2875C39.1881 24.5335 39.8125 24.7417 40.4465 24.9499C42.7079 25.6879 44.9598 26.4354 47.2307 27.145C47.77 27.3153 48.2904 27.5519 48.8581 27.6181C48.9906 28.4413 49.1231 29.2645 49.2555 30.0877C49.4637 31.3367 49.6813 32.5951 49.8989 33.8441C50.1166 35.093 50.3247 36.3515 50.5423 37.6004C50.6559 38.2344 50.7978 38.8778 50.8641 39.5117C50.9208 40.0321 50.7316 40.4674 50.268 40.7607C50.2774 40.6566 50.2301 40.5715 50.1639 40.4863C49.7854 39.9848 49.4258 39.4739 49.0568 38.963C47.5051 36.8151 45.9533 34.6767 44.3921 32.5289C42.4619 29.8701 40.5222 27.2113 38.592 24.5525C38.5447 24.4862 38.5163 24.3822 38.3838 24.4389C38.3838 28.0439 38.3838 31.6489 38.3838 35.2539C36.5766 36.2095 34.7599 37.1747 32.9527 38.1208C32.2714 38.4804 31.5807 38.8305 30.89 39.1806C30.5304 38.821 30.4547 38.3763 30.521 37.9032C30.5872 37.4017 30.7007 36.9003 30.7764 36.3988C30.8805 35.6891 31.0697 34.989 31.1171 34.2698C31.1738 34.1752 31.2117 34.0806 31.2022 33.9765C31.3725 33.9576 31.4388 33.8157 31.5239 33.6927C32.4039 32.4721 33.2933 31.261 34.1733 30.0404C35.4601 28.2615 36.7564 26.4922 38.0432 24.7133C38.1094 24.6282 38.2797 24.5336 38.1662 24.4011C38.081 24.297 37.9486 24.42 37.8539 24.4484C36.1981 24.9877 34.5328 25.5365 32.877 26.0853C32.7256 26.1326 32.5742 26.2083 32.4039 26.1799C32.3471 25.8488 32.0159 25.7731 31.8172 25.5744C30.9657 24.7039 30.1141 23.8239 29.2247 22.9913C28.3826 22.2154 27.5783 21.4111 26.793 20.5785C26.916 20.5785 27.039 20.5974 27.162 20.6447C28.0703 20.938 28.9787 21.2313 29.887 21.5247C32.5647 22.3952 35.2424 23.2751 37.9202 24.1456C38.0242 24.1835 38.1283 24.2497 38.2892 24.1645C36.1697 21.2503 34.0597 18.336 31.9497 15.4217C33.1798 12.9333 34.4003 10.4353 35.6304 7.94683C36.1508 6.89656 36.6617 5.84629 37.1821 4.80548C37.4281 4.31346 37.7877 3.97283 38.3838 4.01068C38.3838 10.7286 38.3838 17.4371 38.3838 24.1551C38.4122 24.1645 38.4406 24.174 38.469 24.1929C40.5884 21.2787 42.7079 18.3549 44.8274 15.4407C45.8303 15.5826 46.8427 15.7151 47.8457 15.8664C49.3218 16.0746 50.7978 16.2922 52.2739 16.5099C53.7215 16.718 55.1787 16.9167 56.6264 17.1438C57.1278 17.2006 57.5347 17.4655 57.6861 18.0048Z" fill="#F1D322"/>
<path d="M38.3828 35.2629C38.3828 31.658 38.3828 28.053 38.3828 24.448C38.5153 24.3912 38.5437 24.4953 38.591 24.5615C40.5212 27.2203 42.4609 29.8791 44.3911 32.5379C45.9429 34.6858 47.5041 36.8242 49.0558 38.972C49.4249 39.483 49.7939 39.9939 50.1629 40.4954C50.2291 40.5805 50.267 40.6657 50.267 40.7698C49.8506 41.0158 49.4532 41.0536 48.9991 40.8265C45.8483 39.2275 42.7447 37.5433 39.6129 35.9158C39.1965 35.7077 38.7897 35.4806 38.3828 35.2629Z" fill="#F6AC16"/>
<path d="M44.8186 15.4307C42.6991 18.345 40.5796 21.2687 38.4602 24.183C38.4318 24.1735 38.4034 24.164 38.375 24.1451C38.375 17.4272 38.375 10.7187 38.375 4.00071C38.99 3.98179 39.3401 4.34134 39.5956 4.84282C40.485 6.65951 41.3839 8.46673 42.2828 10.2834C43.1343 12.0055 43.9764 13.7181 44.8186 15.4307Z" fill="#F6AC16"/>
<path d="M31.9499 15.4209C34.0599 18.3352 36.1794 21.24 38.2894 24.1637C38.1285 24.2489 38.0245 24.1826 37.9204 24.1448C35.2427 23.2743 32.5649 22.3943 29.8872 21.5238C28.9789 21.2305 28.0705 20.9372 27.1622 20.6439C27.0392 20.606 26.9162 20.5776 26.7932 20.5776C26.7175 20.5303 26.6418 20.4736 26.5661 20.4262C26.5377 20.3695 26.4809 20.3506 26.4147 20.3506C26.4147 20.2559 26.3674 20.1802 26.3012 20.1235C25.5064 19.4801 24.8346 18.7136 24.1155 17.9945C23.7464 17.635 23.3963 17.2376 23.614 16.6415C24.229 16.4806 24.8724 16.4333 25.5064 16.3387C26.9919 16.1116 28.4774 15.894 29.9724 15.6858C30.6252 15.5912 31.2876 15.5155 31.9499 15.4209Z" fill="#F6AC16"/>
<path d="M26.575 20.4262C26.6507 20.4735 26.7264 20.5302 26.8021 20.5775C27.5875 21.4102 28.3917 22.2145 29.2338 22.9903C30.1233 23.823 30.9748 24.6935 31.8264 25.5734C32.0251 25.7721 32.3468 25.8478 32.413 26.179C32.413 26.2074 32.413 26.2263 32.413 26.2547C32.3184 26.2736 32.2143 26.2925 32.1197 26.3209C30.8897 26.7183 29.6691 27.1157 28.439 27.5226C28.2687 27.5794 28.1079 27.6361 27.9281 27.6361C27.7483 27.4753 27.5685 27.3239 27.3982 27.163C24.7489 24.5799 22.109 21.9968 19.4692 19.4137C19.0623 19.0163 18.8825 18.5622 19.0812 18.0039C21.3048 18.723 23.5189 19.4421 25.7424 20.1612C25.9695 20.2369 26.1871 20.3505 26.4237 20.3505C26.452 20.4072 26.5088 20.4262 26.575 20.4262Z" fill="#EEB516"/>
<path d="M27.918 27.6266C28.0978 27.636 28.2586 27.5698 28.4289 27.513C29.659 27.1156 30.8796 26.7088 32.1096 26.3114C32.2042 26.283 32.2988 26.264 32.4029 26.2451C32.507 26.3303 32.4881 26.4533 32.4692 26.5574C32.261 27.759 32.0434 28.9701 31.8352 30.1718C31.6176 31.4397 31.4094 32.7076 31.1918 33.9755C31.2013 34.0796 31.154 34.1742 31.1066 34.2688C31.0215 34.3067 30.9836 34.3918 30.9363 34.458C29.4887 36.4545 28.041 38.4415 26.5933 40.438C26.5271 40.5326 26.4703 40.6272 26.3378 40.6272C25.7701 40.1541 25.8742 39.5486 25.9878 38.943C26.2338 37.5332 26.4798 36.1233 26.7258 34.7135C26.9718 33.3037 27.2178 31.8939 27.4544 30.484C27.6247 29.5473 27.7666 28.5917 27.918 27.6266Z" fill="#F38B19"/>
<path d="M26.3398 40.6475C26.4723 40.6475 26.5291 40.5528 26.5953 40.4582C28.043 38.4618 29.4907 36.4748 30.9383 34.4783C30.9856 34.4026 31.0235 34.3269 31.1086 34.2891C31.0613 35.0082 30.8721 35.7083 30.768 36.418C30.6923 36.9195 30.5882 37.421 30.5125 37.9224C30.4463 38.3955 30.522 38.8497 30.8816 39.1998C29.8597 39.7486 28.8472 40.3163 27.8064 40.8272C27.3144 41.0827 26.7846 41.0827 26.3398 40.6475Z" fill="#EEB616"/>
<path d="M26.4245 20.3507C26.1785 20.3412 25.9608 20.2277 25.7432 20.1614C23.5197 19.4423 21.3056 18.7232 19.082 18.0041C19.1956 17.5783 19.4794 17.2755 19.8863 17.1904C21.1258 16.9444 22.3653 16.7646 23.6237 16.6416C23.3967 17.2377 23.7562 17.6256 24.1252 17.9947C24.8443 18.7138 25.5161 19.4802 26.3109 20.1236C26.3772 20.1804 26.4245 20.256 26.4245 20.3507Z" fill="#F38B19"/>
<path d="M31.2031 33.9864C31.4113 32.7185 31.6289 31.4506 31.8465 30.1827C32.0547 28.981 32.2723 27.7699 32.4805 26.5682C32.4994 26.4642 32.5183 26.3411 32.4142 26.256C32.4142 26.2276 32.4142 26.2087 32.4142 26.1803C32.5846 26.2087 32.736 26.1424 32.8873 26.0857C34.5432 25.5369 36.199 24.9976 37.8643 24.4488C37.9684 24.4204 38.0914 24.2974 38.1765 24.4015C38.2806 24.5339 38.1103 24.6285 38.0535 24.7137C36.7667 26.4925 35.4799 28.2714 34.1836 30.0408C33.2942 31.2613 32.4142 32.4725 31.5343 33.693C31.4397 33.8255 31.3734 33.9674 31.2031 33.9864Z" fill="#F6AB16"/>
<path d="M26.5733 20.4263C26.507 20.4263 26.4597 20.4074 26.4219 20.3506C26.4786 20.3506 26.5354 20.3695 26.5733 20.4263Z" fill="#F38B19"/>
</g>
</g>
<defs>
<filter id="filter0_d_1921_391" x="14" y="-1" width="48.7617" height="47.001" filterUnits="userSpaceOnUse" color-interpolation-filters="sRGB">
<feFlood flood-opacity="0" result="BackgroundImageFix"/>
<feColorMatrix in="SourceAlpha" type="matrix" values="0 0 0 0 0 0 0 0 0 0 0 0 0 0 0 0 0 0 127 0" result="hardAlpha"/>
<feOffset/>
<feGaussianBlur stdDeviation="2.5"/>
<feComposite in2="hardAlpha" operator="out"/>
<feColorMatrix type="matrix" values="0 0 0 0 0.774884 0 0 0 0 0.126591 0 0 0 0 0.0882508 0 0 0 1 0"/>
<feBlend mode="normal" in2="BackgroundImageFix" result="effect1_dropShadow_1921_391"/>
<feBlend mode="normal" in="SourceGraphic" in2="effect1_dropShadow_1921_391" result="shape"/>
</filter>
<clipPath id="clip0_1921_391">
<rect width="76" height="47" fill="white"/>
</clipPath>
</defs>
</svg>
