<svg width="88" height="70" viewBox="0 0 88 70" fill="none" xmlns="http://www.w3.org/2000/svg">
<path d="M78.3789 30.5693C78.2454 30.8362 78.0525 31.0513 77.8449 31.259C75.7461 33.2984 73.6474 35.3452 71.5486 37.3847C71.4967 37.4292 71.4448 37.4737 71.3929 37.5182C70.9479 37.4662 70.54 37.2808 70.1173 37.1474C68.3449 36.5837 66.5724 36.0053 64.8 35.4268C64.3105 35.2637 63.821 35.1005 63.25 34.9077C63.4132 34.8484 63.4947 34.8039 63.5837 34.7816C64.3031 34.5443 65.0299 34.3144 65.7492 34.0771C68.2485 33.2613 70.7551 32.453 73.2543 31.6372C74.9378 31.0884 76.6287 30.5322 78.3121 29.9834C78.3344 29.9834 78.3492 29.9834 78.3714 29.9834C78.3789 30.1762 78.3789 30.3765 78.3789 30.5693Z" fill="#F6AC16"/>
<path d="M78.323 29.9765C76.6395 30.5253 74.956 31.0815 73.2652 31.6303C70.7659 32.4461 68.2593 33.2544 65.7601 34.0702C65.0407 34.3075 64.3139 34.5374 63.5946 34.7747C63.5056 34.8044 63.4166 34.8415 63.2608 34.9008C63.8245 35.0936 64.3139 35.2568 64.8108 35.4199C66.5833 35.9984 68.3483 36.5843 70.1282 37.1405C70.5509 37.274 70.9588 37.4594 71.4037 37.5113C71.5076 38.1565 71.6114 38.8017 71.7152 39.4469C71.8784 40.4258 72.0489 41.4122 72.2195 42.3911C72.3901 43.37 72.5532 44.3564 72.7238 45.3353C72.8128 45.8322 72.924 46.3365 72.9759 46.8333C73.0204 47.2412 72.8721 47.5824 72.5087 47.8123C72.5161 47.7307 72.4791 47.6639 72.4272 47.5972C72.1305 47.2041 71.8487 46.8037 71.5595 46.4032C70.3432 44.7197 69.127 43.0437 67.9033 41.3602C66.3904 39.2763 64.8701 37.1924 63.3573 35.1085C63.3202 35.0566 63.2979 34.975 63.1941 35.0195C63.1941 37.845 63.1941 40.6705 63.1941 43.4961C61.7776 44.2451 60.3537 45.0016 58.9373 45.7432C58.4033 46.025 57.8619 46.2994 57.3205 46.5738C57.0387 46.292 56.9794 45.9434 57.0313 45.5726C57.0832 45.1795 57.1722 44.7865 57.2316 44.3934C57.3131 43.8372 57.4615 43.2884 57.4985 42.7248C57.543 42.6506 57.5727 42.5765 57.5653 42.4949C57.6988 42.4801 57.7507 42.3688 57.8174 42.2724C58.5071 41.3158 59.2042 40.3665 59.8939 39.4098C60.9025 38.0156 61.9185 36.6288 62.9271 35.2345C62.979 35.1678 63.1125 35.0936 63.0235 34.9898C62.9568 34.9082 62.853 35.0046 62.7788 35.0269C61.481 35.4496 60.1757 35.8797 58.8779 36.3099C58.7593 36.347 58.6406 36.4063 58.5071 36.384C58.4626 36.1245 58.2031 36.0651 58.0473 35.9094C57.3799 35.2271 56.7124 34.5374 56.0153 33.8848C55.3553 33.2767 54.7249 32.6463 54.1094 31.9937C54.2058 31.9937 54.3022 32.0085 54.3986 32.0456C55.1105 32.2755 55.8225 32.5054 56.5344 32.7353C58.6332 33.4176 60.732 34.1073 62.8307 34.7896C62.9123 34.8192 62.9939 34.8712 63.1199 34.8044C61.4587 32.5203 59.8049 30.2361 58.1512 27.9519C59.1152 26.0015 60.0719 24.0436 61.036 22.0932C61.4439 21.27 61.8444 20.4468 62.2523 19.6311C62.4451 19.2454 62.7269 18.9784 63.1941 19.0081C63.1941 24.2735 63.1941 29.5316 63.1941 34.797C63.2164 34.8044 63.2386 34.8118 63.2608 34.8267C64.9221 32.5425 66.5833 30.2509 68.2445 27.9668C69.0306 28.078 69.8241 28.1818 70.6102 28.3005C71.7671 28.4636 72.924 28.6342 74.0809 28.8048C75.2156 28.9679 76.3577 29.1237 77.4924 29.3017C77.8854 29.3462 78.2043 29.5538 78.323 29.9765Z" fill="#F1D322"/>
<path d="M63.1953 43.5031C63.1953 40.6776 63.1953 37.852 63.1953 35.0265C63.2991 34.982 63.3214 35.0636 63.3585 35.1155C64.8714 37.1994 66.3917 39.2833 67.9045 41.3673C69.1208 43.0507 70.3444 44.7268 71.5607 46.4102C71.8499 46.8107 72.1391 47.2111 72.4284 47.6042C72.4803 47.6709 72.5099 47.7377 72.5099 47.8193C72.1836 48.0121 71.8722 48.0418 71.5162 47.8638C69.0466 46.6104 66.6141 45.2904 64.1594 44.0148C63.8331 43.8517 63.5142 43.6737 63.1953 43.5031Z" fill="#F6AC16"/>
<path d="M68.2379 27.9592C66.5767 30.2434 64.9155 32.535 63.2542 34.8191C63.232 34.8117 63.2097 34.8043 63.1875 34.7894C63.1875 29.524 63.1875 24.266 63.1875 19.0006C63.6695 18.9857 63.9439 19.2675 64.1442 19.6606C64.8413 21.0845 65.5458 22.501 66.2504 23.9249C66.9178 25.2746 67.5778 26.6169 68.2379 27.9592Z" fill="#F6AC16"/>
<path d="M58.1487 27.9512C59.8025 30.2353 61.4637 32.5121 63.1175 34.8037C62.9914 34.8704 62.9098 34.8185 62.8282 34.7888C60.7295 34.1065 58.6307 33.4168 56.532 32.7346C55.82 32.5047 55.1081 32.2748 54.3961 32.0449C54.2997 32.0152 54.2033 31.9929 54.1069 31.9929C54.0476 31.9559 53.9882 31.9114 53.9289 31.8743C53.9067 31.8298 53.8622 31.815 53.8103 31.815C53.8103 31.7408 53.7732 31.6815 53.7213 31.637C53.0983 31.1327 52.5718 30.532 52.0081 29.9684C51.7189 29.6865 51.4445 29.3751 51.6151 28.9079C52.0971 28.7818 52.6014 28.7447 53.0983 28.6705C54.2626 28.4925 55.427 28.322 56.5987 28.1588C57.1104 28.0847 57.6295 28.0253 58.1487 27.9512Z" fill="#F6AC16"/>
<path d="M53.9372 31.8741C53.9965 31.9112 54.0559 31.9557 54.1152 31.9928C54.7307 32.6454 55.3611 33.2758 56.0211 33.8839C56.7183 34.5365 57.3857 35.2188 58.0532 35.9085C58.2089 36.0642 58.461 36.1235 58.5129 36.3831C58.5129 36.4053 58.5129 36.4202 58.5129 36.4424C58.4388 36.4573 58.3572 36.4721 58.283 36.4943C57.319 36.8058 56.3623 37.1173 55.3982 37.4362C55.2647 37.4807 55.1386 37.5252 54.9977 37.5252C54.8568 37.3991 54.7159 37.2804 54.5824 37.1544C52.5059 35.1298 50.4368 33.1052 48.3677 31.0806C48.0488 30.7691 47.9079 30.4131 48.0637 29.9756C49.8064 30.5392 51.5418 31.1028 53.2846 31.6665C53.4626 31.7258 53.6332 31.8148 53.8186 31.8148C53.8408 31.8593 53.8853 31.8741 53.9372 31.8741Z" fill="#EEB516"/>
<path d="M54.9891 37.5193C55.13 37.5267 55.2561 37.4748 55.3896 37.4303C56.3537 37.1188 57.3104 36.7999 58.2745 36.4884C58.3486 36.4662 58.4228 36.4514 58.5044 36.4365C58.586 36.5033 58.5711 36.5997 58.5563 36.6813C58.3931 37.6231 58.2226 38.5724 58.0594 39.5142C57.8888 40.508 57.7257 41.5017 57.5551 42.4955C57.5625 42.5771 57.5255 42.6512 57.4884 42.7254C57.4216 42.755 57.392 42.8218 57.3549 42.8737C56.2202 44.4385 55.0856 45.9959 53.9509 47.5607C53.899 47.6348 53.8545 47.709 53.7507 47.709C53.3057 47.3382 53.3873 46.8636 53.4763 46.3889C53.6691 45.2839 53.8619 44.1789 54.0547 43.0739C54.2475 41.9689 54.4404 40.8639 54.6258 39.7589C54.7592 39.0247 54.8705 38.2757 54.9891 37.5193Z" fill="#F38B19"/>
<path d="M53.75 47.7239C53.8538 47.7239 53.8983 47.6497 53.9502 47.5755C55.0849 46.0107 56.2196 44.4534 57.3542 42.8886C57.3913 42.8292 57.421 42.7699 57.4877 42.7402C57.4506 43.3039 57.3023 43.8527 57.2207 44.4089C57.1614 44.8019 57.0798 45.195 57.0205 45.588C56.9686 45.9588 57.0279 46.3148 57.3097 46.5892C56.5088 47.0193 55.7153 47.4643 54.8995 47.8648C54.5139 48.065 54.0986 48.065 53.75 47.7239Z" fill="#EEB616"/>
<path d="M53.8174 31.8143C53.6246 31.8069 53.454 31.7179 53.2834 31.666C51.5407 31.1024 49.8053 30.5388 48.0625 29.9751C48.1515 29.6414 48.374 29.4041 48.6929 29.3374C49.6644 29.1445 50.6359 29.0036 51.6222 28.9072C51.4442 29.3744 51.7261 29.6785 52.0153 29.9677C52.5789 30.5314 53.1055 31.1321 53.7284 31.6364C53.7803 31.6808 53.8174 31.7402 53.8174 31.8143Z" fill="#F38B19"/>
<path d="M57.5664 42.5018C57.7296 41.508 57.9001 40.5142 58.0707 39.5205C58.2339 38.5786 58.4044 37.6294 58.5676 36.6875C58.5824 36.606 58.5972 36.5095 58.5157 36.4428C58.5157 36.4206 58.5157 36.4057 58.5157 36.3835C58.6492 36.4057 58.7678 36.3538 58.8865 36.3093C60.1843 35.8792 61.4821 35.4565 62.7873 35.0263C62.8689 35.0041 62.9653 34.9077 63.0321 34.9892C63.1137 35.0931 62.9802 35.1672 62.9357 35.234C61.9271 36.6282 60.9185 38.0224 59.9025 39.4092C59.2054 40.3659 58.5157 41.3152 57.826 42.2719C57.7518 42.3757 57.6999 42.4869 57.5664 42.5018Z" fill="#F6AB16"/>
<path d="M53.939 31.8757C53.8871 31.8757 53.85 31.8609 53.8203 31.8164C53.8648 31.8164 53.9093 31.8312 53.939 31.8757Z" fill="#F38B19"/>
<path d="M61.999 13.3315C61.9375 13.4545 61.8486 13.5536 61.7529 13.6493C60.7858 14.5891 59.8186 15.5324 58.8515 16.4722C58.8276 16.4927 58.8036 16.5132 58.7797 16.5337C58.5747 16.5097 58.3867 16.4243 58.1919 16.3628C57.3751 16.1031 56.5584 15.8365 55.7416 15.5699C55.516 15.4948 55.2905 15.4196 55.0273 15.3307C55.1025 15.3034 55.1401 15.2829 55.1811 15.2726C55.5126 15.1633 55.8475 15.0573 56.179 14.948C57.3307 14.572 58.4858 14.1995 59.6375 13.8236C60.4133 13.5707 61.1925 13.3144 61.9682 13.0615C61.9785 13.0615 61.9853 13.0615 61.9956 13.0615C61.999 13.1504 61.999 13.2426 61.999 13.3315Z" fill="#F6AC16"/>
<path d="M61.9705 13.0594C61.1948 13.3123 60.419 13.5686 59.6398 13.8215C58.4881 14.1974 57.333 14.5699 56.1813 14.9458C55.8498 15.0552 55.5149 15.1611 55.1834 15.2705C55.1424 15.2842 55.1014 15.3012 55.0297 15.3286C55.2894 15.4174 55.5149 15.4926 55.7439 15.5678C56.5607 15.8344 57.374 16.1043 58.1942 16.3607C58.389 16.4222 58.577 16.5076 58.782 16.5315C58.8299 16.8288 58.8777 17.1262 58.9256 17.4235C59.0008 17.8746 59.0794 18.3291 59.158 18.7802C59.2366 19.2313 59.3117 19.6859 59.3903 20.137C59.4314 20.3659 59.4826 20.5983 59.5065 20.8273C59.527 21.0152 59.4587 21.1724 59.2912 21.2784C59.2947 21.2408 59.2776 21.21 59.2536 21.1793C59.1169 20.9982 58.9871 20.8136 58.8538 20.6291C58.2933 19.8533 57.7329 19.081 57.169 18.3052C56.4718 17.3449 55.7712 16.3846 55.0741 15.4243C55.057 15.4003 55.0467 15.3628 54.9989 15.3833C54.9989 16.6853 54.9989 17.9874 54.9989 19.2894C54.3462 19.6346 53.69 19.9832 53.0373 20.3249C52.7912 20.4548 52.5417 20.5812 52.2923 20.7077C52.1624 20.5778 52.1351 20.4172 52.159 20.2463C52.1829 20.0652 52.2239 19.8841 52.2513 19.7029C52.2888 19.4466 52.3572 19.1937 52.3743 18.934C52.3948 18.8998 52.4085 18.8657 52.405 18.8281C52.4666 18.8212 52.4905 18.77 52.5212 18.7255C52.8391 18.2847 53.1603 17.8473 53.4781 17.4064C53.9429 16.7639 54.4111 16.1248 54.8759 15.4824C54.8998 15.4516 54.9613 15.4174 54.9203 15.3696C54.8895 15.332 54.8417 15.3764 54.8075 15.3867C54.2095 15.5815 53.608 15.7797 53.0099 15.9779C52.9553 15.995 52.9006 16.0223 52.8391 16.0121C52.8186 15.8925 52.6989 15.8651 52.6272 15.7934C52.3196 15.4789 52.012 15.1611 51.6908 14.8604C51.3866 14.5802 51.0961 14.2897 50.8125 13.9889C50.8569 13.9889 50.9014 13.9958 50.9458 14.0129C51.2739 14.1188 51.6019 14.2247 51.93 14.3307C52.8972 14.6451 53.8643 14.9629 54.8314 15.2773C54.869 15.291 54.9066 15.3149 54.9647 15.2842C54.1992 14.2316 53.4371 13.179 52.675 12.1264C53.1193 11.2276 53.5601 10.3254 54.0044 9.42661C54.1924 9.04727 54.3769 8.66793 54.5649 8.29201C54.6537 8.1143 54.7836 7.99127 54.9989 8.00494C54.9989 10.4313 54.9989 12.8543 54.9989 15.2807C55.0092 15.2842 55.0194 15.2876 55.0297 15.2944C55.7952 14.2418 56.5607 13.1858 57.3262 12.1332C57.6884 12.1845 58.0541 12.2324 58.4164 12.287C58.9495 12.3622 59.4826 12.4408 60.0157 12.5194C60.5386 12.5946 61.0649 12.6664 61.5878 12.7484C61.7689 12.7689 61.9159 12.8646 61.9705 13.0594Z" fill="#F1D322"/>
<path d="M55 19.292C55 17.9899 55 16.6878 55 15.3858C55.0478 15.3653 55.0581 15.4029 55.0752 15.4268C55.7723 16.3871 56.4729 17.3474 57.1701 18.3077C57.7306 19.0835 58.2944 19.8558 58.8549 20.6316C58.9882 20.8161 59.1215 21.0007 59.2547 21.1818C59.2787 21.2126 59.2923 21.2433 59.2923 21.2809C59.142 21.3698 58.9984 21.3834 58.8344 21.3014C57.6964 20.7239 56.5755 20.1156 55.4443 19.5278C55.2939 19.4526 55.147 19.3706 55 19.292Z" fill="#F6AC16"/>
<path d="M57.3273 12.1286C56.5618 13.1811 55.7963 14.2371 55.0308 15.2897C55.0205 15.2863 55.0103 15.2829 55 15.276C55 12.8496 55 10.4267 55 8.00026C55.2221 7.99342 55.3486 8.12329 55.4409 8.30441C55.7621 8.96057 56.0868 9.6133 56.4114 10.2695C56.719 10.8914 57.0231 11.51 57.3273 12.1286Z" fill="#F6AC16"/>
<path d="M52.6796 12.126C53.4417 13.1786 54.2072 14.2277 54.9693 15.2837C54.9112 15.3145 54.8736 15.2906 54.836 15.2769C53.8688 14.9625 52.9017 14.6447 51.9345 14.3302C51.6065 14.2243 51.2784 14.1184 50.9503 14.0124C50.9059 13.9987 50.8615 13.9885 50.817 13.9885C50.7897 13.9714 50.7624 13.9509 50.735 13.9338C50.7248 13.9133 50.7043 13.9065 50.6803 13.9065C50.6803 13.8723 50.6632 13.845 50.6393 13.8245C50.3523 13.5921 50.1096 13.3153 49.8499 13.0555C49.7166 12.9257 49.5902 12.7821 49.6688 12.5668C49.8909 12.5087 50.1233 12.4916 50.3523 12.4575C50.8888 12.3755 51.4253 12.2969 51.9653 12.2217C52.2011 12.1875 52.4403 12.1602 52.6796 12.126Z" fill="#F6AC16"/>
<path d="M50.736 13.9335C50.7633 13.9506 50.7906 13.9711 50.818 13.9881C51.1016 14.2889 51.3921 14.5794 51.6963 14.8596C52.0175 15.1603 52.3251 15.4747 52.6327 15.7926C52.7044 15.8643 52.8206 15.8917 52.8445 16.0113C52.8445 16.0215 52.8445 16.0284 52.8445 16.0386C52.8104 16.0455 52.7728 16.0523 52.7386 16.0625C52.2943 16.2061 51.8535 16.3496 51.4092 16.4966C51.3477 16.5171 51.2896 16.5376 51.2247 16.5376C51.1597 16.4795 51.0948 16.4248 51.0333 16.3667C50.0764 15.4337 49.1229 14.5008 48.1695 13.5678C48.0225 13.4243 47.9576 13.2602 48.0293 13.0586C48.8324 13.3183 49.6321 13.578 50.4352 13.8378C50.5173 13.8651 50.5959 13.9061 50.6813 13.9061C50.6915 13.9266 50.712 13.9335 50.736 13.9335Z" fill="#EEB516"/>
<path d="M51.2216 16.5341C51.2865 16.5375 51.3446 16.5136 51.4062 16.4931C51.8504 16.3496 52.2913 16.2026 52.7356 16.0591C52.7697 16.0488 52.8039 16.042 52.8415 16.0352C52.8791 16.0659 52.8722 16.1103 52.8654 16.1479C52.7902 16.582 52.7116 17.0194 52.6364 17.4534C52.5578 17.9113 52.4827 18.3693 52.4041 18.8272C52.4075 18.8648 52.3904 18.899 52.3733 18.9332C52.3425 18.9468 52.3289 18.9776 52.3118 19.0015C51.7889 19.7226 51.266 20.4403 50.7432 21.1614C50.7192 21.1955 50.6987 21.2297 50.6509 21.2297C50.4458 21.0588 50.4834 20.8401 50.5244 20.6214C50.6133 20.1122 50.7022 19.603 50.791 19.0938C50.8799 18.5846 50.9687 18.0754 51.0542 17.5662C51.1157 17.2279 51.1669 16.8827 51.2216 16.5341Z" fill="#F38B19"/>
<path d="M50.6484 21.236C50.6963 21.236 50.7168 21.2018 50.7407 21.1676C51.2636 20.4466 51.7865 19.7289 52.3093 19.0078C52.3264 18.9805 52.3401 18.9531 52.3708 18.9395C52.3538 19.1992 52.2854 19.4521 52.2478 19.7084C52.2205 19.8895 52.1829 20.0706 52.1555 20.2518C52.1316 20.4226 52.159 20.5867 52.2888 20.7131C51.9197 20.9113 51.5541 21.1164 51.1781 21.3009C51.0004 21.3932 50.8091 21.3932 50.6484 21.236Z" fill="#EEB616"/>
<path d="M50.6832 13.9051C50.5944 13.9017 50.5157 13.8607 50.4371 13.8367C49.634 13.577 48.8344 13.3173 48.0312 13.0575C48.0723 12.9038 48.1748 12.7944 48.3217 12.7636C48.7694 12.6748 49.2171 12.6099 49.6716 12.5654C49.5896 12.7807 49.7195 12.9208 49.8528 13.0541C50.1125 13.3139 50.3551 13.5907 50.6422 13.8231C50.6661 13.8436 50.6832 13.8709 50.6832 13.9051Z" fill="#F38B19"/>
<path d="M52.4062 18.8303C52.4814 18.3723 52.56 17.9144 52.6386 17.4564C52.7138 17.0224 52.7924 16.585 52.8676 16.151C52.8744 16.1134 52.8813 16.0689 52.8437 16.0382C52.8437 16.0279 52.8437 16.0211 52.8437 16.0108C52.9052 16.0211 52.9599 15.9972 53.0146 15.9767C53.6126 15.7785 54.2107 15.5837 54.8121 15.3854C54.8497 15.3752 54.8942 15.3308 54.9249 15.3684C54.9625 15.4162 54.901 15.4504 54.8805 15.4811C54.4157 16.1236 53.9509 16.7661 53.4828 17.4052C53.1615 17.846 52.8437 18.2835 52.5259 18.7243C52.4917 18.7722 52.4678 18.8234 52.4062 18.8303Z" fill="#F6AB16"/>
<path d="M50.7344 13.9326C50.7104 13.9326 50.6934 13.9258 50.6797 13.9053C50.7002 13.9053 50.7207 13.9121 50.7344 13.9326Z" fill="#F38B19"/>
<path d="M69.999 51.3315C69.9375 51.4545 69.8486 51.5536 69.7529 51.6493C68.7858 52.5891 67.8186 53.5324 66.8515 54.4722C66.8276 54.4927 66.8036 54.5132 66.7797 54.5337C66.5747 54.5097 66.3867 54.4243 66.1919 54.3628C65.3751 54.1031 64.5584 53.8365 63.7416 53.5699C63.516 53.4948 63.2905 53.4196 63.0273 53.3307C63.1025 53.3034 63.1401 53.2829 63.1811 53.2726C63.5126 53.1633 63.8475 53.0573 64.179 52.948C65.3307 52.572 66.4858 52.1995 67.6375 51.8236C68.4133 51.5707 69.1925 51.3144 69.9682 51.0615C69.9785 51.0615 69.9853 51.0615 69.9956 51.0615C69.999 51.1504 69.999 51.2426 69.999 51.3315Z" fill="#F6AC16"/>
<path d="M69.9705 51.0594C69.1948 51.3123 68.419 51.5686 67.6398 51.8215C66.4881 52.1974 65.333 52.5699 64.1813 52.9458C63.8498 53.0552 63.5149 53.1611 63.1834 53.2705C63.1424 53.2842 63.1014 53.3012 63.0297 53.3286C63.2894 53.4174 63.5149 53.4926 63.7439 53.5678C64.5607 53.8344 65.374 54.1043 66.1942 54.3607C66.389 54.4222 66.577 54.5076 66.782 54.5315C66.8299 54.8288 66.8777 55.1262 66.9256 55.4235C67.0008 55.8746 67.0794 56.3291 67.158 56.7802C67.2366 57.2313 67.3117 57.6859 67.3903 58.137C67.4314 58.3659 67.4826 58.5983 67.5065 58.8273C67.527 59.0152 67.4587 59.1724 67.2912 59.2784C67.2947 59.2408 67.2776 59.21 67.2536 59.1793C67.1169 58.9982 66.9871 58.8136 66.8538 58.6291C66.2933 57.8533 65.7329 57.081 65.169 56.3052C64.4718 55.3449 63.7712 54.3846 63.0741 53.4243C63.057 53.4003 63.0467 53.3628 62.9989 53.3833C62.9989 54.6853 62.9989 55.9874 62.9989 57.2894C62.3462 57.6346 61.69 57.9832 61.0373 58.3249C60.7912 58.4548 60.5417 58.5812 60.2923 58.7077C60.1624 58.5778 60.1351 58.4172 60.159 58.2463C60.1829 58.0652 60.2239 57.8841 60.2513 57.7029C60.2888 57.4466 60.3572 57.1937 60.3743 56.934C60.3948 56.8998 60.4085 56.8657 60.405 56.8281C60.4666 56.8212 60.4905 56.77 60.5212 56.7255C60.8391 56.2847 61.1603 55.8473 61.4781 55.4064C61.9429 54.7639 62.4111 54.1248 62.8759 53.4824C62.8998 53.4516 62.9613 53.4174 62.9203 53.3696C62.8895 53.332 62.8417 53.3764 62.8075 53.3867C62.2095 53.5815 61.608 53.7797 61.0099 53.9779C60.9553 53.995 60.9006 54.0223 60.8391 54.0121C60.8186 53.8925 60.6989 53.8651 60.6272 53.7934C60.3196 53.4789 60.012 53.1611 59.6908 52.8604C59.3866 52.5802 59.0961 52.2897 58.8125 51.9889C58.8569 51.9889 58.9014 51.9958 58.9458 52.0129C59.2739 52.1188 59.6019 52.2247 59.93 52.3307C60.8972 52.6451 61.8643 52.9629 62.8314 53.2773C62.869 53.291 62.9066 53.3149 62.9647 53.2842C62.1992 52.2316 61.4371 51.179 60.675 50.1264C61.1193 49.2276 61.5601 48.3254 62.0044 47.4266C62.1924 47.0473 62.3769 46.6679 62.5649 46.292C62.6537 46.1143 62.7836 45.9913 62.9989 46.0049C62.9989 48.4313 62.9989 50.8543 62.9989 53.2807C63.0092 53.2842 63.0194 53.2876 63.0297 53.2944C63.7952 52.2418 64.5607 51.1858 65.3262 50.1332C65.6884 50.1845 66.0541 50.2324 66.4164 50.287C66.9495 50.3622 67.4826 50.4408 68.0157 50.5194C68.5386 50.5946 69.0649 50.6664 69.5878 50.7484C69.7689 50.7689 69.9159 50.8646 69.9705 51.0594Z" fill="#F1D322"/>
<path d="M63 57.292C63 55.9899 63 54.6878 63 53.3858C63.0478 53.3653 63.0581 53.4029 63.0752 53.4268C63.7723 54.3871 64.4729 55.3474 65.1701 56.3077C65.7306 57.0835 66.2944 57.8558 66.8549 58.6316C66.9882 58.8161 67.1215 59.0007 67.2547 59.1818C67.2787 59.2126 67.2923 59.2433 67.2923 59.2809C67.142 59.3698 66.9984 59.3834 66.8344 59.3014C65.6964 58.7239 64.5755 58.1156 63.4443 57.5278C63.2939 57.4526 63.147 57.3706 63 57.292Z" fill="#F6AC16"/>
<path d="M65.3273 50.1286C64.5618 51.1811 63.7963 52.2371 63.0308 53.2897C63.0205 53.2863 63.0103 53.2829 63 53.276C63 50.8496 63 48.4267 63 46.0003C63.2221 45.9934 63.3486 46.1233 63.4409 46.3044C63.7621 46.9606 64.0868 47.6133 64.4114 48.2695C64.719 48.8914 65.0231 49.51 65.3273 50.1286Z" fill="#F6AC16"/>
<path d="M60.6796 50.126C61.4417 51.1786 62.2072 52.2277 62.9693 53.2837C62.9112 53.3145 62.8736 53.2906 62.836 53.2769C61.8688 52.9625 60.9017 52.6447 59.9345 52.3302C59.6065 52.2243 59.2784 52.1184 58.9503 52.0124C58.9059 51.9987 58.8615 51.9885 58.817 51.9885C58.7897 51.9714 58.7624 51.9509 58.735 51.9338C58.7248 51.9133 58.7043 51.9065 58.6803 51.9065C58.6803 51.8723 58.6632 51.845 58.6393 51.8245C58.3523 51.5921 58.1096 51.3153 57.8499 51.0555C57.7166 50.9257 57.5902 50.7821 57.6688 50.5668C57.8909 50.5087 58.1233 50.4916 58.3523 50.4575C58.8888 50.3755 59.4253 50.2969 59.9653 50.2217C60.2011 50.1875 60.4403 50.1602 60.6796 50.126Z" fill="#F6AC16"/>
<path d="M58.736 51.9335C58.7633 51.9506 58.7906 51.9711 58.818 51.9881C59.1016 52.2889 59.3921 52.5794 59.6963 52.8596C60.0175 53.1603 60.3251 53.4747 60.6327 53.7926C60.7044 53.8643 60.8206 53.8917 60.8445 54.0113C60.8445 54.0215 60.8445 54.0284 60.8445 54.0386C60.8104 54.0455 60.7728 54.0523 60.7386 54.0625C60.2943 54.2061 59.8535 54.3496 59.4092 54.4966C59.3477 54.5171 59.2896 54.5376 59.2247 54.5376C59.1597 54.4795 59.0948 54.4248 59.0333 54.3667C58.0764 53.4337 57.1229 52.5008 56.1695 51.5678C56.0225 51.4243 55.9576 51.2602 56.0293 51.0586C56.8324 51.3183 57.6321 51.578 58.4352 51.8378C58.5173 51.8651 58.5959 51.9061 58.6813 51.9061C58.6915 51.9266 58.712 51.9335 58.736 51.9335Z" fill="#EEB516"/>
<path d="M59.2216 54.5341C59.2865 54.5375 59.3446 54.5136 59.4062 54.4931C59.8504 54.3496 60.2913 54.2026 60.7356 54.0591C60.7697 54.0488 60.8039 54.042 60.8415 54.0352C60.8791 54.0659 60.8722 54.1103 60.8654 54.1479C60.7902 54.582 60.7116 55.0194 60.6364 55.4534C60.5578 55.9113 60.4827 56.3693 60.4041 56.8272C60.4075 56.8648 60.3904 56.899 60.3733 56.9332C60.3425 56.9468 60.3289 56.9776 60.3118 57.0015C59.7889 57.7226 59.266 58.4403 58.7432 59.1614C58.7192 59.1955 58.6987 59.2297 58.6509 59.2297C58.4458 59.0588 58.4834 58.8401 58.5244 58.6214C58.6133 58.1122 58.7022 57.603 58.791 57.0938C58.8799 56.5846 58.9687 56.0754 59.0542 55.5662C59.1157 55.2279 59.1669 54.8827 59.2216 54.5341Z" fill="#F38B19"/>
<path d="M58.6484 59.236C58.6963 59.236 58.7168 59.2018 58.7407 59.1676C59.2636 58.4466 59.7865 57.7289 60.3093 57.0078C60.3264 56.9805 60.3401 56.9531 60.3708 56.9395C60.3538 57.1992 60.2854 57.4521 60.2478 57.7084C60.2205 57.8895 60.1829 58.0706 60.1555 58.2518C60.1316 58.4226 60.159 58.5867 60.2888 58.7131C59.9197 58.9113 59.5541 59.1164 59.1781 59.3009C59.0004 59.3932 58.8091 59.3932 58.6484 59.236Z" fill="#EEB616"/>
<path d="M58.6832 51.9051C58.5944 51.9017 58.5157 51.8607 58.4371 51.8367C57.634 51.577 56.8344 51.3173 56.0312 51.0575C56.0723 50.9038 56.1748 50.7944 56.3217 50.7636C56.7694 50.6748 57.2171 50.6099 57.6716 50.5654C57.5896 50.7807 57.7195 50.9208 57.8528 51.0541C58.1125 51.3139 58.3551 51.5907 58.6422 51.8231C58.6661 51.8436 58.6832 51.8709 58.6832 51.9051Z" fill="#F38B19"/>
<path d="M60.4062 56.8303C60.4814 56.3723 60.56 55.9144 60.6386 55.4564C60.7138 55.0224 60.7924 54.585 60.8676 54.151C60.8744 54.1134 60.8813 54.0689 60.8437 54.0382C60.8437 54.0279 60.8437 54.0211 60.8437 54.0108C60.9052 54.0211 60.9599 53.9972 61.0146 53.9767C61.6126 53.7785 62.2107 53.5837 62.8121 53.3854C62.8497 53.3752 62.8942 53.3308 62.9249 53.3684C62.9625 53.4162 62.901 53.4504 62.8805 53.4811C62.4157 54.1236 61.9509 54.7661 61.4828 55.4052C61.1615 55.846 60.8437 56.2835 60.5259 56.7243C60.4917 56.7722 60.4678 56.8234 60.4062 56.8303Z" fill="#F6AB16"/>
<path d="M58.7344 51.9326C58.7104 51.9326 58.6934 51.9258 58.6797 51.9053C58.7002 51.9053 58.7207 51.9121 58.7344 51.9326Z" fill="#F38B19"/>
<path d="M39.999 13.3315C39.9375 13.4545 39.8486 13.5536 39.7529 13.6493C38.7858 14.5891 37.8186 15.5324 36.8515 16.4722C36.8276 16.4927 36.8036 16.5132 36.7797 16.5337C36.5747 16.5097 36.3867 16.4243 36.1919 16.3628C35.3751 16.1031 34.5584 15.8365 33.7416 15.5699C33.516 15.4948 33.2905 15.4196 33.0273 15.3307C33.1025 15.3034 33.1401 15.2829 33.1811 15.2726C33.5126 15.1633 33.8475 15.0573 34.179 14.948C35.3307 14.572 36.4858 14.1995 37.6375 13.8236C38.4133 13.5707 39.1925 13.3144 39.9682 13.0615C39.9785 13.0615 39.9853 13.0615 39.9956 13.0615C39.999 13.1504 39.999 13.2426 39.999 13.3315Z" fill="#F6AC16"/>
<path d="M39.9705 13.0594C39.1948 13.3123 38.419 13.5686 37.6398 13.8215C36.4881 14.1974 35.333 14.5699 34.1813 14.9458C33.8498 15.0552 33.5149 15.1611 33.1834 15.2705C33.1424 15.2842 33.1014 15.3012 33.0297 15.3286C33.2894 15.4174 33.5149 15.4926 33.7439 15.5678C34.5607 15.8344 35.374 16.1043 36.1942 16.3607C36.389 16.4222 36.577 16.5076 36.782 16.5315C36.8299 16.8288 36.8777 17.1262 36.9256 17.4235C37.0008 17.8746 37.0794 18.3291 37.158 18.7802C37.2366 19.2313 37.3117 19.6859 37.3903 20.137C37.4314 20.3659 37.4826 20.5983 37.5065 20.8273C37.527 21.0152 37.4587 21.1724 37.2912 21.2784C37.2947 21.2408 37.2776 21.21 37.2536 21.1793C37.1169 20.9982 36.9871 20.8136 36.8538 20.6291C36.2933 19.8533 35.7329 19.081 35.169 18.3052C34.4718 17.3449 33.7712 16.3846 33.0741 15.4243C33.057 15.4003 33.0467 15.3628 32.9989 15.3833C32.9989 16.6853 32.9989 17.9874 32.9989 19.2894C32.3462 19.6346 31.69 19.9832 31.0373 20.3249C30.7912 20.4548 30.5417 20.5812 30.2923 20.7077C30.1624 20.5778 30.1351 20.4172 30.159 20.2463C30.1829 20.0652 30.2239 19.8841 30.2513 19.7029C30.2888 19.4466 30.3572 19.1937 30.3743 18.934C30.3948 18.8998 30.4085 18.8657 30.405 18.8281C30.4666 18.8212 30.4905 18.77 30.5212 18.7255C30.8391 18.2847 31.1603 17.8473 31.4781 17.4064C31.9429 16.7639 32.4111 16.1248 32.8759 15.4824C32.8998 15.4516 32.9613 15.4174 32.9203 15.3696C32.8895 15.332 32.8417 15.3764 32.8075 15.3867C32.2095 15.5815 31.608 15.7797 31.0099 15.9779C30.9553 15.995 30.9006 16.0223 30.8391 16.0121C30.8186 15.8925 30.6989 15.8651 30.6272 15.7934C30.3196 15.4789 30.012 15.1611 29.6908 14.8604C29.3866 14.5802 29.0961 14.2897 28.8125 13.9889C28.8569 13.9889 28.9014 13.9958 28.9458 14.0129C29.2739 14.1188 29.6019 14.2247 29.93 14.3307C30.8972 14.6451 31.8643 14.9629 32.8314 15.2773C32.869 15.291 32.9066 15.3149 32.9647 15.2842C32.1992 14.2316 31.4371 13.179 30.675 12.1264C31.1193 11.2276 31.5601 10.3254 32.0044 9.42661C32.1924 9.04727 32.3769 8.66793 32.5649 8.29201C32.6537 8.1143 32.7836 7.99127 32.9989 8.00494C32.9989 10.4313 32.9989 12.8543 32.9989 15.2807C33.0092 15.2842 33.0194 15.2876 33.0297 15.2944C33.7952 14.2418 34.5607 13.1858 35.3262 12.1332C35.6884 12.1845 36.0541 12.2324 36.4164 12.287C36.9495 12.3622 37.4826 12.4408 38.0157 12.5194C38.5386 12.5946 39.0649 12.6664 39.5878 12.7484C39.7689 12.7689 39.9159 12.8646 39.9705 13.0594Z" fill="#F1D322"/>
<path d="M33 19.292C33 17.9899 33 16.6878 33 15.3858C33.0478 15.3653 33.0581 15.4029 33.0752 15.4268C33.7723 16.3871 34.4729 17.3474 35.1701 18.3077C35.7306 19.0835 36.2944 19.8558 36.8549 20.6316C36.9882 20.8161 37.1215 21.0007 37.2547 21.1818C37.2787 21.2126 37.2923 21.2433 37.2923 21.2809C37.142 21.3698 36.9984 21.3834 36.8344 21.3014C35.6964 20.7239 34.5755 20.1156 33.4443 19.5278C33.2939 19.4526 33.147 19.3706 33 19.292Z" fill="#F6AC16"/>
<path d="M35.3273 12.1286C34.5618 13.1811 33.7963 14.2371 33.0308 15.2897C33.0205 15.2863 33.0103 15.2829 33 15.276C33 12.8496 33 10.4267 33 8.00026C33.2221 7.99342 33.3486 8.12329 33.4409 8.30441C33.7621 8.96057 34.0868 9.6133 34.4114 10.2695C34.719 10.8914 35.0231 11.51 35.3273 12.1286Z" fill="#F6AC16"/>
<path d="M30.6796 12.126C31.4417 13.1786 32.2072 14.2277 32.9693 15.2837C32.9112 15.3145 32.8736 15.2906 32.836 15.2769C31.8688 14.9625 30.9017 14.6447 29.9345 14.3302C29.6065 14.2243 29.2784 14.1184 28.9503 14.0124C28.9059 13.9987 28.8615 13.9885 28.817 13.9885C28.7897 13.9714 28.7624 13.9509 28.735 13.9338C28.7248 13.9133 28.7043 13.9065 28.6803 13.9065C28.6803 13.8723 28.6632 13.845 28.6393 13.8245C28.3523 13.5921 28.1096 13.3153 27.8499 13.0555C27.7166 12.9257 27.5902 12.7821 27.6688 12.5668C27.8909 12.5087 28.1233 12.4916 28.3523 12.4575C28.8888 12.3755 29.4253 12.2969 29.9653 12.2217C30.2011 12.1875 30.4403 12.1602 30.6796 12.126Z" fill="#F6AC16"/>
<path d="M28.736 13.9335C28.7633 13.9506 28.7906 13.9711 28.818 13.9881C29.1016 14.2889 29.3921 14.5794 29.6963 14.8596C30.0175 15.1603 30.3251 15.4747 30.6327 15.7926C30.7044 15.8643 30.8206 15.8917 30.8445 16.0113C30.8445 16.0215 30.8445 16.0284 30.8445 16.0386C30.8104 16.0455 30.7728 16.0523 30.7386 16.0625C30.2943 16.2061 29.8535 16.3496 29.4092 16.4966C29.3477 16.5171 29.2896 16.5376 29.2247 16.5376C29.1597 16.4795 29.0948 16.4248 29.0333 16.3667C28.0764 15.4337 27.1229 14.5008 26.1695 13.5678C26.0225 13.4243 25.9576 13.2602 26.0293 13.0586C26.8324 13.3183 27.6321 13.578 28.4352 13.8378C28.5173 13.8651 28.5959 13.9061 28.6813 13.9061C28.6915 13.9266 28.712 13.9335 28.736 13.9335Z" fill="#EEB516"/>
<path d="M29.2216 16.5341C29.2865 16.5375 29.3446 16.5136 29.4062 16.4931C29.8504 16.3496 30.2913 16.2026 30.7356 16.0591C30.7697 16.0488 30.8039 16.042 30.8415 16.0352C30.8791 16.0659 30.8722 16.1103 30.8654 16.1479C30.7902 16.582 30.7116 17.0194 30.6364 17.4534C30.5578 17.9113 30.4827 18.3693 30.4041 18.8272C30.4075 18.8648 30.3904 18.899 30.3733 18.9332C30.3425 18.9468 30.3289 18.9776 30.3118 19.0015C29.7889 19.7226 29.266 20.4403 28.7432 21.1614C28.7192 21.1955 28.6987 21.2297 28.6509 21.2297C28.4458 21.0588 28.4834 20.8401 28.5244 20.6214C28.6133 20.1122 28.7022 19.603 28.791 19.0938C28.8799 18.5846 28.9687 18.0754 29.0542 17.5662C29.1157 17.2279 29.1669 16.8827 29.2216 16.5341Z" fill="#F38B19"/>
<path d="M28.6484 21.236C28.6963 21.236 28.7168 21.2018 28.7407 21.1676C29.2636 20.4466 29.7865 19.7289 30.3093 19.0078C30.3264 18.9805 30.3401 18.9531 30.3708 18.9395C30.3538 19.1992 30.2854 19.4521 30.2478 19.7084C30.2205 19.8895 30.1829 20.0706 30.1555 20.2518C30.1316 20.4226 30.159 20.5867 30.2888 20.7131C29.9197 20.9113 29.5541 21.1164 29.1781 21.3009C29.0004 21.3932 28.8091 21.3932 28.6484 21.236Z" fill="#EEB616"/>
<path d="M28.6832 13.9051C28.5944 13.9017 28.5157 13.8607 28.4371 13.8367C27.634 13.577 26.8344 13.3173 26.0312 13.0575C26.0723 12.9038 26.1748 12.7944 26.3217 12.7636C26.7694 12.6748 27.2171 12.6099 27.6716 12.5654C27.5896 12.7807 27.7195 12.9208 27.8528 13.0541C28.1125 13.3139 28.3551 13.5907 28.6422 13.8231C28.6661 13.8436 28.6832 13.8709 28.6832 13.9051Z" fill="#F38B19"/>
<path d="M30.4062 18.8303C30.4814 18.3723 30.56 17.9144 30.6386 17.4564C30.7138 17.0224 30.7924 16.585 30.8676 16.151C30.8744 16.1134 30.8813 16.0689 30.8437 16.0382C30.8437 16.0279 30.8437 16.0211 30.8437 16.0108C30.9052 16.0211 30.9599 15.9972 31.0146 15.9767C31.6126 15.7785 32.2107 15.5837 32.8121 15.3854C32.8497 15.3752 32.8942 15.3308 32.9249 15.3684C32.9625 15.4162 32.901 15.4504 32.8805 15.4811C32.4157 16.1236 31.9509 16.7661 31.4828 17.4052C31.1615 17.846 30.8437 18.2835 30.5259 18.7243C30.4917 18.7722 30.4678 18.8234 30.4062 18.8303Z" fill="#F6AB16"/>
<path d="M28.7344 13.9326C28.7104 13.9326 28.6934 13.9258 28.6797 13.9053C28.7002 13.9053 28.7207 13.9121 28.7344 13.9326Z" fill="#F38B19"/>
<path d="M31.999 50.3315C31.9375 50.4545 31.8486 50.5536 31.7529 50.6493C30.7858 51.5891 29.8186 52.5324 28.8515 53.4722C28.8276 53.4927 28.8036 53.5132 28.7797 53.5337C28.5747 53.5097 28.3867 53.4243 28.1919 53.3628C27.3751 53.1031 26.5584 52.8365 25.7416 52.5699C25.516 52.4948 25.2905 52.4196 25.0273 52.3307C25.1025 52.3034 25.1401 52.2829 25.1811 52.2726C25.5126 52.1633 25.8475 52.0573 26.179 51.948C27.3307 51.572 28.4858 51.1995 29.6375 50.8236C30.4133 50.5707 31.1925 50.3144 31.9682 50.0615C31.9785 50.0615 31.9853 50.0615 31.9956 50.0615C31.999 50.1504 31.999 50.2426 31.999 50.3315Z" fill="#F6AC16"/>
<path d="M31.9705 50.0594C31.1948 50.3123 30.419 50.5686 29.6398 50.8215C28.4881 51.1974 27.333 51.5699 26.1813 51.9458C25.8498 52.0552 25.5149 52.1611 25.1834 52.2705C25.1424 52.2842 25.1014 52.3012 25.0297 52.3286C25.2894 52.4174 25.5149 52.4926 25.7439 52.5678C26.5607 52.8344 27.374 53.1043 28.1942 53.3607C28.389 53.4222 28.577 53.5076 28.782 53.5315C28.8299 53.8288 28.8777 54.1262 28.9256 54.4235C29.0008 54.8746 29.0794 55.3291 29.158 55.7802C29.2366 56.2313 29.3117 56.6859 29.3903 57.137C29.4314 57.3659 29.4826 57.5983 29.5065 57.8273C29.527 58.0152 29.4587 58.1724 29.2912 58.2784C29.2947 58.2408 29.2776 58.21 29.2536 58.1793C29.1169 57.9982 28.9871 57.8136 28.8538 57.6291C28.2933 56.8533 27.7329 56.081 27.169 55.3052C26.4718 54.3449 25.7712 53.3846 25.0741 52.4243C25.057 52.4003 25.0467 52.3628 24.9989 52.3833C24.9989 53.6853 24.9989 54.9874 24.9989 56.2894C24.3462 56.6346 23.69 56.9832 23.0373 57.3249C22.7912 57.4548 22.5417 57.5812 22.2923 57.7077C22.1624 57.5778 22.1351 57.4172 22.159 57.2463C22.1829 57.0652 22.2239 56.8841 22.2513 56.7029C22.2888 56.4466 22.3572 56.1937 22.3743 55.934C22.3948 55.8998 22.4085 55.8657 22.405 55.8281C22.4666 55.8212 22.4905 55.77 22.5212 55.7255C22.8391 55.2847 23.1603 54.8473 23.4781 54.4064C23.9429 53.7639 24.4111 53.1248 24.8759 52.4824C24.8998 52.4516 24.9613 52.4174 24.9203 52.3696C24.8895 52.332 24.8417 52.3764 24.8075 52.3867C24.2095 52.5815 23.608 52.7797 23.0099 52.9779C22.9553 52.995 22.9006 53.0223 22.8391 53.0121C22.8186 52.8925 22.6989 52.8651 22.6272 52.7934C22.3196 52.4789 22.012 52.1611 21.6908 51.8604C21.3866 51.5802 21.0961 51.2897 20.8125 50.9889C20.8569 50.9889 20.9014 50.9958 20.9458 51.0129C21.2739 51.1188 21.6019 51.2247 21.93 51.3307C22.8972 51.6451 23.8643 51.9629 24.8314 52.2773C24.869 52.291 24.9066 52.3149 24.9647 52.2842C24.1992 51.2316 23.4371 50.179 22.675 49.1264C23.1193 48.2276 23.5601 47.3254 24.0044 46.4266C24.1924 46.0473 24.3769 45.6679 24.5649 45.292C24.6537 45.1143 24.7836 44.9913 24.9989 45.0049C24.9989 47.4313 24.9989 49.8543 24.9989 52.2807C25.0092 52.2842 25.0194 52.2876 25.0297 52.2944C25.7952 51.2418 26.5607 50.1858 27.3262 49.1332C27.6884 49.1845 28.0541 49.2324 28.4164 49.287C28.9495 49.3622 29.4826 49.4408 30.0157 49.5194C30.5386 49.5946 31.0649 49.6664 31.5878 49.7484C31.7689 49.7689 31.9159 49.8646 31.9705 50.0594Z" fill="#F1D322"/>
<path d="M25 56.292C25 54.9899 25 53.6878 25 52.3858C25.0478 52.3653 25.0581 52.4029 25.0752 52.4268C25.7723 53.3871 26.4729 54.3474 27.1701 55.3077C27.7306 56.0835 28.2944 56.8558 28.8549 57.6316C28.9882 57.8161 29.1215 58.0007 29.2547 58.1818C29.2787 58.2126 29.2923 58.2433 29.2923 58.2809C29.142 58.3698 28.9984 58.3834 28.8344 58.3014C27.6964 57.7239 26.5755 57.1156 25.4443 56.5278C25.2939 56.4526 25.147 56.3706 25 56.292Z" fill="#F6AC16"/>
<path d="M27.3273 49.1286C26.5618 50.1811 25.7963 51.2371 25.0308 52.2897C25.0205 52.2863 25.0103 52.2829 25 52.276C25 49.8496 25 47.4267 25 45.0003C25.2221 44.9934 25.3486 45.1233 25.4409 45.3044C25.7621 45.9606 26.0868 46.6133 26.4114 47.2695C26.719 47.8914 27.0231 48.51 27.3273 49.1286Z" fill="#F6AC16"/>
<path d="M22.6796 49.126C23.4417 50.1786 24.2072 51.2277 24.9693 52.2837C24.9112 52.3145 24.8736 52.2906 24.836 52.2769C23.8688 51.9625 22.9017 51.6447 21.9345 51.3302C21.6065 51.2243 21.2784 51.1184 20.9503 51.0124C20.9059 50.9987 20.8615 50.9885 20.817 50.9885C20.7897 50.9714 20.7624 50.9509 20.735 50.9338C20.7248 50.9133 20.7043 50.9065 20.6803 50.9065C20.6803 50.8723 20.6632 50.845 20.6393 50.8245C20.3523 50.5921 20.1096 50.3153 19.8499 50.0555C19.7166 49.9257 19.5902 49.7821 19.6688 49.5668C19.8909 49.5087 20.1233 49.4916 20.3523 49.4575C20.8888 49.3755 21.4253 49.2969 21.9653 49.2217C22.2011 49.1875 22.4403 49.1602 22.6796 49.126Z" fill="#F6AC16"/>
<path d="M20.736 50.9335C20.7633 50.9506 20.7906 50.9711 20.818 50.9881C21.1016 51.2889 21.3921 51.5794 21.6963 51.8596C22.0175 52.1603 22.3251 52.4747 22.6327 52.7926C22.7044 52.8643 22.8206 52.8917 22.8445 53.0113C22.8445 53.0215 22.8445 53.0284 22.8445 53.0386C22.8104 53.0455 22.7728 53.0523 22.7386 53.0625C22.2943 53.2061 21.8535 53.3496 21.4092 53.4966C21.3477 53.5171 21.2896 53.5376 21.2247 53.5376C21.1597 53.4795 21.0948 53.4248 21.0333 53.3667C20.0764 52.4337 19.1229 51.5008 18.1695 50.5678C18.0225 50.4243 17.9576 50.2602 18.0293 50.0586C18.8324 50.3183 19.6321 50.578 20.4352 50.8378C20.5173 50.8651 20.5959 50.9061 20.6813 50.9061C20.6915 50.9266 20.712 50.9335 20.736 50.9335Z" fill="#EEB516"/>
<path d="M21.2216 53.5341C21.2865 53.5375 21.3446 53.5136 21.4062 53.4931C21.8504 53.3496 22.2913 53.2026 22.7356 53.0591C22.7697 53.0488 22.8039 53.042 22.8415 53.0352C22.8791 53.0659 22.8722 53.1103 22.8654 53.1479C22.7902 53.582 22.7116 54.0194 22.6364 54.4534C22.5578 54.9113 22.4827 55.3693 22.4041 55.8272C22.4075 55.8648 22.3904 55.899 22.3733 55.9332C22.3425 55.9468 22.3289 55.9776 22.3118 56.0015C21.7889 56.7226 21.266 57.4403 20.7432 58.1614C20.7192 58.1955 20.6987 58.2297 20.6509 58.2297C20.4458 58.0588 20.4834 57.8401 20.5244 57.6214C20.6133 57.1122 20.7022 56.603 20.791 56.0938C20.8799 55.5846 20.9687 55.0754 21.0542 54.5662C21.1157 54.2279 21.1669 53.8827 21.2216 53.5341Z" fill="#F38B19"/>
<path d="M20.6484 58.236C20.6963 58.236 20.7168 58.2018 20.7407 58.1676C21.2636 57.4466 21.7865 56.7289 22.3093 56.0078C22.3264 55.9805 22.3401 55.9531 22.3708 55.9395C22.3538 56.1992 22.2854 56.4521 22.2478 56.7084C22.2205 56.8895 22.1829 57.0706 22.1555 57.2518C22.1316 57.4226 22.159 57.5867 22.2888 57.7131C21.9197 57.9113 21.5541 58.1164 21.1781 58.3009C21.0004 58.3932 20.8091 58.3932 20.6484 58.236Z" fill="#EEB616"/>
<path d="M20.6832 50.9051C20.5944 50.9017 20.5157 50.8607 20.4371 50.8367C19.634 50.577 18.8344 50.3173 18.0312 50.0575C18.0723 49.9038 18.1748 49.7944 18.3217 49.7636C18.7694 49.6748 19.2171 49.6099 19.6716 49.5654C19.5896 49.7807 19.7195 49.9208 19.8528 50.0541C20.1125 50.3139 20.3551 50.5907 20.6422 50.8231C20.6661 50.8436 20.6832 50.8709 20.6832 50.9051Z" fill="#F38B19"/>
<path d="M22.4062 55.8303C22.4814 55.3723 22.56 54.9144 22.6386 54.4564C22.7138 54.0224 22.7924 53.585 22.8676 53.151C22.8744 53.1134 22.8813 53.0689 22.8437 53.0382C22.8437 53.0279 22.8437 53.0211 22.8437 53.0108C22.9052 53.0211 22.9599 52.9972 23.0146 52.9767C23.6126 52.7785 24.2107 52.5837 24.8121 52.3854C24.8497 52.3752 24.8942 52.3308 24.9249 52.3684C24.9625 52.4162 24.901 52.4504 24.8805 52.4811C24.4157 53.1236 23.9509 53.7661 23.4828 54.4052C23.1615 54.846 22.8437 55.2835 22.5259 55.7243C22.4917 55.7722 22.4678 55.8234 22.4062 55.8303Z" fill="#F6AB16"/>
<path d="M20.7344 50.9326C20.7104 50.9326 20.6934 50.9258 20.6797 50.9053C20.7002 50.9053 20.7207 50.9121 20.7344 50.9326Z" fill="#F38B19"/>
<path d="M40.3789 30.5693C40.2454 30.8362 40.0525 31.0513 39.8449 31.259C37.7461 33.2984 35.6474 35.3452 33.5486 37.3847C33.4967 37.4292 33.4448 37.4737 33.3929 37.5182C32.9479 37.4662 32.54 37.2808 32.1173 37.1474C30.3449 36.5837 28.5724 36.0053 26.8 35.4268C26.3105 35.2637 25.821 35.1005 25.25 34.9077C25.4132 34.8484 25.4947 34.8039 25.5837 34.7816C26.3031 34.5443 27.0299 34.3144 27.7492 34.0771C30.2485 33.2613 32.7551 32.453 35.2543 31.6372C36.9378 31.0884 38.6287 30.5322 40.3121 29.9834C40.3344 29.9834 40.3492 29.9834 40.3714 29.9834C40.3789 30.1762 40.3789 30.3765 40.3789 30.5693Z" fill="#F6AC16"/>
<path d="M40.323 29.9765C38.6395 30.5253 36.956 31.0815 35.2652 31.6303C32.7659 32.4461 30.2593 33.2544 27.7601 34.0702C27.0407 34.3075 26.3139 34.5374 25.5946 34.7747C25.5056 34.8044 25.4166 34.8415 25.2608 34.9008C25.8245 35.0936 26.3139 35.2568 26.8108 35.4199C28.5833 35.9984 30.3483 36.5843 32.1282 37.1405C32.5509 37.274 32.9588 37.4594 33.4037 37.5113C33.5076 38.1565 33.6114 38.8017 33.7152 39.4469C33.8784 40.4258 34.0489 41.4122 34.2195 42.3911C34.3901 43.37 34.5532 44.3564 34.7238 45.3353C34.8128 45.8322 34.924 46.3365 34.9759 46.8333C35.0204 47.2412 34.8721 47.5824 34.5087 47.8123C34.5161 47.7307 34.4791 47.6639 34.4272 47.5972C34.1305 47.2041 33.8487 46.8037 33.5595 46.4032C32.3432 44.7197 31.127 43.0437 29.9033 41.3602C28.3904 39.2763 26.8701 37.1924 25.3573 35.1085C25.3202 35.0566 25.2979 34.975 25.1941 35.0195C25.1941 37.845 25.1941 40.6705 25.1941 43.4961C23.7776 44.2451 22.3537 45.0016 20.9373 45.7432C20.4033 46.025 19.8619 46.2994 19.3205 46.5738C19.0387 46.292 18.9794 45.9434 19.0313 45.5726C19.0832 45.1795 19.1722 44.7865 19.2316 44.3934C19.3131 43.8372 19.4615 43.2884 19.4985 42.7248C19.543 42.6506 19.5727 42.5765 19.5653 42.4949C19.6988 42.4801 19.7507 42.3688 19.8174 42.2724C20.5071 41.3158 21.2042 40.3665 21.8939 39.4098C22.9025 38.0156 23.9185 36.6288 24.9271 35.2345C24.979 35.1678 25.1125 35.0936 25.0235 34.9898C24.9568 34.9082 24.853 35.0046 24.7788 35.0269C23.481 35.4496 22.1757 35.8797 20.8779 36.3099C20.7593 36.347 20.6406 36.4063 20.5071 36.384C20.4626 36.1245 20.2031 36.0651 20.0473 35.9094C19.3799 35.2271 18.7124 34.5374 18.0153 33.8848C17.3553 33.2767 16.7249 32.6463 16.1094 31.9937C16.2058 31.9937 16.3022 32.0085 16.3986 32.0456C17.1105 32.2755 17.8225 32.5054 18.5344 32.7353C20.6332 33.4176 22.732 34.1073 24.8307 34.7896C24.9123 34.8192 24.9939 34.8712 25.1199 34.8044C23.4587 32.5203 21.8049 30.2361 20.1512 27.9519C21.1152 26.0015 22.0719 24.0436 23.036 22.0932C23.4439 21.27 23.8444 20.4468 24.2523 19.6311C24.4451 19.2454 24.7269 18.9784 25.1941 19.0081C25.1941 24.2735 25.1941 29.5316 25.1941 34.797C25.2164 34.8044 25.2386 34.8118 25.2608 34.8267C26.9221 32.5425 28.5833 30.2509 30.2445 27.9668C31.0306 28.078 31.8241 28.1818 32.6102 28.3005C33.7671 28.4636 34.924 28.6342 36.0809 28.8048C37.2156 28.9679 38.3577 29.1237 39.4924 29.3017C39.8854 29.3462 40.2043 29.5538 40.323 29.9765Z" fill="#F1D322"/>
<path d="M25.1953 43.5031C25.1953 40.6776 25.1953 37.852 25.1953 35.0265C25.2991 34.982 25.3214 35.0636 25.3585 35.1155C26.8714 37.1994 28.3917 39.2833 29.9045 41.3673C31.1208 43.0507 32.3444 44.7268 33.5607 46.4102C33.8499 46.8107 34.1391 47.2111 34.4284 47.6042C34.4803 47.6709 34.5099 47.7377 34.5099 47.8193C34.1836 48.0121 33.8722 48.0418 33.5162 47.8638C31.0466 46.6104 28.6141 45.2904 26.1594 44.0148C25.8331 43.8517 25.5142 43.6737 25.1953 43.5031Z" fill="#F6AC16"/>
<path d="M30.2379 27.9592C28.5767 30.2434 26.9155 32.535 25.2542 34.8191C25.232 34.8117 25.2097 34.8043 25.1875 34.7894C25.1875 29.524 25.1875 24.266 25.1875 19.0006C25.6695 18.9857 25.9439 19.2675 26.1442 19.6606C26.8413 21.0845 27.5458 22.501 28.2504 23.9249C28.9178 25.2746 29.5778 26.6169 30.2379 27.9592Z" fill="#F6AC16"/>
<path d="M20.1487 27.9512C21.8025 30.2353 23.4637 32.5121 25.1175 34.8037C24.9914 34.8704 24.9098 34.8185 24.8282 34.7888C22.7295 34.1065 20.6307 33.4168 18.532 32.7346C17.82 32.5047 17.1081 32.2748 16.3961 32.0449C16.2997 32.0152 16.2033 31.9929 16.1069 31.9929C16.0476 31.9559 15.9882 31.9114 15.9289 31.8743C15.9067 31.8298 15.8622 31.815 15.8103 31.815C15.8103 31.7408 15.7732 31.6815 15.7213 31.637C15.0983 31.1327 14.5718 30.532 14.0081 29.9684C13.7189 29.6865 13.4445 29.3751 13.6151 28.9079C14.0971 28.7818 14.6014 28.7447 15.0983 28.6705C16.2626 28.4925 17.427 28.322 18.5987 28.1588C19.1104 28.0847 19.6295 28.0253 20.1487 27.9512Z" fill="#F6AC16"/>
<path d="M15.9372 31.8741C15.9965 31.9112 16.0559 31.9557 16.1152 31.9928C16.7307 32.6454 17.3611 33.2758 18.0211 33.8839C18.7183 34.5365 19.3857 35.2188 20.0532 35.9085C20.2089 36.0642 20.461 36.1235 20.5129 36.3831C20.5129 36.4053 20.5129 36.4202 20.5129 36.4424C20.4388 36.4573 20.3572 36.4721 20.283 36.4943C19.319 36.8058 18.3623 37.1173 17.3982 37.4362C17.2647 37.4807 17.1386 37.5252 16.9977 37.5252C16.8568 37.3991 16.7159 37.2804 16.5824 37.1544C14.5059 35.1298 12.4368 33.1052 10.3677 31.0806C10.0488 30.7691 9.90792 30.4131 10.0637 29.9756C11.8064 30.5392 13.5418 31.1028 15.2846 31.6665C15.4626 31.7258 15.6332 31.8148 15.8186 31.8148C15.8408 31.8593 15.8853 31.8741 15.9372 31.8741Z" fill="#EEB516"/>
<path d="M16.9891 37.5193C17.13 37.5267 17.2561 37.4748 17.3896 37.4303C18.3537 37.1188 19.3104 36.7999 20.2745 36.4884C20.3486 36.4662 20.4228 36.4514 20.5044 36.4365C20.586 36.5033 20.5711 36.5997 20.5563 36.6813C20.3931 37.6231 20.2226 38.5724 20.0594 39.5142C19.8888 40.508 19.7257 41.5017 19.5551 42.4955C19.5625 42.5771 19.5255 42.6512 19.4884 42.7254C19.4216 42.755 19.392 42.8218 19.3549 42.8737C18.2202 44.4385 17.0856 45.9959 15.9509 47.5607C15.899 47.6348 15.8545 47.709 15.7507 47.709C15.3057 47.3382 15.3873 46.8636 15.4763 46.3889C15.6691 45.2839 15.8619 44.1789 16.0547 43.0739C16.2475 41.9689 16.4404 40.8639 16.6258 39.7589C16.7592 39.0247 16.8705 38.2757 16.9891 37.5193Z" fill="#F38B19"/>
<path d="M15.75 47.7239C15.8538 47.7239 15.8983 47.6497 15.9502 47.5755C17.0849 46.0107 18.2196 44.4534 19.3542 42.8886C19.3913 42.8292 19.421 42.7699 19.4877 42.7402C19.4506 43.3039 19.3023 43.8527 19.2207 44.4089C19.1614 44.8019 19.0798 45.195 19.0205 45.588C18.9686 45.9588 19.0279 46.3148 19.3097 46.5892C18.5088 47.0193 17.7153 47.4643 16.8995 47.8648C16.5139 48.065 16.0986 48.065 15.75 47.7239Z" fill="#EEB616"/>
<path d="M15.8174 31.8143C15.6246 31.8069 15.454 31.7179 15.2834 31.666C13.5407 31.1024 11.8053 30.5388 10.0625 29.9751C10.1515 29.6414 10.374 29.4041 10.6929 29.3374C11.6644 29.1445 12.6359 29.0036 13.6222 28.9072C13.4442 29.3744 13.7261 29.6785 14.0153 29.9677C14.5789 30.5314 15.1055 31.1321 15.7284 31.6364C15.7803 31.6808 15.8174 31.7402 15.8174 31.8143Z" fill="#F38B19"/>
<path d="M19.5664 42.5018C19.7296 41.508 19.9001 40.5142 20.0707 39.5205C20.2339 38.5786 20.4044 37.6294 20.5676 36.6875C20.5824 36.606 20.5972 36.5095 20.5157 36.4428C20.5157 36.4206 20.5157 36.4057 20.5157 36.3835C20.6492 36.4057 20.7678 36.3538 20.8865 36.3093C22.1843 35.8792 23.4821 35.4565 24.7873 35.0263C24.8689 35.0041 24.9653 34.9077 25.0321 34.9892C25.1137 35.0931 24.9802 35.1672 24.9357 35.234C23.9271 36.6282 22.9185 38.0224 21.9025 39.4092C21.2054 40.3659 20.5157 41.3152 19.826 42.2719C19.7518 42.3757 19.6999 42.4869 19.5664 42.5018Z" fill="#F6AB16"/>
<path d="M15.939 31.8757C15.8871 31.8757 15.85 31.8609 15.8203 31.8164C15.8648 31.8164 15.9093 31.8312 15.939 31.8757Z" fill="#F38B19"/>
<g filter="url(#filter0_d_1921_391)">
<path d="M63.7632 25.7612C63.5929 26.1018 63.3469 26.3762 63.082 26.6411C60.4042 29.2431 57.7265 31.8546 55.0488 34.4566C54.9826 34.5134 54.9163 34.5702 54.8501 34.627C54.2824 34.5607 53.762 34.3242 53.2227 34.1539C50.9613 33.4348 48.6999 32.6967 46.4385 31.9587C45.814 31.7505 45.1895 31.5424 44.4609 31.2964C44.6691 31.2207 44.7732 31.1639 44.8867 31.1355C45.8045 30.8327 46.7318 30.5394 47.6496 30.2366C50.8383 29.1958 54.0364 28.1645 57.225 27.1237C59.3729 26.4235 61.5302 25.7139 63.6781 25.0137C63.7064 25.0137 63.7254 25.0137 63.7538 25.0137C63.7632 25.2597 63.7632 25.5152 63.7632 25.7612Z" fill="#F6AC16"/>
<path d="M63.6861 25.0048C61.5382 25.705 59.3904 26.4147 57.2331 27.1148C54.0444 28.1557 50.8463 29.187 47.6576 30.2278C46.7398 30.5306 45.8125 30.8239 44.8947 31.1267C44.7812 31.1645 44.6677 31.2118 44.469 31.2875C45.1881 31.5335 45.8125 31.7417 46.4465 31.9499C48.7079 32.6879 50.9598 33.4354 53.2307 34.145C53.77 34.3153 54.2904 34.5519 54.8581 34.6181C54.9906 35.4413 55.1231 36.2645 55.2555 37.0877C55.4637 38.3367 55.6813 39.5951 55.8989 40.8441C56.1166 42.093 56.3247 43.3515 56.5423 44.6004C56.6559 45.2344 56.7978 45.8778 56.8641 46.5117C56.9208 47.0321 56.7316 47.4674 56.268 47.7607C56.2774 47.6566 56.2301 47.5715 56.1639 47.4863C55.7854 46.9848 55.4258 46.4739 55.0568 45.963C53.5051 43.8151 51.9533 41.6767 50.3921 39.5289C48.4619 36.8701 46.5222 34.2113 44.592 31.5525C44.5447 31.4862 44.5163 31.3822 44.3838 31.4389C44.3838 35.0439 44.3838 38.6489 44.3838 42.2539C42.5766 43.2095 40.7599 44.1747 38.9527 45.1208C38.2714 45.4804 37.5807 45.8305 36.89 46.1806C36.5304 45.821 36.4547 45.3763 36.521 44.9032C36.5872 44.4017 36.7007 43.9003 36.7764 43.3988C36.8805 42.6891 37.0697 41.989 37.1171 41.2698C37.1738 41.1752 37.2117 41.0806 37.2022 40.9765C37.3725 40.9576 37.4388 40.8157 37.5239 40.6927C38.4039 39.4721 39.2933 38.261 40.1733 37.0404C41.4601 35.2615 42.7564 33.4922 44.0432 31.7133C44.1094 31.6282 44.2797 31.5336 44.1662 31.4011C44.081 31.297 43.9486 31.42 43.8539 31.4484C42.1981 31.9877 40.5328 32.5365 38.877 33.0853C38.7256 33.1326 38.5742 33.2083 38.4039 33.1799C38.3471 32.8488 38.0159 32.7731 37.8172 32.5744C36.9657 31.7039 36.1141 30.8239 35.2247 29.9913C34.3826 29.2154 33.5783 28.4111 32.793 27.5785C32.916 27.5785 33.039 27.5974 33.162 27.6447C34.0703 27.938 34.9787 28.2313 35.887 28.5247C38.5647 29.3952 41.2424 30.2751 43.9202 31.1456C44.0242 31.1835 44.1283 31.2497 44.2892 31.1645C42.1697 28.2503 40.0597 25.336 37.9497 22.4217C39.1798 19.9333 40.4003 17.4353 41.6304 14.9468C42.1508 13.8966 42.6617 12.8463 43.1821 11.8055C43.4281 11.3135 43.7877 10.9728 44.3838 11.0107C44.3838 17.7286 44.3838 24.4371 44.3838 31.1551C44.4122 31.1645 44.4406 31.174 44.469 31.1929C46.5884 28.2787 48.7079 25.3549 50.8274 22.4407C51.8303 22.5826 52.8427 22.7151 53.8457 22.8664C55.3218 23.0746 56.7978 23.2922 58.2739 23.5099C59.7215 23.718 61.1787 23.9167 62.6264 24.1438C63.1278 24.2006 63.5347 24.4655 63.6861 25.0048Z" fill="#F1D322"/>
<path d="M44.3828 42.2629C44.3828 38.658 44.3828 35.053 44.3828 31.448C44.5153 31.3912 44.5437 31.4953 44.591 31.5615C46.5212 34.2203 48.4609 36.8791 50.3911 39.5379C51.9429 41.6858 53.5041 43.8242 55.0558 45.972C55.4249 46.483 55.7939 46.9939 56.1629 47.4954C56.2291 47.5805 56.267 47.6657 56.267 47.7698C55.8506 48.0158 55.4532 48.0536 54.9991 47.8265C51.8483 46.2275 48.7447 44.5433 45.6129 42.9158C45.1965 42.7077 44.7897 42.4806 44.3828 42.2629Z" fill="#F6AC16"/>
<path d="M50.8186 22.4307C48.6991 25.345 46.5796 28.2687 44.4602 31.183C44.4318 31.1735 44.4034 31.164 44.375 31.1451C44.375 24.4272 44.375 17.7187 44.375 11.0007C44.99 10.9818 45.3401 11.3413 45.5956 11.8428C46.485 13.6595 47.3839 15.4667 48.2828 17.2834C49.1343 19.0055 49.9764 20.7181 50.8186 22.4307Z" fill="#F6AC16"/>
<path d="M37.9499 22.4209C40.0599 25.3352 42.1794 28.24 44.2894 31.1637C44.1285 31.2489 44.0245 31.1826 43.9204 31.1448C41.2427 30.2743 38.5649 29.3943 35.8872 28.5238C34.9789 28.2305 34.0705 27.9372 33.1622 27.6439C33.0392 27.606 32.9162 27.5776 32.7932 27.5776C32.7175 27.5303 32.6418 27.4736 32.5661 27.4262C32.5377 27.3695 32.4809 27.3506 32.4147 27.3506C32.4147 27.2559 32.3674 27.1802 32.3012 27.1235C31.5064 26.4801 30.8346 25.7136 30.1155 24.9945C29.7464 24.635 29.3963 24.2376 29.614 23.6415C30.229 23.4806 30.8724 23.4333 31.5064 23.3387C32.9919 23.1116 34.4774 22.894 35.9724 22.6858C36.6252 22.5912 37.2876 22.5155 37.9499 22.4209Z" fill="#F6AC16"/>
<path d="M32.575 27.4262C32.6507 27.4735 32.7264 27.5302 32.8021 27.5775C33.5875 28.4102 34.3917 29.2145 35.2338 29.9903C36.1233 30.823 36.9748 31.6935 37.8264 32.5734C38.0251 32.7721 38.3468 32.8478 38.413 33.179C38.413 33.2074 38.413 33.2263 38.413 33.2547C38.3184 33.2736 38.2143 33.2925 38.1197 33.3209C36.8897 33.7183 35.6691 34.1157 34.439 34.5226C34.2687 34.5794 34.1079 34.6361 33.9281 34.6361C33.7483 34.4753 33.5685 34.3239 33.3982 34.163C30.7489 31.5799 28.109 28.9968 25.4692 26.4137C25.0623 26.0163 24.8825 25.5622 25.0812 25.0039C27.3048 25.723 29.5189 26.4421 31.7424 27.1612C31.9695 27.2369 32.1871 27.3505 32.4237 27.3505C32.452 27.4072 32.5088 27.4262 32.575 27.4262Z" fill="#EEB516"/>
<path d="M33.918 34.6266C34.0978 34.636 34.2586 34.5698 34.4289 34.513C35.659 34.1156 36.8796 33.7088 38.1096 33.3114C38.2042 33.283 38.2988 33.264 38.4029 33.2451C38.507 33.3303 38.4881 33.4533 38.4692 33.5574C38.261 34.759 38.0434 35.9701 37.8352 37.1718C37.6176 38.4397 37.4094 39.7076 37.1918 40.9755C37.2013 41.0796 37.154 41.1742 37.1066 41.2688C37.0215 41.3067 36.9836 41.3918 36.9363 41.458C35.4887 43.4545 34.041 45.4415 32.5933 47.438C32.5271 47.5326 32.4703 47.6272 32.3378 47.6272C31.7701 47.1541 31.8742 46.5486 31.9878 45.943C32.2338 44.5332 32.4798 43.1233 32.7258 41.7135C32.9718 40.3037 33.2178 38.8939 33.4544 37.484C33.6247 36.5473 33.7666 35.5917 33.918 34.6266Z" fill="#F38B19"/>
<path d="M32.3398 47.6475C32.4723 47.6475 32.5291 47.5528 32.5953 47.4582C34.043 45.4618 35.4907 43.4748 36.9383 41.4783C36.9856 41.4026 37.0235 41.3269 37.1086 41.2891C37.0613 42.0082 36.8721 42.7083 36.768 43.418C36.6923 43.9195 36.5882 44.421 36.5125 44.9224C36.4463 45.3955 36.522 45.8497 36.8816 46.1998C35.8597 46.7486 34.8472 47.3163 33.8064 47.8272C33.3144 48.0827 32.7846 48.0827 32.3398 47.6475Z" fill="#EEB616"/>
<path d="M32.4245 27.3507C32.1785 27.3412 31.9608 27.2277 31.7432 27.1614C29.5197 26.4423 27.3056 25.7232 25.082 25.0041C25.1956 24.5783 25.4794 24.2755 25.8863 24.1904C27.1258 23.9444 28.3653 23.7646 29.6237 23.6416C29.3967 24.2377 29.7562 24.6256 30.1252 24.9947C30.8443 25.7138 31.5161 26.4802 32.3109 27.1236C32.3772 27.1804 32.4245 27.256 32.4245 27.3507Z" fill="#F38B19"/>
<path d="M37.2031 40.9864C37.4113 39.7185 37.6289 38.4506 37.8465 37.1827C38.0547 35.981 38.2723 34.7699 38.4805 33.5682C38.4994 33.4642 38.5183 33.3411 38.4142 33.256C38.4142 33.2276 38.4142 33.2087 38.4142 33.1803C38.5846 33.2087 38.736 33.1424 38.8873 33.0857C40.5432 32.5369 42.199 31.9976 43.8643 31.4488C43.9684 31.4204 44.0914 31.2974 44.1765 31.4015C44.2806 31.5339 44.1103 31.6285 44.0535 31.7137C42.7667 33.4925 41.4799 35.2714 40.1836 37.0408C39.2942 38.2613 38.4142 39.4725 37.5343 40.693C37.4397 40.8255 37.3734 40.9674 37.2031 40.9864Z" fill="#F6AB16"/>
<path d="M32.5733 27.4263C32.507 27.4263 32.4597 27.4074 32.4219 27.3506C32.4786 27.3506 32.5354 27.3695 32.5733 27.4263Z" fill="#F38B19"/>
</g>
<path d="M52.9996 50.812C52.9205 50.9702 52.8062 51.0976 52.6832 51.2207C51.4396 52.4291 50.196 53.6419 48.9524 54.8504C48.9216 54.8767 48.8909 54.9031 48.8601 54.9295C48.5965 54.8987 48.3548 54.7889 48.1043 54.7098C47.0541 54.3758 46.0038 54.033 44.9536 53.6903C44.6635 53.5936 44.3735 53.4969 44.0352 53.3827C44.1318 53.3475 44.1802 53.3212 44.2329 53.308C44.6592 53.1674 45.0898 53.0311 45.516 52.8905C46.9969 52.4071 48.4822 51.9282 49.9631 51.4448C50.9606 51.1196 51.9625 50.79 52.96 50.4648C52.9732 50.4648 52.982 50.4648 52.9952 50.4648C52.9996 50.5791 52.9996 50.6977 52.9996 50.812Z" fill="#F6AC16"/>
<path d="M52.9686 50.4605C51.9711 50.7857 50.9736 51.1153 49.9716 51.4404C48.4908 51.9238 47.0055 52.4028 45.5246 52.8862C45.0983 53.0268 44.6677 53.163 44.2414 53.3036C44.1887 53.3212 44.136 53.3432 44.0437 53.3783C44.3777 53.4926 44.6677 53.5893 44.9621 53.6859C46.0124 54.0287 47.0582 54.3759 48.1128 54.7054C48.3633 54.7845 48.605 54.8944 48.8687 54.9251C48.9302 55.3074 48.9917 55.6898 49.0532 56.0721C49.1499 56.6521 49.251 57.2366 49.352 57.8166C49.4531 58.3967 49.5498 58.9811 49.6509 59.5612C49.7036 59.8556 49.7695 60.1544 49.8003 60.4488C49.8266 60.6905 49.7387 60.8926 49.5234 61.0289C49.5278 60.9805 49.5058 60.941 49.4751 60.9014C49.2993 60.6685 49.1323 60.4312 48.9609 60.1939C48.2403 59.1964 47.5196 58.2033 46.7945 57.2058C45.8981 55.971 44.9973 54.7362 44.1008 53.5014C44.0788 53.4706 44.0657 53.4223 44.0041 53.4486C44.0041 55.1229 44.0041 56.7971 44.0041 58.4714C43.1648 58.9152 42.3211 59.3634 41.4818 59.8028C41.1654 59.9698 40.8446 60.1324 40.5238 60.295C40.3569 60.128 40.3217 59.9215 40.3525 59.7018C40.3832 59.4689 40.436 59.236 40.4711 59.0031C40.5194 58.6735 40.6073 58.3483 40.6293 58.0144C40.6557 57.9704 40.6732 57.9265 40.6689 57.8781C40.7479 57.8693 40.7787 57.8034 40.8183 57.7463C41.2269 57.1794 41.64 56.617 42.0487 56.0501C42.6463 55.224 43.2483 54.4022 43.8459 53.5761C43.8767 53.5365 43.9558 53.4926 43.9031 53.4311C43.8635 53.3827 43.802 53.4399 43.7581 53.453C42.9891 53.7035 42.2157 53.9584 41.4466 54.2133C41.3763 54.2352 41.306 54.2704 41.2269 54.2572C41.2006 54.1034 41.0468 54.0682 40.9545 53.976C40.559 53.5717 40.1635 53.163 39.7504 52.7763C39.3593 52.416 38.9858 52.0425 38.6211 51.6558C38.6782 51.6558 38.7353 51.6645 38.7925 51.6865C39.2143 51.8227 39.6362 51.959 40.058 52.0952C41.3016 52.4995 42.5452 52.9081 43.7888 53.3124C43.8372 53.33 43.8855 53.3608 43.9602 53.3212C42.9759 51.9678 41.9959 50.6143 41.016 49.2609C41.5873 48.1051 42.1541 46.945 42.7254 45.7893C42.9671 45.3016 43.2044 44.8138 43.4461 44.3304C43.5603 44.1019 43.7273 43.9437 44.0041 43.9613C44.0041 47.0813 44.0041 50.1968 44.0041 53.3168C44.0173 53.3212 44.0305 53.3256 44.0437 53.3344C45.028 51.9809 46.0124 50.6231 46.9967 49.2696C47.4625 49.3356 47.9327 49.3971 48.3985 49.4674C49.084 49.5641 49.7695 49.6651 50.455 49.7662C51.1274 49.8629 51.8041 49.9552 52.4764 50.0606C52.7093 50.087 52.8983 50.21 52.9686 50.4605Z" fill="#F1D322"/>
<path d="M44.0039 58.4727C44.0039 56.7985 44.0039 55.1242 44.0039 53.45C44.0654 53.4236 44.0786 53.4719 44.1006 53.5027C44.997 54.7375 45.8979 55.9723 46.7943 57.2071C47.515 58.2046 48.24 59.1978 48.9607 60.1953C49.1321 60.4326 49.3035 60.6699 49.4748 60.9028C49.5056 60.9423 49.5232 60.9819 49.5232 61.0302C49.3298 61.1444 49.1453 61.162 48.9343 61.0566C47.471 60.3139 46.0297 59.5317 44.5752 58.7759C44.3818 58.6792 44.1929 58.5738 44.0039 58.4727Z" fill="#F6AC16"/>
<path d="M46.9925 49.2638C46.0082 50.6172 45.0239 51.9751 44.0395 53.3285C44.0264 53.3241 44.0132 53.3197 44 53.3109C44 50.191 44 47.0754 44 43.9554C44.2856 43.9466 44.4482 44.1136 44.5669 44.3465C44.9799 45.1902 45.3974 46.0295 45.8149 46.8732C46.2103 47.673 46.6014 48.4684 46.9925 49.2638Z" fill="#F6AC16"/>
<path d="M41.0119 49.2588C41.9919 50.6122 42.9762 51.9613 43.9561 53.3191C43.8814 53.3587 43.8331 53.3279 43.7848 53.3104C42.5412 52.9061 41.2976 52.4974 40.054 52.0931C39.6321 51.9569 39.2103 51.8207 38.7884 51.6845C38.7313 51.6669 38.6742 51.6537 38.617 51.6537C38.5819 51.6317 38.5467 51.6054 38.5116 51.5834C38.4984 51.557 38.472 51.5482 38.4413 51.5482C38.4413 51.5043 38.4193 51.4691 38.3885 51.4428C38.0194 51.144 37.7074 50.788 37.3734 50.454C37.2021 50.2871 37.0395 50.1025 37.1405 49.8257C37.4262 49.751 37.725 49.729 38.0194 49.685C38.7093 49.5796 39.3992 49.4785 40.0935 49.3818C40.3967 49.3379 40.7043 49.3027 41.0119 49.2588Z" fill="#F6AC16"/>
<path d="M38.518 51.5839C38.5532 51.6059 38.5883 51.6323 38.6235 51.6542C38.9882 52.0409 39.3617 52.4145 39.7528 52.7748C40.1659 53.1615 40.5614 53.5658 40.9569 53.9744C41.0492 54.0667 41.1986 54.1019 41.2293 54.2557C41.2293 54.2689 41.2293 54.2777 41.2293 54.2908C41.1854 54.2996 41.137 54.3084 41.0931 54.3216C40.5218 54.5062 39.955 54.6907 39.3837 54.8797C39.3046 54.906 39.2299 54.9324 39.1464 54.9324C39.0629 54.8577 38.9794 54.7874 38.9003 54.7127C37.6699 53.513 36.4439 52.3134 35.2179 51.1137C35.0289 50.9292 34.9454 50.7182 35.0377 50.459C36.0704 50.793 37.0987 51.1269 38.1313 51.4609C38.2368 51.496 38.3379 51.5488 38.4477 51.5488C38.4609 51.5751 38.4873 51.5839 38.518 51.5839Z" fill="#EEB516"/>
<path d="M39.1411 54.9277C39.2245 54.9321 39.2992 54.9013 39.3783 54.875C39.9496 54.6904 40.5165 54.5015 41.0877 54.3169C41.1317 54.3037 41.1756 54.2949 41.224 54.2861C41.2723 54.3257 41.2635 54.3828 41.2547 54.4311C41.158 54.9892 41.057 55.5517 40.9603 56.1098C40.8592 56.6986 40.7626 57.2875 40.6615 57.8763C40.6659 57.9246 40.6439 57.9686 40.6219 58.0125C40.5824 58.0301 40.5648 58.0696 40.5428 58.1004C39.8705 59.0276 39.1982 59.9504 38.5258 60.8776C38.4951 60.9216 38.4687 60.9655 38.4072 60.9655C38.1435 60.7458 38.1919 60.4646 38.2446 60.1833C38.3589 59.5286 38.4731 58.8738 38.5874 58.2191C38.7016 57.5643 38.8159 56.9095 38.9257 56.2548C39.0048 55.8198 39.0707 55.3759 39.1411 54.9277Z" fill="#F38B19"/>
<path d="M38.4102 60.9745C38.4717 60.9745 38.498 60.9305 38.5288 60.8866C39.2011 59.9594 39.8735 59.0366 40.5458 58.1094C40.5678 58.0742 40.5853 58.0391 40.6249 58.0215C40.6029 58.3555 40.515 58.6806 40.4667 59.0102C40.4315 59.2431 40.3832 59.476 40.3481 59.7089C40.3173 59.9286 40.3524 60.1396 40.5194 60.3021C40.0448 60.557 39.5747 60.8207 39.0913 61.058C38.8628 61.1766 38.6167 61.1766 38.4102 60.9745Z" fill="#EEB616"/>
<path d="M38.4452 51.5487C38.3309 51.5444 38.2298 51.4916 38.1288 51.4609C37.0961 51.1269 36.0678 50.7929 35.0352 50.459C35.0879 50.2612 35.2197 50.1206 35.4087 50.081C35.9843 49.9668 36.56 49.8833 37.1444 49.8262C37.039 50.103 37.206 50.2832 37.3773 50.4546C37.7113 50.7885 38.0233 51.1445 38.3924 51.4433C38.4232 51.4696 38.4452 51.5048 38.4452 51.5487Z" fill="#F38B19"/>
<path d="M40.668 57.8817C40.7646 57.2928 40.8657 56.704 40.9668 56.1152C41.0635 55.5571 41.1645 54.9946 41.2612 54.4365C41.27 54.3882 41.2788 54.3311 41.2304 54.2915C41.2304 54.2783 41.2304 54.2695 41.2304 54.2564C41.3095 54.2695 41.3798 54.2388 41.4502 54.2124C42.2192 53.9575 42.9882 53.7071 43.7616 53.4522C43.8099 53.439 43.867 53.3819 43.9066 53.4302C43.9549 53.4917 43.8758 53.5357 43.8495 53.5752C43.2518 54.4014 42.6542 55.2275 42.0522 56.0492C41.6391 56.6161 41.2304 57.1786 40.8218 57.7455C40.7778 57.807 40.7471 57.8729 40.668 57.8817Z" fill="#F6AB16"/>
<path d="M38.5195 51.584C38.4888 51.584 38.4668 51.5752 38.4492 51.5488C38.4756 51.5488 38.502 51.5576 38.5195 51.584Z" fill="#F38B19"/>
<defs>
<filter id="filter0_d_1921_391" x="20" y="6" width="48.7617" height="47.001" filterUnits="userSpaceOnUse" color-interpolation-filters="sRGB">
<feFlood flood-opacity="0" result="BackgroundImageFix"/>
<feColorMatrix in="SourceAlpha" type="matrix" values="0 0 0 0 0 0 0 0 0 0 0 0 0 0 0 0 0 0 127 0" result="hardAlpha"/>
<feOffset/>
<feGaussianBlur stdDeviation="2.5"/>
<feComposite in2="hardAlpha" operator="out"/>
<feColorMatrix type="matrix" values="0 0 0 0 0.774884 0 0 0 0 0.126591 0 0 0 0 0.0882508 0 0 0 1 0"/>
<feBlend mode="normal" in2="BackgroundImageFix" result="effect1_dropShadow_1921_391"/>
<feBlend mode="normal" in="SourceGraphic" in2="effect1_dropShadow_1921_391" result="shape"/>
</filter>
</defs>
</svg>
