<svg width="27" height="26" viewBox="0 0 27 26" fill="none" xmlns="http://www.w3.org/2000/svg">
<path d="M3 19.1961C5.19624 19.3933 7.14685 18.8595 8.92888 17.5276C7.71517 17.4555 6.73746 16.9987 5.96685 16.1236C5.61044 15.7197 5.34554 15.2677 5.17216 14.7243C5.76938 14.7965 6.33771 14.8061 6.93493 14.6474C4.51232 14.0271 3.66465 11.8778 3.77061 10.6468C4.31485 10.9209 4.87836 11.1036 5.55265 11.1181C4.54122 10.3824 3.95845 9.43994 3.80914 8.25708C3.69837 7.37715 3.87175 6.53568 4.3293 5.7423C6.51591 8.30997 9.27566 9.72844 12.6278 9.95443C12.6134 9.55053 12.5797 9.16586 12.5893 8.786C12.6374 7.14154 13.909 5.55958 15.508 5.15087C17.0058 4.77101 18.3255 5.1076 19.4525 6.17025C19.5392 6.25199 19.6115 6.26161 19.7271 6.23756C20.5073 6.05965 21.249 5.79039 21.9474 5.3961C21.9907 5.37206 22.0389 5.35282 22.116 5.31436C21.9811 5.78558 21.7692 6.19429 21.4658 6.54049C21.1671 6.88188 20.8204 7.18481 20.4784 7.5214C20.8445 7.44446 21.2153 7.37715 21.5717 7.28098C21.9281 7.18481 22.2749 7.05018 22.665 6.96363C22.3423 7.34349 22.0341 7.73777 21.6873 8.0984C21.408 8.3869 21.0756 8.62732 20.7818 8.9014C20.7192 8.95429 20.6711 9.06007 20.6711 9.13701C20.6662 13.2962 19.0287 16.6381 15.638 19.0759C14.2028 20.1097 12.5604 20.6627 10.8072 20.8935C9.15525 21.1098 7.52734 20.9992 5.92832 20.5376C4.92653 20.2491 3.98253 19.8212 3.09633 19.2682C3.06261 19.2538 3.04816 19.2346 3 19.1961Z" fill="#A8A8A8"/>
</svg>
