<svg width="12" height="11" viewBox="0 0 12 11" fill="none" xmlns="http://www.w3.org/2000/svg">
<path d="M4.47215 8.99939C3.44722 8.99939 2.42507 8.99939 1.40015 8.99939C1.11961 8.99939 0.994622 8.87662 1.00018 8.59833C1.01962 6.99681 2.24453 5.59173 3.8583 5.31344C5.42763 5.04333 6.93864 5.80999 7.62192 7.22326C7.83579 7.66525 7.9469 8.13452 7.95523 8.62561C7.95801 8.8657 7.82468 8.99939 7.57748 8.99939C6.54144 8.99939 5.50818 8.99939 4.47215 8.99939Z" fill="white"/>
<path d="M2.57037 2.87168C2.58148 1.82947 3.43698 0.991875 4.48135 1.00006C5.54794 1.00824 6.38954 1.85129 6.37843 2.9017C6.36732 3.92754 5.50627 4.75149 4.45079 4.74331C3.41753 4.73239 2.56204 3.88116 2.57037 2.87168Z" fill="white"/>
<path d="M7.24219 5.63055C7.62272 5.41228 8.0338 5.30042 8.47543 5.29224C9.83644 5.27314 10.9808 6.36992 10.9947 7.70407C10.9975 7.9387 10.8641 8.07512 10.6253 8.07512C9.96977 8.07785 9.31426 8.07512 8.65597 8.07512C8.60042 8.07512 8.56709 8.06966 8.55598 8.00418C8.3921 7.08747 7.97269 6.30717 7.27274 5.67693C7.26441 5.66875 7.25608 5.66329 7.25052 5.6551C7.24774 5.64965 7.24774 5.64146 7.24219 5.63055Z" fill="white"/>
<path d="M9.91516 3.51274C9.91516 4.28212 9.28187 4.90418 8.50137 4.9069C7.72087 4.9069 7.08481 4.28485 7.08203 3.51819C7.08203 2.74881 7.71532 2.12675 8.49582 2.12402C9.27909 2.12402 9.91516 2.74608 9.91516 3.51274Z" fill="white"/>
</svg>
