<svg width="181" height="154" viewBox="0 0 181 154" fill="none" xmlns="http://www.w3.org/2000/svg">
<path d="M56.9628 130.569C53.7792 130.569 50.5955 130.569 47.4119 130.52C44.2773 130.52 41.1916 130.52 38.057 130.471C36.3917 130.422 35.0693 130.911 34.1387 132.332C34.1387 128.756 34.1387 125.181 34.1387 121.605C34.1387 118.863 34.1387 116.169 34.1387 113.426C34.1387 110.928 35.2162 109.949 37.7141 109.9C39.4774 109.9 41.2406 109.851 43.0038 109.851C45.4528 109.851 47.9507 109.851 50.3996 109.851C56.0322 109.851 61.6158 109.9 67.2483 109.9C79.1012 109.9 90.9541 109.851 102.807 109.851C108.831 109.9 114.856 109.949 120.88 109.998C117.55 116.218 112.799 121.018 106.823 124.74C103.003 127.091 98.9376 128.854 94.8234 130.422C94.0397 130.422 93.2561 130.471 92.4234 130.471C84.5378 130.471 76.6523 130.52 68.7177 130.52C64.7994 130.569 60.8811 130.569 56.9628 130.569Z" fill="#E92F24"/>
<path d="M50.4011 109.898C47.9521 109.898 45.4542 109.898 43.0053 109.898C43.2502 106.568 41.9767 103.825 39.7237 101.474C35.1197 96.6739 35.0707 90.9433 39.6747 86.1924C42.7604 83.0088 43.691 79.3354 42.5645 75.0742C40.9971 69.0988 43.9848 63.7601 49.9603 62.1438C54.3683 60.9193 57.1112 58.2255 58.3356 53.8174C59.9519 47.891 65.2906 44.8053 71.266 46.3726C75.6251 47.4991 79.2985 46.5686 82.5311 43.4339C87.0862 38.9768 93.0126 38.9768 97.5676 43.3849C100.8 46.5686 104.474 47.5481 108.833 46.3726C114.808 44.8053 120.098 47.842 121.763 53.7684C122.547 56.6582 124.016 59.0092 126.514 60.6744C124.996 62.4377 124.604 64.8376 123.086 66.6009C120.735 64.5927 118.775 62.0948 116.278 60.2336C105.747 52.2501 93.9922 49.3603 81.2087 52.1521C66.3681 55.3847 56.0336 64.3479 50.3031 78.4537C47.7562 84.6741 46.9236 91.2372 47.6093 97.9963C48.0501 102.111 49.2745 105.98 50.4011 109.898Z" fill="#FABC07"/>
<path d="M94.7734 130.469C98.9366 128.852 102.953 127.138 106.773 124.787C112.798 121.065 117.5 116.265 120.83 110.044C123.769 109.995 126.708 109.946 129.646 109.897C132.095 109.897 134.544 109.897 136.993 109.897C138.903 109.897 140.765 109.897 142.675 109.946C144.732 109.995 145.809 111.024 145.809 113.081C145.858 115.334 145.907 117.587 145.76 119.84C145.662 121.358 146.103 121.995 147.622 121.701C147.964 121.652 148.356 121.75 148.699 121.75C146.838 126.942 147.426 131.693 150.756 136.15C152.813 138.942 155.801 140.46 158.593 142.174C150.854 142.174 143.116 142.223 135.377 142.223C134.495 142.223 133.712 141.93 133.222 141.146C133.565 141.097 134.005 141.097 134.299 140.95C137.679 139.138 141.107 137.375 144.438 135.464C146.201 134.485 145.956 131.987 144.144 131.007C143.409 130.615 142.577 130.469 141.646 130.469C138.609 130.518 135.524 130.518 132.487 130.518C129.303 130.518 126.12 130.518 122.936 130.567C119.018 130.567 115.1 130.567 111.181 130.567C105.794 130.518 100.308 130.469 94.7734 130.469Z" fill="#E92F24"/>
<path d="M111.28 130.567C115.199 130.567 119.117 130.567 123.035 130.567C122.398 131.694 122.056 132.918 121.713 134.143C119.9 139.873 114.611 142.959 108.88 141.392C104.423 140.167 100.799 141.196 97.5662 144.379C93.207 148.69 86.8888 148.69 82.4807 144.379C79.2481 141.196 75.6237 140.167 71.1666 141.392C65.2402 143.008 59.7545 139.677 58.1382 133.653C57.8444 132.576 57.5015 131.596 57.0117 130.616C60.93 130.616 64.8483 130.616 68.7666 130.616C70.7258 132.282 73.1257 133.065 75.4277 133.898C84.097 137.082 92.9132 137.326 101.729 134.878C105.109 133.898 108.488 132.82 111.28 130.567Z" fill="#F3950D"/>
<path d="M137.043 109.901C134.594 109.901 132.145 109.901 129.696 109.901C132.635 101.967 133.566 93.8852 131.9 85.5588C130.529 78.6528 127.737 72.3835 123.133 66.9958C123.084 66.8979 123.084 66.751 123.035 66.653C124.553 64.8898 124.945 62.4898 126.464 60.7266C127.835 61.2164 129.158 61.7551 130.578 62.1959C136.064 63.9592 139.149 69.2978 137.631 74.8814C136.406 79.3875 137.386 83.0609 140.668 86.3914C144.929 90.7506 144.929 96.8729 140.668 101.281C138.219 103.681 136.847 106.424 137.043 109.901Z" fill="#F3950D"/>
<path d="M80.1797 33.9323C80.0327 31.8262 80.4735 29.8181 80.7674 27.761C80.9633 26.4875 80.7674 25.41 79.7878 24.4304C78.3185 23.059 77.045 21.4917 75.6736 19.9733C74.2043 18.308 74.4981 17.3285 76.7022 16.8387C78.7103 16.3979 80.7674 15.9081 82.7755 15.5652C84 15.3693 84.6857 14.7326 85.2735 13.6551C86.253 11.7939 87.2816 10.0306 88.3591 8.21842C89.3387 6.60212 90.4162 6.60212 91.3958 8.16944C92.3264 9.73676 93.306 11.3041 94.0896 12.9694C94.8243 14.3897 95.7059 15.5163 97.4202 15.7612C97.5182 16.9366 97.2733 18.0632 96.8814 19.1407C95.559 23.01 93.306 26.1936 90.1224 28.6915C87.1347 31.1405 83.951 33.1976 80.1797 33.9323Z" fill="#FEE061"/>
<path d="M39.6736 142.224C33.1104 142.224 26.5962 142.273 20.0331 142.273C19.2494 142.273 18.5637 142.175 18.1719 141.391C17.7801 140.559 18.2209 140.02 18.7107 139.432C20.18 137.718 21.6984 136.004 23.1187 134.29C24.5391 132.575 24.5391 131.4 23.1187 129.735C21.6984 127.971 20.18 126.306 18.7107 124.592C18.2209 124.004 17.7311 123.416 18.1719 122.633C18.5637 121.849 19.2494 121.751 20.0331 121.751C23.7555 121.8 27.4779 121.8 31.2492 121.8C31.2492 125.277 31.3472 128.755 31.2002 132.232C31.1023 135.122 32.3757 137.081 34.6288 138.698C36.294 139.824 38.1552 140.755 39.6736 142.224Z" fill="#E92F24"/>
<path d="M158.691 142.224C155.85 140.51 152.912 138.943 150.854 136.2C147.524 131.743 146.887 126.943 148.797 121.8C152.569 121.8 156.389 121.751 160.16 121.751C160.895 121.751 161.483 121.947 161.826 122.633C162.218 123.367 161.875 123.955 161.385 124.445C159.867 126.208 158.348 127.971 156.879 129.735C155.458 131.449 155.458 132.575 156.879 134.29C158.201 135.906 159.573 137.424 160.944 139.04C161.532 139.726 162.364 140.314 161.826 141.44C161.336 142.518 160.307 142.322 159.426 142.322C159.181 142.273 158.936 142.224 158.691 142.224Z" fill="#E92F24"/>
<path d="M80.1805 33.9325C84.0008 33.1489 87.1355 31.0918 90.0742 28.7898C93.2088 26.2919 95.5108 23.0593 96.8333 19.2389C97.2251 18.1124 97.47 17.0349 97.372 15.8594C99.4781 15.9573 101.486 16.4961 103.494 16.9859C105.209 17.4267 105.503 18.4553 104.327 19.7777C102.858 21.443 101.388 23.0593 99.87 24.6266C99.0863 25.4592 98.7924 26.2919 98.9883 27.4184C99.3312 29.5734 99.5271 31.7775 99.772 33.9815C99.9189 35.5978 98.8414 36.3325 97.323 35.6958C95.2659 34.8142 93.2088 33.8346 91.1517 32.855C90.2701 32.4142 89.4375 32.4142 88.5558 32.855C86.5477 33.8346 84.4906 34.7652 82.3845 35.6958C80.7682 36.3815 80.0335 35.7448 80.1805 33.9325Z" fill="#FABD09"/>
<path d="M21.0117 40.9335C21.2076 39.4152 22.4811 38.5825 23.4117 37.6519C24.3423 36.6724 24.6851 35.7907 24.4402 34.4193C24.1953 33.0479 23.5096 31.3827 24.881 30.3051C26.2035 29.2766 27.4279 30.648 28.5055 31.2357C30.0238 32.0684 31.3462 32.0684 32.7666 31.1867C33.1095 30.9908 33.5503 30.7949 33.9421 30.648C34.7748 30.2561 35.6564 29.8643 36.538 30.55C37.3217 31.1867 37.0768 32.0684 36.9298 32.901C36.587 34.8112 36.0972 36.7703 37.9584 38.2397C36.2931 40.2478 34.236 41.5702 31.5911 42.109C27.8687 42.8437 24.4892 41.7172 21.0117 40.9335Z" fill="#FEE061"/>
<path d="M145.467 44.2173C144.438 42.6989 142.675 42.8949 141.206 42.503C138.659 41.8173 138.218 40.8377 140.128 39.1725C142.234 37.3113 143.067 35.3031 142.283 32.5603C142.038 31.7767 142.038 30.8461 142.871 30.2583C143.704 29.6706 144.389 30.1604 145.075 30.5032C145.467 30.6991 145.859 30.8461 146.202 31.042C147.769 32.0705 149.287 32.1195 150.953 31.1399C151.687 30.6991 152.52 30.2093 153.499 30.2583C153.891 33.5399 153.206 36.6745 151.932 39.6623C150.757 42.4051 148.797 44.2663 145.467 44.2173Z" fill="#FEE061"/>
<path d="M34.1883 132.379C35.1189 130.959 36.4413 130.469 38.1066 130.518C41.2412 130.567 44.3269 130.567 47.4615 130.567C47.4615 133.408 47.4615 136.248 47.4615 139.089C47.4615 139.873 47.5105 140.657 46.7758 141.195C46.1391 141.244 45.6003 140.999 45.0616 140.706C42.2208 139.187 39.429 137.571 36.5393 136.151C34.825 135.269 33.9924 134.191 34.1883 132.379Z" fill="#AF1810"/>
<path d="M132.586 130.519C135.623 130.519 138.708 130.519 141.745 130.47C142.627 130.47 143.459 130.617 144.243 131.008C146.104 131.988 146.3 134.486 144.537 135.466C141.206 137.376 137.778 139.139 134.398 140.951C134.104 141.098 133.712 141.098 133.321 141.147C132.586 140.608 132.635 139.825 132.635 139.041C132.635 136.249 132.586 133.359 132.586 130.519Z" fill="#AF1810"/>
<path d="M34.1881 132.379C33.9922 134.191 34.8249 135.318 36.4901 136.101C39.3799 137.522 42.1717 139.138 45.0124 140.656C45.5512 140.95 46.09 141.195 46.7267 141.146C46.139 142.077 45.2573 142.273 44.2288 142.224C42.7104 142.175 41.1921 142.175 39.7227 142.175C38.2044 140.754 36.3432 139.824 34.6779 138.599C32.4249 137.032 31.1514 135.073 31.2494 132.134C31.3963 128.656 31.2984 125.179 31.2984 121.701C32.278 121.652 33.2575 121.652 34.2371 121.604C34.1881 125.228 34.1881 128.803 34.1881 132.379Z" fill="#E92F24"/>
<path d="M145.465 44.2155C148.795 44.3135 150.755 42.4523 151.979 39.6115C153.252 36.6238 153.938 33.4891 153.546 30.2076C154.575 30.0117 155.016 30.5994 155.065 31.53C155.065 31.7259 155.114 31.9218 155.065 32.0688C154.183 35.2034 155.016 37.6523 157.465 39.8074C158.689 40.8849 158.101 42.1584 156.485 42.5992C156.191 42.6972 155.897 42.6972 155.603 42.6972C153.106 42.7951 151.391 43.9216 150.461 46.2726C150.118 47.1052 149.726 48.1828 148.502 48.1828C147.277 48.1828 146.983 47.1052 146.542 46.2726C146.102 45.6359 145.808 44.9012 145.465 44.2155Z" fill="#FABE0C"/>
<path d="M21.0117 40.937C24.4892 41.7207 27.8687 42.8472 31.5422 42.1125C34.187 41.5737 36.2441 40.2513 37.9094 38.2432C38.791 39.2227 40.3094 39.8595 39.9175 41.4268C39.4767 42.9941 37.8114 42.8472 36.636 42.8961C34.187 42.9941 33.3544 44.5614 32.3748 46.3247C31.934 47.1573 31.6401 48.2348 30.3667 48.2348C29.0932 48.2348 28.7504 47.1573 28.4075 46.3247C27.4769 44.0227 25.9586 42.7492 23.3627 42.5533C22.5301 42.5043 21.0607 42.5533 21.0117 40.937Z" fill="#FABE0C"/>
<path d="M123.034 66.603C123.034 66.701 123.083 66.8479 123.132 66.9459C122.74 70.8152 122.25 74.6845 121.32 78.4559C121.075 79.3375 120.879 79.8273 119.948 79.3375C117.94 76.1049 115.05 74.4886 111.23 74.6355C108.928 74.7335 106.577 74.6355 104.275 74.6355C101.385 74.6355 100.406 75.5661 100.406 78.4559C100.406 85.6558 100.455 92.9046 100.357 100.104C100.357 101.868 100.846 103.19 102.512 103.974C103.638 106.423 105.548 105.198 107.508 104.757C106.087 106.864 104.275 108.088 102.904 109.802C91.0507 109.802 79.1979 109.851 67.345 109.851C61.7124 109.851 56.1289 109.802 50.4963 109.802C49.3698 105.884 48.1453 102.015 47.7535 97.9005C47.0678 91.1414 47.9004 84.6272 50.4473 78.3579C56.1778 64.301 66.5124 55.3379 81.3529 52.0563C94.1364 49.2645 105.891 52.1543 116.373 60.1378C118.724 62.1459 120.683 64.5949 123.034 66.603ZM90.6099 104.072C91.1487 105.541 92.3732 105.737 93.5976 105.443C95.067 105.1 95.8506 104.072 95.8506 102.504C95.8506 94.7658 95.8506 86.9782 95.8506 79.2395C95.8506 78.162 95.6058 77.1824 94.3813 76.7906C93.5976 75.3212 92.4711 74.3417 90.7079 74.8314C88.8467 75.3702 88.5038 76.8396 88.5038 78.6028C88.5528 85.8027 88.5528 93.0026 88.5038 100.202C88.5038 101.966 89.0426 103.239 90.6099 104.072ZM73.0265 89.0843C72.6347 88.7414 72.4878 88.3006 72.3408 87.8108C71.4102 84.7252 70.4307 81.6885 69.4511 78.6028C69.2062 77.7702 68.9613 76.9375 67.9327 76.7416C66.6103 74.7335 65.2879 74.1947 63.7206 74.9784C62.2022 75.7131 61.7614 77.0845 62.4471 79.2395C64.7001 86.5374 67.0021 93.8352 69.2552 101.133C69.647 102.455 70.2837 103.435 71.5082 104.072C71.949 105.345 72.9776 105.59 74.153 105.541C75.5245 105.443 76.3571 104.562 76.7489 103.288C79.1489 95.5984 81.5978 87.8598 83.9488 80.1212C84.3896 78.7498 84.2427 77.4273 82.6754 76.7906C81.9407 75.5172 80.9611 74.4886 79.3448 74.7335C77.7285 74.9784 77.0918 76.1539 76.651 77.6232C75.4755 81.4436 74.202 85.2639 73.0265 89.0843Z" fill="#FEE060"/>
<path d="M119.9 79.3868C120.879 79.8765 121.075 79.4357 121.271 78.5051C122.202 74.7338 122.74 70.8644 123.083 66.9951C127.687 72.3828 130.479 78.6521 131.85 85.5581C133.516 93.8845 132.536 101.966 129.646 109.901C126.708 109.95 123.769 109.998 120.83 110.047C114.806 109.998 108.781 109.95 102.757 109.901C104.079 108.186 105.941 106.962 107.361 104.856C105.402 105.248 103.492 106.521 102.365 104.072C105.157 104.023 106.137 103.092 106.137 100.35C106.137 99.2721 106.088 98.1456 106.137 97.0681C106.235 95.5497 105.451 93.5906 106.43 92.66C107.41 91.7294 109.369 92.2682 110.839 92.4151C118.038 92.9049 123.083 85.9009 119.9 79.3868ZM107.606 104.415C110.496 101.476 112.896 98.1946 114.757 94.5212C115.149 93.7375 114.414 93.7865 113.924 93.7865C112.357 93.7865 110.741 93.8845 109.173 93.7375C107.851 93.6396 107.557 94.2273 107.557 95.4518C107.606 98.3905 107.851 101.378 107.606 104.415Z" fill="#FABB06"/>
<path d="M111.281 130.568C108.441 132.821 105.061 133.898 101.681 134.829C92.8163 137.278 84.0001 137.033 75.3799 133.849C73.0289 133.017 70.6779 132.184 68.7188 130.568C76.6043 130.568 84.4899 130.519 92.4245 130.519C93.2081 130.519 93.9918 130.47 94.8244 130.47C100.31 130.47 105.796 130.519 111.281 130.568Z" fill="#FABB06"/>
<path d="M119.9 79.3862C123.084 85.9004 118.039 92.9533 110.888 92.3656C109.37 92.2676 107.411 91.6799 106.48 92.6105C105.501 93.5411 106.235 95.5002 106.186 97.0186C106.137 98.0961 106.186 99.2226 106.186 100.3C106.186 103.043 105.207 103.974 102.415 104.023C100.75 103.239 100.26 101.916 100.26 100.153C100.309 92.9533 100.26 85.7045 100.309 78.5046C100.309 75.6638 101.288 74.6843 104.178 74.6843C106.48 74.6843 108.831 74.7332 111.133 74.6843C115.002 74.5373 117.892 76.1046 119.9 79.3862ZM114.513 82.0801C113.68 80.3658 112.064 80.5617 110.545 80.5617C105.99 80.5617 106.039 80.5617 106.088 85.1657C106.088 86.3902 106.578 86.6351 107.607 86.3902C108.978 86.3902 110.398 86.4881 111.77 86.4392C114.366 86.3412 115.541 84.48 114.513 82.0801Z" fill="#E92F24"/>
<path d="M71.5103 104.07C70.2858 103.433 69.6491 102.453 69.2573 101.131C67.0042 93.8331 64.7022 86.5352 62.4492 79.2374C61.7635 77.1313 62.2043 75.7599 63.7226 74.9762C65.29 74.1926 66.6124 74.7313 67.9348 76.7395C69.1103 81.4414 70.7266 86.0454 72.5388 90.6005C72.6858 90.0617 72.8327 89.5719 72.9796 89.0331C74.2041 85.2128 75.4286 81.3924 76.6041 77.5231C77.0449 76.1027 77.6816 74.8783 79.2979 74.6334C80.9632 74.3885 81.8938 75.3681 82.6285 76.6905C82.6774 77.5721 82.5305 78.4047 82.2366 79.1884C79.9346 86.4373 77.6816 93.7351 75.3796 100.984C74.6939 103.531 74.0572 104.021 71.5103 104.07Z" fill="#E92F24"/>
<path d="M90.6111 104.066C88.9948 103.282 88.456 101.96 88.505 100.197C88.554 92.9968 88.554 85.7969 88.505 78.597C88.505 76.8338 88.8478 75.3644 90.709 74.8257C92.4723 74.3359 93.5988 75.3154 94.3824 76.7848C94.3824 84.5724 94.3824 92.409 94.3824 100.197C94.4314 103.086 93.5008 104.017 90.6111 104.066Z" fill="#E92F24"/>
<path d="M71.5078 104.071C74.0547 104.022 74.6425 103.532 75.4261 101.132C77.7281 93.8835 79.9811 86.5856 82.2831 79.3368C82.528 78.5041 82.675 77.6715 82.675 76.8389C84.2423 77.5246 84.3892 78.798 83.9484 80.1694C81.5974 87.9081 79.1485 95.5977 76.7485 103.336C76.3567 104.61 75.5241 105.491 74.1527 105.589C73.0262 105.589 71.9486 105.345 71.5078 104.071Z" fill="#F7BA0A"/>
<path d="M90.6094 104.07C93.4991 104.021 94.3807 103.091 94.3807 100.201C94.3807 92.4133 94.3807 84.5767 94.3807 76.7891C95.6052 77.1809 95.8501 78.1605 95.8501 79.238C95.8501 86.9767 95.8501 94.7643 95.8501 102.503C95.8501 104.07 95.0664 105.099 93.5971 105.442C92.3726 105.736 91.1481 105.54 90.6094 104.07Z" fill="#FABC07"/>
<path d="M73.0272 89.0827C72.8803 89.6215 72.7334 90.1113 72.5864 90.6501C70.7742 86.095 69.1579 81.491 67.9824 76.7891C68.962 77.034 69.2069 77.8666 69.5008 78.6503C70.4803 81.7359 71.4599 84.7726 72.3905 87.8583C72.4885 88.3481 72.6354 88.7889 73.0272 89.0827Z" fill="#F1B710"/>
<path d="M107.609 104.412C107.854 101.375 107.609 98.4363 107.609 95.4976C107.609 94.2731 107.854 93.7343 109.226 93.7833C110.793 93.8813 112.409 93.7833 113.977 93.8323C114.417 93.8323 115.201 93.7833 114.809 94.567C112.899 98.1424 110.499 101.424 107.609 104.412Z" fill="#FEE060"/>
<path d="M114.513 82.0804C115.541 84.4803 114.366 86.3415 111.819 86.4395C110.448 86.4884 109.027 86.3905 107.656 86.3905C107.656 85.4109 107.705 84.4313 107.656 83.5007C107.558 82.3742 107.999 81.9824 109.125 82.0314C110.888 82.0804 112.701 82.0804 114.513 82.0804Z" fill="#FEE060"/>
<path d="M114.515 82.0779C112.702 82.0779 110.89 82.1268 109.078 82.0289C107.951 81.9799 107.56 82.3717 107.609 83.4982C107.657 84.4778 107.609 85.4574 107.609 86.388C106.58 86.5839 106.139 86.388 106.09 85.1635C106.041 80.5595 105.992 80.5595 110.547 80.5595C112.066 80.5595 113.682 80.3636 114.515 82.0779Z" fill="#FABB06"/>
</svg>
