<svg width="157" height="165" viewBox="0 0 157 165" fill="none" xmlns="http://www.w3.org/2000/svg">
<path d="M45.4211 134.851C42.2817 134.851 39.1423 134.851 36.0029 134.803C32.9118 134.803 29.869 134.803 26.7779 134.754C25.1358 134.706 23.8317 135.189 22.9141 136.59C22.9141 133.064 22.9141 129.538 22.9141 126.012C22.9141 123.308 22.9141 120.651 22.9141 117.947C22.9141 115.483 23.9766 114.517 26.4398 114.469C28.1786 114.469 29.9173 114.421 31.656 114.421C34.071 114.421 36.5342 114.421 38.9491 114.421C44.5034 114.421 50.0094 114.469 55.5637 114.469C67.2519 114.469 78.9401 114.421 90.6282 114.421C96.5689 114.469 102.51 114.517 108.45 114.566C105.166 120.7 100.481 125.433 94.5887 129.104C90.8214 131.422 86.8127 133.161 82.7556 134.706C81.9828 134.706 81.2101 134.754 80.389 134.754C72.613 134.754 64.837 134.803 57.0126 134.803C53.1488 134.851 49.2849 134.851 45.4211 134.851Z" fill="#E92F24"/>
<path d="M38.9505 114.469C36.5356 114.469 34.0724 114.469 31.6574 114.469C31.8989 111.185 30.6432 108.48 28.4215 106.162C23.8814 101.429 23.8331 95.7777 28.3732 91.0928C31.416 87.9534 32.3336 84.331 31.2228 80.1291C29.6772 74.2367 32.6234 68.9722 38.5158 67.3783C42.8626 66.1709 45.5673 63.5145 46.7748 59.1676C48.3686 53.3235 53.6332 50.2807 59.5255 51.8263C63.8241 52.9372 67.4465 52.0195 70.6341 48.9284C75.1259 44.5333 80.97 44.5333 85.4617 48.8801C88.6494 52.0195 92.2718 52.9855 96.5703 51.8263C102.463 50.2807 107.679 53.2752 109.321 59.1193C110.094 61.9689 111.543 64.2872 114.006 65.9294C112.509 67.6681 112.122 70.0347 110.625 71.7735C108.307 69.7932 106.375 67.33 103.912 65.4947C93.5275 57.6221 81.9359 54.7725 69.3301 57.5255C54.6957 60.7132 44.5048 69.5518 38.8539 83.4617C36.3424 89.5955 35.5213 96.0675 36.1975 102.733C36.6322 106.79 37.8396 110.605 38.9505 114.469Z" fill="#FABC07"/>
<path d="M82.707 134.753C86.8124 133.159 90.7728 131.469 94.5401 129.15C100.481 125.48 105.117 120.747 108.402 114.613C111.3 114.564 114.197 114.516 117.095 114.468C119.51 114.468 121.925 114.468 124.34 114.468C126.224 114.468 128.059 114.468 129.943 114.516C131.971 114.564 133.034 115.579 133.034 117.607C133.082 119.829 133.13 122.051 132.986 124.272C132.889 125.77 133.324 126.397 134.821 126.108C135.159 126.059 135.545 126.156 135.883 126.156C134.048 131.276 134.628 135.961 137.912 140.356C139.94 143.109 142.887 144.606 145.64 146.296C138.009 146.296 130.377 146.345 122.746 146.345C121.877 146.345 121.104 146.055 120.621 145.282C120.959 145.234 121.394 145.234 121.684 145.089C125.016 143.302 128.397 141.563 131.681 139.679C133.42 138.714 133.179 136.25 131.392 135.284C130.667 134.898 129.846 134.753 128.928 134.753C125.934 134.801 122.891 134.801 119.897 134.801C116.757 134.801 113.618 134.801 110.479 134.85C106.615 134.85 102.751 134.85 98.887 134.85C93.5741 134.801 88.1647 134.753 82.707 134.753Z" fill="#E92F24"/>
<path d="M98.9832 134.851C102.847 134.851 106.711 134.851 110.575 134.851C109.947 135.961 109.609 137.169 109.271 138.376C107.484 144.027 102.268 147.07 96.6166 145.525C92.2215 144.317 88.6474 145.331 85.4597 148.471C81.1612 152.721 74.9307 152.721 70.5839 148.471C67.3962 145.331 63.8221 144.317 59.4269 145.525C53.5829 147.118 48.1735 143.834 46.5796 137.893C46.2898 136.831 45.9517 135.865 45.4688 134.899C49.3326 134.899 53.1965 134.899 57.0603 134.899C58.9923 136.541 61.3589 137.314 63.6289 138.135C72.1777 141.274 80.8714 141.516 89.5651 139.101C92.8976 138.135 96.2302 137.072 98.9832 134.851Z" fill="#F3950D"/>
<path d="M124.391 114.469C121.977 114.469 119.562 114.469 117.147 114.469C120.045 106.645 120.962 98.6755 119.32 90.4648C117.968 83.6547 115.215 77.4725 110.675 72.1597C110.626 72.0631 110.626 71.9182 110.578 71.8216C112.075 70.0829 112.462 67.7163 113.959 65.9775C115.311 66.4605 116.615 66.9918 118.016 67.4265C123.425 69.1652 126.468 74.4297 124.971 79.9357C123.764 84.3792 124.73 88.0015 127.966 91.2858C132.167 95.5844 132.167 101.622 127.966 105.969C125.551 108.335 124.198 111.04 124.391 114.469Z" fill="#F3950D"/>
<path d="M68.3154 39.5581C68.1705 37.4813 68.6052 35.501 68.895 33.4725C69.0882 32.2167 68.895 31.1542 67.929 30.1882C66.48 28.8359 65.2243 27.2903 63.8719 25.7931C62.423 24.1509 62.7128 23.185 64.8862 22.702C66.8664 22.2673 68.895 21.7843 70.8752 21.4462C72.0826 21.253 72.7588 20.6252 73.3384 19.5626C74.3044 17.7273 75.3186 15.9885 76.3812 14.2015C77.3472 12.6076 78.4097 12.6076 79.3757 14.1532C80.2934 15.6987 81.2593 17.2443 82.0321 18.8864C82.7566 20.2871 83.6259 21.3979 85.3164 21.6394C85.413 22.7986 85.1715 23.9094 84.7851 24.972C83.481 28.7876 81.2593 31.927 78.1199 34.3902C75.1737 36.8051 72.0343 38.8336 68.3154 39.5581Z" fill="#FEE061"/>
<path d="M28.3724 146.345C21.9005 146.345 15.4768 146.393 9.00484 146.393C8.23207 146.393 7.55589 146.297 7.1695 145.524C6.78312 144.703 7.2178 144.172 7.70078 143.592C9.14973 141.901 10.647 140.211 12.0476 138.521C13.4483 136.83 13.4483 135.671 12.0476 134.029C10.647 132.29 9.14973 130.648 7.70078 128.958C7.2178 128.378 6.73482 127.798 7.1695 127.026C7.55589 126.253 8.23207 126.156 9.00484 126.156C12.6755 126.205 16.3462 126.205 20.0651 126.205C20.0651 129.634 20.1617 133.063 20.0168 136.492C19.9202 139.342 21.176 141.274 23.3977 142.867C25.0399 143.978 26.8752 144.896 28.3724 146.345Z" fill="#E92F24"/>
<path d="M145.738 146.345C142.937 144.654 140.039 143.109 138.01 140.404C134.726 136.009 134.098 131.276 135.982 126.205C139.701 126.205 143.468 126.156 147.187 126.156C147.911 126.156 148.491 126.349 148.829 127.026C149.215 127.75 148.877 128.33 148.394 128.813C146.897 130.551 145.4 132.29 143.951 134.029C142.55 135.719 142.55 136.83 143.951 138.521C145.255 140.114 146.607 141.612 147.96 143.206C148.539 143.882 149.36 144.461 148.829 145.572C148.346 146.635 147.332 146.442 146.462 146.442C146.221 146.393 145.979 146.345 145.738 146.345Z" fill="#E92F24"/>
<path d="M68.315 39.5584C72.0823 38.7856 75.1733 36.7571 78.0712 34.4871C81.1623 32.0239 83.4323 28.8362 84.7364 25.0689C85.1228 23.958 85.3643 22.8955 85.2677 21.7363C87.3445 21.8329 89.3247 22.3642 91.305 22.8472C92.9954 23.2819 93.2852 24.2961 92.126 25.6002C90.6771 27.2423 89.2281 28.8362 87.7309 30.3817C86.9581 31.2028 86.6683 32.0239 86.8615 33.1347C87.1996 35.2598 87.3928 37.4333 87.6343 39.6067C87.7792 41.2005 86.7166 41.925 85.2194 41.2971C83.1908 40.4278 81.1623 39.4618 79.1338 38.4958C78.2644 38.0611 77.4434 38.0611 76.574 38.4958C74.5938 39.4618 72.5652 40.3795 70.4884 41.2971C68.8946 41.9733 68.1701 41.3454 68.315 39.5584Z" fill="#FABD09"/>
<path d="M9.96875 46.4652C10.1619 44.968 11.4177 44.1469 12.3354 43.2293C13.253 42.2633 13.5911 41.3939 13.3496 40.0416C13.1081 38.6892 12.432 37.0471 13.7843 35.9845C15.0884 34.9703 16.2958 36.3226 17.3584 36.9022C18.8556 37.7233 20.1597 37.7233 21.5603 36.8539C21.8984 36.6607 22.3331 36.4675 22.7195 36.3226C23.5406 35.9362 24.4099 35.5498 25.2793 36.226C26.0521 36.8539 25.8106 37.7233 25.6657 38.5443C25.3276 40.428 24.8446 42.3599 26.68 43.8088C25.0378 45.7891 23.0093 47.0931 20.4012 47.6244C16.7305 48.3489 13.3979 47.238 9.96875 46.4652Z" fill="#FEE061"/>
<path d="M132.699 49.7002C131.684 48.2029 129.946 48.3961 128.497 48.0098C125.985 47.3336 125.55 46.3676 127.434 44.7255C129.511 42.8901 130.332 40.9099 129.559 38.2052C129.318 37.4324 129.318 36.5148 130.139 35.9352C130.96 35.3556 131.636 35.8386 132.312 36.1767C132.699 36.3699 133.085 36.5148 133.423 36.708C134.969 37.7222 136.466 37.7705 138.108 36.8046C138.832 36.3699 139.654 35.8869 140.62 35.9352C141.006 39.1712 140.33 42.2623 139.074 45.2085C137.915 47.9132 135.983 49.7485 132.699 49.7002Z" fill="#FEE061"/>
<path d="M22.9652 136.637C23.8829 135.237 25.1869 134.754 26.8291 134.802C29.9202 134.85 32.963 134.85 36.0541 134.85C36.0541 137.652 36.0541 140.453 36.0541 143.254C36.0541 144.027 36.1024 144.8 35.3779 145.331C34.75 145.379 34.2187 145.138 33.6874 144.848C30.8861 143.351 28.1331 141.757 25.2835 140.356C23.5931 139.487 22.772 138.424 22.9652 136.637Z" fill="#AF1810"/>
<path d="M119.992 134.802C122.987 134.802 126.029 134.802 129.024 134.754C129.893 134.754 130.714 134.899 131.487 135.285C133.323 136.251 133.516 138.714 131.777 139.68C128.493 141.564 125.112 143.303 121.779 145.09C121.489 145.235 121.103 145.235 120.717 145.283C119.992 144.752 120.04 143.979 120.04 143.206C120.04 140.453 119.992 137.604 119.992 134.802Z" fill="#AF1810"/>
<path d="M22.9617 136.637C22.7685 138.424 23.5896 139.535 25.2317 140.308C28.0813 141.709 30.8343 143.303 33.6356 144.8C34.1669 145.09 34.6982 145.331 35.326 145.283C34.7465 146.2 33.8771 146.394 32.8628 146.345C31.3656 146.297 29.8683 146.297 28.4194 146.297C26.9221 144.896 25.0868 143.979 23.4447 142.771C21.2229 141.226 19.9672 139.294 20.0638 136.396C20.2087 132.967 20.1121 129.537 20.1121 126.108C21.0781 126.06 22.044 126.06 23.01 126.012C22.9617 129.586 22.9617 133.112 22.9617 136.637Z" fill="#E92F24"/>
<path d="M132.695 49.701C135.98 49.7976 137.912 47.9623 139.119 45.161C140.375 42.2148 141.051 39.1237 140.665 35.8877C141.679 35.6945 142.113 36.2741 142.162 37.1918C142.162 37.385 142.21 37.5781 142.162 37.723C141.292 40.8141 142.113 43.229 144.528 45.3542C145.736 46.4167 145.156 47.6725 143.562 48.1072C143.273 48.2038 142.983 48.2038 142.693 48.2038C140.23 48.3004 138.539 49.4112 137.622 51.7295C137.284 52.5506 136.897 53.6132 135.69 53.6132C134.482 53.6132 134.193 52.5506 133.758 51.7295C133.323 51.1017 133.033 50.3772 132.695 49.701Z" fill="#FABE0C"/>
<path d="M9.96875 46.465C13.3979 47.2378 16.7305 48.3486 20.3529 47.6242C22.961 47.0929 24.9895 45.7888 26.6317 43.8086C27.501 44.7746 28.9983 45.4024 28.6119 46.948C28.1772 48.4935 26.5351 48.3486 25.3759 48.3969C22.961 48.4935 22.1399 50.0391 21.1739 51.7778C20.7393 52.5989 20.4495 53.6614 19.1937 53.6614C17.938 53.6614 17.5999 52.5989 17.2618 51.7778C16.3441 49.5078 14.8469 48.252 12.2871 48.0588C11.466 48.0105 10.017 48.0588 9.96875 46.465Z" fill="#FABE0C"/>
<path d="M110.578 71.7742C110.578 71.8708 110.627 72.0157 110.675 72.1123C110.289 75.9278 109.806 79.7434 108.888 83.4624C108.647 84.3317 108.453 84.8147 107.536 84.3317C105.555 81.144 102.706 79.5502 98.9386 79.6951C96.6686 79.7917 94.3503 79.6951 92.0802 79.6951C89.2306 79.6951 88.2647 80.6128 88.2647 83.4624C88.2647 90.5622 88.313 97.7103 88.2164 104.81C88.2164 106.549 88.6994 107.853 90.3415 108.626C91.4524 111.041 93.336 109.833 95.2679 109.399C93.8673 111.475 92.0802 112.683 90.7279 114.373C79.0397 114.373 67.3515 114.422 55.6633 114.422C50.109 114.422 44.603 114.373 39.0487 114.373C37.9379 110.509 36.7304 106.694 36.344 102.637C35.6679 95.9716 36.4889 89.5479 39.0004 83.3658C44.6513 69.5042 54.8423 60.6656 69.4766 57.4296C82.0825 54.6766 93.6741 57.5262 104.01 65.3988C106.328 67.379 108.26 69.7939 110.578 71.7742ZM78.605 108.722C79.1363 110.171 80.3438 110.364 81.5512 110.075C83.0002 109.737 83.7729 108.722 83.7729 107.177C83.7729 99.5457 83.7729 91.8663 83.7729 84.2351C83.7729 83.1726 83.5314 82.2066 82.324 81.8202C81.5512 80.3713 80.4404 79.4053 78.7016 79.8883C76.8663 80.4196 76.5282 81.8685 76.5282 83.6072C76.5765 90.7071 76.5765 97.8069 76.5282 104.907C76.5282 106.646 77.0595 107.901 78.605 108.722ZM61.2659 93.9431C60.8796 93.605 60.7347 93.1703 60.5898 92.6873C59.6721 89.6445 58.7061 86.65 57.7402 83.6072C57.4987 82.7862 57.2572 81.9651 56.2429 81.7719C54.9389 79.7917 53.6348 79.2604 52.0893 80.0332C50.592 80.7577 50.1573 82.11 50.8335 84.2351C53.0552 91.4316 55.3253 98.628 57.547 105.824C57.9334 107.129 58.5612 108.094 59.7687 108.722C60.2034 109.978 61.2176 110.22 62.3768 110.171C63.7292 110.075 64.5502 109.205 64.9366 107.95C67.3032 100.367 69.7181 92.7356 72.0365 85.1045C72.4711 83.7521 72.3262 82.4481 70.7807 81.8202C70.0562 80.5645 69.0903 79.5502 67.4964 79.7917C65.9026 80.0332 65.2747 81.1923 64.84 82.6413C63.6809 86.4085 62.4251 90.1758 61.2659 93.9431Z" fill="#FEE060"/>
<path d="M107.486 84.3796C108.452 84.8626 108.645 84.4279 108.838 83.5102C109.756 79.7913 110.287 75.9757 110.625 72.1602C115.166 77.473 117.919 83.6551 119.271 90.4652C120.913 98.6759 119.947 106.645 117.097 114.469C114.2 114.518 111.302 114.566 108.404 114.614C102.463 114.566 96.5224 114.518 90.5817 114.469C91.8858 112.779 93.7211 111.572 95.1217 109.495C93.1898 109.881 91.3062 111.137 90.1953 108.722C92.9483 108.674 93.9143 107.756 93.9143 105.051C93.9143 103.989 93.866 102.878 93.9143 101.815C94.0109 100.318 93.2381 98.3861 94.2041 97.4684C95.17 96.5508 97.102 97.0821 98.5509 97.227C105.651 97.7099 110.625 90.8033 107.486 84.3796ZM95.3632 109.06C98.2128 106.162 100.579 102.926 102.415 99.3038C102.801 98.531 102.077 98.5793 101.594 98.5793C100.048 98.5793 98.4543 98.6759 96.9088 98.531C95.6047 98.4344 95.3149 99.014 95.3149 100.221C95.3632 103.119 95.6047 106.066 95.3632 109.06Z" fill="#FABB06"/>
<path d="M98.9829 134.851C96.1816 137.072 92.849 138.135 89.5165 139.052C80.7745 141.467 72.0808 141.226 63.5803 138.086C61.262 137.265 58.9436 136.444 57.0117 134.851C64.7877 134.851 72.5638 134.802 80.3881 134.802C81.1608 134.802 81.9336 134.754 82.7547 134.754C88.1641 134.754 93.5735 134.802 98.9829 134.851Z" fill="#FABB06"/>
<path d="M107.485 84.3794C110.624 90.803 105.649 97.758 98.5979 97.1784C97.1007 97.0818 95.1687 96.5022 94.2511 97.4199C93.2851 98.3376 94.0096 100.269 93.9613 101.767C93.913 102.829 93.9613 103.94 93.9613 105.003C93.9613 107.707 92.9953 108.625 90.2423 108.673C88.6002 107.901 88.1172 106.597 88.1172 104.858C88.1655 97.758 88.1172 90.6098 88.1655 83.51C88.1655 80.7087 89.1315 79.7427 91.981 79.7427C94.2511 79.7427 96.5694 79.791 98.8394 79.7427C102.655 79.5978 105.505 81.1434 107.485 84.3794ZM102.172 87.0358C101.351 85.3453 99.7571 85.5385 98.2598 85.5385C93.7681 85.5385 93.8164 85.5385 93.8647 90.0785C93.8647 91.286 94.3477 91.5275 95.3619 91.286C96.7143 91.286 98.1149 91.3826 99.4673 91.3343C102.027 91.2377 103.186 89.4024 102.172 87.0358Z" fill="#E92F24"/>
<path d="M59.7648 108.721C58.5573 108.093 57.9294 107.127 57.5431 105.823C55.3213 98.6263 53.0513 91.4299 50.8296 84.2334C50.1534 82.1566 50.5881 80.8043 52.0854 80.0315C53.6309 79.2587 54.9349 79.79 56.239 81.7702C57.3982 86.4069 58.992 90.9469 60.779 95.4386C60.9239 94.9074 61.0688 94.4244 61.2137 93.8931C62.4212 90.1258 63.6286 86.3586 64.7878 82.543C65.2225 81.1423 65.8504 79.9349 67.4442 79.6934C69.0863 79.4519 70.004 80.4179 70.7285 81.7219C70.7768 82.5913 70.6319 83.4124 70.3421 84.1851C68.0721 91.3333 65.8504 98.5297 63.5803 105.678C62.9042 108.189 62.2763 108.672 59.7648 108.721Z" fill="#E92F24"/>
<path d="M78.6032 108.72C77.0094 107.948 76.4781 106.644 76.5264 104.905C76.5747 97.805 76.5747 90.7052 76.5264 83.6053C76.5264 81.8666 76.8645 80.4177 78.6998 79.8864C80.4386 79.4034 81.5494 80.3694 82.3222 81.8183C82.3222 89.4977 82.3222 97.2255 82.3222 104.905C82.3705 107.754 81.4528 108.672 78.6032 108.72Z" fill="#E92F24"/>
<path d="M59.7656 108.721C62.2771 108.673 62.8567 108.19 63.6295 105.823C65.8995 98.675 68.1212 91.4785 70.3912 84.3304C70.6327 83.5093 70.7776 82.6883 70.7776 81.8672C72.3232 82.5434 72.4681 83.7991 72.0334 85.1515C69.7151 92.7826 67.3002 100.365 64.9335 107.997C64.5472 109.252 63.7261 110.122 62.3737 110.218C61.2629 110.218 60.2003 109.977 59.7656 108.721Z" fill="#F7BA0A"/>
<path d="M78.6016 108.721C81.4512 108.673 82.3205 107.756 82.3205 104.906C82.3205 97.2265 82.3205 89.4988 82.3205 81.8193C83.528 82.2057 83.7695 83.1717 83.7695 84.2342C83.7695 91.8654 83.7695 99.5448 83.7695 107.176C83.7695 108.721 82.9967 109.736 81.5478 110.074C80.3403 110.364 79.1328 110.17 78.6016 108.721Z" fill="#FABC07"/>
<path d="M61.2638 93.9422C61.1189 94.4735 60.974 94.9565 60.8291 95.4877C59.0421 90.996 57.4482 86.456 56.2891 81.8193C57.255 82.0608 57.4965 82.8819 57.7863 83.6547C58.7523 86.6975 59.7182 89.6919 60.6359 92.7347C60.7325 93.2177 60.8774 93.6524 61.2638 93.9422Z" fill="#F1B710"/>
<path d="M95.3633 109.059C95.6048 106.064 95.3633 103.167 95.3633 100.269C95.3633 99.0612 95.6048 98.5299 96.9571 98.5782C98.5027 98.6748 100.097 98.5782 101.642 98.6265C102.077 98.6265 102.85 98.5782 102.463 99.351C100.58 102.877 98.2129 106.113 95.3633 109.059Z" fill="#FEE060"/>
<path d="M102.173 87.0367C103.188 89.4033 102.028 91.2386 99.5169 91.3352C98.1645 91.3835 96.7639 91.2869 95.4115 91.2869C95.4115 90.3209 95.4598 89.355 95.4115 88.4373C95.3149 87.3264 95.7496 86.9401 96.8605 86.9884C98.5992 87.0366 100.386 87.0367 102.173 87.0367Z" fill="#FEE060"/>
<path d="M102.173 87.0342C100.386 87.0342 98.5987 87.0825 96.8116 86.9859C95.7008 86.9376 95.3144 87.324 95.3627 88.4349C95.411 89.4008 95.3627 90.3668 95.3627 91.2845C94.3484 91.4776 93.9137 91.2845 93.8654 90.077C93.8171 85.537 93.7688 85.537 98.2606 85.537C99.7578 85.537 101.352 85.3438 102.173 87.0342Z" fill="#FABB06"/>
</svg>
