<svg width="27" height="26" viewBox="0 0 27 26" fill="none" xmlns="http://www.w3.org/2000/svg">
<path d="M24.9838 18.3877C24.8381 18.8241 24.6276 19.0019 24.1528 19.0126C23.122 19.045 22.0859 19.0342 21.0606 19.0935C20.1648 19.1473 19.4579 18.8025 18.8535 18.1991C18.3624 17.7035 17.9145 17.1755 17.4342 16.6691C17.2615 16.4859 17.0618 16.3243 16.8514 16.1788C16.4952 15.9364 16.2362 15.9849 15.9448 16.3027C15.6102 16.6637 15.5239 17.1162 15.4699 17.5796C15.4429 17.8112 15.4429 18.0429 15.4267 18.2746C15.3997 18.7163 15.1785 18.9803 14.736 19.0126C14.2233 19.0504 13.7053 19.0504 13.1872 19.0342C12.7609 19.0234 12.3346 19.0019 11.9191 18.9318C10.6779 18.7217 9.63636 18.086 8.62723 17.3748C7.68825 16.7122 6.99211 15.8286 6.31216 14.9289C4.57451 12.6338 3.25238 10.1071 2.09755 7.48335C1.8709 6.96615 2.03818 6.67522 2.61021 6.63212C3.02573 6.5998 3.44665 6.61057 3.86757 6.60518C4.53134 6.5998 5.20049 6.5998 5.86425 6.59441C6.35533 6.59441 6.67912 6.80991 6.90037 7.26246C7.48318 8.46927 8.08219 9.67069 8.70278 10.8613C8.96181 11.3624 9.29638 11.8311 9.75508 12.1867C9.86301 12.2729 9.99252 12.3483 10.122 12.3968C10.3811 12.4884 10.5807 12.3968 10.7156 12.1597C10.9369 11.7718 10.9531 11.3354 11.0071 10.9044C11.1204 9.91851 11.1096 8.93798 10.8991 7.96284C10.7804 7.40254 10.4296 7.10622 9.88999 6.9877C9.80365 6.96615 9.7227 6.91766 9.63636 6.87995C9.68493 6.79914 9.71731 6.70216 9.77667 6.63212C10.0087 6.37352 10.3001 6.2119 10.6455 6.15802C11.9406 5.96407 13.2358 5.93713 14.5309 6.14186C15.1677 6.24422 15.3997 6.45972 15.4591 7.19781C15.5077 7.78505 15.4537 8.37768 15.4483 8.96492C15.4375 9.74072 15.4213 10.5165 15.4321 11.2923C15.4321 11.5186 15.4861 11.7557 15.567 11.9658C15.7451 12.4183 16.0959 12.483 16.4628 12.1705C17.0672 11.6695 17.472 11.0122 17.8875 10.3657C18.5189 9.38515 19.0315 8.33997 19.4687 7.25708C19.5172 7.13316 19.5766 7.00925 19.6467 6.89611C19.7493 6.7291 19.9058 6.62673 20.1108 6.62673C21.4707 6.61057 22.8306 6.58902 24.1959 6.58902C24.5197 6.58902 24.8597 6.64828 24.9946 7.0308C24.9946 7.13316 24.9946 7.24091 24.9946 7.34328C24.8489 7.68269 24.7302 8.03827 24.5575 8.36152C23.9855 9.43902 23.2084 10.3818 22.4853 11.357C22.1129 11.858 21.7352 12.3644 21.4006 12.8924C21.1469 13.2965 21.2117 13.6844 21.5247 14.0454C21.6758 14.2178 21.8377 14.3848 22.005 14.5464C22.6202 15.166 23.2623 15.7586 23.8506 16.4051C24.3578 16.9654 24.8813 17.5311 25 18.3284C24.9838 18.3554 24.9838 18.3715 24.9838 18.3877Z" fill="#A8A8A8"/>
</svg>
