<svg width="18" height="13" viewBox="0 0 18 13" fill="none" xmlns="http://www.w3.org/2000/svg">
<g clip-path="url(#clip0_1709_465)">
<path d="M9.05339 0C8.74072 0.0864245 8.64932 0.233346 8.64932 0.435003C8.65413 3.83148 8.65413 7.23085 8.64932 10.6273C8.64932 10.829 8.74072 10.9759 9.05339 11.0623C9.1496 11.0623 9.24581 11.0623 9.34202 11.0623C9.6547 10.9759 9.74609 10.829 9.74609 10.6273C9.74128 7.23085 9.74128 3.83148 9.74609 0.435003C9.74609 0.233346 9.6547 0.0864245 9.34202 0C9.24581 0 9.1496 0 9.05339 0Z" fill="white"/>
<path d="M11.9062 5.53031C11.9062 4.3607 11.9062 3.19109 11.9062 2.02147C11.9062 1.76508 11.5455 1.60088 11.1751 1.6873C10.9682 1.73627 10.8528 1.83422 10.8287 1.96674C10.8239 2.00131 10.8239 2.03876 10.8239 2.07333C10.8239 4.37798 10.8239 6.67975 10.8239 8.98441C10.8239 9.24368 11.0259 9.39348 11.3627 9.39636C11.7042 9.39636 11.9062 9.24368 11.9062 8.98729C11.9062 7.83496 11.9062 6.68263 11.9062 5.53031Z" fill="white"/>
<path d="M12.9897 5.54359C12.9897 6.2177 12.9897 6.88894 12.9897 7.56305C12.9897 7.74454 13.1437 7.87417 13.4034 7.91162C13.7305 7.95772 14.0432 7.82232 14.0721 7.62354C14.0769 7.60338 14.0721 7.58033 14.0721 7.56016C14.0721 6.20906 14.0721 4.86084 14.0721 3.50974C14.0721 3.26199 13.769 3.10354 13.4034 3.15828C13.1485 3.19573 12.9945 3.32249 12.9945 3.50686C12.9897 4.18385 12.9897 4.86372 12.9897 5.54359Z" fill="white"/>
<path d="M15.1559 5.53793C15.1559 5.94125 15.1559 6.34456 15.1559 6.74788C15.1559 6.97546 15.3676 7.12526 15.6947 7.12814C16.017 7.13102 16.2383 6.97834 16.2383 6.75364C16.2383 5.93261 16.2383 5.11445 16.2383 4.29342C16.2383 4.03991 15.8727 3.8757 15.5023 3.96501C15.2858 4.01686 15.1607 4.13498 15.1607 4.29054C15.1559 4.7025 15.1559 5.12022 15.1559 5.53793Z" fill="white"/>
<path d="M18.3984 5.52893C18.3984 5.33016 18.3984 5.13426 18.3984 4.93548C18.3984 4.73671 18.1723 4.58979 17.8645 4.58403C17.5566 4.58114 17.3161 4.73095 17.3161 4.93548C17.3161 5.33592 17.3113 5.73347 17.3161 6.1339C17.3161 6.33268 17.5518 6.4796 17.8597 6.4796C18.1627 6.4796 18.3984 6.33268 18.3984 6.1339C18.3984 5.93225 18.3984 5.73059 18.3984 5.52893Z" fill="white"/>
<path d="M6.49455 5.53109C6.49455 6.68918 6.49455 7.85015 6.49455 9.00824C6.49455 9.06009 6.49936 9.11771 6.52341 9.16668C6.59557 9.31648 6.8409 9.41155 7.08623 9.39427C7.34599 9.3741 7.54803 9.25023 7.57208 9.09178C7.57689 9.05721 7.57208 9.01976 7.57208 8.98519C7.57208 6.68054 7.57208 4.37877 7.57208 2.07411C7.57208 1.81484 7.37004 1.66504 7.02851 1.66504C6.68697 1.66504 6.48974 1.81772 6.48974 2.077C6.49455 3.22932 6.49455 4.37877 6.49455 5.53109Z" fill="white"/>
<path d="M5.41316 5.53132C5.41316 4.85145 5.41316 4.17157 5.41316 3.4917C5.41316 3.25836 5.1101 3.10567 4.75413 3.15177C4.52323 3.18345 4.35487 3.29869 4.33563 3.43985C4.33082 3.46001 4.33563 3.48306 4.33563 3.50322C4.33563 4.85721 4.33563 6.20831 4.33563 7.56229C4.33563 7.8014 4.64349 7.95697 5.00427 7.90511C5.25922 7.86766 5.41797 7.73802 5.41797 7.55653C5.41316 6.8853 5.41316 6.20831 5.41316 5.53132Z" fill="white"/>
<path d="M3.24609 5.5258C3.24609 5.1196 3.24609 4.71341 3.24609 4.30721C3.24609 4.08827 3.02962 3.93847 2.71214 3.93559C2.38984 3.93271 2.16375 4.08539 2.16375 4.31009C2.16375 5.13113 2.16375 5.94928 2.16375 6.77031C2.16375 7.02094 2.51491 7.18227 2.88531 7.10448C3.10659 7.05839 3.24609 6.93452 3.24609 6.77607C3.24609 6.36123 3.24609 5.94351 3.24609 5.5258Z" fill="white"/>
<path d="M1.08203 5.53177C1.08203 5.333 1.08203 5.1371 1.08203 4.93832C1.08203 4.73379 0.846322 4.58398 0.538455 4.58398C0.225779 4.58687 0.00449924 4.73379 -0.000311166 4.94121C-0.000311166 5.333 -0.000311166 5.72479 -0.000311166 6.11658C-0.000311166 6.324 0.225778 6.4738 0.533645 6.47668C0.851132 6.47956 1.07722 6.32688 1.08203 6.1137C1.08203 5.92068 1.08203 5.72479 1.08203 5.53177Z" fill="white"/>
</g>
<defs>
<clipPath id="clip0_1709_465">
<rect width="18" height="13" fill="white"/>
</clipPath>
</defs>
</svg>
