<svg width="31" height="19" viewBox="0 0 31 19" fill="none" xmlns="http://www.w3.org/2000/svg">
<g clip-path="url(#clip0_1732_401)">
<path d="M15.3633 0C14.8326 0.146694 14.6774 0.396074 14.6774 0.73836C14.6856 6.50344 14.6856 12.2734 14.6774 18.0385C14.6774 18.3808 14.8326 18.6301 15.3633 18.7768C15.5266 18.7768 15.6899 18.7768 15.8532 18.7768C16.3839 18.6301 16.5391 18.3808 16.5391 18.0385C16.5309 12.2734 16.5309 6.50344 16.5391 0.73836C16.5391 0.396074 16.3839 0.146694 15.8532 0C15.6899 0 15.5266 0 15.3633 0Z" fill="#ED2D21"/>
<path d="M20.207 9.38764C20.207 7.40238 20.207 5.41712 20.207 3.43186C20.207 2.99666 19.5947 2.71794 18.9659 2.86464C18.6148 2.94777 18.4189 3.11402 18.3781 3.33895C18.3699 3.39763 18.3699 3.46119 18.3699 3.51987C18.3699 7.43171 18.3699 11.3387 18.3699 15.2505C18.3699 15.6906 18.7128 15.9449 19.2844 15.9497C19.8641 15.9497 20.207 15.6906 20.207 15.2554C20.207 13.2995 20.207 11.3436 20.207 9.38764Z" fill="#ED2D21"/>
<path d="M22.046 9.40892C22.046 10.5531 22.046 11.6925 22.046 12.8367C22.046 13.1447 22.3072 13.3648 22.7482 13.4283C23.3034 13.5066 23.8341 13.2767 23.8831 12.9394C23.8913 12.9051 23.8831 12.866 23.8831 12.8318C23.8831 10.5385 23.8831 8.25003 23.8831 5.95672C23.8831 5.53619 23.3687 5.26725 22.7482 5.36016C22.3154 5.42373 22.0541 5.63888 22.0541 5.95183C22.046 7.10093 22.046 8.25492 22.046 9.40892Z" fill="#ED2D21"/>
<path d="M25.7215 9.40003C25.7215 10.0846 25.7215 10.7692 25.7215 11.4537C25.7215 11.84 26.0807 12.0943 26.6359 12.0992C27.183 12.1041 27.5586 11.8449 27.5586 11.4635C27.5586 10.0699 27.5586 8.68123 27.5586 7.28763C27.5586 6.85733 26.9381 6.57861 26.3093 6.7302C25.9419 6.81821 25.7296 7.01869 25.7296 7.28274C25.7215 7.98199 25.7215 8.69101 25.7215 9.40003Z" fill="#ED2D21"/>
<path d="M31.2266 9.38322C31.2266 9.04582 31.2266 8.71332 31.2266 8.37592C31.2266 8.03853 30.8428 7.78915 30.3202 7.77937C29.7977 7.77448 29.3894 8.02875 29.3894 8.37592C29.3894 9.0556 29.3813 9.7304 29.3894 10.4101C29.3894 10.7475 29.7895 10.9969 30.3121 10.9969C30.8265 10.9969 31.2266 10.7475 31.2266 10.4101C31.2266 10.0678 31.2266 9.72551 31.2266 9.38322Z" fill="#ED2D21"/>
<path d="M11.0229 9.38926C11.0229 11.355 11.0229 13.3256 11.0229 15.2913C11.0229 15.3793 11.031 15.4771 11.0719 15.5602C11.1943 15.8145 11.6108 15.9758 12.0272 15.9465C12.4681 15.9123 12.811 15.702 12.8518 15.4331C12.86 15.3744 12.8518 15.3108 12.8518 15.2521C12.8518 11.3403 12.8518 7.43334 12.8518 3.5215C12.8518 3.08142 12.5089 2.82715 11.9292 2.82715C11.3495 2.82715 11.0147 3.08631 11.0147 3.52639C11.0229 5.48231 11.0229 7.43334 11.0229 9.38926Z" fill="#ED2D21"/>
<path d="M9.18715 9.38787C9.18715 8.23388 9.18715 7.07989 9.18715 5.92589C9.18715 5.52982 8.67275 5.27066 8.06854 5.3489C7.67661 5.40268 7.39084 5.59828 7.35818 5.83788C7.35001 5.87211 7.35818 5.91122 7.35818 5.94545C7.35818 8.24366 7.35818 10.537 7.35818 12.8352C7.35818 13.241 7.88074 13.5051 8.49312 13.4171C8.92587 13.3535 9.19531 13.1335 9.19531 12.8254C9.18715 11.6861 9.18715 10.537 9.18715 9.38787Z" fill="#ED2D21"/>
<path d="M5.50781 9.37893C5.50781 8.68946 5.50781 8 5.50781 7.31054C5.50781 6.93891 5.14039 6.68465 4.60149 6.67976C4.05444 6.67487 3.67068 6.93403 3.67068 7.31543C3.67068 8.70902 3.67068 10.0977 3.67068 11.4913C3.67068 11.9167 4.26673 12.1906 4.89543 12.0585C5.27103 11.9803 5.50781 11.77 5.50781 11.5011C5.50781 10.797 5.50781 10.0879 5.50781 9.37893Z" fill="#ED2D21"/>
<path d="M1.83594 9.38804C1.83594 9.05065 1.83594 8.71814 1.83594 8.38074C1.83594 8.03357 1.43585 7.7793 0.91329 7.7793C0.382562 7.78419 0.00696991 8.03357 -0.00119513 8.38563C-0.00119513 9.05065 -0.00119513 9.71566 -0.00119513 10.3807C-0.00119513 10.7327 0.382562 10.987 0.905124 10.9919C1.44402 10.9968 1.82777 10.7376 1.83594 10.3758C1.83594 10.0482 1.83594 9.71566 1.83594 9.38804Z" fill="#ED2D21"/>
</g>
<defs>
<clipPath id="clip0_1732_401">
<rect width="31" height="19" fill="white"/>
</clipPath>
</defs>
</svg>
