<svg width="121" height="123" viewBox="0 0 121 123" fill="none" xmlns="http://www.w3.org/2000/svg">
<path d="M72.3202 54.2455C72.8051 54.2779 73.2901 54.3102 73.775 54.3102C88.8727 54.3102 103.97 54.3102 119.068 54.3102C119.876 54.3102 120.361 54.3102 120.361 55.4094C120.329 75.3564 120.329 95.3034 120.329 115.218C120.329 115.412 120.296 115.606 120.296 115.832C99.0886 115.832 77.8808 115.832 56.6729 115.832C56.285 115.832 55.8647 115.865 55.4768 115.8C49.5929 114.862 44.9375 109.431 44.9375 103.418C44.9375 87.0918 44.9375 70.798 44.9375 54.4718C45.3578 54.1162 45.875 54.2779 46.3276 54.2779C54.9595 54.2455 63.6237 54.2455 72.3202 54.2455ZM61.8133 62.7804C61.8133 62.7804 61.8133 62.8127 61.8133 62.7804C60.9404 62.7804 60.0352 62.7481 59.1623 62.8127C57.9338 62.9097 57.0932 63.7179 57.0609 64.7525C57.0286 65.7547 57.7398 66.5952 58.9683 66.7245C59.8089 66.7892 59.9382 67.1448 59.9382 67.8561C59.9382 69.6665 59.8412 71.4769 60.1645 73.2873C61.587 80.917 67.8911 86.6392 75.8117 87.4151C83.1181 88.1264 90.4244 83.6003 93.2694 76.6496C94.4332 73.8046 94.6919 70.8627 94.5949 67.8561C94.5626 67.1448 94.6919 66.7892 95.5324 66.6922C96.8902 66.4982 97.4398 65.7547 97.3429 64.5585C97.2459 63.524 96.5023 62.8127 95.2415 62.7804C93.4957 62.7481 91.7823 62.7157 90.0365 62.7804C88.7757 62.8127 87.9351 63.621 87.8705 64.6555C87.8058 65.69 88.5494 66.5629 89.8425 66.6922C90.6184 66.7892 90.7801 67.0802 90.7477 67.7591C90.7154 69.0199 90.6831 70.2484 90.5861 71.5092C90.1012 76.7465 86.2863 81.4019 81.1137 82.9537C75.8441 84.5378 70.0248 82.6628 66.7273 78.4923C64.2379 75.3564 63.6237 71.7679 63.7853 67.8884C63.8177 67.1125 63.9146 66.7569 64.7875 66.6276C66.0807 66.4659 66.598 65.7223 66.5333 64.5908C66.4686 63.524 65.7251 62.8451 64.4966 62.7481C63.5913 62.7481 62.6861 62.7804 61.8133 62.7804Z" fill="#F54035"/>
<path d="M72.3204 54.2437C63.6562 54.2437 54.992 54.2437 46.3278 54.2761C45.8752 54.2761 45.3579 54.1144 44.9377 54.47C41.8664 54.47 38.7952 54.47 35.7239 54.47C34.0428 54.47 34.0428 54.47 34.0428 56.1511C34.0428 76.0335 34.0428 95.9482 34.0428 115.831C30.4866 115.831 26.9304 115.798 23.3742 115.831C16.6821 115.928 10.9922 110.27 10.9922 103.481C10.9922 78.8461 10.9922 54.1791 10.9922 29.5444C13.4169 29.512 15.8415 29.512 18.2339 29.4797C18.2339 31.7104 18.2339 33.9088 18.2985 36.1395C18.2985 36.7537 18.1369 36.98 17.4903 37.0124C16.1002 37.077 15.3566 37.8529 15.3889 38.9844C15.4213 40.0836 16.2941 40.8595 17.6196 40.8595C19.3654 40.8918 21.0788 40.8918 22.8246 40.8595C24.2148 40.8272 25.023 40.1483 25.0553 38.9844C25.12 37.8206 24.4087 37.1093 22.9863 36.98C22.372 36.9477 22.1457 36.7214 22.1457 36.1071C22.178 33.8764 22.178 31.6781 22.2104 29.4474C31.5211 29.4474 40.8319 29.4474 50.1426 29.4474C50.175 31.6781 50.175 33.8764 50.2073 36.1071C50.2073 36.7214 50.0133 36.9477 49.3667 36.98C47.9119 37.077 47.2654 37.7559 47.2977 38.9521C47.33 40.1483 48.1382 40.8272 49.593 40.8595C51.2742 40.8595 52.9876 40.8918 54.6687 40.8595C55.9619 40.8272 56.8994 40.0836 56.9317 38.9844C56.9964 37.8852 56.2205 37.077 54.8304 36.98C54.1838 36.9477 54.0221 36.7214 54.0221 36.1071C54.0545 33.8764 54.0544 31.6781 54.0868 29.4474C59.7444 29.4474 65.4019 29.4797 71.0272 29.415C72.0617 29.415 72.288 29.706 72.288 30.7082C72.288 38.5965 72.3204 46.4201 72.3204 54.2437Z" fill="#FEC161"/>
<path d="M34.0078 115.831C34.0078 95.9488 34.0078 76.0342 34.0078 56.1518C34.0078 54.4707 34.0078 54.4707 35.6889 54.4707C38.7602 54.4707 41.8314 54.4707 44.9027 54.4707C44.9027 70.7969 44.9027 87.0907 44.9027 103.417C44.9027 109.43 49.5581 114.861 55.442 115.799C55.8299 115.864 56.2502 115.831 56.6381 115.831C77.846 115.831 99.0538 115.831 120.262 115.831C120.262 117.448 120.229 119.064 120.326 120.681C120.391 121.747 120.132 122.103 118.968 122.103C112.6 122.038 106.231 122.071 99.862 122.071C90.6806 122.071 81.4668 122.071 72.2854 122.038C71.9944 121.844 71.6711 121.909 71.3478 121.909C59.4184 121.909 47.5213 121.909 35.5919 121.909C35.2363 121.909 34.8484 121.812 34.5251 122.071C34.3634 122.038 34.2018 122.038 34.0401 122.006C34.0401 119.937 34.0078 117.9 34.0078 115.831Z" fill="#E92F24"/>
<path d="M34.0101 115.831C34.0101 117.9 34.0425 119.937 34.0425 122.006C33.6868 122.039 33.3312 122.071 32.9433 122.071C22.404 122.071 11.8648 122.071 1.29316 122.103C0.290961 122.103 0 121.877 0 120.842C0.032329 90.8087 0.032329 60.8073 0 30.7737C0 29.8038 0.161645 29.4482 1.2285 29.4805C4.46141 29.5775 7.69431 29.5452 10.9272 29.5452C10.9272 54.1799 10.9272 78.8469 10.9272 103.482C10.9272 110.271 16.6171 115.928 23.3092 115.831C26.8977 115.799 30.4539 115.831 34.0101 115.831Z" fill="#FEAF45"/>
<path d="M22.2092 29.4807C22.1768 31.7114 22.1768 33.9098 22.1445 36.1405C22.1445 36.7547 22.3708 36.9487 22.9851 37.0134C24.4075 37.1103 25.0864 37.8539 25.0541 39.0178C24.9895 40.1816 24.2136 40.8605 22.8234 40.8928C21.0776 40.9252 19.3642 40.9252 17.6184 40.8928C16.2929 40.8605 15.4201 40.1169 15.3877 39.0178C15.3554 37.8862 16.099 37.1103 17.4891 37.0457C18.1357 37.0134 18.2973 36.7871 18.2973 36.1728C18.265 33.9421 18.265 31.7437 18.2327 29.513C18.2327 25.7952 18.265 22.0773 18.265 18.3595C18.2973 9.17807 24.2459 2.00102 33.201 0.287586C43.0614 -1.5875 52.9864 5.94517 53.9239 15.9348C54.0856 17.7129 54.0532 19.491 54.0532 21.2691C54.0856 24.0171 54.0856 26.7651 54.1179 29.513C54.0856 31.7437 54.0856 33.9421 54.0532 36.1728C54.0532 36.7871 54.2149 37.0134 54.8615 37.0457C56.2193 37.1427 56.9952 37.9186 56.9629 39.0501C56.8982 40.1169 55.993 40.8928 54.6998 40.9252C53.0187 40.9575 51.3053 40.9575 49.6242 40.9252C48.1694 40.9252 47.3611 40.2139 47.3288 39.0178C47.2965 37.8539 47.9754 37.175 49.3979 37.0457C50.0444 37.0134 50.2384 36.7871 50.2384 36.1728C50.2061 33.9421 50.1738 31.7437 50.1738 29.513C50.2061 25.0193 50.497 20.5256 50.0444 16.0642C49.3332 9.24273 43.223 3.94077 36.2076 3.97309C29.2246 3.97309 23.1467 9.17807 22.4031 15.9672C21.8535 20.4286 22.1768 24.9546 22.2092 29.4807Z" fill="#534750"/>
<path d="M34.5273 122.07C34.8506 121.811 35.2386 121.908 35.5942 121.908C47.5236 121.908 59.4207 121.908 71.3501 121.908C71.6734 121.908 71.9967 121.844 72.2876 122.038C71.9644 122.07 71.6411 122.102 71.3178 122.102C59.3237 122.102 47.362 122.102 35.3679 122.102C35.0769 122.102 34.786 122.07 34.5273 122.07Z" fill="#FEAF45"/>
<path d="M61.812 62.7789C62.6849 62.7789 63.5901 62.7465 64.463 62.7789C65.6915 62.8435 66.4351 63.5548 66.4997 64.6216C66.5644 65.7531 66.0148 66.4967 64.754 66.6583C63.8811 66.7877 63.7841 67.1433 63.7518 67.9192C63.5901 71.7663 64.2044 75.3548 66.6937 78.5231C69.9913 82.6935 75.8105 84.5363 81.0801 82.9845C86.2205 81.4327 90.0676 76.7773 90.5525 71.54C90.6495 70.2792 90.6819 69.0507 90.7142 67.7899C90.7465 67.1109 90.5849 66.82 89.809 66.723C88.5158 66.5937 87.8046 65.7208 87.8369 64.6863C87.9016 63.6517 88.7421 62.8435 90.0029 62.8112C91.7487 62.7465 93.4622 62.7465 95.2079 62.8112C96.4364 62.8435 97.2123 63.5548 97.3093 64.5893C97.4063 65.7531 96.8567 66.529 95.4989 66.723C94.6583 66.82 94.529 67.2079 94.5613 67.8868C94.6583 70.8934 94.3997 73.8354 93.2358 76.6803C90.3909 83.6311 83.0845 88.1571 75.7782 87.4459C67.8576 86.67 61.5534 80.9478 60.1309 73.3181C59.8076 71.5077 59.9046 69.6973 59.9046 67.8868C59.9046 67.1756 59.7753 66.82 58.9348 66.7553C57.7386 66.6583 57.0273 65.7855 57.0273 64.7833C57.0597 63.7487 57.9002 62.9405 59.1287 62.8435C60.0339 62.7465 60.9068 62.8112 61.812 62.7789C61.812 62.7789 61.812 62.8112 61.812 62.7789Z" fill="#54454E"/>
</svg>
