<svg width="95" height="33" viewBox="0 0 95 33" fill="none" xmlns="http://www.w3.org/2000/svg">
<g clip-path="url(#clip0_2909_389)">
<path d="M1.07428 0L5.14915 9.93999L0 13.5009C5.14915 17.1189 16.0957 20.5465 25.3012 21.708C25.3012 17.0046 25.3012 12.3012 25.3012 7.59781C16.0216 6.60762 6.9458 2.6659 1.07428 0Z" fill="#EB3328"/>
<path d="M9.83594 10.7777L25.3019 7.59766V17.1187L9.83594 10.7777Z" fill="#AD1910"/>
<path d="M93.9457 0L89.8708 9.93999L95.02 13.5199C89.8708 17.1379 78.9242 20.5655 69.7188 21.7271C69.7188 17.0237 69.7188 12.3203 69.7188 7.61685C78.9798 6.60762 88.0742 2.6659 93.9457 0Z" fill="#EB3328"/>
<path d="M85.1662 11.4984L69.7188 7.59766V17.1187L85.1662 11.4984Z" fill="#AD1910"/>
<path d="M85.1664 25.8592C77.1834 29.0011 64.0697 33 47.511 33C30.9337 33 17.82 28.9821 9.85547 25.8592C9.85547 20.8321 9.85547 15.805 9.85547 10.7778C17.3014 14.0531 30.5076 18.7184 47.511 18.7184C64.5143 18.7184 77.7205 14.0531 85.1664 10.7778C85.1664 15.805 85.1664 20.8321 85.1664 25.8592Z" fill="#D12117"/>
</g>
<defs>
<clipPath id="clip0_2909_389">
<rect width="95" height="33" fill="white"/>
</clipPath>
</defs>
</svg>
