<svg width="27" height="27" viewBox="0 0 27 27" fill="none" xmlns="http://www.w3.org/2000/svg">
<path d="M19.7419 26.3673C19.3719 26.3059 18.995 26.2581 18.6251 26.1899C17.1862 25.9239 15.8364 25.3849 14.5346 24.7437C12.39 23.6932 10.403 22.4107 8.61471 20.835C5.03127 17.6766 2.20152 13.9861 0.605074 9.44295C0.214527 8.32421 -0.0252826 7.16455 0.00212419 5.97077C0.029531 4.81793 0.406375 3.80151 1.22173 2.9761C1.94801 2.2462 2.65373 1.48218 3.42798 0.806846C4.68869 -0.284604 5.98366 -0.270961 7.18956 0.861419C8.40916 2.00744 9.58766 3.20122 10.7319 4.42228C11.6774 5.42505 11.6706 6.78254 10.7456 7.79895C10.1015 8.50839 9.40266 9.17691 8.71749 9.84542C8.58046 9.97503 8.56675 10.0705 8.64897 10.2411C9.33414 11.6668 10.3208 12.8674 11.3965 14.0134C12.4859 15.1799 13.685 16.2168 15.0348 17.0763C15.391 17.3014 15.7747 17.4788 16.1379 17.697C16.2818 17.7857 16.3708 17.7653 16.4873 17.6493C17.056 17.0695 17.6384 16.4896 18.2208 15.9166C18.673 15.4664 19.18 15.1048 19.831 15.0025C20.708 14.8593 21.448 15.139 22.0646 15.7461C23.1883 16.8443 24.2983 17.9563 25.4082 19.0682C26.6004 20.262 26.7032 21.6194 25.5932 22.8883C24.8258 23.7682 23.9831 24.58 23.1335 25.3781C22.5305 25.9443 21.77 26.224 20.9409 26.3195C20.8793 26.3263 20.8245 26.3536 20.7696 26.3673C20.4271 26.3673 20.0845 26.3673 19.7419 26.3673ZM1.34506 5.98441C1.35191 7.4033 1.68764 8.52886 2.11245 9.64077C3.29094 12.7719 5.18886 15.4459 7.44993 17.8812C9.65617 20.2483 12.2256 22.1379 15.1444 23.5568C16.5969 24.2662 18.0906 24.8392 19.7145 25.0098C20.7011 25.1121 21.6398 24.9961 22.3866 24.2867C23.1472 23.5568 23.8872 22.7996 24.6066 22.0219C25.1821 21.3943 25.1753 20.7531 24.5792 20.146C23.4281 18.9727 22.2633 17.8198 21.0917 16.6738C20.6189 16.2099 20.0022 16.2031 19.4747 16.6124C19.3513 16.7079 19.2417 16.8171 19.1321 16.9262C18.488 17.5606 17.8577 18.2018 17.2136 18.8362C16.7956 19.2455 16.3434 19.3206 15.8227 19.0545C15.4459 18.8635 15.069 18.6725 14.7127 18.4542C13.0067 17.4378 11.5267 16.1485 10.1975 14.6887C9.08748 13.4745 8.07343 12.192 7.38826 10.6777C7.03197 9.89999 7.10049 9.55892 7.71714 8.96544C8.38861 8.32421 9.05322 7.67616 9.69043 7.00083C10.2317 6.421 10.2317 5.81388 9.67673 5.24086C8.83397 4.36088 7.9638 3.50819 7.10049 2.64185C6.78531 2.32806 6.47013 2.00744 6.1344 1.71411C5.59997 1.25707 5.00387 1.25025 4.45573 1.68001C4.3461 1.76187 4.24333 1.85737 4.1474 1.95287C3.55131 2.54635 2.96206 3.14664 2.35226 3.7333C1.65338 4.40863 1.31765 5.22722 1.34506 5.98441Z" fill="#475165"/>
</svg>
