<svg width="40" height="22" viewBox="0 0 40 22" fill="none" xmlns="http://www.w3.org/2000/svg">
<path d="M1.46924 2.07666L1.46951 2.07635C2.16893 1.24932 3.01821 0.803813 4.08994 0.771124L4.09171 0.771066C4.80284 0.747692 5.50515 0.749222 6.22661 0.750793C6.40918 0.75119 6.59298 0.75159 6.77846 0.75159H6.80791H6.83736H6.86681H6.89627H6.92572H6.95517H6.98463H7.01408H7.04353H7.07299H7.10244H7.1319H7.16135H7.19081H7.22026H7.24972H7.27917H7.30863H7.33809H7.36754H7.397H7.42646H7.45591H7.48537H7.51483H7.54429H7.57374H7.6032H7.63266H7.66212H7.69158H7.72104H7.7505H7.77996H7.80942H7.83888H7.86834H7.8978H7.92726H7.95672H7.98618H8.01564H8.0451H8.07456H8.10403H8.13349H8.16295H8.19241H8.22187H8.25134H8.2808H8.31026H8.33973H8.36919H8.39865H8.42812H8.45758H8.48705H8.51651H8.54598H8.57544H8.60491H8.63437H8.66384H8.6933H8.72277H8.75223H8.7817H8.81116H8.84063H8.8701H8.89956H8.92903H8.9585H8.98797H9.01743H9.0469H9.07637H9.10584H9.1353H9.16477H9.19424H9.22371H9.25318H9.28265H9.31212H9.34159H9.37106H9.40053H9.42999H9.45946H9.48893H9.5184H9.54787H9.57734H9.60682H9.63629H9.66576H9.69523H9.7247H9.75417H9.78364H9.81311H9.84259H9.87206H9.90153H9.931H9.96047H9.98995H10.0194H10.0489H10.0784H10.1078H10.1373H10.1668H10.1963H10.2257H10.2552H10.2847H10.3142H10.3436H10.3731H10.4026H10.432H10.4615H10.491H10.5205H10.5499H10.5794H10.6089H10.6384H10.6678H10.6973H10.7268H10.7563H10.7858H10.8152H10.8447H10.8742H10.9037H10.9331H10.9626H10.9921H11.0216H11.051H11.0805H11.11H11.1395H11.1689H11.1984H11.2279H11.2574H11.2869H11.3163H11.3458H11.3753H11.4048H11.4342H11.4637H11.4932H11.5227H11.5522H11.5816H11.6111H11.6406H11.6701H11.6996H11.729H11.7585H11.788H11.8175H11.847H11.8764H11.9059H11.9354H11.9649H11.9943H12.0238H12.0533H12.0828H12.1123H12.1417H12.1712H12.2007H12.2302H12.2597H12.2891H12.3186H12.3481H12.3776H12.4071H12.4366H12.466H12.4955H12.525H12.5545H12.584H12.6134H12.6429H12.6724H12.7019H12.7314H12.7608H12.7903H12.8198H12.8493H12.8788H12.9082H12.9377H12.9672H12.9967H13.0262H13.0557H13.0851H13.1146H13.1441H13.1736H13.2031H13.2325H13.262H13.2915H13.321H13.3505H13.38H13.4094H13.4389H13.4684H13.4979H13.5274H13.5569H13.5863H13.6158H13.6453H13.6748H13.7043H13.7337H13.7632H13.7927H13.8222H13.8517H13.8812H13.9106H13.9401H13.9696H13.9991H14.0286H14.0581H14.0875H14.117H14.1465H14.176H14.2055H14.235H14.2644H14.2939H14.3234H14.3529H14.3824H14.4118H14.4413H14.4708H14.5003H14.5298H14.5593H14.5887H14.6182H14.6477H14.6772H14.7067H14.7362H14.7656H14.7951H14.8246H14.8541H14.8836H14.913H14.9425H14.972H15.0015H15.031H15.0605H15.0899H15.1194H15.1489H15.1784H15.2079H15.2374H15.2668H15.2963H15.3258H15.3553H15.3848H15.4142H15.4437H15.4732H15.5027H15.5322H15.5617H15.5911H15.6206H15.6501H15.6796H15.7091H15.7385H15.768H15.7975H15.827H15.8565H15.886H15.9154H15.9449H15.9744H16.0039H16.0334H16.0628H16.0923H16.1218H16.1513H16.1808H16.2102H16.2397H16.2692H16.2987H16.3282H16.3576H16.3871H16.4166H16.4461H16.4756H16.505H16.5345H16.564H16.5935H16.623H16.6524H16.6819H16.7114H16.7409H16.7704H16.7998H16.8293H16.8588H16.8883H16.9178H16.9472H16.9767H17.0062H17.0357H17.0652H17.0946H17.1241H17.1536H17.1831H17.2125H17.242H17.2715H17.301H17.3305H17.3599H17.3894H17.4189H17.4484H17.4778H17.5073H17.5368H17.5663H17.5958H17.6252H17.6547H17.6842H17.7137H17.7431H17.7726H17.8021H17.8316H17.861H17.8905H17.92H17.9495H17.9789H18.0084H18.0379H18.0674H18.0968H18.1263H18.1558H18.1853H18.2147H18.2442H18.2737H18.3032H18.3326H18.3621H18.3916H18.4211H18.4505H18.48H18.5095H18.539H18.5684H18.5979H18.6274H18.6568H18.6863H18.7158H18.7453H18.7747H18.8042H18.8337H18.8632H18.8926H18.9221H18.9516H18.981H19.0105H19.04H19.0695H19.0989H19.1284H19.1579H19.1873H19.2168H19.2463H19.2757H19.3052H19.3347H19.3641H19.3936H19.4231H19.4526H19.482H19.5115H19.541H19.5704H19.5999H19.6294H19.6588H19.6883H19.7178H19.7472H19.7767H19.8062H19.8356H19.8651H19.8946H19.924H19.9535H19.983H20.0124H20.0419H20.0714H20.1008H20.1303H20.1597H20.1892H20.2187H20.2481H20.2776H20.3071H20.3365H20.366H20.3955H20.4249H20.4544H20.4838H20.5133H20.5428H20.5722H20.6017H20.6312H20.6606H20.6901H20.7195H20.749H20.7785H20.8079H20.8374H20.8668H20.8963H20.9258H20.9552H20.9847H21.0141H21.0436H21.073H21.1025H21.132H21.1614H21.1909H21.2203H21.2498H21.2793H21.3087H21.3382H21.3676H21.3971H21.4265H21.456H21.4854H21.5149H21.5444H21.5738H21.6033H21.6327H21.6622H21.6916H21.7211H21.7505H21.78H21.8094H21.8389H21.8683C22.713 0.75159 23.4012 0.920382 23.9499 1.23498C24.4919 1.54573 24.942 2.02373 25.279 2.71936C25.485 3.16124 25.5921 3.70425 25.5921 4.22622L25.5921 4.23148C25.6234 8.69058 25.613 13.1602 25.6025 17.6339V17.6357C25.6025 19.3974 24.4668 20.7377 22.6829 21.0628L22.6813 21.0631C22.437 21.1082 22.1728 21.1103 21.8266 21.1103H21.7928H21.759H21.7253H21.6915H21.6577H21.6239H21.5901H21.5563H21.5225H21.4887H21.4549H21.4211H21.3874H21.3536H21.3198H21.286H21.2522H21.2184H21.1846H21.1508H21.117H21.0832H21.0494H21.0157H20.9819H20.9481H20.9143H20.8805H20.8467H20.8129H20.7791H20.7453H20.7115H20.6778H20.644H20.6102H20.5764H20.5426H20.5088H20.475H20.4412H20.4074H20.3736H20.3398H20.3061H20.2723H20.2385H20.2047H20.1709H20.1371H20.1033H20.0695H20.0357H20.0019H19.9682H19.9344H19.9006H19.8668H19.833H19.7992H19.7654H19.7316H19.6978H19.664H19.6302H19.5965H19.5627H19.5289H19.4951H19.4613H19.4275H19.3937H19.3599H19.3261H19.2923H19.2586H19.2248H19.191H19.1572H19.1234H19.0896H19.0558H19.022H18.9882H18.9544H18.9206H18.8869H18.8531H18.8193H18.7855H18.7517H18.7179H18.6841H18.6503H18.6165H18.5827H18.549H18.5152H18.4814H18.4476H18.4138H18.38H18.3462H18.3124H18.2786H18.2448H18.2111H18.1773H18.1435H18.1097H18.0759H18.0421H18.0083H17.9745H17.9407H17.9069H17.8731H17.8394H17.8056H17.7718H17.738H17.7042H17.6704H17.6366H17.6028H17.569H17.5352H17.5014H17.4677H17.4339H17.4001H17.3663H17.3325H17.2987H17.2649H17.2311H17.1973H17.1635H17.1298H17.096H17.0622H17.0284H16.9946H16.9608H16.927H16.8932H16.8594H16.8256H16.7919H16.7581H16.7243H16.6905H16.6567H16.6229H16.5891H16.5553H16.5215H16.4877H16.4539H16.4202H16.3864H16.3526H16.3188H16.285H16.2512H16.2174H16.1836H16.1498H16.116H16.0823H16.0485H16.0147H15.9809H15.9471H15.9133H15.8795H15.8457H15.8119H15.7781H15.7443H15.7106H15.6768H15.643H15.6092H15.5754H15.5416H15.5078H15.474H15.4402H15.4064H15.3727H15.3389H15.3051H15.2713H15.2375H15.2037H15.1699H15.1361H15.1023H15.0685H15.0347H15.001H14.9672H14.9334H14.8996H14.8658H14.832H14.7982H14.7644H14.7306H14.6968H14.6631H14.6293H14.5955H14.5617H14.5279H14.4941H14.4603H14.4265H14.3927H14.3589H14.3251H14.2914H14.2576H14.2238H14.19H14.1562H14.1224H14.0886H14.0548H14.021H13.9872H13.9535H13.9197H13.8859H13.8521H13.8183H13.7845H13.7507H13.7169H13.6831H13.6493H13.6156H13.5818H13.548H13.5142H13.4804H13.4466H13.4128H13.379H13.3452H13.3114H13.2776H13.2439H13.2101H13.1763H13.1425H13.1087H13.0749H13.0411H13.0073H12.9735H12.9397H12.906H12.8722H12.8384H12.8046H12.7708H12.737H12.7032H12.6694H12.6356H12.6018H12.568H12.5343H12.5005H12.4667H12.4329H12.3991H12.3653H12.3315H12.2977H12.2639H12.2301H12.1964H12.1626H12.1288H12.095H12.0612H12.0274H11.9936H11.9598H11.926H11.8922H11.8584H11.8247H11.7909H11.7571H11.7233H11.6895H11.6557H11.6219H11.5881H11.5543H11.5205H11.4868H11.453H11.4192H11.3854H11.3516H11.3178H11.284H11.2502H11.2164H11.1826H11.1488H11.1151H11.0813H11.0475H11.0137H10.9799H10.9461H10.9123H10.8785H10.8447H10.8109H10.7772H10.7434H10.7096H10.6758H10.642H10.6082H10.5744H10.5406H10.5068H10.473H10.4392H10.4055H10.3717H10.3379H10.3041H10.2703H10.2365H10.2027H10.1689H10.1351H10.1013H10.0676H10.0338H9.99997H9.96618H9.93239H9.8986H9.86481H9.83102H9.79723H9.76344H9.72965H9.69586H9.66207H9.62828H9.59449H9.5607H9.52691H9.49312H9.45933H9.42554H9.39175H9.35795H9.32416H9.29037H9.25658H9.22279H9.189H9.15521H9.12142H9.08763H9.05384H9.02005H8.98626H8.95247H8.91868H8.88489H8.8511H8.81731H8.78352H8.74973H8.71594H8.68215H8.64836H8.61457H8.58078H8.54698H8.51319H8.4794H8.44561H8.41182H8.37803H8.34424H8.31045H8.27666H8.24287H8.20908H8.17529H8.1415H8.10771H8.07392H8.04013H8.00634H7.97255H7.93876H7.90497H7.87118H7.83739H7.8036H7.7698H7.73601H7.70222H7.66843H7.63464H7.60085H7.56706H7.53327H7.49948H7.46569H7.4319H7.39811H7.36432H7.33053H7.29674H7.26295H7.22916H7.19537H7.16158H7.12779H7.094H7.06021H7.02641H6.99262H6.95883H6.92504H6.89125H6.85746H6.82367H6.78988H6.75609H6.7223H6.68851H6.65472H6.62093H6.58714H6.55335H6.51956H6.48577H6.45198H6.41819H6.3844H6.35061H6.31682H6.28303H6.24924H6.21544H6.18165H6.14786H6.11407H6.08028H6.04649H6.0127H5.97891H5.94512H5.91133H5.87754H5.84375H5.80996H5.77617H5.74238H5.70859H5.6748H5.64101H5.60722H5.57343H5.53964H5.50585H5.47205H5.43826H5.40447H5.37068H5.33689H5.3031H5.26931H5.23552H5.20173H5.16794H5.13415H5.10036H5.06657H5.03278H4.99899H4.9652H4.93141H4.89762H4.86383H4.83004H4.79625H4.76246H4.72867H4.69487H4.66108H4.62729H4.5935H4.55971H4.52592C3.47189 21.1103 2.65167 20.8395 2.05099 20.3783C1.4533 19.9194 1.01181 19.2253 0.793989 18.265L0.784577 18.2235L0.770531 18.1833C0.764004 18.1647 0.757082 18.147 0.75 18.1305V3.62748C0.937809 2.9888 1.12175 2.48709 1.46924 2.07666ZM32.2431 16.8416C31.2384 16.2933 30.2325 15.7444 29.2241 15.1977L39.0169 4.83102C39.0325 6.34403 39.0306 7.86821 39.0286 9.3952C39.028 9.90473 39.0273 10.4146 39.0273 10.9244C39.0273 11.6206 39.0285 12.3157 39.0296 13.0104V13.0115V13.0126C39.0319 14.4002 39.0343 15.7863 39.0273 17.1769L38.2773 17.1722C38.2773 17.1725 38.2773 17.1728 38.2773 17.1731C38.2696 18.2974 37.1574 19.1419 35.9613 18.8023C35.7658 18.7447 35.5502 18.6447 35.3247 18.5194L35.3247 18.5193L35.3176 18.5155C34.2915 17.9594 33.2679 17.4008 32.2431 16.8416L32.2431 16.8416Z" stroke="#475165" stroke-width="1.5"/>
</svg>
