<svg width="18" height="18" viewBox="0 0 18 18" fill="none" xmlns="http://www.w3.org/2000/svg">
<path d="M0 0.966021C0.0218742 0.911302 0.0382799 0.856583 0.0601542 0.801864C0.322645 0.0084406 1.29605 -0.259682 1.9304 0.287507C2.00149 0.347698 2.06712 0.418832 2.13274 0.484495C4.36938 2.7225 6.60602 4.9605 8.84266 7.1985C8.89188 7.24775 8.91922 7.31341 8.96297 7.3736C8.99031 7.3736 9.01219 7.36813 9.03953 7.36813C9.07781 7.30794 9.11062 7.24775 9.15984 7.1985C11.4238 4.92767 13.6878 2.66231 15.9573 0.396944C16.3565 -0.00250316 16.8705 -0.106469 17.3353 0.117878C18.008 0.44072 18.2103 1.30528 17.7455 1.89077C17.6853 1.9619 17.6197 2.03304 17.5541 2.0987C15.3065 4.34765 13.0535 6.60206 10.8059 8.85101C10.7567 8.90025 10.6965 8.93856 10.5981 9.01516C10.6856 9.08083 10.7512 9.11366 10.8004 9.16291C13.0699 11.4283 15.3338 13.6991 17.5978 15.9645C17.8986 16.2654 18.0572 16.6156 17.9752 17.0424C17.8931 17.5075 17.6088 17.814 17.1603 17.9672C17.133 17.9781 17.1057 17.9891 17.0838 18C16.9088 18 16.7338 18 16.5588 18C16.2197 17.8851 15.9791 17.6443 15.733 17.3981C13.5402 15.1984 11.3473 13.0042 9.1489 10.8099C9.09968 10.7607 9.05047 10.7169 8.97938 10.6513C8.92469 10.7169 8.88094 10.7716 8.83173 10.8209C6.63336 13.0206 4.42953 15.2258 2.23117 17.4309C1.99602 17.6662 1.76088 17.8851 1.4437 17.9945C1.26871 17.9945 1.09371 17.9945 0.918718 17.9945C0.678101 17.907 0.437485 17.814 0.289834 17.5951C0.174994 17.4255 0.0984341 17.2285 0 17.0424C0 16.9111 0 16.7852 0 16.6539C0.0820284 16.3037 0.300771 16.0465 0.552325 15.8003C2.77256 13.5897 4.98733 11.3681 7.20209 9.15196C7.25131 9.10271 7.31693 9.07535 7.4099 9.00969C7.306 8.92761 7.24584 8.88931 7.19663 8.84006C4.98186 6.62942 2.77256 4.41878 0.557793 2.20814C0.306239 1.9619 0.0820284 1.70473 0 1.35452C0 1.22867 0 1.09735 0 0.966021Z" fill="#FEFFFF"/>
</svg>
