<svg width="34" height="31" viewBox="0 0 34 31" fill="none" xmlns="http://www.w3.org/2000/svg">
<path d="M0.00876925 14.1237C0.122769 13.3793 0.184154 12.6261 0.359539 11.8905C1.60477 6.74952 4.67401 3.14999 9.56725 1.10062C9.97063 0.934216 10.2513 1.00428 10.374 1.30205C10.4968 1.59982 10.3477 1.84505 9.93556 2.01145C6.4454 3.42148 3.88478 5.82117 2.29754 9.21927C-1.23646 16.7511 2.71847 25.8682 10.6108 28.4343C17.6262 30.7201 25.0274 27.4271 28.0177 20.6922C30.5696 14.947 28.7982 7.93185 23.826 4.06082C21.0287 1.88884 17.863 0.899184 14.329 1.04807C13.7151 1.07434 13.11 1.1882 12.5049 1.26702C12.4173 1.27578 12.3296 1.30205 12.2419 1.31081C11.8911 1.34584 11.6719 1.19696 11.6368 0.907942C11.5929 0.618929 11.7596 0.399979 12.0928 0.338673C12.5576 0.251093 13.0223 0.154756 13.4871 0.128482C15.9162 0.00586988 18.354 -0.116742 20.7743 0.207304C24.1505 0.662719 27.0444 2.16909 29.4208 4.60381C31.6833 6.92468 33.025 9.70972 33.5248 12.9064C34.4544 18.8093 31.5079 24.9924 26.3165 28.0227C23.9488 29.4064 21.397 30.1333 18.6522 30.1333C17.0211 30.1333 15.3813 30.1684 13.759 30.0633C10.8739 29.8706 8.27817 28.8459 5.9894 27.0943C2.98154 24.7997 1.07862 21.787 0.306924 18.0824C0.192923 17.5131 0.140308 16.9351 0.0613847 16.3658C0.0438462 16.2694 0.0263077 16.1731 0 16.0855C0.00876925 15.4374 0.00876925 14.7806 0.00876925 14.1237ZM30.1487 15.9454C30.9467 15.9454 31.7096 15.9542 32.4725 15.9366C32.5427 15.9366 32.6742 15.8053 32.6742 15.7352C32.6918 15.3236 32.6918 14.9032 32.6742 14.4916C32.6742 14.4128 32.569 14.2814 32.5076 14.2814C31.7271 14.2639 30.9379 14.2726 30.1399 14.2726C30.1487 14.8419 30.1487 15.3674 30.1487 15.9454ZM29.7716 11.6277C29.8593 12.1444 29.9294 12.6174 30.0171 13.0903C30.0347 13.1604 30.1311 13.2742 30.1838 13.2742C30.9642 13.283 31.7534 13.283 32.5865 13.283C32.4813 12.74 32.3848 12.2408 32.2708 11.7416C32.2621 11.689 32.1393 11.6277 32.0779 11.6277C31.3238 11.6277 30.5608 11.6277 29.7716 11.6277ZM29.7804 18.5903C30.5696 18.5903 31.315 18.5903 32.0691 18.5816C32.1481 18.5816 32.2708 18.5115 32.2884 18.4589C32.4024 17.9685 32.4901 17.4693 32.5953 16.9351C31.7622 16.9351 30.9818 16.9351 30.2101 16.9438C30.1487 16.9438 30.0347 17.0401 30.0259 17.1102C29.9294 17.5831 29.8593 18.0648 29.7804 18.5903ZM31.9727 10.6381C31.8587 10.3403 31.771 10.0776 31.6658 9.83233C31.3238 8.99156 31.3238 8.99156 30.4205 8.99156C29.9119 8.99156 29.4033 8.99156 28.8771 8.99156C29.0964 9.56959 29.2893 10.1038 29.491 10.6381C30.3153 10.6381 31.1221 10.6381 31.9727 10.6381ZM28.8859 21.2265C29.6576 21.2265 30.4118 21.2265 31.1659 21.2177C31.2361 21.2177 31.3325 21.1476 31.3588 21.0863C31.5693 20.5959 31.771 20.1054 31.999 19.5712C31.1571 19.5712 30.3854 19.5712 29.6138 19.58C29.5611 19.58 29.4734 19.6413 29.4559 19.6938C29.263 20.193 29.0788 20.6922 28.8859 21.2265ZM30.7976 8.00191C30.4644 7.51146 30.1662 7.1086 29.9031 6.68821C29.7277 6.3992 29.4998 6.31162 29.1753 6.32913C28.7105 6.35541 28.237 6.33789 27.7634 6.33789C27.6407 6.33789 27.5179 6.33789 27.3688 6.33789C27.7021 6.88965 28.0002 7.38009 28.3071 7.87054C28.3422 7.93185 28.4387 7.99315 28.5088 7.99315C29.2367 8.00191 29.9645 8.00191 30.7976 8.00191ZM30.8151 22.2161C29.9733 22.2161 29.2367 22.2161 28.5088 22.2161C28.4562 22.2161 28.3685 22.2512 28.3422 22.2862C28.0177 22.8029 27.7108 23.3196 27.3688 23.8714C28.1142 23.8714 28.8157 23.8714 29.5085 23.8714C29.5611 23.8714 29.6313 23.8539 29.6576 23.8188C30.0347 23.3109 30.3942 22.8029 30.8151 22.2161ZM25.0099 3.68422C24.9924 3.7105 24.9836 3.73677 24.966 3.76305C25.4659 4.26225 25.9657 4.76146 26.4831 5.2519C26.5533 5.32197 26.6936 5.34824 26.8076 5.34824C27.3425 5.357 27.8774 5.357 28.4124 5.34824C28.5001 5.34824 28.5877 5.33072 28.6754 5.32197C28.6842 5.29569 28.693 5.26066 28.7017 5.23439C28.123 4.7527 27.553 4.26225 26.9742 3.78932C26.9041 3.72801 26.7988 3.69298 26.7111 3.69298C26.1411 3.68422 25.5711 3.68422 25.0099 3.68422ZM28.7017 24.9836C28.6842 24.9486 28.6667 24.9048 28.6579 24.8698C28.0704 24.8698 27.4916 24.8785 26.9041 24.861C26.6673 24.8523 26.5007 24.9311 26.3428 25.1063C25.957 25.5266 25.5448 25.912 25.1502 26.3149C25.0976 26.3674 25.045 26.4287 24.9573 26.5338C25.5799 26.5338 26.1499 26.5338 26.7111 26.5338C26.7901 26.5338 26.8865 26.5075 26.9479 26.455C27.5354 25.9645 28.1142 25.4741 28.7017 24.9836ZM25.1151 2.69457C23.905 1.99393 22.6247 1.53852 21.2303 1.28454C22.0371 1.75747 22.7913 2.20412 23.5542 2.65078C23.598 2.67706 23.6594 2.69457 23.712 2.69457C24.1768 2.70333 24.6504 2.69457 25.1151 2.69457ZM21.2216 28.9335C22.6334 28.662 23.9137 28.2241 25.1151 27.5497C24.6942 27.5235 24.282 27.5147 23.8699 27.5235C23.7647 27.5235 23.6419 27.5235 23.5542 27.5672C22.7913 28.0051 22.0371 28.4518 21.2216 28.9335Z" fill="white"/>
<path d="M27.4099 14.9033C27.3573 18.2314 26.3313 20.9726 24.253 23.3198C24.0075 23.5913 23.7619 23.6438 23.5339 23.4687C23.3147 23.311 23.2796 23.0921 23.3848 22.8556C23.4287 22.7505 23.5252 22.6629 23.6041 22.5666C25.0159 20.9376 25.9104 19.0721 26.2612 16.944C27.0241 12.3197 24.8493 7.68676 20.7979 5.32211C14.1158 1.43356 5.59204 5.21701 3.96973 12.8014C2.63681 19.0546 6.9162 25.2816 13.2476 26.28C16.2993 26.7617 19.1055 26.1136 21.6398 24.3444C21.7012 24.3007 21.7625 24.2569 21.8327 24.2131C22.087 24.0642 22.3501 24.1167 22.5079 24.3269C22.6658 24.5459 22.6307 24.8524 22.3852 25.0188C21.8152 25.3867 21.2539 25.7808 20.6488 26.0785C13.3704 29.7481 4.62743 25.5093 2.99635 17.522C1.63711 10.9272 6.04805 4.29742 12.6425 3.03627C19.0967 1.8014 25.2352 5.61112 26.9802 11.9344C27.1118 12.4073 27.2082 12.889 27.2784 13.3795C27.3573 13.9487 27.3836 14.5355 27.4099 14.9033Z" fill="white"/>
<path d="M15.0691 10.6381C15.2357 10.6381 15.3936 10.6381 15.5602 10.6381C16.3582 10.6293 16.9457 10.9796 17.3053 11.6978C17.5157 12.1094 17.8402 12.3109 18.2173 12.2583C18.8224 12.1795 19.1556 11.5927 18.8925 11.0059C18.4277 9.97247 17.6385 9.31562 16.5511 9.00909C16.025 8.8602 15.946 8.78138 15.946 8.24715C15.946 7.98441 15.9548 7.72167 15.9373 7.45893C15.911 6.94221 15.5514 6.57437 15.0691 6.57437C14.5868 6.57437 14.2185 6.95096 14.2097 7.46768C14.201 7.73918 14.2097 8.01068 14.2097 8.29094C14.2097 8.76387 14.1133 8.87772 13.6573 9.00033C12.377 9.35065 11.5088 10.1476 11.1142 11.4175C10.4302 13.6245 12.0525 15.8929 14.3676 15.9717C14.7797 15.9892 15.2007 15.9717 15.6128 15.9804C16.6651 15.998 17.4631 16.7862 17.4456 17.8109C17.4368 18.818 16.6476 19.58 15.604 19.5887C15.2796 19.5887 14.9464 19.58 14.6219 19.5887C13.78 19.6063 13.1837 19.2297 12.8242 18.4677C12.6225 18.0386 12.2454 17.8284 11.8508 17.916C11.272 18.0386 10.9914 18.5903 11.2282 19.1596C11.6842 20.2368 12.491 20.9287 13.6134 21.2352C14.122 21.3754 14.201 21.4629 14.201 21.9797C14.201 22.2512 14.1922 22.5314 14.201 22.8029C14.2185 23.2934 14.5868 23.6612 15.0516 23.67C15.5251 23.6787 15.8934 23.3196 15.9197 22.8292C15.9373 22.5139 15.9285 22.1986 15.9285 21.8746C15.9285 21.5418 16.0776 21.3491 16.402 21.2615C16.7177 21.1739 17.0247 21.0513 17.3228 20.9199C17.6473 20.7886 17.9016 20.8411 18.0419 21.0864C18.1822 21.3491 18.0857 21.6293 17.7788 21.7957C17.4982 21.9446 17.1124 21.9972 16.9545 22.2249C16.8054 22.4351 16.9282 22.8204 16.8844 23.1182C16.7616 24.0203 15.8847 24.7034 14.9639 24.6508C14.0344 24.5983 13.21 23.8364 13.2364 22.9168C13.2539 22.33 13.061 22.1023 12.526 21.8658C11.3334 21.3403 10.5179 20.4207 10.1847 19.1508C9.94788 18.2488 10.4916 17.3467 11.3685 17.0314C12.2279 16.7249 13.2188 17.0664 13.6047 17.8984C13.8677 18.4677 14.2536 18.6779 14.8499 18.6166C15.0954 18.5903 15.3497 18.6166 15.604 18.6078C16.0951 18.5991 16.4284 18.2838 16.4459 17.8284C16.4634 17.3554 16.1302 17.0051 15.6304 16.9789C15.2007 16.9613 14.7797 16.9789 14.35 16.9701C12.377 16.9263 10.6494 15.5688 10.1145 13.6683C9.49188 11.4175 10.6757 9.04412 12.868 8.22963C13.1487 8.12453 13.2276 7.99316 13.21 7.71291C13.1574 6.97724 13.3942 6.34666 14.0256 5.92628C14.6044 5.53217 15.2357 5.48838 15.8671 5.79491C16.4985 6.10144 16.9107 6.61816 16.8844 7.3188C16.8668 7.90558 17.0685 8.16832 17.6122 8.39603C18.6207 8.81641 19.3222 9.60463 19.7694 10.5943C20.2079 11.5577 19.8308 12.6349 18.9101 13.0816C17.9893 13.5282 16.9107 13.1604 16.4284 12.2058C16.2267 11.8029 15.9373 11.6102 15.49 11.6365C15.1656 11.654 14.8324 11.6365 14.5079 11.6452C14.0256 11.654 13.6836 11.978 13.666 12.4335C13.6485 12.8801 13.9817 13.248 14.4553 13.2742C14.8587 13.3005 15.262 13.2742 15.6742 13.283C17.8402 13.318 19.6028 14.7631 20.0676 16.8738C20.2868 17.8809 20.1553 18.8531 19.7081 19.7814C19.5502 20.123 19.2696 20.2456 18.9977 20.1142C18.7259 19.9828 18.6645 19.7113 18.8224 19.3523C19.9185 16.9088 18.2874 14.3252 15.604 14.2726C15.2357 14.2639 14.8587 14.2814 14.4904 14.2726C13.4556 14.2464 12.6751 13.4581 12.6751 12.451C12.6751 11.4438 13.4731 10.6731 14.5167 10.6643C14.7184 10.6381 14.8937 10.6381 15.0691 10.6381Z" fill="white"/>
</svg>
