<svg width="36" height="36" viewBox="0 0 36 36" fill="none" xmlns="http://www.w3.org/2000/svg">
<path d="M19.4259 18.6533C19.155 18.9244 18.9022 19.1775 18.7758 19.304C19.2634 20.2799 19.8411 21.1474 20.112 22.0871C20.5453 23.551 20.1661 24.9787 19.1008 26.0631C16.3202 28.9185 13.5216 31.7559 10.6507 34.521C8.98961 36.1295 6.35346 36.0753 4.65622 34.521C3.44648 33.4186 2.27286 32.2439 1.17146 31.033C-0.399397 29.2981 -0.399399 26.6595 1.22562 24.9787C3.9701 22.1413 6.7507 19.3582 9.58545 16.6112C11.3008 14.9485 13.973 15.0208 15.7425 16.6292C15.8869 16.7557 16.0314 16.8822 16.1758 17.0088C16.4647 16.7377 16.7355 16.4666 17.0244 16.1955C16.2661 15.4364 15.6883 14.587 15.4897 13.5208C15.2188 12.0569 15.5077 10.7014 16.5369 9.65323C19.3175 6.79777 22.1161 3.96039 24.987 1.1953C26.612 -0.377014 29.2482 -0.395091 30.9454 1.123C32.2093 2.26157 33.4191 3.47243 34.5566 4.7375C36.0913 6.45439 36.001 9.07491 34.376 10.7918C32.9135 12.346 31.3788 13.828 29.8801 15.328C28.7787 16.4304 27.6412 17.4967 26.594 18.6353C24.4995 20.9124 21.3578 20.6413 19.6786 18.816C19.5884 18.7618 19.5161 18.7256 19.4259 18.6533ZM13.8286 19.6293C13.0883 18.6353 12.3841 18.5811 11.6077 19.3582C9.06183 21.9064 6.51596 24.4546 3.9701 27.0029C3.26593 27.7077 3.26593 28.3402 3.95205 29.045C4.83678 29.9487 5.72151 30.8342 6.6243 31.7198C7.36459 32.4608 7.97848 32.4608 8.71877 31.7198C11.2466 29.1896 13.7924 26.6595 16.3203 24.1112C17.0967 23.3341 17.0605 22.6835 16.1216 21.8522C15.6522 22.3763 15.1647 22.9004 14.7133 23.4064C13.8827 22.5751 13.1063 21.816 12.2396 20.9486C12.7633 20.5148 13.3049 20.063 13.8286 19.6293ZM21.8814 16.1774C22.6037 17.0449 23.2898 17.1172 23.9939 16.4124C26.594 13.828 29.176 11.2255 31.776 8.6231C32.3899 8.00863 32.3899 7.33995 31.776 6.70741C30.8552 5.76764 29.9163 4.82787 28.9774 3.90617C28.3093 3.25556 27.6954 3.25556 27.0273 3.92424C24.4453 6.49054 21.8634 9.07492 19.2994 11.6593C18.5772 12.3822 18.6494 13.087 19.6245 13.8822C20.3467 13.087 21.0689 12.2557 21.7189 11.5508C22.5675 12.4003 23.3439 13.1774 24.1565 13.9726C23.4342 14.6774 22.6759 15.4184 21.8814 16.1774Z" fill="white"/>
</svg>
