<svg width="10" height="9" viewBox="0 0 10 9" fill="none" xmlns="http://www.w3.org/2000/svg">
<path d="M0.73857 3.0578C0.38687 2.97573 0.146542 2.76234 0.0371239 2.39712C0.0293083 2.37045 0.0312622 2.33557 0 2.3171C0 2.20835 0 2.09756 0 1.98881C0.0566628 1.90469 0.0644783 1.80004 0.113326 1.71182C0.310668 1.3548 0.720985 1.15988 1.09613 1.25221C1.48496 1.34865 1.76436 1.70361 1.77608 2.12833C1.78195 2.33762 1.72333 2.53049 1.60219 2.70079C1.58265 2.72746 1.56702 2.75824 1.54943 2.78491C1.31497 2.99625 1.0551 3.11936 0.73857 3.0578Z" fill="#FE9F01"/>
<path d="M9.98437 2.31094C9.91989 2.64949 9.66589 2.94085 9.33568 3.03934C9.31223 3.04549 9.29074 3.05165 9.26729 3.0578C9.08753 3.09679 8.91559 3.06396 8.74951 2.99215C8.63619 2.9429 8.55217 2.85467 8.45252 2.78696C8.38804 2.65975 8.30207 2.5428 8.26299 2.39917C8.0891 1.78158 8.60102 1.14962 9.20672 1.2399C9.39429 1.26863 9.57601 1.34454 9.71669 1.47996C9.78507 1.54562 9.84174 1.62154 9.88667 1.70566C9.91012 1.7508 9.93161 1.79594 9.94724 1.84313C10.0039 2.00112 10.0117 2.16116 9.98437 2.31094Z" fill="#FE7817"/>
<path d="M8.45057 2.78696C8.55021 2.85467 8.63619 2.9429 8.74756 2.99214C8.91559 3.06396 9.08558 3.09679 9.26534 3.0578C9.03283 3.89084 8.80031 4.72592 8.5678 5.55896C8.45447 5.96316 8.33919 6.36532 8.22392 6.76747C7.15123 6.76747 6.07659 6.76747 5.00391 6.76747L5.00195 6.76542C5.00195 6.39609 5.00195 6.02677 5.00195 5.6595C5.26573 5.3866 5.5295 5.11371 5.79132 4.83877C5.85971 4.76696 5.97499 4.69515 5.98085 4.61718C5.98671 4.5269 5.86166 4.46124 5.79132 4.38737C5.5295 4.11243 5.26573 3.83954 5.00195 3.56665C5.00195 2.99214 5.00195 2.41764 5.00195 1.84313C5.03322 1.83903 5.06643 1.83492 5.09769 1.83492C5.2286 1.82877 5.34193 1.75901 5.46503 1.72002C5.45721 1.72413 5.52755 1.94983 5.53341 1.96829C5.57249 2.10576 5.61743 2.24118 5.67018 2.37455C5.82259 2.76234 6.00039 3.13372 6.30129 3.42097C6.47909 3.59127 6.6823 3.69797 6.93239 3.69181C7.24306 3.68566 7.52442 3.58307 7.7882 3.42097C7.98359 3.30197 8.14967 3.14398 8.30402 2.97368C8.35678 2.91623 8.40172 2.85057 8.45057 2.78696ZM6.75264 4.80594C6.74482 4.8121 6.7331 4.82031 6.72528 4.83056C6.61 4.95162 6.49668 5.07268 6.37945 5.19168C6.33841 5.23272 6.36772 5.25529 6.39312 5.28196C6.49863 5.39276 6.6061 5.50356 6.70965 5.61641C6.74873 5.65744 6.77218 5.6595 6.81125 5.61641C6.91481 5.50356 7.02032 5.39071 7.12974 5.28196C7.16882 5.24093 7.17077 5.2163 7.12974 5.17527C7.02227 5.06652 6.91676 4.95367 6.81125 4.84288C6.79562 4.82851 6.78195 4.80594 6.75264 4.80594Z" fill="#FE9E00"/>
<path d="M5.00195 1.84313C5.00195 2.41764 5.00195 2.99214 5.00195 3.56665L5.00391 3.57075C4.98437 3.58717 4.96092 3.60153 4.94334 3.62C4.6483 3.92777 4.35522 4.23964 4.06018 4.54536C4.00743 4.59871 4.00743 4.62744 4.06018 4.68283C4.31809 4.94752 4.57014 5.21836 4.82806 5.48509C4.88472 5.54459 4.93357 5.61436 5.00586 5.65744L5.00391 5.66155C5.00391 6.03087 5.00391 6.4002 5.00391 6.76747C3.93122 6.76747 2.85658 6.76747 1.7839 6.76747C1.56897 6.00009 1.35209 5.23272 1.13716 4.46534C1.0043 3.99548 0.873388 3.52561 0.742478 3.05575C1.0551 3.11936 1.31497 2.99625 1.54748 2.78696C1.53185 2.80133 1.74287 3.02087 1.7585 3.03728C2.03204 3.32659 2.35834 3.55229 2.73935 3.65283C3.14185 3.75952 3.4916 3.67745 3.78468 3.34506C4.15201 2.92649 4.37866 2.37045 4.51153 1.82467C4.51544 1.81236 4.54084 1.71797 4.5467 1.72002C4.69519 1.77953 4.83978 1.84724 5.00195 1.84313ZM3.24541 4.79774C3.23173 4.81005 3.21805 4.81825 3.20633 4.82851C3.09105 4.94957 2.97773 5.07063 2.86245 5.18963C2.82141 5.23067 2.84877 5.25324 2.87612 5.27991C2.98163 5.39071 3.0891 5.49945 3.19265 5.6123C3.22782 5.65129 3.25322 5.66155 3.29426 5.61641C3.39977 5.49945 3.50723 5.38866 3.61665 5.27581C3.65182 5.23887 3.65573 5.21425 3.61665 5.17732C3.50723 5.06652 3.39977 4.95162 3.2923 4.83877C3.27862 4.82851 3.26299 4.8162 3.24541 4.79774Z" fill="#FCBE00"/>
<path d="M4.49394 1.87596C4.46073 2.07088 4.38843 2.25349 4.31419 2.4361C4.18132 2.76645 4.01915 3.07832 3.78273 3.34506C3.4916 3.67745 3.1399 3.75952 2.7374 3.65283C2.44041 3.57486 2.17077 3.43944 1.94607 3.21784C2.22939 2.85878 2.57913 2.58383 2.96796 2.36429C3.44666 2.0955 3.95662 1.93752 4.49394 1.87596Z" fill="#FE4C01"/>
<path d="M8.05393 3.20758C7.98359 3.30607 7.88394 3.36352 7.78624 3.42302C7.52247 3.58512 7.24111 3.68771 6.93044 3.69386C6.68034 3.69797 6.47714 3.59332 6.29934 3.42302C5.99844 3.13372 5.82259 2.76234 5.66823 2.3766C5.60375 2.21246 5.54709 2.04626 5.51192 1.87391C5.97108 1.93136 6.41266 2.05242 6.83079 2.2576C7.29973 2.48535 7.7159 2.79107 8.05393 3.20758Z" fill="#CC1F0D"/>
<path d="M5.46503 1.72002C5.34193 1.75901 5.23056 1.82877 5.09769 1.83492C5.06643 1.83698 5.03322 1.84108 5.00195 1.84313C5.00195 1.22964 5.00195 0.614099 5.00195 0.000608403C5.56467 -0.0219615 6.00821 0.587426 5.85189 1.16193C5.78742 1.39994 5.64478 1.57229 5.46503 1.72002Z" fill="#FE7817"/>
<path d="M5.00195 0.000608403C5.00195 0.614099 5.00195 1.22964 5.00195 1.84313C4.83978 1.84518 4.69519 1.77953 4.5467 1.72002C4.37866 1.58666 4.23603 1.43277 4.17155 1.21323C3.98789 0.605892 4.39429 0.0108674 5.00195 0.000608403Z" fill="#FE9F01"/>
<path d="M1.77999 6.76952C2.85268 6.76952 3.92732 6.76952 5 6.76952L5.00195 6.77158C5.00195 7.17989 5.00195 7.59025 5.00195 7.99856C4.6737 8.00061 4.34545 8.00061 4.01524 8.00266C3.30012 8.00266 2.58304 8.00266 1.86792 8.00471C1.79562 8.00471 1.77413 7.9883 1.77608 7.91033C1.78195 7.52664 1.77999 7.14706 1.77999 6.76952Z" fill="#FE9E00"/>
<path d="M5.00195 7.99651C5.00195 7.5882 5.00195 7.17783 5.00195 6.76952C6.07464 6.76952 7.14928 6.76952 8.22196 6.76952C8.22196 7.15526 8.22196 7.541 8.22587 7.92879C8.22587 7.97599 8.22196 8.00266 8.1653 8.00266C7.1102 7.99856 6.05705 7.99651 5.00195 7.99651Z" fill="#FE7816"/>
<path d="M5.00195 3.56665C5.26573 3.83954 5.5295 4.11243 5.79132 4.38737C5.86166 4.46124 5.98671 4.5269 5.98085 4.61718C5.97499 4.69515 5.86166 4.76696 5.79132 4.83877C5.5295 5.11371 5.26573 5.3866 5.00195 5.6595L5.00391 5.65539C5.00391 4.95983 5.00391 4.26427 5.00391 3.5687L5.00195 3.56665Z" fill="#CC1E0D"/>
<path d="M6.75264 4.80594C6.78195 4.80594 6.79562 4.82851 6.81125 4.84493C6.91676 4.95572 7.02227 5.06857 7.12974 5.17732C7.17077 5.21836 7.16882 5.24298 7.12974 5.28401C7.02227 5.39276 6.91481 5.50356 6.81125 5.61846C6.77218 5.66155 6.74873 5.65949 6.70965 5.61846C6.6061 5.50561 6.49863 5.39481 6.39312 5.28401C6.36772 5.25734 6.33841 5.23477 6.37945 5.19373C6.49668 5.07473 6.61 4.95162 6.72528 4.83262C6.7331 4.82031 6.74482 4.8121 6.75264 4.80594Z" fill="#CD210D"/>
<path d="M5.00391 3.57075C5.00391 4.26632 5.00391 4.96188 5.00391 5.65744C4.93357 5.61436 4.88472 5.54459 4.8261 5.48509C4.57015 5.21836 4.31614 4.94752 4.05823 4.68284C4.00547 4.62949 4.00547 4.60076 4.05823 4.54536C4.35522 4.23964 4.6483 3.92777 4.94138 3.62C4.96288 3.60153 4.98437 3.58717 5.00391 3.57075Z" fill="#FE4C00"/>
<path d="M3.24541 4.79774C3.26299 4.81415 3.27862 4.82646 3.2923 4.84082C3.39977 4.95367 3.50723 5.06858 3.61665 5.17937C3.65377 5.21631 3.65182 5.24093 3.61665 5.27786C3.50723 5.38866 3.39781 5.50151 3.29426 5.61846C3.25322 5.6636 3.22782 5.65334 3.19265 5.61436C3.0891 5.50151 2.98163 5.39276 2.87612 5.28196C2.85072 5.25529 2.82337 5.23272 2.86245 5.19168C2.97773 5.07268 3.09301 4.95162 3.20633 4.83056C3.2161 4.81825 3.22978 4.81005 3.24541 4.79774Z" fill="#FE4E00"/>
</svg>
