<svg width="17" height="19" viewBox="0 0 17 19" fill="none" xmlns="http://www.w3.org/2000/svg">
<path d="M7.85749 1.10007C7.60187 1.10007 7.34626 1.09551 7.0952 1.09551C6.79394 1.09551 6.57484 0.935744 6.5155 0.670997C6.45159 0.401685 6.58853 0.159761 6.86697 0.0319522C6.88067 0.022823 6.89436 0.00912921 6.90805 0C7.4056 0 7.9077 0 8.40525 0C8.40525 0.365169 8.40525 0.725772 8.40525 1.09094C8.22266 1.09551 8.04008 1.09551 7.85749 1.10007Z" fill="#FB6249"/>
<path d="M8.40234 1.09094C8.40234 0.725772 8.40234 0.365169 8.40234 0C8.89989 0 9.40199 0 9.89953 0C9.90866 0.00912921 9.91323 0.022823 9.92236 0.0273876C10.2191 0.17802 10.3514 0.397121 10.2921 0.661868C10.2282 0.940309 10.0091 1.09551 9.68043 1.09551C9.43851 1.09551 9.19659 1.10007 8.9501 1.10007C8.76751 1.09551 8.58493 1.09551 8.40234 1.09094Z" fill="#DD523D"/>
<path d="M3.94769 3.1267C4.8104 2.60634 5.72788 2.22291 6.72297 2.02663C7.03336 1.96273 7.34375 1.91252 7.65871 1.89426C7.72262 1.88969 7.79109 1.87143 7.85499 1.8623C8.03757 1.8623 8.22016 1.86687 8.40274 1.86687C8.40274 2.56069 8.40731 3.24995 8.40731 3.94377C8.22929 4.01223 8.03757 3.95746 7.85499 3.98485C7.55373 4.00767 7.25246 4.05332 6.96033 4.12635C4.81496 4.68323 3.3269 5.99784 2.50071 8.05191C2.28617 8.58597 2.15836 9.14742 2.12641 9.72712C2.08076 10.0923 2.08076 10.4575 2.12641 10.8272C2.11728 11.0463 2.16293 11.2654 2.20857 11.4754C2.71524 13.7577 4.04811 15.3416 6.22543 16.2043C6.74579 16.4097 7.28898 16.5284 7.85043 16.5695C8.03301 16.5832 8.22016 16.5969 8.40274 16.6105C8.40274 17.3044 8.40274 17.9936 8.39818 18.6874C7.12009 18.7103 5.90134 18.4364 4.76475 17.8704C2.42767 16.7064 0.912224 14.8577 0.250356 12.3244C0.017561 11.4388 -0.0417789 10.5305 0.0266902 9.61757C0.127112 8.24819 0.560749 6.98836 1.2637 5.81982C1.29109 5.78787 1.31847 5.75591 1.3413 5.7194C1.72472 5.126 2.18118 4.58737 2.70155 4.10353C3.08498 3.73836 3.51405 3.42796 3.94769 3.1267Z" fill="#FB6249"/>
<path d="M8.40234 18.692C8.40234 17.9982 8.40234 17.3089 8.40691 16.6151C8.58949 16.6014 8.77208 16.5831 8.9501 16.5694C9.87215 16.4918 10.7349 16.218 11.5337 15.7569C12.7387 15.0586 13.6243 14.0635 14.1857 12.79C14.4596 12.1692 14.6239 11.5164 14.6741 10.8409C14.7243 10.4711 14.7243 10.106 14.6741 9.73623C14.6467 9.52169 14.6285 9.30259 14.5874 9.08805C14.3637 7.95147 13.8753 6.94725 13.0993 6.08911C11.9901 4.85666 10.6025 4.16284 8.9501 3.99852C8.76751 3.97113 8.58493 3.99852 8.40691 3.95287C8.40691 3.25905 8.40234 2.5698 8.40234 1.87598C8.58493 1.88054 8.76751 1.88054 8.9501 1.88511C9.73064 1.94445 10.4975 2.07682 11.2233 2.35982C14.099 3.47359 15.9476 5.5231 16.6095 8.5403C17.5407 12.8082 15.053 17.0168 10.8809 18.3268C10.0776 18.5779 9.2468 18.7011 8.40234 18.692Z" fill="#DD513C"/>
<path d="M3.94443 3.12677C3.51079 3.42803 3.08172 3.73843 2.69373 4.09903C2.17793 4.58288 1.72147 5.1215 1.33348 5.7149C1.31065 5.75142 1.28327 5.78337 1.25588 5.81532C1.04591 5.59622 0.813113 5.39538 0.625964 5.15802C0.260795 4.697 0.26536 3.98948 0.639658 3.53759C0.922663 3.19524 1.24219 2.88485 1.57084 2.58815C2.14598 2.07235 2.89001 2.09973 3.45602 2.63379C3.62491 2.79812 3.78467 2.96701 3.94443 3.12677Z" fill="#125C6E"/>
<path d="M8.95097 1.8805C8.76839 1.87593 8.58581 1.87593 8.40322 1.87137C8.22064 1.87137 8.03805 1.8668 7.85547 1.8668C7.85547 1.61119 7.85547 1.36013 7.85547 1.10451C8.03805 1.09995 8.22064 1.09538 8.40322 1.09082C8.58581 1.09538 8.76839 1.09995 8.95097 1.10451C8.95097 1.36013 8.95097 1.62031 8.95097 1.8805Z" fill="#26869B"/>
<path d="M7.85522 16.5739C7.29377 16.5328 6.75058 16.4187 6.23022 16.2087C4.0529 15.346 2.72003 13.7621 2.21336 11.4798C2.16772 11.2698 2.11751 11.0507 2.1312 10.8316C2.37312 10.8316 2.61505 10.8362 2.85697 10.8316C3.21758 10.8225 3.45037 10.5988 3.45037 10.2793C3.45037 9.95976 3.21758 9.74066 2.85697 9.73153C2.61505 9.72697 2.37312 9.73153 2.1312 9.73153C2.16315 9.15183 2.29096 8.59038 2.5055 8.05632C3.32713 5.99768 4.81519 4.68764 6.96512 4.13076C7.25725 4.05316 7.55852 4.01208 7.85978 3.98926C7.85978 4.22662 7.85978 4.46398 7.85978 4.69677C7.85978 5.08476 8.02411 5.27648 8.40753 5.33582C8.40753 5.9566 8.40753 6.57283 8.40753 7.19361C8.01041 7.30316 7.89173 7.45379 7.89173 7.86461C7.89173 8.71363 7.89173 9.56264 7.89173 10.4117C7.89173 10.8042 8.01954 10.9685 8.40297 11.0644C8.40297 12.452 8.40297 13.8351 8.40297 15.2228C8.01041 15.2958 7.85978 15.4784 7.85522 15.8801C7.85522 16.1129 7.85522 16.3411 7.85522 16.5739Z" fill="#F3F1E5"/>
<path d="M2.12798 9.7364C2.36991 9.7364 2.61183 9.73184 2.85376 9.7364C3.21436 9.74553 3.44716 9.96463 3.44716 10.2842C3.44716 10.6037 3.2098 10.8273 2.85376 10.8365C2.61183 10.841 2.36991 10.8365 2.12798 10.8365C2.08234 10.4667 2.08234 10.1016 2.12798 9.7364Z" fill="#155E70"/>
<path d="M7.85547 16.5741C7.85547 16.3459 7.85547 16.1131 7.85547 15.8848C7.85547 15.4832 8.01067 15.296 8.40322 15.2275C8.78665 15.2914 8.95097 15.4786 8.95097 15.8666C8.95097 16.1039 8.95097 16.3367 8.95097 16.5741C8.76839 16.5878 8.58581 16.6061 8.40779 16.6197C8.22064 16.6015 8.03805 16.5878 7.85547 16.5741Z" fill="#125D6E"/>
<path d="M8.39541 5.33588C8.01198 5.27654 7.85222 5.08483 7.84766 4.69684C7.84766 4.45948 7.84766 4.22212 7.84766 3.98932C8.03024 3.96194 8.21739 4.01671 8.39997 3.94824C8.57799 3.99389 8.76514 3.9665 8.94316 3.99389C8.94316 4.23125 8.94316 4.46861 8.94316 4.7014C8.94773 5.08483 8.77884 5.28111 8.39541 5.33588Z" fill="#125D6E"/>
<path d="M8.39844 5.33613C8.7773 5.28136 8.94619 5.08508 8.94619 4.70165C8.94619 4.4643 8.94619 4.22694 8.94619 3.99414C10.5986 4.15847 11.9817 4.85229 13.0954 6.08473C13.8714 6.94288 14.3598 7.95165 14.5835 9.08368C14.6246 9.29821 14.6428 9.51731 14.6702 9.73185C14.442 9.73185 14.2092 9.72729 13.981 9.73185C13.8714 9.73185 13.7618 9.74098 13.6614 9.79119C13.4241 9.90531 13.31 10.1427 13.3647 10.412C13.4104 10.6539 13.6295 10.8274 13.9262 10.8365C14.1727 10.8456 14.4237 10.8365 14.6702 10.8365C14.6154 11.5166 14.4557 12.1694 14.1818 12.7856C13.6203 14.0591 12.7394 15.0542 11.5298 15.7526C10.731 16.2182 9.86824 16.4875 8.94619 16.5651C8.94619 16.3277 8.94619 16.0949 8.94619 15.8576C8.94619 15.4741 8.78186 15.2824 8.39844 15.2185C8.39844 13.8309 8.39844 12.4478 8.39844 11.0602C8.8412 11.0602 9.28854 11.0602 9.7313 11.0556C10.0554 11.051 10.2973 10.8137 10.2973 10.5078C10.2973 10.1974 10.06 9.96465 9.73587 9.96008C9.53959 9.95552 9.34788 9.95095 9.1516 9.96008C9.01466 9.96921 8.97814 9.92813 8.97814 9.78663C8.98727 9.13389 8.98271 8.48571 8.98271 7.83297C8.98271 7.43129 8.80469 7.23045 8.403 7.18024C8.403 6.57314 8.403 5.95692 8.39844 5.33613Z" fill="#95D0D8"/>
<path d="M14.6742 10.8362C14.4277 10.8362 14.1766 10.8453 13.9301 10.8362C13.6334 10.827 13.4143 10.6536 13.3687 10.4116C13.3139 10.1423 13.4326 9.90498 13.6654 9.79086C13.7658 9.74065 13.8754 9.73609 13.9849 9.73152C14.2131 9.72696 14.4459 9.73152 14.6742 9.73152C14.7244 10.0967 14.7244 10.4664 14.6742 10.8362Z" fill="#135E6F"/>
<path d="M8.40252 7.19434C8.8042 7.24455 8.98222 7.44082 8.98222 7.84707C8.98222 8.49981 8.98679 9.14799 8.97766 9.80073C8.97766 9.93766 9.01418 9.97875 9.15111 9.97418C9.34739 9.96049 9.53911 9.96962 9.73538 9.97418C10.064 9.97875 10.2968 10.2115 10.2968 10.5219C10.2968 10.8232 10.0549 11.0651 9.73082 11.0697C9.28805 11.0743 8.84072 11.0743 8.39795 11.0743C8.01453 10.9784 7.88672 10.8141 7.88672 10.4215C7.88672 9.5725 7.88672 8.72348 7.88672 7.87446C7.88672 7.45452 8.0054 7.30389 8.40252 7.19434Z" fill="#115D6E"/>
</svg>
