<svg width="18" height="19" viewBox="0 0 18 19" fill="none" xmlns="http://www.w3.org/2000/svg">
<path d="M1.07779 18.9466C0.712681 18.8578 0.416644 18.6752 0.204485 18.3594C0.076202 18.1621 0.00712681 17.9401 0.00219286 17.7032C-0.00274108 17.3529 0.00219286 17.0026 0.00219286 16.6572C0.0317965 16.677 0.0317965 16.7066 0.0416644 16.7362C0.199551 17.2888 0.697879 17.6884 1.24061 17.6884C6.13015 17.6884 11.0197 17.6884 15.9092 17.6884C16.2053 17.6835 16.5062 17.718 16.7973 17.6539C16.8121 18.093 16.6296 18.4334 16.2891 18.7048C16.1214 18.838 15.9191 18.8824 15.7217 18.9515C10.847 18.9466 5.9624 18.9466 1.07779 18.9466Z" fill="#B4DAFE"/>
<path d="M15.7305 18.9463C15.9229 18.8772 16.1252 18.8328 16.2979 18.6996C16.6383 18.4282 16.8209 18.0878 16.8061 17.6486C16.9294 17.5648 17.0676 17.5253 17.1909 17.4365C17.4475 17.2441 17.5807 16.9727 17.6942 16.6865C17.6942 16.9924 17.6942 17.3033 17.6942 17.6092C17.6942 18.2555 17.3883 18.6848 16.7715 18.9019C16.7419 18.9117 16.7222 18.9315 16.6926 18.9413C16.3719 18.9463 16.0512 18.9463 15.7305 18.9463Z" fill="#97D0FE"/>
<path d="M15.9148 17.6829C11.0253 17.6829 6.13577 17.6829 1.24623 17.6829C0.703498 17.6829 0.20517 17.2833 0.047284 16.7307C0.0374162 16.7011 0.0374162 16.6715 0.0078125 16.6517C0.0078125 13.0401 0.0078125 9.42352 0.0078125 5.81188C0.0078125 5.76747 0.0127464 5.728 0.0127464 5.68359C0.0620859 5.68359 0.111425 5.68853 0.160765 5.68853C5.65718 5.68853 11.1487 5.68853 16.6451 5.68853C16.6993 5.68853 16.7536 5.68359 16.8128 5.68359L16.8079 5.6984C16.8079 9.26564 16.8079 12.8329 16.8079 16.4001C16.8079 16.9577 16.5415 17.3376 16.053 17.5843C16.0037 17.6089 15.9198 17.5991 15.9148 17.6829ZM14.2126 11.6734C14.2126 11.106 14.2126 10.5386 14.2126 9.97119C14.2126 9.81824 14.1978 9.66529 14.1732 9.51233C13.961 8.27391 12.6979 7.3858 11.4743 7.60783C10.2753 7.82493 9.48098 8.78211 9.47605 10.0008C9.47605 11.1208 9.47605 12.2457 9.47605 13.3657C9.47605 13.494 9.48592 13.6223 9.50072 13.7506C9.6438 14.8657 10.6553 15.8525 11.948 15.7834C13.2406 15.7143 14.1978 14.6979 14.2077 13.4299C14.2176 12.8427 14.2126 12.2605 14.2126 11.6734ZM6.04696 7.58316C4.55197 7.58316 3.47637 8.64889 3.48624 9.92185C3.49118 10.287 3.75268 10.5682 4.09805 10.5781C4.44343 10.5879 4.72466 10.3166 4.7444 9.95639C4.74933 9.85771 4.7592 9.75903 4.78387 9.66529C4.92202 9.10775 5.50423 8.74757 6.06176 8.86599C6.65877 8.99427 7.03868 9.54194 6.93507 10.1291C6.84132 10.6718 6.44167 11.0123 5.8496 11.0567C5.68185 11.0665 5.53383 11.1159 5.41541 11.2293C5.23286 11.407 5.16872 11.6783 5.26246 11.9102C5.37594 12.1865 5.59304 12.3099 5.88414 12.3247C6.62423 12.3543 7.12256 13.05 6.90546 13.7506C6.74264 14.2736 6.24432 14.5844 5.68185 14.5104C5.16872 14.4463 4.774 13.9924 4.7444 13.4299C4.72466 13.045 4.4681 12.7885 4.09805 12.7934C3.73787 12.7983 3.48624 13.0746 3.48624 13.4595C3.48624 14.8311 4.72466 15.9265 6.1111 15.7636C7.05842 15.6502 7.7245 15.1321 8.06001 14.2489C8.40045 13.3559 8.21789 12.527 7.58141 11.8116C7.48767 11.703 7.4926 11.6586 7.58141 11.5501C8.2475 10.7853 8.42018 9.92185 8.01067 8.99427C7.60115 8.07656 6.85119 7.62263 6.04696 7.58316Z" fill="#ECF4FE"/>
<path d="M0.00657859 4.14436C0.00657859 3.58189 -0.00822324 3.02435 0.00657859 2.46188C0.0263144 1.7958 0.58385 1.26787 1.26473 1.26294C2.1035 1.258 2.94227 1.26294 3.77611 1.26294C3.77611 1.59351 3.77611 1.92902 3.77611 2.25959C3.58369 2.25959 3.3962 2.25959 3.20377 2.25959C2.97188 2.25959 2.88307 2.33853 2.88307 2.54083C2.88307 2.70858 3.00148 2.81219 3.20377 2.81713C3.41593 2.82206 3.63303 2.81713 3.85012 2.81713C4.14122 3.29079 4.73823 3.26118 4.9948 2.81713C5.21682 2.81713 5.43392 2.82206 5.65594 2.81713C5.84343 2.81219 5.96185 2.69378 5.95691 2.52602C5.95198 2.34347 5.86317 2.26946 5.65594 2.26453C5.45859 2.26453 5.26616 2.26453 5.0688 2.26453C5.0688 1.93395 5.0688 1.59844 5.0688 1.26787C7.58512 1.26787 10.1014 1.26787 12.6227 1.26787C12.6227 1.59844 12.6227 1.93395 12.6227 2.26453C12.4352 2.26453 12.2428 2.26453 12.0553 2.26453C11.8234 2.26453 11.7346 2.34347 11.7346 2.54576C11.7346 2.71351 11.853 2.81713 12.0553 2.82206C12.2674 2.82699 12.4845 2.82206 12.6967 2.82206C12.9631 3.26612 13.5404 3.29572 13.8414 2.82206C14.0634 2.82206 14.2854 2.82699 14.5025 2.82206C14.69 2.81713 14.8084 2.69871 14.8035 2.53096C14.7985 2.3484 14.7097 2.27439 14.5025 2.26946C14.3051 2.26946 14.1078 2.26946 13.9154 2.26946C13.9154 1.93889 13.9154 1.60338 13.9154 1.2728C14.5469 1.2728 15.1785 1.2728 15.81 1.27774C15.8544 1.29747 15.8988 1.32214 15.9432 1.33694C16.4909 1.5195 16.8511 2.0573 16.8116 2.64444C16.7869 3.05396 16.8067 3.46841 16.8067 3.88286C16.8067 4.18383 16.8363 4.15423 16.5452 4.15423C11.029 4.14436 5.51779 4.14436 0.00657859 4.14436Z" fill="#FE435B"/>
<path d="M16.8079 5.68435C16.7536 5.68435 16.6993 5.68928 16.6401 5.68928C11.1437 5.68928 5.65224 5.68928 0.155831 5.68928C0.106491 5.68928 0.0571519 5.68928 0.0078125 5.68435C0.0078125 5.35377 0.0078125 5.02813 0.0078125 4.69756C5.50916 4.69756 11.0105 4.69756 16.5069 4.69756C16.5563 4.69756 16.6056 4.70249 16.6549 4.69756C16.7734 4.68276 16.803 4.74196 16.803 4.85051C16.803 5.12681 16.8079 5.40805 16.8079 5.68435Z" fill="#FE455D"/>
<path d="M16.8069 5.68421C16.8069 5.40791 16.8019 5.13161 16.8069 4.85037C16.8069 4.74182 16.7773 4.68755 16.6588 4.69742C16.6095 4.70235 16.5602 4.69742 16.5108 4.69742C11.0095 4.69742 5.50813 4.69742 0.0117188 4.69742C0.0117188 4.51486 0.0117188 4.32737 0.0117188 4.14482C5.52293 4.14482 11.0341 4.14482 16.5404 4.14482C16.8365 4.14482 16.8019 4.17442 16.8019 3.87345C16.8019 3.459 16.7822 3.04455 16.8069 2.63503C16.8463 2.04789 16.4862 1.50516 15.9385 1.32753C15.8941 1.31273 15.8497 1.28806 15.8053 1.26833C16.1161 1.26833 16.4319 1.22886 16.7427 1.30286C17.246 1.42128 17.6802 1.89987 17.6851 2.40313C17.6999 3.4886 17.6851 4.579 17.6851 5.6694C17.6752 5.67927 17.6654 5.68421 17.6555 5.69407C17.3693 5.69901 17.0881 5.69901 16.8019 5.70394L16.8069 5.68421Z" fill="#E2374E"/>
<path d="M16.8022 5.69834C17.0883 5.69341 17.3696 5.69341 17.6557 5.68848L17.6705 5.69341H17.6853C17.6853 8.31333 17.6853 10.9333 17.6903 13.5482C17.6903 14.5942 17.6903 15.6452 17.6903 16.6912C17.5768 16.9773 17.4436 17.2487 17.187 17.4411C17.0686 17.5299 16.9255 17.5694 16.8022 17.6533C16.5061 17.7174 16.2101 17.6829 15.9141 17.6878C15.919 17.6039 16.0029 17.6138 16.0522 17.5842C16.5357 17.3375 16.8071 16.9576 16.8071 16.4001C16.8022 12.8328 16.8022 9.26559 16.8022 5.69834Z" fill="#D4E7FD"/>
<path d="M3.78125 2.25481C3.78125 1.92424 3.78125 1.58873 3.78125 1.25816C3.78618 1.0608 3.78618 0.86344 3.79112 0.671016C3.80099 0.276301 4.06742 0 4.4276 0C4.78777 0 5.05421 0.281235 5.06408 0.671016C5.06901 0.868374 5.06901 1.06573 5.07394 1.25816C5.07394 1.58873 5.07394 1.92424 5.07394 2.25481C5.06901 2.4423 5.06901 2.62979 4.99993 2.81235C4.73844 3.2564 4.14143 3.28601 3.85033 2.81235C3.78618 2.62979 3.78125 2.44724 3.78125 2.25481Z" fill="#5C6C76"/>
<path d="M12.625 2.25481C12.625 1.92424 12.625 1.58873 12.625 1.25816C12.6299 1.0608 12.6299 0.86344 12.6349 0.671016C12.6447 0.281235 12.9112 0 13.2713 0C13.6266 0 13.8881 0.271367 13.9078 0.65128C13.9177 0.853572 13.9177 1.05586 13.9177 1.25816C13.9177 1.58873 13.9177 1.92424 13.9177 2.25481C13.9177 2.4423 13.9078 2.62979 13.8437 2.80741C13.5427 3.28601 12.9654 3.25147 12.699 2.80741C12.625 2.63473 12.6299 2.4423 12.625 2.25481Z" fill="#5C6C76"/>
<path d="M17.6898 5.69367H17.675L17.6602 5.68873C17.67 5.67886 17.6799 5.67393 17.6898 5.66406C17.6848 5.67393 17.6898 5.6838 17.6898 5.69367Z" fill="#FE455D"/>
<path d="M14.2121 11.6739C14.2121 12.261 14.2171 12.8432 14.2121 13.4304C14.2023 14.6984 13.2451 15.7148 11.9524 15.7839C10.6597 15.8529 9.64822 14.8662 9.50514 13.7511C9.49034 13.6228 9.48047 13.4945 9.48047 13.3662C9.48047 12.2462 9.48047 11.1213 9.48047 10.0013C9.48047 8.7826 10.2798 7.82542 11.4787 7.60832C12.7073 7.3863 13.9704 8.27441 14.1776 9.51283C14.2023 9.66578 14.2171 9.81873 14.2171 9.97168C14.2121 10.5391 14.2121 11.1065 14.2121 11.6739ZM10.7386 11.6739C10.7386 12.2364 10.7386 12.7939 10.7386 13.3564C10.7436 14.0225 11.2172 14.5208 11.8438 14.5257C12.4704 14.5306 12.954 14.0274 12.954 13.3662C12.954 12.2462 12.954 11.1213 12.954 10.0013C12.954 9.86314 12.9342 9.72992 12.8948 9.60164C12.727 9.09344 12.2188 8.77767 11.6958 8.85168C11.1531 8.93062 10.7485 9.38948 10.7436 9.95688C10.7337 10.5292 10.7386 11.1016 10.7386 11.6739Z" fill="#596C76"/>
<path d="M6.04524 7.58398C6.85441 7.62346 7.60437 8.07738 8.00895 9.00003C8.41847 9.92761 8.24578 10.796 7.5797 11.5558C7.48595 11.6594 7.48102 11.7088 7.5797 11.8173C8.21618 12.5327 8.39873 13.3616 8.05829 14.2547C7.72278 15.1379 7.0567 15.6608 6.10938 15.7694C4.72295 15.9322 3.48453 14.8369 3.48453 13.4652C3.48453 13.0755 3.73616 12.8041 4.09633 12.7992C4.46638 12.7942 4.72294 13.0459 4.74268 13.4356C4.76735 13.9932 5.16207 14.4471 5.68013 14.5162C6.2426 14.5902 6.74093 14.2793 6.90375 13.7563C7.12084 13.0557 6.62745 12.36 5.88242 12.3304C5.59132 12.3156 5.37423 12.1923 5.26074 11.916C5.16207 11.6841 5.23114 11.4127 5.4137 11.2351C5.53705 11.1167 5.68013 11.0723 5.84788 11.0624C6.43996 11.018 6.83961 10.6776 6.93335 10.1348C7.03696 9.54769 6.65705 9.00496 6.06004 8.87174C5.50251 8.75333 4.9203 9.11351 4.78215 9.67104C4.75748 9.76479 4.74761 9.86347 4.74268 9.96214C4.72294 10.3223 4.43678 10.5937 4.09633 10.5838C3.75096 10.574 3.48453 10.2927 3.48453 9.92761C3.46972 8.64972 4.55026 7.58398 6.04524 7.58398Z" fill="#5A6D77"/>
<path d="M3.78367 2.25493C3.78367 2.44242 3.79354 2.62991 3.85768 2.80754C3.64058 2.80754 3.42842 2.81247 3.21133 2.80754C3.01397 2.8026 2.89556 2.69899 2.89062 2.53123C2.89062 2.32894 2.9745 2.25493 3.21133 2.25C3.40376 2.25493 3.59124 2.25493 3.78367 2.25493Z" fill="#E2374E"/>
<path d="M13.8438 2.81237C13.9079 2.63475 13.9128 2.44726 13.9178 2.25977C14.1151 2.25977 14.3125 2.25977 14.5049 2.25977C14.7171 2.25977 14.8009 2.33871 14.8059 2.52126C14.8108 2.69395 14.6973 2.81237 14.5049 2.81237C14.2878 2.8173 14.0658 2.81237 13.8438 2.81237Z" fill="#E2374E"/>
<path d="M5 2.81242C5.06908 2.6348 5.06908 2.44237 5.07401 2.25488C5.27137 2.25488 5.46379 2.25488 5.66115 2.25488C5.86837 2.25488 5.95718 2.33383 5.96212 2.51638C5.96705 2.68907 5.85357 2.80748 5.66115 2.80748C5.43912 2.81735 5.21709 2.81242 5 2.81242Z" fill="#E2374E"/>
<path d="M12.6225 2.25488C12.6274 2.44237 12.6225 2.62986 12.6965 2.81242C12.4843 2.81242 12.2672 2.81242 12.0551 2.81242C11.8577 2.80748 11.7393 2.70387 11.7344 2.53612C11.7344 2.33383 11.8183 2.25982 12.0551 2.25488C12.2426 2.25488 12.4301 2.25488 12.6225 2.25488Z" fill="#E2374E"/>
<path d="M10.7393 11.6738C10.7393 11.1015 10.7344 10.5291 10.7393 9.95185C10.7442 9.38445 11.1488 8.9256 11.6916 8.84665C12.2146 8.77264 12.7228 9.08842 12.8905 9.59661C12.9349 9.72489 12.9497 9.85811 12.9497 9.99626C12.9497 11.1163 12.9497 12.2412 12.9497 13.3612C12.9497 14.0224 12.4662 14.5256 11.8396 14.5207C11.213 14.5158 10.7393 14.0174 10.7344 13.3513C10.7393 12.7987 10.7393 12.2363 10.7393 11.6738Z" fill="#EBF3FD"/>
</svg>
