<svg width="43" height="47" viewBox="0 0 43 47" fill="none" xmlns="http://www.w3.org/2000/svg">
<path d="M21.9548 0.0723999C27.0756 0.634282 31.9026 4.38868 33.0009 9.67548C33.0392 9.85426 33.0647 10.0203 33.103 10.1991C33.9714 15.2177 31.5068 20.3385 26.9606 22.7776C22.5294 25.1528 18.1238 24.9102 13.999 22.0369C10.6788 19.7255 8.94209 16.4308 8.86547 12.3955C8.78884 7.91321 10.7299 4.38868 14.4332 1.87298C16.7318 0.315031 19.388 -0.208541 21.9548 0.0723999Z" fill="white"/>
<path d="M21.7374 46.9641C15.6589 46.913 10.8062 45.3551 6.5155 42.1625C3.98703 40.2853 1.87997 37.9867 0.232633 35.2795C-0.0099984 34.8708 -0.0866187 34.4622 0.117702 34.0152C2.2503 29.5585 5.69821 26.698 10.4998 25.4976C10.8701 25.4082 11.2532 25.3572 11.6235 25.2678C12.3642 25.1145 13.0027 25.3316 13.6029 25.7658C16.0164 27.4642 18.7109 28.2304 21.648 28.1027C23.9083 28.0133 26.092 27.4642 27.9053 26.1234C29.259 25.1273 30.5615 25.1911 32.0173 25.587C36.1165 26.7235 39.1941 29.1754 41.3777 32.7893C42.3227 34.36 42.361 34.3856 41.3522 35.918C38.9003 39.5958 35.7334 42.5073 31.7491 44.4484C28.148 46.1979 24.6617 46.9641 21.7374 46.9641Z" fill="white"/>
</svg>
