<svg width="45" height="44" viewBox="0 0 45 44" fill="none" xmlns="http://www.w3.org/2000/svg">
<path d="M44.0162 20.4534C44.0162 21.5097 44.0162 22.5776 44.0162 23.634C43.9233 23.6804 43.9349 23.7733 43.9349 23.8545C43.7724 25.8163 43.3545 27.7316 42.6696 29.5773C38.363 41.2201 25.4317 47.0009 13.8817 42.439C3.88717 38.5039 -1.83559 27.6968 0.532449 17.2263C2.55225 8.26492 9.74923 1.60191 18.8732 0.220553C19.3723 0.150905 19.8947 0.162513 20.3822 0C21.4385 0 22.5065 0 23.5628 0C23.6208 0.11608 23.7369 0.0696482 23.8298 0.0812563C25.4781 0.208945 27.1032 0.487538 28.6587 1.03312C37.1558 4.0396 42.2169 9.97131 43.7956 18.8631C43.8885 19.397 43.8536 19.9426 44.0162 20.4534ZM22.2859 37.2966C22.5761 37.2966 22.8547 37.3082 23.1449 37.2966C23.4351 37.285 23.7137 37.2502 24.0039 37.2154C26.5112 36.902 28.7864 35.9965 30.8178 34.4991C33.5573 32.4909 35.4378 29.8559 36.529 26.6404C37.0281 25.1662 37.2835 23.6456 37.3067 22.0901C37.3183 21.5677 37.0397 21.2543 36.5754 21.2079C35.995 21.1382 35.6119 21.4865 35.5887 22.1714C35.5075 23.959 35.2057 25.7118 34.4395 27.3369C32.1527 32.2007 28.3221 34.9866 22.936 35.5206C17.0159 36.101 11.6529 32.398 9.45903 27.0003C8.8322 25.4448 8.51878 23.8313 8.42591 22.1597C8.39109 21.5213 8.06607 21.1731 7.52049 21.1847C6.97491 21.1963 6.68471 21.5561 6.69632 22.2178C6.71953 23.1232 6.8124 24.017 6.99813 24.8992C7.71782 28.3468 9.38938 31.2488 12.0708 33.5472C15.0193 36.0778 18.432 37.285 22.2859 37.2966ZM15.3791 10.9696C13.5102 10.9116 11.9315 12.4438 11.8735 14.3475C11.8155 16.2048 13.3361 17.7835 15.2514 17.8648C17.0971 17.946 18.699 16.4138 18.7687 14.4984C18.8267 12.5947 17.3177 11.0276 15.3791 10.9696ZM28.3917 10.9696C26.4996 10.9696 24.9442 12.5135 24.9325 14.4056C24.9209 16.2745 26.4764 17.8532 28.3685 17.8764C30.2606 17.8996 31.8393 16.3093 31.8393 14.4056C31.8277 12.5019 30.2839 10.9696 28.3917 10.9696Z" fill="#FEC00E"/>
<path d="M22.2859 37.2966C18.432 37.285 15.0083 36.0654 12.083 33.5464C9.41318 31.2481 7.74163 28.346 7.01032 24.8985C6.82459 24.0162 6.73173 23.1224 6.70851 22.217C6.68529 21.5669 6.9755 21.1955 7.53268 21.1839C8.07826 21.1723 8.40328 21.5089 8.43811 22.159C8.51936 23.8305 8.83278 25.4556 9.47122 26.9995C11.6651 32.3972 17.0164 36.1002 22.9482 35.5198C28.3343 34.9858 32.1649 32.1999 34.4517 27.3245C35.2179 25.6994 35.5197 23.9466 35.6009 22.159C35.6357 21.4741 36.0072 21.1375 36.5876 21.1955C37.0635 21.2535 37.3305 21.5553 37.3189 22.0777C37.2841 23.6332 37.0287 25.1538 36.5412 26.6281C35.45 29.8435 33.5695 32.4785 30.83 34.4867C28.7986 35.9841 26.5234 36.8896 24.0161 37.203C23.7375 37.2378 23.4473 37.2726 23.1571 37.2842C22.8669 37.3074 22.5761 37.2966 22.2859 37.2966Z" fill="#353432"/>
<path d="M15.383 10.9689C17.3331 11.0269 18.8422 12.594 18.7725 14.4977C18.7029 16.413 17.101 17.9453 15.2553 17.864C13.34 17.7828 11.8193 16.2157 11.8774 14.3468C11.9354 12.4431 13.5141 10.9108 15.383 10.9689Z" fill="#343433"/>
<path d="M28.3933 10.9693C30.2971 10.9693 31.8293 12.5016 31.8409 14.4053C31.8525 16.309 30.2622 17.8993 28.3701 17.8761C26.4896 17.8529 24.9342 16.2858 24.9342 14.4053C24.9458 12.5132 26.5012 10.9693 28.3933 10.9693Z" fill="#343433"/>
</svg>
