<svg width="32" height="32" viewBox="0 0 32 32" fill="none" xmlns="http://www.w3.org/2000/svg">
<g opacity="0.3">
<path d="M0.90625 16.4293C0.90625 15.7943 0.90625 15.1594 0.90625 14.5245C0.946006 14.1752 0.985762 13.8181 1.03347 13.4689C1.50259 10.2227 2.8225 7.38137 5.0886 5.00034C7.41036 2.56375 10.249 1.04783 13.5726 0.468447C14.1212 0.373206 14.6698 0.309712 15.2185 0.238281C15.8546 0.238281 16.4907 0.238281 17.1268 0.238281C17.413 0.277965 17.6913 0.317649 17.9776 0.349396C21.5 0.777981 24.5294 2.23041 27.0022 4.7543C30.4053 8.23061 31.8604 12.4371 31.3118 17.2706C30.8665 21.1675 29.149 24.4692 26.1435 26.9852C21.7385 30.6758 16.6974 31.7234 11.2588 29.8583C5.66904 27.9455 2.33747 23.9137 1.14479 18.1278C1.03347 17.5722 0.985762 17.0007 0.90625 16.4293ZM16.2124 25.3502C18.2956 25.3264 20.1244 24.8978 21.7544 23.8264C23.4401 22.7231 24.5691 21.2231 24.9508 19.2151C25.0144 18.8817 24.919 18.5881 24.6168 18.469C24.3624 18.3738 24.0364 18.3103 23.7899 18.3897C22.0327 18.9452 20.2357 19.2945 18.391 19.4294C16.117 19.5961 13.8588 19.5167 11.6245 19.0643C10.7499 18.8897 9.89115 18.6278 9.03242 18.3976C8.65076 18.2944 8.30885 18.2944 7.9908 18.5563C7.67275 18.8183 7.74432 19.1516 7.82383 19.4929C8.15778 20.9056 8.88134 22.0961 9.96271 23.0565C11.7994 24.6676 13.9701 25.3026 16.2124 25.3502ZM23.6945 11.5244C23.6945 10.6513 23.5116 9.84971 23.1538 9.23857C22.8358 8.69887 22.4303 8.23061 21.7464 8.23854C21.0626 8.24648 20.6333 8.69887 20.355 9.26238C19.6155 10.7545 19.6155 12.2625 20.3629 13.7467C20.6412 14.3022 21.0626 14.7546 21.7544 14.7626C22.4462 14.7626 22.8437 14.3022 23.1538 13.7546C23.5514 13.0641 23.6945 12.3101 23.6945 11.5244ZM8.65076 11.4926C8.65076 12.3577 8.82568 13.1355 9.18349 13.7546C9.50154 14.2943 9.89115 14.7626 10.5829 14.7626C11.2747 14.7626 11.6961 14.3022 11.9744 13.7467C12.7218 12.2466 12.7218 10.7307 11.9664 9.23857C11.6881 8.69094 11.2667 8.24648 10.5909 8.23854C9.90705 8.23061 9.49359 8.69094 9.18349 9.23857C8.79388 9.92907 8.65076 10.6989 8.65076 11.4926Z" fill="white"/>
</g>
</svg>
