<svg width="34" height="45" viewBox="0 0 34 45" fill="none" xmlns="http://www.w3.org/2000/svg">
<path d="M16.2905 44.8762C13.48 44.8334 10.3843 44.5196 7.45976 43.293C3.12287 41.4817 0.683358 38.2155 0.141247 33.5801C-0.386598 29.1016 0.612028 24.8656 2.35249 20.7722C3.6935 17.6486 5.47676 14.8104 7.94479 12.4427C8.20158 12.2003 8.14452 12.0006 8.05893 11.7438C7.24576 9.56164 6.41833 7.37944 5.63369 5.18298C4.76346 2.74405 6.4754 0.333651 8.9577 0.519067C9.671 0.576118 10.3843 0.847117 11.0976 0.989744C12.296 1.23221 13.5086 1.48892 14.7212 1.64581C15.8054 1.78844 16.8754 1.6886 17.9596 1.43187C19.9854 0.932673 22.0112 0.44776 24.0512 0.062666C26.6476 -0.422267 28.7305 1.98812 27.8888 4.49836C27.4037 5.95316 26.8331 7.3652 26.291 8.80574C25.9201 9.78987 25.5634 10.774 25.1782 11.7581C25.0641 12.0576 25.0784 12.2573 25.3209 12.4998C29.4581 16.636 31.7977 21.685 32.8677 27.3615C33.3812 30.1 33.4526 32.8527 32.7107 35.5769C31.5267 39.927 28.545 42.4943 24.3651 43.8208C22.0968 44.5339 19.4861 44.8762 16.2905 44.8762ZM10.3558 11.373C14.5357 10.3319 18.7014 10.4031 22.8671 11.3873C22.9242 11.2446 22.9813 11.1306 23.0241 11.0165C23.8943 8.69163 24.7645 6.35254 25.649 4.02772C25.8345 3.54278 25.8773 3.10064 25.5349 2.67276C25.164 2.21635 24.6789 2.21633 24.1653 2.33043C22.9527 2.60142 21.7401 2.87241 20.5132 3.1434C18.7157 3.54276 16.9324 4.19886 15.0493 3.91361C13.0806 3.61409 11.1261 3.22897 9.17169 2.85814C8.70091 2.77257 8.28718 2.78684 7.94479 3.15768C7.61667 3.52851 7.58815 3.95638 7.75934 4.39853C7.97333 4.96904 8.17306 5.53957 8.38705 6.09581C9.0433 7.83587 9.68526 9.59019 10.3558 11.373ZM17.8169 35.3059C20.4704 34.6641 21.897 33.138 21.9256 30.8559C21.9398 29.8433 21.6402 28.9305 21.0268 28.1175C20.2136 27.0478 19.1294 26.4915 17.8027 26.3346C17.8027 24.8656 17.8027 23.4393 17.8027 21.9417C18.0309 21.9417 18.2164 21.9417 18.4161 21.9417C19.1865 21.9417 19.9426 21.9417 20.7129 21.9417C21.2693 21.9417 21.683 21.6992 21.8542 21.1573C22.111 20.3871 21.5689 19.6739 20.6702 19.6597C19.7143 19.6454 18.7585 19.6597 17.8027 19.6597C17.66 18.5329 17.3462 18.105 16.6614 18.0622C15.9623 18.0195 15.62 18.4474 15.3917 19.6454C12.6811 20.3871 11.3972 21.742 11.2973 24.0098C11.2545 24.9369 11.4971 25.8069 12.0249 26.5914C12.8381 27.8037 13.9936 28.4455 15.4202 28.631C15.4202 30.1143 15.4202 31.5405 15.4202 33.0239C14.55 33.0239 13.7083 33.0239 12.8809 33.0239C11.8537 33.0239 11.3259 33.3947 11.3116 34.1364C11.2973 34.8923 11.8394 35.2916 12.8951 35.2916C13.7368 35.2916 14.5928 35.2916 15.4345 35.2916C15.5914 36.5896 15.891 37.0032 16.6328 37.0032C17.3462 36.9889 17.6315 36.5895 17.8169 35.3059Z" fill="white"/>
<path d="M17.8047 28.6582C18.9888 28.9149 19.6735 29.7707 19.6307 30.9117C19.5879 31.9386 18.8461 32.7801 17.8047 32.9228C17.8047 31.5107 17.8047 30.0987 17.8047 28.6582Z" fill="white"/>
<path d="M15.4341 26.2491C14.3498 26.1207 13.5938 25.2079 13.5938 24.1097C13.608 23.0257 14.3784 22.1272 15.4341 22.0273C15.4341 23.4251 15.4341 24.8371 15.4341 26.2491Z" fill="white"/>
</svg>
