<svg width="14" height="8" viewBox="0 0 14 8" fill="none" xmlns="http://www.w3.org/2000/svg">
<path d="M-0.00154695 3.98511C0.134392 4.18325 0.25597 4.39307 0.408275 4.57787C1.22959 5.57526 2.18951 6.40786 3.34983 6.99428C4.14175 7.39457 4.97676 7.64976 5.86287 7.73382C7.58432 7.89693 9.14144 7.4406 10.5673 6.49059C11.4931 5.87381 12.2647 5.09625 12.9377 4.21661C13.1037 3.99979 13.104 3.76462 12.939 3.54846C12.1628 2.5334 11.256 1.66077 10.1475 1.01097C9.23095 0.473577 8.24898 0.132331 7.18619 0.0319253C5.63909 -0.11418 4.21056 0.245079 2.88156 1.02998C1.78269 1.67911 0.884897 2.54941 0.116357 3.55914C0.0662565 3.62485 0.0371973 3.70691 -0.00154695 3.78096C-0.00154695 3.84935 -0.00154695 3.91706 -0.00154695 3.98511ZM6.50215 6.62335C4.9644 6.60067 3.76867 5.3621 3.78504 3.80932C3.8004 2.34726 5.06928 1.12171 6.54557 1.14306C8.09901 1.16541 9.28907 2.3923 9.27404 3.95609C9.26001 5.42348 7.99046 6.64536 6.50215 6.62335Z" fill="white"/>
<path d="M5.05137 3.88505C5.04603 3.08414 5.70064 2.41399 6.49552 2.40632C7.32179 2.39832 8.00345 3.05946 8.00779 3.87337C8.01213 4.68195 7.35819 5.35177 6.55664 5.35944C5.7337 5.36711 5.05638 4.70364 5.05137 3.88505Z" fill="white"/>
<path d="M5.05137 3.88505C5.05672 4.70364 5.73403 5.36711 6.55663 5.35944C7.35819 5.35177 8.01246 4.68229 8.00779 3.87337C8.00345 3.05979 7.32179 2.39864 6.49551 2.40632C5.70064 2.41399 5.04603 3.08414 5.05137 3.88505Z" fill="white"/>
</svg>
