<svg width="33" height="38" viewBox="0 0 33 38" fill="none" xmlns="http://www.w3.org/2000/svg">
<path d="M22.7765 0.0302436C23.3923 0.0907271 24.0081 0.120969 24.6239 0.181452C25.0344 0.211694 25.4743 0.272176 25.9142 0.302417C25.9142 2.29837 25.9142 4.26408 25.9142 6.26003C25.7382 6.26003 25.5916 6.26003 25.4156 6.26003C24.184 6.29028 22.9817 6.26004 21.7501 6.32052C20.2252 6.41125 19.4042 7.22778 19.3162 8.80035C19.2576 10.4334 19.2869 12.0665 19.2869 13.76C21.3982 13.76 23.5096 13.76 25.6502 13.76C25.357 16.0281 25.0931 18.2055 24.7998 20.4434C22.9524 20.4434 21.105 20.4434 19.2575 20.4434C19.2575 26.1591 19.2575 31.8446 19.2575 37.53C17.0289 37.53 14.8003 37.53 12.5716 37.53C12.5716 31.8446 12.5716 26.1591 12.5716 20.4434C10.6949 20.4434 8.84743 20.4434 7 20.4434C7 18.2055 7 15.9979 7 13.76C8.84743 13.76 10.6655 13.76 12.5716 13.76C12.5716 13.5785 12.5716 13.4273 12.5716 13.2761C12.5716 11.5221 12.5423 9.76808 12.6009 8.0443C12.6889 5.92738 13.2754 4.02215 14.7123 2.44958C15.7973 1.23991 17.1755 0.574589 18.7297 0.24193C19.1403 0.151205 19.5508 0.0907252 19.9907 0C20.929 0.0302417 21.8674 0.0302436 22.7765 0.0302436Z" fill="white"/>
</svg>
