<svg width="23" height="25" viewBox="0 0 23 25" fill="none" xmlns="http://www.w3.org/2000/svg">
<path d="M14.3858 24.9511H0V7.92708C0 3.55004 3.53617 0 7.89611 0H14.3858C18.7457 0 22.2819 3.55004 22.2819 7.92708V17.0241C22.2819 21.4011 18.7256 24.9511 14.3858 24.9511ZM1.60735 23.3375H14.3858C17.8617 23.3375 20.6745 20.5136 20.6745 17.0241V7.92708C20.6745 4.43755 17.8617 1.61365 14.3858 1.61365H7.89611C4.42021 1.61365 1.60735 4.43755 1.60735 7.92708V23.3375V23.3375Z" fill="#475165"/>
<path d="M17.4993 10.953H6.04697C5.66522 10.953 5.34375 10.6302 5.34375 10.247C5.34375 9.86375 5.66522 9.54102 6.04697 9.54102H17.4993C17.8811 9.54102 18.2026 9.86375 18.2026 10.247C18.2026 10.6302 17.8811 10.953 17.4993 10.953Z" fill="#475165"/>
<path d="M14.7875 15.7533H6.02743C5.64569 15.7533 5.32422 15.4305 5.32422 15.0473C5.32422 14.664 5.64569 14.3413 6.02743 14.3413H14.7875C15.1692 14.3413 15.4907 14.664 15.4907 15.0473C15.4907 15.4305 15.1692 15.7533 14.7875 15.7533Z" fill="#475165"/>
</svg>
