<svg width="24" height="26" viewBox="0 0 24 26" fill="none" xmlns="http://www.w3.org/2000/svg">
<path d="M19.1077 8.02793C21.3159 8.02793 23.106 6.23082 23.106 4.01396C23.106 1.79711 21.3159 0 19.1077 0C16.8995 0 15.1094 1.79711 15.1094 4.01396C15.1094 6.23082 16.8995 8.02793 19.1077 8.02793Z" fill="#475165"/>
<path d="M22.2618 9.82307C22.2216 9.41966 21.8801 9.1171 21.4782 9.1171C21.0362 9.1171 20.6746 9.48017 20.6746 9.92393V10.4484V18.093C20.6746 21.5826 17.8617 24.4065 14.3858 24.4065H7.89612C4.42022 24.4065 1.60735 21.5826 1.60735 18.093V8.9759C1.60735 5.48638 4.42022 2.66248 7.89612 2.66248L12.4168 2.70282H12.4369H13.1401C13.5821 2.70282 13.9639 2.33975 13.9639 1.87583C13.9639 1.45224 13.6424 1.10934 13.2406 1.069C13.2406 1.069 13.2406 1.069 13.2406 1.04883H13.1401H12.4369H7.89612C3.53618 1.04883 0 4.59887 0 8.9759V18.0729C0 22.4499 3.53618 26 7.89612 26H14.3858C18.7457 26 22.2819 22.4499 22.2819 18.0729V11.5981V9.92393L22.2618 9.82307C22.2618 9.82307 22.2819 9.82307 22.2618 9.82307Z" fill="#475165"/>
</svg>
