<svg width="26" height="26" viewBox="0 0 26 26" fill="none" xmlns="http://www.w3.org/2000/svg">
<path d="M17.3795 5.22633H15.2497L18.2836 2.32175C18.6051 2.01919 18.6252 1.49475 18.3037 1.17202C18.0023 0.849292 17.4799 0.829121 17.1585 1.15185L13.4816 4.66155L8.45868 0.20383C8.11711 -0.0987302 7.61482 -0.0583888 7.33354 0.284513C7.03216 0.627414 7.07234 1.13168 7.4139 1.41407L11.6935 5.20616H7.89611C3.53617 5.20616 0 8.7562 0 13.1332V17.8532C0 22.2302 3.53617 25.7802 7.89611 25.7802H17.3795C21.7394 25.7802 25.2756 22.2302 25.2756 17.8532V13.1534C25.2756 8.79654 21.7394 5.22633 17.3795 5.22633ZM23.6682 17.8733C23.6682 21.3629 20.8554 24.1868 17.3795 24.1868H7.89611C4.42021 24.1868 1.60735 21.3629 1.60735 17.8733V13.1534C1.60735 9.66388 4.42021 6.83998 7.89611 6.83998H13.5218L13.5419 6.86015L13.562 6.83998H17.3795C20.8554 6.83998 23.6682 9.66388 23.6682 13.1534V17.8733Z" fill="#475165"/>
<path d="M14.0641 18.0545H6.58993C6.20819 18.0545 5.88672 17.7318 5.88672 17.3486C5.88672 16.9653 6.20819 16.6426 6.58993 16.6426H14.0641C14.4459 16.6426 14.7673 16.9653 14.7673 17.3486C14.7673 17.7318 14.4459 18.0545 14.0641 18.0545Z" fill="#475165"/>
<path d="M17.8024 13.9803H10.3282C9.94647 13.9803 9.625 13.6576 9.625 13.2743C9.625 12.8911 9.94647 12.5684 10.3282 12.5684H17.8024C18.1841 12.5684 18.5056 12.8911 18.5056 13.2743C18.5056 13.6576 18.1841 13.9803 17.8024 13.9803Z" fill="#475165"/>
</svg>
