<svg width="23" height="25" viewBox="0 0 23 25" fill="none" xmlns="http://www.w3.org/2000/svg">
<path d="M14.3858 24.9511H7.89611C3.53617 24.9511 0 21.4011 0 17.0241V7.92708C0 3.55004 3.53617 0 7.89611 0H14.3858C18.7457 0 22.2819 3.55004 22.2819 7.92708V17.0241C22.2819 21.4011 18.7457 24.9511 14.3858 24.9511ZM7.89611 1.61365C4.42021 1.61365 1.60735 4.45772 1.60735 7.92708V17.0241C1.60735 20.5136 4.42021 23.3375 7.89611 23.3375H14.3858C17.8617 23.3375 20.6745 20.5136 20.6745 17.0241V7.92708C20.6745 4.43755 17.8617 1.61365 14.3858 1.61365H7.89611Z" fill="url(#paint0_linear_2560_389)"/>
<path d="M14.508 11.9209H8.40003C6.35066 11.9209 4.70312 10.2669 4.70312 8.20945C4.70312 6.15204 6.35066 4.49805 8.40003 4.49805H14.508C16.5573 4.49805 18.2049 6.15204 18.2049 8.20945C18.2049 10.2669 16.5372 11.9209 14.508 11.9209Z" fill="url(#paint1_linear_2560_389)"/>
<defs>
<linearGradient id="paint0_linear_2560_389" x1="11.1409" y1="0" x2="11.1409" y2="24.9511" gradientUnits="userSpaceOnUse">
<stop stop-color="#E92F24"/>
<stop offset="0.59375" stop-color="#ED3F34"/>
<stop offset="1" stop-color="#F7564D"/>
</linearGradient>
<linearGradient id="paint1_linear_2560_389" x1="11.454" y1="4.49805" x2="11.454" y2="11.9209" gradientUnits="userSpaceOnUse">
<stop stop-color="#E92F24"/>
<stop offset="0.59375" stop-color="#ED3F34"/>
<stop offset="1" stop-color="#F7564D"/>
</linearGradient>
</defs>
</svg>
