<svg width="21" height="22" viewBox="0 0 21 22" fill="none" xmlns="http://www.w3.org/2000/svg">
<path d="M2.21307 20.9984C2.18436 20.9984 2.15976 20.9984 2.13104 20.9984C1.58965 20.7811 1.51172 20.3423 1.51172 19.8174C1.52402 16.7296 1.51992 13.6459 1.51992 10.558C1.51992 10.4678 1.52402 10.3817 1.52812 10.2915C2.20077 10.2915 2.86931 10.2915 3.54196 10.2956C3.53376 10.3366 3.53376 10.3776 3.51735 10.4145C3.18103 11.3372 2.93084 12.2844 2.72986 13.244C2.64373 13.6459 2.57401 14.0477 2.52069 14.4537C2.58631 14.4578 2.61092 14.4168 2.63963 14.3922C3.25486 13.8427 3.9152 13.3465 4.59604 12.879C4.756 12.7683 4.83393 12.7847 4.92006 12.9529C5.18256 13.4613 5.49427 13.9452 5.81829 14.4168C5.95364 14.6136 6.08079 14.8228 6.26125 15.0073C6.28176 14.9622 6.30227 14.9417 6.30637 14.9171C6.36789 14.466 6.45812 14.019 6.56476 13.5762C6.83136 12.4485 7.18819 11.3454 7.67627 10.2915C8.05771 10.2915 8.43505 10.2915 8.81649 10.2915C8.82059 10.3817 8.82469 10.4678 8.82469 10.558C8.82469 13.937 8.82469 17.3119 8.82469 20.6909C8.82469 20.7811 8.83289 20.8672 8.83699 20.9574H8.82059C6.69601 20.9574 4.57554 20.9574 2.45096 20.9615C2.36893 20.9574 2.2787 20.9246 2.21307 20.9984Z" fill="#FEC63B"/>
<path d="M18.8249 20.9998C18.7962 20.9998 18.7716 20.9998 18.7429 20.9998C18.6772 20.926 18.587 20.9588 18.5132 20.9588C16.405 20.9547 14.2968 20.9547 12.1846 20.9547H12.1641C12.1682 20.8727 12.1764 20.7907 12.1764 20.7086C12.1764 18.6542 12.1764 16.5997 12.1764 14.5494C12.1764 13.1306 12.1805 11.7117 12.1805 10.2929C12.5619 10.2929 12.9433 10.2929 13.3248 10.2929C13.8662 11.4657 14.2476 12.6918 14.5183 13.9548C14.5921 14.2992 14.6496 14.6437 14.7152 14.9882C14.7972 14.98 14.8177 14.9267 14.8464 14.8815C15.2935 14.2787 15.6996 13.6472 16.0605 12.9911C16.1958 12.7492 16.1958 12.7492 16.4337 12.905C17.0161 13.2987 17.578 13.717 18.1112 14.1762C18.222 14.2746 18.3204 14.3977 18.4845 14.4633C18.3573 13.5816 18.181 12.7287 17.9431 11.8921C17.7913 11.3549 17.6191 10.826 17.455 10.2888C18.1276 10.2888 18.7962 10.2847 19.4688 10.2847C19.4688 10.297 19.4729 10.3134 19.4729 10.3257C19.4729 13.6021 19.477 16.8786 19.4729 20.155C19.4729 20.561 19.2761 20.8112 18.8864 20.9465C18.8618 20.967 18.8331 20.9711 18.8249 20.9998Z" fill="#FEC63B"/>
<path d="M18.2988 4.32031C18.7253 4.36132 19.1519 4.32851 19.5784 4.33672C19.7876 4.34082 20.0009 4.35312 20.2101 4.33261C20.5915 4.29981 20.8499 4.44743 21.0017 4.79599C21.0017 5.97289 21.0017 7.14569 21.0017 8.32259C20.8581 8.69166 20.5874 8.83928 20.2019 8.81468C19.964 8.80237 19.7261 8.81468 19.4841 8.81468C18.6105 8.81468 17.7369 8.81468 16.8633 8.81468C16.8181 8.72446 16.773 8.63014 16.732 8.53993C16.5146 8.08065 16.3013 7.61317 16.0388 7.1785C15.7148 6.51419 15.317 5.89498 14.8945 5.29218C15.0668 5.20606 15.2555 5.17736 15.4359 5.12815C16.3875 4.8575 17.3431 4.59096 18.2988 4.32031Z" fill="#FEC63B"/>
<path d="M0 4.80009C0.151755 4.45153 0.41015 4.32031 0.791589 4.33261C1.35349 4.35312 1.9195 4.34082 2.48141 4.33672C2.55523 4.33672 2.62906 4.32441 2.70289 4.32031C3.05972 4.42693 3.41655 4.52945 3.77748 4.63607C4.35169 4.80419 4.9341 4.92722 5.50011 5.12815C4.74953 6.24354 4.06869 7.39583 3.52729 8.63014C3.46577 8.77367 3.38374 8.83108 3.21968 8.82698C2.65367 8.81468 2.08766 8.82288 1.52166 8.82288C1.28377 8.82288 1.04178 8.80647 0.803894 8.82288C0.418353 8.84748 0.143552 8.69986 0.0041015 8.33079C0 7.14979 0 5.97699 0 4.80009Z" fill="#FEC63B"/>
<path d="M2.21484 20.9985C2.28047 20.9247 2.3707 20.9575 2.44453 20.9575C4.5691 20.9534 6.68958 20.9534 8.81415 20.9534C8.81415 20.9657 8.81826 20.9821 8.81826 20.9944C6.61575 20.9985 4.41735 20.9985 2.21484 20.9985Z" fill="#FED97E"/>
<path d="M12.1838 20.9568C14.292 20.9568 16.4001 20.9568 18.5124 20.9609C18.5903 20.9609 18.6765 20.9281 18.7421 21.0019C16.556 21.0019 14.3658 21.0019 12.1797 21.0019C12.1797 20.9855 12.1838 20.9691 12.1838 20.9568Z" fill="#FED97E"/>
<path d="M12.1839 20.957C12.1839 20.9693 12.1798 20.9857 12.1798 20.998C11.0601 20.998 9.93631 20.998 8.8166 20.998C8.8166 20.9857 8.8125 20.9693 8.8125 20.957H8.82891C9.94041 20.957 11.0519 20.957 12.1634 20.957H12.1839Z" fill="#FE6844"/>
<path d="M12.1636 20.9574C11.0521 20.9574 9.94061 20.9574 8.8291 20.9574C8.825 20.8672 8.8168 20.7811 8.8168 20.6909C8.8168 17.3119 8.8168 13.937 8.8168 10.558C8.8168 10.4678 8.8127 10.3817 8.80859 10.2915H8.825C9.9283 10.2915 11.0275 10.2915 12.1308 10.2915C12.1431 10.2915 12.1554 10.2915 12.1677 10.2956L12.1759 10.2915C12.1759 11.7103 12.1718 13.1292 12.1718 14.548C12.1718 16.6025 12.1718 18.6569 12.1718 20.7073C12.1759 20.7934 12.1677 20.8754 12.1636 20.9574Z" fill="#FE4440"/>
<path d="M7.67511 10.295C7.18704 11.3489 6.83431 12.452 6.56361 13.5797C6.45697 14.0226 6.37084 14.4696 6.30521 14.9206C6.30111 14.9452 6.28471 14.9698 6.2601 15.0108C6.07963 14.8263 5.95248 14.6172 5.81714 14.4203C5.49312 13.9488 5.1814 13.469 4.91891 12.9564C4.83278 12.7883 4.75485 12.7719 4.59489 12.8826C3.91404 13.3501 3.2537 13.8462 2.63847 14.3957C2.60976 14.4203 2.58516 14.4614 2.51953 14.4573C2.57285 14.0472 2.64258 13.6453 2.72871 13.2475C2.93378 12.288 3.18397 11.3407 3.51619 10.4181C3.5285 10.3812 3.5326 10.3361 3.5408 10.2991C3.72537 9.83987 3.90584 9.37239 4.10271 8.92131C4.3611 8.33081 4.6318 7.74031 4.96402 7.18262C5.02555 7.19082 5.08707 7.19492 5.14449 7.21132C5.83764 7.39995 6.5308 7.58859 7.21985 7.78132C7.72843 7.92074 8.23702 8.06837 8.7456 8.21599C8.63486 8.42103 8.52412 8.62196 8.41748 8.827C8.13448 9.29448 7.89249 9.78656 7.67511 10.295Z" fill="#FE4440"/>
<path d="M4.96108 7.17877C4.62886 7.73646 4.36226 8.32696 4.09976 8.91746C3.89879 9.37264 3.72243 9.83602 3.53786 10.2953C2.86521 10.2953 2.19667 10.2912 1.52402 10.2912C1.51992 9.79911 1.51582 9.30703 1.51172 8.81905C2.07773 8.81905 2.64373 8.81084 3.20974 8.82315C3.3738 8.82725 3.45583 8.76984 3.51735 8.62631C4.05875 7.3961 4.7396 6.23971 5.49017 5.12842C5.69525 5.15302 5.89212 5.20223 6.07669 5.29655C5.88802 5.5959 5.69525 5.88705 5.51478 6.1905C5.32611 6.51445 5.11283 6.83021 4.96108 7.17877Z" fill="#EEAF25"/>
<path d="M7.67578 10.2968C7.88906 9.78827 8.13515 9.29619 8.41815 8.81641C8.5535 8.81641 8.68475 8.81641 8.8201 8.81641C8.8242 9.30849 8.8324 9.80057 8.8365 10.2927H8.8201C8.43456 10.2968 8.05722 10.2968 7.67578 10.2968Z" fill="#EEAF25"/>
<path d="M16.0353 7.1792C16.2978 7.61797 16.5111 8.08135 16.7284 8.54063C16.7736 8.63085 16.8146 8.72516 16.8597 8.81538C17.0566 9.30746 17.2575 9.79954 17.4544 10.2957C17.6185 10.8288 17.7866 11.3619 17.9425 11.8991C18.1804 12.7356 18.3567 13.5886 18.4839 14.4702C18.3239 14.4046 18.2255 14.2816 18.1107 14.1832C17.5775 13.7239 17.0156 13.3056 16.4331 12.912C16.1953 12.752 16.1953 12.752 16.0599 12.9981C15.699 13.6542 15.2929 14.2857 14.8459 14.8885C14.813 14.9295 14.7966 14.9869 14.7146 14.9951C14.649 14.6507 14.5916 14.3062 14.5177 13.9618C14.2511 12.6987 13.8656 11.4726 13.3242 10.2998C13.2053 10.0456 13.0863 9.79544 12.9715 9.5412C12.7623 9.08192 12.4793 8.66365 12.2578 8.21257C12.3152 8.19207 12.3686 8.16337 12.4301 8.14696C13.2463 7.92142 14.0584 7.68769 14.8787 7.47445C15.2601 7.37193 15.6333 7.22841 16.0353 7.1792Z" fill="#FE4440"/>
<path d="M17.458 10.2968C17.2611 9.80467 17.0602 9.31259 16.8633 8.81641C17.7369 8.81641 18.6105 8.81641 19.4841 8.81641C19.48 9.30849 19.4759 9.80057 19.4718 10.2886C18.7992 10.2968 18.1306 10.2968 17.458 10.2968Z" fill="#EEAF25"/>
<path d="M12.2541 8.20936C12.4756 8.66044 12.7627 9.07871 12.9678 9.53799C13.0826 9.79223 13.2015 10.0424 13.3205 10.2966C12.939 10.2966 12.5576 10.2966 12.1762 10.2966L12.168 10.3007C12.168 10.2843 12.1721 10.2679 12.1721 10.2556C12.1721 9.77993 12.168 9.30015 12.168 8.82447C12.1721 8.60303 12.1721 8.38159 12.1762 8.16016C12.2049 8.17656 12.2295 8.19296 12.2541 8.20936Z" fill="#EEAF25"/>
<path d="M12.2557 8.20898C12.2311 8.19258 12.2065 8.17618 12.1777 8.15978C11.8947 7.62258 11.5297 7.1428 11.1606 6.66302C11.1155 6.60151 11.058 6.60561 10.9965 6.60561C10.6643 6.60561 10.328 6.60561 9.99574 6.60561C9.93422 6.60561 9.8768 6.60151 9.83168 6.66302C9.46255 7.1428 9.09751 7.62258 8.81451 8.15978C8.7899 8.17618 8.76529 8.19258 8.74069 8.20898C8.2321 8.06546 7.72761 7.91783 7.21493 7.77431C6.52177 7.58158 5.82862 7.39294 5.13957 7.20431C5.08215 7.18791 5.02063 7.18381 4.9591 7.17561C5.11086 6.82705 5.32004 6.51129 5.51281 6.18734C5.69327 5.88389 5.88604 5.58864 6.07471 5.29339C6.36182 5.31799 6.62841 5.42461 6.90321 5.49842C7.42821 5.63785 7.9532 5.78547 8.47819 5.9249C8.53971 5.9413 8.63405 6.00281 8.62174 5.85518C8.58483 5.33029 8.61354 4.80541 8.60944 4.28052C8.60944 4.14929 8.56432 4.07138 8.44948 4.00167C7.9655 3.71872 7.46922 3.46858 6.95653 3.24304C6.46025 3.0216 5.95577 2.80837 5.42257 2.69355C5.11496 2.62793 4.80735 2.56642 4.49563 2.58693C4.19212 2.60743 3.93783 2.73455 3.72865 2.96419C3.59741 3.11182 3.40053 3.11182 3.26929 3.0011C3.14624 2.89858 3.10933 2.68124 3.21187 2.55412C3.42104 2.29988 3.66303 2.08664 3.99935 2.00053C4.52024 1.86931 5.03703 1.91441 5.55382 2.03333C6.53818 2.26297 7.43641 2.70175 8.33054 3.15692C8.41667 3.20203 8.48639 3.28815 8.61764 3.27995C8.56432 2.90678 8.61764 2.55822 8.81451 2.23837C9.15494 1.94312 9.56509 1.93082 9.98754 1.94722C10.328 1.95952 10.6684 1.95952 11.0088 1.94722C11.4272 1.93082 11.8332 1.95542 12.1736 2.23837C12.3213 2.50491 12.4238 2.77966 12.3828 3.09131C12.3582 3.27995 12.432 3.28405 12.5756 3.20203C13.1744 2.85757 13.7978 2.57053 14.4459 2.33268C15.2046 2.05384 15.9716 1.8201 16.796 1.96772C17.1939 2.03743 17.5302 2.21376 17.7517 2.56642C17.846 2.71815 17.8255 2.87398 17.6902 2.9929C17.5548 3.11182 17.403 3.10362 17.2595 2.997C17.2144 2.96419 17.1775 2.92319 17.1406 2.88218C16.9478 2.67714 16.7017 2.58693 16.4269 2.58283C16.0003 2.57052 15.5861 2.65254 15.1841 2.78376C14.2367 3.08311 13.3549 3.52599 12.4895 4.00577C12.391 4.05908 12.3869 4.13699 12.3869 4.22721C12.3869 4.7521 12.3951 5.28109 12.3787 5.80598C12.3746 5.9413 12.391 5.9618 12.51 5.929C12.793 5.85108 13.076 5.77727 13.3549 5.69936C13.8676 5.55993 14.3679 5.3918 14.8888 5.28929C15.3113 5.89209 15.705 6.5113 16.0331 7.17561C15.6353 7.22482 15.258 7.36834 14.8724 7.46676C14.0521 7.67999 13.24 7.91373 12.4238 8.13927C12.3705 8.15978 12.3131 8.18848 12.2557 8.20898Z" fill="#E92F2F"/>
<path d="M14.891 5.29399C14.3701 5.3965 13.8656 5.56463 13.357 5.70406C13.074 5.78197 12.791 5.85168 12.5121 5.93369C12.3891 5.9665 12.3768 5.9501 12.3809 5.81067C12.3973 5.28578 12.3891 4.7609 12.3891 4.23191C12.3891 4.14169 12.3932 4.06378 12.4916 4.01047C13.357 3.53069 14.2388 3.08781 15.1863 2.78846C15.5882 2.66134 16.0025 2.57932 16.429 2.58753C16.7038 2.59573 16.9499 2.68184 17.1427 2.88688C17.1796 2.92788 17.2165 2.96889 17.2616 3.0017C17.4052 3.10831 17.5569 3.11652 17.6923 2.9976C17.8276 2.87868 17.8482 2.72285 17.7538 2.57112C17.5364 2.21846 17.196 2.04213 16.7982 1.97242C15.9738 1.8248 15.2068 2.05854 14.448 2.33738C13.8 2.57522 13.1765 2.86227 12.5777 3.20673C12.4383 3.28875 12.3603 3.28464 12.385 3.09601C12.426 2.78436 12.3234 2.50961 12.1758 2.24307C12.8279 1.93141 13.476 1.61566 14.1281 1.30401C14.9156 0.926744 15.7031 0.54948 16.4906 0.180417C17.3396 -0.21325 18.2009 0.0820001 18.5782 0.926744C18.812 1.44753 19.013 1.98472 19.1729 2.53422C19.3903 3.28875 19.0253 4.00637 18.2952 4.32212C17.3396 4.59277 16.3839 4.85931 15.4324 5.12996C15.2478 5.17917 15.0591 5.20787 14.891 5.29399Z" fill="#FE4440"/>
<path d="M8.82311 2.24639C8.62624 2.56624 8.57292 2.9148 8.62624 3.28796C8.49499 3.29617 8.42527 3.21005 8.33913 3.16494C7.44501 2.70977 6.54678 2.27099 5.56242 2.04135C5.04563 1.92243 4.53294 1.87732 4.00795 2.00855C3.67163 2.09056 3.42964 2.3079 3.22047 2.56214C3.11793 2.68926 3.15484 2.9066 3.27789 3.00912C3.40503 3.11573 3.60601 3.11573 3.73315 2.96811C3.94233 2.73437 4.19662 2.61135 4.50013 2.59085C4.81595 2.56624 5.12356 2.63185 5.42707 2.69746C5.96437 2.81228 6.46475 3.02552 6.96103 3.24696C7.47372 3.4725 7.97 3.72264 8.45398 4.00559C8.56882 4.0753 8.61393 4.15321 8.61393 4.28443C8.61804 4.80932 8.58933 5.33421 8.62624 5.8591C8.63444 6.00673 8.54421 5.94522 8.48269 5.92881C7.95769 5.78939 7.4327 5.64176 6.90771 5.50234C6.63291 5.42853 6.36631 5.32191 6.07921 5.29731C5.89464 5.20709 5.69777 5.15378 5.49269 5.12918C4.93079 4.92824 4.34428 4.80522 3.77007 4.63709C3.41324 4.53458 3.05641 4.42796 2.69547 4.32134C1.92029 3.98098 1.58397 3.20185 1.87107 2.37761C2.03103 1.92243 2.19919 1.46725 2.37556 1.01618C2.71598 0.163233 3.56089 -0.234534 4.39349 0.14273C5.88234 0.815244 7.34657 1.54107 8.82311 2.24639Z" fill="#FE4440"/>
<path d="M12.1714 8.82051C12.1714 9.29619 12.1755 9.77597 12.1755 10.2517C12.1632 10.264 12.1509 10.2804 12.1386 10.2927C11.0353 10.2927 9.93611 10.2927 8.83281 10.2927C8.82871 9.80057 8.82051 9.30849 8.81641 8.81641L8.82871 8.82051C9.94022 8.82461 11.0558 8.82051 12.1714 8.82051Z" fill="#E92F2F"/>
<path d="M12.1367 10.2964C12.149 10.2841 12.1613 10.2677 12.1736 10.2554C12.1736 10.2718 12.1695 10.2882 12.1695 10.3005C12.1613 10.2964 12.149 10.2964 12.1367 10.2964Z" fill="#FE6844"/>
<path d="M8.74628 8.20936C8.77089 8.19296 8.7955 8.17656 8.82011 8.16016C8.82421 8.38159 8.82421 8.60303 8.82831 8.82447L8.81601 8.82037C8.68066 8.82037 8.54941 8.82037 8.41406 8.82037C8.5248 8.61533 8.63554 8.4103 8.74628 8.20936Z" fill="#FEC63B"/>
<path d="M8.82461 8.82351C8.82051 8.60208 8.82051 8.38064 8.81641 8.1592C9.09941 7.62201 9.46444 7.14223 9.83358 6.66245C9.87869 6.60094 9.93612 6.60504 9.99764 6.60504C10.3299 6.60504 10.6662 6.60504 10.9984 6.60504C11.0599 6.60504 11.1173 6.60094 11.1625 6.66245C11.5316 7.14223 11.8966 7.62201 12.1796 8.1592C12.1755 8.38064 12.1755 8.60208 12.1714 8.82351C11.0558 8.81941 9.94022 8.82351 8.82461 8.82351Z" fill="#FE4440"/>
</svg>
