<svg width="44" height="44" viewBox="0 0 44 44" fill="none" xmlns="http://www.w3.org/2000/svg">
<path d="M0 23.0451C0 22.201 0 21.3443 0 20.5002C0.0252031 20.3742 0.0630201 20.2609 0.0756216 20.1349C0.315051 16.7332 1.28536 13.5332 3.08738 10.6355C7.17028 4.07165 13.1056 0.506243 20.8178 0.0400951C24.7621 -0.199278 28.5299 0.632229 31.9828 2.55982C39.1278 6.55357 43.0091 12.6765 43.5006 20.8404C43.74 24.7712 42.8831 28.5129 40.9803 31.965C37.603 38.1005 32.449 41.8549 25.556 43.1777C24.7243 43.3415 23.88 43.4045 23.0356 43.5179C22.1913 43.5179 21.3344 43.5179 20.4901 43.5179C20.3767 43.4927 20.2759 43.4549 20.1625 43.4423C16.382 43.1777 12.904 42.006 9.7662 39.8895C4.62477 36.4123 1.46179 31.6122 0.340251 25.5019C0.189033 24.6956 0.113414 23.8641 0 23.0451ZM30.2059 16.6073C30.1807 14.0245 29.5506 12.5505 28.3283 11.341C27.0555 10.0812 25.4929 9.40086 23.7413 9.14889C20.8304 8.73314 18.1084 9.19929 15.815 11.1647C14.391 12.3867 13.4837 13.9238 13.3576 15.8387C13.2946 16.7458 13.7231 17.401 14.454 17.8419C15.6637 18.5852 17.0499 18.0309 17.617 16.6199C17.869 16.0025 18.0832 15.3726 18.3731 14.7805C18.7385 14.0245 19.2048 13.319 20.0113 12.9537C21.1202 12.4497 22.2796 12.3993 23.4011 12.8025C25.4677 13.5332 26.2112 15.8765 24.9259 17.5144C24.6991 17.8041 24.447 18.0813 24.1824 18.3333C23.1491 19.316 22.0653 20.2609 21.0572 21.2687C19.7719 22.5538 19.23 24.1412 19.3182 25.9428C19.3812 27.1145 20.0995 27.8578 21.221 27.9586C22.33 28.0468 23.0734 27.4925 23.3633 26.3334C23.4263 26.0814 23.5019 25.842 23.5397 25.5901C23.7035 24.6704 24.1446 23.9019 24.8377 23.2593C25.934 22.2514 27.0303 21.2435 28.1015 20.2231C29.3742 19.001 30.2185 17.5773 30.2059 16.6073ZM24.069 32.0405C24.0816 30.6169 23.023 29.5208 21.5991 29.4956C20.1373 29.4704 19.0032 30.5791 18.9906 32.0027C18.9906 33.4516 20.0365 34.5099 21.5109 34.5225C22.9852 34.5477 24.0564 33.502 24.069 32.0405Z" fill="white"/>
</svg>
