<svg width="21" height="18" viewBox="0 0 21 18" fill="none" xmlns="http://www.w3.org/2000/svg">
<path d="M20.4037 6.50747C20.334 6.90223 20.2843 7.30192 20.1897 7.68681C19.9358 8.71318 19.4331 9.6162 18.8009 10.4551C17.8252 11.7479 16.6405 12.8434 15.4159 13.8993C13.9724 15.1428 12.5238 16.3764 11.0753 17.615C10.5177 18.0887 9.9204 18.1085 9.3828 17.6495C7.4962 16.031 5.6096 14.4125 3.74789 12.7693C2.79214 11.9255 1.93098 10.9781 1.2291 9.90733C-0.0253126 7.98288 -0.368782 5.92026 0.427672 3.75402C1.14946 1.79503 2.54823 0.512061 4.6439 0.112367C6.81921 -0.30213 8.57141 0.467651 9.96521 2.13057C10.0349 2.20953 10.0946 2.29835 10.1593 2.3773C10.1693 2.38717 10.1793 2.3921 10.2141 2.42171C10.2888 2.32795 10.3634 2.22926 10.4431 2.13551C11.2495 1.15848 12.2351 0.438044 13.4945 0.141974C15.6897 -0.371213 18.0193 0.536734 19.2837 2.38223C19.9109 3.29511 20.2544 4.30175 20.3689 5.39227C20.3739 5.46136 20.3938 5.53044 20.4037 5.60446C20.4037 5.90052 20.4037 6.20646 20.4037 6.50747ZM10.2091 16.7909C10.3037 16.712 10.3933 16.638 10.4779 16.564C11.2943 15.8682 12.1107 15.1774 12.922 14.4816C14.2909 13.3121 15.6748 12.1673 16.9093 10.8548C17.6261 10.0899 18.2882 9.28065 18.7063 8.31349C19.4978 6.48279 19.4032 4.70144 18.2832 3.03359C16.8744 0.931493 13.6389 0.383764 11.6627 2.55494C11.3789 2.86581 11.14 3.21616 10.8911 3.55664C10.7567 3.73922 10.6123 3.89219 10.3833 3.94153C10.0349 4.02048 9.75116 3.89712 9.52716 3.55171C9.19862 3.03852 8.81533 2.57468 8.35239 2.17005C6.61015 0.635423 3.90718 0.931493 2.47854 2.60922C1.02999 4.30668 0.855765 6.23607 1.68706 8.26415C2.09525 9.25598 2.75232 10.0998 3.51393 10.8498C4.47963 11.8022 5.48515 12.7299 6.50561 13.6279C7.71522 14.6987 8.95968 15.7251 10.2091 16.7909Z" fill="white"/>
</svg>
