<svg width="36" height="36" viewBox="0 0 36 36" fill="none" xmlns="http://www.w3.org/2000/svg">
<path d="M8.98734 0C14.7928 0 20.5983 0 26.4038 0C26.7666 0.0605298 27.1295 0.0951183 27.4837 0.172942C31.449 1.07224 33.9975 3.47614 35.0947 7.40193C35.2416 7.92076 35.2934 8.45688 35.3884 8.993C35.3884 14.8039 35.3884 20.6147 35.3884 26.4256C35.3712 26.538 35.3452 26.6504 35.328 26.7628C35.1984 27.3941 35.1206 28.0426 34.9219 28.6479C33.557 32.7639 29.9544 35.3926 25.6435 35.4099C20.3478 35.4272 15.052 35.4186 9.75622 35.4099C8.08023 35.4099 6.482 35.0381 5.03063 34.1907C1.73913 32.2624 0.0372294 29.3656 0.0199512 25.5436C-0.0146053 20.3121 0.00267295 15.0806 0.0199512 9.84907C0.0199512 9.19189 0.0545107 8.52605 0.201375 7.89481C1.08256 3.92578 3.49287 1.38354 7.40638 0.285354C7.91609 0.147 8.46035 0.0951183 8.98734 0ZM27.3973 17.7179C27.4232 12.3913 23.1123 8.05911 17.7301 7.99858C12.4171 7.93805 8.0284 12.3135 8.00248 17.692C7.97657 23.0186 12.2875 27.3508 17.6696 27.4114C22.974 27.4719 27.3713 23.0964 27.3973 17.7179ZM30.922 7.41057C30.922 5.79356 29.5916 4.46191 27.9761 4.47055C26.3692 4.47055 25.0215 5.81085 25.0302 7.41922C25.0302 9.01893 26.3865 10.3679 27.9847 10.3679C29.583 10.3592 30.922 9.01894 30.922 7.41057Z" fill="white"/>
<path d="M28.0015 6.56264C27.5349 6.55399 27.1375 6.94311 27.1289 7.40141C27.1289 7.8597 27.5263 8.26612 27.9842 8.26612C28.4334 8.26612 28.8222 7.88565 28.8308 7.436C28.8395 6.96041 28.468 6.56264 28.0015 6.56264Z" fill="white"/>
<path d="M17.6799 25.3183C13.4726 25.301 10.0602 21.8594 10.0861 17.6656C10.1206 13.4631 13.5244 10.0734 17.7144 10.082C21.9217 10.0993 25.3341 13.5322 25.3082 17.7347C25.2736 21.9459 21.8698 25.3356 17.6799 25.3183Z" fill="white"/>
<path d="M28.0016 6.56264C28.4681 6.57129 28.8482 6.96041 28.831 7.436C28.8223 7.88565 28.4335 8.26612 27.9843 8.26612C27.5264 8.26612 27.1204 7.8597 27.129 7.40141C27.129 6.94311 27.5264 6.55399 28.0016 6.56264Z" fill="white"/>
</svg>
