<svg width="9" height="15" viewBox="0 0 9 15" fill="none" xmlns="http://www.w3.org/2000/svg">
<path d="M7.62745 1.07312e-08C7.89249 0.0660174 8.12855 0.177422 8.30248 0.396105C8.59652 0.767453 8.6048 1.30384 8.30662 1.67519C8.24864 1.74534 8.18652 1.81548 8.12026 1.8815C6.30221 3.69285 4.48416 5.5042 2.66197 7.31968C2.62055 7.36094 2.57086 7.39395 2.49631 7.49298C2.54601 7.52186 2.60813 7.53837 2.64954 7.57963C4.4883 9.40748 6.32292 11.2395 8.16168 13.0673C8.4847 13.3892 8.61308 13.7646 8.46814 14.2061C8.25693 14.8622 7.4121 15.1221 6.8613 14.7013C6.79918 14.6559 6.74119 14.6022 6.68736 14.5486C4.57941 12.4484 2.47147 10.3482 0.36352 8.24805C-0.0299085 7.85607 -0.112735 7.3692 0.152312 6.92358C0.214432 6.8163 0.305539 6.7214 0.392507 6.63475C2.44247 4.58821 4.50073 2.54167 6.5507 0.495131C6.77847 0.268196 7.01453 0.0660174 7.33755 1.41881e-08C7.4328 1.30523e-08 7.53219 1.1867e-08 7.62745 1.07312e-08Z" fill="white"/>
</svg>
