<svg width="8" height="9" viewBox="0 0 8 9" fill="none" xmlns="http://www.w3.org/2000/svg">
<path d="M4.97744 2.22117C5.20387 2.33796 5.42417 2.4609 5.62612 2.61457C6.40944 3.22312 6.88065 4.01607 6.99692 5.00572C7.13768 6.18593 6.75826 7.18787 5.91374 8.0177C5.79135 8.14064 5.65672 8.14064 5.52209 8.03C5.46701 7.98697 5.43029 7.93165 5.35686 7.90706C5.34462 7.87633 5.32014 7.85789 5.29566 7.8333C5.19163 7.73495 5.08759 7.6366 4.98968 7.5321C4.33487 6.83135 3.88202 6.01381 3.63112 5.08563C3.58828 4.93196 3.55768 4.77828 3.52096 4.62461C3.50872 4.63076 3.5026 4.63076 3.5026 4.63691C3.49648 4.66149 3.49036 4.68608 3.48424 4.71067C3.24558 5.90317 2.68257 6.92355 1.80746 7.75953C1.7585 7.80256 1.70342 7.83945 1.67283 7.90091C1.60551 7.9255 1.56267 7.98697 1.50148 8.03C1.37296 8.12835 1.23833 8.12835 1.12206 8.01156C0.455015 7.37228 0.0755971 6.59162 0.00828093 5.66959C-0.0896335 4.23121 0.687563 2.87889 1.97881 2.25191C2.00329 2.23961 2.02777 2.22117 2.05224 2.20888C2.09508 2.19658 2.1318 2.17814 2.17464 2.16585C2.8478 1.88924 3.54544 1.82777 4.25532 1.97529C4.50623 2.04291 4.74489 2.12897 4.97744 2.22117ZM1.03026 6.54859C1.03026 6.7453 1.19549 6.91741 1.39744 6.91741C1.58715 6.92356 1.76462 6.7453 1.76462 6.54859C1.76462 6.34575 1.59327 6.17978 1.39132 6.17978C1.18937 6.17978 1.03026 6.3396 1.03026 6.54859ZM6.00554 6.54245C6.00554 6.3396 5.84643 6.17978 5.63836 6.17978C5.43641 6.17978 5.26506 6.35189 5.27118 6.55474C5.2773 6.7453 5.44865 6.91741 5.63836 6.91741C5.83419 6.91741 6.00554 6.7453 6.00554 6.54245ZM0.73652 5.22086C0.73652 5.42986 0.90175 5.59582 1.1037 5.58968C1.29953 5.58968 1.47088 5.41142 1.46476 5.22086C1.45864 5.02416 1.29341 4.85819 1.09758 4.85205C0.90175 4.85205 0.73652 5.01801 0.73652 5.22086ZM6.29928 5.22701C6.29928 5.02416 6.14017 4.85819 5.93822 4.85819C5.73628 4.85819 5.56492 5.03031 5.56492 5.22701C5.56492 5.42371 5.73627 5.59582 5.9321 5.59582C6.13405 5.58968 6.29928 5.42986 6.29928 5.22701ZM1.47088 3.60423C1.47088 3.80707 1.62999 3.97304 1.83194 3.97304C2.03389 3.97304 2.19912 3.81322 2.19912 3.61037C2.19912 3.40138 2.03389 3.23541 1.83194 3.23541C1.62999 3.23541 1.47088 3.40138 1.47088 3.60423ZM5.56492 3.60423C5.56492 3.40138 5.40581 3.23541 5.20387 3.23541C5.00804 3.23541 4.83669 3.40138 4.83669 3.60423C4.83669 3.81322 5.00192 3.97919 5.20387 3.97919C5.40581 3.97304 5.56492 3.80707 5.56492 3.60423ZM3.44753 3.52432C3.64947 3.52432 3.80858 3.3645 3.80858 3.16165C3.80858 2.9588 3.64947 2.79898 3.44753 2.79898C3.23946 2.79898 3.07423 2.96495 3.07423 3.1678C3.08035 3.37064 3.23946 3.52432 3.44753 3.52432ZM2.78048 4.79058C2.78048 4.57544 2.63361 4.42176 2.42554 4.42176C2.21136 4.42176 2.05836 4.56929 2.05836 4.77828C2.05836 4.98728 2.21136 5.1471 2.4133 5.15325C2.62137 5.1471 2.78048 4.99343 2.78048 4.79058ZM4.97744 4.77828C4.97744 4.56929 4.82445 4.41562 4.61638 4.41562C4.40831 4.41562 4.25532 4.56929 4.25532 4.77828C4.25532 4.98113 4.41443 5.14095 4.61638 5.14095C4.81833 5.1471 4.97744 4.98728 4.97744 4.77828Z" fill="#D23541"/>
<path d="M1.67383 7.91204C1.70443 7.85057 1.7595 7.81369 1.80846 7.77066C2.68357 6.92854 3.24658 5.9143 3.48524 4.7218C3.49136 4.69721 3.49748 4.67262 3.5036 4.64804C3.5036 4.64189 3.50972 4.64189 3.52196 4.63574C3.55868 4.78941 3.5954 4.94923 3.63212 5.09676C3.88302 6.02494 4.33588 6.84248 4.99068 7.54323C5.08859 7.64773 5.19263 7.74608 5.29666 7.84443C5.32114 7.86902 5.34562 7.88131 5.35786 7.91819C4.25632 8.73573 2.80596 8.73573 1.67383 7.91204Z" fill="#2B3030"/>
<path d="M4.97869 2.21997C4.74615 2.12777 4.50748 2.04171 4.26269 1.98639C3.55281 1.83887 2.85517 1.90033 2.18201 2.17695C2.14529 2.19539 2.10246 2.20768 2.05962 2.21997C2.04738 1.90033 2.14529 1.61758 2.32276 1.35941C2.34112 1.33482 2.35948 1.30408 2.37172 1.2795C2.47576 1.18729 2.56143 1.07665 2.6777 0.996739C2.72666 0.959858 2.79398 0.947564 2.81846 0.879948C2.84293 0.904535 2.86129 0.886095 2.88577 0.879948C3.30803 0.683247 3.73028 0.683247 4.15254 0.879948C4.17702 0.892241 4.19538 0.910682 4.21986 0.879948C4.21986 0.904535 4.23822 0.916829 4.26269 0.929123C4.35449 0.990592 4.43404 1.05821 4.51972 1.12582C4.5748 1.16885 4.59316 1.25491 4.67883 1.26106C4.66659 1.29794 4.69719 1.31638 4.71555 1.34097C4.89302 1.61143 4.99093 1.90033 4.97869 2.21997Z" fill="#393F3F"/>
<path d="M4.67186 1.26847C4.59231 1.25617 4.56783 1.17626 4.51275 1.13323C4.42708 1.06562 4.34752 0.998002 4.25573 0.936533C4.23737 0.924239 4.21901 0.911945 4.21289 0.887358C4.28021 0.733685 4.34752 0.580012 4.43932 0.438633C4.78202 -0.102294 5.55921 -0.139176 5.95087 0.364871C6.01207 0.438634 6.06714 0.52469 6.1161 0.6046C6.19566 0.739832 6.15894 0.911946 6.02431 0.998002C5.89579 1.08406 5.72444 1.05332 5.62653 0.930386C5.58369 0.868917 5.54697 0.807448 5.49802 0.745979C5.33891 0.530837 5.03904 0.549278 4.91053 0.789007C4.83709 0.94268 4.75754 1.10865 4.67186 1.26847Z" fill="#2B3131"/>
<path d="M2.81506 0.887016C2.79058 0.954632 2.72327 0.966926 2.67431 1.00381C2.55804 1.08372 2.47236 1.19436 2.36833 1.28657C2.28877 1.12675 2.20922 0.973073 2.12966 0.813254C1.98891 0.536643 1.68293 0.512055 1.50546 0.770225C1.47486 0.819401 1.44426 0.868575 1.40754 0.911604C1.31575 1.02225 1.15052 1.04684 1.02812 0.973073C0.905731 0.89931 0.850655 0.739491 0.911851 0.610406C1.06484 0.321501 1.27291 0.0940649 1.60949 0.020302C1.98891 -0.0596078 2.38057 0.100213 2.58864 0.432146C2.67431 0.573524 2.74775 0.727197 2.81506 0.887016Z" fill="#2B3131"/>
<path d="M1.03125 6.5485C1.03125 6.34565 1.19036 6.17969 1.39231 6.17969C1.59426 6.17969 1.76561 6.34565 1.76561 6.5485C1.76561 6.73906 1.58814 6.91732 1.39843 6.91732C1.19648 6.91117 1.03125 6.7452 1.03125 6.5485Z" fill="#3A3F3F"/>
<path d="M6.00405 6.54235C6.00405 6.7452 5.8327 6.91732 5.63687 6.91732C5.44716 6.91732 5.27581 6.7452 5.26969 6.55465C5.26357 6.3518 5.43492 6.17969 5.63687 6.17969C5.84494 6.17969 6.00405 6.33951 6.00405 6.54235Z" fill="#3A3F3F"/>
<path d="M0.734375 5.2194C0.734375 5.01655 0.899606 4.85059 1.10155 4.85059C1.29738 4.85059 1.46873 5.01655 1.46873 5.2194C1.46873 5.4161 1.29738 5.58821 1.10767 5.58821C0.899606 5.58821 0.734375 5.42225 0.734375 5.2194Z" fill="#3A3F3F"/>
<path d="M6.30076 5.2264C6.30076 5.42925 6.13553 5.58907 5.93359 5.59522C5.73776 5.59522 5.56641 5.4231 5.56641 5.2264C5.56641 5.02355 5.73776 4.85759 5.93971 4.85759C6.14165 4.85144 6.30076 5.01741 6.30076 5.2264Z" fill="#3A3F3F"/>
<path d="M1.47266 3.60319C1.47266 3.40034 1.63177 3.23438 1.83372 3.23438C2.03566 3.23438 2.20089 3.40034 2.20089 3.60934C2.20089 3.81218 2.03566 3.972 1.83372 3.972C1.63177 3.972 1.47266 3.80604 1.47266 3.60319Z" fill="#393F3F"/>
<path d="M5.56613 3.60348C5.56613 3.80632 5.40702 3.97229 5.20507 3.97229C5.00312 3.97229 4.83789 3.80632 4.83789 3.59733C4.83789 3.39448 5.00312 3.22852 5.20507 3.22852C5.40702 3.23466 5.56613 3.40063 5.56613 3.60348Z" fill="#393F3F"/>
<path d="M3.44572 3.52445C3.24378 3.52445 3.07854 3.36463 3.07242 3.16178C3.0663 2.95894 3.23766 2.79297 3.44572 2.79297C3.64767 2.79297 3.80678 2.95279 3.80678 3.15564C3.80678 3.36463 3.64767 3.52445 3.44572 3.52445Z" fill="#393F3F"/>
<path d="M2.78071 4.79C2.78071 4.99285 2.61548 5.15267 2.41353 5.14652C2.21159 5.14652 2.05859 4.98056 2.05859 4.77156C2.05859 4.56257 2.2177 4.41504 2.42577 4.41504C2.63384 4.42119 2.78683 4.57486 2.78071 4.79Z" fill="#393F3F"/>
<path d="M4.97798 4.77771C4.97798 4.9867 4.81887 5.14038 4.61692 5.14038C4.41497 5.14038 4.25586 4.98055 4.25586 4.77771C4.25586 4.56871 4.40885 4.41504 4.61692 4.41504C4.82499 4.41504 4.97798 4.56871 4.97798 4.77771Z" fill="#393F3F"/>
</svg>
