<svg width="8" height="8" viewBox="0 0 8 8" fill="none" xmlns="http://www.w3.org/2000/svg">
<path d="M1.21374 5.00685C1.06188 4.83251 0.996793 4.62005 0.969674 4.39669C0.90459 3.7375 0.671371 3.14368 0.21578 2.65337C0.15612 2.588 0.0910351 2.53352 0.0259507 2.47359C0.0042559 2.45725 -0.006592 2.44091 0.0042554 2.40822C0.112729 2.16307 0.248322 1.93426 0.470694 1.77082C0.720184 1.59104 0.996792 1.55835 1.28967 1.61828C1.47408 1.65641 1.65306 1.72179 1.81577 1.8253C1.81035 1.84164 1.8212 1.85799 1.82662 1.87433C1.9134 2.14672 1.99475 2.41367 2.08153 2.68606C2.12492 2.81681 2.15204 2.94756 2.21713 3.07286C2.29306 3.20905 2.39611 3.32346 2.52628 3.42152C2.49916 3.43786 2.48289 3.44876 2.46119 3.45965C2.14662 3.64488 1.85916 3.8628 1.62052 4.14064C1.41442 4.39124 1.25713 4.66908 1.21374 5.00685ZM1.33849 2.44635C1.33849 2.30471 1.23544 2.2012 1.09442 2.2012C0.953403 2.2012 0.850353 2.30471 0.850353 2.44635C0.850353 2.588 0.953403 2.69151 1.09442 2.69151C1.23001 2.69151 1.33849 2.588 1.33849 2.44635ZM1.45781 3.05651C1.31679 3.05651 1.21374 3.16002 1.21374 3.30167C1.21374 3.44331 1.31679 3.54682 1.45781 3.54682C1.59882 3.54682 1.70187 3.44331 1.70187 3.30167C1.70187 3.16002 1.59882 3.05651 1.45781 3.05651Z" fill="#343434"/>
<path d="M5.71485 1.83034C5.98603 1.68325 6.26806 1.57974 6.58264 1.60153C6.8484 1.61787 7.06535 1.74318 7.23891 1.9393C7.35823 2.07549 7.44501 2.23348 7.52094 2.39692C7.53721 2.43505 7.52636 2.4514 7.49924 2.47864C6.98942 2.92536 6.71281 3.50283 6.59891 4.16202C6.57179 4.32001 6.57179 4.48345 6.52298 4.63599C6.48501 4.77218 6.41993 4.89749 6.33315 5.00644C6.31145 4.91383 6.28976 4.82122 6.26264 4.7286C6.13247 4.3636 5.8884 4.08031 5.60095 3.83515C5.41654 3.67717 5.22129 3.54097 5.00977 3.42656C5.00977 3.42112 5.00977 3.41567 5.00977 3.41567C5.02604 3.40477 5.04231 3.39388 5.05858 3.37753C5.20502 3.26858 5.30807 3.12148 5.36773 2.9526C5.43281 2.76192 5.48705 2.57125 5.54671 2.38057C5.60095 2.2008 5.66603 2.01557 5.71485 1.83034ZM6.69111 2.4514C6.69111 2.30975 6.59349 2.2008 6.45247 2.2008C6.31145 2.2008 6.20298 2.29886 6.20298 2.43505C6.20298 2.58215 6.30061 2.68566 6.44162 2.6911C6.58264 2.6911 6.69111 2.58759 6.69111 2.4514ZM5.83959 3.29581C5.83959 3.43746 5.94264 3.54097 6.07824 3.54097C6.21925 3.54097 6.3223 3.44291 6.32772 3.30126C6.32772 3.15417 6.2301 3.05066 6.08366 3.05066C5.94264 3.05611 5.83959 3.15962 5.83959 3.29581Z" fill="#272727"/>
<path d="M5.71469 1.83008C5.66587 2.02075 5.60079 2.20053 5.54655 2.38576C5.48689 2.57643 5.43265 2.76711 5.36757 2.95778C5.30791 3.12667 5.20486 3.27376 5.05842 3.38272C5.04215 3.39361 5.02588 3.40451 5.00961 3.42085C5.00961 3.42085 5.00961 3.4263 5.00961 3.43175C5.22113 3.54615 5.41638 3.68235 5.60079 3.84034C5.88824 4.08549 6.13231 4.36878 6.26248 4.73379C6.29502 4.82095 6.31129 4.91901 6.33299 5.01163C6.15401 5.23499 5.90994 5.36029 5.63875 5.43111C5.62248 5.43656 5.61164 5.43656 5.59536 5.44201C5.56825 5.40387 5.57909 5.36029 5.57367 5.31671C5.51943 5.06611 5.41638 4.84274 5.29164 4.62483C5.10723 4.29796 4.88486 3.99833 4.65164 3.70959C4.61367 3.66601 4.58656 3.66056 4.53232 3.6878C4.3208 3.80765 4.10927 3.92206 3.89232 4.03646C3.8652 4.02012 3.8652 3.98743 3.85978 3.96564C3.83266 3.87847 3.81097 3.78586 3.773 3.69869C3.773 3.69325 3.76758 3.6878 3.76758 3.68235C3.76758 3.6769 3.76758 3.6769 3.773 3.67145C3.86521 3.65511 3.93029 3.60063 3.9791 3.52436C4.05503 3.40996 4.07673 3.28466 4.11469 3.15936C4.16351 3.14846 4.17978 3.10488 4.2069 3.07764C4.57571 2.6745 4.96622 2.30404 5.42181 1.99896C5.51943 1.93359 5.61164 1.87366 5.71469 1.83008Z" fill="#B96202"/>
<path d="M3.77288 3.67202C3.77288 3.67747 3.77288 3.67747 3.76745 3.68291C3.75661 3.71015 3.74576 3.73739 3.73491 3.76463C3.70237 3.8518 3.69152 3.94986 3.64271 4.03158C3.42576 3.91172 3.20881 3.79732 2.99186 3.67202C2.94848 3.65023 2.92678 3.65023 2.89424 3.68836C2.69356 3.92807 2.50373 4.17867 2.34102 4.45106C2.15661 4.75614 1.98848 5.06667 1.95051 5.43168C1.66306 5.3663 1.40272 5.241 1.21289 5.0013C1.25628 4.66898 1.41357 4.38569 1.63052 4.14053C1.86916 3.86269 2.15661 3.64478 2.47119 3.45955C2.48746 3.44866 2.50915 3.43776 2.53627 3.42142C2.4061 3.32336 2.30305 3.2144 2.22712 3.07275C2.16204 2.9529 2.1295 2.81671 2.09153 2.68596C2.00475 2.41356 1.91797 2.14662 1.83662 1.87423C1.83119 1.85788 1.82035 1.84154 1.82577 1.8252C2.06984 1.9396 2.28136 2.10304 2.49288 2.27192C2.80204 2.51707 3.07864 2.79491 3.33898 3.08365C3.36068 3.11089 3.37695 3.14358 3.41491 3.14902C3.43661 3.17082 3.43661 3.2035 3.44203 3.23619C3.46915 3.3506 3.50712 3.465 3.58305 3.55761C3.63186 3.61754 3.69152 3.66657 3.77288 3.67202Z" fill="#FD8F02"/>
<path d="M3.64512 6.73403C3.54207 6.94649 3.42818 7.15351 3.33055 7.36598C3.24919 7.54031 3.11903 7.64382 2.93462 7.67651C2.60377 7.73099 2.30005 7.65472 2.02344 7.47494C2.07225 7.46949 2.0831 7.43135 2.09937 7.39867C2.38683 6.89202 2.67428 6.38537 2.96174 5.87871C2.97259 5.85692 2.99428 5.84058 2.98886 5.80789C3.12445 5.62811 3.26004 5.44833 3.39563 5.26855C3.39563 5.30124 3.40106 5.32848 3.40106 5.36117C3.37936 5.57908 3.37936 5.797 3.40106 6.01491C3.42818 6.24917 3.48241 6.47798 3.61258 6.67955C3.63428 6.69045 3.65055 6.70679 3.64512 6.73403Z" fill="#343434"/>
<path d="M5.48172 7.49072C5.3841 7.57788 5.25935 7.61057 5.14003 7.64326C4.92308 7.70318 4.70613 7.72497 4.49461 7.64326C4.37529 7.59967 4.29393 7.5234 4.23427 7.409C4.12037 7.18019 4.00648 6.95138 3.89258 6.72257C4.08241 6.47197 4.13665 6.17778 4.15292 5.8727C4.16376 5.67113 4.15834 5.46956 4.14207 5.27344C4.26681 5.43687 4.39156 5.60031 4.51088 5.76374C4.52715 5.79098 4.53258 5.82367 4.55969 5.84001C4.55427 5.86725 4.57597 5.8836 4.58681 5.89994C4.79834 6.2704 5.00986 6.6354 5.21596 7.00586C5.30274 7.16384 5.40579 7.31638 5.48172 7.49072Z" fill="#272727"/>
<path d="M1.95117 5.43649C1.98914 5.07148 2.15727 4.76096 2.34168 4.45588C2.50439 4.18893 2.69422 3.93833 2.8949 3.69318C2.92744 3.65504 2.94913 3.65504 2.99252 3.67683C3.20947 3.79669 3.42642 3.91654 3.64337 4.03639C3.64337 4.04729 3.64337 4.06363 3.64337 4.07453C3.5837 4.29244 3.52947 4.50491 3.4915 4.72827C3.46981 4.86447 3.44269 5.00066 3.421 5.13686C2.95998 5.11507 2.53151 5.21858 2.14642 5.48552C2.08134 5.46373 2.01626 5.44739 1.95117 5.43649Z" fill="#343333"/>
<path d="M3.89844 4.03102C4.10996 3.91662 4.32691 3.80221 4.53843 3.68236C4.58725 3.65512 4.61979 3.65512 4.65776 3.70415C4.8964 3.99289 5.11335 4.29252 5.29775 4.61939C5.4225 4.83731 5.52555 5.06612 5.57978 5.31127C5.59063 5.35485 5.57436 5.39844 5.60148 5.43657C5.53097 5.44747 5.46589 5.46381 5.4008 5.47471C5.01572 5.21321 4.58725 5.12604 4.13166 5.13149C4.12623 5.1097 4.11539 5.09335 4.11539 5.07156C4.09911 4.89723 4.06657 4.7229 4.02318 4.55402C3.97979 4.37969 3.9364 4.20535 3.89844 4.03102Z" fill="#262626"/>
<path d="M2.1459 5.48039C2.53098 5.21344 2.95403 5.10993 3.42047 5.13172C3.42047 5.17531 3.43132 5.22434 3.39878 5.26792C3.26318 5.4477 3.12759 5.62748 2.992 5.80726C2.95403 5.8236 2.93776 5.85629 2.91064 5.88898C2.79132 6.02517 2.672 6.15592 2.54183 6.28122C2.32488 6.48279 2.10251 6.67892 1.8259 6.79332C1.7337 6.83146 1.63065 6.83146 1.53302 6.85869C1.47336 6.66802 1.49506 6.47734 1.56014 6.29212C1.66862 5.97614 1.85302 5.71464 2.11878 5.50763C2.12963 5.50218 2.13505 5.49128 2.1459 5.48039Z" fill="#FE8F02"/>
<path d="M4.12065 5.13207C4.57624 5.12663 5.00472 5.21379 5.3898 5.47529C5.52539 5.58969 5.65556 5.70955 5.75861 5.85664C5.92675 6.11269 6.05691 6.37963 6.03522 6.70106C6.0298 6.75009 6.01895 6.79367 6.01352 6.8427C5.80742 6.84815 5.62844 6.76643 5.46031 6.65747C5.15116 6.45046 4.89082 6.18896 4.64675 5.90567C4.61963 5.87843 4.60879 5.83485 4.55997 5.83485C4.57082 5.79127 4.5437 5.77492 4.51116 5.75858C4.38641 5.59514 4.26167 5.43171 4.14235 5.26827C4.10438 5.23014 4.12065 5.1811 4.12065 5.13207Z" fill="#B96201"/>
<path d="M3.51316 2.25526C3.46978 1.84667 3.42639 1.43808 3.383 1.02949C3.35588 0.784338 3.32876 0.544632 3.30164 0.299479C3.29622 0.261344 3.29079 0.245 3.2474 0.245C3.11723 0.250448 2.98164 0.250448 2.85147 0.245C2.80808 0.245 2.79724 0.255896 2.79724 0.299479C2.79724 0.424779 2.80266 0.555528 2.79724 0.680829C2.79724 0.735307 2.82435 0.735307 2.86232 0.735307C2.90571 0.735307 2.93283 0.729859 2.92198 0.680829V0.675381C2.92198 0.479258 2.92198 0.484706 3.12266 0.495601C3.1552 0.495601 3.16605 0.506497 3.16605 0.539184C3.16605 0.648141 3.16605 0.751651 3.16605 0.860608C3.16605 0.936878 3.11723 0.985909 3.0413 0.985909C2.92198 0.985909 2.80266 0.985909 2.68334 0.985909C2.60198 0.985909 2.55859 0.936878 2.55859 0.85516C2.55859 0.620902 2.55859 0.381196 2.55859 0.146939C2.55859 0.0597729 2.60741 0.0107422 2.69419 0.0107422C2.92741 0.0107422 3.16063 0.0107422 3.39384 0.0107422C3.4752 0.0107422 3.51859 0.0488772 3.52944 0.130595C3.59452 0.729859 3.6596 1.32912 3.73011 1.92839C3.73554 1.98287 3.74096 2.0319 3.74638 2.08638C3.66503 2.10817 3.61079 2.16265 3.5674 2.22802C3.55113 2.23347 3.55113 2.2716 3.51316 2.25526Z" fill="#353535"/>
<path d="M3.79883 2.07563C3.83679 1.72152 3.87476 1.36741 3.91272 1.0133C3.94527 0.719117 3.97781 0.424933 4.01035 0.136196C4.0212 0.038135 4.05916 0 4.15679 0C4.38459 0 4.61238 0 4.84018 0C4.9378 0 4.98119 0.0435829 4.98662 0.147092C4.98662 0.375902 4.98662 0.604712 4.98662 0.833522C4.98662 0.931584 4.94323 0.975166 4.8456 0.980614C4.73713 0.980614 4.62865 0.980614 4.52018 0.980614C4.42798 0.980614 4.38459 0.931584 4.38459 0.844418C4.38459 0.740909 4.38459 0.642847 4.38459 0.539338C4.38459 0.506651 4.39543 0.490307 4.42798 0.490307C4.62323 0.479411 4.62323 0.479411 4.62323 0.675534C4.62323 0.724565 4.6395 0.735461 4.68831 0.740909C4.74255 0.740909 4.74798 0.724565 4.74798 0.675534C4.74255 0.550234 4.74798 0.424933 4.74798 0.299632C4.74798 0.261497 4.74255 0.245154 4.69916 0.245154C4.56357 0.250601 4.42798 0.245154 4.29781 0.245154C4.25984 0.245154 4.24899 0.256049 4.24357 0.294184C4.18391 0.83897 4.12425 1.38376 4.06459 1.93399C4.05374 2.04295 4.03747 2.1519 4.02662 2.26086C3.9995 2.24996 3.99408 2.22273 3.97239 2.20093C3.91815 2.14101 3.86934 2.09198 3.79883 2.07563Z" fill="#353535"/>
<path d="M4.12164 5.132C4.12164 5.18104 4.10536 5.23007 4.13791 5.27365C4.15418 5.47522 4.1596 5.67679 4.14875 5.87291C4.13248 6.17799 4.07825 6.47218 3.88842 6.72278C3.8396 6.75002 3.82876 6.82084 3.76367 6.83174C3.76367 6.79905 3.76367 6.76636 3.76367 6.73367C3.76367 5.75306 3.76367 4.77789 3.76367 3.79728C3.76367 3.76459 3.7691 3.73191 3.7691 3.69922C3.80706 3.78638 3.82876 3.87355 3.85588 3.96616C3.8613 3.9934 3.8613 4.02064 3.88842 4.03699C3.92638 4.21132 3.96977 4.38565 4.00774 4.55453C4.0457 4.72342 4.07825 4.89775 4.09994 5.07208C4.11079 5.09387 4.11621 5.11021 4.12164 5.132Z" fill="#6C6969"/>
<path d="M3.77376 3.69896C3.77376 3.73165 3.76833 3.76433 3.76833 3.79702C3.76833 4.77764 3.76833 5.7528 3.76833 6.73342C3.76833 6.7661 3.76833 6.79879 3.76833 6.83148C3.70867 6.82058 3.69782 6.74976 3.64359 6.73886C3.64901 6.71163 3.62731 6.69528 3.61647 6.67894C3.48087 6.47737 3.42664 6.25401 3.40494 6.0143C3.38325 5.79639 3.38325 5.57847 3.40494 5.36056C3.41037 5.33332 3.40494 5.30063 3.39952 5.26794C3.42664 5.22436 3.42122 5.18078 3.42122 5.13175C3.44291 4.99555 3.47003 4.85935 3.49172 4.72316C3.52969 4.50524 3.58392 4.28733 3.64359 4.06941C3.64901 4.05852 3.64359 4.04218 3.64359 4.03128C3.68698 3.94411 3.69782 3.8515 3.73579 3.76434C3.74664 3.7371 3.75748 3.70986 3.76833 3.68262C3.77376 3.68807 3.77376 3.69351 3.77376 3.69896Z" fill="#D6CFCF"/>
<path d="M4.56055 5.83496C4.60936 5.83496 4.62563 5.87854 4.64732 5.90578C4.89139 6.18362 5.15173 6.45057 5.46088 6.65759C5.62901 6.76654 5.808 6.84826 6.0141 6.84281C5.94359 7.12066 5.76461 7.31678 5.52596 7.46932C5.50969 7.48021 5.49885 7.49111 5.47715 7.48566C5.40664 7.31678 5.30359 7.15879 5.21139 7.0008C5.00529 6.63035 4.79377 6.26534 4.58224 5.89489C4.57682 5.87854 4.56055 5.8622 4.56055 5.83496Z" fill="#A19C9B"/>
<path d="M1.5332 6.85905C1.63083 6.83181 1.73388 6.83181 1.82608 6.79368C2.10269 6.67927 2.32506 6.48315 2.54201 6.28158C2.67218 6.15628 2.7915 6.02553 2.91082 5.88934C2.93252 5.8621 2.95421 5.82396 2.99218 5.80762C2.9976 5.83486 2.97591 5.85665 2.96506 5.87844C2.6776 6.38509 2.39015 6.89174 2.10269 7.39839C2.08642 7.43108 2.07015 7.46921 2.02676 7.47466C1.85863 7.3875 1.73388 7.25675 1.63625 7.09876C1.58744 7.02249 1.54405 6.94622 1.5332 6.85905Z" fill="#D6CFCF"/>
<path d="M3.80056 2.07617C3.87649 2.08707 3.9253 2.1361 3.96869 2.19602C3.98496 2.21782 3.99038 2.24506 4.02293 2.25595C4.06089 2.3867 4.10971 2.512 4.12598 2.64275C4.14767 2.81163 4.13683 2.98052 4.12055 3.15485C4.08259 3.28015 4.06089 3.4109 3.98496 3.51985C3.93615 3.59612 3.87106 3.6506 3.77886 3.66695L3.77344 3.6615C3.77344 3.13306 3.77344 2.60461 3.77344 2.07617C3.77886 2.08162 3.78971 2.07617 3.80056 2.07617Z" fill="#6C6969"/>
<path d="M3.77383 2.08152C3.77383 2.60996 3.77383 3.13841 3.77383 3.66685C3.69248 3.66685 3.63824 3.62327 3.58942 3.56334C3.51349 3.47073 3.47553 3.35632 3.44841 3.24192C3.44299 3.21468 3.44299 3.18199 3.42129 3.15475C3.42671 3.06214 3.39959 2.96952 3.40502 2.87146C3.41044 2.69713 3.43214 2.52825 3.4918 2.36481C3.50265 2.33212 3.50807 2.29399 3.51892 2.25585C3.55146 2.2722 3.55146 2.23406 3.56231 2.22317C3.60569 2.15779 3.66536 2.10331 3.74129 2.08152C3.75214 2.07607 3.76298 2.08152 3.77383 2.08152Z" fill="#D6CFCF"/>
<path d="M1.3397 2.44633C1.3397 2.58797 1.23665 2.69148 1.09563 2.69148C0.954613 2.69148 0.851562 2.58797 0.851562 2.44633C0.851562 2.30468 0.954613 2.20117 1.09563 2.20117C1.23665 2.20117 1.3397 2.30468 1.3397 2.44633Z" fill="#D6CFCF"/>
<path d="M1.45696 3.05664C1.59797 3.05664 1.70102 3.16015 1.70102 3.30179C1.70102 3.44344 1.59797 3.54695 1.45696 3.54695C1.31594 3.54695 1.21289 3.44344 1.21289 3.30179C1.21289 3.16015 1.32136 3.05664 1.45696 3.05664Z" fill="#D6CFCF"/>
<path d="M6.69169 2.45177C6.69169 2.59342 6.58864 2.69148 6.44763 2.69148C6.30661 2.69148 6.20898 2.58797 6.20898 2.43543C6.20898 2.29923 6.31746 2.20117 6.45847 2.20117C6.58864 2.20117 6.69169 2.30468 6.69169 2.45177Z" fill="#A09C9C"/>
<path d="M5.83984 3.29635C5.83984 3.1547 5.94289 3.05664 6.08391 3.05664C6.23035 3.05664 6.32798 3.16015 6.32798 3.30724C6.32798 3.44344 6.22493 3.54695 6.07849 3.54695C5.93747 3.5415 5.83984 3.43799 5.83984 3.29635Z" fill="#A09C9C"/>
<path d="M4.51172 5.75879C4.54426 5.77513 4.57138 5.79148 4.56053 5.83506C4.53341 5.81872 4.52257 5.78603 4.51172 5.75879Z" fill="#A19C9B"/>
</svg>
