<svg width="8" height="7" viewBox="0 0 8 7" fill="none" xmlns="http://www.w3.org/2000/svg">
<path d="M3.88683 6.34935C3.86156 6.36459 3.8565 6.3392 3.84639 6.32905C3.19943 5.60813 2.54741 4.88213 1.90045 4.16121C1.50621 3.72459 1.11197 3.28798 0.722778 2.85137C0.500385 2.6026 0.283046 2.35383 0.0606527 2.11014C0.0404352 2.08983 0.0303264 2.06445 0 2.05429C0 2.04922 0 2.04414 0 2.03906C0.763214 2.03906 1.52137 2.03906 2.28459 2.03906C2.28964 2.03906 2.29469 2.03906 2.29975 2.03906C2.39073 2.28783 2.48171 2.54168 2.57269 2.79044C2.70916 3.16614 2.85068 3.5469 2.9922 3.92259C3.17921 4.43028 3.36623 4.93797 3.55829 5.44567C3.66444 5.75028 3.77563 6.04982 3.88683 6.34935Z" fill="#FE5CA7"/>
<path d="M2.28459 2.04014C1.52137 2.04014 0.763213 2.04014 0 2.04014C0 2.03506 0 2.02999 0 2.02491C0.212285 1.71014 0.424569 1.40045 0.631799 1.08568C0.854193 0.750606 1.07659 0.41553 1.30403 0.0804541C1.3192 0.0601465 1.33436 0.0398389 1.34952 0.0195312C1.36974 0.0296851 1.3748 0.0499928 1.3849 0.0652235C1.6073 0.547529 1.82969 1.02476 2.04703 1.50706C2.1279 1.68476 2.21888 1.85737 2.28459 2.04014Z" fill="#D5298C"/>
<path d="M7.72312 2.03906C7.48557 2.31322 7.24296 2.58737 7.0054 2.85644C6.63137 3.2829 6.25735 3.70429 5.88332 4.13075C5.55479 4.50644 5.2212 4.88213 4.89266 5.25274C4.59445 5.5929 4.29624 5.92797 3.99803 6.26812C3.97276 6.29859 3.9576 6.33412 3.91211 6.34428C3.95254 6.23259 3.98793 6.12089 4.02836 6.0092C4.25581 5.37459 4.48326 4.74505 4.7107 4.11044C4.81179 3.82106 4.91793 3.53675 5.01902 3.24737C5.16054 2.84629 5.30712 2.44014 5.44865 2.03906C5.4537 2.03906 5.45875 2.03906 5.46381 2.03906C6.21186 2.03906 6.97002 2.03906 7.72312 2.03906Z" fill="#FE3997"/>
<path d="M3.88706 6.35014C3.77586 6.0506 3.66466 5.75106 3.55347 5.45153C3.36645 4.94383 3.17439 4.43614 2.98737 3.92845C2.84585 3.55276 2.70938 3.17199 2.56786 2.7963C2.47688 2.54754 2.3859 2.29369 2.29492 2.04492C2.83069 2.04492 3.3614 2.04492 3.89716 2.04492C3.89716 2.08554 3.89716 2.12615 3.89716 2.16677C3.89716 3.56292 3.89716 4.95907 3.89716 6.35014L3.89211 6.35521L3.88706 6.35014Z" fill="#FE3996"/>
<path d="M3.90039 6.34428C3.90039 4.94813 3.90039 3.55198 3.90039 2.16091C3.90039 2.12029 3.90039 2.07968 3.90039 2.03906C4.41594 2.03906 4.92643 2.03906 5.44198 2.03906C5.30046 2.44014 5.15388 2.84629 5.01236 3.24737C4.91127 3.53675 4.80513 3.82106 4.70404 4.11044C4.47659 4.74505 4.24914 5.37459 4.0217 6.0092C3.98126 6.12089 3.94588 6.23259 3.90545 6.34428H3.90039V6.34428Z" fill="#D5298B"/>
<path d="M2.28272 2.04031C2.21701 1.85754 2.12603 1.68493 2.04516 1.50723C1.82782 1.02493 1.60543 0.547699 1.38304 0.0653933C1.37293 0.0450856 1.36787 0.0298548 1.34766 0.019701C1.36282 -0.000606583 1.38304 0.00447036 1.40325 0.00447036C2.23723 0.00447036 3.06615 0.00447036 3.90013 0.00447036C3.90013 0.00954727 3.90013 0.0095473 3.90013 0.0146242C3.89002 0.024778 3.87485 0.0349317 3.86474 0.0450856C3.74849 0.192316 3.63224 0.334469 3.52105 0.481699C3.11164 0.999544 2.70729 1.51739 2.29788 2.03523C2.28777 2.04031 2.28777 2.04031 2.28272 2.04031Z" fill="#FE3A97"/>
<path d="M3.89648 0.0190384C3.89648 0.0139615 3.89648 0.0139616 3.89648 0.00888472C4.16942 0.00888472 4.4373 0.0088846 4.71024 0.0038077C5.24095 0.0038077 5.77166 0.0038077 6.30238 0.0038077C6.3327 0.0038077 6.36303 -0.0114231 6.3883 0.0190384C6.37314 0.0494998 6.35292 0.0799614 6.33776 0.110423C6.10525 0.607959 5.87781 1.1055 5.65036 1.60303C5.58465 1.74519 5.51894 1.89242 5.45829 2.03457C5.45324 2.03457 5.44818 2.03457 5.44313 2.03457C5.3572 1.9178 5.26623 1.80103 5.1803 1.68426C4.87198 1.27811 4.56872 0.877035 4.2604 0.470883C4.1391 0.323653 4.01779 0.176422 3.89648 0.0190384Z" fill="#D5298C"/>
<path d="M5.45898 2.03995C5.52469 1.89779 5.58534 1.75056 5.65105 1.60841C5.8785 1.11087 6.111 0.613335 6.33845 0.115798C6.35361 0.0853369 6.37383 0.0548755 6.38899 0.0244141C6.56084 0.278259 6.72764 0.527028 6.89949 0.780873C7.16737 1.18195 7.43525 1.57795 7.69808 1.97902C7.70819 1.99425 7.73852 2.00948 7.7183 2.03995C6.97025 2.03995 6.21209 2.03995 5.45898 2.03995Z" fill="#BE1B81"/>
<path d="M2.30078 2.03916C2.71019 1.52132 3.11454 1.00347 3.52394 0.48563C3.6402 0.3384 3.75139 0.196246 3.86764 0.0490162C3.87775 0.0388624 3.88786 0.0287085 3.90302 0.0185547C3.90302 0.688706 3.90302 1.36393 3.90302 2.03409C3.36726 2.03916 2.83149 2.03916 2.30078 2.03916Z" fill="#D5298B"/>
<path d="M3.90039 2.03995C3.90039 1.36979 3.90039 0.694565 3.90039 0.0244141C4.01664 0.176721 4.13795 0.329028 4.2542 0.481335C4.56252 0.882411 4.87083 1.28856 5.1741 1.69472C5.26002 1.81148 5.351 1.92825 5.43693 2.04502C4.92643 2.03995 4.41088 2.03995 3.90039 2.03995Z" fill="#BE1B81"/>
</svg>
