<svg width="32" height="32" viewBox="0 0 32 32" fill="none" xmlns="http://www.w3.org/2000/svg">
<path d="M16.003 12.9636C16.6962 12.3668 17.3653 11.7701 18.0525 11.2034C19.5414 9.97976 21.1087 8.86459 22.8447 7.99053C25.9914 6.41119 29.4032 8.03875 30.9042 10.3595C33.1164 13.7774 31.8626 18.2924 28.1916 20.0586C27.9384 20.1791 27.8721 20.3178 27.8661 20.577C27.8419 21.9996 27.7937 23.4282 27.6792 24.9171C27.637 24.8448 27.6008 24.7604 27.5466 24.6941C26.3892 23.3559 25.2318 22.0177 24.0745 20.6855C23.9901 20.589 23.8876 20.4865 23.7731 20.4504C22.1395 19.9018 20.7108 18.9976 19.3666 17.9488C18.3057 17.1229 17.3111 16.2187 16.2863 15.3447C16.2019 15.2723 16.1235 15.194 16.0211 15.0975C15.9367 15.1699 15.8523 15.2422 15.7739 15.3145C14.08 16.8939 12.3199 18.3888 10.2884 19.516C9.66756 19.8596 8.99845 20.1068 8.35346 20.4142C8.21481 20.4805 8.07014 20.5649 7.96767 20.6794C6.84043 21.9634 5.72525 23.2534 4.61008 24.5434C4.51363 24.6519 4.41718 24.7664 4.32073 24.8749C4.28456 24.8689 4.2484 24.8629 4.21826 24.8508C4.21826 24.1094 4.22428 23.374 4.21826 22.6325C4.21223 21.9092 4.17606 21.1858 4.17003 20.4624C4.17003 20.2816 4.10975 20.1791 3.94097 20.1008C1.73472 19.0278 0.402539 17.2797 0.0890831 14.8504C-0.3811 11.2577 2.07229 8.15931 5.38769 7.47212C6.95496 7.14661 8.36551 7.53843 9.72784 8.26781C11.6025 9.26846 13.2602 10.5705 14.8577 11.9509C15.2374 12.2764 15.6112 12.614 16.003 12.9636ZM5.64086 20.8784C5.68306 20.8844 5.72525 20.8904 5.76745 20.8965C6.21955 20.372 6.66562 19.8476 7.12978 19.3352C7.23225 19.2267 7.37692 19.1483 7.52159 19.0881C8.14851 18.8168 8.80556 18.6179 9.40233 18.2924C11.4157 17.1892 13.1457 15.7124 14.8155 14.1451C14.8516 14.115 14.8697 14.0667 14.9059 14.0125C14.5382 13.6809 14.1825 13.3554 13.8148 13.042C12.2958 11.7399 10.7285 10.4921 8.95023 9.56383C8.04603 9.08762 7.11772 8.75005 6.04474 8.88267C3.16336 9.23832 1.04151 12.1137 1.63225 14.9589C2.05421 17.0144 3.29597 18.3647 5.29727 18.9976C5.55647 19.082 5.671 19.1845 5.65292 19.4738C5.61675 19.938 5.64086 20.4082 5.64086 20.8784ZM26.3651 19.1363C26.5339 19.082 26.6544 19.0398 26.781 18.9976C28.6919 18.3707 29.9337 17.0928 30.3556 15.1277C30.7836 13.1264 30.1748 11.4024 28.6256 10.0702C27.5466 9.14187 26.2566 8.65963 24.834 8.93089C24.0865 9.07557 23.3511 9.42519 22.6699 9.79892C20.6566 10.9141 18.9085 12.397 17.2146 13.9402C17.1784 13.9703 17.1604 14.0185 17.1182 14.0848C17.7511 14.6454 18.3659 15.2121 18.9989 15.7425C20.3914 16.912 21.8079 18.0934 23.5319 18.7143C24.5507 19.082 25.268 19.6728 25.8889 20.4865C25.9612 20.583 26.0456 20.6734 26.124 20.7578C26.1722 20.8121 26.2325 20.8543 26.353 20.9628C26.3651 20.2937 26.3651 19.7089 26.3651 19.1363Z" fill="white"/>
<path d="M7.06181 12.6921C5.9406 12.6921 4.81337 12.6921 3.69216 12.6921C3.60175 12.6921 3.49324 12.7162 3.42693 12.674C3.34254 12.6258 3.24609 12.5233 3.24609 12.4449C3.24609 12.3666 3.34254 12.2581 3.42693 12.2098C3.5053 12.1676 3.61983 12.1917 3.7223 12.1917C5.94663 12.1917 8.17699 12.1917 10.4013 12.1917C10.4737 12.1917 10.558 12.1676 10.6063 12.1978C10.7087 12.2701 10.7871 12.3666 10.8715 12.457C10.7871 12.5353 10.7087 12.6619 10.6063 12.68C10.4134 12.7162 10.2084 12.6921 10.0035 12.6921C9.03296 12.6921 8.04437 12.6921 7.06181 12.6921Z" fill="white"/>
<path d="M7.04828 14.7412C5.92707 14.7412 4.79984 14.7412 3.67863 14.7412C3.58218 14.7412 3.46765 14.7472 3.38326 14.705C3.31695 14.6749 3.23256 14.5724 3.23859 14.5061C3.24461 14.4217 3.31092 14.3192 3.38326 14.2771C3.44957 14.2349 3.55807 14.2409 3.64246 14.2409C5.90899 14.2409 8.17551 14.2409 10.442 14.2409C10.5023 14.2409 10.5807 14.2228 10.6168 14.2469C10.7133 14.3132 10.8519 14.4036 10.8519 14.488C10.8519 14.5664 10.7193 14.6689 10.6229 14.7292C10.5626 14.7653 10.4661 14.7352 10.3878 14.7352C9.27863 14.7412 8.16346 14.7412 7.04828 14.7412Z" fill="white"/>
<path d="M7.03367 15.7662C5.93055 15.7662 4.82743 15.7662 3.72431 15.7662C3.63389 15.7662 3.52538 15.7903 3.45908 15.7541C3.36866 15.6999 3.2481 15.5974 3.25412 15.513C3.25412 15.4286 3.38071 15.3382 3.4651 15.2719C3.51333 15.2357 3.60375 15.2598 3.67006 15.2598C5.92452 15.2598 8.18502 15.2598 10.4395 15.2598C10.5179 15.2598 10.6143 15.2357 10.6746 15.2779C10.759 15.3261 10.8735 15.4286 10.8614 15.5009C10.8554 15.5914 10.7529 15.6938 10.6625 15.7481C10.5962 15.7903 10.4877 15.7662 10.3973 15.7662C9.28211 15.7662 8.15488 15.7662 7.03367 15.7662Z" fill="white"/>
<path d="M7.06181 13.7171C5.94061 13.7171 4.81337 13.7171 3.69216 13.7171C3.60175 13.7171 3.49324 13.7352 3.42693 13.6991C3.34254 13.6508 3.24609 13.5484 3.24609 13.47C3.24609 13.3916 3.34857 13.2892 3.43296 13.2349C3.49324 13.1987 3.58969 13.2168 3.66805 13.2168C5.91649 13.2168 8.15891 13.2168 10.4073 13.2168C10.4978 13.2168 10.6063 13.1927 10.6726 13.2349C10.757 13.2892 10.8534 13.3977 10.8655 13.4881C10.8715 13.5544 10.757 13.6629 10.6726 13.7051C10.6002 13.7413 10.4978 13.7232 10.4073 13.7232C9.28614 13.7171 8.17699 13.7171 7.06181 13.7171Z" fill="white"/>
<path d="M24.8789 15.7662C23.7758 15.7662 22.6727 15.7662 21.5635 15.7662C21.4731 15.7662 21.3646 15.7903 21.2983 15.7541C21.2019 15.6938 21.0813 15.5974 21.0632 15.5009C21.0512 15.4407 21.1958 15.3261 21.2862 15.2719C21.3465 15.2357 21.443 15.2598 21.5213 15.2598C23.7698 15.2598 26.0182 15.2598 28.2667 15.2598C28.345 15.2598 28.4415 15.2417 28.5017 15.2779C28.5861 15.3322 28.6886 15.4286 28.6886 15.507C28.6886 15.5853 28.5922 15.6938 28.5078 15.7421C28.4415 15.7843 28.333 15.7601 28.2425 15.7601C27.1274 15.7662 26.0001 15.7662 24.8789 15.7662Z" fill="white"/>
<path d="M24.8727 14.2363C25.9999 14.2363 27.1211 14.2363 28.2484 14.2363C28.3388 14.2363 28.4473 14.2182 28.5136 14.2604C28.598 14.3086 28.7005 14.4171 28.6944 14.4955C28.6944 14.5738 28.5859 14.6703 28.5015 14.7245C28.4412 14.7607 28.3448 14.7426 28.2664 14.7426C26.018 14.7426 23.7696 14.7426 21.5211 14.7426C21.4789 14.7426 21.4428 14.7426 21.4006 14.7426C21.2257 14.7487 21.0509 14.7004 21.0509 14.5015C21.0449 14.2845 21.2197 14.2363 21.4126 14.2363C22.564 14.2363 23.7153 14.2363 24.8727 14.2363Z" fill="white"/>
<path d="M24.8764 13.7167C23.7612 13.7167 22.646 13.7167 21.5368 13.7167C21.4344 13.7167 21.3259 13.7347 21.2415 13.6925C21.1631 13.6564 21.0606 13.5539 21.0667 13.4876C21.0727 13.3972 21.1571 13.2887 21.2415 13.2404C21.3198 13.1982 21.4344 13.2103 21.5368 13.2103C23.7672 13.2103 25.9915 13.2103 28.2219 13.2103C28.2942 13.2103 28.3786 13.1862 28.4268 13.2163C28.5353 13.2826 28.6258 13.3791 28.7222 13.4635C28.6258 13.5479 28.5414 13.6865 28.4389 13.7046C28.2339 13.7408 28.0169 13.7167 27.806 13.7167C26.8234 13.7167 25.8469 13.7167 24.8764 13.7167Z" fill="white"/>
<path d="M24.905 12.1856C26.0082 12.1856 27.1113 12.1856 28.2144 12.1856C28.2928 12.1856 28.3953 12.1615 28.4495 12.1977C28.546 12.2579 28.6183 12.3604 28.7027 12.4448C28.6183 12.5232 28.5339 12.6196 28.4374 12.6799C28.3892 12.71 28.2988 12.6859 28.2325 12.6859C25.9961 12.6859 23.7597 12.6859 21.5173 12.6859C21.4691 12.6859 21.4028 12.704 21.3666 12.6799C21.2521 12.6076 21.0652 12.5352 21.0532 12.4388C21.029 12.2519 21.1918 12.1796 21.3787 12.1796C22.5602 12.1856 23.7296 12.1856 24.905 12.1856Z" fill="white"/>
</svg>
