<svg width="22" height="16" viewBox="0 0 22 16" fill="none" xmlns="http://www.w3.org/2000/svg">
<path d="M0.336296 0.690389L0.336313 0.6904L0.337652 0.68827C0.562781 0.329934 0.900939 0.157569 1.33179 0.152464C1.82595 0.148768 2.31702 0.149998 2.80978 0.151232C3.05694 0.151851 3.30453 0.152471 3.55314 0.152471H3.585H3.61686H3.64873H3.68059H3.71245H3.74431H3.77617H3.80804H3.8399H3.87176H3.90362H3.93548H3.96735H3.99921H4.03107H4.06293H4.0948H4.12666H4.15852H4.19038H4.22224H4.25411H4.28597H4.31783H4.34969H4.38155H4.41342H4.44528H4.47714H4.509H4.54087H4.57273H4.60459H4.63645H4.66831H4.70018H4.73204H4.7639H4.79576H4.82763H4.85949H4.89135H4.92321H4.95508H4.98694H5.0188H5.05066H5.08252H5.11439H5.14625H5.17811H5.20997H5.24184H5.2737H5.30556H5.33742H5.36929H5.40115H5.43301H5.46487H5.49674H5.5286H5.56046H5.59232H5.62419H5.65605H5.68791H5.71978H5.75164H5.7835H5.81536H5.84723H5.87909H5.91095H5.94281H5.97468H6.00654H6.0384H6.07027H6.10213H6.13399H6.16585H6.19772H6.22958H6.26144H6.29331H6.32517H6.35703H6.3889H6.42076H6.45262H6.48449H6.51635H6.54821H6.58007H6.61194H6.6438H6.67566H6.70753H6.73939H6.77125H6.80312H6.83498H6.86684H6.89871H6.93057H6.96243H6.9943H7.02616H7.05803H7.08989H7.12175H7.15362H7.18548H7.21734H7.24921H7.28107H7.31294H7.3448H7.37666H7.40853H7.44039H7.47225H7.50412H7.53598H7.56785H7.59971H7.63158H7.66344H7.6953H7.72717H7.75903H7.7909H7.82276H7.85462H7.88649H7.91835H7.95022H7.98208H8.01395H8.04581H8.07768H8.10954H8.14141H8.17327H8.20514H8.237H8.26886H8.30073H8.33259H8.36446H8.39632H8.42819H8.46005H8.49192H8.52378H8.55565H8.58751H8.61938H8.65125H8.68311H8.71498H8.74684H8.77871H8.81057H8.84244H8.8743H8.90617H8.93803H8.9699H9.00177H9.03363H9.0655H9.09736H9.12923H9.16109H9.19296H9.22483H9.25669H9.28856H9.32043H9.35229H9.38416H9.41602H9.44789H9.47976H9.51162H9.54349H9.57536H9.60722H9.63909H9.67096H9.70282H9.73469H9.76656H9.79842H9.83029H9.86216H9.89402H9.92589H9.95776H9.98962H10.0215H10.0534H10.0852H10.1171H10.149H10.1808H10.2127H10.2446H10.2764H10.3083H10.3402H10.372H10.4039H10.4358H10.4676H10.4995H10.5314H10.5632H10.5951H10.627H10.6588H10.6907H10.7226H10.7545H10.7863H10.8182H10.8501H10.8819H10.9138H10.9457H10.9775H11.0094H11.0413H11.0731H11.105H11.1369H11.1687H11.2006H11.2325H11.2644H11.2962H11.3281H11.36H11.3918H11.4237H11.4556H11.4874H11.5193H11.5512H11.5831H11.6149H11.6468H11.6787H11.7105H11.7424H11.7743H11.8061H11.838H11.8699H11.9018H11.9336H11.9655H11.9974H12.0292H12.0611H12.093H12.1248H12.1567H12.1886H12.2205H12.2523H12.2842H12.3161H12.3479H12.3798H12.4117H12.4436H12.4754H12.5073H12.5392H12.5711H12.6029H12.6348H12.6667H12.6985H12.7304H12.7623H12.7942H12.826H12.8579H12.8898H12.9216H12.9535H12.9854H13.0173H13.0491H13.081H13.1129H13.1448H13.1766H13.2085H13.2404H13.2723H13.3041H13.336H13.3679H13.3997H13.4316H13.4635H13.4954H13.5272H13.5591H13.591H13.6229H13.6547H13.6866H13.7185H13.7504H13.7822H13.8141H13.846H13.8779H13.9097H13.9416H13.9735H14.0054H14.0372H14.0691H14.101H14.1329H14.1647H14.1966H14.2285H14.2604H14.2922H14.3241H14.356H14.3879H14.4198H14.4516H14.4835H14.5154H14.5473H14.5791H14.611H14.6429H14.6748H14.7066H14.7385H14.7704H14.8023H14.8342H14.866H14.8979H14.9298H14.9617H14.9935H15.0254H15.0573H15.0892H15.1211H15.1529H15.1848H15.2167H15.2486H15.2805H15.3123H15.3442H15.3761H15.408H15.4398H15.4717H15.5036H15.5355H15.5674H15.5992H15.6311H15.663H15.6949H15.7268H15.7586H15.7905H15.8224H15.8543H15.8862H15.918H15.9499H15.9818H16.0137H16.0456H16.0775H16.1093H16.1412H16.1731H16.205H16.2369H16.2687H16.3006H16.3325H16.3644H16.3963H16.4282H16.46H16.4919H16.5238H16.5557H16.5876H16.6194H16.6513H16.6832H16.7151H16.747H16.7789H16.8107H16.8426H16.8745H16.9064H16.9383H16.9702H17.0021H17.0339H17.0658H17.0977H17.1296H17.1615H17.1934H17.2252H17.2571H17.289H17.3209H17.3528H17.3847H17.4166H17.4484H17.4803H17.5122H17.5441H17.576H17.6079H17.6398H17.6716H17.7035H17.7354H17.7673H17.7992H17.8311H17.863H17.8948H17.9267H17.9586H17.9905H18.0224H18.0543H18.0862H18.1181H18.15H18.1818H18.2137H18.2456H18.2775H18.3094H18.3413H18.3732H18.4051H18.4369H18.4688H18.5007H18.5326H18.5645H18.5964H18.6283H18.6602H18.6921H18.724H18.7558H18.7877H18.8196H18.8515H18.8834H18.9153H18.9472H18.9791H19.011H19.0429H19.0748H19.1066H19.1385H19.1704H19.2023H19.2342H19.2661H19.298H19.3299H19.3618H19.3937H19.4256H19.4575H19.4894H19.5212H19.5531H19.585H19.6169H19.6488H19.6807H19.7126H19.7445H19.7764H19.8083H19.8402H19.8721C20.2603 0.152471 20.58 0.24982 20.8311 0.520567C21.1497 0.875565 21.2344 1.27696 21.0576 1.72043L21.0572 1.72124C20.969 1.94619 20.8422 2.11495 20.6824 2.23277C20.5225 2.35068 20.3215 2.42346 20.0759 2.44378L20.0759 2.44374L20.0725 2.4441C20.0033 2.45141 19.9398 2.45056 19.8655 2.44958C19.8381 2.44921 19.8091 2.44883 19.7778 2.44883H19.7424H19.7069H19.6714H19.636H19.6005H19.565H19.5296H19.4941H19.4586H19.4232H19.3877H19.3522H19.3168H19.2813H19.2458H19.2104H19.1749H19.1394H19.1039H19.0685H19.033H18.9975H18.9621H18.9266H18.8911H18.8557H18.8202H18.7847H18.7492H18.7138H18.6783H18.6428H18.6074H18.5719H18.5364H18.5009H18.4655H18.43H18.3945H18.3591H18.3236H18.2881H18.2526H18.2172H18.1817H18.1462H18.1108H18.0753H18.0398H18.0043H17.9689H17.9334H17.8979H17.8624H17.827H17.7915H17.756H17.7205H17.6851H17.6496H17.6141H17.5786H17.5432H17.5077H17.4722H17.4368H17.4013H17.3658H17.3303H17.2949H17.2594H17.2239H17.1884H17.153H17.1175H17.082H17.0465H17.0111H16.9756H16.9401H16.9046H16.8691H16.8337H16.7982H16.7627H16.7272H16.6918H16.6563H16.6208H16.5853H16.5499H16.5144H16.4789H16.4434H16.408H16.3725H16.337H16.3015H16.266H16.2306H16.1951H16.1596H16.1241H16.0887H16.0532H16.0177H15.9822H15.9467H15.9113H15.8758H15.8403H15.8048H15.7694H15.7339H15.6984H15.6629H15.6274H15.592H15.5565H15.521H15.4855H15.45H15.4146H15.3791H15.3436H15.3081H15.2726H15.2372H15.2017H15.1662H15.1307H15.0952H15.0598H15.0243H14.9888H14.9533H14.9178H14.8824H14.8469H14.8114H14.7759H14.7404H14.705H14.6695H14.634H14.5985H14.563H14.5276H14.4921H14.4566H14.4211H14.3856H14.3502H14.3147H14.2792H14.2437H14.2082H14.1728H14.1373H14.1018H14.0663H14.0308H13.9953H13.9599H13.9244H13.8889H13.8534H13.8179H13.7825H13.747H13.7115H13.676H13.6405H13.6051H13.5696H13.5341H13.4986H13.4631H13.4276H13.3922H13.3567H13.3212H13.2857H13.2502H13.2147H13.1793H13.1438H13.1083H13.0728H13.0373H13.0019H12.9664H12.9309H12.8954H12.8599H12.8244H12.789H12.7535H12.718H12.6825H12.647H12.6115H12.5761H12.5406H12.5051H12.4696H12.4341H12.3986H12.3632H12.3277H12.2922H12.2567H12.2212H12.1858H12.1503H12.1148H12.0793H12.0438H12.0083H11.9729H11.9374H11.9019H11.8664H11.8309H11.7954H11.76H11.7245H11.689H11.6535H11.618H11.5825H11.5471H11.5116H11.4761H11.4406H11.4051H11.3696H11.3342H11.2987H11.2632H11.2277H11.1922H11.1567H11.1212H11.0858H11.0503H11.0148H10.9793H10.9438H10.9083H10.8729H10.8374H10.8019H10.7664H10.7309H10.6954H10.66H10.6245H10.589H10.5535H10.518H10.4825H10.4471H10.4116H10.3761H10.3406H10.3051H10.2696H10.2342H10.1987H10.1632H10.1277H10.0922H10.0567H10.0213H9.98578H9.95029H9.91481H9.87933H9.84384H9.80836H9.77288H9.73739H9.70191H9.66643H9.63094H9.59546H9.55998H9.52449H9.48901H9.45353H9.41804H9.38256H9.34708H9.31159H9.27611H9.24063H9.20514H9.16966H9.13418H9.0987H9.06321H9.02773H8.99225H8.95676H8.92128H8.8858H8.85032H8.81483H8.77935H8.74387H8.70838H8.6729H8.63742H8.60194H8.56645H8.53097H8.49549H8.46H8.42452H8.38904H8.35356H8.31808H8.28259H8.24711H8.21163H8.17615H8.14066H8.10518H8.0697H8.03422H7.99873H7.96325H7.92777H7.89229H7.85681H7.82132H7.78584H7.75036H7.71488H7.6794H7.64392H7.60843H7.57295H7.53747H7.50199H7.46651H7.43103H7.39554H7.36006H7.32458H7.2891H7.25362H7.21814H7.18266H7.14718H7.1117H7.07621H7.04073H7.00525H6.96977H6.93429H6.89881H6.86333H6.82785H6.79237H6.75689H6.72141H6.68593H6.65045H6.61497H6.57949H6.54401H6.50853H6.47305H6.43757H6.40209H6.36661H6.33113H6.29565H6.26017H6.22469H6.18921H6.15373H6.11825H6.08277H6.04729H6.01181H5.97633H5.94085H5.90537H5.86989H5.83441H5.79894H5.76346H5.72798H5.6925H5.65702H5.62154H5.58606H5.55059H5.51511H5.47963H5.44415H5.40867H5.3732H5.33772H5.30224H5.26676H5.23128H5.19581H5.16033H5.12485H5.08937H5.0539H5.01842H4.98294H4.94747H4.91199H4.87651H4.84103H4.80556H4.77008H4.7346H4.69913H4.66365H4.62818H4.5927H4.55722H4.52175H4.48627H4.4508H4.41532H4.37984H4.34437H4.30889H4.27342H4.23794H4.20247H4.16699H4.13152H4.09604H4.06057H4.02509H3.98962H3.95414H3.91867H3.88319H3.84772H3.81224H3.77677H3.7413H3.70582H3.67035H3.63487H3.5994H3.56393H3.52845H3.49298H3.45751H3.42203H3.38656H3.35109H3.31561H3.28014H3.24467H3.2092H3.17372H3.13825H3.10278H3.06731H3.03184H2.99636H2.96089H2.92542H2.88995H2.85448H2.81901H2.78353H2.74806H2.71259H2.67712H2.64165H2.60618H2.57071H2.53524H2.49977H2.4643H2.42883H2.39336H2.35789H2.32242H2.28695H2.25148H2.21601H2.18054H2.14507H2.1096H2.07413H2.03866H2.0032H1.96773H1.93226H1.89679H1.86132H1.82585H1.79039H1.75492H1.71945H1.68398H1.64851H1.61305C1.14028 2.44883 0.867736 2.39893 0.669579 2.26798C0.475744 2.13988 0.328373 1.91783 0.154503 1.50436C0.150324 1.37589 0.150023 1.24669 0.150002 1.11115C0.166232 1.07162 0.182678 1.02886 0.198346 0.988118C0.210903 0.955466 0.222961 0.924115 0.234006 0.896772C0.265284 0.819345 0.297051 0.75059 0.336296 0.690389Z" fill="white" stroke="#57412D" stroke-width="0.3"/>
<path d="M1.20587 13.5616L1.20588 13.5618L1.21305 13.5608C1.23929 13.557 1.27246 13.5567 1.31372 13.5567H1.35013H1.38654H1.42295H1.45936H1.49577H1.53217H1.56858H1.60499H1.6414H1.67781H1.71422H1.75063H1.78704H1.82345H1.85986H1.89627H1.93268H1.96908H2.00549H2.0419H2.07831H2.11472H2.15113H2.18754H2.22395H2.26036H2.29677H2.33318H2.36959H2.406H2.44241H2.47881H2.51522H2.55163H2.58804H2.62445H2.66086H2.69727H2.73368H2.77009H2.8065H2.84291H2.87932H2.91573H2.95214H2.98855H3.02496H3.06136H3.09777H3.13418H3.17059H3.207H3.24341H3.27982H3.31623H3.35264H3.38905H3.42546H3.46187H3.49828H3.53469H3.5711H3.60751H3.64392H3.68033H3.71674H3.75315H3.78956H3.82597H3.86238H3.89879H3.9352H3.97161H4.00802H4.04443H4.08084H4.11725H4.15366H4.19007H4.22648H4.26289H4.2993H4.33571H4.37212H4.40853H4.44494H4.48135H4.51776H4.55417H4.59058H4.62699H4.6634H4.69981H4.73622H4.77263H4.80904H4.84545H4.88186H4.91827H4.95468H4.99109H5.0275H5.06391H5.10032H5.13673H5.17314H5.20955H5.24596H5.28237H5.31879H5.3552H5.39161H5.42802H5.46443H5.50084H5.53725H5.57366H5.61007H5.64648H5.68289H5.7193H5.75572H5.79213H5.82854H5.86495H5.90136H5.93777H5.97418H6.01059H6.04701H6.08342H6.11983H6.15624H6.19265H6.22906H6.26547H6.30188H6.3383H6.37471H6.41112H6.44753H6.48394H6.52035H6.55677H6.59318H6.62959H6.666H6.70241H6.73883H6.77524H6.81165H6.84806H6.88447H6.92089H6.9573H6.99371H7.03012H7.06653H7.10295H7.13936H7.17577H7.21218H7.2486H7.28501H7.32142H7.35783H7.39425H7.43066H7.46707H7.50348H7.5399H7.57631H7.61272H7.64914H7.68555H7.72196H7.75838H7.79479H7.8312H7.86761H7.90403H7.94044H7.97685H8.01327H8.04968H8.08609H8.12251H8.15892H8.19534H8.23175H8.26816H8.30458H8.34099H8.3774H8.41382H8.45023H8.48665H8.52306H8.55947H8.59589H8.6323H8.66872H8.70513H8.74155H8.77796H8.81437H8.85079H8.8872H8.92362H8.96003H8.99645H9.03286H9.06928H9.10569H9.14211H9.17852H9.21494H9.25135H9.28777H9.32418H9.3606H9.39701H9.43343H9.46984H9.50626H9.54267H9.57909H9.61551H9.65192H9.68834H9.72475H9.76117H9.79758H9.834H9.87042H9.90683H9.94325H9.97966H10.0161H10.0525H10.0889H10.1253H10.1617H10.1982H10.2346H10.271H10.3074H10.3438H10.3802H10.4167H10.4531H10.4895H10.5259H10.5623H10.5987H10.6352H10.6716H10.708H10.7444H10.7808H10.8173H10.8537H10.8901H10.9265H10.9629H10.9993H11.0358H11.0722H11.1086H11.145H11.1814H11.2179H11.2543H11.2907H11.3271H11.3635H11.3999H11.4364H11.4728H11.5092H11.5456H11.582H11.6185H11.6549H11.6913H11.7277H11.7641H11.8006H11.837H11.8734H11.9098H11.9462H11.9827H12.0191H12.0555H12.0919H12.1283H12.1648H12.2012H12.2376H12.274H12.3104H12.3469H12.3833H12.4197H12.4561H12.4925H12.529H12.5654H12.6018H12.6382H12.6746H12.7111H12.7475H12.7839H12.8203H12.8567H12.8932H12.9296H12.966H13.0024H13.0389H13.0753H13.1117H13.1481H13.1845H13.221H13.2574H13.2938H13.3302H13.3667H13.4031H13.4395H13.4759H13.5124H13.5488H13.5852H13.6216H13.658H13.6945H13.7309H13.7673H13.8037H13.8402H13.8766H13.913H13.9494H13.9859H14.0223H14.0587H14.0951H14.1316H14.168H14.2044H14.2408H14.2773H14.3137H14.3501H14.3865H14.423H14.4594H14.4958H14.5322H14.5687H14.6051H14.6415H14.6779H14.7144H14.7508H14.7872H14.8236H14.8601H14.8965H14.9329H14.9693H15.0058H15.0422H15.0786H15.1151H15.1515H15.1879H15.2243H15.2608H15.2972H15.3336H15.37H15.4065H15.4429H15.4793H15.5158H15.5522H15.5886H15.625H15.6615H15.6979H15.7343H15.7708H15.8072H15.8436H15.88H15.9165H15.9529H15.9893H16.0258H16.0622H16.0986H16.135H16.1715H16.2079H16.2443H16.2808H16.3172H16.3536H16.3901H16.4265H16.4629H16.4993H16.5358H16.5722H16.6086H16.6451H16.6815H16.7179H16.7544H16.7908H16.8272H16.8637H16.9001H16.9365H16.973H17.0094H17.0458H17.0823H17.1187H17.1551H17.1916H17.228H17.2644H17.3008H17.3373H17.3737H17.4101H17.4466H17.483H17.5194H17.5559H17.5923H17.6288H17.6652H17.7016H17.7381H17.7745H17.8109H17.8474H17.8838H17.9202H17.9567H17.9931H18.0295H18.066H18.1024H18.1388H18.1753H18.2117H18.2481H18.2846H18.321H18.3575H18.3939H18.4303H18.4668H18.5032H18.5396H18.5761H18.6125H18.6489H18.6854H18.7218H18.7583H18.7947H18.8311H18.8676H18.904H18.9405H18.9769H19.0133H19.0498H19.0862H19.1226H19.1591H19.1955H19.232H19.2684H19.3048H19.3413H19.3777H19.4142H19.4506H19.487H19.5235H19.5599H19.5964H19.6328H19.6692H19.7057H19.7421H19.7786H19.815H19.8514H19.8879H19.9243H19.9608C20.5267 13.5567 20.9642 13.902 21.0961 14.4008C21.2822 15.1238 20.7698 15.813 20.0094 15.8477L20.0094 15.8476L20.0062 15.8478C19.957 15.8511 19.9129 15.8501 19.8622 15.8489C19.8332 15.8482 19.8022 15.8475 19.7668 15.8475H19.7313H19.6958H19.6604H19.6249H19.5894H19.554H19.5185H19.483H19.4475H19.4121H19.3766H19.3411H19.3057H19.2702H19.2347H19.1993H19.1638H19.1283H19.0929H19.0574H19.0219H18.9865H18.951H18.9155H18.88H18.8446H18.8091H18.7736H18.7382H18.7027H18.6672H18.6317H18.5963H18.5608H18.5253H18.4899H18.4544H18.4189H18.3834H18.348H18.3125H18.277H18.2416H18.2061H18.1706H18.1351H18.0997H18.0642H18.0287H17.9932H17.9578H17.9223H17.8868H17.8514H17.8159H17.7804H17.7449H17.7095H17.674H17.6385H17.603H17.5676H17.5321H17.4966H17.4611H17.4257H17.3902H17.3547H17.3192H17.2838H17.2483H17.2128H17.1773H17.1419H17.1064H17.0709H17.0354H17H16.9645H16.929H16.8935H16.8581H16.8226H16.7871H16.7516H16.7162H16.6807H16.6452H16.6097H16.5742H16.5388H16.5033H16.4678H16.4323H16.3969H16.3614H16.3259H16.2904H16.255H16.2195H16.184H16.1485H16.113H16.0776H16.0421H16.0066H15.9711H15.9357H15.9002H15.8647H15.8292H15.7937H15.7583H15.7228H15.6873H15.6518H15.6164H15.5809H15.5454H15.5099H15.4744H15.439H15.4035H15.368H15.3325H15.297H15.2616H15.2261H15.1906H15.1551H15.1196H15.0842H15.0487H15.0132H14.9777H14.9422H14.9068H14.8713H14.8358H14.8003H14.7648H14.7294H14.6939H14.6584H14.6229H14.5874H14.552H14.5165H14.481H14.4455H14.41H14.3746H14.3391H14.3036H14.2681H14.2326H14.1972H14.1617H14.1262H14.0907H14.0552H14.0197H13.9843H13.9488H13.9133H13.8778H13.8423H13.8069H13.7714H13.7359H13.7004H13.6649H13.6294H13.594H13.5585H13.523H13.4875H13.452H13.4166H13.3811H13.3456H13.3101H13.2746H13.2391H13.2037H13.1682H13.1327H13.0972H13.0617H13.0263H12.9908H12.9553H12.9198H12.8843H12.8488H12.8134H12.7779H12.7424H12.7069H12.6714H12.6359H12.6005H12.565H12.5295H12.494H12.4585H12.423H12.3876H12.3521H12.3166H12.2811H12.2456H12.2101H12.1747H12.1392H12.1037H12.0682H12.0327H11.9972H11.9618H11.9263H11.8908H11.8553H11.8198H11.7843H11.7489H11.7134H11.6779H11.6424H11.6069H11.5714H11.536H11.5005H11.465H11.4295H11.394H11.3585H11.3231H11.2876H11.2521H11.2166H11.1811H11.1456H11.1102H11.0747H11.0392H11.0037H10.9682H10.9327H10.8973H10.8618H10.8263H10.7908H10.7553H10.7198H10.6844H10.6489H10.6134H10.5779H10.5424H10.5069H10.4715H10.436H10.4005H10.365H10.3295H10.294H10.2586H10.2231H10.1876H10.1521H10.1166H10.0811H10.0457H10.0102H9.97469H9.93921H9.90372H9.86824H9.83276H9.79727H9.76179H9.72631H9.69082H9.65534H9.61986H9.58437H9.54889H9.51341H9.47792H9.44244H9.40696H9.37147H9.33599H9.30051H9.26502H9.22954H9.19406H9.15858H9.12309H9.08761H9.05213H9.01664H8.98116H8.94568H8.91019H8.87471H8.83923H8.80375H8.76826H8.73278H8.6973H8.66181H8.62633H8.59085H8.55537H8.51988H8.4844H8.44892H8.41344H8.37795H8.34247H8.30699H8.27151H8.23602H8.20054H8.16506H8.12958H8.09409H8.05861H8.02313H7.98765H7.95217H7.91668H7.8812H7.84572H7.81024H7.77476H7.73927H7.70379H7.66831H7.63283H7.59735H7.56187H7.52638H7.4909H7.45542H7.41994H7.38446H7.34898H7.3135H7.27801H7.24253H7.20705H7.17157H7.13609H7.10061H7.06513H7.02965H6.99417H6.95868H6.9232H6.88772H6.85224H6.81676H6.78128H6.7458H6.71032H6.67484H6.63936H6.60388H6.5684H6.53292H6.49744H6.46196H6.42648H6.391H6.35552H6.32004H6.28456H6.24908H6.2136H6.17812H6.14264H6.10716H6.07168H6.0362H6.00072H5.96524H5.92977H5.89429H5.85881H5.82333H5.78785H5.75237H5.71689H5.68141H5.64594H5.61046H5.57498H5.5395H5.50402H5.46854H5.43306H5.39759H5.36211H5.32663H5.29115H5.25568H5.2202H5.18472H5.14924H5.11377H5.07829H5.04281H5.00733H4.97186H4.93638H4.9009H4.86543H4.82995H4.79447H4.75899H4.72352H4.68804H4.65257H4.61709H4.58161H4.54614H4.51066H4.47518H4.43971H4.40423H4.36876H4.33328H4.29781H4.26233H4.22685H4.19138H4.1559H4.12043H4.08495H4.04948H4.014H3.97853H3.94306H3.90758H3.87211H3.83663H3.80116H3.76568H3.73021H3.69474H3.65926H3.62379H3.58831H3.55284H3.51737H3.48189H3.44642H3.41095H3.37547H3.34H3.30453H3.26906H3.23358H3.19811H3.16264H3.12717H3.09169H3.05622H3.02075H2.98528H2.94981H2.91433H2.87886H2.84339H2.80792H2.77245H2.73698H2.70151H2.66603H2.63056H2.59509H2.55962H2.52415H2.48868H2.45321H2.41774H2.38227H2.3468H2.31133H2.27586H2.24039H2.20492H2.16945H2.13398H2.09852H2.06305H2.02758H1.99211H1.95664H1.92117H1.8857H1.85024H1.81477H1.7793H1.74383H1.70836H1.6729H1.63743H1.60196C1.1369 15.8475 0.861217 15.7926 0.6613 15.6572C0.465444 15.5245 0.317537 15.2978 0.15452 14.8878C0.150325 14.763 0.150023 14.6299 0.150002 14.4977C0.164161 14.4621 0.176763 14.4288 0.188792 14.3971C0.218521 14.3186 0.244756 14.2493 0.282369 14.1772C0.480463 13.805 0.785175 13.6013 1.20587 13.5616Z" fill="white" stroke="#57412D" stroke-width="0.3"/>
<path d="M1.37995 6.85765L1.37851 6.85765C0.93902 6.85257 0.601361 7.00626 0.361954 7.35416L1.37995 6.85765ZM1.37995 6.85765C3.3387 6.86136 5.29761 6.86012 7.2563 6.85889C8.23553 6.85827 9.21472 6.85765 10.1938 6.85765H10.2128H10.2319H10.2509H10.2699H10.289H10.308H10.327H10.3461H10.3651H10.3841H10.4032H10.4222H10.4412H10.4603H10.4793H10.4983H10.5174H10.5364H10.5554H10.5745H10.5935H10.6125H10.6315H10.6506H10.6696H10.6886H10.7077H10.7267H10.7457H10.7648H10.7838H10.8028H10.8219H10.8409H10.8599H10.879H10.898H10.917H10.9361H10.9551H10.9741H10.9932H11.0122H11.0312H11.0503H11.0693H11.0883H11.1074H11.1264H11.1454H11.1645H11.1835H11.2025H11.2216H11.2406H11.2596H11.2787H11.2977H11.3167H11.3358H11.3548H11.3738H11.3929H11.4119H11.4309H11.45H11.469H11.488H11.5071H11.5261H11.5451H11.5642H11.5832H11.6022H11.6213H11.6403H11.6593H11.6784H11.6974H11.7164H11.7355H11.7545H11.7735H11.7926H11.8116H11.8306H11.8497H11.8687H11.8877H11.9067H11.9258H11.9448H11.9638H11.9829H12.0019H12.0209H12.04H12.059H12.078H12.0971H12.1161H12.1351H12.1542H12.1732H12.1922H12.2113H12.2303H12.2493H12.2684H12.2874H12.3064H12.3255H12.3445H12.3635H12.3826H12.4016H12.4206H12.4397H12.4587H12.4777H12.4968H12.5158H12.5348H12.5539H12.5729H12.5919H12.611H12.63H12.649H12.6681H12.6871H12.7061H12.7252H12.7442H12.7632H12.7823H12.8013H12.8203H12.8394H12.8584H12.8774H12.8965H12.9155H12.9345H12.9536H12.9726H12.9916H13.0107H13.0297H13.0487H13.0678H13.0868H13.1058H13.1248H13.1439H13.1629H13.1819H13.201H13.22H13.239H13.2581H13.2771H13.2961H13.3152H13.3342H13.3532H13.3723H13.3913H13.4103H13.4294H13.4484H13.4674H13.4865H13.5055H13.5245H13.5436H13.5626H13.5816H13.6007H13.6197H13.6387H13.6578H13.6768H13.6958H13.7149H13.7339H13.7529H13.772H13.791H13.81H13.8291H13.8481H13.8671H13.8862H13.9052H13.9242H13.9433H13.9623H13.9813H14.0004H14.0194H14.0384H14.0575H14.0765H14.0955H14.1146H14.1336H14.1526H14.1717H14.1907H14.2097H14.2288H14.2478H14.2668H14.2859H14.3049H14.3239H14.3429H14.362H14.381H14.4H14.4191H14.4381H14.4571H14.4762H14.4952H14.5142H14.5333H14.5523H14.5713H14.5904H14.6094H14.6284H14.6475H14.6665H14.6855H14.7046H14.7236H14.7426H14.7617H14.7807H14.7997H14.8188H14.8378H14.8568H14.8759H14.8949H14.9139H14.933H14.952H14.971H14.9901H15.0091H15.0281H15.0472H15.0662H15.0852H15.1043H15.1233H15.1423H15.1614H15.1804H15.1994H15.2185H15.2375H15.2565H15.2756H15.2946H15.3136H15.3327H15.3517H15.3707H15.3898H15.4088H15.4278H15.4469H15.4659H15.4849H15.504H15.523H15.542H15.5611H15.5801H15.5991H15.6181H15.6372H15.6562H15.6752H15.6943H15.7133H15.7323H15.7514H15.7704H15.7894H15.8085H15.8275H15.8465H15.8656H15.8846H15.9036H15.9227H15.9417H15.9607H15.9798H15.9988H16.0178H16.0369H16.0559H16.0749H16.094H16.113H16.132H16.1511H16.1701H16.1891H16.2082H16.2272H16.2462H16.2653H16.2843H16.3033H16.3224H16.3414H16.3604H16.3795H16.3985H16.4175H16.4366H16.4556H16.4746H16.4937H16.5127H16.5317H16.5508H16.5698H16.5888H16.6079H16.6269H16.6459H16.665H16.684H16.703H16.7221H16.7411H16.7601H16.7792H16.7982H16.8172H16.8362H16.8553H16.8743H16.8933H16.9124H16.9314H16.9504H16.9695H16.9885H17.0075H17.0266H17.0456H17.0646H17.0837H17.1027H17.1217H17.1408H17.1598H17.1788H17.1979H17.2169H17.2359H17.255H17.274H17.293H17.3121H17.3311H17.3501H17.3692H17.3882H17.4072H17.4263H17.4453H17.4643H17.4834H17.5024H17.5214H17.5405H17.5595H17.5785H17.5976H17.6166H17.6356H17.6547H17.6737H17.6927H17.7118H17.7308H17.7498H17.7689H17.7879H17.8069H17.826H17.845H17.864H17.8831H17.9021H17.9211H17.9402H17.9592H17.9782H17.9973H18.0163H18.0353H18.0543H18.0734H18.0924H18.1114H18.1305H18.1495H18.1685H18.1876H18.2066H18.2256H18.2447H18.2637H18.2827H18.3018H18.3208H18.3398H18.3589H18.3779H18.3969H18.416H18.435H18.454H18.4731H18.4921H18.5111H18.5302H18.5492H18.5682H18.5873H18.6063H18.6253H18.6444H18.6634H18.6824H18.7015H18.7205H18.7395H18.7586H18.7776H18.7966H18.8157H18.8347H18.8537H18.8728H18.8918H18.9108H18.9299H18.9489H18.9679H18.987H19.006H19.025H19.0441H19.0631H19.0821H19.1012H19.1202H19.1392H19.1583H19.1773H19.1963H19.2154H19.2344H19.2534H19.2724H19.2915H19.3105H19.3295H19.3486H19.3676H19.3866H19.4057H19.4247H19.4437H19.4628H19.4818H19.5008H19.5199H19.5389H19.5579H19.577H19.596H19.615H19.6341H19.6531H19.6721H19.6912H19.7102H19.7292H19.7483H19.7673H19.7863H19.8054H19.8244H19.8434H19.8625H19.8815H19.9005H19.9196H19.9386C20.5577 6.85765 21.0033 7.22172 21.1163 7.79307L21.1163 7.79332M1.37995 6.85765L21.1163 7.79332M21.1163 7.79332C21.2483 8.45527 20.7419 9.10891 20.075 9.14308L20.0748 9.14309M21.1163 7.79332L20.0748 9.14309M20.0748 9.14309C19.9741 9.14841 19.8782 9.14844 19.7723 9.14844H19.7368H19.7012H19.6657H19.6302H19.5946H19.5591H19.5236H19.4881H19.4525H19.417H19.3815H19.3459H19.3104H19.2749H19.2393H19.2038H19.1683H19.1327H19.0972H19.0617H19.0262H18.9906H18.9551H18.9196H18.884H18.8485H18.813H18.7775H18.7419H18.7064H18.6709H18.6353H18.5998H18.5643H18.5287H18.4932H18.4577H18.4222H18.3866H18.3511H18.3156H18.2801H18.2445H18.209H18.1735H18.1379H18.1024H18.0669H18.0314H17.9958H17.9603H17.9248H17.8893H17.8537H17.8182H17.7827H17.7472H17.7116H17.6761H17.6406H17.6051H17.5695H17.534H17.4985H17.463H17.4274H17.3919H17.3564H17.3209H17.2853H17.2498H17.2143H17.1788H17.1432H17.1077H17.0722H17.0367H17.0011H16.9656H16.9301H16.8946H16.859H16.8235H16.788H16.7525H16.7169H16.6814H16.6459H16.6104H16.5749H16.5393H16.5038H16.4683H16.4328H16.3972H16.3617H16.3262H16.2907H16.2552H16.2196H16.1841H16.1486H16.1131H16.0775H16.042H16.0065H15.971H15.9355H15.8999H15.8644H15.8289H15.7934H15.7579H15.7223H15.6868H15.6513H15.6158H15.5802H15.5447H15.5092H15.4737H15.4382H15.4026H15.3671H15.3316H15.2961H15.2606H15.225H15.1895H15.154H15.1185H15.083H15.0474H15.0119H14.9764H14.9409H14.9054H14.8698H14.8343H14.7988H14.7633H14.7278H14.6922H14.6567H14.6212H14.5857H14.5502H14.5147H14.4791H14.4436H14.4081H14.3726H14.3371H14.3015H14.266H14.2305H14.195H14.1595H14.1239H14.0884H14.0529H14.0174H13.9819H13.9464H13.9108H13.8753H13.8398H13.8043H13.7688H13.7332H13.6977H13.6622H13.6267H13.5912H13.5557H13.5201H13.4846H13.4491H13.4136H13.3781H13.3426H13.307H13.2715H13.236H13.2005H13.165H13.1295H13.0939H13.0584H13.0229H12.9874H12.9519H12.9163H12.8808H12.8453H12.8098H12.7743H12.7388H12.7032H12.6677H12.6322H12.5967H12.5612H12.5257H12.4901H12.4546H12.4191H12.3836H12.3481H12.3126H12.277H12.2415H12.206H12.1705H12.135H12.0995H12.0639H12.0284H11.9929H11.9574H11.9219H11.8864H11.8509H11.8153H11.7798H11.7443H11.7088H11.6733H11.6378H11.6022H11.5667H11.5312H11.4957H11.4602H11.4247H11.3891H11.3536H11.3181H11.2826H11.2471H11.2116H11.176H11.1405H11.105H11.0695H11.034H10.9985H10.9629H10.9274H10.8919H10.8564H10.8209H10.7854H10.7499H10.7143H10.6788H10.6433H10.6078H10.5723H10.5368H10.5012H10.4657H10.4302H10.3947H10.3592H10.3237H10.2881H10.2526H10.2171H10.1816H10.1461H10.1106H10.075H10.0395H10.004H9.9685H9.93298H9.89747H9.86195H9.82643H9.79092H9.7554H9.71988H9.68437H9.64885H9.61334H9.57782H9.5423H9.50679H9.47127H9.43575H9.40024H9.36472H9.32921H9.29369H9.25817H9.22266H9.18714H9.15162H9.11611H9.08059H9.04507H9.00956H8.97404H8.93852H8.90301H8.86749H8.83197H8.79646H8.76094H8.72542H8.68991H8.65439H8.61887H8.58336H8.54784H8.51232H8.47681H8.44129H8.40577H8.37025H8.33474H8.29922H8.2637H8.22819H8.19267H8.15715H8.12163H8.08612H8.0506H8.01508H7.97956H7.94405H7.90853H7.87301H7.83749H7.80198H7.76646H7.73094H7.69542H7.65991H7.62439H7.58887H7.55335H7.51783H7.48232H7.4468H7.41128H7.37576H7.34024H7.30473H7.26921H7.23369H7.19817H7.16265H7.12713H7.09162H7.0561H7.02058H6.98506H6.94954H6.91402H6.8785H6.84298H6.80747H6.77195H6.73643H6.70091H6.66539H6.62987H6.59435H6.55883H6.52331H6.48779H6.45227H6.41675H6.38123H6.34571H6.31019H6.27467H6.23915H6.20363H6.16812H6.1326H6.09707H6.06155H6.02603H5.99051H5.95499H5.91947H5.88395H5.84843H5.81291H5.77739H5.74187H5.70635H5.67083H5.63531H5.59979H5.56427H5.52874H5.49322H5.4577H5.42218H5.38666H5.35114H5.31562H5.28009H5.24457H5.20905H5.17353H5.13801H5.10248H5.06696H5.03144H4.99592H4.96039H4.92487H4.88935H4.85383H4.8183H4.78278H4.74726H4.71174H4.67621H4.64069H4.60517H4.56964H4.53412H4.4986H4.46307H4.42755H4.39202H4.3565H4.32098H4.28545H4.24993H4.21441H4.17888H4.14336H4.10783H4.07231H4.03678H4.00126H3.96573H3.93021H3.89468H3.85916H3.82363H3.78811H3.75258H3.71706H3.68153H3.64601H3.61048H3.57495H3.53943H3.5039H3.46838H3.43285H3.39732H3.3618H3.32627H3.29074H3.25522H3.21969H3.18416H3.14864H3.11311H3.07758H3.04205H3.00653H2.971H2.93547H2.89994H2.86441H2.82889H2.79336H2.75783H2.7223H2.68677H2.65124H2.61572H2.58019H2.54466H2.50913H2.4736H2.43807H2.40254H2.36701H2.33148H2.29595H2.26042H2.22489H2.18936H2.15383H2.1183H2.08277H2.04724H2.01171H1.97618H1.94065H1.90512H1.86959H1.83405H1.79852H1.76299H1.72746H1.69193H1.6564H1.62086L1.58533 9.14844L1.58445 9.14844M20.0748 9.14309L1.58445 9.14844M1.58445 9.14844C1.11923 9.15119 0.845962 9.09735 0.648887 8.96211C0.455714 8.82954 0.310347 8.60136 0.15 8.18652V8.18581V8.18499V8.18418V8.18336V8.18255V8.18174V8.18092V8.18011V8.17929V8.17848V8.17766V8.17685V8.17603V8.17522V8.17441V8.17359V8.17278V8.17196V8.17115V8.17033V8.16952V8.1687V8.16789V8.16708V8.16626V8.16545V8.16463V8.16382V8.163V8.16219V8.16138V8.16056V8.15975V8.15893V8.15812V8.1573V8.15649V8.15567V8.15486V8.15405V8.15323V8.15242V8.1516V8.15079V8.14997V8.14916V8.14834V8.14753V8.14672V8.1459V8.14509V8.14427V8.14346V8.14264V8.14183V8.14102V8.1402V8.13939V8.13857V8.13776V8.13694V8.13613V8.13531V8.1345V8.13369V8.13287V8.13206V8.13124V8.13043V8.12961V8.1288V8.12798V8.12717V8.12636V8.12554V8.12473V8.12391V8.1231V8.12228V8.12147V8.12066V8.11984V8.11903V8.11821V8.1174V8.11658V8.11577V8.11495V8.11414V8.11333V8.11251V8.1117V8.11088V8.11007V8.10925V8.10844V8.10762V8.10681V8.106V8.10518V8.10437V8.10355V8.10274V8.10192V8.10111V8.1003V8.09948V8.09867V8.09785V8.09704V8.09622V8.09541V8.09459V8.09378V8.09297V8.09215V8.09134V8.09052V8.08971V8.08889V8.08808V8.08726V8.08645V8.08564V8.08482V8.08401V8.08319V8.08238V8.08156V8.08075V8.07994V8.07912V8.07831V8.07749V8.07668V8.07586V8.07505V8.07423V8.07342V8.07261V8.07179V8.07098V8.07016V8.06935V8.06853V8.06772V8.0669V8.06609V8.06528V8.06446V8.06365V8.06283V8.06202V8.0612V8.06039V8.05958V8.05876V8.05795V8.05713V8.05632V8.0555V8.05469V8.05387V8.05306V8.05225V8.05143V8.05062V8.0498V8.04899V8.04817V8.04736V8.04654V8.04573V8.04492V8.0441V8.04329V8.04247V8.04166V8.04084V8.04003V8.03922V8.0384V8.03759V8.03677V8.03596V8.03514V8.03433V8.03351V8.0327V8.03189V8.03107V8.03026V8.02944V8.02863V8.02781V8.027V8.02618V8.02537V8.02456V8.02374V8.02293V8.02211V8.0213V8.02048V8.01967V8.01886V8.01804V8.01723V8.01641V8.0156V8.01478V8.01397V8.01315V8.01234V8.01153V8.01071V8.0099V8.00908V8.00827V8.00745V8.00664V8.00582V8.00501V8.0042V8.00338V8.00257V8.00175V8.00094V8.00012V7.99931V7.9985V7.99768V7.99687V7.99605V7.99524V7.99442V7.99361V7.99279V7.99198V7.99117V7.99035V7.98954V7.98872V7.98791V7.98709V7.98628V7.98546V7.98465V7.98384V7.98302V7.98221V7.98139V7.98058V7.97976V7.97895V7.97814V7.97732V7.97651V7.97569V7.97488V7.97406V7.97325V7.97243V7.97162V7.97081V7.96999V7.96918V7.96836V7.96755V7.96673V7.96592V7.9651V7.96429V7.96348V7.96266V7.96185V7.96103V7.96022V7.9594V7.95859V7.95778V7.95696V7.95615V7.95533V7.95452V7.9537V7.95289V7.95207V7.95126V7.95045V7.94963V7.94882V7.948V7.94719V7.94637V7.94556V7.94474V7.94393V7.94312V7.9423V7.94149V7.94067V7.93986V7.93904V7.93823V7.93742V7.9366V7.93579V7.93497V7.93416V7.93334V7.93253V7.93171V7.9309V7.93009V7.92927V7.92846V7.92764V7.92683V7.92601V7.9252V7.92438V7.92357V7.92276V7.92194V7.92113V7.92031V7.9195V7.91868V7.91787V7.91706V7.91624V7.91543V7.91461V7.9138V7.91298V7.91217V7.91135V7.91054V7.90973V7.90891V7.9081V7.90728V7.90647V7.90565V7.90484V7.90402V7.90321V7.9024V7.90158V7.90077V7.89995V7.89914V7.89832V7.89751V7.8967V7.89588V7.89507V7.89425V7.89344V7.89262V7.89181V7.89099V7.89018V7.88937V7.88855V7.88774V7.88692V7.88611V7.88529V7.88448V7.88366V7.88285V7.88204V7.88122V7.88041V7.87959V7.87878V7.87796V7.87715V7.87634V7.87552V7.87471V7.87389V7.87308V7.87226V7.87145V7.87063V7.86982V7.86901V7.86819V7.86738V7.86656V7.86575V7.86493V7.86412V7.8633V7.86249V7.86168V7.86086V7.86005V7.85923V7.85842V7.8576V7.85679V7.85598V7.85516V7.85435V7.85353V7.85272V7.8519V7.85109V7.85027V7.84946V7.84865V7.84783V7.84702V7.8462V7.84539V7.84457V7.84376V7.84294V7.84213V7.84132V7.8405V7.83969V7.83887V7.83806V7.83724V7.83643V7.83562V7.8348V7.83399V7.83317V7.83236V7.83154V7.83073V7.82991V7.8291V7.82829V7.828M1.58445 9.14844L0.15 7.828M0.15 7.828C0.170522 7.77892 0.190428 7.72675 0.209142 7.6777C0.222016 7.64396 0.234326 7.6117 0.245885 7.58294C0.280411 7.49703 0.315759 7.42135 0.361926 7.3542L0.15 7.828Z" fill="white" stroke="#57412D" stroke-width="0.3"/>
</svg>
