<svg width="25" height="26" viewBox="0 0 25 26" fill="none" xmlns="http://www.w3.org/2000/svg">
<path d="M13.2623 0C13.782 0.0664327 14.3119 0.107314 14.8265 0.199298C18.5866 0.889177 21.6793 2.65731 23.6103 6.04538C25.5617 9.459 25.4394 12.9339 23.3606 16.2709C21.7251 18.8925 19.2897 20.4919 16.3601 21.3454C14.5004 21.8921 12.6 22.0455 10.6741 21.7542C10.3072 21.698 10.0117 21.7593 9.69582 21.9586C8.11636 22.9397 6.52671 23.9005 4.93707 24.8663C4.86574 24.9123 4.78422 24.9481 4.67723 25.0094C4.67723 24.8918 4.67723 24.805 4.67723 24.7181C4.67723 23.0675 4.67213 21.4118 4.68232 19.7612C4.68232 19.5568 4.62118 19.4392 4.45814 19.3217C2.84302 18.131 1.58965 16.644 0.794823 14.789C0.387221 13.8436 0.13247 12.8522 0.0458548 11.8199C0.0407598 11.7586 0.015285 11.6973 0 11.636C0 11.1965 0 10.757 0 10.3175C0.015285 10.2409 0.0356648 10.1642 0.0458548 10.0824C0.168135 8.6567 0.575737 7.32293 1.30432 6.09648C3.30157 2.71863 6.34839 0.899397 10.134 0.204408C10.6486 0.107314 11.1785 0.071543 11.6982 0.00511021C12.2229 0 12.7426 0 13.2623 0ZM6.20063 22.2294C6.29234 22.1783 6.35858 22.1477 6.42481 22.1068C7.3623 21.5395 8.31507 20.9979 9.23726 20.4C9.64996 20.1342 10.0423 19.986 10.5212 20.1649C10.6027 20.1956 10.6995 20.1853 10.7861 20.2007C12.5388 20.4613 14.2711 20.3284 15.9627 19.8276C18.4287 19.102 20.4871 17.7631 21.9442 15.6015C23.2944 13.5983 23.7377 11.3958 23.1619 9.03996C22.5047 6.33666 20.7928 4.44077 18.4338 3.08657C17.104 2.32004 15.6621 1.88056 14.1387 1.67615C12.4013 1.44108 10.6842 1.56372 9.00799 2.05942C6.5471 2.77995 4.47852 4.09839 3.04172 6.26512C1.18204 9.07574 1.05467 12.0141 2.64431 14.9882C3.43404 16.4702 4.61099 17.6047 6.0274 18.4939C6.17516 18.5858 6.2312 18.6829 6.22611 18.8618C6.20573 19.9094 6.19554 20.9621 6.18025 22.0148C6.18535 22.0812 6.19554 22.1425 6.20063 22.2294Z" fill="white"/>
<path d="M12.4609 10.1641C10.6725 10.1641 8.88926 10.1641 7.10091 10.1641C6.49461 10.1641 6.10229 9.65821 6.2959 9.12675C6.40799 8.81503 6.64236 8.64639 6.96844 8.60551C7.04996 8.59529 7.13148 8.6004 7.213 8.6004C10.7286 8.6004 14.2441 8.6004 17.7597 8.6004C17.8718 8.6004 17.989 8.59529 18.1011 8.62084C18.4985 8.7026 18.7634 9.07054 18.7226 9.46402C18.6819 9.85751 18.3609 10.159 17.9482 10.1641C17.2655 10.1743 16.5827 10.1692 15.9 10.1692C14.7485 10.1641 13.6022 10.1641 12.4609 10.1641Z" fill="white"/>
<path d="M12.483 14.855C11.1991 14.855 9.92026 14.8602 8.63632 14.855C8.0402 14.855 7.65298 14.3236 7.86187 13.7972C7.98925 13.4804 8.23381 13.3118 8.57517 13.2964C8.87578 13.2862 9.17639 13.2913 9.47699 13.2913C11.7188 13.2913 13.9555 13.2913 16.1973 13.2913C16.3094 13.2913 16.4266 13.2862 16.5387 13.3118C16.9259 13.3884 17.1857 13.741 17.1603 14.1294C17.1348 14.528 16.8138 14.8448 16.4062 14.8499C15.8203 14.8602 15.2394 14.855 14.6535 14.855C13.93 14.855 13.2065 14.855 12.483 14.855Z" fill="white"/>
</svg>
