<svg width="37" height="38" viewBox="0 0 37 38" fill="none" xmlns="http://www.w3.org/2000/svg">
<path d="M6.83391 37.53C6.80725 37.53 6.78948 37.53 6.76282 37.53C6.77171 37.4933 6.78059 37.4567 6.78059 37.42C6.78059 35.3213 6.78948 33.2134 6.7717 31.1147C6.7717 30.9773 6.65618 30.8031 6.54065 30.7115C5.12765 29.5751 3.89239 28.2645 2.87929 26.7432C0.648708 23.3889 -0.328837 19.6864 0.0977284 15.6448C0.550955 11.3374 2.42607 7.7448 5.55422 4.89459C9.79322 1.03626 14.7965 -0.475914 20.3863 0.128954C24.6875 0.596353 28.4199 2.38346 31.5125 5.52695C33.8586 7.90976 35.4049 10.76 36.0715 14.0959C36.2225 14.8383 36.2936 15.5898 36.4003 16.3321C36.4003 17.0195 36.4003 17.6976 36.4003 18.385C36.3825 18.495 36.3469 18.5958 36.3381 18.7058C36.1425 21.2719 35.4138 23.673 34.0808 25.8359C30.5705 31.5363 25.4073 34.3315 18.9555 34.7164C17.0537 34.8356 15.1697 34.5973 13.3302 34.0932C13.0813 34.0291 12.8858 34.0658 12.6636 34.1941C11.7394 34.7348 10.7974 35.248 9.86431 35.7795C8.8601 36.3569 7.84701 36.9435 6.83391 37.53ZM29.8151 12.6662C29.7974 12.6479 29.7796 12.6296 29.7707 12.6112C26.8647 14.2701 23.9587 15.9289 21.0439 17.5968C19.4531 15.8922 17.8802 14.2059 16.2983 12.5013C13.028 16.0755 9.78433 19.6314 6.54953 23.1781C6.56731 23.2056 6.58508 23.2239 6.60286 23.2514C9.5355 21.6018 12.4593 19.9521 15.4008 18.2933C16.956 20.0071 18.4934 21.6934 20.0397 23.3889C23.3011 19.7963 26.5626 16.2313 29.8151 12.6662Z" fill="white"/>
</svg>
