<svg width="104" height="87" viewBox="0 0 104 87" fill="none" xmlns="http://www.w3.org/2000/svg">
<path d="M80.8693 17.9618C81.809 17.0489 82.2654 16.9684 83.3394 17.6127C88.9777 21.0494 94.5892 24.5129 100.201 27.9496C102.161 29.1578 103.1 30.9567 103.1 33.2389C103.1 49.4825 103.1 65.7262 103.1 81.9699C103.1 84.9501 101.087 86.9638 98.1064 86.9638C67.0689 86.9638 36.0314 86.9638 4.99392 86.9638C2.71175 86.9638 1.12766 85.863 0.26849 83.7419C0.214792 83.6077 0.241641 83.3929 0.026849 83.3392C0 66.1021 0 48.865 0 31.6011C0.26849 31.5474 0.26849 31.3057 0.322188 31.1447C0.83232 29.6948 1.77204 28.6208 3.08764 27.8422C7.57143 25.1036 12.0284 22.365 16.4853 19.6264C17.6398 18.9283 18.0694 18.982 19.036 19.9486C19.385 21.0226 18.9286 21.6938 18.0157 22.2576C13.6393 24.9157 9.28977 27.5737 4.94022 30.2586C4.51064 30.5271 4.0542 30.7151 3.78571 31.1715C2.49696 32.7556 2.87285 34.4471 4.75228 35.6016C12.6996 40.4881 20.6738 45.3478 28.6211 50.2343C31.6819 52.1137 34.7158 53.9663 37.7766 55.8458C38.0182 55.98 38.2599 56.329 38.5552 56.0874C38.8506 55.8189 38.5284 55.5236 38.421 55.2819C37.8571 53.8858 37.2396 52.5165 36.6489 51.1472C36.6489 51.0935 36.6489 51.0129 36.6221 50.9592C34.3399 45.4015 32.0309 39.8169 29.7487 34.2591C29.5876 33.8564 29.346 33.749 28.9164 33.6953C24.7817 33.3463 22.5532 30.8762 22.5263 26.6877C22.5263 23.7075 22.4995 20.7272 22.4995 17.747C23.0365 13.478 25.2381 11.4375 29.5071 11.3301C29.9904 11.3301 30.3394 11.1421 30.7153 10.9005C34.152 8.7794 37.6155 6.65833 41.079 4.56411C47.8718 0.483053 54.7452 0.375656 61.6185 4.37616C62.1287 4.6715 62.5583 4.7789 63.1221 4.53726C63.5517 4.37616 64.0081 4.24192 64.4645 4.13452C65.6727 3.83918 66.6393 3.38275 67.3911 2.20139C68.6261 0.241411 71.1768 -0.429815 73.3784 0.26826C75.6606 0.993184 77.2178 3.06056 77.2715 5.58437C77.3252 8.59146 77.2715 11.6254 77.2984 14.6325C77.2984 15.0084 77.3252 15.3574 77.3521 15.7333C77.3252 16.1092 77.2984 16.4582 77.2984 16.8341C77.2984 24.2713 77.2984 31.7353 77.2984 39.1725C77.2984 41.9648 75.6874 44.1127 73.1636 44.8108C70.6667 45.5089 68.2234 44.4349 66.8272 41.9648C66.5856 41.5352 66.2097 41.401 65.807 41.2667C60.1687 39.6021 54.5035 37.9375 48.8652 36.2728C46.9321 35.709 44.9721 35.1452 42.9048 34.5545C43.1464 35.172 43.3343 35.6284 43.5223 36.1117C45.1869 40.1122 46.8784 44.1396 48.5431 48.1401C48.8921 49.0798 49.2948 49.9927 49.617 50.9324C49.7781 51.4157 50.0734 51.5768 50.5836 51.5499C52.1677 51.4425 53.7249 51.5768 55.2822 51.8453C58.5309 52.4359 61.2963 54.02 64.0081 55.7921C64.5719 56.168 64.9747 56.1411 65.5116 55.7921C73.4321 50.9055 81.3794 46.0459 89.3267 41.1862C92.4144 39.3068 95.502 37.4273 98.5628 35.521C100.281 34.4471 100.576 32.7019 99.3414 31.1983C99.0729 30.7419 98.6165 30.5271 98.1869 30.2855C92.7634 26.9562 87.3131 23.6001 81.8627 20.2976C80.923 19.707 80.4934 19.0357 80.8693 17.9618ZM43.925 53.0266C44.7036 52.7581 45.5091 52.4896 46.2877 52.248C46.7442 52.1137 46.7442 51.9527 46.5831 51.5499C44.5962 46.7976 42.6094 42.0185 40.6494 37.2662C40.2467 36.246 39.844 35.2257 39.4412 34.2054C39.3338 33.9638 39.2533 33.7222 38.9042 33.7222C36.9174 33.7222 34.9306 33.7222 32.8364 33.7222C35.6555 40.5955 38.421 47.2809 41.1596 53.9932C41.3207 54.3691 41.4818 54.3959 41.8308 54.1811C42.502 53.7784 43.2269 53.4025 43.925 53.0266ZM38.6626 27.3858C38.6895 23.2242 38.6895 19.0626 38.7163 14.901C38.7163 14.3909 38.4747 14.3103 38.0451 14.3103C35.038 14.3372 32.004 14.3372 28.997 14.364C27.037 14.4446 25.6408 15.7065 25.614 17.6127C25.5603 20.8615 25.5603 24.1102 25.614 27.3858C25.6408 29.1847 26.9296 30.6077 28.6748 30.6345C31.8161 30.7151 34.9843 30.6614 38.1256 30.6882C38.5552 30.6882 38.7432 30.554 38.7163 30.1244C38.6895 29.1847 38.6895 28.2987 38.6626 27.3858ZM66.156 27.3858C66.1829 23.7612 66.2097 20.1634 66.1829 16.5388C66.1829 15.438 66.5588 14.7399 67.6596 14.4982C68.9483 14.901 69.2168 15.25 69.2168 16.673C69.2168 23.976 69.2168 31.3057 69.2168 38.6087C69.2168 38.9846 69.2168 39.3605 69.2437 39.7095C69.3511 40.9177 70.2639 41.8037 71.4721 41.938C72.6803 42.0454 73.7543 41.3741 74.1033 40.2196C74.2644 39.7095 74.2644 39.1725 74.2644 38.6355C74.2644 27.8959 74.2644 17.1563 74.2644 6.41669C74.2644 6.1482 74.2644 5.87971 74.2644 5.61122C74.157 4.10767 73.1099 3.03371 71.7138 3.03371C70.3176 3.03371 69.2705 4.13452 69.2437 5.63807C69.2168 6.84627 69.2437 8.05448 69.2437 9.26269C69.2168 10.444 68.8678 10.8468 67.6864 11.1153C66.6393 10.9542 66.1829 10.3366 66.2097 9.28954C66.2366 8.69886 66.1829 8.08133 66.2097 7.49065C66.2634 6.84627 66.0486 6.79258 65.4579 6.98052C62.9073 7.75914 60.3298 8.51091 57.7523 9.26269C52.7047 10.7394 47.6839 12.2161 42.6363 13.7196C42.2335 13.827 41.6965 13.8002 41.7234 14.5251C41.7771 18.8209 41.7771 23.1168 41.8039 27.3858C41.7771 28.2987 41.8039 29.1847 41.7234 30.0975C41.6429 30.903 41.965 31.1715 42.69 31.3863C48.3014 32.9972 53.9129 34.6619 59.5243 36.2997C61.7259 36.944 63.9276 37.5884 66.1292 38.2596C66.156 34.5276 66.156 30.9567 66.156 27.3858ZM6.44377 40.2733C5.36981 39.5752 4.269 38.904 3.08764 38.1254C3.08764 51.4425 3.08764 64.5717 3.08764 77.8888C4.29585 77.1102 5.36981 76.439 6.47062 75.7409C6.60486 75.6872 6.71226 75.6335 6.81965 75.5798C16.1631 69.861 25.5066 64.1421 34.8232 58.3964C35.0111 58.289 35.2796 58.2353 35.3065 57.8863C34.9306 57.6446 34.5279 57.403 34.152 57.1614C29.3728 54.2348 24.6206 51.3083 19.8414 48.3817C15.3845 45.6968 10.9007 42.9851 6.44377 40.2733ZM6.71226 79.285C5.61145 79.9293 4.53749 80.6006 3.43668 81.2181C3.14134 81.3792 3.03394 81.594 3.03394 81.943C2.98024 83.2318 3.73202 83.9567 5.20871 83.9567C36.1388 83.9567 67.0689 83.9567 97.999 83.9567C98.2406 83.9567 98.4823 83.9567 98.6971 83.903C99.4488 83.7151 99.9053 83.2318 100.093 82.48C100.281 81.7014 99.959 81.2181 99.2609 80.9228C98.9387 80.7885 98.6165 80.5737 98.2943 80.3858C98.2138 80.3321 98.1332 80.2515 98.0527 80.1978C85.4336 72.4653 72.8414 64.6791 60.1687 57.0271C54.4498 53.5636 48.5968 53.6441 42.8511 57.1077C35.2796 61.672 27.7619 66.3169 20.2173 70.9618C15.7067 73.7004 11.196 76.4927 6.71226 79.285ZM100.066 38.1523C89.1925 44.8108 78.4797 51.3888 67.6327 58.0474C78.5066 64.7059 89.2462 71.284 100.066 77.9157C100.066 64.5449 100.066 51.4425 100.066 38.1523ZM36.1925 11.0884C37.8303 11.1958 39.4681 11.518 41.0522 11.0347C45.1601 9.82652 49.268 8.61831 53.349 7.4101C54.1545 7.16846 54.96 6.92682 55.7386 6.68518C56.4904 6.44354 57.269 6.22875 58.2624 5.93341C53.1074 3.81233 48.2746 3.97343 43.6297 6.57778C41.1059 8.00078 38.6626 9.58487 36.1925 11.0884Z" fill="#030302"/>
<path d="M48.5172 48.1402C46.8526 44.1397 45.1611 40.1123 43.4964 36.1118C43.3085 35.6554 43.1205 35.199 42.8789 34.5546C44.9463 35.1453 46.9063 35.7091 48.8394 36.2729C54.4777 37.9376 60.1428 39.6022 65.7811 41.2668C66.2107 41.4011 66.5598 41.5085 66.8014 41.9649C68.2244 44.435 70.6408 45.509 73.1378 44.8109C75.6616 44.1128 77.2457 41.9649 77.2725 39.1726C77.2725 31.7354 77.2725 24.2714 77.2725 16.8342C77.2725 16.4583 77.2994 16.1093 77.3262 15.7334C78.5076 16.4583 79.7426 17.1027 80.8434 17.9619C80.4676 19.0358 80.924 19.7071 81.8369 20.2709C87.2872 23.5733 92.7107 26.9294 98.1611 30.2587C98.5907 30.5272 99.0471 30.7152 99.3156 31.1716C97.2482 32.4335 95.154 33.7223 93.0866 34.9842C84.4681 40.2734 75.8227 45.5627 67.2041 50.8251C65.7543 51.7111 64.197 51.8991 62.6398 51.013C61.1363 50.1539 59.579 49.3752 57.9144 48.892C54.8267 48.0059 51.7122 47.7106 48.5172 48.1402Z" fill="#FDC144"/>
<path d="M22.5258 17.7197C22.5526 20.7 22.5526 23.6802 22.5526 26.6605C22.5526 30.8489 24.808 33.319 28.9427 33.6681C29.3723 33.6949 29.6139 33.8291 29.775 34.2319C32.0572 39.8165 34.3394 45.3742 36.6484 50.932C36.6752 50.9857 36.6752 51.0662 36.6752 51.1199C36.541 51.0931 36.4067 51.0931 36.2993 51.0125C28.4594 46.2066 20.6195 41.4006 12.7796 36.6214C9.79934 34.7957 6.7654 32.9968 3.78516 31.1711C4.05365 30.7147 4.51008 30.4999 4.93966 30.2582C9.28921 27.5733 13.6388 24.9153 18.0151 22.2572C18.928 21.6934 19.4113 21.0222 19.0354 19.9482C20.1094 19.089 21.3444 18.4447 22.5258 17.7197Z" fill="#FDC144"/>
<path d="M6.71484 79.2843C11.2255 76.492 15.7093 73.7266 20.2199 70.9611C27.7645 66.3431 35.2822 61.6982 42.8536 57.107C48.5725 53.6435 54.4524 53.5629 60.1713 57.0265C72.844 64.7053 85.4362 72.4647 98.0553 80.1972C98.1358 80.2509 98.2164 80.3314 98.2969 80.3851C97.8942 80.6805 97.4646 80.5462 97.035 80.5462C68.4139 80.5462 39.7929 80.5462 11.1986 80.5731C9.50714 80.5731 7.92305 80.5999 6.71484 79.2843Z" fill="#FECF5A"/>
<path d="M100.066 38.1523C100.066 51.4695 100.066 64.5718 100.066 77.9158C89.2194 71.2841 78.5067 64.706 67.6328 58.0475C78.453 51.3621 89.1926 44.8109 100.066 38.1523Z" fill="#FDCF5A"/>
<path d="M6.44531 40.2734C10.9023 42.9852 15.386 45.6969 19.843 48.4087C24.6221 51.3352 29.3744 54.2618 34.1535 57.1883C34.5563 57.43 34.9321 57.6716 35.308 57.9133C35.2812 58.2623 35.0127 58.316 34.8247 58.4234C25.4813 64.1422 16.1378 69.8879 6.8212 75.6068C6.7138 75.6873 6.57956 75.7142 6.47216 75.7679C6.44531 63.9274 6.44531 52.1139 6.44531 40.2734Z" fill="#FDCF5A"/>
<path d="M67.6593 14.4982C66.5585 14.7399 66.1826 15.438 66.1826 16.5388C66.2095 20.1634 66.1558 23.7612 66.1558 27.3858C58.0474 27.3858 49.939 27.3858 41.8305 27.3858C41.8037 23.0899 41.8037 18.7941 41.75 14.5251C41.75 13.8002 42.2601 13.8539 42.6629 13.7196C47.6836 12.2161 52.7313 10.7662 57.7789 9.26268C60.3564 8.51091 62.907 7.78598 65.4845 6.98051C66.0752 6.79257 66.29 6.84627 66.2363 7.49064C66.1826 8.08132 66.2363 8.69885 66.2363 9.28953C66.2095 10.3366 66.6659 10.9273 67.713 11.1153C67.6593 12.2429 67.6593 13.3706 67.6593 14.4982Z" fill="#FDF3D5"/>
<path d="M6.7132 79.2852C7.94826 80.6008 9.5055 80.5739 11.1433 80.5739C39.7644 80.5471 68.3854 80.5471 96.9797 80.5471C97.4092 80.5471 97.8657 80.6813 98.2416 80.386C98.5637 80.5739 98.8591 80.7887 99.2081 80.9229C99.9331 81.2183 100.228 81.7284 100.04 82.4802C99.8525 83.232 99.3961 83.7153 98.6443 83.9032C98.4295 83.9569 98.1879 83.9569 97.9462 83.9569C67.0161 83.9569 36.086 83.9569 5.15596 83.9569C3.67926 83.9569 2.95434 83.232 2.98119 81.9432C2.98119 81.5942 3.08858 81.4062 3.38392 81.2183C4.53843 80.5739 5.61239 79.9295 6.7132 79.2852Z" fill="#FDC144"/>
<path d="M67.6602 14.4982C67.6602 13.3706 67.6602 12.2429 67.6602 11.1421C68.8415 10.8736 69.1905 10.4709 69.2174 9.28952C69.2442 8.08132 69.1905 6.87311 69.2174 5.6649C69.2442 4.13451 70.2914 3.06055 71.6875 3.06055C73.0837 3.06055 74.1576 4.13451 74.2382 5.63805C74.265 5.90654 74.2382 6.17503 74.2382 6.44353C74.2382 17.1831 74.2382 27.9228 74.2382 38.6624C74.2382 39.1993 74.265 39.7363 74.0771 40.2465C73.7012 41.3741 72.6541 42.0722 71.4459 41.9648C70.2377 41.8574 69.3516 40.9714 69.2174 39.7363C69.1905 39.3604 69.1906 39.0114 69.1906 38.6355C69.1906 31.3326 69.1906 24.0028 69.1906 16.6999C69.2174 15.25 68.9489 14.8741 67.6602 14.4982Z" fill="#FBE6A2"/>
<path d="M48.5156 48.14C51.7107 47.7104 54.8251 48.0057 57.9128 48.9186C59.5774 49.4287 61.1347 50.1805 62.6382 51.0397C64.1955 51.9257 65.7527 51.7378 67.2026 50.8517C75.8479 45.5893 84.4665 40.3001 93.085 35.0108C95.1524 33.7489 97.2466 32.4601 99.314 31.1982C100.549 32.7018 100.254 34.447 98.5354 35.5209C95.4746 37.4272 92.3601 39.3066 89.2993 41.1861C81.352 46.0458 73.4315 50.9054 65.4842 55.792C64.9204 56.141 64.5445 56.1678 63.9807 55.792C61.2958 54.0199 58.5035 52.4358 55.2547 51.8452C53.6975 51.5498 52.1402 51.4424 50.5562 51.5498C50.046 51.5767 49.7775 51.4424 49.5896 50.9323C49.2674 49.9926 48.8647 49.0529 48.5156 48.14Z" fill="#FCA859"/>
<path d="M41.8028 27.3857C49.9112 27.3857 58.0196 27.3857 66.128 27.3857C66.128 30.9567 66.128 34.5544 66.128 38.2328C63.8995 37.5884 61.6979 36.9172 59.5231 36.2728C53.9117 34.635 48.3002 32.9703 42.6888 31.3594C41.9639 31.1446 41.6148 30.8761 41.7222 30.0706C41.8296 29.1846 41.7759 28.2718 41.8028 27.3857Z" fill="#F9E5A2"/>
<path d="M3.75635 31.1982C6.76344 33.024 9.77053 34.8229 12.7508 36.6486C20.5907 41.4546 28.4306 46.2606 36.2705 51.0397C36.3779 51.0934 36.5122 51.1202 36.6464 51.1471C37.2371 52.5164 37.8278 53.8857 38.4185 55.2818C38.5258 55.5235 38.848 55.8188 38.5527 56.0873C38.2574 56.3558 37.9889 56.0068 37.7741 55.8457C34.7133 53.9931 31.6525 52.1136 28.6186 50.2342C20.6712 45.3477 12.6971 40.488 4.74976 35.6015C2.84348 34.4738 2.49444 32.7555 3.75635 31.1982Z" fill="#FCA859"/>
<path d="M6.44548 40.2729C6.44548 52.0865 6.44548 63.9269 6.44548 75.7405C5.37152 76.4386 4.27071 77.1098 3.0625 77.8884C3.0625 64.5713 3.0625 51.4153 3.0625 38.125C4.27071 38.9036 5.34467 39.5748 6.44548 40.2729Z" fill="#FEC144"/>
<path d="M28.9956 14.3642C32.0027 14.3642 35.0366 14.3374 38.0437 14.3105C38.4733 14.3105 38.7149 14.3911 38.7149 14.9012C38.6881 19.0628 38.6613 23.2244 38.6613 27.386C36.4865 27.386 34.3117 27.4129 32.1369 27.386C30.338 27.3592 28.9956 25.9899 28.9688 24.191C28.9956 20.9154 28.9956 17.6398 28.9956 14.3642Z" fill="#FE7F85"/>
<path d="M28.998 14.3643C28.998 17.6398 28.998 20.9154 28.998 24.191C28.998 25.9899 30.3404 27.3592 32.1662 27.386C34.3409 27.4129 36.5157 27.386 38.6905 27.386C38.7173 28.2989 38.7173 29.1849 38.7442 30.0978C38.771 30.5542 38.5831 30.6885 38.1535 30.6616C35.0122 30.6348 31.844 30.6885 28.7026 30.6079C26.9843 30.5811 25.6687 29.1581 25.6418 27.3592C25.5881 24.1105 25.5881 20.8617 25.6418 17.5861C25.6687 15.7067 27.038 14.4448 28.998 14.3643Z" fill="#FB636E"/>
<path d="M43.9241 53.0266C43.226 53.4025 42.5011 53.7515 41.803 54.1543C41.4808 54.3422 41.2929 54.3422 41.1318 53.9663C38.3932 47.2541 35.6277 40.5687 32.8086 33.6953C34.9028 33.6953 36.8896 33.6953 38.8765 33.6953C39.2255 33.6953 39.3329 33.937 39.4135 34.1786C39.8162 35.1989 40.2189 36.2191 40.6217 37.2394C38.7959 37.2394 37.9636 38.1523 38.5543 39.6558C39.6551 42.4212 40.8365 45.133 41.9373 47.8985C42.6353 49.5899 43.5214 51.2277 43.9241 53.0266Z" fill="#FACD8A"/>
<path d="M36.1953 11.0881C38.6923 9.58457 41.1355 7.97363 43.6593 6.57748C48.3042 3.99997 53.1371 3.81203 58.2921 5.9331C57.2987 6.22844 56.52 6.44323 55.7683 6.68487C54.9628 6.92652 54.1842 7.16816 53.3787 7.4098C49.2708 8.618 45.1629 9.79936 41.0818 11.0344C39.444 11.5177 37.8331 11.1955 36.1953 11.0881Z" fill="#F9BE43"/>
<path d="M43.9254 53.0265C43.5227 51.2276 42.6367 49.5898 41.9654 47.8983C40.8646 45.1329 39.6833 42.4211 38.5825 39.6557C37.9918 38.1521 38.8241 37.2393 40.6498 37.2393C42.6367 41.9915 44.5966 46.7707 46.5835 51.5229C46.7446 51.9257 46.7446 52.1136 46.2881 52.221C45.4827 52.4895 44.704 52.758 43.9254 53.0265Z" fill="#FCDD9A"/>
</svg>
