<svg width="67" height="63" viewBox="0 0 67 63" fill="none" xmlns="http://www.w3.org/2000/svg">
<path d="M43.7543 16.4359C44.4488 17.2684 45.2887 17.9888 46.064 18.7413C48.519 21.1266 51.0064 23.48 53.09 26.2176C56.5949 30.8443 58.84 35.9992 59.7929 41.7145C60.0998 43.5236 60.1483 45.3646 60.1967 47.1897C60.2613 49.2068 60.9559 50.9999 62.5064 52.2806C64.2185 53.6894 65.6076 55.2263 66.1567 57.4196C66.1567 58.188 66.1567 58.9565 66.1567 59.7249C65.866 59.9971 65.8498 60.3973 65.656 60.7335C64.9776 61.8221 64.0085 62.4465 62.7164 62.5586C62.5387 62.5746 62.3772 62.5906 62.1996 62.5906C53.0577 62.5906 43.9158 62.5906 34.7739 62.5906C34.4994 62.5746 34.2086 62.5586 33.934 62.5586C27.1342 62.5586 20.3343 62.5265 13.5344 62.5746C12.0162 62.5906 10.7563 62.2224 9.69031 61.1337C9.49649 60.6695 9.31882 60.2052 9.125 59.7409C9.125 59.6449 9.125 59.5648 9.125 59.4688C24.1138 59.4688 39.1026 59.4688 54.0914 59.4688C55.9973 59.4688 57.5317 58.4122 58.1778 56.6351C58.6785 55.2744 58.2747 53.8655 57.1279 52.921C56.3042 52.2326 55.545 51.4802 55.0282 50.5356C54.3821 49.3509 54.0914 48.0862 54.0914 46.7414C54.1075 44.4521 54.2529 42.1468 53.946 39.8735C53.5745 37.1039 52.9123 34.4143 51.7978 31.8368C50.5219 28.8751 48.8098 26.2016 46.5485 23.8962C44.8688 22.1833 43.1082 20.5503 41.4607 18.8053C40.7824 18.1009 40.104 17.6847 39.1187 17.8447C39.1187 17.3805 39.1187 16.9162 39.1187 16.4359C39.2803 16.4359 39.4579 16.4199 39.6194 16.4199C41.0246 16.4199 42.3975 16.4359 43.7543 16.4359Z" fill="#B06328"/>
<path d="M39.1508 17.8445C40.1361 17.6684 40.8306 18.0846 41.4928 18.805C43.1403 20.55 44.9008 22.183 46.5806 23.896C48.8419 26.2013 50.5539 28.8749 51.8299 31.8366C52.9444 34.414 53.6066 37.1036 53.9781 39.8732C54.285 42.1465 54.1235 44.4518 54.1235 46.7412C54.1073 48.0859 54.4142 49.3667 55.0603 50.5354C55.5771 51.4799 56.3201 52.2323 57.16 52.9207C58.3068 53.8653 58.6944 55.2741 58.2099 56.6349C57.5638 58.4119 56.0294 59.4685 54.1235 59.4685C39.1347 59.4685 24.1459 59.4685 9.15708 59.4685C8.91481 59.1964 9.09248 58.8602 9.02787 58.572C9.02787 58.4919 9.01172 58.3959 9.01172 58.3158C9.10863 57.7555 9.20554 57.2112 9.30245 56.6509C9.51242 56.1386 9.73855 55.6263 9.94852 55.114C10.1262 54.8579 10.3039 54.6017 10.4654 54.3456C10.9015 53.7532 11.5152 53.353 12.0159 52.8247C12.3874 52.7446 12.5812 52.4405 12.8074 52.1843C13.3081 51.8001 13.6957 51.3198 13.9703 50.7595C14.2449 50.2792 14.6002 49.8149 14.6002 49.2226C15.1171 48.246 14.9556 47.1894 14.9879 46.1488C15.1817 45.6525 15.0686 45.1242 15.0848 44.6279C15.1332 44.1477 15.1817 43.6674 15.2301 43.2031C15.3593 42.2266 15.5047 41.25 15.6339 40.2734C15.86 39.7932 15.9247 39.2649 16.0054 38.7526C16.2154 38.0642 16.4415 37.3758 16.6515 36.6874C16.9099 35.8869 17.1845 35.0704 17.4429 34.27C17.669 33.7737 17.9759 33.3094 18.089 32.7651C19.365 30.2036 20.8186 27.7542 22.6438 25.5129C24.0813 23.7519 25.7287 22.183 27.3439 20.5821C28.2969 19.6375 29.2498 18.693 30.2189 17.7324C30.4127 17.9405 30.655 17.8445 30.8811 17.8445C32.5932 17.8445 34.3053 17.8445 36.0174 17.8445H36.0497C36.0335 20.8702 36.0335 23.896 36.0174 26.9217C30.1382 27.6101 25.4542 32.7971 25.5672 38.7205C25.5834 39.2649 25.5834 39.8092 25.6641 40.3695C26.0356 42.995 27.1663 45.2363 29.0399 47.1414C29.5244 47.6217 30.122 47.9579 30.6066 48.4381C30.655 48.4862 30.7035 48.5342 30.7358 48.5822V48.5662C30.865 49.0945 31.3657 49.3187 31.721 49.5908C35.1452 52.1203 38.9409 52.9047 43.0111 51.4799C48.002 49.7509 51.41 44.9321 51.0385 39.489C50.877 37.0396 50.0694 34.8943 48.5996 32.9732C48.325 32.605 48.0343 32.1567 47.4851 32.0607C47.3236 31.8686 47.1459 31.6765 47.0006 31.4684C45.0624 28.7788 42.3489 27.418 39.1347 26.9217C39.1508 23.896 39.1508 20.8702 39.1508 17.8445Z" fill="#C87629"/>
<path d="M31.4827 11.8246C29.8191 9.74342 28.1393 7.66222 26.4757 5.56501C25.119 3.86803 25.3128 1.83485 26.928 0.666179C27.4933 0.249939 28.1393 0.0258096 28.85 0.0258096C31.1436 0.0258096 33.4533 0.0258096 35.7468 0.00980031C36.0698 0.00980031 36.2637 0.169893 36.4575 0.362004C37.3135 1.2265 38.1857 2.07499 39.0902 2.97151C39.5586 2.05898 39.9785 1.2265 40.3985 0.394022C40.5116 0.169893 40.6085 -0.00620893 40.9153 0.00980031C42.4821 0.0258096 44.0488 0.0418188 45.6155 0.0418188C44.7918 0.714207 44.5172 1.33857 44.8402 2.12302C45.3732 3.40376 45.0179 4.5084 44.2426 5.51698C43.1604 6.90978 41.9975 8.23855 40.9153 9.63135C40.35 10.3678 39.6232 10.9921 39.2517 11.8726C39.0902 11.9047 38.9125 11.9367 38.751 11.9687C36.6028 11.9527 34.4385 11.9527 32.2903 11.9367C32.0319 11.9207 31.7412 11.9367 31.4827 11.8246Z" fill="#C87629"/>
<path d="M39.2617 11.8732C39.6332 10.9927 40.36 10.3684 40.9253 9.63193C42.0075 8.23912 43.1704 6.91036 44.2526 5.51755C45.0279 4.50897 45.3671 3.40433 44.8502 2.12359C44.5272 1.32313 44.8018 0.69877 45.6255 0.0423911C47.063 -0.133711 48.3228 0.218493 49.1466 1.48322C49.9542 2.73194 49.8249 4.18878 48.8235 5.45351C47.1276 7.58274 45.3994 9.71197 43.7034 11.8412C43.655 11.8732 43.6065 11.9052 43.5581 11.9373C42.1206 11.9212 40.6831 11.8892 39.2617 11.8732Z" fill="#B06329"/>
<path d="M14.6012 49.2226C14.6012 49.815 14.2458 50.2792 13.9712 50.7595C13.7774 50.5674 13.519 50.6314 13.2929 50.6314C11.9361 50.6314 10.5794 50.6314 9.23878 50.6314C7.39749 50.6314 5.54004 50.6475 3.69874 50.6635C2.92346 50.6635 2.16433 50.6795 1.38905 50.6314C0.500703 50.5834 0.0807586 50.1352 0 49.2226C0.726827 49.2226 1.46981 49.1746 2.19663 49.2226C2.8427 49.2707 3.00422 49.0305 2.97192 48.4222C2.92346 47.6537 2.82655 46.8372 3.35956 46.1489C3.66644 46.0848 3.95717 46.1809 4.2479 46.2609C4.45787 46.5971 4.53863 46.9653 4.50633 47.3495C4.49018 47.7978 4.52248 48.2461 4.49018 48.6943C4.47403 49.0946 4.63554 49.2226 5.02319 49.2066C5.60465 49.1906 6.18611 49.1586 6.76757 49.2066C7.33288 49.2546 7.51055 49.0785 7.4944 48.5022C7.47825 47.7498 7.28443 46.9653 7.73667 46.2609C8.07586 46.1168 8.4312 46.1168 8.77038 46.2609C8.98036 46.5971 9.06111 46.9653 9.02881 47.3495C9.01266 47.7818 9.04496 48.198 9.01266 48.6303C8.98036 49.0946 9.15803 49.2226 9.61027 49.2066C10.1594 49.1746 10.7247 49.1586 11.2901 49.2066C11.8554 49.2546 12.033 49.0785 12.0169 48.5022C12.0169 47.7498 11.8069 46.9653 12.2592 46.2609C12.5499 46.1809 12.8406 46.0848 13.1475 46.1489C13.6321 46.7412 13.5513 47.4456 13.5513 48.15C13.5674 49.4147 13.4382 49.1906 14.6012 49.2226Z" fill="#F09921"/>
<path d="M16.6521 36.6555C16.4421 37.3439 16.216 38.0323 16.006 38.7207C12.9049 38.7207 9.80378 38.7207 6.70265 38.7207C6.00813 38.7207 5.29745 38.7367 4.60293 38.7207C3.60152 38.6886 3.19773 38.3204 3.00391 37.2958C3.77919 37.2958 4.55447 37.2478 5.3136 37.2958C5.91122 37.3279 6.08888 37.1037 6.08888 36.5274C6.08888 35.759 5.87891 34.9585 6.34731 34.2381C6.63804 34.2381 6.92877 34.2381 7.2195 34.2381C7.47793 34.6223 7.52639 35.0545 7.49408 35.5028C7.47793 35.9511 7.49408 36.3993 7.47793 36.8316C7.46178 37.1678 7.59099 37.2798 7.93018 37.2798C8.52779 37.2638 9.12541 37.2478 9.72302 37.2798C10.2883 37.3118 10.4822 37.1037 10.466 36.5434C10.4337 35.7429 10.3529 34.9265 10.8536 34.2221C11.1444 34.2221 11.4351 34.2221 11.7258 34.2221C11.9843 34.6063 12.0327 35.0385 12.0004 35.4868C11.9681 35.9351 12.0004 36.3833 11.9843 36.8156C11.9681 37.1357 12.0973 37.2798 12.4365 37.2638C13.0826 37.2478 13.7286 37.2318 14.3586 37.2638C14.8431 37.2958 14.9885 37.1197 14.9723 36.6555C14.9562 35.823 14.7785 34.9585 15.36 34.2061C15.6507 34.2061 15.9414 34.2061 16.2322 34.2061C16.4906 34.6863 16.5229 35.2146 16.5229 35.7429C16.539 36.0791 16.426 36.3993 16.6521 36.6555Z" fill="#F09921"/>
<path d="M39.2658 11.8721C40.6872 11.8881 42.1247 11.9201 43.546 11.9361C43.5137 12.9607 43.7399 14.0333 42.8838 14.8818C41.6886 14.8978 40.4934 14.8978 39.2981 14.9138C35.9547 14.9138 32.6113 14.8978 29.2679 14.8978C29.0903 14.8978 28.9126 14.8818 28.7995 15.0419C28.2504 13.7452 28.8803 12.4324 30.237 12.0482C29.9463 13.0407 30.1563 13.409 31.2707 13.3769C33.5158 13.3289 35.7609 13.3609 38.0222 13.3609C38.3613 13.3609 38.749 13.457 38.9428 13.0728C39.1366 12.6885 39.0559 12.2883 38.7651 11.9521C38.9267 11.9201 39.0882 11.9041 39.2658 11.8721Z" fill="#FECB5B"/>
<path d="M9.02776 58.5572C9.09237 58.8614 8.9147 59.1816 9.15697 59.4538C9.15697 59.5498 9.15697 59.6299 9.15697 59.7259C8.83394 60.7505 8.9793 61.1027 9.72228 61.1187C10.7721 62.1913 12.0481 62.5595 13.5664 62.5595C20.3663 62.5115 27.1661 62.5435 33.966 62.5435C34.2406 62.5435 34.5313 62.5595 34.8059 62.5756C34.5959 62.7196 34.3537 62.6716 34.1114 62.6716C23.4189 62.6716 12.7427 62.6556 2.05022 62.6556C0.661167 62.6556 0.112009 62.2394 0.03125 61.1507C0.774229 61.1507 1.53336 61.1027 2.27634 61.1507C2.84165 61.1828 3.00317 61.0067 3.00317 60.4463C3.00317 59.6939 2.79319 58.9094 3.24544 58.205C3.58463 58.205 3.93997 58.205 4.27915 58.205C4.48912 58.5412 4.56988 58.9094 4.53758 59.2937C4.52143 59.7419 4.55373 60.1902 4.52143 60.6384C4.50528 61.0387 4.65064 61.1667 5.03828 61.1507C5.61975 61.1347 6.20121 61.1027 6.78267 61.1507C7.34798 61.1988 7.52565 61.0227 7.5095 60.4463C7.5095 59.6939 7.29952 58.9094 7.75177 58.205C8.13941 58.205 8.54321 58.109 8.9147 58.3331C8.9147 58.4132 8.93085 58.5092 9.02776 58.5572Z" fill="#EF9D2C"/>
<path d="M8.78991 46.2774C8.45073 46.1333 8.09539 46.1333 7.7562 46.2774C7.41702 46.0053 7.01323 46.1493 6.65789 46.1653C5.86645 46.1974 5.05887 46.0053 4.26743 46.2774C3.9767 46.1974 3.68597 46.1013 3.37909 46.1653C2.26462 46.1653 1.15015 46.1493 0.0195312 46.1493C0.0518347 45.3329 0.423324 44.8526 1.19861 44.7405C2.79763 44.5164 4.4128 44.6925 6.01182 44.6285C6.25409 44.6124 6.52867 44.7565 6.70634 44.4844C7.04553 44.6605 7.41702 44.6125 7.77236 44.6125C10.2113 44.6125 12.6502 44.6285 15.0891 44.6285C15.0729 45.1408 15.186 45.653 14.9922 46.1493C14.3784 46.1493 13.7646 46.1653 13.1509 46.1653C12.844 46.1013 12.5533 46.1974 12.2625 46.2774C11.4549 45.9892 10.6312 46.1974 9.80747 46.1653C9.48444 46.1493 9.11295 46.0213 8.78991 46.2774Z" fill="#FDC95C"/>
<path d="M7.21898 34.254C6.92825 34.254 6.63752 34.254 6.34679 34.254C5.23232 34.254 4.11785 34.238 3.01953 34.238C3.11644 33.1813 3.6656 32.7171 4.89313 32.7171C7.25128 32.7011 9.62558 32.7171 11.9837 32.7171C14.0189 32.7171 16.0701 32.7331 18.1052 32.7331C17.976 33.2774 17.6853 33.7417 17.4592 34.238C17.0554 34.238 16.6677 34.254 16.2639 34.254C15.9732 34.254 15.6825 34.254 15.3917 34.254C14.1804 34.254 12.9528 34.254 11.7415 34.254C11.4507 34.254 11.16 34.254 10.8693 34.254C9.65789 34.254 8.43036 34.254 7.21898 34.254Z" fill="#FECB60"/>
<path d="M15.1029 44.6283C12.664 44.6283 10.2251 44.6283 7.7862 44.6123C7.43087 44.6123 7.05938 44.6443 6.72019 44.4843C6.20334 44.2121 6.00952 43.7638 6.05797 43.1875C6.84941 43.1875 7.64084 43.1715 8.43227 43.2035C8.90067 43.2195 9.07834 43.0914 9.06219 42.5952C9.04604 41.8107 8.96528 41.0263 9.1914 40.2578C9.56289 40.2578 9.95053 40.2578 10.322 40.2578C10.5966 41.0263 10.4512 41.8107 10.4512 42.5952C10.4512 43.0754 10.6128 43.2195 11.0812 43.2035C11.6949 43.1715 12.3248 43.1715 12.9386 43.2035C13.407 43.2355 13.5847 43.0914 13.5685 42.5952C13.5524 41.8107 13.4716 41.0263 13.6977 40.2578C14.0692 40.2578 14.4569 40.2578 14.8284 40.2578C15.0706 41.0423 14.9414 41.8427 14.9737 42.6272C14.9899 42.8353 14.8607 43.1235 15.216 43.1875C15.1998 43.6678 15.1514 44.1481 15.1029 44.6283Z" fill="#F09921"/>
<path d="M3.699 50.6643C5.54029 50.6483 7.39774 50.6483 9.23904 50.6323C10.5958 50.6323 11.9525 50.6323 13.2931 50.6323C13.5192 50.6323 13.7777 50.5683 13.9715 50.7604C13.6969 51.3207 13.3093 51.801 12.8086 52.1852C12.4532 52.1852 12.0979 52.1852 11.7426 52.1852C11.4034 52.1852 11.0642 52.1852 10.7411 52.1852C9.56207 52.1852 8.39915 52.1852 7.22007 52.1852C6.88089 52.1852 6.5417 52.1852 6.21867 52.1852C5.15265 52.1852 4.08664 52.1852 3.02063 52.1692C3.00447 51.6729 3.16599 51.2727 3.56978 50.9685C3.6667 50.8885 3.76361 50.8244 3.699 50.6643Z" fill="#FDC95C"/>
<path d="M28.7969 15.043C28.9099 14.8829 29.0876 14.8989 29.2653 14.8989C32.6087 14.8989 35.9521 14.9149 39.2955 14.9149C39.1501 15.4752 38.9563 16.0515 39.6508 16.4198C39.4893 16.4198 39.3116 16.4358 39.1501 16.4358C38.1164 16.4358 37.0827 16.4358 36.049 16.4358C34.5146 16.4358 32.9802 16.4358 31.4296 16.4358C30.299 16.4358 29.2976 16.2116 28.7969 15.043Z" fill="#F5B445"/>
<path d="M14.844 40.2742C14.4725 40.2742 14.0848 40.2742 13.7134 40.2742C12.5827 40.2742 11.4521 40.2742 10.3215 40.2742C9.95 40.2742 9.56236 40.2742 9.19087 40.2742C8.14101 40.2742 7.09115 40.2742 6.04128 40.2582C5.97668 39.7779 6.13819 39.3937 6.49353 39.0895C6.60659 38.9935 6.76811 38.9294 6.68735 38.7373C9.78848 38.7373 12.8896 38.7373 15.9907 38.7373C15.91 39.2496 15.8615 39.7779 15.6193 40.2582C15.377 40.2582 15.1024 40.2582 14.844 40.2742Z" fill="#FDC95C"/>
<path d="M6.2181 52.1846C6.55728 52.1846 6.89647 52.1846 7.2195 52.1846C7.46178 52.5848 7.52639 53.001 7.49408 53.4653C7.46178 53.8495 7.51024 54.2338 7.47793 54.618C7.44563 55.0182 7.6233 55.1463 8.01094 55.1303C8.65701 55.1143 9.30308 55.1303 9.94915 55.1303C9.73917 55.6426 9.51305 56.1549 9.30308 56.6672C7.52639 56.6191 5.7497 56.7792 3.97301 56.5551C3.31079 56.2989 3.00391 55.8187 3.00391 55.1303C3.79534 55.1303 4.58677 55.0983 5.37821 55.1303C5.89506 55.1623 6.08888 55.0022 6.07273 54.4579C6.07273 53.6894 5.94352 52.921 6.2181 52.1846Z" fill="#F09921"/>
<path d="M3.9767 56.5391C5.75339 56.7472 7.53008 56.5871 9.30677 56.6511C9.20986 57.2114 9.11295 57.7558 9.01604 58.3161C8.98374 58.3161 8.95143 58.3161 8.91913 58.3161C8.54764 58.108 8.14385 58.204 7.75621 58.188C6.59328 58.188 5.43036 58.188 4.26743 58.188C3.92825 58.188 3.57291 58.188 3.23372 58.188C2.16771 58.188 1.08554 58.188 0.0195312 58.188C0.0195312 57.2114 0.504083 56.6992 1.47319 56.6351C2.31308 56.5711 3.15297 56.7312 3.9767 56.5391Z" fill="#FECA5A"/>
<path d="M38.7634 11.9533C39.0703 12.2895 39.1349 12.6897 38.9411 13.0739C38.7473 13.4581 38.3596 13.3461 38.0205 13.3621C35.7754 13.3621 33.5141 13.3301 31.269 13.3781C30.1546 13.4101 29.9446 13.0419 30.2353 12.0493C30.623 11.8572 31.0591 11.8572 31.479 11.8252C31.7374 11.9373 32.0282 11.9373 32.3027 11.9373C34.4509 11.9373 36.5991 11.9533 38.7634 11.9533Z" fill="#FEE078"/>
<path d="M42.8828 14.8826C43.7389 14.0501 43.5127 12.9615 43.545 11.9369C43.5935 11.9049 43.6419 11.8728 43.6904 11.8408C44.0134 11.8728 44.3365 11.9049 44.6433 11.9529C45.6771 12.097 46.517 12.9775 46.6139 14.0021C46.7108 14.9786 45.8224 16.1633 44.9341 16.2754C45.2571 15.2508 44.9987 14.8986 43.9488 14.8986C43.6096 14.8986 43.2543 14.8826 42.8828 14.8826Z" fill="#F5B445"/>
<path d="M3.02006 34.2383C4.13453 34.2383 5.249 34.2543 6.34731 34.2543C5.87891 34.9747 6.08888 35.7752 6.08888 36.5436C6.08888 37.1199 5.92737 37.3441 5.3136 37.3121C4.53832 37.264 3.76304 37.3121 3.00391 37.3121C3.00391 36.2875 3.00391 35.2629 3.02006 34.2383Z" fill="#F5B444"/>
<path d="M0.0195312 46.1494C1.134 46.1494 2.24847 46.1654 3.37909 46.1654C2.82993 46.8538 2.94299 47.6543 2.99145 48.4387C3.02375 49.0311 2.86223 49.2872 2.21617 49.2392C1.48934 49.1912 0.746359 49.2232 0.0195313 49.2392C0.0195312 48.1986 0.0195312 47.174 0.0195312 46.1494Z" fill="#F5B444"/>
<path d="M6.21757 52.1839C5.94299 52.9203 6.07221 53.7048 6.08836 54.4572C6.10451 55.0015 5.91069 55.1456 5.39383 55.1296C4.6024 55.0976 3.81097 55.1296 3.01953 55.1296C3.01953 54.153 3.01953 53.1604 3.03568 52.1839C4.08554 52.1679 5.15156 52.1839 6.21757 52.1839Z" fill="#F5B444"/>
<path d="M0.0195313 58.1875C1.08554 58.1875 2.16771 58.1875 3.23372 58.1875C2.78148 58.8919 2.99145 59.6764 2.99145 60.4288C2.99145 60.9891 2.84608 61.1812 2.26462 61.1332C1.52164 61.0852 0.76251 61.1172 0.0195312 61.1332C0.0195313 60.1566 0.0195313 59.1641 0.0195313 58.1875Z" fill="#F5B444"/>
<path d="M6.03906 40.2578C7.08892 40.2578 8.13879 40.2578 9.18865 40.2738C8.96252 41.0423 9.04328 41.8267 9.05943 42.6112C9.07559 43.0915 8.89792 43.2355 8.42952 43.2195C7.63808 43.1875 6.84665 43.2035 6.05521 43.2035C6.03906 42.2109 6.03906 41.2344 6.03906 40.2578Z" fill="#F5B444"/>
<path d="M42.8864 14.8838C43.2418 14.8838 43.6133 14.8998 43.9686 14.8998C45.0346 14.8998 45.2769 15.252 44.9539 16.2766C44.5824 16.4847 44.1624 16.4207 43.7586 16.4367C42.3857 16.4367 41.029 16.4207 39.6561 16.4207C38.9454 16.0525 39.1392 15.4761 39.3007 14.9158C40.496 14.8998 41.6912 14.8838 42.8864 14.8838Z" fill="#F09921"/>
<path d="M31.433 16.4365C32.9674 16.4365 34.5018 16.4365 36.0524 16.4365C36.0524 16.9008 36.0524 17.3651 36.0524 17.8453C34.3403 17.8453 32.6282 17.8453 30.9161 17.8453C30.69 17.8453 30.4477 17.9254 30.2539 17.7333C30.6415 17.285 31.0292 16.8688 31.433 16.4365Z" fill="#B06329"/>
<path d="M36.0352 17.8453C36.0352 17.3811 36.0352 16.9168 36.0352 16.4365C37.0689 16.4365 38.1026 16.4365 39.1363 16.4365C39.1363 16.9008 39.1363 17.3651 39.1363 17.8453C39.1363 20.8711 39.1363 23.8968 39.1363 26.9386C38.6194 26.8425 38.1026 26.7945 37.5857 26.8265C37.5857 24.3291 37.5857 21.8476 37.5857 19.3502C37.5857 17.8613 37.5857 17.8613 36.0675 17.8613L36.0352 17.8453Z" fill="#F09921"/>
<path d="M9.70791 61.1174C8.96493 61.1174 8.81957 60.7652 9.1426 59.7246C9.33642 60.1889 9.53024 60.6531 9.70791 61.1174Z" fill="#F5B445"/>
<path d="M47.5189 32.0605C48.0519 32.1566 48.3426 32.6049 48.6333 32.9731C50.087 34.8942 50.8946 37.0554 51.0722 39.4888C51.4437 44.948 48.0357 49.7508 43.0448 51.4798C38.9746 52.8886 35.179 52.1201 31.7548 49.5907C31.3994 49.3185 30.8987 49.0944 30.7695 48.5661C30.8987 48.6301 31.0441 48.6781 31.1572 48.7582C33.1277 50.0069 35.2597 50.6473 37.6017 50.6153C44.1432 50.7914 49.7478 45.1241 49.6024 38.7044C49.6509 38.064 49.5055 37.4397 49.4248 36.7993C49.1825 35.0703 48.4557 33.5174 47.5189 32.0605Z" fill="#B06328"/>
<path d="M37.6023 50.6156C35.2603 50.6476 33.1283 49.9912 31.1578 48.7585C31.0285 48.6785 30.8993 48.6304 30.7701 48.5664V48.5824C30.7217 48.5344 30.6732 48.4863 30.6409 48.4383C30.1563 47.958 29.5587 47.6218 29.0742 47.1416C27.2006 45.2525 26.07 43.0112 25.6985 40.3697C25.6177 39.8253 25.6016 39.281 25.6016 38.7207C26.07 38.7207 26.5545 38.7207 27.0229 38.7207C27.1198 38.8968 27.1521 39.0729 27.1521 39.281C27.1037 40.4337 27.3944 41.5223 27.8144 42.5629C29.1711 45.8288 31.5777 47.91 35.018 48.8546C35.8741 49.0947 36.7624 49.0146 37.6184 49.2388C37.6023 49.687 37.6023 50.1513 37.6023 50.6156Z" fill="#F5B445"/>
<path d="M27.0054 38.7205C26.537 38.7205 26.0524 38.7205 25.584 38.7205C25.471 32.8131 30.155 27.6101 36.0342 26.9217C36.5511 26.7777 37.0679 26.8097 37.5848 26.8097C37.5848 27.322 37.5848 27.8343 37.5848 28.3466C35.6627 28.2505 33.886 28.7788 32.2547 29.7234C30.3003 30.844 28.8951 32.4289 27.9583 34.4781C27.3446 35.8389 27.1669 37.2637 27.0054 38.7205Z" fill="#FEE078"/>
<path d="M37.6016 28.3466C37.6016 27.8343 37.6016 27.322 37.6016 26.8097C38.1184 26.7777 38.6514 26.8257 39.1521 26.9217C42.3663 27.418 45.0798 28.7788 47.018 31.4684C47.1634 31.6765 47.341 31.8526 47.5026 32.0607C48.4394 33.5336 49.1662 35.0865 49.4085 36.8155C49.5054 37.4398 49.6346 38.0642 49.5861 38.7206C49.0854 38.7206 48.5686 38.7366 48.0679 38.7366C48.1163 37.1837 47.8094 35.6628 47.0988 34.302C45.1121 30.5078 41.9948 28.3946 37.6016 28.3466Z" fill="#F5B445"/>
<path d="M37.6013 26.8099C37.0845 26.8099 36.5515 26.7779 36.0508 26.922C36.0669 23.8962 36.0669 20.8705 36.0831 17.8447C37.6013 17.8447 37.6013 17.8447 37.6013 19.3336C37.6013 21.831 37.6013 24.3125 37.6013 26.8099Z" fill="#F5B445"/>
<path d="M9.94839 55.1137C9.30232 55.1137 8.65625 55.0977 8.01018 55.1137C7.62254 55.1297 7.46103 55.0016 7.47718 54.6014C7.50948 54.2172 7.46103 53.8329 7.49333 53.4487C7.52563 52.9844 7.46103 52.5682 7.21875 52.168C8.39783 52.168 9.56075 52.168 10.7398 52.168C10.4168 52.8564 10.4491 53.5928 10.4814 54.3292C10.3037 54.6014 10.1261 54.8575 9.94839 55.1137Z" fill="#F5B444"/>
<path d="M13.1641 46.1654C13.7778 46.1654 14.3916 46.1494 15.0054 46.1494C14.9569 47.19 15.1346 48.2466 14.6177 49.2232C13.4548 49.1912 13.584 49.4153 13.584 48.1666C13.5679 47.4622 13.6486 46.7578 13.1641 46.1654Z" fill="#F5B444"/>
<path d="M10.4655 54.3458C10.4493 53.6094 10.4009 52.873 10.7239 52.1846C11.0631 52.1846 11.4023 52.1846 11.7253 52.1846C11.8222 52.3927 11.903 52.6168 11.9999 52.8249C11.5315 53.3532 10.9016 53.7535 10.4655 54.3458Z" fill="#F09921"/>
<path d="M14.8398 40.2738C15.0983 40.2738 15.3728 40.2738 15.6313 40.2578C15.5021 41.2344 15.3567 42.2109 15.2275 43.1875C14.8721 43.1235 14.9852 42.8353 14.9852 42.6272C14.9529 41.8427 15.0821 41.0423 14.8398 40.2738Z" fill="#F5B444"/>
<path d="M16.2656 34.2543C16.6694 34.2543 17.0571 34.2383 17.4609 34.2383C17.2024 35.0387 16.9278 35.8552 16.6694 36.6557C16.4433 36.3995 16.5564 36.0793 16.5564 35.7912C16.5564 35.2629 16.5241 34.7346 16.2656 34.2543Z" fill="#F5B445"/>
<path d="M12.0168 52.8083C11.9199 52.6002 11.8391 52.3761 11.7422 52.168C12.0975 52.168 12.4529 52.168 12.8082 52.168C12.5821 52.4401 12.3883 52.7283 12.0168 52.8083Z" fill="#F5B445"/>
<path d="M8.91406 58.3164C8.94637 58.3164 8.97867 58.3164 9.01097 58.3164C9.01097 58.3965 9.02712 58.4925 9.02712 58.5726C8.93021 58.5085 8.91406 58.4125 8.91406 58.3164Z" fill="#F5B444"/>
<path d="M30.625 48.4219C30.6735 48.4699 30.7219 48.5179 30.7542 48.566C30.7219 48.5179 30.6735 48.4699 30.625 48.4219Z" fill="#B06328"/>
<path d="M4.26172 46.2773C5.037 45.9892 5.84459 46.1973 6.65217 46.1653C7.02366 46.1492 7.4113 46.0212 7.75049 46.2773C7.29824 46.9817 7.50821 47.7662 7.50821 48.5186C7.50821 49.0949 7.33055 49.271 6.78139 49.223C6.19993 49.175 5.61846 49.191 5.037 49.223C4.64936 49.239 4.48784 49.111 4.50399 48.7107C4.5363 48.2625 4.48784 47.8142 4.52015 47.3659C4.5363 46.9817 4.47169 46.6135 4.26172 46.2773Z" fill="#F5B444"/>
<path d="M8.78516 46.2773C9.10819 46.0212 9.47968 46.1492 9.83502 46.1653C10.6588 46.1973 11.4825 46.0052 12.2901 46.2773C11.8378 46.9817 12.0478 47.7662 12.0478 48.5186C12.0478 49.0949 11.8863 49.271 11.321 49.223C10.7718 49.175 10.2065 49.191 9.6412 49.223C9.2051 49.255 9.01128 49.111 9.04358 48.6467C9.07589 48.2304 9.02743 47.7982 9.05974 47.3659C9.05974 46.9817 8.99513 46.6135 8.78516 46.2773Z" fill="#F5B444"/>
<path d="M11.7422 34.2549C12.9536 34.2549 14.1811 34.2549 15.3925 34.2549C14.811 34.9913 14.9887 35.8718 15.0048 36.7043C15.0048 37.1686 14.8756 37.3447 14.3911 37.3126C13.745 37.2806 13.1151 37.2966 12.469 37.3126C12.1298 37.3287 12.0168 37.1846 12.0168 36.8644C12.0329 36.4161 12.0006 35.9679 12.0329 35.5356C12.0491 35.0714 11.9845 34.6391 11.7422 34.2549Z" fill="#F5B444"/>
<path d="M7.21875 34.2549C8.43013 34.2549 9.65766 34.2549 10.869 34.2549C10.3683 34.9753 10.4491 35.7918 10.4814 36.5762C10.5137 37.1365 10.3037 37.3447 9.73842 37.3126C9.1408 37.2806 8.54319 37.2966 7.94558 37.3126C7.60639 37.3287 7.47718 37.2006 7.49333 36.8644C7.50948 36.4161 7.47718 35.9679 7.50948 35.5356C7.52563 35.0714 7.46103 34.6391 7.21875 34.2549Z" fill="#F5B444"/>
<path d="M4.26172 58.1875C5.42464 58.1875 6.58757 58.1875 7.75049 58.1875C7.29824 58.8919 7.50821 59.6764 7.50821 60.4288C7.50821 61.0051 7.3467 61.1812 6.78139 61.1332C6.19993 61.0852 5.61846 61.1012 5.037 61.1332C4.64936 61.1492 4.48784 61.0211 4.52015 60.6209C4.55245 60.1726 4.50399 59.7244 4.5363 59.2761C4.5363 58.8759 4.47169 58.5237 4.26172 58.1875Z" fill="#F5B444"/>
<path d="M10.3203 40.2734C11.4509 40.2734 12.5816 40.2734 13.7122 40.2734C13.4699 41.0419 13.5507 41.8263 13.583 42.6108C13.5991 43.1071 13.4214 43.2351 12.953 43.2191C12.3393 43.1871 11.7094 43.1871 11.0956 43.2191C10.6272 43.2512 10.4657 43.0911 10.4657 42.6108C10.4495 41.8263 10.5949 41.0259 10.3203 40.2734Z" fill="#F5B444"/>
<path d="M48.084 38.7201C48.5847 38.7201 49.1016 38.7041 49.6023 38.7041C49.7477 45.1238 44.143 50.7911 37.6016 50.615C37.6016 50.1507 37.6016 49.6864 37.6016 49.2222C37.8923 49.1741 38.183 49.1261 38.4899 49.0941C41.0257 48.902 43.2224 47.9094 45.0152 46.1324C47.0503 44.0992 48.1002 41.6178 48.084 38.7201Z" fill="#F09921"/>
<path d="M48.0819 38.7213C48.0981 41.619 47.0482 44.1004 45.0131 46.1176C43.2364 47.8946 41.0397 48.8872 38.4878 49.0793C38.197 49.0953 37.8902 49.1593 37.5994 49.2073C36.7434 48.9992 35.855 49.0633 34.999 48.8231C31.5587 47.8946 29.1521 45.7974 27.7953 42.5315C27.3592 41.4909 27.0847 40.4023 27.1331 39.2496C27.1331 39.0575 27.1008 38.8654 27.0039 38.6893C27.1654 37.2324 27.3431 35.8076 27.9569 34.4308C28.8775 32.3816 30.2989 30.7967 32.2532 29.6761C33.9007 28.7315 35.6612 28.2032 37.5833 28.2993C41.9927 28.3473 45.0938 30.4765 47.0966 34.2547C47.8235 35.6635 48.1304 37.1684 48.0819 38.7213ZM36.7595 43.2039C35.952 43.2839 34.9667 43.0438 34.0299 43.3319C33.4 43.5241 32.9962 44.2125 33.0931 44.9008C33.19 45.6053 33.723 46.1175 34.4175 46.1496C34.8052 46.1656 35.1928 46.1656 35.5805 46.1496C35.9197 46.1336 36.0812 46.2616 36.1781 46.5818C36.3719 47.2702 36.9049 47.6544 37.5833 47.6704C38.2778 47.6865 38.8108 47.2862 39.0208 46.5498C39.1015 46.2776 39.2146 46.1496 39.4892 46.1336C41.8312 46.0215 43.6563 43.9883 43.5917 41.5229C43.5433 39.3136 41.5243 37.2324 39.2954 37.2804C38.1163 37.2965 36.9372 37.4085 35.7581 37.1844C35.0798 37.0563 34.6598 36.576 34.6437 35.9037C34.6114 35.0392 34.9344 34.5429 35.6612 34.3508C36.0004 34.2707 36.3396 34.2227 36.6788 34.2227C38.0194 34.2387 39.3438 34.2387 40.6844 34.2227C41.492 34.2067 42.0089 33.7104 42.1058 32.8619C42.1865 32.2055 41.7343 31.5812 41.0559 31.373C40.5875 31.2129 40.1191 31.293 39.6507 31.293C39.2954 31.293 39.0692 31.293 39.0046 30.8127C38.9239 30.2044 38.2778 29.7881 37.6156 29.7881C36.9857 29.7881 36.3558 30.1723 36.2427 30.7487C36.1619 31.1969 35.9358 31.261 35.5482 31.325C33.2708 31.6292 31.7687 33.3902 31.6233 35.4714C31.4779 37.7127 33.0931 39.8259 35.3382 40.1461C36.5819 40.3222 37.8256 40.1941 39.0692 40.2582C40.006 40.2902 40.5714 40.8505 40.5714 41.731C40.5714 42.5955 39.9737 43.1879 39.0531 43.2039C38.3424 43.2039 37.6317 43.2039 36.7595 43.2039Z" fill="#FECA5A"/>
<path d="M36.7606 43.2038C37.6328 43.2038 38.3435 43.2198 39.0542 43.2038C39.9748 43.1878 40.5725 42.5955 40.5725 41.731C40.5725 40.8505 40.0071 40.2901 39.0703 40.2581C37.8267 40.2101 36.583 40.3222 35.3393 40.1461C33.0781 39.8419 31.4629 37.7127 31.6244 35.4714C31.7698 33.3902 33.2557 31.6291 35.5493 31.325C35.9369 31.2769 36.1469 31.1969 36.2438 30.7486C36.3569 30.1723 36.9868 29.7881 37.6167 29.7881C38.2789 29.7881 38.925 30.2043 39.0057 30.8127C39.0703 31.2769 39.3126 31.2769 39.6518 31.293C40.1202 31.293 40.5886 31.2289 41.057 31.373C41.7192 31.5971 42.1715 32.2215 42.1069 32.8619C42.01 33.7103 41.4931 34.2226 40.6855 34.2226C39.3449 34.2387 38.0205 34.2387 36.6799 34.2226C36.3246 34.2226 36.0015 34.2547 35.6623 34.3507C34.9355 34.5428 34.6125 35.0391 34.6448 35.9036C34.6609 36.576 35.097 37.0403 35.7592 37.1844C36.9383 37.4245 38.1174 37.3124 39.2965 37.2804C41.5416 37.2324 43.5444 39.3136 43.5928 41.5229C43.6574 44.0043 41.8323 46.0375 39.4903 46.1335C39.1996 46.1495 39.1026 46.2616 39.0219 46.5498C38.8119 47.3022 38.2789 47.6864 37.5844 47.6704C36.906 47.6544 36.3892 47.2702 36.1792 46.5818C36.0823 46.2616 35.9208 46.1335 35.5816 46.1495C35.1939 46.1655 34.8063 46.1655 34.4187 46.1495C33.7241 46.1175 33.1911 45.6052 33.0942 44.9008C32.9973 44.2284 33.4011 43.524 34.031 43.3319C34.984 43.0437 35.9531 43.2839 36.7606 43.2038Z" fill="#E68825"/>
</svg>
