<svg width="34" height="29" viewBox="0 0 34 29" fill="none" xmlns="http://www.w3.org/2000/svg">
<path d="M0 10.8214C0.272247 10.5921 0.511825 10.2755 0.827631 10.1445C9.16927 6.79237 17.5218 3.46213 25.8634 0.131876C26.5277 -0.130176 26.7782 -0.0209877 27.0395 0.634143C29.0651 5.74417 31.1015 10.8433 33.127 15.9533C33.4101 16.6521 33.3012 16.9032 32.6043 17.1762C31.4064 17.6566 30.2194 18.1371 29.0215 18.6066C28.8037 18.6939 28.7384 18.7922 28.7384 19.0215C28.7493 21.9477 28.7493 24.8631 28.7493 27.7893C28.7493 28.4772 28.5532 28.6738 27.8563 28.6738C18.8613 28.6738 9.87711 28.6738 0.88208 28.6847C0.479155 28.6847 0.185128 28.5755 0 28.2152C0 22.4282 0 16.6193 0 10.8214ZM27.4316 11.684C18.7088 11.684 10.0187 11.684 1.31768 11.684C1.31768 16.9251 1.31768 22.1334 1.31768 27.3526C10.0296 27.3526 18.7197 27.3526 27.4316 27.3526C27.4316 22.1224 27.4316 16.9141 27.4316 11.684ZM4.00747 10.2755C4.01836 10.2973 4.01836 10.3192 4.02925 10.341C5.24892 10.341 6.47947 10.341 7.69914 10.341C7.78626 10.341 7.87338 10.2864 7.94961 10.2427C8.12384 10.1335 8.2763 9.9916 8.46143 9.91517C10.5196 9.08533 12.5778 8.26642 14.636 7.43659C16.9991 6.49757 19.3622 5.55854 21.7253 4.61952C22.1282 4.45574 22.3351 4.53217 22.6183 4.85974C23.4786 5.85335 24.5567 6.32286 25.8634 6.25735C26.3099 6.23551 26.4951 6.33378 26.6693 6.75962C27.1158 7.8515 27.5514 8.95431 27.9979 10.0462C28.0414 10.1554 28.1068 10.3082 28.183 10.3192C28.6948 10.4284 28.771 10.7778 28.771 11.2254C28.7601 13.1144 28.771 15.0033 28.771 16.8923C28.771 17.0124 28.771 17.1216 28.771 17.2963C29.8165 16.8814 30.7966 16.4883 31.8093 16.0843C29.8709 11.2036 27.9434 6.3447 26.005 1.47489C18.6435 4.4339 11.3255 7.34924 4.00747 10.2755ZM11.075 10.2755C11.075 10.2864 11.0859 10.3082 11.0859 10.3192C16.2695 10.3192 21.453 10.3192 26.6693 10.3192C26.3426 9.48933 26.0159 8.70317 25.7219 7.9061C25.6348 7.6768 25.5259 7.57853 25.2645 7.55669C24.0231 7.49118 22.9558 7.01075 22.0629 6.15908C21.8886 5.9953 21.758 5.9953 21.5511 6.07173C18.687 7.21821 15.823 8.36469 12.9589 9.51117C12.3273 9.77322 11.7066 10.0244 11.075 10.2755Z" fill="white"/>
<path d="M14.3761 12.9727C17.0115 12.9727 19.6359 12.9727 22.2713 12.9727C22.7613 12.9727 22.9138 13.0928 23.0771 13.5623C23.5018 14.7743 24.3294 15.5932 25.5382 16.0299C26.0065 16.1937 26.1263 16.3466 26.1263 16.8379C26.1372 18.6286 26.1372 20.4193 26.1263 22.21C26.1263 22.6686 25.9956 22.8324 25.5709 22.9852C24.3186 23.422 23.48 24.2627 23.0553 25.5184C22.9029 25.9661 22.7613 26.0644 22.2277 26.0644C16.9788 26.0644 11.719 26.0644 6.47006 26.0644C6.00179 26.0644 5.83845 25.9333 5.68599 25.4857C5.25039 24.2518 4.42276 23.4111 3.18132 22.9852C2.82195 22.8651 2.62593 22.6358 2.62593 22.2428C2.62593 20.4302 2.61504 18.6177 2.62593 16.8052C2.62593 16.3247 2.75661 16.1937 3.21399 16.0299C4.42276 15.5932 5.2395 14.7743 5.6751 13.5623C5.83845 13.0928 5.9909 12.9727 6.48095 12.9727C9.1163 12.9727 11.7408 12.9727 14.3761 12.9727ZM14.4088 24.765C16.8263 24.765 19.2439 24.765 21.6505 24.765C21.8574 24.765 21.9663 24.7213 22.0644 24.5139C22.598 23.3565 23.4474 22.5048 24.6126 21.9698C24.7868 21.8934 24.8413 21.7951 24.8413 21.6095C24.8304 20.2228 24.8304 18.8252 24.8413 17.4385C24.8413 17.2419 24.7868 17.1437 24.6017 17.0454C23.4474 16.5104 22.598 15.6587 22.0644 14.5013C21.9881 14.3266 21.901 14.272 21.705 14.272C16.8154 14.272 11.9368 14.272 7.04722 14.272C6.87298 14.272 6.78586 14.3157 6.70964 14.4904C6.17603 15.6696 5.31573 16.5213 4.15052 17.0672C3.97628 17.1437 3.91094 17.2419 3.91094 17.4275C3.92183 18.8142 3.92183 20.2119 3.91094 21.5985C3.91094 21.806 3.97628 21.9043 4.16141 21.9916C5.29395 22.5157 6.14336 23.3456 6.66608 24.4811C6.77498 24.7213 6.91654 24.7759 7.15612 24.7759C9.57367 24.7541 11.9912 24.765 14.4088 24.765Z" fill="white"/>
<path d="M18.2947 19.5238C18.2838 21.6966 16.5197 23.4655 14.3635 23.4546C12.1964 23.4327 10.454 21.6639 10.4649 19.491C10.4758 17.3291 12.2508 15.5712 14.4179 15.5821C16.5523 15.593 18.2947 17.3619 18.2947 19.5238ZM16.977 19.5238C16.977 18.0825 15.8336 16.9033 14.3961 16.8923C12.9587 16.8814 11.7608 18.0497 11.7608 19.502C11.7608 20.9542 12.926 22.1334 14.3744 22.1334C15.8227 22.1334 16.977 20.9651 16.977 19.5238Z" fill="white"/>
<path d="M7.17623 20.4947C6.64263 20.4947 6.20703 20.047 6.20703 19.512C6.20703 18.977 6.65352 18.5293 7.17623 18.5293C7.70983 18.5293 8.1781 18.9988 8.16721 19.5338C8.15632 20.0689 7.72072 20.4947 7.17623 20.4947ZM7.19801 19.9706C7.35047 19.7631 7.48115 19.6539 7.50293 19.5229C7.53559 19.3264 7.39403 19.1953 7.18712 19.1953C6.9911 19.1953 6.84953 19.3264 6.8822 19.5338C6.91487 19.6539 7.04555 19.7631 7.19801 19.9706Z" fill="white"/>
<path d="M20.594 19.5011C20.6048 18.9661 21.0404 18.5293 21.574 18.5293C22.0968 18.5293 22.5541 18.9879 22.5541 19.512C22.5541 20.0579 22.0968 20.5056 21.5523 20.4947C21.0078 20.4838 20.5831 20.0361 20.594 19.5011ZM21.9334 19.5775C21.9334 19.5338 21.9334 19.4792 21.9334 19.4356C21.8027 19.3591 21.6721 19.2063 21.5414 19.2063C21.4325 19.2172 21.28 19.3919 21.2582 19.512C21.2147 19.7085 21.378 19.8505 21.574 19.8068C21.7156 19.7959 21.8245 19.6649 21.9334 19.5775Z" fill="white"/>
</svg>
