<svg width="36" height="36" viewBox="0 0 36 36" fill="none" xmlns="http://www.w3.org/2000/svg">
<path d="M35.3799 23.3382C35.2037 24.2159 34.9653 25.025 34.5195 25.7382C33.1304 27.9187 30.5181 27.9187 29.1601 25.7107C27.3771 22.8307 28.5693 18.6753 31.3371 18.0581C33.1201 17.6604 34.9342 19.3473 35.3177 21.761C35.3385 21.857 35.3592 21.953 35.3903 22.0627C35.3799 22.4741 35.3799 22.8993 35.3799 23.3382Z" fill="white"/>
<path d="M17.6951 18.0156C19.6439 18.0156 21.2196 20.1139 21.2196 22.6922C21.2196 25.2705 19.6336 27.3551 17.6847 27.3551C15.7358 27.3551 14.1602 25.2568 14.1602 22.6785C14.1602 20.1002 15.7462 18.0156 17.6951 18.0156Z" fill="white"/>
<path d="M7.06988 22.6648C7.08025 25.2431 5.49421 27.3414 3.55571 27.3551C1.6172 27.3688 0.0104165 25.2705 5.02022e-05 22.7059C-0.0103161 20.1414 1.5861 18.0156 3.5246 18.0156C5.47347 18.0156 7.05951 20.0865 7.06988 22.6648Z" fill="white"/>
</svg>
