<svg width="32" height="32" viewBox="0 0 32 32" fill="none" xmlns="http://www.w3.org/2000/svg">
<g opacity="0.3">
<path d="M24.934 29.5206C24.2219 29.0664 23.5167 28.6053 22.8046 28.151C19.9429 26.3407 17.0812 24.5304 14.2195 22.7201C14.1652 22.6862 14.111 22.6455 14.0703 22.6184C17.7051 18.9842 21.3331 15.3636 24.9747 11.7227C24.9747 11.8176 24.9747 11.9125 24.9747 12.0074C24.9747 17.7502 24.9747 23.4998 24.9747 29.2426C24.9747 29.3376 24.9814 29.4257 24.9882 29.5206C24.9679 29.5206 24.9543 29.5206 24.934 29.5206Z" fill="white"/>
<path d="M24.9776 3.70741C24.9776 4.62273 24.9776 5.48381 24.9776 6.4127C25.0861 6.31099 25.1471 6.25675 25.2081 6.18895C26.0083 5.38889 26.8085 4.58205 27.6155 3.78199C28.1444 3.25992 28.9582 3.4362 29.1752 4.121C29.2701 4.42611 29.2227 4.71087 29.0328 4.96174C28.9717 5.0431 28.8972 5.1109 28.8226 5.18548C21.3157 12.6979 13.802 20.2036 6.29505 27.716C6.01702 27.994 5.71864 28.1635 5.31854 28.0754C4.66754 27.9398 4.38951 27.1668 4.78282 26.6312C4.84385 26.5498 4.91845 26.4752 4.98626 26.4074C6.41034 24.9836 7.84119 23.553 9.26527 22.1292C9.33308 22.0613 9.41445 22.0139 9.48227 21.9596C9.46871 21.9325 9.46192 21.9054 9.44836 21.8783C9.3602 21.8783 9.27883 21.8783 9.19067 21.8783C7.8005 21.8783 6.41034 21.8783 5.02017 21.8783C4.20641 21.8783 3.76562 21.4376 3.76562 20.6172C3.76562 17.939 3.76562 15.2608 3.76562 12.5827C3.76562 11.7758 4.19963 11.3419 5.0066 11.3419C7.48178 11.3419 9.95696 11.3419 12.4321 11.3419C12.7305 11.3419 12.9882 11.2741 13.2459 11.1114C17.0638 8.69084 20.8884 6.27709 24.7131 3.86335C24.7809 3.82267 24.8555 3.78199 24.9776 3.70741Z" fill="white"/>
</g>
</svg>
