<svg width="32" height="32" viewBox="0 0 32 32" fill="none" xmlns="http://www.w3.org/2000/svg">
<g opacity="0.3">
<path d="M30.6363 9.28233C30.6438 9.37883 30.6512 9.46048 30.6512 9.54214C30.6512 15.1094 30.6512 20.6766 30.6512 26.2439C30.6512 27.5726 30.0128 28.5302 28.8622 29.1314C27.7191 29.7327 26.5537 29.7772 25.4254 29.0646C25.1878 28.9162 24.9726 28.7083 24.7722 28.5079C19.6132 23.3563 14.4542 18.1974 9.30262 13.0384C9.22839 12.9641 9.18385 12.8751 9.12447 12.786C9.09478 12.8008 9.06509 12.8231 9.02797 12.8379C9.02797 15.7997 9.02797 18.7541 9.02797 21.7307C6.78622 21.7307 4.58159 21.7307 2.35469 21.7307C2.34727 21.6416 2.33984 21.5674 2.33984 21.4857C2.33984 15.9111 2.33984 10.329 2.33984 4.73945C2.33984 3.3365 3.05245 2.36409 4.28467 1.77767C5.50204 1.2061 6.70457 1.26549 7.78833 2.11913C8.12979 2.38636 8.41928 2.71297 8.73105 3.02474C13.7267 8.02042 18.7224 13.0161 23.7107 18.0044C23.7775 18.0712 23.8443 18.1306 23.9556 18.2345C23.9556 15.2207 23.9556 12.259 23.9556 9.28233C26.1974 9.28233 28.402 9.28233 30.6363 9.28233Z" fill="white"/>
<path d="M23.961 6.60282C24.0278 5.55617 23.82 4.52438 24.1837 3.52227C24.7182 2.05994 26.277 1.13206 27.7839 1.37702C29.4169 1.64425 30.5972 2.94328 30.6417 4.55407C30.6566 5.22956 30.6417 5.90505 30.6417 6.59539C28.4148 6.60282 26.2176 6.60282 23.961 6.60282Z" fill="white"/>
<path d="M9.03556 24.4033C8.96133 25.4277 9.1766 26.4446 8.82772 27.4245C8.28584 28.9388 6.74928 29.8741 5.21272 29.6217C3.54997 29.347 2.37713 28.0183 2.35486 26.363C2.34744 25.7172 2.35486 25.0714 2.35486 24.4033C4.56692 24.4033 6.77155 24.4033 9.03556 24.4033Z" fill="white"/>
</g>
</svg>
