<svg width="9" height="7" viewBox="0 0 9 7" fill="none" xmlns="http://www.w3.org/2000/svg">
<path d="M3.87119 6.36961C3.72044 6.21657 3.56751 6.06354 3.41893 5.90866C3.09994 5.57678 2.78095 5.24489 2.46196 4.913C2.09272 4.52949 1.72566 4.14597 1.35642 3.76246C0.984992 3.3771 0.613568 2.99359 0.242142 2.60823C0.159116 2.52157 0.0739133 2.43861 0.00397379 2.34639C0.00395128 2.32794 0.00392876 2.30948 0.00390625 2.29102C0.374862 2.29056 0.74582 2.29196 1.11896 2.2915C1.13212 2.34687 1.15836 2.39483 1.20206 2.43908C1.35281 2.59211 1.50138 2.74699 1.64995 2.90187C1.875 3.13788 2.10222 3.37205 2.32726 3.60806C2.55449 3.84591 2.78172 4.08192 3.00894 4.31977C3.08105 4.39537 3.15532 4.46727 3.22961 4.54102C3.23615 4.53732 3.24269 4.53547 3.24923 4.53177C3.18135 4.33249 3.11346 4.13136 3.04775 3.93207C3.09558 3.78433 3.20891 3.67344 3.35064 3.58281C3.40514 3.54767 3.41166 3.52551 3.3527 3.49051C3.17801 3.38366 3.06655 3.2435 3.01396 3.06635C3.00958 3.04974 3.00736 3.0239 2.979 3.02578C2.95282 3.02766 2.95503 3.05165 2.9485 3.07012C2.91805 3.15138 2.8876 3.23264 2.82222 3.29918C2.82002 3.28626 2.81782 3.27149 2.81344 3.25857C2.70176 2.93566 2.5879 2.61091 2.47622 2.288C3.62618 2.2866 4.77833 2.28519 5.92829 2.28379C5.92177 2.30595 5.91961 2.3281 5.91091 2.35027C5.80437 2.66052 5.69564 2.97078 5.5891 3.28288C5.43472 3.73349 5.28252 4.18224 5.13032 4.63285C5.01074 4.98558 4.89115 5.3383 4.7672 5.69104C4.73023 5.79446 4.70636 5.9034 4.64758 6.00869C4.534 5.92207 4.45532 5.81879 4.36356 5.7266C4.02491 5.37813 3.69062 5.02595 3.35415 4.67378C3.34322 4.66087 3.3301 4.64058 3.31047 4.64799C3.27994 4.6591 3.30615 4.67938 3.30835 4.69599C3.31055 4.70706 3.31056 4.71814 3.31494 4.72921C3.46823 5.1739 3.6237 5.61859 3.77699 6.06329C3.81202 6.16477 3.8667 6.26254 3.87119 6.36961Z" fill="#CA97E6"/>
<path d="M1.11692 2.2922C0.745969 2.29265 0.375011 2.29126 0.00187308 2.29171C0.00184381 2.26771 0.00181679 2.24556 0.00178753 2.22156C0.459426 1.72813 0.925802 1.24207 1.39436 0.754159C1.43151 0.803955 1.46867 0.853751 1.50583 0.905393C1.62605 1.07508 1.74846 1.2466 1.86868 1.41629C1.86868 1.41998 1.86869 1.42552 1.8687 1.42921C1.67256 1.63435 1.47423 1.83765 1.28246 2.04648C1.21709 2.11855 1.11242 2.17591 1.13001 2.28664C1.12565 2.2885 1.12129 2.29035 1.11692 2.2922Z" fill="#814AA0"/>
<path d="M3.87128 6.36994C3.86679 6.26288 3.81212 6.16511 3.77708 6.06362C3.62597 5.61892 3.4705 5.17423 3.31503 4.72954C3.31065 4.71847 3.31064 4.70739 3.30844 4.69632C3.30624 4.67971 3.28003 4.66128 3.31057 4.64832C3.3302 4.64091 3.34331 4.6612 3.35424 4.67411C3.69071 5.02444 4.02282 5.37846 4.36365 5.72694C4.45541 5.81912 4.53409 5.9224 4.64767 6.00902C4.70646 5.90373 4.73033 5.79479 4.7673 5.69137C4.89125 5.33864 5.00865 4.98591 5.13042 4.63318C5.28261 4.18258 5.43481 3.73382 5.58919 3.28321C5.69574 2.97296 5.80446 2.6627 5.911 2.3506C5.91752 2.32844 5.92186 2.30628 5.92838 2.28412C5.92838 2.28043 5.92837 2.27489 5.92836 2.2712C5.93273 2.27119 5.93928 2.27119 5.94364 2.27118C5.9633 2.28962 5.98948 2.28405 6.0113 2.28402C6.80122 2.28306 7.58895 2.2821 8.37887 2.28113C8.38987 2.35127 8.33755 2.39748 8.29179 2.44553C7.79708 2.96301 7.30019 3.47864 6.80549 3.99612C6.70283 3.91133 6.66123 3.79878 6.624 3.68622C6.61743 3.66777 6.62176 3.64007 6.58685 3.64011C6.55412 3.642 6.55633 3.66784 6.54981 3.68631C6.4846 3.89868 6.34952 4.07052 6.1402 4.19999C6.07479 4.24068 6.07698 4.2536 6.14032 4.29598C6.21894 4.34942 6.30409 4.39546 6.34783 4.47663C5.94248 4.89986 5.53713 5.32308 5.12959 5.74446C5.00754 5.87014 4.88332 5.99581 4.76127 6.12149C4.71107 6.10494 4.70445 6.04403 4.64552 6.03302C4.62377 6.09766 4.59985 6.16045 4.58029 6.22509C4.56942 6.26202 4.5411 6.29897 4.55861 6.34141C4.50413 6.3987 4.45401 6.45783 4.39734 6.51328C4.27311 6.63527 4.12691 6.63545 4.00238 6.51192C3.95432 6.46767 3.91498 6.41788 3.87128 6.36994Z" fill="#BC80E0"/>
<path d="M5.93059 2.26889C5.93059 2.27258 5.9306 2.27812 5.93061 2.28181C4.78064 2.28321 3.6285 2.28462 2.47853 2.28602C2.80312 1.83705 3.12989 1.38993 3.45229 0.94096C3.51764 0.850428 3.5961 0.769109 3.63744 0.66753C4.01494 0.667069 4.39244 0.666609 4.76994 0.666148C4.76779 0.691995 4.78745 0.708585 4.80275 0.727026C4.95356 0.931745 5.1022 1.13831 5.25301 1.34303C5.47814 1.65288 5.70328 1.96089 5.93059 2.26889Z" fill="#D8B0ED"/>
<path d="M8.37848 2.27973C7.58856 2.28069 6.80083 2.28165 6.01091 2.28261C5.9869 2.28264 5.96073 2.28821 5.94325 2.26977C6.11968 2.01297 6.29394 1.75616 6.47256 1.5012C6.64464 1.25363 6.81673 1.00606 6.99099 0.758486C7.15046 0.904123 7.28813 1.06456 7.4367 1.21759C7.72729 1.51998 8.01569 1.82237 8.3041 2.1266C8.3478 2.17085 8.38931 2.21695 8.37848 2.27973Z" fill="#9857BD"/>
<path d="M6.99148 0.759292C6.81939 1.00686 6.64513 1.25444 6.47304 1.50201C6.29661 1.75881 6.12017 2.01562 5.94373 2.27058C5.93937 2.27059 5.93282 2.27059 5.92846 2.2706C5.70114 1.9626 5.47601 1.65459 5.2487 1.34659C5.09788 1.14187 4.94925 0.935305 4.79844 0.730585C4.78532 0.710295 4.76566 0.693705 4.76563 0.669708C5.08858 0.667468 5.41153 0.667074 5.73447 0.664834C5.7585 0.683265 5.74981 0.716503 5.78038 0.734925C5.81091 0.718274 5.80214 0.685057 5.82394 0.664725C6.13816 0.664342 6.45456 0.663956 6.76879 0.665419C6.86262 0.665304 6.94338 0.687357 6.99148 0.759292Z" fill="#AF66D9"/>
<path d="M3.6325 0.669722C3.59335 0.771299 3.51271 0.854466 3.44736 0.943153C3.12495 1.39212 2.79818 1.83924 2.4736 2.28821C2.46705 2.28822 2.46269 2.28638 2.45614 2.28639C2.44739 2.26794 2.44082 2.24764 2.42989 2.2292C2.24408 1.96175 2.0561 1.69616 1.86811 1.43057C1.86811 1.42688 1.8681 1.42134 1.8681 1.41765C2.02505 1.28639 2.14269 1.1275 2.2909 0.988867C2.40424 0.881662 2.48045 0.746812 2.6331 0.670941C2.96696 0.670534 3.30082 0.670127 3.6325 0.669722Z" fill="#BC80E0"/>
<path d="M6.34953 4.47662C6.30579 4.39545 6.22063 4.34941 6.14201 4.29597C6.07868 4.25359 6.07866 4.24067 6.14189 4.19998C6.35122 4.07051 6.48629 3.89682 6.5515 3.6863C6.55802 3.66599 6.55581 3.64014 6.58854 3.6401C6.62345 3.63822 6.61912 3.66776 6.62569 3.68621C6.66511 3.79876 6.70452 3.91132 6.80718 3.99611C6.8553 4.08651 6.94701 4.13993 7.03437 4.19705C7.10207 4.24127 7.10427 4.25603 7.03449 4.29857C6.82734 4.42435 6.69444 4.5925 6.62923 4.79933C6.62271 4.81964 6.6293 4.8584 6.58566 4.85476C6.55074 4.85296 6.55725 4.82157 6.54849 4.79943C6.50689 4.68318 6.46311 4.56509 6.34953 4.47662Z" fill="#FDE87E"/>
<path d="M2.63787 0.671233C2.48522 0.74895 2.40901 0.8838 2.29567 0.989159C2.14964 1.12779 2.032 1.28668 1.87286 1.41794C1.75264 1.24641 1.63023 1.07489 1.51001 0.905202C1.47285 0.85356 1.4357 0.803764 1.39854 0.753967C1.44211 0.696689 1.50754 0.670765 1.58392 0.670672C1.93523 0.670244 2.28655 0.669815 2.63787 0.671233Z" fill="#9858BD"/>
<path d="M5.82802 0.663376C5.80622 0.681862 5.81499 0.715079 5.78446 0.733576C5.75389 0.715154 5.76258 0.681916 5.73855 0.663485C5.70787 0.556456 5.62921 0.473483 5.52876 0.40715C5.48071 0.375827 5.47196 0.355532 5.52429 0.324086C5.63986 0.253798 5.70957 0.159568 5.75089 0.0450669C5.75741 0.0284452 5.75738 0.0026015 5.78357 0.00256956C5.81194 0.00253497 5.80978 0.0265353 5.81417 0.0449898C5.8514 0.153857 5.92134 0.244225 6.02834 0.314242C6.09604 0.358462 6.09387 0.365849 6.0241 0.415776C5.92817 0.482348 5.85626 0.561813 5.82802 0.663376Z" fill="#FDE87F"/>
<path d="M4.56061 6.34147C4.5431 6.29904 4.57142 6.26393 4.58229 6.22515C4.60185 6.16052 4.62577 6.09773 4.64752 6.03309C4.70863 6.04409 4.71306 6.10316 4.76327 6.12156C4.70882 6.20284 4.63253 6.26939 4.56061 6.34147Z" fill="#B069DA"/>
<path d="M2.45918 2.28624C2.46573 2.28623 2.47009 2.28807 2.47664 2.28806C2.58832 2.61097 2.70218 2.93572 2.81386 3.25863C2.81824 3.27155 2.82044 3.28632 2.82264 3.29923C2.76819 3.38052 2.68753 3.44154 2.60031 3.49703C2.56106 3.52292 2.55236 3.54508 2.59604 3.57087C2.77947 3.68325 2.89748 3.83263 2.95226 4.01716C2.95664 4.03192 2.96102 4.04484 2.98066 4.04297C3.0003 4.0411 3.00464 4.02633 3.00899 4.0134C3.01987 3.9857 3.01983 3.95432 3.04599 3.93029C3.11387 4.12957 3.18176 4.3307 3.24747 4.52998C3.24093 4.53368 3.23438 4.53554 3.22784 4.53924C3.15356 4.46549 3.07928 4.39174 3.00718 4.31799C2.77995 4.08198 2.55273 3.84413 2.3255 3.60627C2.10046 3.37026 1.87541 3.1361 1.64819 2.90009C1.49962 2.74521 1.35105 2.59033 1.20029 2.43729C1.1566 2.39304 1.13035 2.34508 1.11719 2.28972C1.12156 2.28787 1.12592 2.28602 1.13028 2.28416C1.57543 2.28547 2.0184 2.28677 2.45918 2.28624Z" fill="#E4C9F2"/>
<path d="M3.04613 3.93334C3.02215 3.95736 3.02001 3.98875 3.00913 4.01645C3.00478 4.02938 3.00044 4.04415 2.9808 4.04602C2.95898 4.04789 2.95678 4.03313 2.9524 4.02021C2.89762 3.83568 2.77961 3.6863 2.59618 3.57392C2.5525 3.54813 2.5612 3.52412 2.60045 3.50007C2.68767 3.44459 2.76833 3.38357 2.82278 3.30228C2.88816 3.23575 2.91643 3.15449 2.94906 3.07323C2.95559 3.05661 2.95338 3.03076 2.97956 3.02889C3.00792 3.02701 3.01014 3.05285 3.01452 3.06946C3.06711 3.24661 3.17857 3.38861 3.35327 3.49362C3.41004 3.52862 3.40352 3.55078 3.3512 3.58592C3.20947 3.6747 3.09613 3.78375 3.04613 3.93334Z" fill="#FCE77E"/>
<path d="M2.45992 2.28656C2.01913 2.28709 1.57617 2.28763 1.13539 2.28633C1.11998 2.17559 1.22246 2.11824 1.28784 2.04616C1.47961 1.83733 1.67793 1.63403 1.87407 1.43074C2.06206 1.69633 2.24786 1.96377 2.43584 2.22936C2.44678 2.24596 2.45116 2.26626 2.45992 2.28656Z" fill="#9857BC"/>
</svg>
