<svg width="22" height="20" viewBox="0 0 22 20" fill="none" xmlns="http://www.w3.org/2000/svg">
<path d="M1.41 15V4.5H5.73C6.66 4.5 7.455 4.65 8.115 4.95C8.785 5.25 9.3 5.68 9.66 6.24C10.02 6.8 10.2 7.465 10.2 8.235C10.2 9.005 10.02 9.67 9.66 10.23C9.3 10.79 8.785 11.22 8.115 11.52C7.455 11.82 6.66 11.97 5.73 11.97H2.49L3.36 11.055V15H1.41ZM3.36 11.265L2.49 10.32H5.64C6.5 10.32 7.145 10.14 7.575 9.78C8.015 9.41 8.235 8.895 8.235 8.235C8.235 7.565 8.015 7.05 7.575 6.69C7.145 6.33 6.5 6.15 5.64 6.15H2.49L3.36 5.19V11.265ZM13.8873 12.525L13.7823 10.215L19.2873 4.5H21.4773L16.9023 9.36L15.8223 10.545L13.8873 12.525ZM12.1473 15V4.5H14.0973V15H12.1473ZM19.4673 15L15.4473 10.215L16.7373 8.79L21.7473 15H19.4673Z" fill="white"/>
</svg>
