<svg width="19" height="19" viewBox="0 0 19 19" fill="none" xmlns="http://www.w3.org/2000/svg">
<path d="M8.76364 0C9.14501 0 9.53274 0 9.9141 0C10.2256 0.0381416 10.537 0.069924 10.8485 0.120779C13.0922 0.508553 14.9799 1.55109 16.4418 3.29925C18.2406 5.44153 18.9271 7.9271 18.533 10.6924C18.2025 12.9872 17.1219 14.9007 15.3549 16.4073C13.7977 17.7422 11.9798 18.4796 9.93318 18.6131C8.71915 18.6957 7.53056 18.5432 6.37374 18.1554C6.27204 18.1236 6.15763 18.1109 6.04957 18.13C5.58558 18.1999 5.12793 18.2889 4.66393 18.3715C3.52619 18.5686 2.3948 18.772 1.25706 18.9691C0.939251 19.0263 0.659575 18.8292 0.646862 18.5305C0.640506 18.416 0.672293 18.2825 0.716786 18.1745C1.11722 17.2337 1.51765 16.2928 1.9308 15.352C2.01343 15.1676 1.99437 15.0469 1.8736 14.8943C0.818481 13.4958 0.208289 11.9193 0.0430301 10.1775C-0.109517 8.51194 0.138372 6.90999 0.869327 5.4034C2.26768 2.5237 4.54952 0.769188 7.69581 0.146209C8.05175 0.0826394 8.40769 0.0508555 8.76364 0ZM9.29756 11.0102C10.3082 11.0102 11.3188 11.0102 12.3358 11.0102C12.3993 11.0102 12.4566 11.0102 12.5201 11.0039C12.7617 10.9848 12.9523 10.7941 12.9841 10.5462C13.0095 10.3237 12.857 10.0885 12.6345 10.0185C12.5519 9.9931 12.4629 9.9931 12.3803 9.9931C10.3463 9.9931 8.306 9.9931 6.27204 9.9931C6.21483 9.9931 6.15762 9.9931 6.10677 9.99946C5.8271 10.0376 5.63007 10.3109 5.68091 10.5907C5.73176 10.8576 5.9288 11.0039 6.2339 11.0039C7.25088 11.0102 8.27423 11.0102 9.29756 11.0102ZM7.54326 7.45033C7.11105 7.45033 6.67884 7.45033 6.24662 7.45033C5.89703 7.45033 5.66184 7.65375 5.66184 7.95888C5.66184 8.25766 5.89067 8.46744 6.24026 8.46744C7.10469 8.47379 7.96913 8.46744 8.83356 8.46744C8.9289 8.46744 9.0306 8.45472 9.11959 8.41658C9.3357 8.32758 9.45011 8.09238 9.40561 7.86989C9.35476 7.62197 9.15772 7.45668 8.89076 7.45033C8.44583 7.45033 7.99455 7.45033 7.54326 7.45033Z" fill="white"/>
</svg>
