<svg width="19" height="17" viewBox="0 0 19 17" fill="none" xmlns="http://www.w3.org/2000/svg">
<path d="M0 6.00494C0 5.71083 0 5.41672 0 5.12262C0.00980236 5.0687 0.0294071 5.01478 0.0343082 4.96086C0.161739 3.7158 0.617549 2.61289 1.45565 1.68155C2.55351 0.465906 3.92584 -0.132114 5.56774 0.024744C7.17042 0.181602 8.38102 1.01001 9.27303 2.33349C9.31714 2.39721 9.35635 2.46094 9.39066 2.50996C9.66022 2.17663 9.90038 1.84331 10.1797 1.5443C11.9001 -0.279168 14.6153 -0.514454 16.6199 0.980595C18.4774 2.3678 19.4136 5.0932 18.4088 7.60293C17.9187 8.82347 17.1835 9.88716 16.3111 10.8577C14.4046 12.99 12.15 14.686 9.72884 16.1762C9.50829 16.3134 9.28773 16.3085 9.07208 16.1664C8.04774 15.4703 7.00378 14.8086 6.01375 14.0733C4.44537 12.9116 3.00442 11.5979 1.80853 10.044C1.12237 9.1568 0.553833 8.20095 0.235257 7.11765C0.132332 6.75001 0.0784189 6.37748 0 6.00494Z" fill="url(#paint0_linear_2553_381)"/>
<defs>
<linearGradient id="paint0_linear_2553_381" x1="9.40935" y1="0" x2="9.40935" y2="16.2761" gradientUnits="userSpaceOnUse">
<stop stop-color="#E92F24"/>
<stop offset="0.520833" stop-color="#ED3F34"/>
<stop offset="1" stop-color="#F85950"/>
</linearGradient>
</defs>
</svg>
