<svg width="32" height="32" viewBox="0 0 32 32" fill="none" xmlns="http://www.w3.org/2000/svg">
<g opacity="0.3">
<path d="M29.7905 4.64947C29.7905 4.82782 29.7905 5.01667 29.7905 5.19502C29.7485 5.50975 29.7171 5.82449 29.6646 6.12873C29.3918 7.66045 28.8566 9.10823 28.1851 10.4931C26.7476 13.4621 24.8483 16.1268 22.6133 18.5503C22.3825 18.8021 22.3195 19.0434 22.4035 19.3686C22.5294 19.8197 22.6238 20.2813 22.7393 20.7429C22.9281 21.4983 22.7497 22.1488 22.1831 22.7048C20.1475 24.7296 18.1224 26.7649 16.0867 28.7897C15.8559 29.0205 15.6145 29.2303 15.3732 29.4506C15.2788 29.4506 15.1948 29.4506 15.1004 29.4506C14.8696 29.3037 14.8276 29.0624 14.7856 28.8107C14.5443 27.2999 14.3029 25.7787 14.0721 24.268C13.9777 23.6595 14.1246 23.1139 14.4918 22.6209C14.7436 22.2851 14.7436 22.1907 14.4603 21.9075C12.7815 20.2184 11.0921 18.5398 9.40274 16.8507C9.10894 16.557 9.02499 16.557 8.68922 16.8087C8.24852 17.134 7.75535 17.3228 7.20972 17.2494C5.6043 17.0186 3.99888 16.7563 2.39346 16.5045C2.1941 16.473 1.96325 16.4311 1.8898 16.2003C1.81635 15.959 1.97375 15.8121 2.11016 15.6547C2.13114 15.6232 2.16262 15.6023 2.1836 15.5813C4.34515 13.4201 6.5067 11.2589 8.66824 9.10822C9.18239 8.59415 9.80147 8.4263 10.515 8.59416C10.9662 8.69907 11.4279 8.783 11.8686 8.91939C12.3618 9.07675 12.75 8.97184 13.1277 8.61514C14.4708 7.36669 15.9188 6.23364 17.4508 5.21599C19.5389 3.82067 21.711 2.60369 24.1453 1.92176C25.1421 1.6385 26.1599 1.46015 27.2092 1.59654C28.4474 1.7539 29.3288 2.51976 29.6226 3.74723C29.6961 4.04098 29.738 4.34522 29.7905 4.64947ZM25.8137 8.51023C25.8032 6.89458 24.5126 5.62515 22.9176 5.62515C21.3122 5.62515 20.0216 6.91556 20.0216 8.52072C20.0216 10.1364 21.3332 11.4268 22.9386 11.4163C24.5545 11.4058 25.8347 10.1154 25.8137 8.51023Z" fill="white"/>
<path d="M4.64139 26.4505C4.69385 26.2407 4.74632 25.884 4.86174 25.5378C5.64871 23.2297 6.6875 21.0685 8.34539 19.2536C8.63919 18.9283 8.77561 18.9178 9.09039 19.2326C10.1397 20.2712 11.189 21.3203 12.2278 22.3694C12.5426 22.6842 12.5111 22.8101 12.1963 23.1353C11.1575 24.1949 9.91933 24.9083 8.53426 25.4224C7.36955 25.8525 6.24681 26.3876 5.11357 26.8806C4.72533 27.0485 4.6309 26.996 4.64139 26.4505Z" fill="white"/>
</g>
</svg>
