<svg width="34" height="34" viewBox="0 0 34 34" fill="none" xmlns="http://www.w3.org/2000/svg">
<circle cx="16.5896" cy="16.5896" r="16.5896" fill="url(#paint0_linear_2811_476)"/>
<path d="M17.834 17.8469C17.834 18.5305 17.8418 19.1985 17.834 19.8743C17.8261 20.4336 17.474 20.8764 16.9576 21.0395C16.4646 21.1949 15.9013 21.0473 15.6196 20.6201C15.4709 20.4025 15.3536 20.1151 15.3457 19.851C15.3144 18.8256 15.3223 17.8003 15.3379 16.7749C15.3457 16.0835 15.7839 15.5864 16.4803 15.532C17.3019 15.4621 18.0374 15.229 18.5538 14.5455C19.1641 13.7376 19.2815 12.852 18.8277 11.9509C18.3582 10.9955 17.5523 10.5139 16.4803 10.5605C15.1188 10.6226 14.1955 11.5859 14.086 12.9996C14.0312 13.7687 13.5226 14.2736 12.8184 14.258C12.0985 14.2503 11.5743 13.691 11.5821 12.9375C11.6056 10.7547 13.147 8.79713 15.2675 8.23007C18.6086 7.33675 21.8401 9.97787 21.5819 13.388C21.4333 15.3689 20.0718 17.1011 18.1704 17.7303C18.0687 17.7614 17.9591 17.8003 17.834 17.8469Z" fill="white"/>
<path d="M16.5964 25.126C15.7436 25.1337 15.0393 24.4501 15.0237 23.6112C15.008 22.7567 15.7044 22.0498 16.573 22.0421C17.4258 22.0343 18.1301 22.7179 18.1457 23.5568C18.1614 24.4113 17.465 25.1182 16.5964 25.126Z" fill="white"/>
<defs>
<linearGradient id="paint0_linear_2811_476" x1="16.5896" y1="0" x2="16.5896" y2="33.1792" gradientUnits="userSpaceOnUse">
<stop stop-color="#EA3227"/>
<stop offset="0.703125" stop-color="#ED3B30"/>
<stop offset="1" stop-color="#F55147"/>
</linearGradient>
</defs>
</svg>
