<svg width="34" height="34" viewBox="0 0 34 34" fill="none" xmlns="http://www.w3.org/2000/svg">
<circle cx="16.5896" cy="16.5896" r="16.5896" fill="url(#paint0_linear_2811_480)"/>
<path d="M11.9158 20.7154C11.379 20.7154 10.8595 20.724 10.3443 20.7111C9.75986 20.6982 9.30964 20.4317 9.0066 19.9332C8.86806 19.7097 8.7988 19.4604 8.7988 19.1982C8.7988 16.4261 8.79447 13.654 8.7988 10.8819C8.80313 10.0396 9.49579 9.3734 10.3573 9.3691C11.6863 9.3648 13.0197 9.3691 14.3487 9.3691C17.1367 9.3691 19.9203 9.3691 22.7083 9.3691C23.7256 9.3691 24.3793 10.0181 24.3793 11.0324C24.3793 13.7271 24.3793 16.4261 24.3793 19.1209C24.3793 19.873 23.9248 20.4747 23.2191 20.6595C23.0589 20.7025 22.8901 20.7111 22.7213 20.7154C20.7039 20.7197 18.6865 20.7154 16.6648 20.7197C16.5739 20.7197 16.4613 20.7583 16.3921 20.8142C15.2319 21.7297 14.076 22.6494 12.9158 23.5691C12.8638 23.6078 12.8162 23.6508 12.7643 23.6895C12.5911 23.8184 12.4006 23.8528 12.2015 23.7539C12.0023 23.6551 11.9114 23.4875 11.9114 23.2683C11.9114 22.4861 11.9114 21.6996 11.9114 20.9174C11.9158 20.8572 11.9158 20.8013 11.9158 20.7154ZM16.5999 13.495C15.9462 13.495 15.2925 13.495 14.6345 13.495C13.9028 13.495 13.1755 13.495 12.4439 13.495C12.1669 13.495 11.9504 13.6884 11.9201 13.9506C11.8898 14.2085 12.063 14.4577 12.327 14.5136C12.4006 14.5308 12.4786 14.5265 12.5521 14.5265C15.2449 14.5265 17.9419 14.5265 20.6346 14.5265C20.6822 14.5265 20.7342 14.5308 20.7818 14.5265C21.0026 14.505 21.1584 14.3933 21.2364 14.187C21.3706 13.8388 21.1108 13.495 20.7082 13.495C19.3359 13.495 17.9679 13.495 16.5999 13.495ZM14.5219 15.558C13.8509 15.558 13.1799 15.558 12.5089 15.558C12.1495 15.558 11.9158 15.7686 11.9158 16.078C11.9201 16.3832 12.1539 16.5895 12.5002 16.5895C13.8422 16.5895 15.1843 16.5895 16.5263 16.5895C16.8726 16.5895 17.1064 16.3789 17.1107 16.078C17.1107 15.7686 16.8769 15.558 16.5176 15.558C15.8509 15.558 15.1886 15.558 14.5219 15.558Z" fill="white"/>
<defs>
<linearGradient id="paint0_linear_2811_480" x1="16.5896" y1="0" x2="16.5896" y2="33.1792" gradientUnits="userSpaceOnUse">
<stop stop-color="#EA3227"/>
<stop offset="0.703125" stop-color="#ED3B30"/>
<stop offset="1" stop-color="#F55147"/>
</linearGradient>
</defs>
</svg>
