<svg width="34" height="34" viewBox="0 0 34 34" fill="none" xmlns="http://www.w3.org/2000/svg">
<path d="M33.1792 16.5896C33.1792 25.7518 25.7518 33.1792 16.5896 33.1792C7.42742 33.1792 0 25.7518 0 16.5896C0 7.42742 7.42742 0 16.5896 0C25.7518 0 33.1792 7.42742 33.1792 16.5896Z" fill="url(#paint0_linear_2811_486)"/>
<path d="M8.125 14.7417C8.22436 14.4326 8.38664 14.1598 8.71451 14.0677C8.97284 13.9986 9.24441 13.9822 9.51267 13.9559C10.9003 13.8277 12.288 13.706 13.6757 13.5844C13.7883 13.5745 13.8446 13.5318 13.891 13.4265C14.497 12.0029 15.113 10.5858 15.7224 9.1621C15.845 8.87276 16.0337 8.65904 16.3417 8.57356C16.7955 8.44533 17.2326 8.66233 17.4314 9.11607C17.8453 10.0729 18.256 11.0329 18.67 11.993C18.8786 12.4763 19.0873 12.9564 19.2893 13.4397C19.3291 13.5318 19.3787 13.5745 19.4781 13.5844C20.4981 13.6731 21.5182 13.7652 22.5383 13.854C23.098 13.9033 23.6577 13.9559 24.2174 14.0085C24.6082 14.0447 24.8797 14.2518 25.0023 14.6168C25.1281 14.9982 25.0188 15.3303 24.7175 15.5933C23.5484 16.6158 22.376 17.6351 21.2003 18.6511C21.0943 18.7431 21.0545 18.822 21.0877 18.9667C21.4387 20.4726 21.7831 21.9785 22.1276 23.4876C22.217 23.8822 22.1243 24.2208 21.7898 24.4641C21.4553 24.7041 21.1042 24.6943 20.7532 24.4839C19.4152 23.6915 18.0805 22.8991 16.7458 22.1001C16.6332 22.0311 16.5504 22.0311 16.4378 22.1001C15.1097 22.8958 13.775 23.6849 12.4437 24.474C11.9933 24.7403 11.5064 24.6713 11.2117 24.2997C11.0262 24.063 10.9798 23.7967 11.0461 23.5106C11.3905 22.0048 11.7349 20.4956 12.086 18.9897C12.1224 18.8352 12.0926 18.7464 11.9734 18.6445C10.8043 17.6384 9.64515 16.6191 8.47937 15.6097C8.30715 15.4618 8.2078 15.2744 8.13162 15.0672C8.125 14.962 8.125 14.8502 8.125 14.7417Z" fill="white"/>
<defs>
<linearGradient id="paint0_linear_2811_486" x1="16.5896" y1="0" x2="16.5896" y2="33.1792" gradientUnits="userSpaceOnUse">
<stop stop-color="#EA3227"/>
<stop offset="0.703125" stop-color="#ED3B30"/>
<stop offset="1" stop-color="#F55147"/>
</linearGradient>
</defs>
</svg>
