<svg width="42" height="42" viewBox="0 0 42 42" fill="none" xmlns="http://www.w3.org/2000/svg">
<circle cx="20.6797" cy="20.6797" r="20.6797" fill="url(#paint0_linear_2909_392)"/>
<path d="M14.7678 27.7877L10.6278 18.1217C10.5078 17.8217 10.3938 17.5097 10.2858 17.1857C10.1778 16.8617 10.1238 16.6037 10.1238 16.4117C9.93181 16.4237 9.75181 16.4357 9.58381 16.4477C9.42781 16.4477 9.28381 16.4537 9.15181 16.4657V15.0797H14.4618V16.2677C14.0178 16.2557 13.6758 16.3517 13.4358 16.5557C13.2078 16.7597 13.2018 17.1257 13.4178 17.6537C13.6938 18.3257 13.9698 19.0037 14.2458 19.6877C14.5218 20.3717 14.7978 21.0497 15.0738 21.7217C15.2778 22.2257 15.4518 22.6697 15.5958 23.0537C15.7398 23.4257 15.9078 23.8397 16.0998 24.2957H16.1178C16.2498 23.9357 16.3878 23.5337 16.5318 23.0897C16.6878 22.6457 16.8378 22.2197 16.9818 21.8117C17.1378 21.3917 17.2878 20.9717 17.4318 20.5517C17.5878 20.1317 17.7438 19.7177 17.8998 19.3097C18.0558 18.8897 18.2058 18.4697 18.3498 18.0497C18.4098 17.8457 18.5058 17.5697 18.6378 17.2217C18.7818 16.8737 18.9318 16.6037 19.0878 16.4117C18.8958 16.4237 18.6498 16.4357 18.3498 16.4477C18.0498 16.4477 17.8338 16.4537 17.7018 16.4657V15.0797H21.7518V16.2677C21.3438 16.2797 20.9898 16.4297 20.6898 16.7177C20.3898 17.0057 20.1078 17.4977 19.8438 18.1937C19.6398 18.7217 19.4358 19.2557 19.2318 19.7957C19.0398 20.3237 18.8418 20.8577 18.6378 21.3977C18.4458 21.9257 18.2478 22.4597 18.0438 22.9997C17.8398 23.5277 17.6358 24.0617 17.4318 24.6017C17.2398 25.1297 17.0418 25.6577 16.8378 26.1857C16.6458 26.7137 16.4478 27.2477 16.2438 27.7877H14.7678ZM29.7658 19.1117C29.6578 18.4397 29.4658 17.8817 29.1898 17.4377C28.9138 16.9817 28.5598 16.6397 28.1278 16.4117C27.7078 16.1837 27.2158 16.0757 26.6518 16.0877C26.1358 16.0877 25.6798 16.2317 25.2838 16.5197C24.8998 16.8077 24.7078 17.1797 24.7078 17.6357C24.7078 18.0077 24.8098 18.3317 25.0138 18.6077C25.2298 18.8837 25.5538 19.1417 25.9858 19.3817C26.4178 19.6217 26.9638 19.8797 27.6238 20.1557C28.0798 20.3357 28.5478 20.5457 29.0278 20.7857C29.5078 21.0257 29.9518 21.3137 30.3598 21.6497C30.7678 21.9737 31.0978 22.3577 31.3498 22.8017C31.6018 23.2337 31.7278 23.7437 31.7278 24.3317C31.7278 25.0397 31.5358 25.6697 31.1518 26.2217C30.7678 26.7737 30.2278 27.2057 29.5318 27.5177C28.8478 27.8177 28.0438 27.9677 27.1198 27.9677C26.6398 27.9677 26.1178 27.8897 25.5538 27.7337C25.0018 27.5897 24.4798 27.3737 23.9878 27.0857L24.0418 27.8417H22.6558V23.6297H23.8438C24.0118 24.6377 24.3958 25.3997 24.9958 25.9157C25.6078 26.4197 26.3338 26.6717 27.1738 26.6717C27.6058 26.6717 27.9838 26.5937 28.3078 26.4377C28.6318 26.2817 28.8838 26.0777 29.0638 25.8257C29.2438 25.5617 29.3338 25.2797 29.3338 24.9797C29.3338 24.5597 29.1838 24.2117 28.8838 23.9357C28.5958 23.6597 28.2298 23.4257 27.7858 23.2337C27.3538 23.0417 26.9098 22.8557 26.4538 22.6757C25.8778 22.4357 25.3378 22.1837 24.8338 21.9197C24.3418 21.6437 23.9098 21.3317 23.5378 20.9837C23.1658 20.6357 22.8778 20.2397 22.6738 19.7957C22.4698 19.3397 22.3678 18.8177 22.3678 18.2297C22.3678 17.8577 22.4398 17.4737 22.5838 17.0777C22.7278 16.6697 22.9618 16.2977 23.2858 15.9617C23.6098 15.6137 24.0418 15.3317 24.5818 15.1157C25.1218 14.8997 25.7878 14.7917 26.5798 14.7917C27.0598 14.7917 27.5818 14.8637 28.1458 15.0077C28.7218 15.1517 29.2138 15.3677 29.6218 15.6557L29.5498 14.9177H30.9538V19.1117H29.7658Z" fill="white"/>
<defs>
<linearGradient id="paint0_linear_2909_392" x1="20.6797" y1="0" x2="20.6797" y2="41.3594" gradientUnits="userSpaceOnUse">
<stop stop-color="#E92F24"/>
<stop offset="0.572917" stop-color="#ED443A"/>
<stop offset="0.9999" stop-color="#F85A50"/>
<stop offset="1" stop-color="#E92F24" stop-opacity="0"/>
</linearGradient>
</defs>
</svg>
