<svg width="9" height="15" viewBox="0 0 9 15" fill="none" xmlns="http://www.w3.org/2000/svg">
<path d="M0.899898 14.9053C0.634851 14.8393 0.398798 14.7279 0.224861 14.5092C-0.0691747 14.1378 -0.0774564 13.6014 0.220721 13.2301C0.2787 13.1599 0.34082 13.0898 0.407081 13.0238C2.22513 11.2124 4.04318 9.40107 5.86538 7.58559C5.90679 7.54433 5.95649 7.51132 6.03103 7.4123C5.98133 7.38341 5.91922 7.36691 5.8778 7.32565C4.03904 5.49779 2.20443 3.66581 0.365667 1.83795C0.0426421 1.51612 -0.0857407 1.14064 0.0592065 0.699148C0.270415 0.0430999 1.11525 -0.216844 1.66605 0.204017C1.72817 0.249404 1.78615 0.303044 1.83999 0.356683C3.94793 2.45686 6.05588 4.55704 8.16382 6.65722C8.55725 7.0492 8.64008 7.53608 8.37503 7.98169C8.31291 8.08897 8.2218 8.18387 8.13484 8.27052C6.08487 10.3171 4.02662 12.3636 1.97665 14.4101C1.74887 14.6371 1.51282 14.8393 1.18979 14.9053C1.09454 14.9053 0.995149 14.9053 0.899898 14.9053Z" fill="white"/>
</svg>
