<svg width="96" height="109" viewBox="0 0 96 109" fill="none" xmlns="http://www.w3.org/2000/svg">
<path d="M26.9673 108.664C27.0806 108.24 26.7409 108.013 26.571 107.73C23.9098 103.399 21.2203 99.0954 18.5591 94.7356C18.191 94.1128 17.7664 93.9712 17.1152 93.9995C11.7362 94.1694 6.38549 94.3109 1.00646 94.4525C0.666737 94.4525 0.242077 94.679 0.0439021 94.3109C-0.125962 94.0278 0.242077 93.7447 0.38363 93.4616C5.50786 84.5721 10.6604 75.6542 15.8129 66.7646C16.0394 67.0761 16.2942 67.3875 16.4924 67.6989C20.5974 74.4085 25.8066 80.1556 31.7235 85.3081C33.7336 87.0634 35.8003 88.7903 37.8386 90.5173C34.498 96.2077 31.129 101.898 27.7883 107.617C27.6185 107.928 27.2221 108.183 27.392 108.636C27.2504 108.664 27.1089 108.664 26.9673 108.664Z" fill="#F9502F"/>
<path d="M79.8811 67.8428C81.5514 70.7022 83.25 73.5615 84.8921 76.4209C88.1761 82.0547 91.4318 87.7169 94.6876 93.379C94.8574 93.6904 95.1971 93.9735 95.1122 94.3982C93.6967 94.3982 92.2812 94.4265 90.8939 94.3982C86.5907 94.2849 82.2875 94.1434 77.956 94.0018C77.2765 93.9735 76.8802 94.1717 76.5121 94.7662C73.8792 99.0977 71.1897 103.429 68.5285 107.732C68.3586 108.016 67.9906 108.242 68.1322 108.638C67.9906 108.638 67.8491 108.638 67.7075 108.638C67.934 108.242 67.5376 108.016 67.3961 107.761C64.1404 102.212 60.8846 96.6913 57.6289 91.1424C57.9969 90.831 58.3933 90.4913 58.7613 90.2082C63.8856 86.2447 68.6418 81.9132 72.945 77.0437C75.5212 74.1844 77.7578 71.0702 79.8811 67.8428Z" fill="#E90117"/>
<path d="M57.6569 91.1701C55.0806 92.9254 52.5893 94.8222 49.8997 96.4076C49.4185 96.6907 48.9372 96.9455 48.4276 97.2286C48.0312 96.8889 48.2011 96.4359 48.1728 96.0396C48.1728 92.3026 48.1728 88.5939 48.1728 84.8568C51.8815 82.3938 55.3354 79.6194 58.5911 76.6185C63.1774 72.4002 67.3957 67.8705 70.6515 62.4914C73.5958 57.6503 75.4643 52.4978 75.3793 46.7224C75.2661 39.5598 75.3227 32.3689 75.3793 25.178C75.3793 24.0455 75.0113 23.5643 74.0487 23.1396C67.509 20.2236 60.9975 17.251 54.4578 14.335C52.3628 13.4007 50.3527 12.2966 48.1728 11.5889C48.1728 8.13495 48.1728 4.70936 48.2011 1.25546C48.2011 0.859114 48.0595 0.406144 48.4842 0.0947266C53.1838 2.18972 57.855 4.31302 62.5546 6.408C70.0286 9.77697 77.5026 13.1743 85.005 16.5149C85.7693 16.8546 85.9958 17.3076 85.9958 18.1286C85.9675 27.4994 85.9109 36.8703 85.9958 46.2411C86.0808 53.4037 84.2406 60.0284 80.73 66.2567C80.4469 66.7663 80.1638 67.3042 79.8807 67.8421C77.7574 71.0412 75.5209 74.1554 72.9729 77.0431C68.6697 81.9125 63.9135 86.2441 58.7893 90.2076C58.4213 90.519 58.0532 90.8587 57.6569 91.1701Z" fill="#FCBE00"/>
<path d="M48.2024 84.8852C48.2024 88.6223 48.2024 92.3309 48.2024 96.068C48.2024 96.4643 48.0326 96.9173 48.4572 97.257C48.0043 97.6817 47.7495 97.1721 47.4664 97.0305C44.5221 95.3036 41.7193 93.3501 38.9732 91.3118C38.6051 91.0287 38.2937 90.6889 37.8124 90.5757C35.7741 88.8487 33.7074 87.1218 31.6973 85.3665C25.7804 80.214 20.5995 74.4386 16.4662 67.7573C16.268 67.4176 16.0132 67.1345 15.7867 66.8231C15.1073 65.4358 14.3995 64.0486 13.7767 62.6331C11.5401 57.707 10.3511 52.5545 10.3794 47.1188C10.436 37.4366 10.4077 27.726 10.3794 18.0438C10.3794 17.2794 10.6342 16.9397 11.2853 16.6283C23.2607 11.2209 35.2362 5.81358 47.2116 0.406244C47.5796 0.23638 47.9476 -0.216591 48.4572 0.123137C48.0326 0.434554 48.2024 0.887525 48.1741 1.28387C48.1741 4.73777 48.1741 8.16336 48.1458 11.6173C46.3622 12.0702 44.7768 13.0045 43.1065 13.7689C36.0572 16.9114 29.0361 20.1671 21.9868 23.3096C21.2224 23.6493 20.9676 24.0456 20.9676 24.8667C20.9959 32.369 21.0808 39.8713 20.9393 47.3736C20.8827 51.6202 21.9585 55.5271 23.7987 59.2924C26.2334 64.3317 29.7156 68.6349 33.5375 72.655C37.1047 76.4204 41.0682 79.761 45.2581 82.8469C46.1641 83.5263 46.9568 84.4606 48.1458 84.6871C48.2024 84.772 48.2024 84.8286 48.2024 84.8852Z" fill="#FED92D"/>
<path d="M48.2002 84.8862C48.2002 84.8295 48.1719 84.7729 48.1719 84.7163C48.1719 73.3071 48.1719 61.9262 48.2002 50.517C50.1819 51.1399 52.1637 51.7344 54.1454 52.4138C54.9664 52.6969 55.2779 52.612 55.2495 51.6494C55.1929 49.9508 55.2778 48.2522 55.2212 46.5535C55.1929 45.6759 55.4477 44.9964 55.9856 44.3453C57.0897 42.9015 58.1089 41.3727 59.213 39.9005C59.6094 39.3626 59.4961 39.1361 58.9016 38.938C57.203 38.4001 55.5043 37.7772 53.7774 37.2676C52.9281 37.0128 52.3335 36.5316 51.8239 35.8238C50.6632 34.2384 49.644 32.5397 48.2285 31.1525C48.2285 24.6411 48.2285 18.1579 48.2568 11.6465C50.4367 12.3543 52.4751 13.4584 54.5418 14.3926C61.0815 17.3086 67.593 20.2812 74.1327 23.1972C75.0953 23.6219 75.4917 24.1032 75.4633 25.2356C75.4067 32.4265 75.3501 39.5891 75.4633 46.78C75.5483 52.5554 73.6798 57.7079 70.7355 62.5491C67.4797 67.8998 63.2615 72.4578 58.6751 76.6761C55.3628 79.6487 51.9089 82.4231 48.2002 84.8862Z" fill="#FC9027"/>
<path d="M48.2018 50.4887C48.2018 61.8979 48.2018 73.2788 48.1735 84.688C46.9561 84.4615 46.1917 83.5272 45.2858 82.8478C41.1241 79.7619 37.1606 76.393 33.5652 72.6559C29.7432 68.6358 26.2893 64.3326 23.8263 59.2933C22.0144 55.528 20.9103 51.6494 20.9669 47.3745C21.0802 39.8722 21.0235 32.3699 20.9952 24.8676C20.9952 24.0465 21.25 23.6502 22.0144 23.3105C29.0638 20.168 36.0848 16.9123 43.1342 13.7698C44.8045 13.0337 46.3899 12.0711 48.1735 11.6182C48.1735 18.1296 48.1735 24.6128 48.1452 31.1242V31.1525C47.0127 32.0301 46.305 33.2475 45.5406 34.4082C44.4365 36.1069 43.1342 37.3526 41.0675 37.7772C39.9068 38.0037 38.8026 38.5416 37.6419 38.853C36.8209 39.0795 36.8209 39.4759 37.2455 40.0421C38.3214 41.5425 39.3405 43.043 40.473 44.4868C40.841 44.9681 40.9826 45.4494 40.9826 46.0439C40.9542 47.9124 41.0109 49.7809 40.9542 51.6777C40.9542 52.4421 41.0958 52.6969 41.9168 52.4138C44.0118 51.7344 46.1068 51.1398 48.2018 50.4887Z" fill="#FCBE00"/>
<path d="M48.2012 31.124C49.5884 32.5112 50.6359 34.2099 51.7966 35.7953C52.3345 36.503 52.9007 36.9843 53.75 37.2391C55.477 37.7487 57.1473 38.3716 58.8743 38.9095C59.4688 39.1076 59.6103 39.3341 59.1857 39.872C58.0816 41.3442 57.0624 42.8446 55.9583 44.3168C55.4487 44.9962 55.1656 45.6757 55.1939 46.525C55.2505 48.2237 55.1656 49.9223 55.2222 51.6209C55.2505 52.5835 54.9391 52.6684 54.1181 52.3853C52.1646 51.7059 50.1546 51.1113 48.1728 50.4885C48.1728 44.0337 48.1445 37.5789 48.1445 31.1523L48.2012 31.124Z" fill="#FB652C"/>
<path d="M48.1728 31.1523C48.1728 37.6072 48.2011 44.062 48.2011 50.4885C46.1061 51.1114 44.0111 51.7342 41.9444 52.4136C41.1234 52.6968 40.9819 52.442 40.9819 51.6776C41.0102 49.8091 40.9819 47.9406 41.0102 46.0438C41.0102 45.4492 40.8969 44.9963 40.5006 44.4867C39.3965 43.0428 38.349 41.514 37.2732 40.0419C36.8485 39.4474 36.8485 39.0793 37.6695 38.8528C38.8303 38.5414 39.9344 38.0035 41.0951 37.777C43.1618 37.3807 44.4641 36.1067 45.5682 34.4081C46.3326 33.2473 47.0403 32.03 48.1728 31.1523Z" fill="#FC9027"/>
<path d="M56.4727 27.9045C59.1596 27.1324 61.9084 26.6073 64.7189 26.3602C64.8116 26.3602 64.9351 26.3911 64.9969 26.2676C65.491 26.2676 65.9852 26.2676 66.4794 26.2676C66.6647 26.3911 66.9117 26.422 67.0353 26.6382C65.5219 28.1207 64.0086 29.6031 62.557 31.1474C62.0937 31.6415 61.6613 32.1357 61.1363 32.5372C61.0436 32.4445 60.951 32.3828 60.8583 32.2901C59.4994 30.9312 58.1096 29.5723 56.7506 28.1824C56.6271 28.1207 56.5344 28.0589 56.4727 27.9045Z" fill="#FE5B5B"/>
<path d="M56.4754 27.9043C56.5063 28.0278 56.6298 28.1205 56.7225 28.1823C58.0814 29.5412 59.4403 30.931 60.8302 32.29C60.9228 32.3826 61.0155 32.4444 61.1081 32.537C61.1081 32.5679 61.1081 32.5988 61.1081 32.5988C61.0772 32.6297 61.0464 32.6297 61.0155 32.6606C59.6257 34.0504 58.2358 35.4402 56.846 36.83C56.7534 36.9227 56.6916 36.9845 56.6916 37.1389C56.6607 37.108 56.5989 37.0771 56.5681 37.0771C55.3944 35.8726 53.9737 35.502 52.3368 35.7182C49.8969 36.0579 48.0129 38.5596 48.3218 40.9995C48.4453 42.1422 48.9395 43.0997 49.6807 43.9336C49.6807 44.088 49.5572 44.1806 49.4645 44.2733C47.457 46.2808 45.4804 48.2883 43.4729 50.265C43.3802 50.3576 43.2876 50.4811 43.1331 50.4811C41.28 48.6281 39.3961 46.775 37.543 44.891C38.5313 42.3275 39.8284 39.9185 41.4653 37.7257C41.7124 37.386 42.0213 37.108 42.2066 36.7065C42.6081 36.2741 43.0405 35.8726 43.442 35.4402C44.0288 34.7916 44.6465 34.2357 45.326 33.6798C46.5614 32.6606 47.8585 31.7649 49.2483 30.9619C50.7308 30.128 52.2442 29.3868 53.8502 28.8C54.6841 28.4911 55.5797 28.1823 56.4754 27.9043Z" fill="#E0F0F9"/>
<path d="M43.1047 50.5126C43.2592 50.5126 43.3518 50.389 43.4445 50.2964C45.452 48.2889 47.4595 46.3122 49.4361 44.3047C49.5288 44.2121 49.6523 44.1194 49.6523 43.965H49.6832H49.7141C49.745 43.9959 49.745 44.0268 49.7759 44.0577C51.2892 45.4166 53.0497 45.8181 54.9645 45.046C56.8485 44.2738 57.8677 42.7914 57.9912 40.7839C58.0839 39.394 57.5589 38.2204 56.6632 37.2012C56.6632 37.0777 56.725 36.985 56.8176 36.8924C58.2074 35.5025 59.5973 34.1127 60.9871 32.7229C61.018 32.692 61.0488 32.692 61.0797 32.6611C62.4078 33.9892 63.7358 35.3172 65.0639 36.6144C65.2801 36.8306 65.4654 37.0468 65.7125 37.2012C65.1257 39.2705 64.3535 41.278 63.3652 43.1929C62.346 45.2004 61.1106 47.0535 59.659 48.7522C58.8869 49.6478 58.053 50.5126 57.0956 51.2538C57.0029 51.3156 56.9412 51.4391 56.8794 51.5009C56.8176 51.5318 56.725 51.5936 56.6632 51.6553C54.2542 53.632 51.5981 55.0836 48.6949 56.1954C46.8727 54.3732 45.0505 52.5201 43.2283 50.6979C43.1665 50.6361 43.1047 50.6052 43.043 50.5435C43.1047 50.5435 43.1047 50.5435 43.1047 50.5126Z" fill="#CCEAFB"/>
<path d="M42.176 36.7379C41.9907 37.1394 41.6818 37.4174 41.4348 37.7571C39.7979 39.9808 38.5007 42.359 37.5124 44.9224C36.9256 45.5092 36.3388 46.0651 35.752 46.652C33.6827 46.5284 31.6443 46.374 29.575 46.2504C29.3588 46.2504 29.1117 46.2196 28.8955 46.1887C27.969 46.0651 27.5366 45.1695 27.9998 44.3665C28.2778 43.8723 28.6175 43.409 28.9573 42.9458C31.0266 40.2588 33.5282 38.1895 36.8329 37.1703C38.4698 36.6452 40.1685 36.5217 41.8672 36.707C41.9289 36.7379 42.0525 36.7379 42.176 36.7379Z" fill="#FE5B5B"/>
<path d="M48.753 56.1955C51.6253 55.0836 54.3123 53.6011 56.7213 51.6554C56.7831 51.5936 56.8757 51.5627 56.9375 51.501C57.1537 53.3232 57.0301 55.1145 56.5051 56.8441C55.7021 59.4693 54.1578 61.6312 52.1812 63.5152C51.3473 64.3182 50.4208 64.9977 49.4633 65.6154C48.475 66.2331 47.5794 65.7698 47.4867 64.627C47.3323 62.774 47.2396 60.9209 47.1161 59.0678C47.0852 58.6971 47.0543 58.3265 47.0234 57.9559C47.6103 57.3691 48.1971 56.7823 48.753 56.1955Z" fill="#FE1A3E"/>
<path d="M35.7197 46.6524C36.3065 46.0656 36.8933 45.5097 37.4802 44.9229C39.3332 46.7759 41.2172 48.629 43.0703 50.513C43.0703 50.5439 43.0703 50.5439 43.0703 50.5748C42.9468 50.791 42.7615 50.9454 42.5762 51.0998C41.279 52.397 39.9818 53.6942 38.6538 54.9913C38.4994 54.9604 38.4376 54.806 38.3449 54.7134C37.1713 53.5397 35.9668 52.3661 34.7932 51.1925C34.5152 50.8836 34.2372 50.6057 33.9284 50.2968C33.3416 49.6791 33.3416 49.0305 33.9284 48.4128C34.5461 47.826 35.1329 47.2392 35.7197 46.6524Z" fill="#1C3B6B"/>
<path d="M38.7185 54.9908C40.0156 53.6936 41.3128 52.3964 42.6409 51.0993C42.8262 50.914 43.0115 50.7904 43.135 50.5742C43.1968 50.636 43.2586 50.6669 43.3203 50.7286C45.1425 52.5509 46.9647 54.4039 48.7869 56.2262C48.2001 56.813 47.6442 57.3998 47.0574 57.9866C46.5015 58.5425 45.9147 59.0984 45.3587 59.6544C44.6484 60.3338 44.0307 60.3338 43.3203 59.6544C43.0424 59.4073 42.7953 59.1293 42.5173 58.8823C41.2819 57.5851 40.0156 56.3188 38.7185 55.0834C38.6876 55.0216 38.6876 55.0216 38.7185 54.9908Z" fill="#011135"/>
<path d="M38.6818 55.0527C39.979 56.2881 41.2452 57.5544 42.4806 58.8516C40.7511 60.5811 38.6818 61.6312 36.3654 62.3107C34.9447 62.7431 33.524 62.9901 32.0415 63.0828C31.6092 63.1137 31.1768 63.0828 30.9297 62.6504C31.0223 62.5886 31.0841 62.5269 31.1768 62.4651C32.9063 60.7664 34.605 59.0678 36.3037 57.4C37.1067 56.597 37.9097 55.8249 38.6818 55.0527Z" fill="#FC9027"/>
<path d="M38.6888 55.0526C37.8858 55.8248 37.1137 56.5969 36.3107 57.3999C34.612 59.0985 32.8825 60.7972 31.1838 62.465C31.122 62.5268 31.0294 62.5885 30.9367 62.6503C30.6279 62.4341 30.5661 62.0944 30.597 61.7855C30.6896 59.8398 31.0602 57.9249 31.7397 56.1027C32.4192 54.2496 33.4075 52.5818 34.8282 51.1611C36.0018 52.3348 37.2063 53.5084 38.38 54.682C38.4726 54.7747 38.5653 54.8982 38.6888 54.96C38.6888 55.0217 38.6888 55.0217 38.6888 55.0526Z" fill="#FEF161"/>
<path d="M65.7695 37.2011C65.5224 37.0466 65.3371 36.7996 65.1209 36.6142C63.7928 35.2862 62.4648 33.9581 61.1367 32.661C61.1367 32.6301 61.1367 32.5992 61.1367 32.5992C61.6618 32.1668 62.0941 31.6727 62.5574 31.2094C64.009 29.6651 65.5224 28.1827 67.0357 26.7002C67.2519 26.8546 67.3137 27.1017 67.3137 27.3797C67.3755 30.6226 66.7269 33.7728 65.8621 36.8922C65.8312 36.954 65.8003 37.0775 65.7695 37.2011Z" fill="#FE1A3D"/>
<path d="M49.7391 43.9344H49.7082H49.6773C48.9361 43.1005 48.4728 42.143 48.3184 41.0003C48.0095 38.5604 49.8935 36.0587 52.3334 35.719C53.9703 35.4719 55.391 35.8734 56.5646 37.0779C56.1014 37.6956 55.5146 38.2207 54.9277 38.7457C54.8969 38.7457 54.866 38.7457 54.866 38.7457C53.8159 37.7883 52.3643 37.8191 51.4069 38.8075C50.4803 39.7649 50.5112 41.2474 51.4686 42.2048C51.4686 42.2357 51.4686 42.2357 51.4686 42.2666C51.3451 42.3592 51.2524 42.4828 51.1289 42.5754C50.6347 43.0387 50.2332 43.5329 49.7391 43.9344Z" fill="#1C3C6C"/>
<path d="M49.7422 43.934C50.2672 43.5325 50.6687 43.0383 51.132 42.6059C51.2555 42.5133 51.3482 42.3897 51.4717 42.2971C51.5644 42.3588 51.657 42.4206 51.7497 42.5133C52.6454 43.1001 53.541 43.1309 54.4676 42.6059C55.2706 42.1426 55.703 41.1543 55.5794 40.1969C55.5177 39.641 55.2088 39.2395 54.9308 38.7762C55.5177 38.2511 56.1045 37.7261 56.5677 37.1084C56.5986 37.1393 56.6604 37.1702 56.6913 37.1702C57.5869 38.1894 58.112 39.3939 58.0193 40.7528C57.8649 42.7912 56.8766 44.2737 54.9926 45.0149C53.0778 45.787 51.3482 45.3855 49.804 44.0266C49.7731 43.9957 49.7731 43.9648 49.7422 43.934Z" fill="#011236"/>
<path d="M54.9318 38.7448C55.2097 39.1771 55.5186 39.6095 55.5803 40.1655C55.7039 41.1229 55.2715 42.1112 54.4685 42.5745C53.5419 43.0995 52.6463 43.0995 51.7506 42.4818C51.658 42.4201 51.5653 42.3583 51.4727 42.2656C51.4727 42.2347 51.4727 42.2347 51.4727 42.2039C51.5653 42.0803 51.658 41.9568 51.7815 41.8641C52.8007 40.814 53.8508 39.764 54.87 38.7139C54.87 38.7448 54.9009 38.7448 54.9318 38.7448Z" fill="#1DACB4"/>
<path d="M54.8694 38.7448C53.8193 39.7948 52.8001 40.8449 51.7809 41.895C51.6883 42.0186 51.5647 42.1112 51.4721 42.2348C50.5146 41.2773 50.5147 39.7948 51.4103 38.8374C52.3369 37.8491 53.7884 37.8182 54.8694 38.7448Z" fill="#06CAAA"/>
</svg>
