<svg width="95" height="108" viewBox="0 0 95 108" fill="none" xmlns="http://www.w3.org/2000/svg">
<path d="M57.4714 90.9129C56.9919 90.9129 56.7098 91.2232 56.3713 91.4771C53.7198 93.3952 51.0965 95.2851 48.2193 96.8647C47.6834 96.8083 47.5423 96.3852 47.5141 95.9621C47.4295 92.3233 47.3449 88.6563 47.5705 85.0175C47.5705 84.9611 47.627 84.8765 47.6552 84.82C49.5169 82.2814 52.3376 80.8428 54.6789 78.84C60.8281 73.5934 66.4979 67.9519 70.5598 60.8999C73.0985 56.4995 74.5935 51.7889 74.5371 46.6269C74.4806 39.716 74.5089 32.8051 74.5371 25.8942C74.5371 24.5967 74.114 23.8633 72.901 23.2991C65.285 19.8578 57.6971 16.4164 50.081 13.0033C48.8117 12.4392 48.5014 12.6084 48.5014 14.0188C48.5014 18.8141 48.4168 23.6094 48.5296 28.4047C48.586 30.069 48.0501 31.4229 47.1192 32.6923C46.273 33.877 45.3985 35.0053 44.5523 36.19C44.0446 36.9234 43.3676 37.3747 42.5496 37.6286C41.3366 38.0235 40.1519 38.4184 38.939 38.8415C37.6414 39.2929 37.5286 39.6314 38.2902 40.7315C39.08 41.8598 39.8698 42.9881 40.6879 44.0882C41.111 44.6241 41.252 45.1883 41.252 45.837C41.252 47.3038 41.2238 48.7989 41.252 50.2657C41.2802 51.394 41.6187 51.6478 42.7188 51.3658C43.9317 51.0273 45.1165 50.5477 46.3294 50.2092C46.8936 50.04 47.4577 49.7579 48.0501 50.2092C48.1347 50.3221 48.1911 50.4349 48.2193 50.5477C48.4168 51.1683 48.445 51.7889 48.445 52.4376C48.445 62.3667 48.445 72.3241 48.445 82.2532C48.445 82.9583 48.4732 83.6635 48.1065 84.3123C47.5987 85.1867 47.0346 84.7072 46.5269 84.3687C44.6087 83.0148 42.7188 81.5762 40.9135 80.0529C38.2338 77.7963 35.5823 75.5397 33.1846 73.001C29.2356 68.8263 25.6532 64.4259 23.1145 59.2075C21.281 55.4277 20.2091 51.4786 20.2937 47.191C20.4348 39.9981 20.3783 32.8051 20.2937 25.6122C20.2655 23.9479 20.8297 23.0735 22.3247 22.4247C26.9225 20.4501 31.464 18.3064 36.0054 16.2754C39.3621 14.7804 42.6624 13.229 46.0191 11.734C46.9782 11.3109 47.4013 10.6339 47.3731 9.59019C47.3449 6.93867 47.3449 4.31536 47.3731 1.66384C47.3731 1.04327 47.3167 0.366286 48.1347 0.140625C52.3094 2.00233 56.4842 3.86404 60.6589 5.75395C68.557 9.30812 76.4552 12.9187 84.3533 16.4729C85.1714 16.8396 85.5099 17.2627 85.5099 18.1935C85.4816 28.038 85.5381 37.8543 85.4816 47.6988C85.4534 54.3276 83.4225 60.4486 80.2068 66.203C79.9247 66.6825 79.558 67.1338 79.558 67.7544C79.3042 69.2494 78.3169 70.3213 77.4707 71.4778C75.4115 74.3268 73.1267 77.0065 70.729 79.5734C67.0338 83.5225 62.9437 86.992 58.769 90.377C58.4869 90.6308 58.0638 90.9693 57.4714 90.9129Z" fill="#929292"/>
<path d="M47.9945 84.5665C47.9945 88.1771 47.9945 91.8158 47.9945 95.4264C47.9945 95.906 47.9381 96.4137 48.2202 96.865C47.656 97.1189 47.2893 96.6676 46.8944 96.4419C44.1301 94.7777 41.4503 92.9442 38.8834 91.026C38.4885 90.744 38.15 90.3773 37.6141 90.2926C36.9089 90.3773 36.514 89.8695 36.0627 89.5028C32.3393 86.541 28.7569 83.41 25.4566 79.9686C22.0153 76.358 18.8842 72.5218 16.2609 68.2624C15.9224 67.7265 15.7532 67.1906 15.6403 66.5982C15.2172 65.0186 14.2299 63.6928 13.6094 62.1978C11.4938 57.3461 10.2809 52.3533 10.3091 47.0221C10.3373 37.4315 10.3373 27.8691 10.3091 18.2785C10.3091 17.2348 10.6758 16.7552 11.6066 16.3321C22.4384 11.4804 33.2419 6.57228 44.0454 1.66415C45.0609 1.21282 46.1046 0.733293 47.1201 0.28197C47.4586 0.140932 47.7971 -0.141145 48.2202 0.0845166C47.9381 0.535839 47.9663 1.01537 47.9663 1.52311C47.9663 4.40029 47.9381 7.30568 47.9663 10.1829C47.9663 11.0573 47.6842 11.5368 46.8944 11.9035C41.1965 14.4704 35.5267 17.0373 29.857 19.6042C27.2055 20.8172 24.5257 22.0301 21.8742 23.2148C21.169 23.5251 20.8869 23.9764 20.8869 24.7662C20.9152 33.0593 20.8305 41.3523 20.9434 49.6172C20.9998 52.9457 22.2409 56.0203 23.7077 58.9821C25.8797 63.3825 28.8133 67.2188 32.0854 70.8575C36.4012 75.6529 41.3375 79.7148 46.4995 83.551C46.9508 83.9177 47.4868 84.228 47.9945 84.5665Z" fill="#ADADAD"/>
<path d="M15.667 66.5986C16.6825 67.5295 17.1902 68.7706 17.9236 69.8707C22.8036 77.0355 28.8964 83.0437 35.6098 88.4314C36.315 88.9955 37.1331 89.4468 37.6408 90.2649C35.2149 94.4114 32.7891 98.5579 30.3632 102.704C29.4606 104.199 28.5579 105.723 27.6271 107.218C27.0347 108.177 27.0347 108.205 26.4424 107.246C23.8472 103.043 21.2239 98.8682 18.657 94.6371C18.1775 93.819 17.6416 93.5652 16.7107 93.5934C11.4641 93.7908 6.21746 93.9036 0.970831 94.0447C0.660547 94.0447 0.237432 94.1857 0.0681857 93.9319C-0.157476 93.5934 0.237432 93.2831 0.37847 93.001C5.45585 84.2566 10.5614 75.4276 15.667 66.5986Z" fill="#676767"/>
<path d="M57.4727 90.913C58.2343 89.8694 59.3626 89.2488 60.3498 88.459C67.571 82.62 74.0588 76.104 79.0797 68.2341C79.2208 68.0084 79.3618 67.7263 79.6721 67.6699C84.7213 76.4425 89.7986 85.1869 94.876 93.9877C92.7887 93.9877 90.8705 94.0159 88.9242 93.9877C85.229 93.9031 81.5338 93.7902 77.8386 93.6492C76.9642 93.621 76.5128 93.9313 76.0897 94.6365C73.5228 98.8394 70.9277 103.014 68.3326 107.217C67.6838 108.261 67.6838 108.261 67.0633 107.217C66.894 106.907 66.6966 106.625 66.4991 106.343C63.8476 101.801 61.1679 97.2316 58.5163 92.6901C58.1496 92.0696 57.8111 91.5054 57.4727 90.913Z" fill="#353535"/>
<path d="M47.9921 84.5663C47.9921 73.1422 47.9921 61.7181 47.9921 50.294C48.4152 49.8145 48.8948 50.0119 49.3461 50.153C50.559 50.5197 51.7719 50.8864 52.9849 51.2531C54.085 51.5915 54.3953 51.3377 54.4235 50.1812C54.4517 48.8554 54.4517 47.5014 54.4235 46.1757C54.3953 45.3294 54.6773 44.596 55.1851 43.9191C56.0313 42.819 56.7929 41.6907 57.5827 40.5623C58.2879 39.5751 58.1469 39.2084 56.9904 38.7853C55.8338 38.3621 54.6773 37.9672 53.4644 37.6287C52.3925 37.3185 51.6027 36.7543 50.9821 35.8235C50.2487 34.7516 49.5717 33.6515 48.6127 32.7206C48.387 33.1437 48.4716 33.5386 48.4716 33.9335C48.4716 38.7853 48.4716 43.6652 48.4716 48.5169C48.4716 49.1375 48.5845 49.8145 47.9639 50.2658C45.933 50.8864 43.902 51.4787 41.8993 52.1275C41.0248 52.4096 40.7427 52.1275 40.771 51.2813C40.7992 49.5888 40.7427 47.8963 40.7992 46.2039C40.8274 45.3294 40.5735 44.6525 40.0376 43.9755C39.0503 42.6779 38.1476 41.324 37.1886 40.0546C36.6526 39.3212 36.6526 38.9545 37.6117 38.6724C39.1631 38.2211 40.6863 37.6287 42.2378 37.1774C43.1404 36.9236 43.7892 36.4158 44.3251 35.6542C45.3124 34.2438 46.3561 32.8617 47.3998 31.4795C47.8511 30.8871 47.9921 30.2383 47.9921 29.5049C47.9921 24.0044 47.9921 18.5039 47.9921 13.0035C47.9921 11.5931 48.1614 11.5084 49.4025 12.0726C57.5545 15.7678 65.7065 19.463 73.8585 23.13C74.7048 23.4967 75.0997 23.9762 75.0715 24.9635C75.0433 32.777 75.1279 40.6188 75.0151 48.4323C74.9586 53.0019 73.3226 57.2049 71.066 61.1257C67.5964 67.1904 62.914 72.2113 57.7238 76.8374C54.6491 79.6018 51.4052 82.1969 47.9921 84.5663Z" fill="#868686"/>
<path d="M47.9922 50.2658C47.9922 43.9472 47.9922 37.6287 47.9922 31.3384C48.105 31.3102 48.2179 31.282 48.3025 31.2256C49.0923 32.2693 49.9667 33.2847 50.6437 34.4131C51.6028 35.9927 52.8439 37.0928 54.7056 37.4877C55.8621 37.7416 56.9904 38.2211 58.1187 38.5878C59.2753 38.9827 59.3317 39.1237 58.6547 40.0828C57.6392 41.4932 56.6519 42.8754 55.6083 44.2575C55.1569 44.8499 54.9595 45.4705 54.9877 46.2039C55.0159 47.8963 54.9595 49.5888 55.0159 51.2812C55.0441 52.1839 54.7056 52.3813 53.8594 52.0993C51.8848 51.4787 49.9385 50.8863 47.9922 50.2658Z" fill="#727272"/>
<rect x="32.7852" y="28.4385" width="15.1914" height="30.3184" fill="#929292"/>
<rect x="47.9766" y="28.4385" width="15.1914" height="30.3184" fill="#868686"/>
<path d="M64.6758 49.9861C65.0078 49.6541 65.3398 49.322 65.6718 48.99C66.2609 48.401 66.6572 48.401 67.2355 48.9793C67.6211 49.3649 67.996 49.7719 68.3815 50.1682C68.3815 50.3716 68.3815 50.5644 68.3815 50.7679C67.5997 51.5926 66.8178 52.4066 65.9824 53.167C65.9075 53.0171 65.8432 52.8778 65.7682 52.7279C65.4041 51.8068 64.9542 50.9286 64.6758 49.9861Z" fill="#5F5F5F"/>
<path d="M51.9308 30.4722C52.6377 29.6689 53.3446 28.8656 54.0622 28.0838C56.4077 25.524 59.2888 23.9924 62.7268 23.5105C62.9517 23.4784 63.1766 23.4569 63.4015 23.4248C63.2516 24.6351 62.9945 25.8132 62.5982 26.9806C62.4483 27.4304 62.1163 27.8267 62.1163 28.3301C62.0949 28.3194 62.0627 28.3194 62.0413 28.3194C61.1845 27.3876 60.0599 27.0235 58.8496 26.8949C58.5069 26.8628 58.2392 27.0556 58.1856 27.4197C58.1321 27.7625 58.2606 28.0409 58.614 28.1587C58.7318 28.2016 58.8604 28.223 58.9889 28.2444C59.9421 28.3729 60.7561 28.7585 61.3666 29.5189C61.3666 29.5511 61.3666 29.5725 61.3666 29.6046C60.4669 30.997 59.3637 32.2072 58.1321 33.3318C56.8575 34.4885 55.6259 35.7095 54.3835 36.8983C53.0768 38.1514 51.7702 39.4045 50.4635 40.6469C49.2318 41.825 47.9895 43.0031 46.7471 44.192C45.4404 45.4451 44.1338 46.6982 42.8271 47.9406C41.574 49.1401 40.3209 50.3504 39.0571 51.5392C37.6112 52.8994 36.1975 54.281 34.7623 55.652C33.7448 56.6266 32.738 57.6226 31.7206 58.5973C31.6563 58.6508 31.5813 58.6937 31.5171 58.7472C30.9387 58.1367 30.8423 57.4727 31.1744 56.7123C31.3671 56.2732 31.6563 55.8769 31.7741 55.4056C32.0312 55.0629 32.2561 54.6987 32.3953 54.2918C32.5667 54.0133 32.738 53.7348 32.9094 53.4564C33.4878 52.546 34.0661 51.6249 34.6338 50.7145C35.3406 49.8256 36.0261 48.9152 36.7651 48.0477C38.4895 46.0127 40.2459 44.0099 41.981 41.9857C42.7521 41.086 43.5126 40.1864 44.2837 39.2867C44.6907 38.8262 45.087 38.3763 45.494 37.9158C47.636 35.431 49.7888 32.9462 51.9308 30.4722Z" fill="#9F9F9F"/>
<path d="M31.5039 58.7373C31.5682 58.6838 31.6431 58.6409 31.7074 58.5874C32.7249 57.602 33.7316 56.6167 34.7491 55.6421C36.1736 54.2712 37.598 52.8895 39.0439 51.5293C40.3077 50.3405 41.5608 49.1302 42.8139 47.9307C44.1206 46.6776 45.4272 45.4245 46.7339 44.1821C47.9656 43.004 49.208 41.8258 50.4503 40.637C51.757 39.3839 53.0636 38.1308 54.3703 36.8884C55.6127 35.6996 56.8444 34.4893 58.1189 33.3219C59.3506 32.1973 60.443 30.9871 61.3534 29.5947C61.4069 29.659 61.4605 29.7233 61.5033 29.7875C61.8246 30.3016 61.9317 30.8907 62.0281 31.4797C62.1031 31.9403 62.4458 32.1759 62.885 32.0795C63.217 32.0045 63.4098 31.6404 63.3562 31.2441C63.2277 30.141 62.8314 29.1663 62.1031 28.3202C62.1031 27.8168 62.4351 27.4206 62.5851 26.9707C62.9813 25.814 63.2384 24.6252 63.3883 23.4149C64.1595 23.2757 64.9306 23.1365 65.6803 23.522C66.4622 23.9397 66.9334 24.5823 66.9227 25.4713C66.8906 27.9132 66.3015 30.2266 65.1448 32.3901C64.1059 34.3394 62.6065 35.8924 60.9357 37.2847C60.5394 37.6167 60.1645 37.9702 59.7897 38.3022C59.6826 38.3771 59.5755 38.4414 59.4791 38.5271C58.1939 39.641 56.9086 40.7441 55.6341 41.858C54.5417 42.8112 53.4492 43.7751 52.3461 44.7283C51.8748 45.1139 51.3928 45.4888 50.9751 45.9279C49.54 47.1595 48.1048 48.3912 46.6589 49.6229C44.3241 51.6257 42.0642 53.7142 39.5687 55.5243C38.3906 56.3275 37.1696 57.0772 35.9594 57.827C35.5417 57.9983 35.1561 58.2232 34.7705 58.4589C34.3421 58.6624 33.9137 58.8873 33.4746 59.0801C32.7677 59.4335 32.0608 59.2943 31.5039 58.7373Z" fill="#767373"/>
<path d="M51.9269 30.4725C49.7848 32.9572 47.6321 35.4313 45.49 37.9161C45.3079 37.8947 45.1794 37.7876 45.0402 37.6912C41.8271 35.2814 38.6033 32.8823 35.3902 30.4725C33.2696 28.8659 31.149 27.2594 29.0391 25.6528C29.7138 24.9674 30.3457 24.207 31.0954 23.6072C32.1879 22.7182 33.4088 22.7825 34.6512 23.3608C35.6044 23.8 36.5898 24.1534 37.5644 24.5497C38.5605 24.9781 39.5672 25.4065 40.574 25.8242C40.6383 25.8456 40.7132 25.8349 40.7882 25.8349C41.1416 26.1562 41.6129 26.2312 42.0306 26.4133C42.609 26.6703 43.1766 26.9488 43.7871 27.1201C44.7724 27.6128 45.8113 27.9877 46.8288 28.4054C46.8931 28.4268 46.968 28.4054 47.0323 28.4054C47.2358 28.7053 47.5892 28.7267 47.8784 28.8552C49.1208 29.3907 50.3846 29.8941 51.6484 30.4082C51.7341 30.4403 51.8305 30.451 51.9269 30.4725Z" fill="#DADADA"/>
<path d="M52.3477 44.7611C53.4401 43.8079 54.5325 42.844 55.6357 41.8908C56.9209 40.7769 58.2062 39.663 59.4807 38.5599C59.5771 38.4742 59.6842 38.4099 59.7913 38.335C60.4553 39.9094 61.1086 41.4945 61.762 43.0689C61.8155 43.2081 61.8262 43.3795 62.0297 43.4009C61.9012 43.5509 62.0083 43.7008 62.0619 43.8293C62.3725 44.5897 62.6831 45.3502 63.0151 46.1106C63.1008 46.3034 63.1008 46.5283 63.315 46.6568C63.4435 47.3851 63.829 48.0277 64.0968 48.7132C64.2682 49.1416 64.386 49.6021 64.6644 49.9877C64.9536 50.9302 65.3927 51.8085 65.7462 52.7295C65.6391 52.7724 65.6391 52.8795 65.6177 52.9759C65.5106 53.4257 65.3178 53.8434 64.9965 54.1754C64.2575 54.9359 63.5077 55.6749 62.758 56.4139C62.4046 56.7566 61.9869 56.8209 61.4942 56.703C60.8409 56.5424 60.5946 55.9747 60.2518 55.5249C57.9063 52.4189 55.5822 49.3023 53.2687 46.1642C52.9581 45.7143 52.519 45.318 52.3477 44.7611Z" fill="#DADADA"/>
<path d="M52.3456 44.7607C52.5277 45.3177 52.9561 45.714 53.2881 46.1638C55.6015 49.2912 57.9256 52.4186 60.2712 55.5245C60.6139 55.9744 60.8602 56.542 61.5136 56.7027C62.0062 56.8205 62.4239 56.7562 62.7774 56.4135C63.5271 55.6745 64.2768 54.9248 65.0158 54.1751C65.3371 53.843 65.5299 53.4253 65.637 52.9755C65.6584 52.8791 65.6584 52.772 65.7655 52.7292C65.8405 52.8791 65.9048 53.0183 65.9797 53.1683C66.3867 54.1858 66.8044 55.1925 67.2114 56.2207C67.7148 57.4952 67.447 58.6305 66.526 59.6052C65.9476 60.2156 65.3371 60.8047 64.7481 61.3938C63.9555 62.1756 63.0451 62.1221 62.3704 61.2224C61.6849 60.312 61.0209 59.3909 60.3354 58.4806C58.0006 55.3532 55.6658 52.2365 53.3309 49.1091C52.5491 48.0595 51.7672 47.0099 50.9961 45.9603C51.3924 45.5212 51.8743 45.1463 52.3456 44.7607Z" fill="#CECECE"/>
<path d="M29.0411 25.6523C31.1617 27.2589 33.2716 28.8654 35.3922 30.4612C38.6053 32.8711 41.8291 35.2702 45.0422 37.68C45.1814 37.7871 45.3099 37.8942 45.492 37.9049C45.085 38.3654 44.6887 38.8152 44.2817 39.2758C40.2118 36.2448 36.1312 33.2031 32.0613 30.1721C31.0974 29.4545 30.1442 28.7476 29.1803 28.03C28.2164 27.3231 28.1628 26.3592 29.0411 25.6523Z" fill="#CECECE"/>
<path d="M34.6415 50.7032C34.0631 51.6136 33.4848 52.5346 32.9171 53.445C32.7458 53.7235 32.5744 54.002 32.4031 54.2804C30.5716 52.8988 28.7509 51.4958 26.9087 50.1356C26.3196 49.6964 25.7841 49.1823 25.1094 48.8717C25.7199 48.1434 26.416 47.5651 27.4442 47.5865C27.7976 47.5972 28.1082 47.7043 28.4188 47.8436C30.4538 48.7646 32.478 49.6857 34.5023 50.6068C34.5451 50.6389 34.5879 50.6711 34.6415 50.7032Z" fill="#DADADA"/>
<path d="M34.7812 58.4893C35.1668 58.2537 35.5524 58.0288 35.9701 57.8574C36.3664 58.3822 36.7412 58.9177 37.1589 59.4211C37.6409 60.0102 38.2835 60.2244 39.0332 60.0744C39.89 59.9138 40.3399 59.2069 40.8754 58.6393C41.1539 58.8535 41.1967 59.2069 41.3359 59.4961C41.7108 60.2779 42.0535 61.0812 42.4177 61.8631C42.8675 62.8377 42.7283 63.7266 42.0428 64.5192C41.7322 64.8834 41.3788 65.2261 41.0146 65.5474C40.6398 65.8687 40.297 65.8151 39.9971 65.4189C39.0332 64.1336 38.0693 62.8484 37.1054 61.5632C36.3235 60.5243 35.5524 59.5068 34.7812 58.4893Z" fill="#CECECE"/>
<path d="M40.8701 58.6295C40.3239 59.2078 39.8848 59.904 39.028 60.0646C38.2783 60.2039 37.6356 59.9897 37.1537 59.4113C36.736 58.9079 36.3611 58.3724 35.9648 57.8476C37.1751 57.0979 38.3961 56.3589 39.5742 55.5449C39.9598 56.4232 40.3453 57.3014 40.7309 58.1796C40.7845 58.3403 40.8809 58.4688 40.8701 58.6295Z" fill="#DADADA"/>
<path d="M25.0991 48.873C25.7738 49.1836 26.3094 49.6977 26.8984 50.1369C28.7406 51.4971 30.5613 52.9001 32.3928 54.2817C32.2428 54.6887 32.0179 55.0529 31.7716 55.3956C31.0326 54.9993 30.4114 54.4317 29.7366 53.9283C28.1408 52.7394 26.5557 51.5399 24.9706 50.3296C24.3494 49.8477 24.3387 49.5799 24.9063 49.0337C24.9599 48.9801 25.0348 48.9266 25.0991 48.873Z" fill="#CFCFCF"/>
<path d="M40.7785 25.8244C40.7035 25.8244 40.6285 25.8351 40.5643 25.8137C39.5575 25.396 38.5615 24.9676 37.5547 24.5392C38.208 23.8752 38.8613 23.1897 39.5361 22.5364C39.9431 22.1401 40.3608 22.1508 40.7785 22.5364C41.1105 22.847 41.4318 23.1683 41.7424 23.5003C42.1708 23.9501 42.1708 24.3678 41.7424 24.8177C41.4425 25.1604 41.1105 25.4924 40.7785 25.8244Z" fill="#5E5E5E"/>
<path d="M47.0304 28.3945C46.9554 28.3945 46.8804 28.4159 46.8269 28.3945C45.8094 27.9768 44.7705 27.602 43.7852 27.1093C44.3314 26.5631 44.8669 26.0276 45.4131 25.4813C45.97 24.9351 46.3663 24.9351 46.9018 25.4706C47.191 25.7598 47.4909 26.049 47.7801 26.3489C48.1764 26.7773 48.1764 27.195 47.7801 27.6341C47.5337 27.8911 47.2767 28.1482 47.0304 28.3945Z" fill="#5E5E5E"/>
<path d="M63.3108 46.6565C63.1073 46.5387 63.0966 46.303 63.0109 46.1102C62.6789 45.3498 62.3683 44.5894 62.0577 43.829C62.0042 43.6897 61.8971 43.5505 62.0256 43.4005C62.2291 43.2078 62.4326 43.0043 62.6468 42.8115C63.0324 42.4688 63.4179 42.4473 63.7928 42.7794C64.1891 43.1328 64.5639 43.4969 64.9067 43.8932C65.2601 44.3002 65.2173 44.7179 64.8103 45.1356C64.3176 45.6497 63.8142 46.1531 63.3108 46.6565Z" fill="#5F5F5F"/>
<path d="M61.3567 29.5086C60.7462 28.7374 59.9322 28.3519 58.979 28.234C58.8505 28.2126 58.722 28.1912 58.6042 28.1484C58.2507 28.0305 58.1222 27.7628 58.1757 27.4094C58.2293 27.0452 58.5078 26.8417 58.8398 26.8846C60.05 27.0131 61.1746 27.3879 62.0314 28.309C61.8279 28.716 61.6352 29.1444 61.3567 29.5086Z" fill="#FDFDFD"/>
<path d="M61.3555 29.5081C61.6339 29.144 61.8267 28.7263 62.0302 28.3086C62.0516 28.3086 62.0838 28.3193 62.1052 28.3193C62.8335 29.1547 63.2298 30.14 63.3583 31.2432C63.4118 31.6395 63.2191 32.0143 62.887 32.0786C62.4479 32.175 62.1052 31.9394 62.0302 31.4788C61.9445 30.8898 61.8267 30.3114 61.5054 29.7866C61.4626 29.7116 61.3983 29.6581 61.3555 29.5938C61.3555 29.5617 61.3555 29.5296 61.3555 29.5081Z" fill="#DADADA"/>
</svg>
