<svg width="96" height="109" viewBox="0 0 96 109" fill="none" xmlns="http://www.w3.org/2000/svg">
<path d="M58.4714 91.9129C57.9919 91.9129 57.7098 92.2232 57.3713 92.4771C54.7198 94.3952 52.0965 96.2851 49.2193 97.8647C48.6834 97.8083 48.5423 97.3852 48.5141 96.9621C48.4295 93.3233 48.3449 89.6563 48.5705 86.0175C48.5705 85.9611 48.627 85.8765 48.6552 85.82C50.5169 83.2814 53.3376 81.8428 55.6789 79.84C61.8281 74.5934 67.4979 68.9519 71.5598 61.8999C74.0985 57.4995 75.5935 52.7889 75.5371 47.6269C75.4806 40.716 75.5089 33.8051 75.5371 26.8942C75.5371 25.5967 75.114 24.8633 73.901 24.2991C66.285 20.8578 58.6971 17.4164 51.081 14.0033C49.8117 13.4392 49.5014 13.6084 49.5014 15.0188C49.5014 19.8141 49.4168 24.6094 49.5296 29.4047C49.586 31.069 49.0501 32.4229 48.1192 33.6923C47.273 34.877 46.3985 36.0053 45.5523 37.19C45.0446 37.9234 44.3676 38.3747 43.5496 38.6286C42.3366 39.0235 41.1519 39.4184 39.939 39.8415C38.6414 40.2929 38.5286 40.6314 39.2902 41.7315C40.08 42.8598 40.8698 43.9881 41.6879 45.0882C42.111 45.6241 42.252 46.1883 42.252 46.837C42.252 48.3038 42.2238 49.7989 42.252 51.2657C42.2802 52.394 42.6187 52.6478 43.7188 52.3658C44.9317 52.0273 46.1165 51.5477 47.3294 51.2092C47.8936 51.04 48.4577 50.7579 49.0501 51.2092C49.1347 51.3221 49.1911 51.4349 49.2193 51.5477C49.4168 52.1683 49.445 52.7889 49.445 53.4376C49.445 63.3667 49.445 73.3241 49.445 83.2532C49.445 83.9583 49.4732 84.6635 49.1065 85.3123C48.5987 86.1867 48.0346 85.7072 47.5269 85.3687C45.6087 84.0148 43.7188 82.5762 41.9135 81.0529C39.2338 78.7963 36.5823 76.5397 34.1846 74.001C30.2356 69.8263 26.6532 65.4259 24.1145 60.2075C22.281 56.4277 21.2091 52.4786 21.2937 48.191C21.4348 40.9981 21.3783 33.8051 21.2937 26.6122C21.2655 24.9479 21.8297 24.0735 23.3247 23.4247C27.9225 21.4501 32.464 19.3064 37.0054 17.2754C40.3621 15.7804 43.6624 14.229 47.0191 12.734C47.9782 12.3109 48.4013 11.6339 48.3731 10.5902C48.3449 7.93867 48.3449 5.31536 48.3731 2.66384C48.3731 2.04327 48.3167 1.36629 49.1347 1.14062C53.3094 3.00233 57.4842 4.86404 61.6589 6.75395C69.557 10.3081 77.4552 13.9187 85.3533 17.4729C86.1714 17.8396 86.5099 18.2627 86.5099 19.1935C86.4816 29.038 86.5381 38.8543 86.4816 48.6988C86.4534 55.3276 84.4225 61.4486 81.2068 67.203C80.9247 67.6825 80.558 68.1338 80.558 68.7544C80.3042 70.2494 79.3169 71.3213 78.4707 72.4778C76.4115 75.3268 74.1267 78.0065 71.729 80.5734C68.0338 84.5225 63.9437 87.992 59.769 91.377C59.4869 91.6308 59.0638 91.9693 58.4714 91.9129Z" fill="#929292"/>
<path d="M48.9945 85.5665C48.9945 89.1771 48.9945 92.8158 48.9945 96.4264C48.9945 96.906 48.9381 97.4137 49.2202 97.865C48.656 98.1189 48.2893 97.6676 47.8944 97.4419C45.1301 95.7777 42.4503 93.9442 39.8834 92.026C39.4885 91.744 39.15 91.3773 38.6141 91.2926C37.9089 91.3773 37.514 90.8695 37.0627 90.5028C33.3393 87.541 29.7569 84.41 26.4566 80.9686C23.0153 77.358 19.8842 73.5218 17.2609 69.2624C16.9224 68.7265 16.7532 68.1906 16.6403 67.5982C16.2172 66.0186 15.2299 64.6928 14.6094 63.1978C12.4938 58.3461 11.2809 53.3533 11.3091 48.0221C11.3373 38.4315 11.3373 28.8691 11.3091 19.2785C11.3091 18.2348 11.6758 17.7552 12.6066 17.3321C23.4384 12.4804 34.2419 7.57228 45.0454 2.66415C46.0609 2.21282 47.1046 1.73329 48.1201 1.28197C48.4586 1.14093 48.7971 0.858855 49.2202 1.08452C48.9381 1.53584 48.9663 2.01537 48.9663 2.52311C48.9663 5.40029 48.9381 8.30568 48.9663 11.1829C48.9663 12.0573 48.6842 12.5368 47.8944 12.9035C42.1965 15.4704 36.5267 18.0373 30.857 20.6042C28.2055 21.8172 25.5257 23.0301 22.8742 24.2148C22.169 24.5251 21.8869 24.9764 21.8869 25.7662C21.9152 34.0593 21.8305 42.3523 21.9434 50.6172C21.9998 53.9457 23.2409 57.0203 24.7077 59.9821C26.8797 64.3825 29.8133 68.2188 33.0854 71.8575C37.4012 76.6529 42.3375 80.7148 47.4995 84.551C47.9508 84.9177 48.4868 85.228 48.9945 85.5665Z" fill="#ADADAD"/>
<path d="M16.667 67.5986C17.6825 68.5295 18.1902 69.7706 18.9236 70.8707C23.8036 78.0355 29.8964 84.0437 36.6098 89.4314C37.315 89.9955 38.1331 90.4468 38.6408 91.2649C36.2149 95.4114 33.7891 99.5579 31.3632 103.704C30.4606 105.199 29.5579 106.723 28.6271 108.218C28.0347 109.177 28.0347 109.205 27.4424 108.246C24.8472 104.043 22.2239 99.8682 19.657 95.6371C19.1775 94.819 18.6416 94.5652 17.7107 94.5934C12.4641 94.7908 7.21746 94.9036 1.97083 95.0447C1.66055 95.0447 1.23743 95.1857 1.06819 94.9319C0.842524 94.5934 1.23743 94.2831 1.37847 94.001C6.45585 85.2566 11.5614 76.4276 16.667 67.5986Z" fill="#676767"/>
<path d="M58.4727 91.913C59.2343 90.8694 60.3626 90.2488 61.3498 89.459C68.571 83.62 75.0588 77.104 80.0797 69.2341C80.2208 69.0084 80.3618 68.7263 80.6721 68.6699C85.7213 77.4425 90.7986 86.1869 95.876 94.9877C93.7887 94.9877 91.8705 95.0159 89.9242 94.9877C86.229 94.9031 82.5338 94.7902 78.8386 94.6492C77.9642 94.621 77.5128 94.9313 77.0897 95.6365C74.5228 99.8394 71.9277 104.014 69.3326 108.217C68.6838 109.261 68.6838 109.261 68.0633 108.217C67.894 107.907 67.6966 107.625 67.4991 107.343C64.8476 102.801 62.1679 98.2316 59.5163 93.6901C59.1496 93.0696 58.8111 92.5054 58.4727 91.913Z" fill="#353535"/>
<path d="M48.9921 85.5663C48.9921 74.1422 48.9921 62.7181 48.9921 51.294C49.4152 50.8145 49.8948 51.0119 50.3461 51.153C51.559 51.5197 52.7719 51.8864 53.9849 52.2531C55.085 52.5915 55.3953 52.3377 55.4235 51.1812C55.4517 49.8554 55.4517 48.5014 55.4235 47.1757C55.3953 46.3294 55.6773 45.596 56.1851 44.9191C57.0313 43.819 57.7929 42.6907 58.5827 41.5623C59.2879 40.5751 59.1469 40.2084 57.9904 39.7853C56.8338 39.3621 55.6773 38.9672 54.4644 38.6287C53.3925 38.3185 52.6027 37.7543 51.9821 36.8235C51.2487 35.7516 50.5717 34.6515 49.6127 33.7206C49.387 34.1437 49.4716 34.5386 49.4716 34.9335C49.4716 39.7853 49.4716 44.6652 49.4716 49.5169C49.4716 50.1375 49.5845 50.8145 48.9639 51.2658C46.933 51.8864 44.902 52.4787 42.8993 53.1275C42.0248 53.4096 41.7427 53.1275 41.771 52.2813C41.7992 50.5888 41.7427 48.8963 41.7992 47.2039C41.8274 46.3294 41.5735 45.6525 41.0376 44.9755C40.0503 43.6779 39.1476 42.324 38.1886 41.0546C37.6526 40.3212 37.6526 39.9545 38.6117 39.6724C40.1631 39.2211 41.6863 38.6287 43.2378 38.1774C44.1404 37.9236 44.7892 37.4158 45.3251 36.6542C46.3124 35.2438 47.3561 33.8617 48.3998 32.4795C48.8511 31.8871 48.9921 31.2383 48.9921 30.5049C48.9921 25.0044 48.9921 19.5039 48.9921 14.0035C48.9921 12.5931 49.1614 12.5084 50.4025 13.0726C58.5545 16.7678 66.7065 20.463 74.8585 24.13C75.7048 24.4967 76.0997 24.9762 76.0715 25.9635C76.0433 33.777 76.1279 41.6188 76.0151 49.4323C75.9586 54.0019 74.3226 58.2049 72.066 62.1257C68.5964 68.1904 63.914 73.2113 58.7238 77.8374C55.6491 80.6018 52.4052 83.1969 48.9921 85.5663Z" fill="#868686"/>
<path d="M48.9922 51.2658C48.9922 44.9472 48.9922 38.6287 48.9922 32.3384C49.105 32.3102 49.2179 32.282 49.3025 32.2256C50.0923 33.2693 50.9667 34.2847 51.6437 35.4131C52.6028 36.9927 53.8439 38.0928 55.7056 38.4877C56.8621 38.7416 57.9904 39.2211 59.1187 39.5878C60.2753 39.9827 60.3317 40.1237 59.6547 41.0828C58.6392 42.4932 57.6519 43.8754 56.6083 45.2575C56.1569 45.8499 55.9595 46.4705 55.9877 47.2039C56.0159 48.8963 55.9595 50.5888 56.0159 52.2812C56.0441 53.1839 55.7056 53.3813 54.8594 53.0993C52.8848 52.4787 50.9385 51.8863 48.9922 51.2658Z" fill="#727272"/>
<path d="M56.9883 28.1737C59.5658 27.433 62.2025 26.9294 64.8985 26.6924C64.9874 26.6924 65.1059 26.722 65.1651 26.6035C65.6391 26.6035 66.1132 26.6035 66.5872 26.6035C66.7649 26.722 67.0019 26.7516 67.1205 26.959C65.6688 28.3811 64.2171 29.8031 62.8246 31.2845C62.3803 31.7585 61.9655 32.2325 61.4618 32.6176C61.373 32.5288 61.2841 32.4695 61.1952 32.3806C59.8917 31.0771 58.5585 29.7735 57.2549 28.4403C57.1364 28.3811 57.0475 28.3218 56.9883 28.1737Z" fill="#BCBCBC"/>
<path d="M56.9851 28.1738C57.0147 28.2923 57.1332 28.3812 57.2221 28.4405C58.5257 29.744 59.8292 31.0772 61.1624 32.3808C61.2513 32.4696 61.3402 32.5289 61.429 32.6178C61.429 32.6474 61.429 32.677 61.429 32.677C61.3994 32.7066 61.3698 32.7066 61.3402 32.7363C60.007 34.0695 58.6738 35.4026 57.3406 36.7358C57.2517 36.8247 57.1925 36.8839 57.1925 37.0321C57.1629 37.0024 57.1036 36.9728 57.074 36.9728C55.9482 35.8174 54.5854 35.4619 53.0152 35.6693C50.6747 35.9952 48.8675 38.3949 49.1638 40.7354C49.2823 41.8315 49.7563 42.7499 50.4673 43.5498C50.4673 43.698 50.3488 43.7869 50.2599 43.8757C48.3342 45.8014 46.4382 47.7271 44.5125 49.6232C44.4236 49.7121 44.3347 49.8306 44.1866 49.8306C42.409 48.053 40.6018 46.2755 38.8242 44.4683C39.7723 42.0093 41.0166 39.6984 42.5868 37.595C42.8238 37.2691 43.12 37.0024 43.2978 36.6173C43.6829 36.2025 44.0977 35.8174 44.4828 35.4026C45.0457 34.7805 45.6383 34.2472 46.29 33.7139C47.4751 32.7363 48.7194 31.8771 50.0526 31.1068C51.4746 30.3069 52.9263 29.5959 54.4669 29.033C55.2668 28.7367 56.1259 28.4405 56.9851 28.1738Z" fill="#ECECEC"/>
<path d="M44.1569 49.8603C44.305 49.8603 44.3939 49.7418 44.4828 49.6529C46.4085 47.7272 48.3342 45.8311 50.2303 43.9054C50.3192 43.8165 50.4377 43.7277 50.4377 43.5795H50.4673H50.4969C50.5266 43.6092 50.5266 43.6388 50.5562 43.6684C52.0079 44.972 53.6966 45.3571 55.5334 44.6164C57.3406 43.8758 58.3183 42.4537 58.4368 40.528C58.5256 39.1948 58.022 38.0691 57.1628 37.0914C57.1628 36.9729 57.2221 36.884 57.311 36.7951C58.6441 35.4619 59.9773 34.1288 61.3105 32.7956C61.3401 32.766 61.3698 32.766 61.3994 32.7363C62.6733 34.0103 63.9472 35.2842 65.2212 36.5285C65.4286 36.7359 65.6063 36.9433 65.8433 37.0914C65.2804 39.0763 64.5398 41.002 63.5917 42.8389C62.6141 44.7646 61.429 46.5422 60.0366 48.1716C59.2959 49.0308 58.496 49.8603 57.5776 50.5713C57.4887 50.6306 57.4295 50.7491 57.3702 50.8083C57.311 50.838 57.2221 50.8972 57.1628 50.9565C54.852 52.8525 52.3041 54.245 49.5193 55.3115C47.7713 53.5636 46.0234 51.786 44.2754 50.0381C44.2162 49.9788 44.1569 49.9492 44.0977 49.8899C44.1569 49.8899 44.1569 49.8899 44.1569 49.8603Z" fill="#E3E3E3"/>
<path d="M43.2703 36.6464C43.0926 37.0316 42.7963 37.2982 42.5593 37.6241C40.9891 39.7572 39.7448 42.0384 38.7968 44.4974C38.2339 45.0603 37.671 45.5936 37.1081 46.1565C35.1231 46.0379 33.1678 45.8898 31.1828 45.7713C30.9755 45.7713 30.7384 45.7417 30.5311 45.7121C29.6423 45.5936 29.2275 44.7344 29.6719 43.9641C29.9385 43.4901 30.2644 43.0457 30.5903 42.6013C32.5753 40.0238 34.975 38.0389 38.145 37.0612C39.7152 36.5575 41.3446 36.439 42.9741 36.6168C43.0333 36.6464 43.1518 36.6464 43.2703 36.6464Z" fill="#868686"/>
<path d="M49.5809 55.3108C52.3362 54.2443 54.9137 52.8222 57.2245 50.9557C57.2838 50.8965 57.3726 50.8669 57.4319 50.8076C57.6393 52.5556 57.5208 54.2739 57.0171 55.933C56.2469 58.4512 54.7655 60.525 52.8695 62.3322C52.0696 63.1025 51.1808 63.7543 50.2624 64.3468C49.3143 64.9393 48.4551 64.4949 48.3663 63.3988C48.2181 61.6212 48.1293 59.8436 48.0108 58.066C47.9811 57.7105 47.9515 57.355 47.9219 56.9995C48.4848 56.4366 49.0477 55.8737 49.5809 55.3108Z" fill="#626262"/>
<path d="M37.078 46.1561C37.6409 45.5932 38.2038 45.06 38.7667 44.4971C40.5443 46.2746 42.3515 48.0522 44.129 49.8594C44.129 49.889 44.129 49.889 44.129 49.9187C44.0105 50.1261 43.8328 50.2742 43.655 50.4223C42.4107 51.6666 41.1664 52.9109 39.8925 54.1552C39.7444 54.1256 39.6851 53.9775 39.5962 53.8886C38.4704 52.7628 37.315 51.637 36.1892 50.5112C35.9226 50.2149 35.6559 49.9483 35.3597 49.652C34.7968 49.0595 34.7968 48.4374 35.3597 47.8448C35.9522 47.2819 36.5151 46.719 37.078 46.1561Z" fill="#373737"/>
<path d="M39.948 54.1565C41.1923 52.9122 42.4366 51.6679 43.7105 50.4236C43.8883 50.2458 44.066 50.1273 44.1846 49.9199C44.2438 49.9792 44.3031 50.0088 44.3623 50.0681C46.1103 51.816 47.8582 53.5936 49.6062 55.3415C49.0433 55.9044 48.51 56.4673 47.9471 57.0302C47.4138 57.5635 46.8509 58.0968 46.3176 58.63C45.6362 59.2818 45.0437 59.2818 44.3623 58.63C44.0957 58.393 43.8587 58.1264 43.592 57.8894C42.407 56.6451 41.1923 55.4304 39.948 54.2453C39.9184 54.1861 39.9184 54.1861 39.948 54.1565Z" fill="#101010"/>
<path d="M39.9245 54.2148C41.1688 55.3999 42.3834 56.6146 43.5685 57.8589C41.9094 59.5179 39.9245 60.5252 37.7025 61.177C36.3397 61.5918 34.9769 61.8288 33.5548 61.9177C33.1401 61.9473 32.7253 61.9177 32.4883 61.5029C32.5772 61.4436 32.6364 61.3844 32.7253 61.3251C34.3844 59.6957 36.0138 58.0663 37.6432 56.4664C38.4135 55.6962 39.1838 54.9555 39.9245 54.2148Z" fill="#BCBCBC"/>
<path d="M39.9213 54.2153C39.151 54.956 38.4103 55.6966 37.64 56.4669C36.0106 58.0964 34.3515 59.7258 32.7221 61.3256C32.6628 61.3849 32.5739 61.4441 32.4851 61.5034C32.1888 61.296 32.1296 60.9701 32.1592 60.6739C32.2481 58.8074 32.6036 56.9706 33.2553 55.2226C33.9071 53.445 34.8552 51.8452 36.218 50.4824C37.3438 51.6082 38.4992 52.734 39.625 53.8598C39.7139 53.9487 39.8027 54.0672 39.9213 54.1265C39.9213 54.1857 39.9213 54.1857 39.9213 54.2153Z" fill="#E5E5E5"/>
<path d="M65.9049 37.0915C65.6679 36.9433 65.4901 36.7063 65.2827 36.5286C64.0088 35.2547 62.7349 33.9807 61.4609 32.7364C61.4609 32.7068 61.4609 32.6772 61.4609 32.6772C61.9646 32.2624 62.3793 31.7884 62.8237 31.344C64.2162 29.8627 65.6679 28.4406 67.1195 27.0186C67.3269 27.1667 67.3862 27.4037 67.3862 27.6703C67.4454 30.7811 66.8233 33.803 65.9937 36.7952C65.9641 36.8545 65.9345 36.973 65.9049 37.0915Z" fill="#626262"/>
<path d="M50.5275 43.5508H50.4979H50.4682C49.7572 42.7509 49.3128 41.8325 49.1647 40.7363C48.8684 38.3959 50.6756 35.9961 53.0161 35.6702C54.5863 35.4332 55.9491 35.8184 57.0749 36.9738C56.6305 37.5663 56.0676 38.07 55.5047 38.5736C55.4751 38.5736 55.4454 38.5736 55.4454 38.5736C54.4381 37.6552 53.0457 37.6848 52.1273 38.6329C51.2385 39.5513 51.2681 40.9733 52.1866 41.8918C52.1866 41.9214 52.1866 41.9214 52.1866 41.951C52.068 42.0399 51.9792 42.1584 51.8607 42.2473C51.3866 42.6917 51.0015 43.1657 50.5275 43.5508Z" fill="#383838"/>
<path d="M50.5273 43.5503C51.031 43.1652 51.4161 42.6912 51.8605 42.2764C51.979 42.1875 52.0679 42.069 52.1864 41.9801C52.2753 42.0394 52.3642 42.0986 52.453 42.1875C53.3122 42.7504 54.1714 42.78 55.0602 42.2764C55.8304 41.832 56.2452 40.884 56.1267 39.9656C56.0675 39.4323 55.7712 39.0471 55.5046 38.6027C56.0675 38.0991 56.6304 37.5955 57.0747 37.0029C57.1044 37.0326 57.1636 37.0622 57.1932 37.0622C58.0524 38.0398 58.5561 39.1953 58.4672 40.4988C58.319 42.4542 57.371 43.8762 55.5638 44.5872C53.727 45.3279 52.0679 44.9428 50.5866 43.6392C50.557 43.6096 50.557 43.58 50.5273 43.5503Z" fill="#111111"/>
<path d="M55.5056 38.5726C55.7723 38.9874 56.0685 39.4021 56.1278 39.9354C56.2463 40.8538 55.8315 41.8019 55.0612 42.2462C54.1725 42.7499 53.3133 42.7499 52.4541 42.1574C52.3653 42.0981 52.2764 42.0389 52.1875 41.95C52.1875 41.9204 52.1875 41.9204 52.1875 41.8907C52.2764 41.7722 52.3653 41.6537 52.4838 41.5648C53.4614 40.5576 54.4687 39.5503 55.4464 38.543C55.4464 38.5726 55.476 38.5726 55.5056 38.5726Z" fill="#828282"/>
<path d="M55.4475 38.5718C54.4402 39.5791 53.4625 40.5864 52.4849 41.5937C52.396 41.7122 52.2775 41.8011 52.1886 41.9196C51.2702 41.0012 51.2702 39.5791 52.1293 38.6607C53.0181 37.7127 54.4106 37.6831 55.4475 38.5718Z" fill="#8C8C8C"/>
</svg>
