<svg width="32" height="32" viewBox="0 0 32 32" fill="none" xmlns="http://www.w3.org/2000/svg">
<g clip-path="url(#clip0_3138_434)">
<g opacity="0.3">
<path d="M16.4119 0.808594C16.6901 1.03768 16.9929 1.25041 17.2466 1.51223C18.8914 3.17313 20.8063 4.37586 23.0321 5.0795C24.3332 5.48859 25.6753 5.70132 27.0418 5.71768C27.8029 5.72586 28.1384 6.06949 28.1384 6.8304C28.1384 9.78404 28.1384 12.7377 28.1384 15.6913C28.1302 22.654 24.2187 28.7331 17.8767 31.6131C17.4512 31.8095 17.0175 31.9976 16.5674 32.1286C16.3219 32.2022 16.0028 32.2186 15.7736 32.1286C9.70171 29.8295 5.94563 25.5013 4.54631 19.1686C4.30081 18.0722 4.23535 16.9186 4.21898 15.7895C4.17807 12.7949 4.20262 9.8004 4.20262 6.80586C4.20262 6.08586 4.54631 5.73404 5.26643 5.72586C9.08797 5.65222 12.3367 4.25314 15.0453 1.56132C15.3154 1.29132 15.6263 1.06223 15.9209 0.816774C16.0846 0.808592 16.2482 0.808594 16.4119 0.808594ZM7.87686 16.4522C7.87686 21.0095 11.592 24.7322 16.1419 24.7404C20.7163 24.7486 24.4396 21.0258 24.4396 16.4604C24.4396 11.9031 20.7326 8.18858 16.1746 8.17222C11.6084 8.16404 7.87686 11.8868 7.87686 16.4522Z" fill="white"/>
<path d="M16.1507 22.9C12.6074 22.8919 9.71875 19.9955 9.71875 16.4528C9.71875 12.8937 12.6238 10.0055 16.1916 10.0137C19.735 10.0219 22.6154 12.9264 22.6072 16.4773C22.5991 20.02 19.7022 22.9082 16.1507 22.9ZM14.9232 18.2282C14.3259 17.631 13.7612 17.05 13.1966 16.4773C12.9429 16.2237 12.6401 16.0928 12.2801 16.1746C11.5518 16.3546 11.3227 17.1973 11.8546 17.7455C12.6156 18.531 13.4012 19.2919 14.1704 20.0691C14.6778 20.5764 15.1769 20.5764 15.6925 20.0691C16.3389 19.431 16.9772 18.7846 17.6237 18.1382C18.5566 17.2055 19.4895 16.2728 20.4223 15.34C20.6842 15.0782 20.8315 14.7755 20.7333 14.3991C20.5533 13.6628 19.7022 13.4582 19.1376 14.0146C17.8201 15.3237 16.5026 16.641 15.1851 17.9582C15.1196 18.04 15.0378 18.1137 14.9232 18.2282Z" fill="white"/>
</g>
</g>
<defs>
<clipPath id="clip0_3138_434">
<rect width="32" height="32" fill="white"/>
</clipPath>
</defs>
</svg>
