<svg width="21" height="21" viewBox="0 0 21 21" fill="none" xmlns="http://www.w3.org/2000/svg">
<path d="M13.0129 14.5219C12.9805 14.5458 12.9567 14.5633 12.9355 14.5808C11.0412 15.9665 8.94527 16.4579 6.63291 16.0374L6.63287 16.0374C3.54832 15.4773 0.982922 12.9754 0.341898 9.89993C0.286497 9.62179 0.244492 9.34021 0.20192 9.05482C0.184995 8.94136 0.167981 8.82731 0.15 8.71262V8.71132V8.70915V8.70698V8.70481V8.70265V8.70048V8.69831V8.69614V8.69397V8.6918V8.68963V8.68746V8.6853V8.68313V8.68096V8.67879V8.67662V8.67445V8.67228V8.67011V8.66795V8.66578V8.66361V8.66144V8.65927V8.6571V8.65493V8.65277V8.6506V8.64843V8.64626V8.64409V8.64192V8.63975V8.63758V8.63542V8.63325V8.63108V8.62891V8.62674V8.62457V8.6224V8.62023V8.61807V8.6159V8.61373V8.61156V8.60939V8.60722V8.60505V8.60289V8.60072V8.59855V8.59638V8.59421V8.59204V8.58987V8.5877V8.58554V8.58337V8.5812V8.57903V8.57686V8.57469V8.57252V8.57035V8.56819V8.56602V8.56385V8.56168V8.55951V8.55734V8.55517V8.55301V8.55084V8.54867V8.5465V8.54433V8.54216V8.53999V8.53782V8.53566V8.53349V8.53132V8.52915V8.52698V8.52481V8.52264V8.52048V8.51831V8.51614V8.51397V8.5118V8.50963V8.50746V8.50529V8.50313V8.50096V8.49879V8.49662V8.49445V8.49228V8.49011V8.48794V8.48578V8.48361V8.48144V8.47927V8.4771V8.47493V8.47276V8.4706V8.46843V8.46626V8.46409V8.46192V8.45975V8.45758V8.45541V8.45325V8.45108V8.44891V8.44674V8.44457V8.4424V8.44023V8.43806V8.4359V8.43373V8.43156V8.42939V8.42722V8.42505V8.42288V8.42072V8.41855V8.41638V8.41421V8.41204V8.40987V8.4077V8.40553V8.40337V8.4012V8.39903V8.39686V8.39469V8.39252V8.39035V8.38819V8.38602V8.38385V8.38168V8.37951V8.37734V8.37517V8.373V8.37084V8.36867V8.3665V8.36433V8.36216V8.35999V8.35782V8.35565V8.35349V8.35132V8.34915V8.34698V8.34481V8.34264V8.34047V8.33831V8.33614V8.33397V8.3318V8.32963V8.32746V8.32529V8.32312V8.32096V8.31879V8.31662V8.31445V8.31228V8.31011V8.30794V8.30577V8.30361V8.30144V8.29927V8.2971V8.29493V8.29276V8.29059V8.28843V8.28626V8.28409V8.28192V8.27975V8.27758V8.27541V8.27324V8.27108V8.26891V8.26674V8.26457V8.2624V8.26023V8.25806V8.25589V8.25373V8.25156V8.24939V8.24722V8.24505V8.24288V8.24071V8.23855V8.23638V8.23421V8.23204V8.22987V8.2277V8.22553V8.22336V8.2212V8.21903V8.21686V8.21469V8.21252V8.21035V8.20818V8.20602V8.20385V8.20168V8.19951V8.19734V8.19517V8.193V8.19083V8.18867V8.1865V8.18433V8.18216V8.17999V8.17782V8.17565V8.17348V8.17132V8.16915V8.16698V8.16481V8.16264V8.16047V8.1583V8.15614V8.15397V8.1518V8.14963V8.14746V8.14529V8.14312V8.14095V8.13879V8.13662V8.13445V8.13228V8.13011V8.12794V8.12577V8.1236V8.12144V8.11927V8.1171V8.11493V8.11276V8.11059V8.10842V8.10626V8.10409V8.10192V8.09975V8.09758V8.09541V8.09324V8.09107V8.08891V8.08674V8.08457V8.0824V8.08023V8.07806V8.07589V8.07372V8.07156V8.06939V8.06722V8.06505V8.06288V8.06071V8.05854V8.05638V8.05421V8.05204V8.04987V8.0477V8.04553V8.04336V8.04119V8.03903V8.03686V8.03469V8.03252V8.03035V8.02818V8.02601V8.02384V8.02168V8.01951V8.01734V8.01517V8.013V8.01083V8.00866V8.0065V8.00433V8.00216V7.99999V7.99782V7.99565V7.99348V7.99131V7.98915V7.98698V7.98481V7.98264V7.98047V7.9783V7.97613V7.97397V7.9718V7.96963V7.96746V7.96529V7.96312V7.96095V7.95878V7.95662V7.95445V7.95228V7.95011V7.94794V7.94577V7.9436V7.94143V7.93927V7.9371V7.93493V7.93276V7.93059V7.92842V7.92625V7.92409V7.92192V7.91975V7.91758V7.91541V7.91324V7.91107V7.9089V7.90674V7.90457V7.9024V7.90023V7.89806V7.89589V7.89372V7.89155V7.88939V7.88722V7.88505V7.88288V7.88071V7.87854V7.87637V7.87421V7.87204V7.86987V7.8677V7.86553V7.86336V7.86119V7.85902V7.85686V7.85469V7.85252V7.85035V7.84818V7.84601V7.84384V7.84168V7.83951V7.83734V7.83517V7.833V7.83083V7.82866V7.82649V7.82433V7.82216V7.81999V7.81782V7.81565V7.81348V7.81131V7.80914V7.80698V7.80481V7.80264V7.80047V7.7983V7.79613V7.79396V7.7918V7.78963V7.78746V7.78529V7.78312V7.78095V7.77878V7.77661V7.77445V7.77228V7.77011V7.76794V7.76577V7.7636V7.76143V7.75926V7.7571V7.75493V7.75276V7.75059V7.74842V7.74625V7.74408V7.74192V7.73975V7.73758V7.73541V7.73324V7.73107V7.7289V7.72673V7.72457V7.7224V7.72023V7.71806V7.71589V7.71372V7.71155V7.70938V7.70722V7.70505V7.70288V7.70071V7.69854V7.69637V7.6942V7.69204V7.68987V7.6877V7.68553V7.68336V7.68119V7.67902V7.67685V7.67469V7.67252V7.67035V7.66818V7.66601V7.66384V7.66167V7.6595V7.65734V7.65517V7.653V7.65083V7.64866V7.64649V7.64432V7.64216V7.63999V7.63782V7.63565V7.63348V7.63131V7.62914V7.62697V7.62554C0.170397 7.49395 0.188929 7.36479 0.207279 7.2369C0.236532 7.03301 0.265319 6.83236 0.300457 6.63031C0.858769 3.56 3.36767 0.975124 6.4098 0.347842C6.66969 0.294332 6.92715 0.256543 7.19017 0.217937C7.33629 0.196489 7.48413 0.174788 7.63507 0.15H7.63539H7.63749H7.63958H7.64168H7.64378H7.64588H7.64797H7.65007H7.65217H7.65427H7.65636H7.65846H7.66056H7.66265H7.66475H7.66685H7.66894H7.67104H7.67314H7.67523H7.67733H7.67943H7.68152H7.68362H7.68571H7.68781H7.6899H7.692H7.69409H7.69619H7.69828H7.70038H7.70247H7.70457H7.70666H7.70876H7.71085H7.71295H7.71504H7.71713H7.71923H7.72132H7.72342H7.72551H7.7276H7.7297H7.73179H7.73388H7.73598H7.73807H7.74016H7.74226H7.74435H7.74644H7.74853H7.75063H7.75272H7.75481H7.7569H7.759H7.76109H7.76318H7.76527H7.76736H7.76945H7.77155H7.77364H7.77573H7.77782H7.77991H7.782H7.78409H7.78619H7.78828H7.79037H7.79246H7.79455H7.79664H7.79873H7.80082H7.80291H7.805H7.80709H7.80918H7.81127H7.81336H7.81545H7.81754H7.81963H7.82172H7.82381H7.8259H7.82799H7.83008H7.83217H7.83426H7.83635H7.83844H7.84052H7.84261H7.8447H7.84679H7.84888H7.85097H7.85306H7.85515H7.85723H7.85932H7.86141H7.8635H7.86559H7.86768H7.86976H7.87185H7.87394H7.87603H7.87812H7.8802H7.88229H7.88438H7.88647H7.88855H7.89064H7.89273H7.89481H7.8969H7.89899H7.90108H7.90316H7.90525H7.90734H7.90942H7.91151H7.9136H7.91569H7.91777H7.91986H7.92194H7.92403H7.92612H7.9282H7.93029H7.93238H7.93446H7.93655H7.93864H7.94072H7.94281H7.94489H7.94698H7.94907H7.95115H7.95324H7.95532H7.95741H7.95949H7.96158H7.96367H7.96575H7.96784H7.96992H7.97201H7.97409H7.97618H7.97826H7.98035H7.98243H7.98452H7.9866H7.98869H7.99077H7.99286H7.99494H7.99703H7.99911H8.0012H8.00328H8.00537H8.00745H8.00954H8.01162H8.01371H8.01579H8.01788H8.01996H8.02205H8.02413H8.02622H8.0283H8.03038H8.03247H8.03455H8.03664H8.03872H8.04081H8.04289H8.04497H8.04706H8.04914H8.05123H8.05331H8.0554H8.05748H8.05956H8.06165H8.06373H8.06581H8.0679H8.06998H8.07207H8.07415H8.07623H8.07832H8.0804H8.08249H8.08457H8.08665H8.08874H8.09082H8.09291H8.09499H8.09707H8.09916H8.10124H8.10332H8.10541H8.10749H8.10958H8.11166H8.11374H8.11583H8.11791H8.11999H8.12208H8.12416H8.12624H8.12833H8.13041H8.13249H8.13458H8.13666H8.13875H8.14083H8.14291H8.145H8.14708H8.14916H8.15125H8.15333H8.15541H8.1575H8.15958H8.16166H8.16375H8.16583H8.16792H8.17H8.17208H8.17417H8.17625H8.17833H8.18042H8.1825H8.18458H8.18667H8.18875H8.19083H8.19292H8.195H8.19709H8.19917H8.20125H8.20334H8.20542H8.2075H8.20959H8.21167H8.21375H8.21584H8.21792H8.22001H8.22209H8.22417H8.22626H8.22834H8.23042H8.23251H8.23459H8.23668H8.23876H8.24084H8.24293H8.24501H8.2471H8.24918H8.25126H8.25335H8.25543H8.25752H8.2596H8.26168H8.26377H8.26585H8.26794H8.27002H8.27211H8.27419H8.27627H8.27836H8.28044H8.28253H8.28461H8.2867H8.28878H8.29086H8.29295H8.29503H8.29712H8.2992H8.30129H8.30337H8.30546H8.30754H8.30963H8.31171H8.3138H8.31588H8.31797H8.32005H8.32214H8.32422H8.32631H8.32839H8.33048H8.33256H8.33465H8.33673H8.33882H8.3409H8.34299H8.34507H8.34716H8.34924H8.35133H8.35342H8.3555H8.35759H8.35967H8.36176H8.36384H8.36593H8.36802H8.3701H8.37219H8.37427H8.37636H8.37845H8.38053H8.38262H8.3847H8.38679H8.38888H8.39096H8.39305H8.39514H8.39722H8.39931H8.4014H8.40348H8.40557H8.40766H8.40974H8.41183H8.41392H8.41601H8.41809H8.42018H8.42227H8.42435H8.42644H8.42853H8.43062H8.4327H8.43479H8.43688H8.43897H8.44106H8.44314H8.44523H8.44732H8.44941H8.4515H8.45358H8.45567H8.45776H8.45985H8.46194H8.46403H8.46611H8.4682H8.47029H8.47238H8.47447H8.47656H8.47865H8.48074H8.48283H8.48492H8.48701H8.4891H8.49119H8.49327H8.49536H8.49745H8.49954H8.50163H8.50372H8.50581H8.5079H8.50999H8.51208H8.51417H8.51626H8.51836H8.52045H8.52254H8.52463H8.52672H8.52881H8.5309H8.53299H8.53508H8.53717H8.53927H8.54136H8.54345H8.54554H8.54763H8.54972H8.55182H8.55391H8.556H8.55809H8.56018H8.56228H8.56437H8.56646H8.56855H8.57065H8.57274H8.57483H8.57693H8.57902H8.58111H8.58321H8.5853H8.58739H8.58949H8.59158H8.59367H8.59577H8.59786H8.59995H8.60205H8.60414H8.60624H8.60833H8.61043H8.61252H8.61462H8.61671H8.61881H8.6209H8.623H8.62509H8.62719H8.62928H8.63138H8.63347H8.63557H8.63767H8.63976H8.64186H8.64395H8.64605H8.64815H8.65024H8.65234H8.65444H8.65653H8.65863H8.66073H8.66283H8.66492H8.66702H8.66912H8.67122H8.67331H8.67541H8.67645C8.69311 0.153743 8.7102 0.158229 8.73028 0.163532L8.73183 0.163941C8.75593 0.170308 8.78465 0.177896 8.81545 0.184078L8.81544 0.184116L8.81881 0.184712C8.98357 0.213896 9.14393 0.237548 9.30149 0.260788C9.58899 0.303194 9.86719 0.344227 10.1459 0.414987C15.1088 1.69157 17.6019 7.33858 15.2077 11.8851L15.2075 11.8855C15.0582 12.1708 14.8864 12.4433 14.7034 12.7337C14.6187 12.868 14.5316 13.0062 14.4432 13.1512L14.3724 13.2673L14.4811 13.3491C14.5021 13.3649 14.5216 13.3784 14.5403 13.3914C14.5732 13.4142 14.6038 13.4354 14.6363 13.4647C16.2789 15.1134 17.9217 16.7623 19.5644 18.4058C19.786 18.6282 19.9785 18.8337 20.0791 19.0986V19.099V19.0998V19.1006V19.1014V19.1021V19.1029V19.1037V19.1045V19.1052V19.106V19.1068V19.1075V19.1083V19.1091V19.1099V19.1106V19.1114V19.1122V19.113V19.1137V19.1145V19.1153V19.1161V19.1168V19.1176V19.1184V19.1192V19.1199V19.1207V19.1215V19.1223V19.123V19.1238V19.1246V19.1254V19.1261V19.1269V19.1277V19.1285V19.1292V19.13V19.1308V19.1316V19.1323V19.1331V19.1339V19.1347V19.1354V19.1362V19.137V19.1378V19.1385V19.1393V19.1401V19.1409V19.1416V19.1424V19.1432V19.144V19.1447V19.1455V19.1463V19.147V19.1478V19.1486V19.1494V19.1501V19.1509V19.1517V19.1525V19.1532V19.154V19.1548V19.1556V19.1563V19.1571V19.1579V19.1587V19.1594V19.1602V19.161V19.1618V19.1625V19.1633V19.1641V19.1649V19.1656V19.1664V19.1672V19.168V19.1687V19.1695V19.1703V19.1711V19.1718V19.1726V19.1734V19.1742V19.1749V19.1757V19.1765V19.1773V19.178V19.1788V19.1796V19.1804V19.1811V19.1819V19.1827V19.1835V19.1842V19.185V19.1858V19.1866V19.1873V19.1881V19.1889V19.1896V19.1904V19.1912V19.192V19.1927V19.1935V19.1943V19.1951V19.1958V19.1966V19.1974V19.1982V19.1989V19.1997V19.2005V19.2013V19.202V19.2028V19.2036V19.2044V19.2051V19.2059V19.2067V19.2075V19.2082V19.209V19.2098V19.2106V19.2113V19.2121V19.2129V19.2137V19.2144V19.2152V19.216V19.2168V19.2175V19.2183V19.2191V19.2199V19.2206V19.2214V19.2222V19.223V19.2237V19.2245V19.2253V19.2261V19.2268V19.2276V19.2284V19.2291V19.2299V19.2307V19.2315V19.2322V19.233V19.2338V19.2346V19.2353V19.2361V19.2369V19.2377V19.2384V19.2392V19.24V19.2408V19.2415V19.2423V19.2431V19.2439V19.2446V19.2454V19.2462V19.247V19.2477V19.2485V19.2493V19.2501V19.2508V19.2516V19.2524V19.2532V19.2539V19.2547V19.2555V19.2563V19.257V19.2578V19.2586V19.2594V19.2601V19.2609V19.2617V19.2625V19.2632V19.264V19.2648V19.2656V19.2663V19.2671V19.2679V19.2687V19.2694V19.2702V19.271V19.2717V19.2725V19.2733V19.2741V19.2748V19.2756V19.2764V19.2772V19.2779V19.2787V19.2795V19.2803V19.281V19.2818V19.2826V19.2834V19.2841V19.2849V19.2857V19.2865V19.2872V19.288V19.2888V19.2896V19.2903V19.2911V19.2919V19.2927V19.2934V19.2942V19.295V19.2958V19.2965V19.2973V19.2981V19.2989V19.2996V19.3004V19.3012V19.302V19.3027V19.3035V19.3043V19.3051V19.3058V19.3066V19.3074V19.3082V19.3089V19.3097V19.3105V19.3112V19.312V19.3128V19.3136V19.3143V19.3151V19.3159V19.3167V19.3174V19.3182V19.319V19.3198V19.3205V19.3213V19.3221V19.3229V19.3236V19.3244V19.3252V19.326V19.3267V19.3275V19.3283V19.3291V19.3298V19.3306V19.3314V19.3322V19.3329V19.3337V19.3345V19.3353V19.336V19.3368V19.3376V19.3384V19.3391V19.3399V19.3407V19.3415V19.3422V19.343V19.3438V19.3446V19.3453V19.3461V19.3469V19.3477V19.3484V19.3492V19.35V19.3507V19.3515V19.3523V19.3531V19.3538V19.3546V19.3554V19.3562V19.3569V19.3577V19.3585V19.3593V19.36V19.3608V19.3616V19.3624V19.3631V19.3639V19.3647V19.3655V19.3662V19.367V19.3678V19.3686V19.3693V19.3701V19.3709V19.3717V19.3724V19.3732V19.374V19.3748V19.3755V19.3763V19.3771V19.3779V19.3786V19.3794V19.3802V19.381V19.3817V19.3825V19.3833V19.3841V19.3848V19.3856V19.3864V19.3872V19.3879V19.3887V19.3895V19.3903V19.391V19.3918V19.3926V19.3933V19.3941V19.3949V19.3957V19.3964V19.3972V19.398V19.3988V19.3995V19.4003V19.4011V19.4019V19.4026V19.4034V19.4042V19.405V19.4057V19.4065V19.4073V19.4081V19.4088V19.4096V19.4104V19.4112V19.4119V19.4127V19.4135V19.4143V19.415V19.4158V19.4166V19.4174V19.4181V19.4189V19.4197V19.4205V19.4212V19.422V19.4228V19.4236V19.4243V19.4251V19.4259V19.4267V19.4274V19.4282V19.429V19.4298V19.4305V19.4313V19.4321V19.4328V19.4336V19.4344V19.4352V19.4359V19.4367V19.4375V19.4383V19.439V19.4398V19.4406V19.4414V19.4415C19.9933 19.6705 19.9007 19.8561 19.7297 19.9819C19.3705 20.2445 18.9203 20.2056 18.5492 19.8381C18.5491 19.838 18.549 19.8379 18.5489 19.8378L13.4005 14.6704C13.3785 14.6452 13.3634 14.6178 13.3413 14.5775C13.3312 14.559 13.3195 14.5378 13.305 14.5128L13.2201 14.3667L13.0851 14.4683C13.0566 14.4897 13.0331 14.5071 13.0129 14.5219ZM8.15557 1.8751L8.15534 1.8751C4.71106 1.86427 1.8785 4.68641 1.86764 8.14741C1.85152 11.6037 4.65774 14.4362 8.11705 14.4579C11.5622 14.4796 14.389 11.6567 14.4052 8.18571C14.4214 4.72421 11.6152 1.89136 8.15557 1.8751Z" fill="white" stroke="#303749" stroke-width="0.3"/>
</svg>
