<svg width="49" height="49" viewBox="0 0 49 49" fill="none" xmlns="http://www.w3.org/2000/svg">
<path d="M48.5836 13.5486C48.1523 14.825 47.6347 16.0583 46.7893 17.1277C46.4702 17.533 46.1251 17.9211 45.7801 18.3264C45.0641 17.9211 44.3999 17.533 43.8392 17.2139C42.9334 17.6969 42.0967 18.1367 41.2772 18.6024C41.165 18.6714 41.0615 18.8611 41.0529 18.9991C41.027 19.5683 41.0615 20.1375 41.027 20.7067C41.0184 20.8447 40.8804 21.0689 40.7596 21.0948C38.9826 21.5433 37.197 21.5346 35.4027 21.0258C35.4027 20.241 35.4027 19.4734 35.4027 18.8266C34.5056 18.2747 33.6947 17.7572 32.8752 17.2743C32.7717 17.2139 32.5819 17.2398 32.4698 17.3001C31.8746 17.6192 31.2966 17.9642 30.6842 18.3178C29.3471 16.9983 28.45 15.4459 27.941 13.6694C27.9152 13.5659 28.0359 13.3503 28.1481 13.2813C28.6311 12.9794 29.1401 12.7207 29.6145 12.4102C29.7439 12.324 29.8474 12.0998 29.8474 11.9445C29.8733 11.1252 29.8733 10.3059 29.8474 9.48662C29.8388 9.32276 29.7439 9.09853 29.6145 9.01229C29.1401 8.70182 28.6311 8.45172 28.1481 8.14125C28.0359 8.06363 27.9238 7.83077 27.9497 7.71866C28.45 5.9507 29.3557 4.42422 30.6756 3.11334C31.2621 3.44968 31.8401 3.76878 32.4094 4.11374C32.6251 4.25173 32.7631 4.23448 32.9874 4.08787C33.6602 3.65666 34.3589 3.25132 35.0749 2.88048C35.3078 2.75974 35.4027 2.65625 35.4027 2.39753C35.3855 1.75071 35.3941 1.1039 35.3941 0.405337C37.2746 -0.137987 39.1465 -0.129363 41.0443 0.396713C41.0443 1.08665 41.027 1.75071 41.0529 2.41478C41.0615 2.56139 41.1823 2.75974 41.3117 2.83736C42.1139 3.30307 42.9334 3.73428 43.8305 4.21723C44.3912 3.89814 45.0555 3.51005 45.7542 3.11334C46.9877 4.32935 47.8504 5.76097 48.3938 7.38232C48.4456 7.54618 48.5146 7.70141 48.575 7.86527C48.575 7.92564 48.575 7.99463 48.575 8.055C47.9453 8.39997 47.3069 8.73632 46.6944 9.09853C46.6168 9.14165 46.5909 9.34001 46.5909 9.46075C46.5823 10.2887 46.5737 11.1166 46.5996 11.9445C46.6082 12.1084 46.7117 12.324 46.8411 12.4102C47.4018 12.7811 47.997 13.1088 48.575 13.4538C48.5836 13.4883 48.5836 13.5141 48.5836 13.5486ZM42.1657 10.694C42.1571 8.50346 40.3801 6.74413 38.2062 6.76137C36.0324 6.77862 34.2641 8.56383 34.2727 10.7285C34.2813 12.8932 36.0928 14.6784 38.2494 14.6611C40.4232 14.6525 42.1829 12.8673 42.1657 10.694Z" fill="white"/>
<path d="M2.85528 21.2438C3.64889 21.5542 4.43388 21.8388 5.20161 22.1493C5.4604 22.2528 5.59842 22.2183 5.7882 21.9941C6.46967 21.2093 7.18565 20.459 7.93613 19.6483C7.58245 18.8549 7.2029 17.9924 6.81472 17.1042C8.97127 15.4828 11.3435 14.4134 14.0176 13.8701C14.3627 14.6463 14.7163 15.3966 15.0355 16.1641C15.1477 16.4228 15.277 16.5005 15.5617 16.4832C16.4416 16.4315 17.3301 16.3883 18.21 16.4056C18.5809 16.4142 18.7707 16.3366 18.9001 15.9658C19.1502 15.2155 19.4521 14.491 19.7541 13.7148C22.4282 14.0857 24.8522 15.0257 27.1209 16.5436C26.8276 17.3198 26.5515 18.1046 26.2237 18.8721C26.0943 19.1826 26.172 19.3292 26.4049 19.5362C27.0777 20.1313 27.7333 20.7522 28.363 21.3904C28.5787 21.606 28.734 21.6577 29.01 21.5284C29.7519 21.1748 30.5023 20.8557 31.2442 20.5193C32.5122 21.7526 34.3496 25.8577 34.4531 27.7292C33.6854 28.0741 32.909 28.4105 32.1413 28.7727C32.0205 28.8331 31.8825 29.0142 31.8825 29.1349C31.9084 30.2216 31.9688 31.3082 32.0205 32.438C32.7538 32.714 33.5301 33.0244 34.3151 33.309C34.5653 33.4039 34.6515 33.5246 34.6084 33.8006C34.203 36.2154 33.349 38.4577 32.0292 40.5189C31.8653 40.769 31.7273 40.8035 31.4512 40.6913C30.7956 40.4154 30.1228 40.1911 29.4672 39.9152C29.2084 39.8031 29.0618 39.8462 28.8633 40.0618C28.2423 40.7603 27.6039 41.4417 26.9397 42.0885C26.7154 42.3041 26.7154 42.4507 26.8362 42.6922C27.1467 43.3476 27.44 44.0117 27.7161 44.6844C27.7592 44.7965 27.7247 45.0466 27.6384 45.1069C25.5509 46.642 23.2304 47.677 20.6512 48.1858C20.3061 47.4096 19.9525 46.6507 19.6333 45.8831C19.5211 45.6158 19.3918 45.564 19.0985 45.5813C18.1496 45.633 17.2093 45.6503 16.2604 45.6416C15.993 45.6416 15.9068 45.7451 15.8291 45.9607C15.5358 46.7542 15.2167 47.5476 14.9061 48.3496C12.301 47.9702 9.92878 47.0819 7.7636 45.6503C7.66871 45.5899 7.61696 45.3484 7.66009 45.2363C7.91025 44.5205 8.19491 43.8219 8.44507 43.1061C8.4882 42.9768 8.47095 42.7439 8.38469 42.6663C7.59108 41.916 6.78021 41.1916 5.93484 40.424C5.1326 40.7776 4.26136 41.1657 3.36423 41.5624C2.09617 39.8807 1.16454 38.061 0.577957 36.0774C0.439937 35.6203 0.353675 35.1546 0.215656 34.7062C0.13802 34.4474 0.207029 34.3181 0.465816 34.206C1.15591 33.9214 1.82876 33.6195 2.49298 33.2918C2.61375 33.2314 2.75177 33.0331 2.75177 32.8951C2.75177 31.9033 2.72589 30.9029 2.68276 29.9111C2.67413 29.7731 2.51886 29.592 2.38084 29.5316C1.59585 29.2039 0.802239 28.9107 0 28.6088C0.405433 25.9181 1.31981 23.4774 2.85528 21.2438ZM17.3215 38.932C21.6087 38.9665 25.2058 35.4306 25.2403 31.1444C25.2835 26.7633 21.7812 23.167 17.4509 23.1325C13.0429 23.098 9.48022 26.5735 9.42846 30.9632C9.37671 35.3185 12.9221 38.8975 17.3215 38.932Z" fill="white"/>
</svg>
