<svg width="28" height="29" viewBox="0 0 28 29" fill="none" xmlns="http://www.w3.org/2000/svg">
<path d="M20.1085 0.006914C20.3735 0.145186 20.6588 0.24889 20.8897 0.428643C21.2905 0.739754 21.406 1.20988 21.4739 1.69383C21.4943 1.83901 21.5147 2.04642 21.6098 2.11556C21.8136 2.26074 22.0649 2.32988 22.3027 2.41975C22.3434 2.43358 22.4114 2.37136 22.4657 2.33679C22.6627 2.20543 22.8529 2.06025 23.0499 1.9358C23.6409 1.58321 24.361 1.63161 24.8704 2.0879C25.1897 2.37136 25.4954 2.68247 25.7739 3.00741C26.229 3.53975 26.2766 4.27259 25.9233 4.8879C25.8826 4.95704 25.835 5.02617 25.7943 5.09531C25.4139 5.64839 25.4139 5.64839 25.706 6.25679C25.7399 6.33284 25.835 6.40197 25.9165 6.42271C26.1543 6.48494 26.3989 6.51259 26.6298 6.57481C27.3227 6.76148 27.7846 7.34913 27.8118 8.08197C27.8254 8.44839 27.8254 8.82173 27.8118 9.18815C27.7846 9.94173 27.3023 10.5432 26.5891 10.723C26.4872 10.7506 26.3785 10.7852 26.2698 10.7852C25.8962 10.7921 25.672 10.9511 25.5497 11.3383C25.4682 11.5941 25.4682 11.7669 25.6312 11.9812C25.9301 12.3615 26.1611 12.7694 26.1407 13.2879C26.1203 13.6612 26.0184 14 25.7739 14.2765C25.509 14.5738 25.2305 14.8711 24.9316 15.1407C24.3745 15.6593 23.6477 15.7215 23.0024 15.3343C22.9073 15.279 22.8054 15.2237 22.7306 15.1477C22.4589 14.8711 22.194 14.8642 21.834 15.0301C21.5486 15.1615 21.4807 15.3481 21.4468 15.6109C21.3856 16.1709 21.2158 16.6894 20.7063 16.9867C20.4754 17.1249 20.1968 17.2286 19.9251 17.2563C19.5311 17.3047 19.1303 17.2839 18.7296 17.2632C18.0367 17.2356 17.4728 16.7654 17.2894 16.0879C17.2623 15.9911 17.2215 15.8874 17.2215 15.7906C17.2419 15.2928 16.9837 15.0509 16.5422 14.9264C16.386 14.8849 16.2773 14.8849 16.1482 14.9817C15.8018 15.2306 15.4757 15.5072 15.0274 15.5625C14.5586 15.6178 14.1375 15.521 13.791 15.203C13.4718 14.9126 13.1661 14.6084 12.8876 14.2835C12.4324 13.758 12.3849 13.039 12.7245 12.4306C12.7721 12.3407 12.8128 12.2439 12.8876 12.1748C13.3087 11.8015 13.1729 11.4005 12.9419 10.9995C12.9012 10.9304 12.7925 10.8751 12.7109 10.8543C12.4664 10.7921 12.2083 10.7644 11.9705 10.6953C11.3252 10.5017 10.8836 9.93481 10.8565 9.25037C10.8429 8.87012 10.8361 8.49679 10.8497 8.11654C10.8768 7.30765 11.3727 6.70617 12.1539 6.53333C12.2626 6.51259 12.3645 6.47802 12.4732 6.47802C12.7857 6.47111 12.9351 6.3121 13.0778 6.01481C13.268 5.62765 13.0914 5.40642 12.9012 5.12988C12.3034 4.27259 12.3713 3.49827 13.1049 2.7516C13.3223 2.53037 13.5329 2.30222 13.7639 2.09481C14.2869 1.6316 15.007 1.56938 15.6048 1.92198C15.6931 1.97037 15.7882 2.01185 15.8561 2.0879C16.2229 2.52346 16.6169 2.36444 17.0041 2.14321C17.0721 2.10864 17.1264 2.01185 17.1468 1.92889C17.1943 1.74222 17.2147 1.54864 17.2487 1.36198C17.3845 0.684445 17.7785 0.248889 18.4239 0.0553088C18.4578 0.0483953 18.4782 0.0207407 18.5122 0C19.0624 0.00691358 19.5855 0.006914 20.1085 0.006914ZM14.8032 11.7531C14.7353 11.9052 14.6809 12.0711 14.5926 12.2163C14.416 12.4928 14.2258 12.7625 14.0356 13.0321C13.9201 13.1911 13.9269 13.3294 14.0763 13.4677C14.253 13.6405 14.4296 13.8133 14.5926 13.9931C14.7353 14.1521 14.8711 14.159 15.0409 14.0346C15.3059 13.8341 15.5708 13.6543 15.8425 13.4607C16.1075 13.2672 16.3792 13.2464 16.6849 13.3916C17.0856 13.5783 17.4932 13.7511 17.9076 13.9101C18.2405 14.0346 18.4239 14.2627 18.4782 14.6153C18.5258 14.9264 18.5937 15.2306 18.6344 15.5417C18.6616 15.7768 18.7771 15.8528 18.9945 15.8459C19.2322 15.8321 19.4632 15.8321 19.7009 15.8459C19.9319 15.8597 20.0202 15.7422 20.0542 15.5279C20.1017 15.2168 20.1697 14.9126 20.2104 14.6015C20.258 14.242 20.4618 14.0346 20.7878 13.9101C21.1954 13.758 21.5962 13.5852 21.9902 13.4054C22.3027 13.2602 22.5812 13.281 22.8597 13.4815C23.1246 13.6751 23.3963 13.8617 23.6613 14.0553C23.8175 14.1728 23.9534 14.1659 24.0892 14.0207C24.2591 13.8341 24.4425 13.6543 24.6259 13.4746C24.7617 13.3432 24.7685 13.2118 24.6598 13.0597C24.4696 12.7901 24.2862 12.5136 24.096 12.2439C23.8922 11.9536 23.8719 11.6632 24.0213 11.3383C24.2047 10.9373 24.3677 10.5294 24.5172 10.1146C24.6395 9.7758 24.8636 9.58913 25.2101 9.53382C25.5226 9.48543 25.835 9.41629 26.1475 9.3679C26.3513 9.34024 26.426 9.23654 26.4192 9.03605C26.4124 8.81481 26.4056 8.59358 26.4192 8.37234C26.4464 8.08197 26.3377 7.95062 26.0524 7.91605C25.7535 7.88839 25.4682 7.81235 25.1693 7.76395C24.8433 7.70864 24.6395 7.52197 24.524 7.21086C24.3677 6.78914 24.2047 6.37432 24.0145 5.96642C23.8719 5.6484 23.8854 5.36494 24.0824 5.08148C24.2794 4.80494 24.4628 4.52148 24.6598 4.24494C24.7617 4.09975 24.7549 3.97531 24.6259 3.85086C24.4425 3.67111 24.2591 3.49136 24.0892 3.30469C23.9466 3.14568 23.8107 3.13185 23.6409 3.26321C23.3828 3.4637 23.111 3.64346 22.8393 3.83704C22.5744 4.03062 22.2959 4.05136 21.997 3.90617C21.5894 3.71951 21.1682 3.54667 20.7471 3.38074C20.4414 3.26321 20.258 3.04889 20.2104 2.71704C20.1629 2.3921 20.0949 2.06716 20.0474 1.73531C20.0134 1.54173 19.9183 1.44494 19.7145 1.45185C19.47 1.45877 19.2254 1.45877 18.9809 1.45185C18.7703 1.44494 18.6616 1.5279 18.6344 1.74222C18.5937 2.06025 18.5258 2.37827 18.4714 2.6963C18.4171 3.03506 18.2337 3.2563 17.9144 3.38074C17.5 3.53975 17.0924 3.70568 16.6916 3.89926C16.3792 4.04444 16.1007 4.03062 15.8221 3.83012C15.5572 3.63654 15.2855 3.44988 15.0274 3.2563C14.8643 3.13185 14.7353 3.14568 14.5994 3.29086C14.4296 3.47062 14.2598 3.65037 14.0831 3.8163C13.9269 3.96148 13.9133 4.09975 14.0424 4.27259C14.2326 4.54222 14.416 4.81876 14.6062 5.08839C14.7964 5.35802 14.8168 5.63457 14.6809 5.94568C14.4907 6.36049 14.3209 6.78913 14.1579 7.21778C14.0424 7.5358 13.8318 7.71555 13.5057 7.76395C13.2 7.81235 12.9012 7.88148 12.5955 7.92296C12.3713 7.95753 12.2558 8.04741 12.2694 8.29629C12.283 8.53827 12.2762 8.77333 12.2694 9.01531C12.2626 9.22963 12.3373 9.34024 12.5547 9.3679C12.8536 9.40938 13.1389 9.48543 13.4378 9.52C13.8182 9.56839 14.056 9.7758 14.185 10.1422C14.3277 10.5363 14.4975 10.9235 14.6537 11.3175C14.7081 11.4489 14.7488 11.5872 14.8032 11.7531Z" fill="#475165"/>
<path d="M0 16.5995C0.0883091 16.3921 0.149448 16.164 0.264929 15.9704C0.563821 15.4381 1.03254 15.1131 1.61673 15.0647C2.28924 15.0163 2.72399 14.7882 2.90741 14.0692C2.98213 13.7719 3.02968 13.5783 2.82589 13.3363C2.64248 13.122 2.49303 12.8731 2.35717 12.6312C1.98356 11.9744 2.0379 11.1378 2.53379 10.564C2.89382 10.1423 3.29461 9.74819 3.70898 9.37486C4.2728 8.87017 5.11513 8.80794 5.76047 9.20202C6.06615 9.38868 6.33787 9.60992 6.64356 9.79659C6.71828 9.84498 6.84735 9.86572 6.92886 9.83807C7.22776 9.72745 7.51986 9.603 7.80516 9.46473C7.88668 9.42325 7.9682 9.32646 7.98858 9.23659C8.05651 8.9393 8.09047 8.63511 8.15161 8.34474C8.23991 7.95066 8.59315 7.70177 8.95318 7.76399C9.32 7.82622 9.58493 8.17881 9.53059 8.57288C9.46266 9.08449 9.36755 9.58918 9.27245 10.0939C9.21811 10.3912 9.02111 10.564 8.74939 10.6746C8.19916 10.8958 7.64213 11.1309 7.09869 11.3729C6.80659 11.5042 6.54167 11.4973 6.27674 11.3037C5.91671 11.041 5.54989 10.7852 5.18986 10.5294C4.89776 10.322 4.72114 10.3428 4.4698 10.5916C4.22525 10.8336 3.9807 11.0825 3.74295 11.3314C3.49161 11.5941 3.47123 11.76 3.67502 12.0642C3.91957 12.4237 4.15732 12.7763 4.40866 13.1289C4.63283 13.44 4.63283 13.7373 4.4698 14.083C4.24563 14.5739 4.02825 15.0716 3.85843 15.5833C3.72257 15.9773 3.4916 16.1986 3.09082 16.2608C2.66965 16.323 2.25528 16.406 1.83411 16.482C1.53522 16.5442 1.41974 16.6825 1.41974 17.0005C1.41295 17.3808 1.41295 17.7541 1.41974 18.1344C1.42653 18.4386 1.5556 18.5907 1.8477 18.646C2.26886 18.722 2.68324 18.805 3.1044 18.8672C3.48481 18.9225 3.70898 19.123 3.84484 19.4963C4.02825 20.0218 4.24563 20.5403 4.47659 21.045C4.62604 21.3837 4.62604 21.6741 4.41545 21.9783C4.16411 22.3378 3.91277 22.6973 3.66822 23.0637C3.47802 23.3403 3.49161 23.52 3.71577 23.7551C3.97391 24.0247 4.23883 24.2944 4.50376 24.5571C4.72793 24.7783 4.90455 24.7921 5.15589 24.6124C5.51592 24.3635 5.86916 24.1146 6.22239 23.8519C6.52129 23.6237 6.82018 23.6168 7.15983 23.7758C7.65572 24.0109 8.16519 24.2321 8.68146 24.4188C9.04828 24.5502 9.24528 24.7852 9.29963 25.1724C9.36076 25.5941 9.44228 26.0089 9.51021 26.4237C9.57134 26.7625 9.70721 26.88 10.0469 26.887C10.4069 26.8939 10.7737 26.8939 11.1337 26.887C11.4394 26.88 11.5821 26.7694 11.6364 26.4583C11.7179 26.0504 11.7927 25.6425 11.847 25.2346C11.9081 24.7783 12.1323 24.5225 12.5739 24.3842C13.0358 24.239 13.4909 24.0455 13.9257 23.8173C14.3197 23.6099 14.6525 23.6168 15.0057 23.8934C15.3182 24.1423 15.6511 24.3635 15.9839 24.5916C16.2828 24.799 16.4391 24.7783 16.704 24.5225C16.9553 24.2736 17.2067 24.0178 17.4512 23.762C17.6754 23.527 17.689 23.3403 17.5056 23.0707C17.261 22.7042 17.0097 22.3447 16.7583 21.9852C16.5342 21.6741 16.541 21.3768 16.6972 21.0312C16.9282 20.5334 17.1388 20.0218 17.3222 19.5033C17.4512 19.1299 17.6754 18.9225 18.0558 18.8672C18.4294 18.8119 18.803 18.7358 19.1767 18.6667C19.265 18.6529 19.3533 18.6391 19.4484 18.6321C19.8288 18.6045 20.1616 18.8672 20.216 19.2267C20.2703 19.5793 20.0326 19.9457 19.6725 20.0356C19.3804 20.1047 19.0816 20.1324 18.7962 20.2084C18.6944 20.2361 18.5925 20.3329 18.5381 20.4297C18.4498 20.5749 18.4362 20.7684 18.3411 20.9067C18.083 21.287 18.1645 21.5911 18.443 21.9299C18.7691 22.324 19.034 22.7665 19.0476 23.3195C19.0544 23.8242 18.9253 24.2736 18.5857 24.64C18.2528 25.0065 17.9132 25.366 17.5463 25.6909C16.8874 26.2855 16.0655 26.3408 15.3182 25.8637C15.0601 25.6978 14.8155 25.4973 14.5506 25.3383C14.4623 25.283 14.3197 25.2761 14.2178 25.3037C14.0547 25.3452 13.9121 25.4766 13.7422 25.5042C13.2939 25.5872 13.158 25.8707 13.0969 26.3062C13.0426 26.7003 12.9271 27.1013 12.7573 27.4539C12.5127 27.9516 12.0304 28.1729 11.5277 28.3319C10.896 28.3319 10.2574 28.3319 9.62569 28.3319C9.58493 28.3111 9.55097 28.2835 9.51021 28.2766C8.76298 28.0553 8.30785 27.5645 8.14481 26.7902C8.08368 26.4998 8.0565 26.2094 7.98178 25.926C7.95461 25.8223 7.85951 25.7047 7.7712 25.6563C7.51307 25.525 7.23455 25.4351 6.97642 25.3037C6.83376 25.2346 6.73866 25.2415 6.60959 25.3383C6.32429 25.5526 6.03898 25.76 5.7333 25.9398C5.08117 26.327 4.24563 26.2509 3.68181 25.7393C3.28102 25.3729 2.89382 24.9788 2.53379 24.564C2.16697 24.1423 2.06507 23.6237 2.15338 23.0637C2.2349 22.566 2.52021 22.1857 2.81231 21.8124C3.02968 21.5358 2.98213 21.3215 2.89382 21.0035C2.71041 20.3398 2.31641 20.1116 1.68466 20.0702C1.08009 20.0287 0.584198 19.7107 0.27172 19.1645C0.163032 18.9709 0.0883091 18.7497 0 18.5423C0 17.8855 0 17.2425 0 16.5995Z" fill="#475165"/>
<path d="M10.5579 22.3926C7.75917 22.3373 5.59899 19.8899 5.8775 17.0692C6.11526 14.6494 8.15316 12.762 10.5307 12.7482C10.9315 12.7482 11.2576 13.0455 11.2847 13.4326C11.3051 13.8129 11.013 14.1516 10.6054 14.1724C9.78348 14.2139 9.04305 14.4558 8.41809 15.0089C7.35838 15.9492 6.99835 17.4287 7.50783 18.7837C7.99013 20.0697 9.24004 20.9269 10.6122 20.92C12.3377 20.9062 13.7438 19.565 13.8797 17.8228C13.9 17.5393 13.9 17.2489 14.131 17.0346C14.3416 16.841 14.6541 16.7857 14.8918 16.9102C15.1771 17.0623 15.3198 17.2973 15.313 17.6223C15.2654 19.8484 13.7981 21.7082 11.6651 22.2336C11.2983 22.3166 10.9247 22.3373 10.5579 22.3926Z" fill="#475165"/>
<path d="M19.3272 12.0713C17.4592 12.0644 15.9647 10.5364 15.9715 8.63521C15.9715 6.73398 17.4999 5.19225 19.368 5.20608C21.2225 5.21991 22.7305 6.77546 22.717 8.66287C22.7034 10.5503 21.1885 12.0782 19.3272 12.0713ZM19.3476 10.6332C20.4209 10.6263 21.304 9.73447 21.304 8.64213C21.304 7.54287 20.4005 6.63719 19.3205 6.6441C18.2539 6.65102 17.3777 7.56361 17.3844 8.65596C17.3912 9.75522 18.2743 10.6332 19.3476 10.6332Z" fill="#475165"/>
</svg>
