<svg width="27" height="30" viewBox="0 0 27 30" fill="none" xmlns="http://www.w3.org/2000/svg">
<path d="M21.8074 1C22.0317 1.04921 22.2616 1.09842 22.4859 1.1531C24.611 1.6999 26.1025 3.65198 25.9903 5.73528C25.867 7.99903 24.2185 9.81441 21.9588 10.1151C20.4729 10.3175 19.1721 9.89643 18.0619 8.90672C17.989 8.8411 17.9105 8.77002 17.8376 8.69894C17.832 8.69347 17.8207 8.69347 17.7871 8.67706C15.2303 10.219 12.6622 11.7719 10.0829 13.3303C10.5035 14.4403 10.5035 15.5449 10.0829 16.6549C12.6566 18.2132 15.219 19.7607 17.7983 21.3136C17.9553 21.1714 18.1123 21.0293 18.2749 20.898C19.8113 19.6404 21.97 19.4709 23.6914 20.4661C25.4128 21.4612 26.2931 23.4078 25.895 25.338C25.5137 27.2026 23.9213 28.6571 21.9644 28.936C21.9139 28.9415 21.8635 28.9688 21.8074 28.9852C21.471 28.9852 21.1346 28.9852 20.7981 28.9852C20.3103 28.843 19.7945 28.7555 19.3347 28.5532C17.1759 27.6127 16.105 25.2396 16.8171 23.036C16.89 22.8064 16.8619 22.697 16.6376 22.5658C14.2098 21.1168 11.7931 19.6459 9.37642 18.1859C9.32035 18.1531 9.26428 18.1203 9.18578 18.0765C8.02511 19.2248 6.62333 19.7498 4.97483 19.5092C3.79173 19.3397 2.81049 18.7765 2.05913 17.8688C0.505958 16.0096 0.679779 13.3686 2.45724 11.6899C4.17302 10.0714 7.156 9.85268 9.197 11.9086C9.50539 11.7227 9.82499 11.5314 10.139 11.34C12.3314 10.0167 14.5182 8.69347 16.7105 7.37568C16.8675 7.28273 16.8956 7.20617 16.8395 7.0312C15.9312 4.25346 17.6974 1.49759 20.6636 1.04374C20.7084 1.03828 20.7533 1.0164 20.7925 1C21.1346 1 21.471 1 21.8074 1ZM21.286 27.3175C22.9288 27.3229 24.2689 26.0325 24.2745 24.4304C24.2858 22.8173 22.9513 21.505 21.2972 21.4995C19.6543 21.494 18.3254 22.779 18.3086 24.3866C18.2974 26.0051 19.6262 27.312 21.286 27.3175ZM18.3142 5.57671C18.3086 7.17883 19.6375 8.48568 21.2747 8.49115C22.9288 8.49662 24.2745 7.18977 24.2745 5.58765C24.2745 3.97459 22.9344 2.67321 21.2803 2.67867C19.6319 2.68414 18.3142 3.97459 18.3142 5.57671ZM2.72077 14.9871C2.70956 16.5893 4.03284 17.8906 5.67572 17.9016C7.32983 17.9125 8.68114 16.6166 8.68114 15.009C8.68675 13.4069 7.36347 12.1055 5.72619 12.0946C4.06648 12.0836 2.73199 13.3686 2.72077 14.9871Z" fill="white" stroke="#383F53" stroke-width="0.3"/>
</svg>
