<svg width="25" height="25" viewBox="0 0 25 25" fill="none" xmlns="http://www.w3.org/2000/svg">
<path d="M3.48429 4.82704C2.48122 3.51091 2.97956 2.17561 3.73346 1.53672C4.58959 0.814762 5.86738 0.821151 6.71711 1.55588C7.44546 2.182 7.95658 3.50452 6.94712 4.82704C7.10045 4.85898 7.2474 4.88454 7.38796 4.91648C8.54436 5.1976 9.39409 6.23261 9.42604 7.42096C9.43882 7.94486 9.43243 8.47514 9.42604 8.99904C9.42604 9.28015 9.27909 9.4271 8.99159 9.4271C6.46794 9.4271 3.95069 9.4271 1.42704 9.4271C1.18426 9.4271 0.998983 9.30571 1.00537 9.09487C1.01176 8.37292 0.960649 7.6318 1.08204 6.92262C1.26732 5.82372 2.18094 5.03787 3.29262 4.85898C3.35013 4.85259 3.40763 4.83982 3.48429 4.82704ZM8.66575 8.65403C8.66575 8.24514 8.67214 7.85541 8.66575 7.46568C8.6402 6.44345 7.81602 5.61288 6.79378 5.6001C5.7396 5.58732 4.68542 5.58732 3.63124 5.6001C2.73678 5.61288 1.94455 6.26456 1.81677 7.14623C1.74649 7.63819 1.80399 8.14291 1.80399 8.65403C4.07208 8.65403 6.35294 8.65403 8.66575 8.65403ZM5.22209 4.82704C6.06544 4.82704 6.75545 4.13064 6.75545 3.28729C6.74906 2.45034 6.06544 1.76672 5.22848 1.76033C4.37875 1.76033 3.68874 2.44395 3.68235 3.28729C3.68235 4.13703 4.37236 4.82704 5.22209 4.82704Z" fill="white" stroke="white" stroke-width="0.3"/>
<path d="M18.0519 19.3936C17.0488 18.0839 17.5471 16.755 18.2819 16.1224C19.1316 15.3877 20.4094 15.3813 21.2719 16.1097C22.013 16.7358 22.5305 18.0711 21.5211 19.4C21.6489 19.4192 21.7639 19.4383 21.8725 19.4639C23.0864 19.7194 23.9744 20.78 24 22.0195C24.0128 22.5306 24.0064 23.0417 24 23.5528C24 23.8659 23.8594 24.0001 23.54 24.0001C21.0355 24.0001 18.531 24.0001 16.0202 24.0001C15.7071 24.0001 15.5602 23.8595 15.5665 23.5464C15.5729 22.9267 15.5346 22.2942 15.6113 21.6809C15.7582 20.4925 16.6718 19.6236 17.8666 19.4319C17.9241 19.4192 17.9752 19.4064 18.0519 19.3936ZM23.2333 23.2206C23.2333 22.8053 23.2397 22.4092 23.2333 22.0131C23.2078 21.0036 22.3836 20.1794 21.3677 20.1667C20.3136 20.1539 19.2594 20.1475 18.2052 20.1667C17.4066 20.1858 16.8252 20.5883 16.4993 21.3167C16.2182 21.93 16.3716 22.5817 16.3396 23.227C18.646 23.2206 20.9205 23.2206 23.2333 23.2206ZM19.7961 19.3936C20.6394 19.3872 21.323 18.6908 21.3166 17.8475C21.3102 17.0105 20.6202 16.3333 19.7833 16.3333C18.9399 16.3333 18.2499 17.0233 18.2499 17.8666C18.2563 18.71 18.9463 19.4 19.7961 19.3936Z" fill="white" stroke="white" stroke-width="0.3"/>
<path d="M5.59126 20.5315C7.97435 20.5315 10.3191 20.5315 12.7405 20.5315C12.4083 20.2312 12.1208 19.9693 11.8205 19.7009C12.0441 19.5029 12.2166 19.3431 12.4147 19.1706C12.4275 19.1834 12.4786 19.2154 12.5233 19.2601C12.9641 19.7009 13.405 20.1418 13.8458 20.5826C14.1014 20.8446 14.1078 21.0234 13.8522 21.279C13.373 21.7582 12.8939 22.2374 12.4147 22.7165C12.2422 22.5249 12.0761 22.346 11.8972 22.1479C12.14 21.9115 12.4211 21.6432 12.7022 21.3748C12.6958 21.3557 12.683 21.3365 12.6766 21.3173C12.5936 21.3173 12.5105 21.3173 12.4275 21.3173C10.0891 21.3173 7.75073 21.3173 5.40598 21.3173C4.94597 21.3173 4.84375 21.2087 4.84375 20.7551C4.84375 17.5862 4.84375 14.4172 4.84375 11.2483C4.84375 11.1653 4.84375 11.0758 4.84375 10.98C5.1057 10.98 5.34209 10.98 5.60404 10.98C5.59126 14.1553 5.59126 17.337 5.59126 20.5315Z" fill="white" stroke="white" stroke-width="0.3"/>
<path d="M12.6123 4.56494C12.7848 4.75022 12.9382 4.92911 13.1043 5.11439C12.8423 5.35717 12.5612 5.62551 12.2801 5.88746C12.2929 5.9194 12.3121 5.95135 12.3248 5.9769C12.4079 5.9769 12.4846 5.9769 12.5676 5.9769C14.9124 5.9769 17.2635 5.9769 19.6083 5.9769C20.0491 5.9769 20.1577 6.08552 20.1577 6.52636C20.1577 8.935 20.1577 11.35 20.1577 13.7587C20.1577 13.8353 20.1577 13.9184 20.1577 14.0078C19.9022 14.0078 19.6594 14.0078 19.3974 14.0078C19.3974 11.5928 19.3974 9.18417 19.3974 6.75636C17.0335 6.75636 14.6824 6.75636 12.2993 6.75636C12.5996 7.03109 12.8807 7.29303 13.1746 7.56776C12.9446 7.7786 12.7657 7.93832 12.5804 8.10443C12.0821 7.61887 11.5582 7.10775 11.0407 6.58386C10.9001 6.4433 10.9129 6.24524 11.0534 6.10468C11.5709 5.59357 12.0884 5.08884 12.6123 4.56494Z" fill="white" stroke="white" stroke-width="0.3"/>
<path d="M12.532 11.7778C12.615 11.6755 12.6853 11.5797 12.762 11.4966C13.4201 10.8258 14.3592 10.7811 15.0173 11.3752C15.6818 11.9822 15.7584 13.0172 15.1706 13.7072C14.8384 14.097 14.4678 14.4483 14.1165 14.8189C13.6948 15.2597 13.2795 15.6942 12.8578 16.1286C12.5959 16.397 12.4106 16.397 12.1487 16.1223C11.4075 15.3556 10.66 14.5889 9.92529 13.8094C9.45889 13.3175 9.31834 12.7297 9.52917 12.0844C9.73362 11.4711 10.1617 11.0941 10.7942 10.9791C11.3373 10.8833 11.7973 11.0558 12.187 11.4391C12.2892 11.5414 12.385 11.6372 12.532 11.7778ZM12.4362 15.3236C12.7812 15.0106 13.1198 14.7295 13.4328 14.4228C13.8226 14.0395 14.2059 13.6369 14.5765 13.2344C14.9151 12.8639 14.8831 12.2889 14.5253 11.963C14.174 11.6372 13.682 11.6691 13.3114 12.0461C13.1453 12.2186 12.9792 12.3911 12.8131 12.5572C12.615 12.7489 12.4042 12.7489 12.2062 12.5572C12.0336 12.3911 11.8739 12.2122 11.7078 12.0461C11.3309 11.6628 10.8517 11.6308 10.5003 11.963C10.1425 12.2953 10.1042 12.8703 10.4428 13.2344C11.1009 13.95 11.7973 14.6592 12.4362 15.3236Z" fill="white" stroke="white" stroke-width="0.3"/>
</svg>
