<svg width="14" height="13" viewBox="0 0 14 13" fill="none" xmlns="http://www.w3.org/2000/svg">
<path d="M6.94068 9.16555C8.16782 9.16555 9.16262 8.17075 9.16262 6.94361C9.16262 5.71647 8.16782 4.72168 6.94068 4.72168C5.71354 4.72168 4.71875 5.71647 4.71875 6.94361C4.71875 8.17075 5.71354 9.16555 6.94068 9.16555Z" fill="#C6C6C6"/>
<path d="M4.86048 0L3.58981 1.38871H1.38871C0.624919 1.38871 0 2.01363 0 2.77742V11.1097C0 11.8735 0.624919 12.4984 1.38871 12.4984H12.4984C13.2622 12.4984 13.8871 11.8735 13.8871 11.1097V2.77742C13.8871 2.01363 13.2622 1.38871 12.4984 1.38871H10.2973L9.02661 0H4.86048ZM6.94354 10.4153C5.02712 10.4153 3.47177 8.85996 3.47177 6.94354C3.47177 5.02713 5.02712 3.47177 6.94354 3.47177C8.85996 3.47177 10.4153 5.02713 10.4153 6.94354C10.4153 8.85996 8.85996 10.4153 6.94354 10.4153Z" fill="#C6C6C6"/>
</svg>
