<svg width="7" height="7" viewBox="0 0 7 7" fill="none" xmlns="http://www.w3.org/2000/svg">
<path d="M0 0.886645C0.0309312 0.835136 0.0764181 0.8149 0.132822 0.805702C0.487621 0.744996 0.747806 0.489291 0.820585 0.12689C0.831502 0.0735415 0.844238 0.0220326 0.904281 0.00547625C0.97706 -0.016599 1.03528 0.029391 1.04802 0.119531C1.07349 0.283256 1.14809 0.421226 1.25544 0.544479C1.26636 0.555517 1.28091 0.562875 1.29365 0.572073C1.30093 0.581271 1.30457 0.592309 1.31366 0.599667C1.44103 0.717401 1.59386 0.783627 1.76308 0.813061C1.84313 0.827778 1.87406 0.866409 1.87042 0.928956C1.86679 0.991502 1.82858 1.02645 1.75216 1.03749C1.51563 1.07612 1.32822 1.19386 1.18812 1.38886C1.11352 1.49187 1.06621 1.60777 1.04802 1.73654C1.04074 1.78989 1.01527 1.83036 0.957046 1.84508C0.913379 1.85611 0.880628 1.83588 0.853336 1.80828C0.827863 1.78069 0.824224 1.74206 0.816946 1.70527C0.773279 1.48635 0.665929 1.30975 0.476704 1.18834C0.378452 1.10188 0.258366 1.06325 0.134641 1.03933C0.0782376 1.03013 0.0291117 1.0099 0 0.95655C0 0.932635 0 0.91056 0 0.886645Z" fill="#FEB555"/>
<path d="M0.480272 1.18795C0.669498 1.30936 0.776847 1.4878 0.820514 1.70487C0.827792 1.74167 0.831431 1.7803 0.856904 1.80789C0.884196 1.83549 0.916947 1.85572 0.960614 1.84468C1.01702 1.82997 1.04431 1.7895 1.05159 1.73615C1.06978 1.60737 1.11709 1.49332 1.19169 1.38846C1.33179 1.19346 1.51919 1.07573 1.75573 1.0371C1.83215 1.02422 1.87035 0.991109 1.87399 0.928562C1.87763 0.864176 1.84488 0.825545 1.76664 0.812667C1.59743 0.783234 1.44642 0.715169 1.31723 0.599274C1.30995 0.591915 1.3045 0.580878 1.29722 0.57168C2.01955 0.271825 2.90746 0.487058 3.44784 1.09229C3.45512 1.10148 3.46422 1.10884 3.46968 1.11804C3.49697 1.16219 3.5188 1.15483 3.55155 1.11804C3.69893 0.945119 3.86996 0.805309 4.06647 0.694933C5.09629 0.115459 6.35901 0.556963 6.81388 1.65888C6.96126 2.01577 7.00674 2.38737 6.98309 2.77184C6.91395 3.81857 6.42815 4.64823 5.67307 5.3344C5.06354 5.88996 4.3594 6.291 3.5934 6.58349C3.54064 6.60373 3.48969 6.60741 3.43511 6.58717C2.53083 6.24133 1.7157 5.75383 1.04613 5.04007C0.562148 4.52314 0.225545 3.92527 0.0927226 3.2207C-0.0128072 2.66882 -0.00734874 2.1243 0.234642 1.60186C0.300143 1.45285 0.38202 1.31488 0.480272 1.18795ZM3.03482 5.8127C3.10578 5.81454 3.14581 5.78695 3.15855 5.73176C3.17128 5.67841 3.14945 5.63794 3.10214 5.61218C3.06939 5.59563 3.03664 5.58091 3.00389 5.56619C2.58723 5.37672 2.20696 5.12837 1.86672 4.81748C1.6502 4.62064 1.46461 4.39437 1.31177 4.1405C1.26993 4.0706 1.2117 4.0522 1.15712 4.08532C1.09708 4.12211 1.08616 4.18465 1.12801 4.25824C1.24445 4.45875 1.38455 4.64271 1.54467 4.81012C1.9213 5.20747 2.36707 5.50917 2.85833 5.7428C2.91837 5.77223 2.97842 5.80718 3.03482 5.8127ZM1.45915 1.89435C1.45733 1.94218 1.49372 1.97713 1.54649 1.98633C1.73389 2.02128 1.84306 2.1335 1.88309 2.3193C1.89583 2.38185 1.9304 2.41864 1.9959 2.4168C2.05958 2.4168 2.09051 2.37633 2.10143 2.3193C2.13782 2.13166 2.24699 2.01945 2.43621 1.98817C2.4908 1.97897 2.52537 1.94218 2.52719 1.88331C2.52901 1.82445 2.49989 1.78214 2.44531 1.77294C2.25063 1.73431 2.136 1.62209 2.09961 1.42525C2.09051 1.37191 2.0523 1.33879 1.99044 1.34063C1.93222 1.34247 1.89583 1.37375 1.88673 1.42893C1.85034 1.62025 1.73935 1.73247 1.55013 1.76926C1.49008 1.78214 1.45915 1.81893 1.45915 1.89435ZM5.0781 0.994788C4.95437 0.987429 4.89797 1.03158 4.91434 1.1254C4.92526 1.18611 4.96893 1.21002 5.07082 1.21922C5.40378 1.24865 5.67489 1.40318 5.89322 1.6552C5.96236 1.73431 6.01695 1.82445 6.06789 1.91643C6.10246 1.97713 6.16614 1.99369 6.22073 1.96426C6.27349 1.93482 6.28987 1.87044 6.25894 1.80973C6.24256 1.77662 6.22437 1.74534 6.20435 1.71407C5.93689 1.29832 5.56754 1.04814 5.0781 0.994788ZM6.45544 2.47383C6.44634 2.40024 6.43907 2.3101 6.41177 2.22364C6.39358 2.16293 6.339 2.13166 6.28623 2.14638C6.22437 2.16293 6.19162 2.21812 6.20435 2.28251C6.21709 2.35425 6.23347 2.426 6.23892 2.49958C6.24256 2.56949 6.29533 2.62467 6.35173 2.62283C6.41905 2.61915 6.45726 2.56765 6.45544 2.47383Z" fill="#FE3F62"/>
<path d="M3.02959 5.81269C2.97319 5.80717 2.91315 5.77037 2.85311 5.74278C2.36185 5.50915 1.91607 5.20746 1.53944 4.8101C1.38115 4.6427 1.23923 4.45874 1.12278 4.25822C1.08093 4.18648 1.09185 4.12393 1.15189 4.0853C1.20466 4.05219 1.26288 4.07058 1.30655 4.14049C1.45938 4.39251 1.64497 4.61878 1.86149 4.81746C2.20173 5.12651 2.582 5.37486 2.99866 5.56618C3.03141 5.5809 3.06598 5.59561 3.09692 5.61217C3.14422 5.63792 3.16606 5.67656 3.15332 5.73174C3.14058 5.78693 3.10237 5.81453 3.02959 5.81269Z" fill="#FEA3B3"/>
<path d="M1.461 1.89461C1.461 1.81919 1.49193 1.78056 1.55016 1.76952C1.73938 1.73273 1.85037 1.61867 1.88676 1.42919C1.89768 1.37401 1.93225 1.34273 1.99047 1.34089C2.05051 1.33905 2.08872 1.37217 2.09964 1.42551C2.13603 1.62419 2.25066 1.73641 2.44534 1.7732C2.49993 1.78424 2.52904 1.82655 2.52722 1.88358C2.5254 1.94244 2.49083 1.97923 2.43624 1.98843C2.24884 2.02155 2.13967 2.13192 2.10146 2.31956C2.09054 2.37659 2.05961 2.41706 1.99593 2.41706C1.93225 2.41706 1.89768 2.38211 1.88312 2.31956C1.84309 2.13376 1.73392 2.02155 1.54652 1.98659C1.49557 1.97739 1.45918 1.94244 1.461 1.89461Z" fill="#FEB455"/>
<path d="M5.07284 0.99493C5.5641 1.05012 5.93345 1.29846 6.1991 1.71421C6.21911 1.74549 6.2373 1.77676 6.25368 1.80987C6.28461 1.87242 6.26824 1.93497 6.21547 1.9644C6.16271 1.99383 6.0972 1.97728 6.06263 1.91657C6.01169 1.82459 5.9571 1.73445 5.88796 1.65535C5.66963 1.40332 5.40034 1.24879 5.06556 1.21936C4.96549 1.21016 4.92 1.18625 4.90908 1.12554C4.89271 1.03172 4.94729 0.987571 5.07284 0.99493Z" fill="#FEA3B3"/>
<path d="M6.45303 2.47363C6.45485 2.56929 6.41482 2.61896 6.34932 2.62264C6.29291 2.62632 6.24015 2.56929 6.23651 2.49938C6.23287 2.4258 6.21468 2.35406 6.20194 2.28231C6.1892 2.21609 6.22195 2.16274 6.28382 2.14618C6.33658 2.13146 6.39117 2.16274 6.40936 2.22344C6.43665 2.30991 6.44393 2.39821 6.45303 2.47363Z" fill="#FEA2B2"/>
</svg>
