<svg width="25" height="25" viewBox="0 0 25 25" fill="none" xmlns="http://www.w3.org/2000/svg">
<circle cx="12.1875" cy="12.1875" r="12.1875" fill="url(#paint0_linear_2963_385)"/>
<path d="M4.62109 9.31531C4.6979 9.04944 4.78279 8.78743 4.96873 8.5678C5.28808 8.19019 5.69231 7.97442 6.1976 7.95901C6.54928 7.94745 6.89692 7.9513 7.2486 7.9513C9.197 7.9513 11.1494 7.9513 13.0978 7.9513C13.8295 7.9513 14.3752 8.24414 14.6824 8.8799C14.7835 9.09568 14.832 9.34998 14.832 9.58888C14.8441 11.3189 14.8401 13.0528 14.836 14.7867C14.836 15.6152 14.2903 16.2509 13.4657 16.4012C13.3404 16.4243 13.211 16.4243 13.0817 16.4243C10.8463 16.4243 8.61086 16.4243 6.37546 16.4243C5.45785 16.4243 4.83938 15.9504 4.64535 15.095C4.64131 15.0834 4.62918 15.0719 4.62109 15.0603C4.62109 13.1453 4.62109 11.2303 4.62109 9.31531Z" fill="white"/>
<path d="M19.751 12.1856C19.751 12.9947 19.755 13.8 19.751 14.6092C19.7469 15.2527 19.1163 15.6996 18.4817 15.5185C18.3766 15.4877 18.2715 15.4376 18.1745 15.3837C17.3781 14.9521 16.5858 14.5167 15.7895 14.0852C15.6965 14.0351 15.6602 13.9811 15.6602 13.8771C15.6642 12.7443 15.6642 11.6153 15.6602 10.4825C15.6602 10.4054 15.6642 10.3438 15.7531 10.2975C16.5899 9.84288 17.4226 9.37665 18.2634 8.92584C18.8293 8.62144 19.5084 8.88731 19.7025 9.47683C19.7389 9.58472 19.7469 9.70802 19.7469 9.82361C19.755 10.6058 19.751 11.3957 19.751 12.1856Z" fill="white"/>
<defs>
<linearGradient id="paint0_linear_2963_385" x1="12.1875" y1="0" x2="12.1875" y2="24.375" gradientUnits="userSpaceOnUse">
<stop stop-color="#E92F24"/>
<stop offset="0.572917" stop-color="#ED443A"/>
<stop offset="0.9999" stop-color="#F85A50"/>
<stop offset="1" stop-color="#E92F24" stop-opacity="0"/>
</linearGradient>
</defs>
</svg>
