<svg width="14" height="14" viewBox="0 0 14 14" fill="none" xmlns="http://www.w3.org/2000/svg">
<path d="M2.4879 12.3761C2.42037 11.4083 2.62294 10.4855 2.75798 9.54021C2.84801 8.95503 2.75798 8.45987 2.30784 8.00973C1.63263 7.37953 1.04744 6.65931 0.417245 5.96159C-0.257966 5.19635 -0.122923 4.74621 0.889895 4.52114C1.81268 4.31857 2.75798 4.0935 3.68077 3.93595C4.24344 3.84593 4.55854 3.55333 4.82863 3.05818C5.27877 2.20291 5.75142 1.39266 6.24657 0.559895C6.69672 -0.182837 7.19187 -0.182837 7.64201 0.537388C8.06965 1.25761 8.51979 1.97784 8.8799 2.74308C9.21751 3.39578 9.62263 3.91345 10.4104 4.02598C10.4554 4.56615 10.3429 5.08381 10.1628 5.57897C9.55511 7.35703 8.51979 8.81998 7.05683 9.96784C5.6839 11.0932 4.22094 12.0385 2.4879 12.3761Z" fill="#FEE061"/>
<path d="M2.49282 12.3774C4.24837 12.0173 5.68882 11.072 7.03924 10.0141C8.47969 8.86627 9.53752 7.3808 10.1452 5.62525C10.3253 5.10759 10.4378 4.61243 10.3928 4.07227C11.3606 4.11728 12.2834 4.36486 13.2062 4.58993C13.9939 4.79249 14.129 5.26514 13.5888 5.87283C12.9136 6.63807 12.2384 7.3808 11.5407 8.10103C11.1805 8.48365 11.0455 8.86627 11.1355 9.38393C11.2931 10.3742 11.3831 11.3871 11.4956 12.3999C11.5632 13.1426 11.068 13.4802 10.3703 13.1876C9.42499 12.7825 8.47969 12.3324 7.5344 11.8822C7.12927 11.6796 6.74665 11.6796 6.34152 11.8822C5.41873 12.3324 4.47343 12.76 3.50563 13.1876C2.7629 13.5027 2.42529 13.2101 2.49282 12.3774Z" fill="#FABD09"/>
</svg>
