<svg width="11" height="7" viewBox="0 0 11 7" fill="none" xmlns="http://www.w3.org/2000/svg">
<path d="M0 0.983611C0.0553599 0.791977 0.116547 0.60312 0.250576 0.444813C0.480757 0.172637 0.772125 0.0171082 1.13633 0.00599898C1.38982 -0.00233294 1.6404 0.000444369 1.89389 0.000444369C3.29828 0.000444369 4.70559 0.000444369 6.10998 0.000444369C6.63736 0.000444369 7.03071 0.21152 7.25214 0.669775C7.32499 0.825305 7.35995 1.00861 7.35995 1.1808C7.36869 2.42781 7.36578 3.6776 7.36286 4.92739C7.36286 5.52451 6.96952 5.98276 6.37513 6.09108C6.2848 6.10774 6.19157 6.10774 6.09833 6.10774C4.48706 6.10774 2.8758 6.10774 1.26454 6.10774C0.603131 6.10774 0.157339 5.76613 0.0174821 5.14957C0.0145684 5.14124 0.00582736 5.13291 0 5.12458C0 3.74425 0 2.36393 0 0.983611Z" fill="white"/>
<path d="M10.9057 3.05248C10.9057 3.63571 10.9086 4.21617 10.9057 4.7994C10.9028 5.26321 10.4482 5.58538 9.99078 5.45485C9.91502 5.43263 9.83927 5.39652 9.76934 5.35764C9.19534 5.04658 8.62426 4.73275 8.05027 4.42169C7.98325 4.38558 7.95703 4.3467 7.95703 4.27171C7.95994 3.45519 7.95994 2.64144 7.95703 1.82491C7.95703 1.76936 7.95994 1.72492 8.02405 1.6916C8.62718 1.36387 9.2274 1.02782 9.83344 0.702876C10.2414 0.483469 10.7309 0.675103 10.8707 1.10003C10.8969 1.1778 10.9028 1.26667 10.9028 1.34999C10.9086 1.91378 10.9057 2.48313 10.9057 3.05248Z" fill="white"/>
</svg>
