<svg width="42" height="38" viewBox="0 0 42 38" fill="none" xmlns="http://www.w3.org/2000/svg">
<path d="M20.4852 37.4946C23.2215 37.4946 25.9579 37.4946 28.7043 37.4946C29.6365 37.4946 30.0775 37.0194 30.0775 36.0151C30.0775 31.8251 30.0875 27.635 30.0675 23.4449C30.0675 22.9266 30.0274 22.4082 29.9271 21.9007C29.2856 18.9093 26.9803 16.9331 24.1136 16.9115C21.718 16.8899 19.3325 16.9007 16.9369 16.9115C16.4959 16.9115 16.0548 16.9547 15.6238 17.0626C12.8073 17.7754 10.983 20.2592 10.973 23.4017C10.963 27.5918 10.973 31.7819 10.973 35.9719C10.973 37.0302 11.404 37.4946 12.3863 37.4946C15.0926 37.4946 17.7889 37.4946 20.4852 37.4946ZM20.5253 15.3456C24.4344 15.3456 27.6518 11.8683 27.6518 7.63501C27.6518 3.45574 24.4444 0.0108244 20.5453 2.5242e-05C16.6262 -0.0107739 13.3886 3.44495 13.3987 7.63501C13.3987 11.8575 16.6061 15.3348 20.5253 15.3456ZM32.3728 37.473C34.157 37.473 35.9812 37.5486 37.8055 37.4514C39.6598 37.3542 41.023 35.7019 41.043 33.6393C41.0731 31.2527 41.0731 28.8553 41.043 26.4687C40.9929 23.1966 38.6274 20.5076 35.6004 20.27C34.5279 20.1836 33.4353 20.2268 32.3528 20.216C32.2425 20.216 32.1223 20.2376 31.992 20.2484C32.002 20.3348 32.002 20.3996 32.012 20.4428C32.3829 21.5875 32.4631 22.7754 32.4631 23.9741C32.453 27.527 32.4631 31.0907 32.453 34.6436C32.453 35.5832 32.4029 36.5119 32.3728 37.473ZM2.68372 12.8942C2.70377 16.0691 5.09934 18.6393 8.02615 18.6285C10.963 18.6177 13.3686 15.9935 13.3385 12.8294C13.3084 9.67605 10.9329 7.14905 8.00611 7.15985C5.05925 7.15985 2.66367 9.75164 2.68372 12.8942ZM38.3768 12.8726C38.3668 9.70844 35.9812 7.14905 33.0444 7.14905C30.0975 7.14905 27.702 9.74084 27.732 12.8834C27.7521 16.0583 30.1577 18.6393 33.0645 18.6177C35.9913 18.6069 38.3768 16.0259 38.3768 12.8726Z" fill="white"/>
<path d="M0 25.9197C0.170397 25.2934 0.270635 24.6238 0.531242 24.0407C1.52355 21.7728 3.18742 20.4661 5.52286 20.2934C6.68556 20.207 7.86832 20.2826 9.07112 20.2826C9.04105 20.4014 9.01099 20.5093 9.00096 20.6173C8.87066 21.5785 8.63009 22.5396 8.62007 23.5115C8.57998 27.6692 8.60003 31.8268 8.61005 35.9845C8.61005 36.4813 8.70026 36.978 8.75038 37.518C8.29933 37.518 7.82823 37.518 7.36715 37.518C6.19442 37.518 5.01167 37.4856 3.83894 37.5288C1.89442 37.5936 0.310723 36.2005 0.0501167 34.2134C0.0501167 34.1918 0.0200442 34.1702 0.0100209 34.1486C-2.44725e-06 31.3841 0 28.6519 0 25.9197Z" fill="white"/>
<path d="M20.4893 37.494C17.793 37.494 15.0967 37.494 12.3904 37.494C11.4081 37.494 10.9771 37.0297 10.9771 35.9714C10.9771 31.7813 10.9671 27.5912 10.9771 23.4012C10.9871 20.2586 12.8114 17.7748 15.6279 17.0621C16.0489 16.9541 16.5 16.9217 16.941 16.9109C19.3366 16.9001 21.7221 16.8893 24.1177 16.9109C26.9844 16.9325 29.2797 18.9087 29.9312 21.9001C30.0415 22.3969 30.0716 22.926 30.0716 23.4444C30.0816 27.6344 30.0816 31.8245 30.0816 36.0146C30.0816 37.0189 29.6406 37.494 28.7084 37.494C25.962 37.494 23.2256 37.494 20.4893 37.494Z" fill="white"/>
<path d="M20.5289 15.3456C16.6098 15.3456 13.4023 11.8683 13.4023 7.63501C13.4023 3.44495 16.6399 -0.0107739 20.549 2.5242e-05C24.4581 0.0108244 27.6655 3.46654 27.6555 7.63501C27.6555 11.8683 24.438 15.3456 20.5289 15.3456Z" fill="white"/>
<path d="M32.3748 37.4723C32.4048 36.5112 32.455 35.5825 32.465 34.6537C32.475 31.1008 32.465 27.5371 32.475 23.9842C32.475 22.7855 32.3948 21.5976 32.0239 20.4529C32.0039 20.3989 32.0139 20.3449 32.0039 20.2585C32.1342 20.2477 32.2545 20.2261 32.3647 20.2261C33.4473 20.2369 34.5298 20.1937 35.6123 20.2801C38.6394 20.5177 41.0049 23.1959 41.055 26.4788C41.0951 28.8654 41.085 31.2628 41.055 33.6494C41.0349 35.7121 39.6718 37.3643 37.8174 37.4615C35.9832 37.5479 34.1489 37.4723 32.3748 37.4723Z" fill="white"/>
<path d="M2.68372 12.8956C2.66367 9.75302 5.05925 7.16122 7.99609 7.15043C10.9229 7.13963 13.2984 9.66662 13.3285 12.82C13.3586 15.9841 10.963 18.6083 8.01613 18.6191C5.09934 18.6407 2.70377 16.0597 2.68372 12.8956Z" fill="white"/>
<path d="M38.3776 12.871C38.3876 16.0243 35.992 18.6053 33.0552 18.6269C30.1484 18.6485 27.7529 16.0567 27.7228 12.8926C27.7027 9.73923 30.0983 7.15824 33.0352 7.15824C35.972 7.14744 38.3676 9.70683 38.3776 12.871Z" fill="white"/>
</svg>
