<svg width="21" height="21" viewBox="0 0 21 21" fill="none" xmlns="http://www.w3.org/2000/svg">
<circle cx="10.5" cy="10.5" r="10.5" fill="url(#paint0_linear_2939_430)"/>
<path d="M10.4953 5C10.6849 5.00339 10.8067 5.0914 10.888 5.25727C11.3788 6.25926 11.8764 7.26125 12.3707 8.26324C12.4113 8.34449 12.4553 8.37834 12.5467 8.39188C13.6435 8.54759 14.7368 8.70669 15.8336 8.86579C16.1383 8.9098 16.294 9.07567 16.2669 9.33294C16.2534 9.45142 16.1891 9.53604 16.1078 9.6139C15.3055 10.3959 14.5033 11.1812 13.6976 11.9598C13.6401 12.0139 13.6198 12.0613 13.6333 12.146C13.8296 13.2664 14.0192 14.3869 14.2088 15.5074C14.2392 15.6766 14.1885 15.8188 14.0497 15.9204C13.9075 16.0253 13.7518 16.0219 13.5961 15.9373C12.6008 15.4126 11.6022 14.8913 10.607 14.3632C10.5258 14.3226 10.4682 14.3192 10.387 14.3632C9.39515 14.8879 8.39992 15.4092 7.40809 15.9305C7.24899 16.0151 7.09327 16.0287 6.94433 15.9204C6.79538 15.812 6.74799 15.6631 6.78523 15.4837C6.80892 15.3686 6.82246 15.2501 6.84277 15.135C7.01541 14.133 7.18805 13.1276 7.36408 12.1257C7.37762 12.0478 7.34377 12.0106 7.29976 11.9632C6.49411 11.1778 5.68845 10.3925 4.8828 9.60713C4.81171 9.53943 4.75078 9.46496 4.73385 9.3634C4.69323 9.12983 4.82525 8.92334 5.05882 8.8861C5.51243 8.81163 5.96942 8.7507 6.42641 8.683C7.11697 8.58144 7.80753 8.47989 8.49471 8.38511C8.56918 8.37495 8.58949 8.32756 8.61657 8.27678C9.11418 7.26802 9.61518 6.25926 10.1094 5.24711C10.194 5.08124 10.3193 5 10.4953 5Z" fill="white"/>
<defs>
<linearGradient id="paint0_linear_2939_430" x1="10.5" y1="0" x2="10.5" y2="21" gradientUnits="userSpaceOnUse">
<stop stop-color="#ED3B30"/>
<stop offset="0.703125" stop-color="#ED3C31"/>
<stop offset="1" stop-color="#F24C42"/>
</linearGradient>
</defs>
</svg>
