<svg width="20" height="12" viewBox="0 0 20 12" fill="none" xmlns="http://www.w3.org/2000/svg">
<path d="M9.63762 0C9.30477 0.0919991 9.20748 0.248398 9.20748 0.463062C9.2126 4.07863 9.2126 7.69726 9.20748 11.3128C9.20748 11.5275 9.30477 11.6839 9.63762 11.7759C9.74003 11.7759 9.84245 11.7759 9.94486 11.7759C10.2777 11.6839 10.375 11.5275 10.375 11.3128C10.3699 7.69726 10.3699 4.07863 10.375 0.463062C10.375 0.248398 10.2777 0.0919991 9.94486 0C9.84245 0 9.74003 0 9.63762 0Z" fill="white"/>
<path d="M12.6758 5.8876C12.6758 4.64255 12.6758 3.39749 12.6758 2.15244C12.6758 1.87951 12.2917 1.70471 11.8974 1.79671C11.6772 1.84884 11.5543 1.95311 11.5287 2.09417C11.5236 2.13097 11.5236 2.17084 11.5236 2.20764C11.5236 4.66095 11.5236 7.11119 11.5236 9.5645C11.5236 9.8405 11.7387 9.99997 12.0971 10.003C12.4607 10.003 12.6758 9.8405 12.6758 9.56757C12.6758 8.34091 12.6758 7.11426 12.6758 5.8876Z" fill="white"/>
<path d="M13.8299 5.90128C13.8299 6.61887 13.8299 7.3334 13.8299 8.05099C13.8299 8.24419 13.9938 8.38219 14.2703 8.42205C14.6185 8.47112 14.9514 8.32699 14.9821 8.11539C14.9872 8.09392 14.9821 8.06939 14.9821 8.04792C14.9821 6.60967 14.9821 5.17448 14.9821 3.73623C14.9821 3.4725 14.6595 3.30384 14.2703 3.3621C13.9989 3.40197 13.8351 3.5369 13.8351 3.73317C13.8299 4.45382 13.8299 5.17755 13.8299 5.90128Z" fill="white"/>
<path d="M16.133 5.89537C16.133 6.3247 16.133 6.75403 16.133 7.18336C16.133 7.42562 16.3583 7.58509 16.7065 7.58816C17.0496 7.59122 17.2852 7.42869 17.2852 7.18949C17.2852 6.3155 17.2852 5.44458 17.2852 4.57059C17.2852 4.30072 16.896 4.12592 16.5017 4.22099C16.2713 4.27619 16.1381 4.40192 16.1381 4.56752C16.133 5.00605 16.133 5.45071 16.133 5.89537Z" fill="white"/>
<path d="M19.5859 5.88481C19.5859 5.67321 19.5859 5.46468 19.5859 5.25308C19.5859 5.04148 19.3453 4.88508 19.0175 4.87895C18.6898 4.87588 18.4338 5.03535 18.4338 5.25308C18.4338 5.67934 18.4287 6.10254 18.4338 6.5288C18.4338 6.7404 18.6847 6.8968 19.0124 6.8968C19.335 6.8968 19.5859 6.7404 19.5859 6.5288C19.5859 6.31414 19.5859 6.09947 19.5859 5.88481Z" fill="white"/>
<path d="M6.91319 5.88838C6.91319 7.12116 6.91319 8.35702 6.91319 9.58981C6.91319 9.64501 6.91831 9.70634 6.94391 9.75847C7.02072 9.91794 7.28188 10.0191 7.54303 10.0007C7.81955 9.97927 8.03462 9.84741 8.06022 9.67874C8.06534 9.64194 8.06022 9.60207 8.06022 9.56527C8.06022 7.11196 8.06022 4.66172 8.06022 2.20841C8.06022 1.93241 7.84516 1.77295 7.48159 1.77295C7.11802 1.77295 6.90807 1.93548 6.90807 2.21148C6.91319 3.43813 6.91319 4.66172 6.91319 5.88838Z" fill="white"/>
<path d="M5.76441 5.88749C5.76441 5.16376 5.76441 4.44003 5.76441 3.71631C5.76441 3.46791 5.44181 3.30538 5.06287 3.35444C4.81708 3.38818 4.63786 3.51084 4.61737 3.66111C4.61225 3.68257 4.61737 3.70711 4.61737 3.72857C4.61737 5.16989 4.61737 6.60815 4.61737 8.04947C4.61737 8.304 4.9451 8.46959 5.32915 8.4144C5.60055 8.37453 5.76953 8.23653 5.76953 8.04333C5.76441 7.32881 5.76441 6.60815 5.76441 5.88749Z" fill="white"/>
<path d="M3.45703 5.88228C3.45703 5.44988 3.45703 5.01749 3.45703 4.58509C3.45703 4.35203 3.2266 4.19256 2.88863 4.1895C2.54555 4.18643 2.30487 4.34896 2.30487 4.58816C2.30487 5.46215 2.30487 6.33307 2.30487 7.20707C2.30487 7.47386 2.67869 7.6456 3.07298 7.5628C3.30853 7.51373 3.45703 7.38186 3.45703 7.2132C3.45703 6.7716 3.45703 6.32694 3.45703 5.88228Z" fill="white"/>
<path d="M1.15234 5.88783C1.15234 5.67623 1.15234 5.4677 1.15234 5.2561C1.15234 5.03837 0.90143 4.87891 0.573706 4.87891C0.24086 4.88197 0.0053074 5.03837 0.000186702 5.25917C0.000186702 5.67623 0.000186702 6.09329 0.000186702 6.51036C0.000186702 6.73116 0.24086 6.89062 0.568584 6.89369C0.906551 6.89675 1.14722 6.73422 1.15234 6.50729C1.15234 6.30183 1.15234 6.09329 1.15234 5.88783Z" fill="white"/>
</svg>
