<svg width="50" height="50" viewBox="0 0 50 50" fill="none" xmlns="http://www.w3.org/2000/svg">
<path d="M10.3392 0C11.0155 0.169069 11.7048 0.286116 12.355 0.507206C16.3997 1.84675 19.0788 5.9044 18.7016 10.0791C18.3114 14.4619 15.0471 17.9863 10.7944 18.6236C5.59227 19.4039 0.793322 15.8144 0.091037 10.6123C0.0780317 10.5213 0.0390159 10.4302 0 10.3392C0 9.68894 0 9.03867 0 8.38841C0.0260106 8.29737 0.0780317 8.20634 0.091037 8.1153C0.66327 4.53884 2.61406 2.04183 5.96943 0.66327C6.73674 0.351143 7.58208 0.22109 8.38841 0C9.03867 0 9.68894 0 10.3392 0ZM10.1311 14.5529C11.0675 14.2928 11.8218 13.7986 12.329 12.9793C13.5255 11.0675 12.6671 9.12971 10.4432 8.75256C9.68894 8.6225 8.93463 8.55748 8.18033 8.40141C7.53006 8.25836 7.36099 7.95923 7.46503 7.29596C7.6341 6.22953 8.66152 5.54025 9.74096 5.78735C10.5473 5.96943 10.9505 6.54166 11.2236 7.25695C11.4056 7.73814 11.8218 7.90721 12.238 7.75115C12.6411 7.59509 12.8232 7.20493 12.6802 6.74974C12.329 5.63129 11.6397 4.81196 10.5343 4.38278C10.4042 4.33076 10.2742 4.29174 10.1571 4.23972C10.0921 3.03023 9.93604 2.7181 9.38982 2.73111C9.20774 2.73111 8.92163 2.79614 8.8696 2.91318C8.68753 3.32935 8.59649 3.77153 8.44043 4.27874C7.53006 4.53884 6.73674 5.11108 6.24254 6.06046C5.31916 7.89421 6.11248 9.61091 8.07628 10.0141C8.15431 10.0271 8.23235 10.0401 8.32338 10.0531C9.06468 10.1571 9.80599 10.2352 10.5343 10.3782C11.1195 10.4953 11.2886 10.7554 11.2756 11.2886C11.2236 12.4461 10.1051 13.2784 8.98665 13.0053C8.19333 12.8102 7.77716 12.251 7.50405 11.5357C7.32198 11.0545 6.93182 10.8854 6.48964 11.0285C6.07347 11.1715 5.89139 11.5747 6.04746 12.0689C6.37259 13.0573 6.94482 13.8636 7.92022 14.2538C8.42743 14.4619 8.66152 14.683 8.6095 15.2552C8.57048 15.6974 8.92163 15.9835 9.3508 15.9835C9.77998 15.9835 10.0921 15.7104 10.1441 15.2812C10.1571 15.0471 10.1311 14.8 10.1311 14.5529Z" fill="white"/>
<path d="M41.5497 0C42.213 0.156063 42.8763 0.273111 43.5265 0.481196C47.5842 1.80774 50.2633 5.81336 49.9251 10.0271C49.574 14.3969 46.3227 17.9343 42.0309 18.5976C36.9328 19.4039 32.0689 15.8534 31.3145 10.7944C30.5472 5.57927 34.1237 0.780317 39.3258 0.091037C39.4168 0.0780317 39.5079 0.0390159 39.5989 0C40.2492 0 40.8994 0 41.5497 0ZM39.768 14.5399C39.833 15.1382 39.5989 15.9445 40.5223 15.9705C41.4977 15.9965 41.3156 15.1642 41.3546 14.5529C42.4471 14.2408 43.2534 13.6295 43.7216 12.6281C44.5929 10.7684 43.7346 9.1037 41.7188 8.77857C41.0295 8.66152 40.3272 8.6095 39.6509 8.49245C38.6885 8.32338 38.3764 7.76416 38.8186 6.8928C39.0007 6.52865 39.3388 6.16451 39.703 5.98243C40.7564 5.42321 41.8618 5.94342 42.382 7.17892C42.6291 7.76416 43.0063 7.97224 43.4745 7.77716C43.9037 7.59509 44.0467 7.17892 43.8516 6.61969C43.4225 5.42321 42.6031 4.62988 41.3806 4.29175C41.3026 3.6805 41.5757 2.82215 40.6393 2.78313C39.5729 2.73111 39.872 3.66749 39.794 4.26573C38.4935 4.65589 37.6091 5.4102 37.245 6.69772C36.7768 8.32338 37.5051 9.57189 39.1437 9.98806C39.2868 10.0271 39.4298 10.0531 39.5729 10.0661C40.2752 10.1701 40.9905 10.2352 41.6928 10.3782C42.3951 10.5083 42.5901 10.8334 42.4731 11.5227C42.33 12.303 41.8618 12.7972 41.1075 13.0053C40.3402 13.2134 39.69 12.9793 39.1958 12.381C39.0007 12.1469 38.9226 11.8218 38.7536 11.5747C38.5975 11.3666 38.4154 11.1065 38.1943 11.0415C37.5961 10.8594 37.0889 11.3926 37.284 12.0039C37.6221 13.2914 38.4675 14.1498 39.768 14.5399Z" fill="white"/>
<path d="M0 36.8708C2.53603 32.527 5.05906 28.1833 7.59509 23.8395C8.03727 23.0722 8.27136 23.0072 9.02567 23.4364C10.1181 24.0606 11.2236 24.6979 12.316 25.3221C12.9273 25.6733 12.9923 25.9464 12.6411 26.5576C10.1571 30.8364 7.67312 35.1151 5.18911 39.3938C4.85097 39.9921 4.55185 40.0571 3.95361 39.719C2.82215 39.0817 1.70369 38.4314 0.572233 37.7812C0.364148 37.6641 0.195079 37.4951 0 37.352C0 37.1959 0 37.0399 0 36.8708Z" fill="white"/>
<path d="M20.9119 45.0382C20.5348 43.3996 19.7935 42.7363 18.1028 42.5932C17.9337 41.4488 17.3485 40.6164 16.191 40.2783C15.0335 39.9402 14.0842 40.3173 13.3168 41.2537C12.8096 40.6945 12.2114 40.3173 11.4441 40.2393C10.6898 40.1743 10.0395 40.4084 9.42827 40.8896C9.05112 40.6034 8.67396 40.3303 8.29681 40.0442C7.91966 39.7581 7.5425 39.485 7.15234 39.1859C7.21737 39.0558 7.26939 38.9388 7.33442 38.8347C9.22018 35.5964 11.106 32.3451 12.9787 29.1068C13.1218 28.8467 13.2778 28.7296 13.59 28.7816C15.2286 29.0287 16.8673 29.2498 18.584 29.4969C18.4799 29.679 18.3889 29.8221 18.2979 29.9651C17.3745 31.4607 16.5162 32.9953 16.165 34.7381C16.087 35.1282 16.074 35.5574 16.152 35.9475C16.3991 37.118 17.4655 37.6642 18.7791 37.3131C20.1836 36.9359 21.3151 36.0776 22.3685 35.1282C22.9017 34.647 23.3829 34.1138 23.8511 33.5806C24.0332 33.3725 24.1633 33.3205 24.4104 33.4765C28.9622 36.0906 33.5141 38.6917 38.0529 41.3057C38.7032 41.6829 38.8982 42.2681 38.5601 42.8143C38.235 43.3606 37.6367 43.4776 36.9865 43.1005C33.9172 41.3447 30.848 39.589 27.7787 37.8203C27.6357 37.7423 27.5056 37.6382 27.3496 37.5992C26.9464 37.4692 26.5952 37.5862 26.4002 37.9634C26.2051 38.3405 26.2701 38.7047 26.6343 38.9388C26.9984 39.1729 27.3886 39.3809 27.7657 39.602C29.8726 40.8115 31.9924 42.021 34.0993 43.2435C34.2554 43.3345 34.4114 43.4126 34.5545 43.5296C34.9837 43.8548 35.0877 44.375 34.8406 44.8302C34.5935 45.2983 34.0473 45.5064 33.5531 45.3114C33.371 45.2463 33.2019 45.1423 33.0329 45.0382C31.03 43.8938 29.0402 42.7363 27.0374 41.5918C26.8554 41.4878 26.6603 41.3838 26.4652 41.3447C26.101 41.2667 25.8279 41.4228 25.6589 41.7349C25.4768 42.06 25.5288 42.3722 25.7889 42.6193C25.919 42.7363 26.075 42.8273 26.2311 42.9184C27.8958 43.8678 29.5605 44.8172 31.2121 45.7795C31.7583 46.0917 31.9664 46.5338 31.8364 47.015C31.6413 47.7173 30.913 47.9904 30.2367 47.6133C29.0012 46.924 27.7787 46.2087 26.5562 45.5064C26.3742 45.4024 26.1921 45.2983 26.01 45.1943C25.4768 44.8952 25.0346 44.9862 24.7875 45.4154C24.5534 45.8446 24.6965 46.2347 25.2167 46.5338C26.01 47.002 26.8293 47.4442 27.6227 47.9254C28.1429 48.2505 28.2859 48.8228 27.9998 49.317C27.7267 49.8112 27.1415 49.9802 26.6083 49.7331C26.5432 49.7071 26.4912 49.6681 26.4392 49.6421C25.6068 49.1609 24.7745 48.6927 23.9552 48.1985C23.8251 48.1205 23.6951 47.9514 23.6821 47.8084C23.552 46.0266 22.7197 45.1683 20.9119 45.0382Z" fill="white"/>
<path d="M37.597 27.7134C39.3007 30.6656 40.9784 33.5788 42.6301 36.4269C41.4206 37.6624 40.2631 38.8459 39.0666 40.0684C37.6881 39.2751 36.3095 38.4948 34.9309 37.7014C31.4845 35.7246 28.0251 33.7478 24.5787 31.771C23.8374 31.3419 23.5773 31.3939 23.0701 32.0702C22.0167 33.4357 20.7942 34.6192 19.2726 35.4385C18.9214 35.6206 18.5183 35.7377 18.1281 35.8417C17.829 35.9197 17.6339 35.7637 17.6729 35.4515C17.7249 35.0354 17.79 34.6062 17.92 34.216C18.5313 32.4863 19.4416 30.9257 20.5731 29.4821C21.0803 28.8318 21.8086 28.5457 22.5499 28.3116C24.5267 27.6744 26.5685 27.5443 28.6234 27.6744C29.8719 27.7524 31.1074 27.9605 32.3429 28.1035C34.0986 28.2856 35.8413 28.2466 37.597 27.7134Z" fill="white"/>
<path d="M42.4999 21.9785C42.6689 22.1476 42.903 22.3167 43.0331 22.5377C44.5677 25.1388 46.0763 27.7529 47.5979 30.3669C48.3132 31.6024 49.0285 32.8379 49.7438 34.0734C50.0559 34.6066 49.9909 34.8798 49.4447 35.1919C48.2482 35.8812 47.0517 36.5704 45.8552 37.2467C45.335 37.5328 45.0619 37.4548 44.7758 36.9476C42.5259 33.072 40.276 29.1964 38.0261 25.3209C37.7529 24.8397 37.805 24.5796 38.2601 24.3065C39.5087 23.5782 40.7572 22.8629 42.0187 22.1476C42.1227 22.0956 42.2528 22.0696 42.4999 21.9785Z" fill="white"/>
<path d="M26.9338 6.86598C26.7387 6.69691 26.5046 6.55386 26.3356 6.35878C26.0365 6.02064 26.0755 5.60447 26.3746 5.30535C26.6737 5.00623 27.0899 4.96721 27.428 5.26633C28.1173 5.9166 28.7936 6.56686 29.4178 7.26915C29.5869 7.45122 29.6129 7.84138 29.5609 8.10148C29.4829 8.45263 29.1577 8.56967 28.7936 8.56967C27.1159 8.56967 25.4512 8.56967 23.7735 8.56967C22.9672 8.56967 22.1479 8.56967 21.3416 8.56967C20.6393 8.56967 20.2881 8.30957 20.3011 7.77635C20.3141 7.26915 20.6393 7.00904 21.3285 7.00904C23.0192 7.00904 24.7099 7.00904 26.4006 7.00904C26.5567 7.00904 26.7127 7.00904 26.8688 7.00904C26.8818 6.97002 26.9078 6.918 26.9338 6.86598Z" fill="white"/>
<path d="M22.9825 11.8742C23.1906 12.0303 23.4117 12.1604 23.5938 12.3424C23.8929 12.6806 23.8799 13.0967 23.5938 13.3959C23.2946 13.721 22.8525 13.76 22.5013 13.4349C21.812 12.7846 21.1358 12.1343 20.5115 11.4321C20.3554 11.263 20.2904 10.8468 20.3815 10.6517C20.4855 10.4306 20.8236 10.1705 21.0707 10.1705C23.6718 10.1315 26.2728 10.1445 28.8739 10.1575C29.3681 10.1575 29.6802 10.4957 29.6542 10.9639C29.6412 11.4191 29.3291 11.7052 28.8089 11.7052C27.0922 11.7182 25.3625 11.7052 23.6458 11.7052C23.4637 11.7052 23.2946 11.7052 23.1126 11.7052C23.0605 11.7572 23.0215 11.8222 22.9825 11.8742Z" fill="white"/>
<path d="M16.4877 42.8775C16.4487 42.9686 16.3967 43.1897 16.2796 43.3848C15.6034 44.5682 14.9141 45.7387 14.2248 46.9092C13.8476 47.5464 13.2494 47.7285 12.7162 47.4164C12.183 47.1043 12.0659 46.506 12.4431 45.8558C13.1324 44.6593 13.8216 43.4758 14.5239 42.2923C14.81 41.8111 15.2782 41.629 15.7724 41.7721C16.1886 41.8761 16.4877 42.2923 16.4877 42.8775Z" fill="white"/>
<path d="M18.2063 44.0742C18.9996 44.1783 19.5458 44.9196 19.2207 45.5568C18.7395 46.5062 18.1933 47.4296 17.621 48.34C17.3219 48.8212 16.7107 48.8862 16.2425 48.5871C15.7873 48.3009 15.6052 47.7547 15.8783 47.2735C16.3725 46.3762 16.8667 45.4918 17.4259 44.6334C17.582 44.3733 17.9462 44.2433 18.2063 44.0742Z" fill="white"/>
<path d="M19.3008 48.823C19.3138 48.771 19.3268 48.6149 19.3918 48.4849C19.6519 48.0037 19.912 47.5095 20.2242 47.0543C20.5493 46.5731 21.1735 46.4691 21.6547 46.7812C22.0969 47.0543 22.266 47.6005 22.0059 48.1077C21.7588 48.5889 21.4987 49.0441 21.1996 49.4993C20.9264 49.9025 20.5233 50.0455 20.0421 49.9025C19.5869 49.7594 19.3008 49.3693 19.3008 48.823Z" fill="white"/>
<path d="M10.9225 44.4785C10.1162 44.4915 9.59601 43.8152 9.84311 43.152C9.97316 42.7878 10.1812 42.4367 10.4153 42.1375C10.7015 41.7734 11.1176 41.6694 11.5598 41.8514C11.976 42.0205 12.2621 42.3326 12.2231 42.7748C12.1711 43.4381 11.8459 43.9713 11.2997 44.3484C11.1696 44.4525 11.0006 44.4525 10.9225 44.4785Z" fill="white"/>
</svg>
