<svg width="33" height="38" viewBox="0 0 33 38" fill="none" xmlns="http://www.w3.org/2000/svg">
<path d="M16.8165 0.0578571C20.7388 0.506876 24.4361 3.50714 25.2773 7.73199C25.3066 7.87486 25.3262 8.00753 25.3556 8.1504C26.0207 12.161 24.1329 16.2531 20.6508 18.2023C17.2567 20.1004 13.8821 19.9065 10.7228 17.6104C8.17967 15.7633 6.84942 13.1304 6.79074 9.90565C6.73205 6.32371 8.2188 3.50714 11.0554 1.49676C12.816 0.251752 14.8505 -0.166652 16.8165 0.0578571Z" fill="white"/>
<path d="M16.6498 37.5298C11.9939 37.4889 8.27706 36.2439 4.99056 33.6927C3.05387 32.1926 1.43997 30.3557 0.178185 28.1922C-0.0076583 27.8656 -0.0663458 27.5391 0.0901542 27.1819C1.72362 23.6204 4.36456 21.3345 8.04231 20.3752C8.32597 20.3038 8.61941 20.2629 8.90306 20.1915C9.47037 20.069 9.95944 20.2425 10.4192 20.5895C12.2678 21.9468 14.3317 22.5591 16.5813 22.457C18.3126 22.3856 19.9852 21.9468 21.3742 20.8752C22.411 20.0793 23.4087 20.1303 24.5237 20.4466C27.6635 21.3549 30.0208 23.3142 31.6934 26.2022C32.4172 27.4574 32.4465 27.4779 31.6738 28.7025C29.7958 31.6415 27.3701 33.9682 24.3183 35.5194C21.56 36.9175 18.8897 37.5298 16.6498 37.5298Z" fill="white"/>
</svg>
