<svg width="52" height="39" viewBox="0 0 52 39" fill="none" xmlns="http://www.w3.org/2000/svg">
<path d="M35.2556 38.1449C30.6969 38.1449 26.1383 38.1449 21.5796 38.1449C19.6973 38.1449 18.7855 37.1917 18.8297 35.2705C18.962 28.5239 24.1824 22.4773 30.7999 21.6582C34.1674 21.2412 37.5938 21.122 40.9466 21.8667C46.8435 23.1773 51.2993 28.509 51.711 34.6152C51.7257 34.8535 51.7551 35.0918 51.7551 35.345C51.8287 37.0875 50.8581 38.13 49.1376 38.13C46.2847 38.13 43.4466 38.13 40.5937 38.13C38.8144 38.1449 37.035 38.1449 35.2556 38.1449Z" fill="white"/>
<path d="M14.0854 19.0635C8.86492 19.0486 4.67387 14.7594 4.70328 9.42769C4.71798 4.22999 9.01197 -0.0443322 14.1883 0.000347122C19.3058 0.0450265 23.5115 4.30446 23.5263 9.47237C23.541 14.7743 19.3058 19.0784 14.0854 19.0635Z" fill="white"/>
<path d="M35.2572 19.0635C30.0368 19.0486 25.8457 14.7594 25.8752 9.42769C25.8899 4.22999 30.1838 -0.0443322 35.3602 0.000347122C40.4924 0.0301334 44.7422 4.36403 44.6981 9.53194C44.654 14.8339 40.463 19.0784 35.2572 19.0635Z" fill="white"/>
<path d="M19.5879 22.2824C15.4997 26.8099 13.4998 31.9481 14.3674 38.1436C14.2792 38.1436 14.088 38.1436 13.8968 38.1436C10.294 38.1436 6.69118 38.1436 3.08834 38.1436C0.779589 38.1436 -0.0145054 37.3394 0.000200002 34.9863C0.0443163 30.0566 2.07367 26.1993 6.16178 23.4888C7.99996 22.2675 10.0293 21.6122 12.2204 21.4931C14.5145 21.3739 16.8085 21.3144 19.0438 22.0739C19.1908 22.1335 19.3673 22.208 19.5879 22.2824Z" fill="white"/>
</svg>
