<svg width="32" height="32" viewBox="0 0 32 32" fill="none" xmlns="http://www.w3.org/2000/svg">
<g opacity="0.3">
<path d="M2.78906 28.5352C2.78906 20.624 2.78906 12.7204 2.78906 4.80919C2.80434 4.771 2.82725 4.73282 2.83489 4.69464C2.93417 4.03028 3.25495 3.49574 3.75903 3.06047C4.12563 2.74739 4.56861 2.59466 5.02687 2.46484C12.2215 2.46484 19.416 2.46484 26.6183 2.46484C26.6335 2.47248 26.6412 2.49539 26.6565 2.49539C27.9778 2.70921 28.8866 3.91574 28.8714 5.32845C28.8332 9.71932 28.8561 14.1178 28.8561 18.5087C28.8561 19.2647 28.8637 20.0207 28.8561 20.7767C28.8484 21.3341 28.6651 21.8381 28.3214 22.281C27.7486 23.0218 26.9849 23.3272 26.0607 23.3272C20.134 23.3196 14.1996 23.3272 8.27283 23.3196C8.08189 23.3196 7.94442 23.373 7.80694 23.5105C6.13431 25.1905 4.46169 26.8628 2.78906 28.5352ZM23.632 7.69571C21.8906 9.08551 20.1798 10.4524 18.4232 11.8575C18.4232 10.4295 18.4232 9.07024 18.4232 7.68043C18.3086 7.68043 18.2169 7.68043 18.1253 7.68043C14.8488 7.68043 11.5723 7.68043 8.30338 7.6728C8.05134 7.6728 7.99788 7.74152 7.99788 7.98588C8.00552 11.2619 8.00552 14.5378 8.00552 17.8062C8.00552 17.8978 8.00552 17.9894 8.00552 18.0887C11.4959 18.0887 14.9557 18.0887 18.4384 18.0887C18.4384 16.7142 18.4384 15.3549 18.4384 13.9422C20.1874 15.3396 21.8983 16.7065 23.6396 18.0963C23.632 14.6066 23.632 11.1779 23.632 7.69571Z" fill="white"/>
</g>
</svg>
