<svg width="36" height="35" viewBox="0 0 36 35" fill="none" xmlns="http://www.w3.org/2000/svg">
<path d="M9.54479 30.4525C8.76021 30.4525 7.97562 30.4525 7.19104 30.4404C6.41852 30.4404 5.65808 30.4404 4.88557 30.4284C4.47517 30.4163 4.14926 30.537 3.91992 30.8871C3.91992 30.0059 3.91992 29.1248 3.91992 28.2436C3.91992 27.5677 3.91992 26.9038 3.91992 26.2278C3.91992 25.6122 4.18547 25.3708 4.80107 25.3587C5.23561 25.3587 5.67015 25.3467 6.10469 25.3467C6.70822 25.3467 7.32381 25.3467 7.92734 25.3467C9.31545 25.3467 10.6915 25.3587 12.0796 25.3587C15.0007 25.3587 17.9218 25.3467 20.8428 25.3467C22.3275 25.3588 23.8122 25.3708 25.2969 25.3829C24.4761 26.9159 23.3052 28.0988 21.8326 29.0161C20.8911 29.5955 19.8892 30.0301 18.8753 30.4163C18.6822 30.4163 18.4891 30.4284 18.2839 30.4284C16.3405 30.4284 14.3972 30.4404 12.4417 30.4404C11.4761 30.4525 10.5104 30.4525 9.54479 30.4525Z" fill="#1A931E"/>
<path d="M7.92786 25.3594C7.32434 25.3594 6.70874 25.3594 6.10521 25.3594C6.16556 24.5386 5.85173 23.8626 5.29649 23.2832C4.16185 22.1003 4.14978 20.6881 5.28442 19.5172C6.04486 18.7326 6.2742 17.8273 5.99658 16.7772C5.61032 15.3046 6.34662 13.9889 7.81923 13.5906C8.90558 13.2888 9.58153 12.6249 9.88329 11.5386C10.2816 10.078 11.5973 9.3176 13.0699 9.70386C14.1442 9.98148 15.0495 9.75214 15.8461 8.97963C16.9687 7.88121 18.4292 7.88121 19.5518 8.96756C20.3485 9.75214 21.2537 9.99355 22.328 9.70386C23.8006 9.3176 25.1042 10.066 25.5146 11.5265C25.7078 12.2387 26.0699 12.8181 26.6855 13.2285C26.3113 13.663 26.2147 14.2545 25.8405 14.689C25.2612 14.1941 24.7783 13.5785 24.1627 13.1198C21.5676 11.1523 18.6706 10.4402 15.5202 11.1282C11.8629 11.9248 9.31598 14.1337 7.90372 17.6101C7.27605 19.143 7.07086 20.7605 7.23984 22.4262C7.34848 23.4401 7.65024 24.3937 7.92786 25.3594Z" fill="#FABC07"/>
<path d="M18.8633 30.428C19.8893 30.0297 20.8791 29.6072 21.8206 29.0278C23.3052 28.1105 24.464 26.9276 25.2848 25.3946C26.009 25.3825 26.7333 25.3705 27.4575 25.3584C28.061 25.3584 28.6646 25.3584 29.2681 25.3584C29.7388 25.3584 30.1975 25.3584 30.6683 25.3705C31.1752 25.3825 31.4408 25.636 31.4408 26.143C31.4529 26.6982 31.4649 27.2535 31.4287 27.8087C31.4046 28.1829 31.5132 28.3398 31.8874 28.2674C31.9719 28.2553 32.0685 28.2795 32.1529 28.2795C31.6943 29.5589 31.8391 30.7298 32.6599 31.8282C33.1669 32.5162 33.9032 32.8904 34.5912 33.3129C32.6841 33.3129 30.7769 33.325 28.8698 33.325C28.6525 33.325 28.4594 33.2525 28.3387 33.0594C28.4232 33.0473 28.5318 33.0473 28.6042 33.0111C29.4371 32.5645 30.282 32.13 31.1028 31.6592C31.5374 31.4178 31.477 30.8022 31.0304 30.5608C30.8493 30.4642 30.6441 30.428 30.4148 30.428C29.6664 30.4401 28.906 30.4401 28.1576 30.4401C27.373 30.4401 26.5884 30.4401 25.8038 30.4522C24.8382 30.4522 23.8726 30.4522 22.9069 30.4522C21.5792 30.4401 20.2273 30.428 18.8633 30.428Z" fill="#1A931E"/>
<path d="M22.9308 30.4521C23.8964 30.4521 24.8621 30.4521 25.8277 30.4521C25.6708 30.7298 25.5863 31.0315 25.5018 31.3333C25.0552 32.7455 23.7516 33.506 22.3393 33.1197C21.2409 32.818 20.3477 33.0715 19.551 33.856C18.4768 34.9182 16.9197 34.9182 15.8333 33.856C15.0367 33.0715 14.1434 32.818 13.045 33.1197C11.5845 33.5181 10.2326 32.6973 9.83426 31.2126C9.76184 30.947 9.67735 30.7056 9.55664 30.4642C10.5223 30.4642 11.4879 30.4642 12.4536 30.4642C12.9364 30.8746 13.5278 31.0677 14.0952 31.2729C16.2317 32.0575 18.4043 32.1179 20.577 31.5144C21.4099 31.2729 22.2428 31.0074 22.9308 30.4521Z" fill="#F3950D"/>
<path d="M29.2803 25.3591C28.6768 25.3591 28.0732 25.3591 27.4697 25.3591C28.194 23.4036 28.4233 21.412 28.0129 19.36C27.6749 17.6581 26.9869 16.113 25.8523 14.7853C25.8402 14.7611 25.8402 14.7249 25.8281 14.7008C26.2023 14.2662 26.2989 13.6748 26.6731 13.2402C27.011 13.3609 27.3369 13.4937 27.687 13.6024C29.0389 14.0369 29.7993 15.3526 29.4251 16.7286C29.1234 17.8391 29.3648 18.7444 30.1735 19.5652C31.2237 20.6395 31.2237 22.1483 30.1735 23.2346C29.57 23.8261 29.232 24.5021 29.2803 25.3591Z" fill="#F3950D"/>
<path d="M15.2659 6.63731C15.2297 6.11827 15.3383 5.62338 15.4107 5.11642C15.459 4.80258 15.4107 4.53703 15.1693 4.29562C14.8072 3.95765 14.4934 3.57139 14.1554 3.1972C13.7933 2.7868 13.8657 2.54539 14.4089 2.42469C14.9038 2.31605 15.4107 2.19535 15.9056 2.11085C16.2074 2.06257 16.3764 1.90565 16.5212 1.6401C16.7626 1.18142 17.0161 0.746882 17.2817 0.300272C17.5231 -0.0980557 17.7886 -0.0980557 18.0301 0.288202C18.2594 0.674459 18.5008 1.06072 18.6939 1.47111C18.875 1.82116 19.0923 2.09878 19.5147 2.15914C19.5389 2.44883 19.4785 2.72645 19.382 2.992C19.0561 3.94558 18.5008 4.73016 17.7162 5.34576C16.9799 5.94929 16.1953 6.45625 15.2659 6.63731Z" fill="#FEE061"/>
<path d="M5.32752 33.3244C3.71425 33.3244 2.11302 33.3365 0.499747 33.3365C0.307118 33.3365 0.138567 33.3124 0.0422524 33.1198C-0.0540624 32.9151 0.0542917 32.7827 0.174685 32.6382C0.535865 32.2168 0.909085 31.7954 1.25823 31.3741C1.60737 30.9527 1.60737 30.6637 1.25823 30.2544C0.909085 29.821 0.535865 29.4116 0.174685 28.9903C0.0542917 28.8458 -0.0661017 28.7013 0.0422524 28.5087C0.138567 28.3161 0.307118 28.292 0.499747 28.292C1.41474 28.304 2.31769 28.2686 3.24472 28.2686C3.24472 29.1233 3.28083 30.0136 3.24472 30.8684C3.22064 31.5787 3.53366 32.0603 4.08747 32.4576C4.49681 32.7345 4.9543 32.9633 5.32752 33.3244Z" fill="#1A931E"/>
<path d="M34.6152 33.3248C33.9151 32.9023 33.1909 32.5161 32.6839 31.8401C31.8631 30.7417 31.7062 29.5588 32.177 28.2914C33.1064 28.2914 34.0479 28.2793 34.9773 28.2793C35.1584 28.2793 35.3033 28.3276 35.3877 28.4966C35.4843 28.6776 35.3998 28.8225 35.2791 28.9432C34.9049 29.3777 34.5307 29.8123 34.1686 30.2468C33.8186 30.6693 33.8186 30.9469 34.1686 31.3694C34.4945 31.7677 34.8325 32.1419 35.1705 32.5402C35.3153 32.7092 35.5205 32.854 35.3877 33.1317C35.267 33.3972 35.0136 33.3489 34.7963 33.3489C34.7359 33.3369 34.6756 33.3248 34.6152 33.3248Z" fill="#1A931E"/>
<path d="M15.2662 6.63762C16.2077 6.4445 16.9803 5.93753 17.7045 5.37022C18.477 4.75462 19.0443 3.95796 19.3702 3.01646C19.4668 2.73884 19.5271 2.47329 19.503 2.18359C20.022 2.20773 20.5169 2.34051 21.0118 2.46122C21.4343 2.56985 21.5067 2.82333 21.217 3.14924C20.8549 3.55964 20.4928 3.95796 20.1186 4.34422C19.9255 4.54942 19.8531 4.75462 19.9013 5.03224C19.9858 5.56335 20.0341 6.10652 20.0945 6.64969C20.1307 7.04802 19.8651 7.22908 19.4909 7.07216C18.984 6.85489 18.477 6.61348 17.97 6.37207C17.7528 6.26344 17.5476 6.26344 17.3303 6.37207C16.8354 6.61348 16.3285 6.84282 15.8094 7.07216C15.4111 7.24115 15.23 7.08423 15.2662 6.63762Z" fill="#FABD09"/>
<path d="M0.683594 8.36321C0.731876 7.98902 1.04571 7.78383 1.27505 7.55449C1.50439 7.31307 1.58888 7.0958 1.52853 6.75783C1.46818 6.41985 1.29919 6.00946 1.63717 5.7439C1.96307 5.49042 2.26483 5.8284 2.53039 5.97324C2.90457 6.17844 3.23048 6.17844 3.58052 5.96117C3.66502 5.91289 3.77365 5.86461 3.87022 5.8284C4.07542 5.73183 4.29269 5.63527 4.50996 5.80426C4.70308 5.96117 4.64273 6.17844 4.60652 6.38364C4.52203 6.85439 4.40132 7.33722 4.86 7.69933C4.4496 8.19422 3.94264 8.52013 3.29083 8.6529C2.37347 8.83396 1.5406 8.55634 0.683594 8.36321Z" fill="#FEE061"/>
<path d="M31.3548 9.17168C31.1013 8.79749 30.6668 8.84578 30.3046 8.74921C29.677 8.58023 29.5683 8.33881 30.0391 7.92842C30.5581 7.46973 30.7633 6.97484 30.5702 6.29889C30.5098 6.10576 30.5098 5.87642 30.715 5.73158C30.9202 5.58673 31.0892 5.70744 31.2582 5.79193C31.3548 5.84021 31.4513 5.87642 31.5358 5.92471C31.9221 6.17819 32.2963 6.19026 32.7067 5.94885C32.8877 5.84021 33.0929 5.71951 33.3344 5.73158C33.4309 6.5403 33.2619 7.31282 32.9481 8.04912C32.6584 8.72507 32.1756 9.18375 31.3548 9.17168Z" fill="#FEE061"/>
<path d="M3.93271 30.8989C4.16205 30.5489 4.48796 30.4282 4.89835 30.4403C5.67087 30.4523 6.43131 30.4523 7.20383 30.4523C7.20383 31.1524 7.20383 31.8525 7.20383 32.5526C7.20383 32.7457 7.2159 32.9389 7.03484 33.0716C6.87792 33.0837 6.74515 33.0234 6.61237 32.9509C5.91228 32.5768 5.22426 32.1784 4.5121 31.8284C4.08963 31.6111 3.88443 31.3456 3.93271 30.8989Z" fill="#137D17"/>
<path d="M28.1816 30.4408C28.93 30.4408 29.6905 30.4408 30.4388 30.4287C30.6561 30.4287 30.8613 30.4649 31.0544 30.5615C31.5131 30.8029 31.5614 31.4185 31.1269 31.6599C30.3061 32.1307 29.4611 32.5652 28.6283 33.0118C28.5558 33.048 28.4593 33.048 28.3627 33.0601C28.1816 32.9273 28.1937 32.7342 28.1937 32.5411C28.1937 31.853 28.1816 31.1409 28.1816 30.4408Z" fill="#137D17"/>
<path d="M3.93061 30.8987C3.88233 31.3453 4.08753 31.6229 4.49792 31.816C5.21009 32.1661 5.89811 32.5644 6.5982 32.9386C6.73097 33.011 6.86375 33.0714 7.02067 33.0593C6.87582 33.2887 6.65855 33.3369 6.40507 33.3249C6.03088 33.3128 5.6567 33.3128 5.29458 33.3128C4.92039 32.9627 4.46171 32.7334 4.05131 32.4316C3.49607 32.0454 3.18223 31.5626 3.20638 30.8383C3.24259 29.9813 3.21845 29.1243 3.21845 28.2673C3.45986 28.2552 3.70127 28.2552 3.94268 28.2432C3.93061 29.1364 3.93061 30.0175 3.93061 30.8987Z" fill="#1A931E"/>
<path d="M31.3555 9.17239C32.1763 9.19653 32.6591 8.73785 32.9608 8.03776C33.2747 7.30146 33.4437 6.52894 33.3471 5.72021C33.6006 5.67193 33.7092 5.81678 33.7213 6.04612C33.7213 6.0944 33.7334 6.14268 33.7213 6.1789C33.504 6.95141 33.7092 7.55494 34.3128 8.08604C34.6145 8.35159 34.4697 8.66543 34.0713 8.77406C33.9989 8.7982 33.9265 8.7982 33.8541 8.7982C33.2385 8.82234 32.816 9.09997 32.5867 9.67935C32.5022 9.88455 32.4056 10.1501 32.1038 10.1501C31.8021 10.1501 31.7297 9.88455 31.621 9.67935C31.5124 9.52244 31.44 9.34138 31.3555 9.17239Z" fill="#FABE0C"/>
<path d="M0.683594 8.3631C1.5406 8.55623 2.37347 8.83385 3.27876 8.65279C3.93057 8.52002 4.43753 8.19411 4.84793 7.69922C5.0652 7.94063 5.43939 8.09755 5.34282 8.4838C5.23419 8.87006 4.82379 8.83385 4.5341 8.84592C3.93057 8.87006 3.72537 9.25632 3.48396 9.69086C3.37532 9.89606 3.3029 10.1616 2.98907 10.1616C2.67523 10.1616 2.59074 9.89606 2.50625 9.69086C2.27691 9.12354 1.90272 8.80971 1.26298 8.76143C1.05778 8.74936 0.695664 8.76143 0.683594 8.3631Z" fill="#FABE0C"/>
<path d="M25.8279 14.6884C25.8279 14.7125 25.8399 14.7487 25.852 14.7728C25.7554 15.7264 25.6347 16.68 25.4054 17.6094C25.345 17.8267 25.2968 17.9474 25.0674 17.8267C24.5725 17.03 23.8604 16.6317 22.9189 16.6679C22.3516 16.6921 21.7722 16.6679 21.2049 16.6679C20.4927 16.6679 20.2513 16.8973 20.2513 17.6094C20.2513 19.3838 20.2633 21.1702 20.2392 22.9446C20.2392 23.3791 20.3599 23.7051 20.7703 23.8982C21.0479 24.5017 21.5187 24.1999 22.0015 24.0913C21.6515 24.6103 21.2048 24.9121 20.8669 25.3346C17.9458 25.3346 15.0247 25.3466 12.1037 25.3466C10.7155 25.3466 9.33951 25.3346 7.95139 25.3346C7.67377 24.3689 7.37201 23.4154 7.27544 22.4014C7.10646 20.7357 7.31165 19.1303 7.93932 17.5853C9.35158 14.121 11.8985 11.9121 15.5558 11.1034C18.7062 10.4154 21.6032 11.1275 24.1863 13.095C24.7657 13.5899 25.2485 14.1935 25.8279 14.6884ZM17.8372 23.9223C17.9699 24.2844 18.2717 24.3327 18.5735 24.2603C18.9356 24.1758 19.1287 23.9223 19.1287 23.5361C19.1287 21.6289 19.1287 19.7097 19.1287 17.8026C19.1287 17.537 19.0684 17.2956 18.7666 17.199C18.5735 16.8369 18.2958 16.5955 17.8613 16.7162C17.4026 16.849 17.3181 17.2111 17.3181 17.6456C17.3302 19.42 17.3302 21.1944 17.3181 22.9687C17.3181 23.4033 17.4509 23.7171 17.8372 23.9223ZM13.5038 20.2287C13.4073 20.1442 13.3711 20.0356 13.3349 19.9149C13.1055 19.1545 12.8641 18.4061 12.6227 17.6456C12.5623 17.4404 12.502 17.2352 12.2485 17.187C11.9226 16.6921 11.5967 16.5593 11.2104 16.7524C10.8363 16.9335 10.7276 17.2715 10.8966 17.8026C11.4519 19.6011 12.0192 21.3996 12.5744 23.1981C12.671 23.524 12.8279 23.7654 13.1297 23.9223C13.2383 24.2362 13.4918 24.2965 13.7815 24.2844C14.1194 24.2603 14.3246 24.043 14.4212 23.7292C15.0127 21.8341 15.6162 19.927 16.1956 18.0198C16.3042 17.6819 16.268 17.3559 15.8817 17.199C15.7007 16.8852 15.4593 16.6317 15.0609 16.6921C14.6626 16.7524 14.5057 17.0421 14.3971 17.4042C14.1074 18.3457 13.7935 19.2872 13.5038 20.2287Z" fill="#FEE060"/>
<path d="M25.0556 17.839C25.297 17.9597 25.3453 17.8511 25.3936 17.6217C25.6229 16.6923 25.7557 15.7387 25.8402 14.7852C26.9748 16.1129 27.6629 17.6579 28.0008 19.3599C28.4112 21.4119 28.1698 23.4035 27.4577 25.359C26.7334 25.371 26.0092 25.3831 25.285 25.3952C23.8003 25.3831 22.3156 25.371 20.8309 25.359C21.1568 24.9365 21.6155 24.6347 21.9656 24.1157C21.4827 24.2123 21.012 24.5261 20.7344 23.9226C21.4224 23.9105 21.6638 23.6811 21.6638 23.0052C21.6638 22.7396 21.6517 22.462 21.6638 22.1965C21.6879 21.8223 21.4948 21.3395 21.7362 21.1101C21.9776 20.8808 22.4605 21.0136 22.8226 21.0498C24.5969 21.1705 25.8402 19.4444 25.0556 17.839ZM22.0259 24.0071C22.7381 23.2828 23.3295 22.4741 23.7882 21.5688C23.8848 21.3757 23.7037 21.3877 23.583 21.3877C23.1968 21.3877 22.7984 21.4119 22.4122 21.3757C22.0863 21.3515 22.0139 21.4964 22.0139 21.7981C22.0259 22.5224 22.0863 23.2587 22.0259 24.0071Z" fill="#FABB06"/>
<path d="M22.9307 30.4529C22.2306 31.0081 21.3977 31.2736 20.5649 31.503C18.3801 32.1065 16.2074 32.0462 14.083 31.2616C13.5036 31.0564 12.9242 30.8512 12.4414 30.4529C14.3848 30.4529 16.3281 30.4408 18.2835 30.4408C18.4767 30.4408 18.6698 30.4287 18.875 30.4287C20.2269 30.4287 21.5788 30.4408 22.9307 30.4529Z" fill="#FABB06"/>
<path d="M25.0551 17.8388C25.8397 19.4442 24.5965 21.1824 22.8342 21.0375C22.46 21.0134 21.9771 20.8685 21.7478 21.0979C21.5064 21.3272 21.6875 21.81 21.6754 22.1842C21.6633 22.4498 21.6754 22.7274 21.6754 22.993C21.6754 23.6689 21.434 23.8982 20.7459 23.9103C20.3356 23.7172 20.2148 23.3913 20.2148 22.9567C20.2269 21.1824 20.2148 19.3959 20.2269 17.6216C20.2269 16.9215 20.4683 16.6801 21.1805 16.6801C21.7478 16.6801 22.3272 16.6921 22.8945 16.6801C23.8481 16.6439 24.5602 17.0301 25.0551 17.8388ZM23.7274 18.5027C23.5222 18.0802 23.1238 18.1285 22.7497 18.1285C21.6271 18.1285 21.6392 18.1285 21.6512 19.2632C21.6512 19.5649 21.7719 19.6253 22.0254 19.5649C22.3634 19.5649 22.7134 19.5891 23.0514 19.577C23.6912 19.5529 23.9809 19.0942 23.7274 18.5027Z" fill="#2FB8B8"/>
<path d="M13.1289 23.9219C12.8271 23.765 12.6702 23.5236 12.5737 23.1977C12.0184 21.3991 11.4511 19.6006 10.8958 17.8021C10.7269 17.2831 10.8355 16.9451 11.2097 16.752C11.5959 16.5589 11.9218 16.6916 12.2478 17.1865C12.5374 18.3453 12.9358 19.4799 13.3824 20.6025C13.4186 20.4697 13.4548 20.349 13.491 20.2162C13.7928 19.2747 14.0945 18.3332 14.3842 17.3796C14.4929 17.0296 14.6498 16.7278 15.0481 16.6675C15.4585 16.6071 15.6879 16.8485 15.8689 17.1745C15.881 17.3917 15.8448 17.5969 15.7723 17.79C15.205 19.5765 14.6498 21.375 14.0825 23.1614C13.9135 23.7891 13.7566 23.9098 13.1289 23.9219Z" fill="#2FB8B8"/>
<path d="M17.8362 23.9221C17.4379 23.729 17.3051 23.4031 17.3172 22.9685C17.3292 21.1941 17.3292 19.4198 17.3172 17.6454C17.3172 17.2109 17.4016 16.8487 17.8603 16.716C18.2949 16.5953 18.5725 16.8367 18.7656 17.1988C18.7656 19.118 18.7656 21.0493 18.7656 22.9685C18.7777 23.6807 18.5483 23.91 17.8362 23.9221Z" fill="#2FB8B8"/>
<path d="M13.1289 23.9222C13.7566 23.9101 13.9014 23.7894 14.0945 23.1979C14.6619 21.4115 15.2171 19.613 15.7844 17.8265C15.8448 17.6213 15.881 17.4161 15.881 17.2109C16.2672 17.3799 16.3035 17.6938 16.1948 18.0317C15.6154 19.9389 15.0119 21.834 14.4205 23.7411C14.3239 24.0549 14.1187 24.2722 13.7807 24.2963C13.5031 24.2963 13.2375 24.236 13.1289 23.9222Z" fill="#F7BA0A"/>
<path d="M17.8359 23.9225C18.5481 23.9104 18.7654 23.6811 18.7654 22.9689C18.7654 21.0497 18.7654 19.1184 18.7654 17.1992C19.0671 17.2958 19.1275 17.5372 19.1275 17.8027C19.1275 19.7099 19.1275 21.6291 19.1275 23.5363C19.1275 23.9225 18.9344 24.176 18.5722 24.2605C18.2705 24.3329 17.9687 24.2846 17.8359 23.9225Z" fill="#FABC07"/>
<path d="M13.503 20.2289C13.4668 20.3617 13.4306 20.4824 13.3944 20.6152C12.9478 19.4926 12.5495 18.358 12.2598 17.1992C12.5012 17.2596 12.5615 17.4648 12.634 17.6579C12.8754 18.4183 13.1168 19.1667 13.3461 19.9272C13.3703 20.0479 13.4065 20.1565 13.503 20.2289Z" fill="#F1B710"/>
<path d="M22.0254 24.0068C22.0857 23.2584 22.0254 22.5342 22.0254 21.8099C22.0254 21.5082 22.0857 21.3754 22.4237 21.3875C22.81 21.4116 23.2083 21.3875 23.5946 21.3995C23.7032 21.3995 23.8963 21.3875 23.7998 21.5806C23.329 22.4618 22.7376 23.2705 22.0254 24.0068Z" fill="#FEE060"/>
<path d="M23.7263 18.5033C23.9798 19.0948 23.6901 19.5534 23.0625 19.5776C22.7245 19.5896 22.3744 19.5655 22.0365 19.5655C22.0365 19.3241 22.0485 19.0827 22.0365 18.8533C22.0123 18.5757 22.121 18.4792 22.3986 18.4912C22.8331 18.5033 23.2797 18.5033 23.7263 18.5033Z" fill="#FEE060"/>
<path d="M23.7271 18.5028C23.2805 18.5028 22.8338 18.5149 22.3872 18.4907C22.1096 18.4787 22.013 18.5752 22.0251 18.8529C22.0372 19.0943 22.0251 19.3357 22.0251 19.565C21.7716 19.6133 21.663 19.565 21.6509 19.2633C21.6389 18.1286 21.6268 18.1286 22.7493 18.1286C23.1235 18.1286 23.5219 18.0803 23.7271 18.5028Z" fill="#FABB06"/>
</svg>
