<svg width="36" height="35" viewBox="0 0 36 35" fill="none" xmlns="http://www.w3.org/2000/svg">
<path d="M9.56237 30.4525C8.77779 30.4525 7.9932 30.4525 7.20862 30.4404C6.4361 30.4404 5.67566 30.4404 4.90314 30.4284C4.49274 30.4163 4.16684 30.537 3.9375 30.8871C3.9375 30.0059 3.9375 29.1248 3.9375 28.2436C3.9375 27.5677 3.9375 26.9038 3.9375 26.2278C3.9375 25.6122 4.20305 25.3708 4.81865 25.3587C5.25319 25.3587 5.68773 25.3467 6.12227 25.3467C6.7258 25.3467 7.34139 25.3467 7.94492 25.3467C9.33303 25.3467 10.7091 25.3587 12.0972 25.3587C15.0183 25.3587 17.9393 25.3467 20.8604 25.3467C22.3451 25.3588 23.8298 25.3708 25.3144 25.3829C24.4936 26.9159 23.3228 28.0988 21.8502 29.0161C20.9087 29.5955 19.9068 30.0301 18.8929 30.4163C18.6998 30.4163 18.5066 30.4284 18.3014 30.4284C16.3581 30.4284 14.4147 30.4404 12.4593 30.4404C11.4937 30.4525 10.528 30.4525 9.56237 30.4525Z" fill="#E5E924"/>
<path d="M7.94544 25.3594C7.34191 25.3594 6.72632 25.3594 6.12279 25.3594C6.18314 24.5386 5.86931 23.8626 5.31406 23.2832C4.17943 22.1003 4.16736 20.6881 5.30199 19.5172C6.06244 18.7326 6.29178 17.8273 6.01416 16.7772C5.6279 15.3046 6.3642 13.9889 7.83681 13.5906C8.92316 13.2888 9.59911 12.6249 9.90087 11.5386C10.2992 10.078 11.6149 9.3176 13.0875 9.70386C14.1618 9.98148 15.0671 9.75214 15.8637 8.97963C16.9863 7.88121 18.4468 7.88121 19.5694 8.96756C20.366 9.75214 21.2713 9.99355 22.3456 9.70386C23.8182 9.3176 25.1218 10.066 25.5322 11.5265C25.7254 12.2387 26.0875 12.8181 26.7031 13.2285C26.3289 13.663 26.2323 14.2545 25.8581 14.689C25.2787 14.1941 24.7959 13.5785 24.1803 13.1198C21.5852 11.1523 18.6882 10.4402 15.5378 11.1282C11.8804 11.9248 9.33355 14.1337 7.9213 17.6101C7.29363 19.143 7.08843 20.7605 7.25742 22.4262C7.36606 23.4401 7.66782 24.3937 7.94544 25.3594Z" fill="#FABC07"/>
<path d="M18.8809 30.428C19.9069 30.0297 20.8966 29.6072 21.8381 29.0278C23.3228 28.1105 24.4816 26.9276 25.3024 25.3946C26.0266 25.3825 26.7509 25.3705 27.4751 25.3584C28.0786 25.3584 28.6821 25.3584 29.2857 25.3584C29.7564 25.3584 30.2151 25.3584 30.6859 25.3705C31.1928 25.3825 31.4584 25.636 31.4584 26.143C31.4704 26.6982 31.4825 27.2535 31.4463 27.8087C31.4222 28.1829 31.5308 28.3398 31.905 28.2674C31.9895 28.2553 32.086 28.2795 32.1705 28.2795C31.7118 29.5589 31.8567 30.7298 32.6775 31.8282C33.1845 32.5162 33.9208 32.8904 34.6088 33.3129C32.7016 33.3129 30.7945 33.325 28.8873 33.325C28.6701 33.325 28.4769 33.2525 28.3562 33.0594C28.4407 33.0473 28.5494 33.0473 28.6218 33.0111C29.4547 32.5645 30.2996 32.13 31.1204 31.6592C31.5549 31.4178 31.4946 30.8022 31.048 30.5608C30.8669 30.4642 30.6617 30.428 30.4324 30.428C29.684 30.4401 28.9236 30.4401 28.1752 30.4401C27.3906 30.4401 26.606 30.4401 25.8214 30.4522C24.8558 30.4522 23.8901 30.4522 22.9245 30.4522C21.5967 30.4401 20.2448 30.428 18.8809 30.428Z" fill="#E5E924"/>
<path d="M22.9484 30.4521C23.914 30.4521 24.8797 30.4521 25.8453 30.4521C25.6884 30.7298 25.6039 31.0315 25.5194 31.3333C25.0728 32.7455 23.7692 33.506 22.3569 33.1197C21.2585 32.818 20.3653 33.0715 19.5686 33.856C18.4943 34.9182 16.9373 34.9182 15.8509 33.856C15.0542 33.0715 14.161 32.818 13.0626 33.1197C11.6021 33.5181 10.2502 32.6973 9.85184 31.2126C9.77942 30.947 9.69492 30.7056 9.57422 30.4642C10.5399 30.4642 11.5055 30.4642 12.4711 30.4642C12.954 30.8746 13.5454 31.0677 14.1127 31.2729C16.2492 32.0575 18.4219 32.1179 20.5946 31.5144C21.4275 31.2729 22.2604 31.0074 22.9484 30.4521Z" fill="#F3950D"/>
<path d="M29.2979 25.3591C28.6944 25.3591 28.0908 25.3591 27.4873 25.3591C28.2115 23.4036 28.4409 21.412 28.0305 19.36C27.6925 17.6581 27.0045 16.113 25.8698 14.7853C25.8578 14.7611 25.8578 14.7249 25.8457 14.7008C26.2199 14.2662 26.3165 13.6748 26.6906 13.2402C27.0286 13.3609 27.3545 13.4937 27.7046 13.6024C29.0565 14.0369 29.8169 15.3526 29.4427 16.7286C29.141 17.8391 29.3824 18.7444 30.1911 19.5652C31.2412 20.6395 31.2412 22.1483 30.1911 23.2346C29.5876 23.8261 29.2496 24.5021 29.2979 25.3591Z" fill="#F3950D"/>
<path d="M15.2835 6.63731C15.2473 6.11827 15.3559 5.62338 15.4283 5.11642C15.4766 4.80258 15.4283 4.53703 15.1869 4.29562C14.8248 3.95765 14.511 3.57139 14.173 3.1972C13.8109 2.7868 13.8833 2.54539 14.4265 2.42469C14.9214 2.31605 15.4283 2.19535 15.9232 2.11085C16.225 2.06257 16.394 1.90565 16.5388 1.6401C16.7802 1.18142 17.0337 0.746882 17.2993 0.300272C17.5407 -0.0980557 17.8062 -0.0980557 18.0476 0.288202C18.277 0.674459 18.5184 1.06072 18.7115 1.47111C18.8926 1.82116 19.1098 2.09878 19.5323 2.15914C19.5565 2.44883 19.4961 2.72645 19.3995 2.992C19.0736 3.94558 18.5184 4.73016 17.7338 5.34576C16.9975 5.94929 16.2129 6.45625 15.2835 6.63731Z" fill="#FEE061"/>
<path d="M5.34133 33.3013C3.72388 33.3013 2.1185 33.3134 0.501043 33.3134C0.307914 33.3134 0.138926 33.2893 0.0423619 33.0961C-0.0542025 32.8909 0.0544324 32.7582 0.175138 32.6133C0.537254 32.1909 0.911441 31.7684 1.26149 31.3459C1.61153 30.9235 1.61153 30.6338 1.26149 30.2234C0.911441 29.7888 0.537254 29.3784 0.175138 28.9559C0.0544324 28.8111 -0.066273 28.6663 0.0423619 28.4731C0.138926 28.28 0.307914 28.2559 0.501043 28.2559C1.4184 28.2679 2.33577 28.2679 3.2652 28.2679C3.2652 29.1249 3.28934 29.9819 3.25313 30.839C3.22899 31.5511 3.54282 32.0339 4.09806 32.4323C4.50846 32.7099 4.96714 32.9392 5.34133 33.3013Z" fill="#E5E924"/>
<path d="M34.5879 33.3248C33.8878 32.9023 33.1636 32.5161 32.6566 31.8401C31.8358 30.7417 31.6789 29.5588 32.1496 28.2914C33.0791 28.2914 34.0206 28.2793 34.95 28.2793C35.1311 28.2793 35.2759 28.3276 35.3604 28.4966C35.457 28.6776 35.3725 28.8225 35.2518 28.9432C34.8776 29.3777 34.5034 29.8123 34.1413 30.2468C33.7912 30.6693 33.7912 30.9469 34.1413 31.3694C34.4672 31.7677 34.8052 32.1419 35.1431 32.5402C35.288 32.7092 35.4932 32.854 35.3604 33.1317C35.2397 33.3972 34.9862 33.3489 34.7689 33.3489C34.7086 33.3369 34.6482 33.3248 34.5879 33.3248Z" fill="#E5E924"/>
<path d="M15.2838 6.63762C16.2253 6.4445 16.9978 5.93753 17.7221 5.37022C18.4946 4.75462 19.0619 3.95796 19.3878 3.01646C19.4844 2.73884 19.5447 2.47329 19.5206 2.18359C20.0396 2.20773 20.5345 2.34051 21.0294 2.46122C21.4519 2.56985 21.5243 2.82333 21.2346 3.14924C20.8725 3.55964 20.5104 3.95796 20.1362 4.34422C19.9431 4.54942 19.8706 4.75462 19.9189 5.03224C20.0034 5.56335 20.0517 6.10652 20.112 6.64969C20.1483 7.04802 19.8827 7.22908 19.5085 7.07216C19.0015 6.85489 18.4946 6.61348 17.9876 6.37207C17.7704 6.26344 17.5652 6.26344 17.3479 6.37207C16.853 6.61348 16.346 6.84282 15.827 7.07216C15.4287 7.24115 15.2476 7.08423 15.2838 6.63762Z" fill="#FABD09"/>
<path d="M0.703125 8.36321C0.751407 7.98902 1.06524 7.78383 1.29458 7.55449C1.52392 7.31307 1.60842 7.0958 1.54806 6.75783C1.48771 6.41985 1.31872 6.00946 1.6567 5.7439C1.9826 5.49042 2.28437 5.8284 2.54992 5.97324C2.9241 6.17844 3.25001 6.17844 3.60006 5.96117C3.68455 5.91289 3.79318 5.86461 3.88975 5.8284C4.09495 5.73183 4.31222 5.63527 4.52949 5.80426C4.72262 5.96117 4.66226 6.17844 4.62605 6.38364C4.54156 6.85439 4.42085 7.33722 4.87953 7.69933C4.46913 8.19422 3.96217 8.52013 3.31036 8.6529C2.393 8.83396 1.56013 8.55634 0.703125 8.36321Z" fill="#FEE061"/>
<path d="M31.3743 9.17168C31.1208 8.79749 30.6863 8.84578 30.3242 8.74921C29.6965 8.58023 29.5879 8.33881 30.0586 7.92842C30.5777 7.46973 30.7829 6.97484 30.5897 6.29889C30.5294 6.10576 30.5294 5.87642 30.7346 5.73158C30.9398 5.58673 31.1088 5.70744 31.2777 5.79193C31.3743 5.84021 31.4709 5.87642 31.5554 5.92471C31.9416 6.17819 32.3158 6.19026 32.7262 5.94885C32.9073 5.84021 33.1125 5.71951 33.3539 5.73158C33.4504 6.5403 33.2815 7.31282 32.9676 8.04912C32.6779 8.72507 32.1951 9.18375 31.3743 9.17168Z" fill="#FEE061"/>
<path d="M3.93859 30.8917C4.1687 30.5405 4.49568 30.4194 4.90745 30.4315C5.68253 30.4436 6.4455 30.4436 7.22058 30.4436C7.22058 31.146 7.22058 31.8484 7.22058 32.5508C7.22058 32.7446 7.23269 32.9384 7.05103 33.0716C6.89359 33.0837 6.76038 33.0232 6.62716 32.9505C5.92474 32.5751 5.23443 32.1754 4.5199 31.8242C4.09603 31.6062 3.89015 31.3398 3.93859 30.8917Z" fill="#FABB06"/>
<path d="M28.1992 30.4408C28.9476 30.4408 29.708 30.4408 30.4564 30.4287C30.6737 30.4287 30.8789 30.4649 31.072 30.5615C31.5307 30.8029 31.579 31.4185 31.1444 31.6599C30.3236 32.1307 29.4787 32.5652 28.6458 33.0118C28.5734 33.048 28.4768 33.048 28.3803 33.0601C28.1992 32.9273 28.2113 32.7342 28.2113 32.5411C28.2113 31.853 28.1992 31.1409 28.1992 30.4408Z" fill="#FABB06"/>
<path d="M3.95014 30.8987C3.90186 31.3453 4.10706 31.6229 4.51746 31.816C5.22962 32.1661 5.91764 32.5644 6.61773 32.9386C6.75051 33.011 6.88328 33.0714 7.0402 33.0593C6.89535 33.2887 6.67808 33.3369 6.4246 33.3249C6.05041 33.3128 5.67623 33.3128 5.31411 33.3128C4.93992 32.9627 4.48124 32.7334 4.07085 32.4316C3.5156 32.0454 3.20177 31.5626 3.22591 30.8383C3.26212 29.9813 3.23798 29.1243 3.23798 28.2673C3.47939 28.2552 3.7208 28.2552 3.96221 28.2432C3.95014 29.1364 3.95014 30.0175 3.95014 30.8987Z" fill="#E5E924"/>
<path d="M31.373 9.17239C32.1938 9.19653 32.6767 8.73785 32.9784 8.03776C33.2923 7.30146 33.4613 6.52894 33.3647 5.72021C33.6182 5.67193 33.7268 5.81678 33.7389 6.04612C33.7389 6.0944 33.7509 6.14268 33.7389 6.1789C33.5216 6.95141 33.7268 7.55494 34.3303 8.08604C34.6321 8.35159 34.4872 8.66543 34.0889 8.77406C34.0165 8.7982 33.9441 8.7982 33.8716 8.7982C33.256 8.82234 32.8336 9.09997 32.6042 9.67935C32.5197 9.88455 32.4232 10.1501 32.1214 10.1501C31.8197 10.1501 31.7472 9.88455 31.6386 9.67935C31.53 9.52244 31.4575 9.34138 31.373 9.17239Z" fill="#FABE0C"/>
<path d="M0.703125 8.3631C1.56013 8.55623 2.393 8.83385 3.29829 8.65279C3.9501 8.52002 4.45706 8.19411 4.86746 7.69922C5.08473 7.94063 5.45892 8.09755 5.36236 8.4838C5.25372 8.87006 4.84332 8.83385 4.55363 8.84592C3.9501 8.87006 3.7449 9.25632 3.50349 9.69086C3.39486 9.89606 3.32243 10.1616 3.0086 10.1616C2.69476 10.1616 2.61027 9.89606 2.52578 9.69086C2.29644 9.12354 1.92225 8.80971 1.28251 8.76143C1.07731 8.74936 0.715196 8.76143 0.703125 8.3631Z" fill="#FABE0C"/>
<path d="M25.8454 14.6884C25.8454 14.7125 25.8575 14.7487 25.8696 14.7728C25.773 15.7264 25.6523 16.68 25.423 17.6094C25.3626 17.8267 25.3143 17.9474 25.085 17.8267C24.5901 17.03 23.8779 16.6317 22.9364 16.6679C22.3691 16.6921 21.7897 16.6679 21.2224 16.6679C20.5103 16.6679 20.2689 16.8973 20.2689 17.6094C20.2689 19.3838 20.2809 21.1702 20.2568 22.9446C20.2568 23.3791 20.3775 23.7051 20.7879 23.8982C21.0655 24.5017 21.5363 24.1999 22.0191 24.0913C21.669 24.6103 21.2224 24.9121 20.8845 25.3346C17.9634 25.3346 15.0423 25.3466 12.1212 25.3466C10.7331 25.3466 9.35708 25.3346 7.96897 25.3346C7.69135 24.3689 7.38959 23.4154 7.29302 22.4014C7.12403 20.7357 7.32923 19.1303 7.9569 17.5853C9.36915 14.121 11.916 11.9121 15.5734 11.1034C18.7238 10.4154 21.6208 11.1275 24.2039 13.095C24.7832 13.5899 25.2661 14.1935 25.8454 14.6884ZM17.8547 23.9223C17.9875 24.2844 18.2893 24.3327 18.591 24.2603C18.9532 24.1758 19.1463 23.9223 19.1463 23.5361C19.1463 21.6289 19.1463 19.7097 19.1463 17.8026C19.1463 17.537 19.0859 17.2956 18.7842 17.199C18.591 16.8369 18.3134 16.5955 17.8789 16.7162C17.4202 16.849 17.3357 17.2111 17.3357 17.6456C17.3478 19.42 17.3478 21.1944 17.3357 22.9687C17.3357 23.4033 17.4685 23.7171 17.8547 23.9223ZM13.5214 20.2287C13.4249 20.1442 13.3886 20.0356 13.3524 19.9149C13.1231 19.1545 12.8817 18.4061 12.6403 17.6456C12.5799 17.4404 12.5196 17.2352 12.2661 17.187C11.9402 16.6921 11.6143 16.5593 11.228 16.7524C10.8538 16.9335 10.7452 17.2715 10.9142 17.8026C11.4694 19.6011 12.0367 21.3996 12.592 23.1981C12.6886 23.524 12.8455 23.7654 13.1472 23.9223C13.2559 24.2362 13.5094 24.2965 13.799 24.2844C14.137 24.2603 14.3422 24.043 14.4388 23.7292C15.0302 21.8341 15.6338 19.927 16.2132 18.0198C16.3218 17.6819 16.2856 17.3559 15.8993 17.199C15.7183 16.8852 15.4768 16.6317 15.0785 16.6921C14.6802 16.7524 14.5233 17.0421 14.4146 17.4042C14.1249 18.3457 13.8111 19.2872 13.5214 20.2287Z" fill="#FEE060"/>
<path d="M25.0732 17.839C25.3146 17.9597 25.3629 17.8511 25.4112 17.6217C25.6405 16.6923 25.7733 15.7387 25.8578 14.7852C26.9924 16.1129 27.6804 17.6579 28.0184 19.3599C28.4288 21.4119 28.1874 23.4035 27.4752 25.359C26.751 25.371 26.0268 25.3831 25.3025 25.3952C23.8179 25.3831 22.3332 25.371 20.8485 25.359C21.1744 24.9365 21.6331 24.6347 21.9831 24.1157C21.5003 24.2123 21.0296 24.5261 20.752 23.9226C21.44 23.9105 21.6814 23.6811 21.6814 23.0052C21.6814 22.7396 21.6693 22.462 21.6814 22.1965C21.7055 21.8223 21.5124 21.3395 21.7538 21.1101C21.9952 20.8808 22.478 21.0136 22.8402 21.0498C24.6145 21.1705 25.8578 19.4444 25.0732 17.839ZM22.0435 24.0071C22.7557 23.2828 23.3471 22.4741 23.8058 21.5688C23.9024 21.3757 23.7213 21.3877 23.6006 21.3877C23.2143 21.3877 22.816 21.4119 22.4298 21.3757C22.1039 21.3515 22.0314 21.4964 22.0314 21.7981C22.0435 22.5224 22.1039 23.2587 22.0435 24.0071Z" fill="#FABB06"/>
<path d="M22.9483 30.4529C22.2482 31.0081 21.4153 31.2736 20.5825 31.503C18.3977 32.1065 16.225 32.0462 14.1006 31.2616C13.5212 31.0564 12.9418 30.8512 12.459 30.4529C14.4023 30.4529 16.3457 30.4408 18.3011 30.4408C18.4943 30.4408 18.6874 30.4287 18.8926 30.4287C20.2445 30.4287 21.5964 30.4408 22.9483 30.4529Z" fill="#FABB06"/>
<path d="M25.0727 17.8388C25.8573 19.4442 24.614 21.1824 22.8517 21.0375C22.4775 21.0134 21.9947 20.8685 21.7654 21.0979C21.524 21.3272 21.705 21.81 21.693 22.1842C21.6809 22.4498 21.693 22.7274 21.693 22.993C21.693 23.6689 21.4515 23.8982 20.7635 23.9103C20.3531 23.7172 20.2324 23.3913 20.2324 22.9567C20.2445 21.1824 20.2324 19.3959 20.2445 17.6216C20.2445 16.9215 20.4859 16.6801 21.1981 16.6801C21.7654 16.6801 22.3448 16.6921 22.9121 16.6801C23.8657 16.6439 24.5778 17.0301 25.0727 17.8388ZM23.745 18.5027C23.5398 18.0802 23.1414 18.1285 22.7672 18.1285C21.6447 18.1285 21.6567 18.1285 21.6688 19.2632C21.6688 19.5649 21.7895 19.6253 22.043 19.5649C22.381 19.5649 22.731 19.5891 23.069 19.577C23.7087 19.5529 23.9984 19.0942 23.745 18.5027Z" fill="#E92F24"/>
<path d="M13.1465 23.9219C12.8447 23.765 12.6878 23.5236 12.5912 23.1977C12.036 21.3991 11.4687 19.6006 10.9134 17.8021C10.7444 17.2831 10.8531 16.9451 11.2273 16.752C11.6135 16.5589 11.9394 16.6916 12.2653 17.1865C12.555 18.3453 12.9534 19.4799 13.4 20.6025C13.4362 20.4697 13.4724 20.349 13.5086 20.2162C13.8104 19.2747 14.1121 18.3332 14.4018 17.3796C14.5104 17.0296 14.6674 16.7278 15.0657 16.6675C15.4761 16.6071 15.7054 16.8485 15.8865 17.1745C15.8986 17.3917 15.8624 17.5969 15.7899 17.79C15.2226 19.5765 14.6674 21.375 14.1001 23.1614C13.9311 23.7891 13.7741 23.9098 13.1465 23.9219Z" fill="#E92F24"/>
<path d="M17.8538 23.9221C17.4554 23.729 17.3227 23.4031 17.3347 22.9685C17.3468 21.1941 17.3468 19.4198 17.3347 17.6454C17.3347 17.2109 17.4192 16.8487 17.8779 16.716C18.3124 16.5953 18.5901 16.8367 18.7832 17.1988C18.7832 19.118 18.7832 21.0493 18.7832 22.9685C18.7953 23.6807 18.5659 23.91 17.8538 23.9221Z" fill="#E92F24"/>
<path d="M13.1465 23.9222C13.7742 23.9101 13.919 23.7894 14.1121 23.1979C14.6794 21.4115 15.2347 19.613 15.802 17.8265C15.8624 17.6213 15.8986 17.4161 15.8986 17.2109C16.2848 17.3799 16.321 17.6938 16.2124 18.0317C15.633 19.9389 15.0295 21.834 14.438 23.7411C14.3415 24.0549 14.1363 24.2722 13.7983 24.2963C13.5207 24.2963 13.2551 24.236 13.1465 23.9222Z" fill="#F7BA0A"/>
<path d="M17.8555 23.9225C18.5676 23.9104 18.7849 23.6811 18.7849 22.9689C18.7849 21.0497 18.7849 19.1184 18.7849 17.1992C19.0867 17.2958 19.147 17.5372 19.147 17.8027C19.147 19.7099 19.147 21.6291 19.147 23.5363C19.147 23.9225 18.9539 24.176 18.5918 24.2605C18.29 24.3329 17.9882 24.2846 17.8555 23.9225Z" fill="#FABC07"/>
<path d="M13.5206 20.2289C13.4844 20.3617 13.4482 20.4824 13.412 20.6152C12.9654 19.4926 12.567 18.358 12.2773 17.1992C12.5188 17.2596 12.5791 17.4648 12.6515 17.6579C12.8929 18.4183 13.1344 19.1667 13.3637 19.9272C13.3878 20.0479 13.424 20.1565 13.5206 20.2289Z" fill="#F1B710"/>
<path d="M22.043 24.0068C22.1033 23.2584 22.043 22.5342 22.043 21.8099C22.043 21.5082 22.1033 21.3754 22.4413 21.3875C22.8276 21.4116 23.2259 21.3875 23.6121 21.3995C23.7208 21.3995 23.9139 21.3875 23.8173 21.5806C23.3466 22.4618 22.7551 23.2705 22.043 24.0068Z" fill="#FEE060"/>
<path d="M23.7459 18.5033C23.9994 19.0948 23.7097 19.5534 23.082 19.5776C22.744 19.5896 22.394 19.5655 22.056 19.5655C22.056 19.3241 22.0681 19.0827 22.056 18.8533C22.0319 18.5757 22.1405 18.4792 22.4181 18.4912C22.8527 18.5033 23.2993 18.5033 23.7459 18.5033Z" fill="#FEE060"/>
<path d="M23.7446 18.5028C23.298 18.5028 22.8514 18.5149 22.4048 18.4907C22.1272 18.4787 22.0306 18.5752 22.0427 18.8529C22.0548 19.0943 22.0427 19.3357 22.0427 19.565C21.7892 19.6133 21.6806 19.565 21.6685 19.2633C21.6564 18.1286 21.6444 18.1286 22.7669 18.1286C23.1411 18.1286 23.5394 18.0803 23.7446 18.5028Z" fill="#FABB06"/>
</svg>
