<svg width="36" height="35" viewBox="0 0 36 35" fill="none" xmlns="http://www.w3.org/2000/svg">
<path d="M9.60144 30.4525C8.81685 30.4525 8.03226 30.4525 7.24768 30.4404C6.47516 30.4404 5.71472 30.4404 4.94221 30.4284C4.53181 30.4163 4.2059 30.537 3.97656 30.8871C3.97656 30.0059 3.97656 29.1248 3.97656 28.2436C3.97656 27.5677 3.97656 26.9038 3.97656 26.2278C3.97656 25.6122 4.24211 25.3708 4.85771 25.3587C5.29225 25.3587 5.72679 25.3467 6.16133 25.3467C6.76486 25.3467 7.38046 25.3467 7.98398 25.3467C9.37209 25.3467 10.7481 25.3587 12.1362 25.3587C15.0573 25.3587 17.9784 25.3467 20.8995 25.3467C22.3841 25.3588 23.8688 25.3708 25.3535 25.3829C24.5327 26.9159 23.3619 28.0988 21.8892 29.0161C20.9477 29.5955 19.9459 30.0301 18.932 30.4163C18.7388 30.4163 18.5457 30.4284 18.3405 30.4284C16.3971 30.4284 14.4538 30.4404 12.4984 30.4404C11.5327 30.4525 10.5671 30.4525 9.60144 30.4525Z" fill="#E96820"/>
<path d="M7.9845 25.3594C7.38098 25.3594 6.76538 25.3594 6.16185 25.3594C6.22221 24.5386 5.90837 23.8626 5.35313 23.2832C4.2185 22.1003 4.20642 20.6881 5.34106 19.5172C6.1015 18.7326 6.33084 17.8273 6.05322 16.7772C5.66696 15.3046 6.40326 13.9889 7.87587 13.5906C8.96222 13.2888 9.63817 12.6249 9.93993 11.5386C10.3383 10.078 11.6539 9.3176 13.1266 9.70386C14.2008 9.98148 15.1061 9.75214 15.9028 8.97963C17.0253 7.88121 18.4859 7.88121 19.6084 8.96756C20.4051 9.75214 21.3104 9.99355 22.3847 9.70386C23.8573 9.3176 25.1609 10.066 25.5713 11.5265C25.7644 12.2387 26.1265 12.8181 26.7421 13.2285C26.3679 13.663 26.2714 14.2545 25.8972 14.689C25.3178 14.1941 24.835 13.5785 24.2194 13.1198C21.6242 11.1523 18.7273 10.4402 15.5769 11.1282C11.9195 11.9248 9.37262 14.1337 7.96036 17.6101C7.3327 19.143 7.1275 20.7605 7.29648 22.4262C7.40512 23.4401 7.70688 24.3937 7.9845 25.3594Z" fill="#FABC07"/>
<path d="M18.9199 30.428C19.9459 30.0297 20.9357 29.6072 21.8772 29.0278C23.3619 28.1105 24.5207 26.9276 25.3415 25.3946C26.0657 25.3825 26.7899 25.3705 27.5141 25.3584C28.1177 25.3584 28.7212 25.3584 29.3247 25.3584C29.7955 25.3584 30.2542 25.3584 30.7249 25.3705C31.2319 25.3825 31.4974 25.636 31.4974 26.143C31.5095 26.6982 31.5216 27.2535 31.4854 27.8087C31.4612 28.1829 31.5699 28.3398 31.944 28.2674C32.0285 28.2553 32.1251 28.2795 32.2096 28.2795C31.7509 29.5589 31.8958 30.7298 32.7166 31.8282C33.2235 32.5162 33.9598 32.8904 34.6478 33.3129C32.7407 33.3129 30.8335 33.325 28.9264 33.325C28.7091 33.325 28.516 33.2525 28.3953 33.0594C28.4798 33.0473 28.5884 33.0473 28.6608 33.0111C29.4937 32.5645 30.3387 32.13 31.1595 31.6592C31.594 31.4178 31.5336 30.8022 31.087 30.5608C30.906 30.4642 30.7008 30.428 30.4714 30.428C29.7231 30.4401 28.9626 30.4401 28.2142 30.4401C27.4297 30.4401 26.6451 30.4401 25.8605 30.4522C24.8948 30.4522 23.9292 30.4522 22.9636 30.4522C21.6358 30.4401 20.2839 30.428 18.9199 30.428Z" fill="#E96820"/>
<path d="M22.9874 30.4521C23.9531 30.4521 24.9187 30.4521 25.8844 30.4521C25.7275 30.7298 25.643 31.0315 25.5585 31.3333C25.1119 32.7455 23.8082 33.506 22.396 33.1197C21.2976 32.818 20.4043 33.0715 19.6077 33.856C18.5334 34.9182 16.9763 34.9182 15.89 33.856C15.0933 33.0715 14.2001 32.818 13.1017 33.1197C11.6411 33.5181 10.2892 32.6973 9.8909 31.2126C9.81848 30.947 9.73399 30.7056 9.61328 30.4642C10.5789 30.4642 11.5446 30.4642 12.5102 30.4642C12.993 30.8746 13.5845 31.0677 14.1518 31.2729C16.2883 32.0575 18.461 32.1179 20.6337 31.5144C21.4666 31.2729 22.2994 31.0074 22.9874 30.4521Z" fill="#F3950D"/>
<path d="M29.3389 25.3591C28.7354 25.3591 28.1318 25.3591 27.5283 25.3591C28.2525 23.4036 28.4819 21.412 28.0715 19.36C27.7335 17.6581 27.0455 16.113 25.9109 14.7853C25.8988 14.7611 25.8988 14.7249 25.8867 14.7008C26.2609 14.2662 26.3575 13.6748 26.7317 13.2402C27.0696 13.3609 27.3955 13.4937 27.7456 13.6024C29.0975 14.0369 29.8579 15.3526 29.4837 16.7286C29.182 17.8391 29.4234 18.7444 30.2321 19.5652C31.2823 20.6395 31.2823 22.1483 30.2321 23.2346C29.6286 23.8261 29.2906 24.5021 29.3389 25.3591Z" fill="#F3950D"/>
<path d="M15.3225 6.63731C15.2863 6.11827 15.395 5.62338 15.4674 5.11642C15.5157 4.80258 15.4674 4.53703 15.226 4.29562C14.8639 3.95765 14.55 3.57139 14.2121 3.1972C13.8499 2.7868 13.9224 2.54539 14.4655 2.42469C14.9604 2.31605 15.4674 2.19535 15.9623 2.11085C16.264 2.06257 16.433 1.90565 16.5779 1.6401C16.8193 1.18142 17.0728 0.746882 17.3383 0.300272C17.5797 -0.0980557 17.8453 -0.0980557 18.0867 0.288202C18.316 0.674459 18.5574 1.06072 18.7506 1.47111C18.9316 1.82116 19.1489 2.09878 19.5714 2.15914C19.5955 2.44883 19.5352 2.72645 19.4386 2.992C19.1127 3.94558 18.5574 4.73016 17.7729 5.34576C17.0366 5.94929 16.252 6.45625 15.3225 6.63731Z" fill="#FEE061"/>
<path d="M5.34133 33.3248C3.72388 33.3248 2.1185 33.3369 0.501043 33.3369C0.307914 33.3369 0.138926 33.3127 0.0423619 33.1196C-0.0542025 32.9144 0.0544324 32.7816 0.175138 32.6368C0.537254 32.2143 0.911441 31.7918 1.26149 31.3694C1.61153 30.9469 1.61153 30.6572 1.26149 30.2468C0.911441 29.8123 0.537254 29.4019 0.175138 28.9794C0.0544324 28.8345 -0.066273 28.6897 0.0423619 28.4966C0.138926 28.3034 0.307914 28.2793 0.501043 28.2793C1.4184 28.2914 2.33577 28.2914 3.2652 28.2914C3.2652 29.1484 3.28934 30.0054 3.25313 30.8624C3.22899 31.5746 3.54282 32.0574 4.09806 32.4557C4.50846 32.7333 4.96714 32.9627 5.34133 33.3248Z" fill="#E96820"/>
<path d="M34.6719 33.3248C33.9718 32.9023 33.2475 32.5161 32.7406 31.8401C31.9198 30.7417 31.7629 29.5588 32.2336 28.2914C33.1631 28.2914 34.1046 28.2793 35.034 28.2793C35.215 28.2793 35.3599 28.3276 35.4444 28.4966C35.541 28.6776 35.4565 28.8225 35.3358 28.9432C34.9616 29.3777 34.5874 29.8123 34.2253 30.2468C33.8752 30.6693 33.8752 30.9469 34.2253 31.3694C34.5512 31.7677 34.8891 32.1419 35.2271 32.5402C35.372 32.7092 35.5772 32.854 35.4444 33.1317C35.3237 33.3972 35.0702 33.3489 34.8529 33.3489C34.7926 33.3369 34.7322 33.3248 34.6719 33.3248Z" fill="#E96820"/>
<path d="M15.3229 6.63762C16.2644 6.4445 17.0369 5.93753 17.7611 5.37022C18.5337 4.75462 19.101 3.95796 19.4269 3.01646C19.5234 2.73884 19.5838 2.47329 19.5596 2.18359C20.0787 2.20773 20.5736 2.34051 21.0685 2.46122C21.4909 2.56985 21.5634 2.82333 21.2737 3.14924C20.9115 3.55964 20.5494 3.95796 20.1752 4.34422C19.9821 4.54942 19.9097 4.75462 19.958 5.03224C20.0425 5.56335 20.0907 6.10652 20.1511 6.64969C20.1873 7.04802 19.9218 7.22908 19.5476 7.07216C19.0406 6.85489 18.5337 6.61348 18.0267 6.37207C17.8094 6.26344 17.6042 6.26344 17.3869 6.37207C16.8921 6.61348 16.3851 6.84282 15.8661 7.07216C15.4677 7.24115 15.2867 7.08423 15.3229 6.63762Z" fill="#FABD09"/>
<path d="M0.742188 8.36321C0.79047 7.98902 1.1043 7.78383 1.33364 7.55449C1.56298 7.31307 1.64748 7.0958 1.58713 6.75783C1.52677 6.41985 1.35779 6.00946 1.69576 5.7439C2.02166 5.49042 2.32343 5.8284 2.58898 5.97324C2.96317 6.17844 3.28907 6.17844 3.63912 5.96117C3.72361 5.91289 3.83225 5.86461 3.92881 5.8284C4.13401 5.73183 4.35128 5.63527 4.56855 5.80426C4.76168 5.96117 4.70133 6.17844 4.66511 6.38364C4.58062 6.85439 4.45991 7.33722 4.9186 7.69933C4.5082 8.19422 4.00123 8.52013 3.34942 8.6529C2.43206 8.83396 1.5992 8.55634 0.742188 8.36321Z" fill="#FEE061"/>
<path d="M31.4134 9.17168C31.1599 8.79749 30.7254 8.84578 30.3632 8.74921C29.7356 8.58023 29.6269 8.33881 30.0977 7.92842C30.6167 7.46973 30.8219 6.97484 30.6288 6.29889C30.5684 6.10576 30.5684 5.87642 30.7736 5.73158C30.9788 5.58673 31.1478 5.70744 31.3168 5.79193C31.4134 5.84021 31.5099 5.87642 31.5944 5.92471C31.9807 6.17819 32.3549 6.19026 32.7653 5.94885C32.9463 5.84021 33.1515 5.71951 33.3929 5.73158C33.4895 6.5403 33.3205 7.31282 33.0067 8.04912C32.717 8.72507 32.2342 9.18375 31.4134 9.17168Z" fill="#FEE061"/>
<path d="M3.9913 30.8989C4.22064 30.5489 4.54655 30.4282 4.95695 30.4403C5.72946 30.4523 6.48991 30.4523 7.26242 30.4523C7.26242 31.1524 7.26242 31.8525 7.26242 32.5526C7.26242 32.7457 7.27449 32.9389 7.09343 33.0716C6.93652 33.0837 6.80374 33.0234 6.67096 32.9509C5.97087 32.5768 5.28285 32.1784 4.57069 31.8284C4.14822 31.6111 3.94302 31.3456 3.9913 30.8989Z" fill="#BD4908"/>
<path d="M28.2383 30.4408C28.9867 30.4408 29.7471 30.4408 30.4955 30.4287C30.7127 30.4287 30.9179 30.4649 31.1111 30.5615C31.5698 30.8029 31.618 31.4185 31.1835 31.6599C30.3627 32.1307 29.5178 32.5652 28.6849 33.0118C28.6125 33.048 28.5159 33.048 28.4193 33.0601C28.2383 32.9273 28.2504 32.7342 28.2504 32.5411C28.2504 31.853 28.2383 31.1409 28.2383 30.4408Z" fill="#BD4908"/>
<path d="M3.9892 30.8987C3.94092 31.3453 4.14612 31.6229 4.55652 31.816C5.26868 32.1661 5.9567 32.5644 6.65679 32.9386C6.78957 33.011 6.92234 33.0714 7.07926 33.0593C6.93441 33.2887 6.71715 33.3369 6.46366 33.3249C6.08948 33.3128 5.71529 33.3128 5.35317 33.3128C4.97899 32.9627 4.52031 32.7334 4.10991 32.4316C3.55466 32.0454 3.24083 31.5626 3.26497 30.8383C3.30118 29.9813 3.27704 29.1243 3.27704 28.2673C3.51845 28.2552 3.75986 28.2552 4.00127 28.2432C3.9892 29.1364 3.9892 30.0175 3.9892 30.8987Z" fill="#E96820"/>
<path d="M31.4121 9.17239C32.2329 9.19653 32.7157 8.73785 33.0175 8.03776C33.3313 7.30146 33.5003 6.52894 33.4037 5.72021C33.6572 5.67193 33.7659 5.81678 33.7779 6.04612C33.7779 6.0944 33.79 6.14268 33.7779 6.1789C33.5607 6.95141 33.7659 7.55494 34.3694 8.08604C34.6712 8.35159 34.5263 8.66543 34.128 8.77406C34.0556 8.7982 33.9831 8.7982 33.9107 8.7982C33.2951 8.82234 32.8726 9.09997 32.6433 9.67935C32.5588 9.88455 32.4622 10.1501 32.1605 10.1501C31.8587 10.1501 31.7863 9.88455 31.6777 9.67935C31.569 9.52244 31.4966 9.34138 31.4121 9.17239Z" fill="#FABE0C"/>
<path d="M0.742188 8.3631C1.5992 8.55623 2.43206 8.83385 3.33735 8.65279C3.98916 8.52002 4.49613 8.19411 4.90653 7.69922C5.12379 7.94063 5.49798 8.09755 5.40142 8.4838C5.29278 8.87006 4.88238 8.83385 4.59269 8.84592C3.98916 8.87006 3.78396 9.25632 3.54255 9.69086C3.43392 9.89606 3.3615 10.1616 3.04766 10.1616C2.73383 10.1616 2.64933 9.89606 2.56484 9.69086C2.3355 9.12354 1.96131 8.80971 1.32157 8.76143C1.11637 8.74936 0.754258 8.76143 0.742188 8.3631Z" fill="#FABE0C"/>
<path d="M25.8845 14.6884C25.8845 14.7125 25.8966 14.7487 25.9086 14.7728C25.8121 15.7264 25.6914 16.68 25.462 17.6094C25.4017 17.8267 25.3534 17.9474 25.1241 17.8267C24.6292 17.03 23.917 16.6317 22.9755 16.6679C22.4082 16.6921 21.8288 16.6679 21.2615 16.6679C20.5493 16.6679 20.3079 16.8973 20.3079 17.6094C20.3079 19.3838 20.32 21.1702 20.2958 22.9446C20.2958 23.3791 20.4166 23.7051 20.827 23.8982C21.1046 24.5017 21.5753 24.1999 22.0581 24.0913C21.7081 24.6103 21.2615 24.9121 20.9235 25.3346C18.0024 25.3346 15.0814 25.3466 12.1603 25.3466C10.7722 25.3466 9.39615 25.3346 8.00803 25.3346C7.73041 24.3689 7.42865 23.4154 7.33208 22.4014C7.1631 20.7357 7.3683 19.1303 7.99596 17.5853C9.40822 14.121 11.9551 11.9121 15.6125 11.1034C18.7629 10.4154 21.6598 11.1275 24.2429 13.095C24.8223 13.5899 25.3051 14.1935 25.8845 14.6884ZM17.8938 23.9223C18.0266 24.2844 18.3283 24.3327 18.6301 24.2603C18.9922 24.1758 19.1854 23.9223 19.1854 23.5361C19.1854 21.6289 19.1854 19.7097 19.1854 17.8026C19.1854 17.537 19.125 17.2956 18.8232 17.199C18.6301 16.8369 18.3525 16.5955 17.9179 16.7162C17.4593 16.849 17.3748 17.2111 17.3748 17.6456C17.3868 19.42 17.3868 21.1944 17.3748 22.9687C17.3748 23.4033 17.5076 23.7171 17.8938 23.9223ZM13.5605 20.2287C13.4639 20.1442 13.4277 20.0356 13.3915 19.9149C13.1622 19.1545 12.9207 18.4061 12.6793 17.6456C12.619 17.4404 12.5586 17.2352 12.3051 17.187C11.9792 16.6921 11.6533 16.5593 11.2671 16.7524C10.8929 16.9335 10.7843 17.2715 10.9532 17.8026C11.5085 19.6011 12.0758 21.3996 12.6311 23.1981C12.7276 23.524 12.8845 23.7654 13.1863 23.9223C13.2949 24.2362 13.5484 24.2965 13.8381 24.2844C14.1761 24.2603 14.3813 24.043 14.4778 23.7292C15.0693 21.8341 15.6728 19.927 16.2522 18.0198C16.3609 17.6819 16.3246 17.3559 15.9384 17.199C15.7573 16.8852 15.5159 16.6317 15.1176 16.6921C14.7193 16.7524 14.5623 17.0421 14.4537 17.4042C14.164 18.3457 13.8502 19.2872 13.5605 20.2287Z" fill="#FEE060"/>
<path d="M25.1142 17.839C25.3556 17.9597 25.4039 17.8511 25.4522 17.6217C25.6815 16.6923 25.8143 15.7387 25.8988 14.7852C27.0334 16.1129 27.7215 17.6579 28.0594 19.3599C28.4698 21.4119 28.2284 23.4035 27.5163 25.359C26.792 25.371 26.0678 25.3831 25.3436 25.3952C23.8589 25.3831 22.3742 25.371 20.8895 25.359C21.2154 24.9365 21.6741 24.6347 22.0242 24.1157C21.5413 24.2123 21.0706 24.5261 20.793 23.9226C21.481 23.9105 21.7224 23.6811 21.7224 23.0052C21.7224 22.7396 21.7103 22.462 21.7224 22.1965C21.7465 21.8223 21.5534 21.3395 21.7948 21.1101C22.0362 20.8808 22.5191 21.0136 22.8812 21.0498C24.6555 21.1705 25.8988 19.4444 25.1142 17.839ZM22.0845 24.0071C22.7967 23.2828 23.3881 22.4741 23.8468 21.5688C23.9434 21.3757 23.7623 21.3877 23.6416 21.3877C23.2554 21.3877 22.857 21.4119 22.4708 21.3757C22.1449 21.3515 22.0724 21.4964 22.0724 21.7981C22.0845 22.5224 22.1449 23.2587 22.0845 24.0071Z" fill="#FABB06"/>
<path d="M22.9873 30.4529C22.2873 31.0081 21.4544 31.2736 20.6215 31.503C18.4368 32.1065 16.2641 32.0462 14.1396 31.2616C13.5603 31.0564 12.9809 30.8512 12.498 30.4529C14.4414 30.4529 16.3848 30.4408 18.3402 30.4408C18.5333 30.4408 18.7264 30.4287 18.9316 30.4287C20.2835 30.4287 21.6354 30.4408 22.9873 30.4529Z" fill="#FABB06"/>
<path d="M25.1118 17.8388C25.8964 19.4442 24.6531 21.1824 22.8908 21.0375C22.5166 21.0134 22.0338 20.8685 21.8044 21.0979C21.563 21.3272 21.7441 21.81 21.732 22.1842C21.72 22.4498 21.732 22.7274 21.732 22.993C21.732 23.6689 21.4906 23.8982 20.8026 23.9103C20.3922 23.7172 20.2715 23.3913 20.2715 22.9567C20.2836 21.1824 20.2715 19.3959 20.2836 17.6216C20.2836 16.9215 20.525 16.6801 21.2371 16.6801C21.8044 16.6801 22.3838 16.6921 22.9511 16.6801C23.9047 16.6439 24.6169 17.0301 25.1118 17.8388ZM23.784 18.5027C23.5788 18.0802 23.1805 18.1285 22.8063 18.1285C21.6837 18.1285 21.6958 18.1285 21.7079 19.2632C21.7079 19.5649 21.8286 19.6253 22.0821 19.5649C22.42 19.5649 22.7701 19.5891 23.1081 19.577C23.7478 19.5529 24.0375 19.0942 23.784 18.5027Z" fill="#E96820"/>
<path d="M13.1875 23.9219C12.8857 23.765 12.7288 23.5236 12.6322 23.1977C12.077 21.3991 11.5097 19.6006 10.9544 17.8021C10.7855 17.2831 10.8941 16.9451 11.2683 16.752C11.6545 16.5589 11.9804 16.6916 12.3063 17.1865C12.596 18.3453 12.9944 19.4799 13.441 20.6025C13.4772 20.4697 13.5134 20.349 13.5496 20.2162C13.8514 19.2747 14.1531 18.3332 14.4428 17.3796C14.5515 17.0296 14.7084 16.7278 15.1067 16.6675C15.5171 16.6071 15.7464 16.8485 15.9275 17.1745C15.9396 17.3917 15.9034 17.5969 15.8309 17.79C15.2636 19.5765 14.7084 21.375 14.1411 23.1614C13.9721 23.7891 13.8152 23.9098 13.1875 23.9219Z" fill="#E96820"/>
<path d="M17.8948 23.9221C17.4965 23.729 17.3637 23.4031 17.3757 22.9685C17.3878 21.1941 17.3878 19.4198 17.3757 17.6454C17.3757 17.2109 17.4602 16.8487 17.9189 16.716C18.3535 16.5953 18.6311 16.8367 18.8242 17.1988C18.8242 19.118 18.8242 21.0493 18.8242 22.9685C18.8363 23.6807 18.6069 23.91 17.8948 23.9221Z" fill="#E96820"/>
<path d="M13.1875 23.9222C13.8152 23.9101 13.96 23.7894 14.1531 23.1979C14.7205 21.4115 15.2757 19.613 15.843 17.8265C15.9034 17.6213 15.9396 17.4161 15.9396 17.2109C16.3258 17.3799 16.3621 17.6938 16.2534 18.0317C15.674 19.9389 15.0705 21.834 14.479 23.7411C14.3825 24.0549 14.1773 24.2722 13.8393 24.2963C13.5617 24.2963 13.2961 24.236 13.1875 23.9222Z" fill="#F7BA0A"/>
<path d="M17.8945 23.9225C18.6067 23.9104 18.824 23.6811 18.824 22.9689C18.824 21.0497 18.824 19.1184 18.824 17.1992C19.1257 17.2958 19.1861 17.5372 19.1861 17.8027C19.1861 19.7099 19.1861 21.6291 19.1861 23.5363C19.1861 23.9225 18.993 24.176 18.6308 24.2605C18.3291 24.3329 18.0273 24.2846 17.8945 23.9225Z" fill="#FABC07"/>
<path d="M13.5616 20.2289C13.5254 20.3617 13.4892 20.4824 13.453 20.6152C13.0064 19.4926 12.6081 18.358 12.3184 17.1992C12.5598 17.2596 12.6201 17.4648 12.6925 17.6579C12.934 18.4183 13.1754 19.1667 13.4047 19.9272C13.4288 20.0479 13.4651 20.1565 13.5616 20.2289Z" fill="#F1B710"/>
<path d="M22.084 24.0068C22.1443 23.2584 22.084 22.5342 22.084 21.8099C22.084 21.5082 22.1443 21.3754 22.4823 21.3875C22.8686 21.4116 23.2669 21.3875 23.6532 21.3995C23.7618 21.3995 23.9549 21.3875 23.8584 21.5806C23.3876 22.4618 22.7961 23.2705 22.084 24.0068Z" fill="#FEE060"/>
<path d="M23.7849 18.5033C24.0384 19.0948 23.7487 19.5534 23.1211 19.5776C22.7831 19.5896 22.433 19.5655 22.0951 19.5655C22.0951 19.3241 22.1071 19.0827 22.0951 18.8533C22.0709 18.5757 22.1796 18.4792 22.4572 18.4912C22.8917 18.5033 23.3383 18.5033 23.7849 18.5033Z" fill="#FEE060"/>
<path d="M23.7857 18.5028C23.339 18.5028 22.8924 18.5149 22.4458 18.4907C22.1682 18.4787 22.0716 18.5752 22.0837 18.8529C22.0958 19.0943 22.0837 19.3357 22.0837 19.565C21.8302 19.6133 21.7216 19.565 21.7095 19.2633C21.6975 18.1286 21.6854 18.1286 22.8079 18.1286C23.1821 18.1286 23.5805 18.0803 23.7857 18.5028Z" fill="#FABB06"/>
</svg>
