<svg width="38" height="38" viewBox="0 0 38 38" fill="none" xmlns="http://www.w3.org/2000/svg">
<path d="M37.515 17.6798C37.515 18.4134 37.515 19.147 37.515 19.8806C37.4875 20.1466 37.4508 20.4125 37.4234 20.6693C36.9836 24.6216 35.5269 28.1429 32.8701 31.1048C28.3992 36.0749 22.8107 38.1657 16.1777 37.3679C13.5026 37.047 11.029 36.1024 8.75689 34.6444C8.52785 34.4977 8.33546 34.4793 8.07893 34.5619C5.93513 35.2588 3.78217 35.9466 1.63837 36.6343C1.51927 36.671 1.40017 36.7077 1.23526 36.7627C1.94986 34.6261 2.62782 32.5445 3.35158 30.4904C3.52565 29.9952 3.47984 29.6376 3.17751 29.1882C0.676407 25.4652 -0.322202 21.3387 0.0900676 16.9004C0.374075 13.8192 1.39101 10.9674 3.1317 8.40892C6.13669 3.98896 10.2594 1.26546 15.5181 0.293437C16.2235 0.165056 16.9381 0.10087 17.6528 0C18.3857 0 19.1186 0 19.8515 0C19.9431 0.0183401 20.0439 0.0550158 20.1355 0.0641858C23.0672 0.275097 25.8157 1.10957 28.326 2.65013C33.1907 5.6304 36.1774 9.93115 37.231 15.5524C37.3592 16.2493 37.4234 16.9646 37.515 17.6798ZM24.8904 29.3716C24.8995 29.3441 24.9087 29.3166 24.9087 29.2799C25.1194 29.2708 25.3301 29.2799 25.5317 29.2433C25.834 29.1882 26.1363 29.1424 26.4203 29.0415C29.0955 28.1153 29.9934 26.8224 30.0575 24.3648C30.0666 23.9888 29.9201 23.7412 29.5811 23.5762C28.1794 22.9068 26.796 22.2282 25.3943 21.5679C24.6797 21.2378 24.2582 21.3662 23.7818 22.0081C23.4154 22.4941 23.0581 22.9985 22.6824 23.4753C22.1053 24.2089 21.7113 24.3006 20.841 23.9521C17.6986 22.6683 15.3898 20.4584 13.6492 17.579C13.4201 17.203 13.4384 16.8637 13.7224 16.5336C14.0156 16.1943 14.2996 15.8367 14.6203 15.5249C15.3166 14.828 15.5822 14.076 15.0142 13.1682C15.0051 13.159 15.0051 13.1407 15.0051 13.1315C14.4462 11.8202 13.8965 10.4997 13.3193 9.19755C13.2277 8.9958 13.017 8.75739 12.8246 8.71154C11.826 8.47312 10.8182 8.46395 9.95705 9.12419C9.16916 9.72941 8.61947 10.5364 8.27133 11.4717C7.58421 13.3149 7.80409 15.1122 8.5645 16.882C9.12335 18.1842 9.93873 19.3304 10.7724 20.4584C12.1833 22.3657 13.7866 24.0805 15.6647 25.5386C17.6802 27.1066 19.9798 28.097 22.3984 28.8214C23.2138 29.0599 24.0567 29.1882 24.8904 29.3716Z" fill="white"/>
</svg>
