<svg width="11" height="11" viewBox="0 0 11 11" fill="none" xmlns="http://www.w3.org/2000/svg">
<path d="M0 5.72729C0 5.53495 0 5.34262 0 5.15028C0.00534131 5.1209 0.0160239 5.08884 0.0186946 5.05946C0.0801197 4.20998 0.323149 3.4166 0.763808 2.69268C1.63177 1.26887 2.88431 0.395354 4.52676 0.0881532C4.7324 0.0454123 4.94071 0.0267131 5.14903 0C5.36268 0 5.57633 0 5.78998 0C5.97426 0.0240418 6.15586 0.0400696 6.34014 0.069454C7.47517 0.259117 8.46598 0.745295 9.2832 1.5547C10.5224 2.7835 11.0672 4.28211 10.9096 6.01846C10.8055 7.16979 10.3621 8.19825 9.58766 9.05841C8.28705 10.5063 6.65528 11.1153 4.72172 10.8829C3.94189 10.7894 3.22081 10.5143 2.55582 10.0895C2.48905 10.0468 2.43297 10.0415 2.35819 10.0655C1.73059 10.2685 1.10031 10.4715 0.470036 10.6719C0.437988 10.6826 0.40594 10.6879 0.363209 10.6986C0.376563 10.6559 0.387245 10.6238 0.397928 10.5944C0.598227 9.99871 0.795856 9.40034 0.998826 8.80731C1.03087 8.71381 1.02553 8.64703 0.966778 8.56422C0.512766 7.91242 0.218994 7.19384 0.0827903 6.41114C0.0480718 6.18675 0.0293772 5.95702 0 5.72729ZM7.23748 8.55353C7.41641 8.51881 7.57131 8.50812 7.71286 8.45737C8.48468 8.18756 8.74373 7.81892 8.7651 7.09767C8.76777 6.98815 8.72503 6.91602 8.62622 6.86794C8.21761 6.67293 7.81434 6.47525 7.40573 6.28292C7.19742 6.18675 7.07457 6.22415 6.9357 6.41114C6.82887 6.55272 6.72471 6.69964 6.61522 6.83855C6.44696 7.05226 6.32946 7.07897 6.07841 6.97746C5.16238 6.60348 4.48937 5.95969 3.98195 5.1209C3.91518 5.01138 3.92052 4.91254 4.00331 4.81637C4.08877 4.71753 4.17157 4.61335 4.26504 4.52253C4.46801 4.31951 4.54813 4.10046 4.37988 3.836C4.37721 3.83333 4.37721 3.82799 4.37721 3.82531C4.2143 3.44332 4.05406 3.05865 3.88581 2.67932C3.8591 2.62055 3.79767 2.5511 3.74159 2.53774C3.45049 2.46829 3.15672 2.46562 2.90567 2.65795C2.676 2.83426 2.51576 3.06933 2.41427 3.34181C2.21397 3.87874 2.27807 4.40232 2.49973 4.91788C2.66264 5.29721 2.90033 5.63112 3.14336 5.95969C3.55464 6.51532 4.02201 7.01486 4.56949 7.4396C5.15704 7.89639 5.82737 8.18489 6.53243 8.39592C6.77011 8.46805 7.01581 8.50545 7.23748 8.55353Z" fill="white"/>
</svg>
