<svg width="45" height="43" viewBox="0 0 45 43" fill="none" xmlns="http://www.w3.org/2000/svg">
<path d="M32.7502 38.742C25.9187 38.742 19.0871 38.742 12.2555 38.742C12.2284 38.7239 12.2012 38.7058 12.1651 38.6968C10.0296 38.2173 8.89857 36.779 9.00715 34.5898C9.15193 31.6407 9.32385 28.7006 9.48672 25.7515C9.67674 22.2777 9.88485 18.8039 10.0749 15.3211C10.1292 14.3712 10.5816 13.9189 11.5226 13.9189C12.9794 13.9189 14.4362 13.9189 15.9021 13.9189C16.0197 13.9189 16.1464 13.9189 16.2911 13.9189C16.2911 13.729 16.2911 13.5842 16.2911 13.4395C16.3002 12.2001 16.2549 10.9517 16.3273 9.7124C16.5354 6.10292 20.0734 3.40712 23.6113 4.11273C26.6244 4.70979 28.6603 7.16133 28.6875 10.228C28.6965 11.3226 28.6875 12.4172 28.6875 13.5209C28.6875 13.6385 28.6875 13.7651 28.6875 13.928C28.8413 13.928 28.968 13.928 29.0856 13.928C30.5786 13.928 32.0716 13.9189 33.5646 13.928C34.3428 13.928 34.8676 14.4074 34.9038 15.1583C35.0666 18.0893 35.2295 21.0293 35.3924 23.9603C35.5191 26.1857 35.6457 28.4021 35.7724 30.6275C35.8538 32.0568 35.9624 33.4951 35.9986 34.9245C36.0348 36.4171 35.3562 37.5569 34.0442 38.2806C33.6551 38.5068 33.1846 38.5973 32.7502 38.742ZM18.8337 13.8918C21.2768 13.8918 23.738 13.8918 26.1811 13.8918C26.1811 12.4715 26.2716 11.0784 26.163 9.70335C26.0182 7.88504 24.4076 6.52809 22.5527 6.49191C20.7158 6.45572 19.0238 7.79458 18.8609 9.60384C18.7252 11.0151 18.8337 12.4444 18.8337 13.8918Z" fill="white"/>
</svg>
