<svg width="65" height="63" viewBox="0 0 65 63" fill="none" xmlns="http://www.w3.org/2000/svg">
<path d="M44.0548 60.4842C42.6463 60.4842 41.2625 60.4842 39.8539 60.4842C39.8292 60.2362 39.6562 60.1122 39.4338 60.0874C33.0583 59.269 27.8936 56.0205 23.2478 51.8792C15.5626 45.0101 9.80482 36.7027 5.90041 27.1554C3.79994 22.047 2.36668 16.765 3.281 11.1606C3.75052 8.20967 5.0108 5.70506 7.63021 4.01878C10.5214 2.13412 13.7586 1.81175 17.0453 2.08453C22.6795 2.53089 27.8936 4.56434 32.8606 7.09375C36.7156 9.0776 40.3481 11.4582 43.8324 14.1116C49.4172 18.4017 54.3101 23.2621 57.745 29.4617C61.1551 35.5868 62.5143 41.9847 59.4501 48.6802C56.9295 54.1854 52.7286 57.8803 46.9214 59.6906C45.9576 59.9882 44.8703 59.765 44.0548 60.4842ZM42.6957 41.1168C47.465 41.1416 51.147 37.9674 51.7648 33.7518C52.2096 30.776 51.1717 28.2218 49.6149 25.8411C47.3167 22.2702 44.129 19.6168 40.62 17.3354C37.531 15.3267 34.2444 13.6901 30.513 13.2685C26.3862 12.8221 23.9397 14.6572 24.0386 18.9473C24.0633 19.84 24.2116 20.7575 24.434 21.6255C26.4109 28.5689 30.3894 34.1485 36.0731 38.4882C38.1735 40.0505 40.5211 41.0672 42.6957 41.1168Z" fill="#FAB006"/>
<path d="M42.6981 41.1168C40.5235 41.0672 38.1759 40.0504 36.1248 38.4882C30.4165 34.1485 26.4379 28.5689 24.4857 21.6254C24.2386 20.7575 24.0904 19.84 24.0904 18.9472C23.9668 14.6572 26.4379 12.8221 30.5647 13.2685C34.2962 13.6652 37.5581 15.3267 40.6717 17.3354C44.1807 19.6168 47.3685 22.2702 49.6667 25.8411C51.1988 28.2465 52.2614 30.8007 51.8166 33.7517C51.1494 37.9674 47.4674 41.1416 42.6981 41.1168Z" fill="#FCDE9A"/>
</svg>
