<svg width="45" height="43" viewBox="0 0 45 43" fill="none" xmlns="http://www.w3.org/2000/svg">
<path d="M21.7548 37.3816C19.7269 37.3507 17.4931 37.1243 15.3828 36.2392C12.2534 34.9322 10.4931 32.5754 10.1019 29.2306C9.72104 25.999 10.4416 22.9424 11.6975 19.9887C12.6651 17.7348 13.9519 15.6868 15.7328 13.9784C15.9181 13.8034 15.8769 13.6593 15.8151 13.4741C15.2284 11.8995 14.6313 10.3248 14.0651 8.73991C13.4372 6.98004 14.6725 5.24075 16.4637 5.37455C16.9784 5.41571 17.4931 5.61126 18.0078 5.71418C18.8725 5.88913 19.7475 6.07437 20.6225 6.18758C21.4048 6.29049 22.1769 6.21845 22.9592 6.0332C24.421 5.67299 25.8827 5.32309 27.3548 5.04522C29.2283 4.6953 30.7312 6.43458 30.1239 8.24591C29.7739 9.29566 29.3621 10.3146 28.971 11.354C28.7033 12.0641 28.4459 12.7743 28.168 13.4844C28.0857 13.7005 28.096 13.8446 28.271 14.0195C31.2562 17.0041 32.9445 20.6474 33.7165 24.7434C34.0871 26.7194 34.1386 28.7057 33.6033 30.6714C32.7489 33.8104 30.5974 35.6629 27.5813 36.62C25.9445 37.1346 24.0607 37.3816 21.7548 37.3816ZM17.4725 13.2065C20.4886 12.4552 23.4945 12.5067 26.5004 13.2168C26.5416 13.1139 26.5827 13.0315 26.6136 12.9492C27.2415 11.2717 27.8695 9.58384 28.5077 7.9063C28.6415 7.55639 28.6724 7.23735 28.4254 6.9286C28.1577 6.59926 27.8077 6.59925 27.4371 6.68158C26.5621 6.87712 25.6871 7.07266 24.8019 7.2682C23.5048 7.55637 22.218 8.0298 20.8592 7.82397C19.4386 7.60784 18.0284 7.32995 16.6181 7.06237C16.2784 7.00062 15.9798 7.01092 15.7328 7.2785C15.496 7.54609 15.4754 7.85483 15.599 8.17387C15.7534 8.58554 15.8975 8.99722 16.0519 9.39859C16.5254 10.6542 16.9886 11.92 17.4725 13.2065ZM22.8563 30.4759C24.771 30.0128 25.8004 28.9116 25.821 27.2649C25.8313 26.5342 25.6151 25.8755 25.1724 25.2889C24.5857 24.517 23.8033 24.1156 22.846 24.0024C22.846 22.9424 22.846 21.9132 22.846 20.8326C23.0107 20.8326 23.1445 20.8326 23.2886 20.8326C23.8445 20.8326 24.3901 20.8326 24.946 20.8326C25.3474 20.8326 25.646 20.6576 25.7695 20.2666C25.9548 19.7108 25.5636 19.1962 24.9151 19.1859C24.2254 19.1756 23.5357 19.1859 22.846 19.1859C22.743 18.3729 22.5166 18.0642 22.0225 18.0333C21.518 18.0024 21.271 18.3112 21.1063 19.1757C19.1504 19.7108 18.2239 20.6885 18.1519 22.3249C18.121 22.9939 18.296 23.6217 18.6769 24.1877C19.2636 25.0625 20.0975 25.5256 21.1269 25.6594C21.1269 26.7297 21.1269 27.7589 21.1269 28.8292C20.4989 28.8292 19.8916 28.8292 19.2945 28.8292C18.5534 28.8292 18.1725 29.0968 18.1622 29.632C18.1519 30.1774 18.5431 30.4656 19.3048 30.4656C19.9122 30.4656 20.5298 30.4656 21.1372 30.4656C21.2504 31.4021 21.4666 31.7006 22.0019 31.7006C22.5166 31.6903 22.7225 31.4021 22.8563 30.4759Z" fill="white"/>
<path d="M22.8477 25.6802C23.7021 25.8654 24.1962 26.4829 24.1653 27.3063C24.1344 28.0473 23.5991 28.6545 22.8477 28.7574C22.8477 27.7385 22.8477 26.7196 22.8477 25.6802Z" fill="white"/>
<path d="M21.1365 23.9408C20.3542 23.8482 19.8086 23.1896 19.8086 22.3971C19.8189 21.6149 20.3748 20.9666 21.1365 20.8945C21.1365 21.9031 21.1365 22.922 21.1365 23.9408Z" fill="white"/>
</svg>
