<svg width="74" height="16" viewBox="0 0 74 16" fill="none" xmlns="http://www.w3.org/2000/svg">
<path d="M73.4816 12.3461C72.9203 12.3359 72.359 12.3155 71.7977 12.3359C71.5119 12.3461 71.3997 12.2542 71.4201 11.958C71.4405 11.6925 71.4201 11.427 71.4201 11.0389C70.8486 11.7027 70.2669 12.1214 69.4913 12.244C68.1544 12.4584 66.8175 11.9478 66.2051 10.7325C65.256 8.83301 65.2152 6.87223 66.2562 4.98292C67.1951 3.26723 70.0526 3.04256 71.2364 4.58464C71.2568 4.60506 71.2976 4.60506 71.3282 4.61528C71.4405 4.554 71.4099 4.44166 71.4099 4.33954C71.4405 3.56339 71.4405 3.56339 72.2365 3.56339C72.6447 3.56339 73.0529 3.55318 73.4611 3.54297C73.4816 6.49436 73.4816 9.41512 73.4816 12.3461ZM67.6237 7.87304C67.5931 8.38367 67.6645 8.87386 67.8686 9.32321C68.1339 9.89511 68.5422 10.3445 69.2259 10.4262C69.9709 10.5079 70.5832 10.3036 70.9608 9.62959C71.5732 8.52664 71.5834 7.39306 71.0323 6.26969C70.7363 5.65694 70.1648 5.34036 69.5015 5.34036C68.7973 5.34036 68.2462 5.69779 67.9298 6.3616C67.6849 6.83138 67.5931 7.342 67.6237 7.87304Z" fill="white"/>
<path d="M2.55134 10.4067C2.58196 10.417 2.62278 10.417 2.6534 10.4272C2.91874 10.805 3.31675 10.5191 3.64332 10.6314L3.67393 10.6416C3.91886 10.7642 4.15359 10.7642 4.39851 10.6416L4.42913 10.6314C5.05166 10.6621 5.62316 10.5293 6.03137 9.99825C6.36815 9.97782 6.55185 9.81442 6.54164 9.4672C6.58246 9.21189 6.70493 9.09955 6.96006 9.25274C7.24581 9.42635 7.55197 9.58975 7.83773 9.76336C8.3582 10.0799 8.3684 10.1616 8.00101 10.6723C7.34787 11.5914 6.42938 12.1224 5.34761 12.3267C3.54126 12.6637 1.93902 12.2858 0.744992 10.7846C0.438831 10.417 0.244929 9.98804 0 9.58975C0 9.18125 0 8.77276 0 8.36426C0.0714376 8.3949 0.142875 8.43574 0.204107 8.46638C0.173491 8.78297 0.387804 8.93615 0.612322 9.07913C0.693965 9.47741 0.928689 9.72251 1.3267 9.794C1.65327 10.1719 2.03087 10.417 2.55134 10.4067Z" fill="#30B063"/>
<path d="M0.204107 8.46653C0.13267 8.43589 0.0612322 8.39504 0 8.36441C0 8.29292 0 8.23164 0 8.16016C0.173491 8.19079 0.193902 8.32356 0.204107 8.46653Z" fill="#32B064"/>
<path d="M32.0024 10.7948C31.0533 12.8577 28.0019 12.6636 27.0834 11.2033C26.7467 10.662 26.563 10.0595 26.563 9.41609C26.5528 7.60848 26.563 5.81109 26.5528 4.00349C26.5528 3.67669 26.6344 3.54393 26.9814 3.56436C27.4917 3.60521 28.1448 3.41117 28.4612 3.65627C28.7979 3.92179 28.553 4.60603 28.5734 5.10644C28.6142 6.36257 28.502 7.62891 28.6347 8.87483C28.7367 9.85522 29.0225 10.2024 29.7164 10.3352C30.4614 10.4782 31.2676 10.0901 31.6554 9.40587C31.9412 8.89525 32.0637 8.32336 32.0637 7.74125C32.0739 6.48512 32.0739 5.21877 32.0637 3.96264C32.0637 3.65627 32.1453 3.54393 32.4617 3.55414C32.9005 3.57457 33.3495 3.57457 33.7884 3.55414C34.0639 3.54393 34.1353 3.64606 34.1353 3.90137C34.1251 6.38299 34.1864 8.87483 34.1149 11.3565C34.0435 13.8074 32.329 15.4516 29.7981 15.4823C28.4816 15.4925 27.3284 15.084 26.318 14.2568C25.7874 13.8177 25.7874 13.7257 26.216 13.2049C26.4405 12.9292 26.6446 12.5002 26.9202 12.4492C27.2161 12.3981 27.4202 12.8679 27.6856 13.113C28.553 13.9096 29.7879 14.0832 30.8594 13.5317C31.6656 13.113 32.1453 12.0407 32.0024 10.7948Z" fill="white"/>
<path d="M37.6796 11.1832C37.6796 12.3066 37.6796 13.2972 37.6796 14.298C37.6796 15.503 37.6796 15.503 36.4651 15.503C35.6079 15.503 35.6079 15.503 35.6079 14.6554C35.6079 11.1525 35.6181 7.64968 35.5977 4.14681C35.5977 3.65661 35.7507 3.51364 36.1896 3.58513C36.2712 3.59534 36.3631 3.58513 36.4447 3.58513C36.8223 3.58513 37.2611 3.47279 37.5469 3.62598C37.8837 3.8098 37.5673 4.31021 37.7408 4.69828C38.098 4.3817 38.4143 4.03447 38.843 3.84044C40.3636 3.14599 42.2209 3.74853 42.9353 5.25997C43.8232 7.12884 43.8334 9.03857 42.8333 10.8768C41.9352 12.521 39.1899 12.8376 37.9959 11.4385C37.9347 11.3772 37.8633 11.3262 37.6796 11.1832ZM41.5066 7.97648C41.5372 7.5067 41.4147 7.03693 41.231 6.57737C40.731 5.32124 39.241 5.00466 38.3531 6.01569C37.5367 6.94502 37.5469 8.0786 37.8837 9.19176C38.1694 10.1415 38.7511 10.5296 39.6288 10.5296C40.4554 10.5296 40.9963 10.1007 41.3229 9.17133C41.4453 8.78326 41.5168 8.4054 41.5066 7.97648Z" fill="white"/>
<path d="M50.2607 11.122C49.9546 11.3875 49.7709 11.5816 49.5668 11.7347C47.9747 12.9194 45.4642 12.276 44.7192 10.0293C44.2498 8.61995 44.2396 7.19021 44.7192 5.78089C45.3723 3.84053 47.5563 2.97247 49.3218 3.93244C49.5361 4.04477 49.7198 4.18775 49.8831 4.36136C49.975 4.45327 50.0362 4.62688 50.1995 4.5554C50.322 4.50433 50.2607 4.34094 50.2709 4.2286C50.3015 3.56479 50.2913 3.55458 50.9649 3.575C51.3833 3.58521 51.9242 3.39118 52.1895 3.6567C52.4549 3.92223 52.2712 4.46348 52.2712 4.8822C52.2814 7.21063 52.2712 9.53907 52.2814 11.8675C52.2814 12.2147 52.1997 12.3577 51.8323 12.3271C51.4956 12.2964 51.1486 12.2862 50.8118 12.3271C50.3424 12.3883 50.1995 12.1841 50.2607 11.7552C50.2811 11.5918 50.2607 11.4182 50.2607 11.122ZM50.1995 7.9255C50.2505 7.40467 50.1689 6.89405 49.9341 6.40385C49.3626 5.19878 47.9645 4.97411 47.0562 5.94429C46.3112 6.74086 46.2296 8.6608 46.9032 9.68204C47.5767 10.7033 49.0361 10.7339 49.73 9.72289C50.0974 9.18163 50.2607 8.58931 50.1995 7.9255Z" fill="white"/>
<path d="M16.9502 3.76792C16.9604 5.81041 16.9707 7.84268 16.9809 9.88517C16.9809 10.5796 16.9707 11.2741 16.9809 11.9787C16.9809 12.234 16.9094 12.3668 16.6339 12.3362C16.5318 12.3259 16.4298 12.3362 16.3277 12.3362C15.9195 12.3362 15.4501 12.4485 15.1235 12.2851C14.7561 12.1013 15.1031 11.5702 14.9092 11.1822C14.6438 11.4068 14.4091 11.6417 14.1336 11.8255C12.6436 12.8366 10.3474 12.2749 9.58196 10.406C8.91862 8.7618 8.888 7.07675 9.59217 5.41212C10.5107 3.22666 13.5416 3.04284 14.6949 4.46237C14.7459 4.52364 14.8173 4.56449 14.9092 4.63598C15.0827 4.35003 14.9092 4.04365 15.0418 3.78834C15.1031 3.72707 15.1643 3.66579 15.2255 3.60452C15.7562 3.56367 16.2869 3.56367 16.8176 3.60452C16.8686 3.66579 16.9094 3.71686 16.9502 3.76792ZM14.9398 7.82226C14.9806 7.51589 14.8888 7.13803 14.7969 6.76016C14.603 5.99423 13.9703 5.40191 13.1947 5.32021C12.7048 5.26915 11.8884 5.48361 11.5006 6.32103C10.9495 7.49546 10.9903 8.66989 11.6843 9.76262C12.266 10.6715 13.7049 10.6715 14.3683 9.8239C14.8071 9.26221 14.9296 8.60862 14.9398 7.82226Z" fill="white"/>
<path d="M60.8973 3.58534C62.0913 3.54449 63.1935 3.77937 64.0813 4.66786C64.3569 4.94359 64.4895 5.29082 64.612 5.63804C64.6426 5.72995 64.6222 5.84229 64.6018 5.9342C64.5814 6.0159 63.2853 6.59801 63.1935 6.5878C63.0812 6.57758 63.071 6.48567 63.0404 6.41418C62.7444 5.62783 62.0403 5.43379 61.3259 5.33167C60.785 5.26018 60.2339 5.29082 59.7338 5.55634C59.5297 5.65846 59.3562 5.81165 59.3562 6.05675C59.3562 6.29164 59.5399 6.40397 59.7338 6.49588C60.2951 6.76141 60.9075 6.82268 61.4994 6.94523C62.3056 7.10863 63.1016 7.28224 63.7752 7.76223C64.9896 8.63029 64.9896 10.346 63.7752 11.3979C62.3158 12.654 59.0195 12.6948 57.6417 11.1221C57.5397 11.0098 57.4478 10.8872 57.3662 10.7545C56.7437 9.77408 56.7947 9.56983 57.8254 9.06942C57.9275 9.01836 58.0398 8.9673 58.1418 8.90602C58.4276 8.71198 58.5704 8.69156 58.6827 9.11027C58.9072 9.96812 59.5808 10.346 60.4074 10.4787C60.9279 10.5604 61.4586 10.5604 61.9688 10.3664C62.3464 10.2234 62.6832 10.0192 62.6832 9.53919C62.6832 9.07963 62.326 8.93666 61.979 8.85496C61.0401 8.63028 60.0808 8.48731 59.1419 8.24221C57.1723 7.73159 56.9376 5.9342 57.6724 4.85168C58.2847 3.94277 59.2848 3.64661 60.336 3.57513C60.5197 3.56491 60.7034 3.58534 60.8973 3.58534Z" fill="white"/>
<path d="M21.7881 3.5845C22.6555 3.54365 23.4515 3.6662 24.1965 4.0747C24.4823 4.22789 24.7476 4.41171 24.9619 4.66702C25.5845 5.44317 25.513 5.82103 24.666 6.2908C24.5027 6.38271 24.3292 6.4542 24.1659 6.54611C24.0332 6.6176 23.9822 6.60739 23.9006 6.46441C23.3801 5.54529 22.2779 5.09594 21.2268 5.37168C20.8288 5.4738 20.2777 5.51465 20.2675 6.03549C20.2573 6.6176 20.8594 6.6176 21.2574 6.71972C22.2779 6.96482 23.3087 7.10779 24.2884 7.54693C25.7375 8.21074 26.0335 10.1613 24.7272 11.3255C23.7373 12.214 22.482 12.3876 21.1962 12.3059C20.3083 12.2447 19.4714 11.9893 18.7673 11.3868C18.2876 10.9681 18.0019 10.4473 17.8386 9.84473C17.7876 9.63027 17.7876 9.43623 18.0631 9.36474C18.155 9.33411 18.2366 9.26262 18.3386 9.22177C18.6652 9.06858 19.002 8.79285 19.3082 8.82349C19.6347 8.85412 19.5531 9.37496 19.7674 9.64048C19.9307 9.84473 20.1042 10.0286 20.3287 10.1511C21.2166 10.6311 22.1248 10.7026 23.0535 10.2737C23.3495 10.1409 23.574 9.92643 23.574 9.57921C23.574 9.23198 23.3087 9.04816 23.0127 8.92561C22.5024 8.72136 21.9616 8.64987 21.4309 8.57839C20.8594 8.49669 20.2981 8.37414 19.7572 8.16989C18.6856 7.76139 18.1652 7.07716 18.155 6.08655C18.155 5.15722 18.7367 4.34022 19.696 3.94194C20.3797 3.65599 21.0941 3.52323 21.7881 3.5845Z" fill="white"/>
<path d="M4.21532 9.08869C2.99068 9.11933 1.94973 8.82317 1.02104 8.14915C0.265846 7.59768 0.122971 7.17897 0.378105 6.29048C1.26597 3.15526 5.13381 2.71613 6.94016 4.37054C7.70556 5.06499 8.04234 5.96368 7.83823 6.99514C7.65453 7.96532 6.96057 8.48616 6.0727 8.78232C5.43997 8.99678 4.79703 9.11933 4.21532 9.08869ZM3.99081 7.44449C4.3684 7.47513 4.72559 7.42406 5.09299 7.31173C5.491 7.18918 5.79716 6.9645 5.83798 6.50494C5.8788 6.03517 5.63387 5.7288 5.24607 5.51434C4.24594 4.96287 2.67431 5.49391 2.16404 6.53558C1.99055 6.8828 2.0824 7.07684 2.42938 7.17897C2.93965 7.34237 3.44992 7.49555 3.99081 7.44449Z" fill="white"/>
<path d="M55.7529 7.9566C55.7529 9.28421 55.7427 10.6118 55.7631 11.9292C55.7631 12.2254 55.7019 12.3582 55.3753 12.3377C54.9365 12.3071 54.4976 12.3173 54.0486 12.3377C53.7833 12.3479 53.6914 12.2458 53.6914 11.9803C53.7016 9.29443 53.7016 6.60855 53.6914 3.93289C53.6914 3.66737 53.7833 3.57546 54.0486 3.58567C54.4874 3.60609 54.9365 3.60609 55.3753 3.58567C55.7019 3.56524 55.7733 3.68779 55.7733 3.99417C55.7427 5.31157 55.7529 6.62898 55.7529 7.9566Z" fill="white"/>
<path d="M53.4258 1.30732C53.4258 0.59245 53.9871 0.0103404 54.7015 0.000127923C55.4669 -0.0100845 56.0792 0.59245 56.0588 1.34817C56.0486 2.0324 55.426 2.62473 54.7321 2.63494C53.9871 2.63494 53.4258 2.06304 53.4258 1.30732Z" fill="#32B064"/>
<path d="M6.02021 9.99902C5.612 10.5301 5.0507 10.6628 4.41797 10.6322C4.97926 10.479 5.52015 10.3054 6.02021 9.99902Z" fill="#32B064"/>
<path d="M2.55277 10.4077C2.0323 10.4179 1.6547 10.1728 1.32812 9.79492C1.73634 9.99917 2.14455 10.2034 2.55277 10.4077Z" fill="#32B064"/>
<path d="M1.32766 9.79202C0.919442 9.72053 0.694924 9.47543 0.613281 9.07715C0.878621 9.29161 1.13376 9.51628 1.32766 9.79202Z" fill="#32B064"/>
<path d="M6.52199 9.46729C6.53219 9.81451 6.3587 9.97791 6.01172 9.99833C6.18521 9.81451 6.3587 9.6409 6.52199 9.46729Z" fill="#32B064"/>
<path d="M3.64226 10.6203C3.3259 10.5079 2.91768 10.8041 2.65234 10.416C2.97892 10.4875 3.31569 10.559 3.64226 10.6203Z" fill="#32B064"/>
<path d="M0.61427 9.07759C0.389752 8.93462 0.175439 8.78143 0.206055 8.46484C0.389752 8.63846 0.532627 8.8427 0.61427 9.07759Z" fill="#32B064"/>
<path d="M4.38864 10.6313C4.15392 10.7539 3.90899 10.7539 3.66406 10.6313C3.90899 10.6313 4.15392 10.6313 4.38864 10.6313Z" fill="#32B064"/>
<path d="M15.2253 3.60477C15.164 3.66605 15.1028 3.72732 15.0416 3.7886C15.011 3.64562 15.0926 3.59456 15.2253 3.60477Z" fill="#2B2833"/>
<path d="M16.9491 3.76789C16.9083 3.71682 16.8572 3.65555 16.8164 3.60449C16.9389 3.59427 16.9695 3.66576 16.9491 3.76789Z" fill="#2B2833"/>
</svg>
