<svg width="84" height="16" viewBox="0 0 84 16" fill="none" xmlns="http://www.w3.org/2000/svg">
<path d="M5.79473 2.81723C6.34743 1.59083 7.12842 0.580857 8.49816 0.18408C9.42333 -0.0804386 10.3605 -0.0924621 11.2136 0.364433C12.4271 1.01371 13.6046 1.73512 14.7941 2.42046C14.6139 2.42046 14.4337 2.39641 14.2655 2.42046C14.0372 2.45653 13.7488 2.30023 13.5806 2.58879C13.2922 2.51665 13.0399 2.6489 12.8357 2.79319C12.4031 3.11782 11.8985 3.40639 11.7783 4.01959C11.4419 4.32018 11.2977 4.75303 11.0694 5.12576C10.0962 6.79703 9.14698 8.48033 8.16173 10.1516C7.71717 10.9091 6.84006 11.1736 5.99899 10.9331C5.54241 10.8009 5.20599 10.4883 4.77344 10.332C5.14591 9.50233 5.65055 8.75687 6.10713 7.98737C6.49162 7.32607 6.80401 6.6287 7.23656 6.00348C7.87337 5.08969 7.60903 3.94745 6.67184 3.45448C6.34743 3.28615 5.93891 3.21401 5.79473 2.81723Z" fill="#2FA850"/>
<path d="M30.945 6.83278C31.5698 6.83278 32.2066 6.84481 32.8314 6.83278C33.0957 6.82076 33.1798 6.90492 33.2158 7.18146C33.5403 10.2475 31.1492 12.5921 28.0853 12.2193C25.7424 11.9308 23.9401 10.1994 23.6277 7.92692C23.2672 5.35388 25.0815 2.87703 27.6408 2.40811C29.1427 2.13157 30.5004 2.44418 31.7019 3.40607C31.9903 3.63452 31.9663 3.7788 31.7139 3.9832C31.4977 4.16355 31.3294 4.47616 31.0891 4.54831C30.8248 4.62045 30.6326 4.28379 30.3923 4.1395C29.0826 3.38202 27.3644 3.56237 26.247 4.58438C25.0575 5.67852 24.7211 7.42194 25.418 8.87679C26.1028 10.2956 27.6408 11.1011 29.1787 10.8486C30.5845 10.6202 31.5097 9.8026 31.774 8.5762C31.8461 8.27561 31.798 8.17942 31.4736 8.19144C30.6446 8.21549 29.8155 8.19144 28.9985 8.20346C28.7221 8.20346 28.614 8.15537 28.614 7.83074C28.614 6.83278 28.602 6.83278 29.5872 6.83278C30.0438 6.83278 30.5004 6.83278 30.945 6.83278Z" fill="white"/>
<path d="M4.76124 10.3197C5.19379 10.476 5.54223 10.7886 5.98679 10.9209C6.82786 11.1613 7.70497 10.9088 8.14954 10.1393C9.13478 8.48009 10.072 6.78477 11.0572 5.11349C11.2735 4.74076 11.4297 4.30791 11.7661 4.00732C12.2107 4.2478 12.6552 4.47624 13.0157 4.82492C13.0277 4.93314 13.0878 4.99325 13.1959 5.0173C13.232 5.18563 13.268 5.34194 13.3882 5.4742C13.3882 5.49825 13.3882 5.53431 13.4002 5.55836C13.3401 5.88299 13.5083 6.21966 13.4122 6.54429C13.4122 6.60441 13.4002 6.66453 13.4002 6.72465C13.0517 7.32582 12.6913 7.927 12.3549 8.55223C11.8382 9.50209 11.2014 10.3918 10.7809 11.4018C10.3844 11.9188 10.12 12.52 9.77159 13.0731C8.8344 14.54 7.15227 14.8646 5.74649 14.2394C5.66238 14.2033 5.6023 14.1312 5.53021 14.0831C5.54222 14.071 5.55424 14.059 5.55424 14.047C5.55424 14.035 5.54222 14.0109 5.53021 14.0109C4.97751 13.6863 4.79728 13.0851 4.46086 12.6042C4.31668 11.8106 4.24458 11.0291 4.76124 10.3197Z" fill="#F9BD07"/>
<path d="M52.5112 6.55701C52.391 6.04 52.6434 6.01595 52.9918 6.01595C53.8329 6.04 53.8329 6.01595 53.8329 6.86962C53.8329 8.4928 53.8329 10.116 53.8329 11.7392C53.8329 12.1119 53.7968 12.4846 53.7127 12.8574C53.4123 14.1679 52.5352 14.9374 51.1655 15.0937C49.9039 15.238 48.6423 14.5647 48.0896 13.4826C47.9815 13.2662 47.9935 13.1579 48.2338 13.0978C48.2938 13.0858 48.3419 13.0497 48.402 13.0257C48.6423 12.9295 48.8706 12.7612 49.1109 12.7612C49.3512 12.7612 49.3872 13.1098 49.5554 13.2782C50.0841 13.8192 50.7089 13.9635 51.4058 13.7471C52.0546 13.5547 52.367 13.0497 52.4631 12.4125C52.5112 12.1359 52.4752 11.8594 52.4752 11.5107C51.8624 12.1239 51.1415 12.3283 50.3484 12.1961C49.5675 12.0758 48.9186 11.667 48.426 11.0538C47.4047 9.79134 47.5128 7.92769 48.6783 6.74938C49.7477 5.64322 51.2135 5.54703 52.5112 6.55701ZM52.5953 9.06993C52.5953 7.93971 51.8624 7.09807 50.8771 7.11009C49.8919 7.12211 49.1229 7.97579 49.1229 9.06993C49.1229 10.152 49.9039 10.9817 50.9132 10.9817C51.8624 10.9697 52.5833 10.14 52.5953 9.06993Z" fill="white"/>
<path d="M10.7734 11.4033C11.194 10.3933 11.8308 9.51555 12.3474 8.55367C12.6839 7.94047 13.0443 7.33929 13.3928 6.72609C13.5129 6.71406 13.561 6.65394 13.561 6.54573C13.5009 6.2211 13.7292 5.83634 13.3928 5.5598C13.3807 5.53575 13.3807 5.49969 13.3807 5.47564C13.5369 5.42755 13.3687 5.25921 13.4769 5.19909C13.7292 5.18707 13.7893 4.98267 13.8373 4.80232C13.9695 4.30935 14.0896 3.82841 14.1978 3.33544C14.2819 2.93866 14.5823 2.6501 14.8586 2.80641C15.0749 2.92664 15.171 2.79439 15.3272 2.77034C16.7931 3.39556 17.49 5.39148 16.6969 6.85835C15.9039 8.33725 15.0509 9.78007 14.1858 11.2229C13.6331 12.1367 12.5277 12.3892 11.5905 11.8842C11.3141 11.7279 11.0498 11.5596 10.7734 11.4033Z" fill="#E74335"/>
<path d="M40.15 9.04502C40.15 10.8486 38.7562 12.2313 36.9539 12.2313C35.1276 12.2313 33.7459 10.8365 33.7579 9.00895C33.7699 7.21744 35.1637 5.83473 36.978 5.84676C38.7682 5.83473 40.15 7.24149 40.15 9.04502ZM38.7442 9.033C38.7442 7.93886 37.9752 7.10923 36.966 7.10923C35.9447 7.09721 35.1637 7.93886 35.1637 9.05705C35.1637 10.1512 35.9567 10.9928 36.99 10.9808C37.9873 10.9568 38.7442 10.1151 38.7442 9.033Z" fill="white"/>
<path d="M43.9227 12.2321C42.1324 12.2321 40.7387 10.8373 40.7266 9.03379C40.7146 7.23026 42.1444 5.8235 43.9708 5.83553C45.773 5.84755 47.1428 7.23026 47.1428 9.05784C47.1428 10.8373 45.725 12.2321 43.9227 12.2321ZM45.737 9.02177C45.737 7.93965 44.944 7.098 43.9467 7.098C42.9254 7.098 42.1324 7.95167 42.1324 9.04581C42.1324 10.1159 42.9254 10.9696 43.9227 10.9696C44.944 10.9816 45.737 10.1279 45.737 9.02177Z" fill="white"/>
<path d="M56.8711 9.14222C56.9071 6.90583 58.6013 5.463 60.5357 5.9199C61.6892 6.18441 62.302 7.02606 62.6865 8.08414C62.7826 8.33663 62.5543 8.31259 62.4462 8.36068C61.2446 8.86567 60.0431 9.38268 58.8296 9.8516C58.5052 9.98386 58.4931 10.0801 58.6974 10.3446C59.3342 11.1622 60.5958 11.2103 61.3408 10.3806C61.569 10.1281 61.7012 10.1281 61.9535 10.3085C62.7826 10.8736 62.8066 10.9578 61.9776 11.571C60.9322 12.3405 59.7908 12.4607 58.6253 11.9076C57.4358 11.3425 56.9071 10.3085 56.8711 9.14222ZM58.2649 8.93781C59.1059 8.58913 59.8989 8.2645 60.6799 7.93986C60.8241 7.87974 61.0644 7.89176 61.0524 7.68736C61.0524 7.50701 60.8722 7.38677 60.716 7.29058C60.1633 6.99 59.6226 7.00202 59.0939 7.33868C58.5292 7.69939 58.2649 8.2164 58.2649 8.93781Z" fill="white"/>
<path d="M66.6292 7.66226C66.6292 6.32764 66.6412 4.99303 66.6172 3.64639C66.6172 3.35783 66.6773 3.24961 66.9897 3.26164C67.9749 3.28568 68.9722 3.22556 69.9574 3.29771C71.8318 3.42996 72.9492 5.54611 72.012 7.13322C71.4834 8.03499 70.6543 8.46784 69.621 8.47986C69.1404 8.47986 68.6598 8.49188 68.1792 8.46784C67.8548 8.45581 67.7346 8.552 67.7346 8.88866C67.7586 9.80245 67.7346 10.7162 67.7466 11.6421C67.7586 11.9667 67.6625 12.0509 67.3501 12.0388C66.6172 12.0268 66.6172 12.0388 66.6172 11.2934C66.6292 10.103 66.6292 8.87664 66.6292 7.66226ZM67.7466 5.8467C67.7466 6.26753 67.7466 6.68835 67.7466 7.10918C67.7466 7.30155 67.7827 7.43381 68.011 7.42179C68.6237 7.40976 69.2485 7.44584 69.8613 7.40976C70.6062 7.36167 71.231 6.61621 71.219 5.85872C71.219 5.11326 70.5702 4.40388 69.8012 4.36781C69.2125 4.34376 68.6357 4.3678 68.047 4.35578C67.8067 4.35578 67.7346 4.45197 67.7466 4.68042C67.7586 5.06517 67.7466 5.46195 67.7466 5.8467Z" fill="white"/>
<path d="M76.9165 11.2947C76.7843 11.2827 76.7603 11.3668 76.7123 11.4149C75.8351 12.4009 74.4294 12.5211 73.4081 11.7035C72.3267 10.8378 72.4468 9.19056 73.6604 8.52927C74.5615 8.02428 75.5348 8.07237 76.496 8.33689C76.6281 8.37296 76.7483 8.42105 76.8805 8.46915C76.9526 7.78381 76.7002 7.33893 76.0995 7.02632C75.4747 6.71371 74.6456 6.84597 74.129 7.32691C74.0208 7.4231 73.9848 7.68762 73.7685 7.56738C73.4802 7.41108 73.2038 7.23072 72.9395 7.02632C72.8674 6.97823 72.9755 6.87002 73.0356 6.79788C73.7084 5.93218 75.1623 5.58349 76.4239 6.00432C77.4812 6.353 77.9979 7.13453 77.9979 8.40903C77.9979 9.49115 77.9859 10.5733 78.0099 11.6554C78.0219 11.98 77.9018 12.0882 77.6014 12.0401C77.5173 12.0281 77.4211 12.0281 77.337 12.0401C76.9886 12.1003 76.8685 11.956 76.9285 11.6193C76.9285 11.5231 76.9165 11.4029 76.9165 11.2947ZM75.5227 9.05831C75.0541 9.05831 74.8018 9.1064 74.5255 9.25068C74.0208 9.50317 73.7805 9.88793 73.8526 10.3568C73.9367 10.8498 74.2972 11.0783 74.7417 11.1865C75.6549 11.4269 76.7843 10.6454 76.9045 9.70757C76.9285 9.5152 76.8564 9.39496 76.6882 9.3108C76.3278 9.11842 75.9313 9.05831 75.5227 9.05831Z" fill="white"/>
<path d="M1.09868 11.3409C-0.102847 10.2467 -0.355166 8.2869 0.521946 6.74788C1.18278 5.5816 1.85563 4.43936 2.52848 3.2851C3.23738 2.08274 4.24667 1.87834 5.38811 2.73201L5.3761 2.76809C5.0637 2.78011 4.73929 2.69594 4.40286 2.8282C4.49899 2.96046 4.6672 2.97249 4.58309 3.18891C4.19861 4.17484 3.8021 5.14875 3.41761 6.13468C2.92499 7.40918 2.62461 8.75582 2.02385 9.99424C1.91571 10.2107 2.02385 10.5113 1.79556 10.6555C1.55525 10.7998 1.62735 10.9922 1.63936 11.1966C1.32697 11.0643 1.32697 11.0643 1.09868 11.3409Z" fill="#4185F0"/>
<path d="M4.76277 10.3208C4.24611 11.0301 4.33022 11.8117 4.46239 12.6052C4.35425 12.7375 4.41433 12.8337 4.49843 12.9539C4.60657 13.1222 4.7147 13.3146 4.53448 13.507C3.83759 13.1343 3.16474 12.7495 2.50391 12.3167C2.60003 12.1724 2.85235 12.1123 2.84033 11.9199C2.79227 11.4029 3.09265 11.0061 3.26086 10.5612C3.46512 10.0081 3.53721 9.41899 3.81356 8.88995C3.95774 8.61341 4.06588 8.28878 4.17402 7.97616C4.64261 6.67762 5.0271 5.34301 5.60383 4.09255C5.84414 3.56352 5.78406 3.16674 5.37554 2.76996L5.38756 2.73389C5.53174 2.75793 5.63988 2.90222 5.80809 2.81805C5.95228 3.21483 6.3728 3.28697 6.67319 3.44328C7.61037 3.93625 7.87471 5.07849 7.2379 5.99228C6.80535 6.6175 6.49296 7.31487 6.10848 7.97616C5.62787 8.74567 5.12323 9.50316 4.76277 10.3208Z" fill="#2679E5"/>
<path d="M81.1319 10.3692C81.6726 9.01053 82.1892 7.78413 82.6578 6.5457C82.802 6.14893 82.9942 5.99262 83.4268 6.01667C84.0996 6.06477 84.0996 6.02869 83.8353 6.65392C82.7419 9.17887 81.6365 11.7038 80.5311 14.2288C80.459 14.3851 80.471 14.6255 80.2548 14.6496C79.9424 14.6857 79.618 14.6857 79.3176 14.6376C79.1494 14.6135 79.2936 14.4452 79.3296 14.349C79.6901 13.5554 80.0505 12.7619 80.423 11.9804C80.5311 11.7399 80.5311 11.5475 80.423 11.307C79.6901 9.68386 78.9932 8.04865 78.2602 6.41345C78.104 6.06476 78.1641 5.99262 78.5366 6.00464C79.3176 6.02869 79.3176 6.00464 79.618 6.72606C80.1226 7.91639 80.6032 9.0947 81.1319 10.3692Z" fill="white"/>
<path d="M5.36306 2.77025C5.75957 3.16703 5.83165 3.5638 5.59135 4.09284C5.01462 5.35531 4.63013 6.6779 4.16154 7.97645C4.0534 8.28906 3.94527 8.60167 3.80108 8.89024C3.52473 9.4313 3.45264 10.0084 3.24838 10.5615C3.08016 10.9944 2.7918 11.4032 2.82784 11.9202C2.83986 12.1126 2.58754 12.1727 2.49142 12.317C1.97477 12.0645 1.45811 11.812 1.09766 11.343C1.32595 11.0545 1.32594 11.0545 1.62632 11.2108C1.61431 11.0064 1.55424 10.802 1.78253 10.6697C2.01082 10.5375 1.90267 10.2248 2.01081 10.0084C2.61157 8.77 2.91196 7.42336 3.40458 6.14887C3.77705 5.16293 4.18557 4.18903 4.57005 3.20309C4.65416 2.97465 4.48595 2.96262 4.38982 2.84239C4.72625 2.71013 5.05067 2.78227 5.36306 2.77025Z" fill="#337EEC"/>
<path d="M54.8329 11.8714C54.8209 10.645 54.8089 9.40654 54.8089 8.18014C54.8089 6.48482 54.8209 4.78949 54.7969 3.09417C54.7969 2.75751 54.881 2.66132 55.2174 2.67334C56.1906 2.68537 56.1906 2.67335 56.1906 3.65928C56.1906 6.31648 56.1786 8.97369 56.2027 11.6309C56.2027 11.9676 56.1186 12.0998 55.7821 12.0397C55.4697 11.9796 55.1333 12.1479 54.8329 11.9555C54.905 11.9315 54.893 11.8954 54.8329 11.8714Z" fill="white"/>
<path d="M15.3242 2.75762C15.168 2.78167 15.0719 2.91393 14.8556 2.79369C14.5793 2.63739 14.2789 2.92596 14.1948 3.32273C14.0866 3.8157 13.9665 4.30867 13.8343 4.78961C13.7863 4.96996 13.7262 5.17436 13.4739 5.18639C13.4258 5.06615 13.3297 5.00603 13.1975 5.01805C13.2095 4.88579 13.1374 4.82568 13.0173 4.82568C12.9332 4.50104 13.0894 3.65939 13.0653 3.29869C13.0413 2.86584 13.3898 2.80572 13.558 2.56525C13.7262 2.28871 14.0146 2.43299 14.2428 2.39692C14.4111 2.37287 14.6033 2.39692 14.7715 2.39692C14.7835 2.39692 14.8076 2.39692 14.8076 2.42097C14.8196 2.5412 14.8917 2.54121 14.9758 2.52918C15.12 2.60132 15.2401 2.64941 15.3242 2.75762Z" fill="#DC3E2D"/>
<path d="M4.52038 13.5058C4.70061 13.3134 4.59247 13.121 4.48434 12.9527C4.41224 12.8324 4.35216 12.7363 4.44828 12.604C4.78471 13.0849 4.97696 13.6861 5.51764 14.0108C5.52966 14.0228 5.54167 14.0348 5.54167 14.0468C5.54167 14.0589 5.52966 14.0709 5.51764 14.0829C5.19323 13.9025 4.86882 13.7222 4.54441 13.5298C4.5324 13.5298 4.52038 13.5298 4.49635 13.5298C4.50836 13.5298 4.50836 13.5178 4.52038 13.5058Z" fill="#616369"/>
<path d="M15.0002 2.55352C14.9161 2.56554 14.832 2.55352 14.832 2.44531C14.8801 2.48138 14.9402 2.51745 15.0002 2.55352Z" fill="#2FA850"/>
<path d="M54.832 11.8706C54.8921 11.8947 54.9041 11.9307 54.832 11.9668C54.832 11.9307 54.832 11.9067 54.832 11.8706Z" fill="#535456"/>
<path d="M13.5715 2.5881C13.4033 2.81654 13.0549 2.87666 13.0789 3.32153C13.0909 3.68224 12.9347 4.52389 13.0308 4.84852C12.6704 4.48782 12.2138 4.25937 11.7812 4.03092C11.8894 3.41772 12.406 3.12916 12.8386 2.80452C13.0188 2.64821 13.2832 2.51596 13.5715 2.5881Z" fill="#CB3D25"/>
<path d="M13.4048 5.55811C13.7412 5.84667 13.5009 6.2194 13.573 6.54404C13.5249 6.54404 13.4648 6.54404 13.4168 6.54404C13.5009 6.2194 13.3447 5.89477 13.4048 5.55811Z" fill="#CB3D25"/>
<path d="M13.1992 5.03081C13.3314 5.01878 13.4275 5.0789 13.4756 5.19913C13.3674 5.27127 13.5356 5.42759 13.3794 5.47568C13.2713 5.35544 13.2232 5.18711 13.1992 5.03081Z" fill="#CB3D25"/>
<path d="M13.0156 4.83643C13.1358 4.83643 13.2079 4.89655 13.1959 5.02881C13.0877 5.01678 13.0276 4.94464 13.0156 4.83643Z" fill="#CB3D25"/>
<path d="M13.4026 6.55713C13.4507 6.55713 13.5108 6.55713 13.5588 6.55713C13.5588 6.67736 13.4988 6.73748 13.3906 6.73748C13.3906 6.67736 13.4026 6.61725 13.4026 6.55713Z" fill="#DC3E2D"/>
</svg>
