<svg width="45" height="43" viewBox="0 0 45 43" fill="none" xmlns="http://www.w3.org/2000/svg">
<path d="M4 21.8814C4 21.1898 4 20.4878 4 19.7963C4.02065 19.693 4.05163 19.6001 4.06196 19.4969C4.25813 16.7099 5.05312 14.088 6.52955 11.7139C9.87476 6.33599 14.7377 3.41478 21.0564 3.03285C24.2881 2.83673 27.3752 3.518 30.2041 5.09731C36.0582 8.36947 39.2382 13.3861 39.6409 20.075C39.8371 23.2955 39.135 26.3612 37.576 29.1895C34.8089 34.2165 30.5861 37.2925 24.9385 38.3764C24.2571 38.5106 23.5653 38.5622 22.8736 38.6551C22.1818 38.6551 21.4797 38.6551 20.788 38.6551C20.6951 38.6344 20.6125 38.6035 20.5195 38.5931C17.4221 38.3764 14.5725 37.4164 12.0017 35.6823C7.78917 32.8333 5.19767 28.9005 4.27877 23.8942C4.15488 23.2336 4.09292 22.5523 4 21.8814ZM28.7483 16.6067C28.7277 14.4906 28.2115 13.2829 27.21 12.2919C26.1672 11.2597 24.8869 10.7023 23.4518 10.4959C21.0667 10.1552 18.8366 10.5372 16.9575 12.1474C15.7908 13.1487 15.0474 14.408 14.9442 15.977C14.8926 16.7202 15.2436 17.257 15.8425 17.6183C16.8336 18.2273 17.9693 17.7731 18.434 16.617C18.6404 16.1112 18.816 15.5951 19.0534 15.1099C19.3528 14.4906 19.7349 13.9125 20.3956 13.6132C21.3042 13.2003 22.2541 13.159 23.173 13.4893C24.8662 14.088 25.4754 16.008 24.4223 17.3499C24.2364 17.5873 24.0299 17.8144 23.8131 18.0208C22.9665 18.826 22.0786 19.6001 21.2526 20.4259C20.1995 21.4788 19.7555 22.7794 19.8278 24.2555C19.8794 25.2155 20.4679 25.8245 21.3868 25.9071C22.2954 25.9793 22.9045 25.5251 23.142 24.5755C23.1936 24.369 23.2556 24.1729 23.2866 23.9665C23.4208 23.2129 23.7822 22.5833 24.35 22.0568C25.2483 21.2311 26.1465 20.4053 27.0241 19.5692C28.0669 18.5679 28.7587 17.4015 28.7483 16.6067ZM23.7202 29.2515C23.7305 28.0851 22.8632 27.187 21.6966 27.1664C20.4989 27.1457 19.5697 28.0541 19.5593 29.2205C19.5593 30.4076 20.4163 31.2746 21.6243 31.285C22.8323 31.3056 23.7099 30.4489 23.7202 29.2515Z" fill="white"/>
</svg>
