<svg width="45" height="43" viewBox="0 0 45 43" fill="none" xmlns="http://www.w3.org/2000/svg">
<path d="M35.7073 37.4046C26.8414 37.4046 17.9857 37.4046 9.11979 37.4046C7.63195 37.0684 6.98993 35.9986 7.00012 34.45C7.04088 29.2234 7.0205 23.9866 7.0205 18.7498C7.0205 18.6276 7.0205 18.5155 7.0205 18.3423C7.16317 18.4442 7.25489 18.4951 7.33642 18.5664C11.5044 21.6739 15.6622 24.7915 19.8404 27.8887C20.2888 28.2249 20.8187 28.4898 21.3486 28.6528C22.6836 29.0502 23.9065 28.7343 25.0071 27.9091C29.1648 24.8017 33.3227 21.6942 37.4805 18.597C37.5722 18.5257 37.6741 18.4544 37.8167 18.3525C37.8167 18.5359 37.8167 18.6479 37.8167 18.76C37.8167 19.7992 37.8167 20.8486 37.8167 21.8878C37.8167 26.1669 37.8167 30.4562 37.8167 34.7352C37.8167 35.4484 37.6435 36.0903 37.1543 36.6201C36.7671 37.0582 36.2474 37.2619 35.7073 37.4046Z" fill="white"/>
<path d="M11.597 8.08203C18.8018 8.08203 25.9658 8.08203 33.1605 8.08203C33.1706 8.1941 33.1707 8.29599 33.1707 8.39787C33.1707 12.0962 33.1707 15.8048 33.1707 19.5031C33.1707 19.7171 33.1095 19.8495 32.9363 19.9718C29.9708 22.1725 27.0155 24.3833 24.0602 26.584C22.9698 27.399 21.859 27.399 20.7686 26.584C17.7725 24.3527 14.7765 22.1317 11.7906 19.8903C11.6785 19.8088 11.5766 19.6458 11.5766 19.5133C11.5664 15.764 11.5664 12.0045 11.5664 8.24505C11.5766 8.21448 11.5868 8.16354 11.597 8.08203ZM27.2499 20.2978C27.4333 20.2978 27.6371 20.2774 27.8002 20.2061C28.1568 20.0533 28.3403 19.6763 28.2689 19.3299C28.1874 18.9326 27.8511 18.6677 27.4231 18.6677C25.9047 18.6677 24.3863 18.6677 22.8679 18.6677C21.0539 18.6677 19.24 18.6677 17.426 18.6677C16.9878 18.6677 16.6515 18.9326 16.57 19.3197C16.4885 19.6763 16.6617 20.0431 17.0184 20.2061C17.1815 20.2774 17.3853 20.2978 17.5687 20.2978H27.2499ZM19.5763 16.2123C20.2692 16.2123 20.9724 16.2123 21.6654 16.2123C22.2055 16.2123 22.5723 15.8761 22.5825 15.4176C22.5927 14.9591 22.2157 14.6025 21.6858 14.6025C20.2693 14.5924 18.8629 14.5924 17.4464 14.6025C16.9165 14.6025 16.5394 14.9591 16.5496 15.4176C16.5496 15.8761 16.9267 16.2123 17.4566 16.2225C18.17 16.2123 18.8731 16.2123 19.5763 16.2123Z" fill="white"/>
<path d="M34.832 18.5655C34.832 17.2105 34.832 15.9166 34.832 14.5615C35.6982 15.2747 36.5237 15.9675 37.3797 16.6705C36.5339 17.3022 35.6982 17.9237 34.832 18.5655Z" fill="white"/>
<path d="M24.9452 6.42128C23.2434 6.42128 21.5823 6.42128 19.8906 6.42128C21.6638 4.53644 23.1007 4.51607 24.9452 6.42128Z" fill="white"/>
<path d="M9.913 18.5049C9.07736 17.8834 8.28248 17.2925 7.45703 16.6812C8.27229 15.9986 9.07736 15.3364 9.913 14.6436C9.913 15.9375 9.913 17.1906 9.913 18.5049Z" fill="white"/>
</svg>
