<svg width="45" height="43" viewBox="0 0 45 43" fill="none" xmlns="http://www.w3.org/2000/svg">
<path d="M41.2004 23.517C41.0811 23.7855 41.0015 24.0839 40.8423 24.3325C40.4046 25.0188 39.758 25.3768 38.9422 25.3768C37.8479 25.3868 36.7536 25.3768 35.6394 25.3768C35.6394 26.1228 35.6394 26.8388 35.6394 27.6047C37.1118 27.6047 38.5841 27.6047 40.0862 27.6047C40.0465 28.7683 39.5789 29.6634 38.6835 30.3398C37.7683 31.026 36.7138 30.9962 35.6295 30.9664C35.6295 31.7123 35.6295 32.4284 35.6295 33.2042C36.1667 33.2042 36.7238 33.2042 37.2809 33.2042C37.828 33.2042 38.3752 33.2042 38.9522 33.2042C38.9621 34.0396 38.6836 34.7557 38.1663 35.3624C37.5395 36.0984 36.7337 36.5261 35.7688 36.5459C34.2368 36.5758 32.7147 36.5559 31.1827 36.5559C31.1528 36.5559 31.113 36.5459 31.0931 36.536C34.3561 31.4835 34.0079 26.6598 30.168 22.0151C33.8388 22.0151 37.5196 22.0151 41.2004 22.0151C41.2004 22.5224 41.2004 23.0197 41.2004 23.517Z" fill="white"/>
<path d="M31.0551 29.8735C31.0451 34.8166 27.0162 38.8247 22.062 38.8048C17.1277 38.785 13.1385 34.7669 13.1485 29.8337C13.1584 24.8907 17.1874 20.8825 22.1416 20.9024C27.0758 20.9223 31.065 24.9404 31.0551 29.8735ZM18.0031 35.4829C18.1822 35.3934 18.2916 35.3537 18.4011 35.294C19.5451 34.6972 20.6991 34.1104 21.8332 33.5037C22.0321 33.3943 22.1814 33.3943 22.3803 33.5037C22.9772 33.8319 23.584 34.1403 24.1909 34.4486C24.8375 34.7867 25.4841 35.115 26.1706 35.473C26.1606 35.3636 26.1606 35.3039 26.1507 35.2442C25.9318 33.9115 25.7129 32.5788 25.4841 31.246C25.4443 31.0173 25.4841 30.878 25.6433 30.7189C26.5784 29.8138 27.5036 28.8889 28.4387 27.9739C28.5183 27.8943 28.5979 27.8048 28.7073 27.6854C28.5084 27.6556 28.3592 27.6258 28.2099 27.6059C26.9565 27.4169 25.703 27.218 24.4495 27.039C24.2307 27.0091 24.1113 26.9196 24.0118 26.7108C23.4547 25.567 22.8777 24.4232 22.3007 23.2795C22.241 23.1601 22.1714 23.0507 22.0918 22.8916C22.0023 23.0507 21.9327 23.1701 21.8829 23.2894C21.3159 24.4232 20.7389 25.5471 20.1917 26.6909C20.0823 26.9196 19.943 27.0191 19.6943 27.0589C18.9582 27.1583 18.222 27.2677 17.4858 27.3871C16.8392 27.4865 16.1826 27.586 15.6156 27.6755C16.5806 28.68 17.5455 29.7044 18.5304 30.709C18.6995 30.878 18.7493 31.0272 18.7095 31.2659C18.4707 32.6484 18.2518 34.0309 18.0031 35.4829Z" fill="white"/>
<path d="M13.1272 36.5674C13.0178 36.5674 12.9083 36.5674 12.8089 36.5674C11.4062 36.5674 10.0035 36.5873 8.59084 36.5575C6.78028 36.5276 5.28808 34.996 5.32788 33.2157C6.42217 33.2157 7.5264 33.2157 8.65054 33.2157C8.65054 32.4499 8.65054 31.7238 8.65054 31.0077C8.05365 30.9679 7.4667 30.9878 6.89966 30.8884C5.30796 30.6198 4.09429 29.1678 4.14403 27.6162C5.63625 27.6162 7.13842 27.6162 8.65054 27.6162C8.65054 26.8603 8.65054 26.1442 8.65054 25.3685C8.54111 25.3685 8.42173 25.3685 8.30236 25.3685C7.31749 25.3685 6.34257 25.3685 5.3577 25.3685C3.95502 25.3685 3 24.4037 3 22.9914C3 22.6831 3 22.3748 3 22.0366C6.69075 22.0366 10.3616 22.0366 14.0126 22.0366C10.1925 26.6515 9.85426 31.4752 13.1272 36.5674Z" fill="white"/>
<path d="M17.0664 10.8373C18.7675 8.1917 20.4189 5.62569 22.1101 3C23.7913 5.62569 25.4527 8.1917 27.1438 10.8174C26.1888 10.8174 25.2935 10.8174 24.3683 10.8174C24.3683 12.6872 24.3683 14.5272 24.3683 16.387C22.8662 16.387 21.4038 16.387 19.8917 16.387C19.8917 14.557 19.8917 12.7071 19.8917 10.8273C18.9366 10.8373 18.0413 10.8373 17.0664 10.8373Z" fill="white"/>
<path d="M23.2462 31.3756C23.1865 31.3756 23.1765 31.3855 23.1666 31.3756C22.4503 30.8783 21.734 30.739 21.0277 31.4849C21.0078 31.4452 20.9879 31.4153 20.968 31.3756C21.0178 31.0772 21.0476 30.7788 21.1073 30.4904C21.157 30.2616 21.1173 30.0926 20.9382 29.9334C20.7193 29.7444 20.5204 29.5157 20.2617 29.2571C20.59 29.2074 20.8586 29.1377 21.1272 29.1178C21.4057 29.098 21.5848 28.9985 21.6843 28.72C21.7838 28.4614 21.933 28.2227 22.0922 27.8945C22.2613 28.2327 22.4205 28.4913 22.5299 28.7697C22.6294 28.9985 22.7786 29.0781 23.0074 29.1079C23.2959 29.1378 23.5844 29.1875 23.8829 29.2372C23.9027 29.277 23.9226 29.3068 23.9425 29.3466C23.7237 29.5455 23.5048 29.7444 23.276 29.9334C23.077 30.0926 23.0373 30.2815 23.087 30.5202C23.1666 30.7987 23.1964 31.0871 23.2462 31.3756Z" fill="white"/>
</svg>
