<svg width="72" height="18" viewBox="0 0 72 18" fill="none" xmlns="http://www.w3.org/2000/svg">
<path d="M0.313339 15.5198C0.040087 15.4115 -0.0396227 15.2292 0.0173048 14.8589C0.256401 13.3322 0.495507 11.8055 0.740296 10.2788C0.93385 9.0654 1.13308 7.852 1.32664 6.63861C1.50311 5.51066 1.67391 4.37702 1.85038 3.24907C1.98701 2.37748 2.12933 1.50588 2.27734 0.634283C2.32857 0.343752 2.49366 0.132976 2.78969 0.0532227C5.02125 0.0532227 7.2528 0.0532227 9.48436 0.0532227C10.5603 0.12728 11.585 0.360844 12.4104 1.10711C13.0082 1.6483 13.3497 2.32621 13.4181 3.14653C13.4522 3.52821 13.4465 3.90419 13.3725 4.28017C13.3042 4.30296 13.3213 4.47386 13.1903 4.39411C12.974 4.25739 12.7292 4.20612 12.4901 4.12636C12.0746 3.98395 11.6419 3.92128 11.2263 3.91559C9.55268 3.8814 7.8847 3.89849 6.21103 3.90419C5.87515 3.90419 5.59621 4.21181 5.56206 4.54792C5.5279 4.86693 5.47097 5.18595 5.41974 5.51066C5.35712 5.89804 5.27172 6.28541 5.22618 6.67848C5.16925 7.13991 5.08386 7.60135 5.02693 8.06278C4.95862 8.67233 4.81631 9.27049 4.70814 9.87434C4.69676 9.9427 4.68537 10.0167 4.75937 10.068C4.72522 10.1763 4.67398 10.2788 4.6569 10.3927C4.54874 11.0934 4.43489 11.7884 4.32103 12.4891C4.21856 13.1442 4.12749 13.8051 4.01363 14.4602C3.94532 14.8362 3.93393 15.2178 3.80869 15.5824C3.79161 15.5767 3.78022 15.5767 3.76314 15.571C3.70621 15.5141 3.62651 15.5369 3.56389 15.5369C2.48227 15.5141 1.39496 15.5198 0.313339 15.5198Z" fill="#013087"/>
<path d="M53.8142 3.89903C54.4518 3.91612 55.2488 3.85915 56.0458 3.93321C56.7403 3.99587 57.4006 4.15538 57.9756 4.57694C58.5107 4.97571 58.8124 5.51689 58.8694 6.16062C59.0003 7.5791 58.6986 8.89504 57.7422 9.98881C57.0761 10.7522 56.1824 11.0712 55.2089 11.1965C54.5429 11.282 53.8711 11.2307 53.2051 11.2421C52.7724 11.2478 52.5846 11.4244 52.5219 11.863C52.3853 12.7745 52.243 13.6917 52.0893 14.6031C52.0551 14.7968 51.9242 14.9165 51.7136 14.9165C51.0361 14.9222 50.3644 14.9222 49.6869 14.9165C49.4365 14.9165 49.3112 14.7569 49.3454 14.512C49.4592 13.7885 49.5731 13.065 49.6869 12.3415C49.8976 11.0028 50.1025 9.6584 50.3131 8.31967C50.4725 7.31135 50.6376 6.29734 50.797 5.28903C50.8369 5.03837 50.8767 4.78202 50.9109 4.53136C50.9735 4.07563 51.1728 3.89903 51.6282 3.89903C52.3056 3.89903 52.983 3.89903 53.8142 3.89903ZM53.7402 9.03745C53.7402 9.03176 53.7402 9.02606 53.7402 9.02037C53.9451 9.02037 54.1558 9.03176 54.3607 9.01467C54.6453 8.99188 54.9243 8.92922 55.1748 8.7925C55.7554 8.47918 55.892 7.9209 55.9376 7.33414C55.9831 6.67902 55.6871 6.31443 55.0381 6.17771C54.5941 6.08657 54.1444 6.11505 53.7003 6.11505C53.5239 6.11505 53.4157 6.23468 53.3872 6.41128C53.2563 7.2373 53.1311 8.06901 52.9944 8.89504C52.9774 9.00897 53.0058 9.03176 53.1083 9.03176C53.3132 9.03176 53.5239 9.03745 53.7402 9.03745Z" fill="#039CDD"/>
<path d="M25.7086 3.90439C26.3291 3.91578 27.0692 3.8759 27.8092 3.93857C28.5322 4.00123 29.2267 4.17213 29.8074 4.63356C30.3254 5.04942 30.6044 5.6077 30.6499 6.25143C30.741 7.64712 30.4507 8.94027 29.4886 10.017C28.8966 10.6835 28.1166 11.0025 27.257 11.162C26.4999 11.2987 25.7371 11.2417 24.9799 11.2531C24.5416 11.2588 24.3651 11.4012 24.2911 11.8342C24.1545 12.6887 24.0179 13.5489 23.8812 14.4034C23.8243 14.7623 23.6364 14.9218 23.2721 14.9275C22.6801 14.9332 22.0937 14.9332 21.5017 14.9275C21.1943 14.9275 21.069 14.768 21.1146 14.4604C21.496 12.0507 21.8717 9.64666 22.2531 7.23696C22.3954 6.31979 22.5377 5.39692 22.6858 4.47975C22.7541 4.06389 22.9419 3.90439 23.3689 3.90439C24.1146 3.89869 24.8547 3.90439 25.7086 3.90439ZM25.572 9.04281C25.6972 9.03711 25.9192 9.03711 26.1413 9.01433C26.7618 8.95166 27.2912 8.74659 27.5417 8.10856C27.6555 7.82372 27.7068 7.52179 27.7011 7.21417C27.6954 6.65589 27.4278 6.32549 26.887 6.20016C26.4145 6.08623 25.9249 6.10901 25.4467 6.12041C25.2817 6.1261 25.1792 6.23434 25.1507 6.40524C25.0198 7.24835 24.8832 8.08576 24.7465 8.92887C24.7295 9.04281 24.7807 9.04281 24.8604 9.04281C25.071 9.04281 25.276 9.04281 25.572 9.04281Z" fill="#023188"/>
<path d="M3.81379 15.5654C3.93903 15.2008 3.95041 14.8192 4.01872 14.4432C4.13258 13.7881 4.22367 13.1273 4.32614 12.4721C4.4343 11.7714 4.55385 11.0764 4.66201 10.3757C4.67909 10.2618 4.73032 10.1593 4.76448 10.051C4.98081 9.78898 5.25975 9.70353 5.58993 9.69783C6.52354 9.68644 7.46285 9.7605 8.39646 9.61808C9.25037 9.48706 10.0587 9.2478 10.7931 8.79206C11.9772 8.05719 12.666 6.96342 13.0759 5.66457C13.2011 5.2658 13.2638 4.84994 13.3776 4.45117C14.2543 4.92969 14.7154 5.68166 14.7894 6.66149C14.8976 8.10276 14.5674 9.44149 13.7533 10.6435C13.093 11.6176 12.1366 12.1645 11.0037 12.438C10.3092 12.6089 9.59762 12.6373 8.88603 12.6259C8.56154 12.6202 8.2883 12.7228 8.15167 13.0304C8.08905 13.1785 8.06628 13.3437 8.03781 13.5032C7.86134 14.6255 7.69055 15.7477 7.50839 16.87C7.44577 17.246 7.16681 17.4909 6.76263 17.4795C5.85748 17.4624 4.95803 17.4738 4.05289 17.4738C3.71132 17.4738 3.55192 17.3143 3.59747 16.9668C3.66009 16.5054 3.73979 16.0383 3.81379 15.5654Z" fill="#029BDD"/>
<path d="M64.9728 8.3707C65.007 8.15422 65.024 8.00611 65.0582 7.86369C65.098 7.6757 65.2176 7.56746 65.4168 7.56746C66.026 7.56746 66.6408 7.56177 67.2499 7.56746C67.5118 7.56746 67.6484 7.73836 67.6085 8.00041C67.3979 9.32774 67.1873 10.6551 66.9767 11.9824C66.8514 12.7686 66.7319 13.5547 66.618 14.3408C66.5611 14.7339 66.3618 14.9162 65.9633 14.9162C65.451 14.9219 64.9387 14.9162 64.4263 14.9162C64.0904 14.9162 63.9709 14.7681 64.0164 14.432C64.0335 14.3294 64.079 14.2269 64.0392 14.0959C63.9253 14.187 63.8172 14.2782 63.7033 14.3579C62.4908 15.201 61.1985 15.3548 59.855 14.7396C59.0694 14.3807 58.6311 13.6857 58.4318 12.8711C57.9195 10.7747 59.0466 8.54159 61.0334 7.70418C62.0467 7.27693 63.0942 7.27123 64.1303 7.64721C64.4832 7.77824 64.7565 8.0118 64.9728 8.3707ZM64.6597 10.9456C64.6597 9.97716 63.9652 9.36192 62.9576 9.42459C61.8759 9.48725 61.153 10.1595 60.9366 11.2247C60.7659 12.0792 61.1985 12.9451 62.2403 13.0648C63.5211 13.2186 64.6597 12.2445 64.6597 10.9456Z" fill="#039CDD"/>
<path d="M36.7402 8.35898C36.7744 8.1596 36.7914 8.02857 36.8142 7.89755C36.8541 7.67538 36.9565 7.57284 37.1899 7.57284C37.7934 7.56714 38.3968 7.56714 39.0059 7.57284C39.302 7.57284 39.4215 7.74374 39.3703 8.06275C39.2849 8.58685 39.2052 9.11664 39.1198 9.64074C38.8693 11.2358 38.6131 12.8252 38.3626 14.4203C38.3114 14.7564 38.1179 14.9216 37.7877 14.9273C37.2412 14.933 36.6947 14.933 36.1425 14.9273C35.8692 14.9273 35.744 14.7735 35.7781 14.5C35.7952 14.369 35.818 14.2323 35.8408 14.0557C35.448 14.426 35.0381 14.6994 34.5656 14.8646C33.4612 15.2406 32.3625 15.252 31.3492 14.5969C30.5977 14.1126 30.2391 13.355 30.1138 12.4891C29.8577 10.7231 30.7514 8.8546 32.2828 7.97161C33.4327 7.31079 34.6453 7.22534 35.8977 7.65829C36.2506 7.77222 36.5068 8.01148 36.7402 8.35898ZM34.2639 13.0815C35.4024 13.0815 36.3019 12.2669 36.4214 11.1333C36.5125 10.2845 36.0115 9.58947 35.2032 9.45275C34.0475 9.25337 33.0001 9.95406 32.7325 11.0934C32.465 12.2441 33.1082 13.0815 34.2639 13.0815Z" fill="#023187"/>
<path d="M44.1802 11.6407C44.4933 11.185 44.8007 10.7292 45.1138 10.2735C45.6546 9.48164 46.1954 8.68979 46.7249 7.89226C46.8672 7.67578 47.0551 7.57324 47.3112 7.57324C47.8919 7.57894 48.4782 7.57894 49.0589 7.57324C49.2183 7.57324 49.3606 7.61311 49.4346 7.76123C49.5086 7.90934 49.4574 8.04607 49.3663 8.17709C47.2828 11.1849 45.1992 14.1928 43.1157 17.2064C42.9847 17.3944 42.8197 17.4912 42.5806 17.4912C41.9828 17.4798 41.3851 17.4855 40.7873 17.4912C40.6336 17.4912 40.5027 17.4684 40.423 17.326C40.3433 17.1779 40.3831 17.0412 40.4799 16.9101C41.0777 16.0727 41.6697 15.2239 42.2731 14.3922C42.3813 14.2441 42.3984 14.1244 42.3358 13.9479C41.6754 12.0281 41.0207 10.1083 40.3718 8.18848C40.2181 7.73844 40.3376 7.57894 40.8101 7.57894C41.3281 7.57894 41.8462 7.57894 42.3699 7.57894C42.8139 7.57894 42.9563 7.69287 43.0872 8.12012C43.4288 9.25377 43.7703 10.3931 44.1062 11.5268C44.1233 11.5552 44.1233 11.6008 44.1802 11.6407Z" fill="#023187"/>
<path d="M13.3797 4.45709C13.2716 4.86156 13.2032 5.27172 13.078 5.67049C12.6681 6.97504 11.9736 8.06311 10.7952 8.79798C10.0608 9.25372 9.25248 9.49868 8.39857 9.624C7.46496 9.76642 6.52565 9.69236 5.59204 9.70376C5.25616 9.70945 4.97722 9.78921 4.76659 10.057C4.69258 10.0057 4.70396 9.93162 4.71534 9.86326C4.82351 9.25941 4.96014 8.66126 5.03414 8.05171C5.09107 7.59028 5.17646 7.12885 5.23339 6.66741C5.27893 6.27434 5.36432 5.88697 5.42694 5.49959C5.47817 5.18057 5.5351 4.86156 5.56926 4.53685C5.60341 4.20074 5.88237 3.89312 6.21824 3.89312C7.89191 3.88742 9.55988 3.87033 11.2335 3.90451C11.6491 3.91591 12.0875 3.97857 12.4974 4.11529C12.7364 4.19505 12.9812 4.24632 13.1975 4.38304C13.3285 4.46849 13.3114 4.29189 13.3797 4.2691C13.3797 4.33746 13.3797 4.39443 13.3797 4.45709Z" fill="#012269"/>
<path d="M70.7536 3.89893C71.0098 3.89893 71.266 3.89893 71.5222 3.89893C71.915 3.89893 72.0459 4.04134 71.9833 4.42302C71.8922 5.02687 71.7897 5.63072 71.693 6.23457C71.4937 7.49924 71.2945 8.75821 71.0952 10.0229C70.8675 11.4584 70.6398 12.8997 70.4121 14.3353C70.3438 14.7796 70.173 14.9163 69.7289 14.922C69.2508 14.922 68.7783 14.922 68.3001 14.922C67.9699 14.922 67.8503 14.8024 67.8902 14.4834C67.9756 13.8454 68.0837 13.2073 68.1805 12.5693C68.3798 11.2989 68.579 10.0286 68.7783 8.75821C69.006 7.29985 69.2337 5.8415 69.4671 4.37745C69.5354 3.95589 69.6037 3.89893 70.0364 3.89893C70.1559 3.89893 70.2755 3.89893 70.4007 3.89893C70.5259 3.89893 70.6398 3.89893 70.7536 3.89893Z" fill="#039CDD"/>
<path d="M9.48373 0.0477524C7.25217 0.0477524 5.02062 0.0477524 2.78906 0.0477524C2.85168 -0.0263047 2.93707 0.00787479 3.01107 0.00787479C5.032 0.00787479 7.05292 0.00787479 9.06816 0.00787479C9.20479 0.00787479 9.3528 -0.0149113 9.48373 0.0477524Z" fill="#1A315C"/>
<path d="M0.3125 15.5201C1.39412 15.5201 2.48143 15.5201 3.56305 15.5201C3.63137 15.5201 3.70537 15.4973 3.7623 15.5543C2.65791 15.5543 1.54782 15.56 0.443422 15.56C0.39788 15.56 0.346657 15.5714 0.3125 15.5201Z" fill="#1C355A"/>
</svg>
