<svg width="45" height="43" viewBox="0 0 45 43" fill="none" xmlns="http://www.w3.org/2000/svg">
<path d="M22.8165 3.05545C26.7388 3.48583 30.4361 6.36152 31.2773 10.411C31.3066 10.5479 31.3262 10.675 31.3556 10.812C32.0207 14.656 30.1329 18.5783 26.6508 20.4465C23.2567 22.2658 19.8821 22.08 16.7228 19.8792C14.1797 18.1088 12.8494 15.5852 12.7907 12.4944C12.732 9.06114 14.2188 6.36152 17.0554 4.43461C18.816 3.2413 20.8505 2.84027 22.8165 3.05545Z" fill="white"/>
<path d="M22.6498 38.9718C17.9939 38.9327 14.2771 37.7394 10.9906 35.2941C9.05387 33.8562 7.43997 32.0956 6.17819 30.022C5.99234 29.709 5.93365 29.396 6.09015 29.0536C7.72362 25.64 10.3646 23.449 14.0423 22.5295C14.326 22.4611 14.6194 22.4219 14.9031 22.3535C15.4704 22.2361 15.9594 22.4024 16.4192 22.7349C18.2678 24.0358 20.3317 24.6227 22.5813 24.5249C24.3126 24.4564 25.9852 24.0358 27.3742 23.0088C28.411 22.2459 29.4087 22.2948 30.5237 22.598C33.6635 23.4685 36.0208 25.3465 37.6934 28.1146C38.4172 29.3177 38.4465 29.3373 37.6738 30.511C35.7958 33.328 33.3701 35.5581 30.3183 37.0449C27.56 38.3849 24.8897 38.9718 22.6498 38.9718Z" fill="white"/>
</svg>
