<svg width="45" height="43" viewBox="0 0 45 43" fill="none" xmlns="http://www.w3.org/2000/svg">
<path d="M37.9901 14.6424C37.7149 15.4566 37.3848 16.2433 36.8455 16.9254C36.642 17.184 36.4219 17.4315 36.2018 17.6901C35.745 17.4315 35.3214 17.184 34.9637 16.9804C34.3859 17.2885 33.8522 17.5691 33.3294 17.8661C33.2579 17.9101 33.1919 18.0312 33.1864 18.1192C33.1699 18.4823 33.1919 18.8453 33.1699 19.2084C33.1644 19.2964 33.0763 19.4395 32.9993 19.456C31.8658 19.742 30.7268 19.7365 29.5822 19.412C29.5822 18.9114 29.5822 18.4217 29.5822 18.0092C29.01 17.6571 28.4927 17.327 27.97 17.0189C27.904 16.9804 27.7829 16.9969 27.7114 17.0354C27.3317 17.239 26.963 17.459 26.5724 17.6846C25.7195 16.8429 25.1472 15.8527 24.8226 14.7194C24.8061 14.6534 24.8831 14.5159 24.9546 14.4719C25.2628 14.2793 25.5874 14.1143 25.8901 13.9163C25.9726 13.8612 26.0386 13.7182 26.0386 13.6192C26.0551 13.0966 26.0551 12.574 26.0386 12.0513C26.0331 11.9468 25.9726 11.8038 25.8901 11.7488C25.5874 11.5507 25.2628 11.3912 24.9546 11.1931C24.8831 11.1436 24.8116 10.9951 24.8281 10.9236C25.1472 9.79584 25.725 8.82212 26.5669 7.98594C26.941 8.20049 27.3097 8.40403 27.6729 8.62408C27.8104 8.7121 27.8985 8.7011 28.0415 8.60758C28.4707 8.33252 28.9164 8.07396 29.3731 7.83741C29.5217 7.76039 29.5822 7.69437 29.5822 7.52934C29.5712 7.11675 29.5767 6.70416 29.5767 6.25856C30.7763 5.91198 31.9703 5.91748 33.1809 6.25306C33.1809 6.69315 33.1699 7.11675 33.1864 7.54034C33.1919 7.63386 33.2689 7.76039 33.3515 7.8099C33.8632 8.10697 34.3859 8.38203 34.9582 8.6901C35.3159 8.48655 35.7395 8.239 36.1852 7.98594C36.9721 8.76161 37.5224 9.67481 37.869 10.709C37.902 10.8136 37.9461 10.9126 37.9846 11.0171C37.9846 11.0556 37.9846 11.0996 37.9846 11.1381C37.5829 11.3582 37.1757 11.5727 36.785 11.8038C36.7355 11.8313 36.719 11.9578 36.719 12.0348C36.7135 12.563 36.708 13.0911 36.7245 13.6192C36.73 13.7237 36.796 13.8612 36.8786 13.9163C37.2362 14.1528 37.6159 14.3618 37.9846 14.5819C37.9901 14.6039 37.9901 14.6204 37.9901 14.6424ZM33.8962 12.8215C33.8907 11.4242 32.7572 10.302 31.3706 10.313C29.9839 10.324 28.8559 11.4627 28.8614 12.8435C28.8669 14.2243 30.0224 15.3631 31.3981 15.3521C32.7847 15.3466 33.9072 14.2078 33.8962 12.8215Z" fill="white"/>
<path d="M8.82133 19.5501C9.32756 19.7482 9.82829 19.9297 10.318 20.1277C10.4831 20.1938 10.5711 20.1718 10.6922 20.0287C11.1269 19.5281 11.5836 19.0495 12.0623 18.5324C11.8367 18.0263 11.5946 17.4762 11.347 16.9095C12.7226 15.8753 14.2358 15.1932 15.9416 14.8466C16.1617 15.3417 16.3873 15.8203 16.5909 16.3099C16.6624 16.4749 16.7449 16.5245 16.9265 16.5134C17.4878 16.4804 18.0545 16.4529 18.6158 16.4639C18.8524 16.4694 18.9735 16.4199 19.056 16.1834C19.2156 15.7048 19.4082 15.2427 19.6007 14.7476C21.3065 14.9841 22.8527 15.5837 24.2999 16.552C24.1128 17.0471 23.9367 17.5477 23.7276 18.0373C23.6451 18.2353 23.6946 18.3289 23.8432 18.4609C24.2724 18.8405 24.6906 19.2366 25.0922 19.6436C25.2298 19.7812 25.3289 19.8142 25.5049 19.7317C25.9782 19.5061 26.4569 19.3026 26.9301 19.088C27.739 19.8747 28.911 22.4933 28.977 23.687C28.4873 23.9071 27.9921 24.1216 27.5023 24.3527C27.4253 24.3912 27.3373 24.5067 27.3373 24.5837C27.3538 25.2769 27.3923 25.97 27.4253 26.6907C27.893 26.8667 28.3882 27.0648 28.889 27.2463C29.0485 27.3068 29.1036 27.3839 29.0761 27.5599C28.8174 29.1002 28.2727 30.5306 27.4308 31.8453C27.3263 32.0049 27.2382 32.0269 27.0621 31.9554C26.644 31.7793 26.2148 31.6363 25.7966 31.4603C25.6315 31.3887 25.5379 31.4163 25.4114 31.5538C25.0152 31.9994 24.608 32.434 24.1843 32.8466C24.0413 32.9841 24.0413 33.0776 24.1183 33.2317C24.3164 33.6497 24.5035 34.0733 24.6796 34.5024C24.7071 34.574 24.6851 34.7335 24.63 34.772C23.2984 35.7512 21.8183 36.4114 20.173 36.7359C19.9529 36.2408 19.7273 35.7567 19.5237 35.2671C19.4522 35.0966 19.3696 35.0636 19.1826 35.0746C18.5773 35.1076 17.9775 35.1186 17.3722 35.1131C17.2016 35.1131 17.1466 35.1791 17.0971 35.3166C16.91 35.8227 16.7064 36.3288 16.5083 36.8405C14.8466 36.5984 13.3334 36.0318 11.9523 35.1186C11.8917 35.0801 11.8587 34.926 11.8862 34.8545C12.0458 34.3979 12.2274 33.9523 12.387 33.4957C12.4145 33.4132 12.4035 33.2647 12.3484 33.2151C11.8422 32.7365 11.325 32.2744 10.7857 31.7848C10.274 32.0104 9.71824 32.2579 9.14598 32.511C8.33711 31.4383 7.74284 30.2775 7.36867 29.0122C7.28063 28.7207 7.2256 28.4236 7.13756 28.1375C7.08804 27.9725 7.13206 27.89 7.29714 27.8185C7.73734 27.6369 8.16653 27.4444 8.59022 27.2353C8.66726 27.1968 8.7553 27.0703 8.7553 26.9823C8.7553 26.3496 8.73879 25.7115 8.71128 25.0788C8.70578 24.9908 8.60673 24.8753 8.51869 24.8368C8.01796 24.6277 7.51173 24.4407 7 24.2482C7.25862 22.5318 7.84188 20.9749 8.82133 19.5501ZM18.049 30.8331C20.7838 30.8551 23.0783 28.5996 23.1003 25.8655C23.1279 23.0709 20.8938 20.7769 18.1316 20.7549C15.3198 20.7329 13.0473 22.9499 13.0142 25.75C12.9812 28.5281 15.2428 30.8111 18.049 30.8331Z" fill="white"/>
</svg>
