<svg width="45" height="43" viewBox="0 0 45 43" fill="none" xmlns="http://www.w3.org/2000/svg">
<path d="M5 15.359C5.12388 15.3502 5.23891 15.3413 5.36279 15.3413C16.4323 15.3413 27.5018 15.3413 38.5714 15.3413C38.6952 15.3413 38.8103 15.3413 38.9784 15.3413C38.9607 16.1817 39.12 17.0133 38.7749 17.8006C38.2794 18.9507 37.3768 19.5522 36.138 19.5788C34.7311 19.6053 33.333 19.6053 31.9261 19.5788C30.528 19.5522 29.4928 18.703 29.1477 17.3583C29.13 17.2875 29.1034 17.2168 29.068 17.0929C28.8026 18.3668 28.1035 19.1895 26.8824 19.4991C26.5993 19.5699 26.2896 19.5876 25.9976 19.5876C23.343 19.5965 20.6885 19.5876 18.0339 19.5876C16.3438 19.5876 15.3174 18.7826 14.9192 17.1106C14.8838 17.2168 14.8661 17.2875 14.8396 17.3583C14.4945 18.7118 13.4681 19.5611 12.07 19.5788C10.6631 19.6053 9.265 19.6053 7.85808 19.5788C6.43346 19.5522 5.38933 18.6764 5.06194 17.2964C5.05309 17.2433 5.02655 17.1902 5 17.146C5 16.5533 5 15.9517 5 15.359Z" fill="white"/>
<path d="M25.378 4.00886C25.6523 5.41544 25.9267 6.82203 26.2098 8.22862C26.5637 10.0244 26.9265 11.8203 27.2893 13.6161C27.307 13.6957 27.307 13.7842 27.307 13.8904C23.7588 13.8904 20.2282 13.8904 16.6445 13.8904C16.7773 13.2092 16.9011 12.5545 17.0339 11.891C17.5559 9.30788 18.0691 6.71587 18.5912 4.1327C18.6001 4.08846 18.6001 4.04423 18.6001 4C20.8653 4.00885 23.1217 4.00886 25.378 4.00886Z" fill="white"/>
<path d="M15.7515 4.00879C15.5126 5.18537 15.2648 6.36195 15.0259 7.54738C14.6189 9.57322 14.2207 11.5991 13.8136 13.6249C13.7959 13.7134 13.7694 13.793 13.7429 13.8991C10.9644 13.8991 8.17712 13.8991 5.36328 13.8991C5.5491 13.2534 5.72607 12.6252 5.90304 12.006C6.53129 9.79437 7.17723 7.59161 7.78778 5.37999C7.9736 4.70766 8.30985 4.22109 8.99118 4.01762C11.2387 4.00878 13.4951 4.00879 15.7515 4.00879Z" fill="white"/>
<path d="M34.9957 4.00879C35.677 4.21226 36.0133 4.6988 36.1991 5.37114C36.9601 8.10469 37.7476 10.8294 38.5263 13.5541C38.5528 13.6603 38.5794 13.7664 38.6147 13.8903C35.8098 13.8903 33.0402 13.8903 30.2263 13.8903C30.0671 13.1118 29.9078 12.3245 29.7485 11.5371C29.253 9.06896 28.7663 6.6008 28.2708 4.13263C28.262 4.0884 28.2443 4.05302 28.2266 4.00879C30.4829 4.00879 32.7393 4.00879 34.9957 4.00879Z" fill="white"/>
<path d="M10.6624 37.9716C9.63597 37.9716 8.65378 37.9981 7.67159 37.9628C7.00795 37.9362 6.51243 37.3877 6.42395 36.7065C6.40625 36.5827 6.40625 36.4677 6.40625 36.3439C6.40625 31.2925 6.40625 26.2412 6.40625 21.1899C6.40625 21.066 6.40625 20.951 6.40625 20.8006C6.50358 20.8095 6.58322 20.8183 6.65401 20.8271C7.08759 20.8891 7.52117 20.9864 7.96359 20.9952C9.08736 21.0218 10.22 20.9775 11.3437 21.0129C12.6533 21.0572 13.8744 20.8448 14.9008 19.9248C15.476 20.4025 16.0954 20.7652 16.8121 20.8979C17.1661 20.9598 17.5377 21.0041 17.9005 21.0041C20.502 21.0129 23.0946 20.9864 25.6961 21.0218C26.9437 21.0395 28.0852 20.7918 29.0585 19.9337C29.6248 20.4025 30.2442 20.7652 30.9698 20.8979C31.306 20.9598 31.6511 21.0041 31.9874 21.0041C33.3501 21.0129 34.7039 21.0218 36.0666 21.0041C36.5532 20.9952 37.0487 20.8979 37.5708 20.836C37.5708 20.9422 37.5708 21.066 37.5708 21.181C37.5708 26.2323 37.5708 31.2837 37.5708 36.335C37.5708 37.4408 37.0222 37.9893 35.925 37.9893C30.9521 37.9893 25.9704 37.9893 20.9975 37.9893C20.8736 37.9893 20.7586 37.9893 20.5816 37.9893C20.5816 37.83 20.5816 37.6974 20.5816 37.5558C20.5816 33.5395 20.5816 29.5321 20.5816 25.5158C20.5816 25.2858 20.5728 25.0469 20.5108 24.8258C20.3427 24.233 19.8206 23.8438 19.1658 23.8438C16.8121 23.8349 14.4584 23.8349 12.0959 23.8438C11.2906 23.8438 10.7243 24.4011 10.6624 25.2061C10.6535 25.33 10.6535 25.445 10.6535 25.5689C10.6535 29.5498 10.6535 33.5307 10.6535 37.5116C10.6624 37.6443 10.6624 37.7858 10.6624 37.9716ZM28.3595 30.8944C29.5009 30.8944 30.6336 30.8944 31.775 30.8944C32.7484 30.8944 33.3147 30.3194 33.3235 29.3463C33.3324 28.0193 33.3324 26.6924 33.3235 25.3654C33.3235 24.3923 32.7395 23.8261 31.7662 23.8261C29.5009 23.8261 27.2357 23.8261 24.9705 23.8261C23.9794 23.8261 23.4131 24.3923 23.4043 25.3919C23.4043 26.6924 23.4043 28.0016 23.4043 29.3021C23.4043 30.3194 23.9618 30.8856 24.9793 30.8856C26.1031 30.9033 27.2357 30.8944 28.3595 30.8944Z" fill="white"/>
</svg>
