<svg width="45" height="43" viewBox="0 0 45 43" fill="none" xmlns="http://www.w3.org/2000/svg">
<path d="M34.9956 38.4017C26.6584 38.4017 18.3313 38.4017 9.99418 38.4017C9.97402 38.3916 9.96394 38.3715 9.94377 38.3614C8.19972 38.0892 6.98998 36.527 7.00006 34.6423C7.04039 26.8211 7.02022 19.01 7.02022 11.1888C7.02022 10.8763 7.02022 10.5538 7.0807 10.2514C7.39322 8.58843 8.80459 7.43944 10.5587 7.42937C12.7665 7.41929 14.9743 7.41928 17.1821 7.43944C17.5551 7.43944 17.7164 7.33865 17.8777 6.99597C18.6439 5.34304 19.9544 4.34523 21.7489 4.06302C24.0676 3.70019 26.2552 4.92981 27.2028 7.08668C27.3238 7.35881 27.4549 7.43944 27.7472 7.43944C29.9752 7.42936 32.2031 7.42937 34.4311 7.42937C35.2476 7.42937 36.0037 7.64102 36.6489 8.15504C37.6066 8.91095 38.0099 9.90876 37.9998 11.1182C37.9897 18.9797 37.9897 26.8412 37.9897 34.7028C37.9897 34.8943 37.9897 35.0857 37.9696 35.2772C37.8889 36.1743 37.4857 36.9201 36.8304 37.5248C36.2961 37.9985 35.661 38.2304 34.9956 38.4017ZM19.027 31.4473C23.6038 26.8715 28.1807 22.2957 32.7374 17.74C31.9612 16.964 31.1647 16.1677 30.3582 15.3513C26.608 19.1007 22.8377 22.8601 19.0572 26.6397C17.5652 25.148 16.1034 23.6765 14.6719 22.2554C13.8452 23.0718 13.0286 23.868 12.2322 24.6541C14.4904 26.9118 16.7688 29.1896 19.027 31.4473ZM22.4848 10.8663C23.4324 10.8763 24.1986 10.1305 24.2087 9.173C24.2289 8.22559 23.4324 7.42937 22.4848 7.42937C21.5473 7.43944 20.7811 8.21551 20.771 9.15285C20.771 10.1003 21.5372 10.8562 22.4848 10.8663Z" fill="white"/>
</svg>
