<svg width="45" height="43" viewBox="0 0 45 43" fill="none" xmlns="http://www.w3.org/2000/svg">
<path d="M28.9102 8.50935C34.1942 9.15778 38.0285 13.6682 37.9998 18.8079C37.9712 23.8809 34.1847 28.3436 28.8911 29.0016C28.8911 29.1256 28.8911 29.2495 28.8911 29.3735C28.8911 30.7466 28.8911 32.1102 28.8911 33.4834C28.8816 35.5813 27.4032 37.0593 25.3048 37.0593C20.0589 37.0593 14.8131 37.0593 9.5672 37.0593C7.48792 37.0593 6 35.5717 6 33.5025C6 25.1968 6 16.8912 6 8.5761C6 6.50685 7.48792 5.01927 9.5672 5.01927C14.7272 5.01927 19.8873 5.05742 25.0568 5.0002C27.117 4.98113 28.8243 6.29707 28.9102 8.50935ZM26.5829 8.50935C26.602 7.7751 26.1156 7.30784 25.3239 7.30784C20.0876 7.30784 14.8608 7.30784 9.62442 7.30784C8.71832 7.30784 8.28911 7.73695 8.28911 8.64284C8.28911 15.6993 8.28911 22.7557 8.28911 29.8121C8.28911 29.9361 8.28911 30.0601 8.28911 30.1745C14.422 30.1745 20.4977 30.1745 26.5829 30.1745C26.5829 29.7645 26.5829 29.383 26.5829 28.9921C21.2321 28.315 17.4837 23.7856 17.4932 18.7316C17.5028 13.7445 21.2035 9.20546 26.5829 8.50935ZM31.1897 16.4526C31.0848 15.0032 30.4363 13.9638 29.1391 13.344C28.9483 13.2581 28.872 13.1628 28.8816 12.953C28.9006 12.6002 28.8816 12.2473 28.8816 11.9041C28.0899 11.9041 27.3555 11.9041 26.5924 11.9041C26.5924 12.2569 26.5734 12.5906 26.602 12.9149C26.6211 13.1532 26.5352 13.2581 26.3158 13.363C23.9695 14.4596 23.6452 17.6446 25.715 19.2084C26.3349 19.6757 27.0407 19.8759 27.8133 19.9045C28.4142 19.9236 28.8625 20.4099 28.8816 20.9916C28.9006 21.5542 28.5 22.0596 27.9373 22.1645C27.3746 22.2694 26.8214 21.9166 26.6497 21.3349C26.6211 21.2395 26.602 21.1346 26.5734 21.0488C25.8103 21.0488 25.0759 21.0488 24.3415 21.0488C24.227 22.298 25.0187 23.4328 26.6115 24.291C26.6115 24.7105 26.6115 25.1492 26.6115 25.5783C27.3841 25.5783 28.1281 25.5783 28.8911 25.5783C28.8911 25.1301 28.8911 24.701 28.8911 24.2719C29.0342 24.2051 29.1582 24.1384 29.2917 24.0812C31.619 22.8797 31.8002 19.6184 29.616 18.169C29.0342 17.7876 28.3856 17.616 27.6988 17.5874C27.098 17.5683 26.6401 17.0915 26.6115 16.5098C26.5829 15.9281 27.0026 15.4132 27.5749 15.3178C28.1471 15.2225 28.6813 15.5848 28.853 16.1665C28.8816 16.2523 28.9006 16.3477 28.9197 16.4431C29.6637 16.4526 30.4076 16.4526 31.1897 16.4526Z" fill="white"/>
<path d="M18.2276 13.3437C17.0831 12.1994 15.9576 11.0551 14.8035 9.92987C14.3647 9.50076 13.7066 9.46261 13.2774 9.87265C12.1042 11.0169 10.9597 12.1994 9.81513 13.3437C10.3397 13.8681 10.8739 14.4021 11.4557 14.9838C11.8944 14.5261 12.3522 14.0588 12.8673 13.5344C12.8673 16.8337 12.8673 20.0663 12.8673 23.3085C13.6494 23.3085 14.3838 23.3085 15.1659 23.3085C15.1659 20.0568 15.1659 16.8242 15.1659 13.5916C15.1946 13.582 15.2136 13.563 15.2422 13.5534C15.7096 14.0207 16.1674 14.488 16.6157 14.9457C17.1594 14.4117 17.684 13.8872 18.2276 13.3437ZM12.8864 27.8856C13.6589 27.8856 14.4029 27.8856 15.1278 27.8856C15.1278 26.7414 15.1278 25.6161 15.1278 24.5005C14.3647 24.5005 13.6303 24.5005 12.8864 24.5005C12.8864 25.6352 12.8864 26.7414 12.8864 27.8856Z" fill="white"/>
<path d="M18.2276 13.3437C17.684 13.8872 17.1599 14.4117 16.6258 14.9457C16.1775 14.488 15.7197 14.0207 15.2523 13.5534C15.2237 13.563 15.2046 13.582 15.176 13.5916C15.176 16.8242 15.176 20.0568 15.176 23.3085C14.3939 23.3085 13.6499 23.3085 12.8774 23.3085C12.8774 20.0663 12.8774 16.8337 12.8774 13.5344C12.3719 14.0588 11.914 14.5356 11.4658 14.9838C10.8839 14.4021 10.3594 13.8681 9.82523 13.3437C10.9602 12.1994 12.1143 11.0169 13.2875 9.87265C13.7072 9.46261 14.3748 9.50076 14.8136 9.92987C15.9581 11.0551 17.0926 12.1994 18.2276 13.3437Z" fill="white"/>
<path d="M12.8851 27.8864C12.8851 26.7517 12.8851 25.636 12.8851 24.5013C13.6386 24.5013 14.3635 24.5013 15.1265 24.5013C15.1265 25.6169 15.1265 26.7422 15.1265 27.8864C14.4016 27.8864 13.6576 27.8864 12.8851 27.8864Z" fill="white"/>
</svg>
