<svg width="63" height="20" viewBox="0 0 63 20" fill="none" xmlns="http://www.w3.org/2000/svg">
<path d="M26.6211 14V6.92H23.8371V5.6H30.9651V6.92H28.1811V14H26.6211ZM34.2156 14.084C33.5596 14.084 32.9756 13.944 32.4636 13.664C31.9516 13.376 31.5476 12.984 31.2516 12.488C30.9556 11.992 30.8076 11.428 30.8076 10.796C30.8076 10.156 30.9556 9.592 31.2516 9.104C31.5476 8.608 31.9516 8.22 32.4636 7.94C32.9756 7.66 33.5596 7.52 34.2156 7.52C34.8796 7.52 35.4676 7.66 35.9796 7.94C36.4996 8.22 36.9036 8.604 37.1916 9.092C37.4876 9.58 37.6356 10.148 37.6356 10.796C37.6356 11.428 37.4876 11.992 37.1916 12.488C36.9036 12.984 36.4996 13.376 35.9796 13.664C35.4676 13.944 34.8796 14.084 34.2156 14.084ZM34.2156 12.8C34.5836 12.8 34.9116 12.72 35.1996 12.56C35.4876 12.4 35.7116 12.168 35.8716 11.864C36.0396 11.56 36.1236 11.204 36.1236 10.796C36.1236 10.38 36.0396 10.024 35.8716 9.728C35.7116 9.424 35.4876 9.192 35.1996 9.032C34.9116 8.872 34.5876 8.792 34.2276 8.792C33.8596 8.792 33.5316 8.872 33.2436 9.032C32.9636 9.192 32.7396 9.424 32.5716 9.728C32.4036 10.024 32.3196 10.38 32.3196 10.796C32.3196 11.204 32.4036 11.56 32.5716 11.864C32.7396 12.168 32.9636 12.4 33.2436 12.56C33.5316 12.72 33.8556 12.8 34.2156 12.8ZM42.6219 14.084C42.1019 14.084 41.6259 13.964 41.1939 13.724C40.7699 13.484 40.4299 13.124 40.1739 12.644C39.9259 12.156 39.8019 11.54 39.8019 10.796C39.8019 10.044 39.9219 9.428 40.1619 8.948C40.4099 8.468 40.7459 8.112 41.1699 7.88C41.5939 7.64 42.0779 7.52 42.6219 7.52C43.2539 7.52 43.8099 7.656 44.2899 7.928C44.7779 8.2 45.1619 8.58 45.4419 9.068C45.7299 9.556 45.8739 10.132 45.8739 10.796C45.8739 11.46 45.7299 12.04 45.4419 12.536C45.1619 13.024 44.7779 13.404 44.2899 13.676C43.8099 13.948 43.2539 14.084 42.6219 14.084ZM39.0699 16.328V7.592H40.4979V9.104L40.4499 10.808L40.5699 12.512V16.328H39.0699ZM42.4539 12.8C42.8139 12.8 43.1339 12.72 43.4139 12.56C43.7019 12.4 43.9299 12.168 44.0979 11.864C44.2659 11.56 44.3499 11.204 44.3499 10.796C44.3499 10.38 44.2659 10.024 44.0979 9.728C43.9299 9.424 43.7019 9.192 43.4139 9.032C43.1339 8.872 42.8139 8.792 42.4539 8.792C42.0939 8.792 41.7699 8.872 41.4819 9.032C41.1939 9.192 40.9659 9.424 40.7979 9.728C40.6299 10.024 40.5459 10.38 40.5459 10.796C40.5459 11.204 40.6299 11.56 40.7979 11.864C40.9659 12.168 41.1939 12.4 41.4819 12.56C41.7699 12.72 42.0939 12.8 42.4539 12.8ZM50.0085 14.084C49.4645 14.084 48.9845 13.984 48.5685 13.784C48.1525 13.576 47.8285 13.264 47.5965 12.848C47.3645 12.424 47.2485 11.892 47.2485 11.252V7.592H48.7485V11.048C48.7485 11.624 48.8765 12.056 49.1325 12.344C49.3965 12.624 49.7685 12.764 50.2485 12.764C50.6005 12.764 50.9045 12.692 51.1605 12.548C51.4245 12.404 51.6285 12.188 51.7725 11.9C51.9245 11.612 52.0005 11.256 52.0005 10.832V7.592H53.5005V14H52.0725V12.272L52.3245 12.8C52.1085 13.216 51.7925 13.536 51.3765 13.76C50.9605 13.976 50.5045 14.084 50.0085 14.084ZM59.0165 14.084C58.4965 14.084 58.0205 13.964 57.5885 13.724C57.1645 13.484 56.8245 13.124 56.5685 12.644C56.3205 12.156 56.1965 11.54 56.1965 10.796C56.1965 10.044 56.3165 9.428 56.5565 8.948C56.8045 8.468 57.1405 8.112 57.5645 7.88C57.9885 7.64 58.4725 7.52 59.0165 7.52C59.6485 7.52 60.2045 7.656 60.6845 7.928C61.1725 8.2 61.5565 8.58 61.8365 9.068C62.1245 9.556 62.2685 10.132 62.2685 10.796C62.2685 11.46 62.1245 12.04 61.8365 12.536C61.5565 13.024 61.1725 13.404 60.6845 13.676C60.2045 13.948 59.6485 14.084 59.0165 14.084ZM55.4645 16.328V7.592H56.8925V9.104L56.8445 10.808L56.9645 12.512V16.328H55.4645ZM58.8485 12.8C59.2085 12.8 59.5285 12.72 59.8085 12.56C60.0965 12.4 60.3245 12.168 60.4925 11.864C60.6605 11.56 60.7445 11.204 60.7445 10.796C60.7445 10.38 60.6605 10.024 60.4925 9.728C60.3245 9.424 60.0965 9.192 59.8085 9.032C59.5285 8.872 59.2085 8.792 58.8485 8.792C58.4885 8.792 58.1645 8.872 57.8765 9.032C57.5885 9.192 57.3605 9.424 57.1925 9.728C57.0245 10.024 56.9405 10.38 56.9405 10.796C56.9405 11.204 57.0245 11.56 57.1925 11.864C57.3605 12.168 57.5885 12.4 57.8765 12.56C58.1645 12.72 58.4885 12.8 58.8485 12.8Z" fill="white"/>
<path d="M8.80849 11.545C8.90947 11.4104 9.05855 11.5162 9.17876 11.4777C9.30379 11.8239 9.53461 12.0931 9.79428 12.3431C9.6933 12.3767 9.58751 12.3863 9.47691 12.3863C8.95756 12.3815 8.43341 12.3863 7.91406 12.3863C7.91406 12.0979 7.91406 11.8046 7.91406 11.5162C7.92849 11.5066 7.93811 11.4969 7.95253 11.4873C8.1545 11.6989 8.34685 11.9104 8.55363 12.1123C8.73636 12.2854 8.9768 12.2133 9.04412 11.9825C9.07297 11.8815 9.02969 11.8094 8.97199 11.7373C8.91909 11.6748 8.86139 11.6123 8.80849 11.545Z" fill="#17A3FE"/>
<path d="M3.1235 13.6881C3.18602 14.164 3.68132 14.515 4.06121 14.515C5.10471 14.5198 6.14821 14.515 7.19171 14.5198C7.2975 14.5198 7.32635 14.4813 7.32155 14.3852C7.31193 14.1496 7.31674 13.9188 7.31193 13.6833C7.31674 13.6448 7.32154 13.6112 7.32635 13.5727C7.32154 13.2602 7.31674 12.9477 7.31674 12.6353C5.91258 12.6353 4.50843 12.6353 3.10427 12.6353C3.09946 12.8516 3.09465 13.0679 3.08984 13.2843C3.1187 13.4189 3.07061 13.5583 3.1235 13.6881Z" fill="#17A3FE"/>
<path d="M14.2641 9.54395C14.0814 9.38049 13.865 9.32281 13.6198 9.32281C12.8407 9.32761 12.0617 9.33723 11.2827 9.32281C10.5806 9.30838 10.0565 9.58241 9.73429 10.2218C9.71986 10.3324 9.65254 10.4285 9.66216 10.5487C9.5756 10.9189 9.66216 11.2554 9.87374 11.5631C10.119 11.9429 10.4652 12.188 10.9172 12.2025C11.879 12.2265 12.8359 12.2169 13.7977 12.2121C14.168 12.2073 14.4324 11.9092 14.4228 11.5246C14.4228 11.1977 14.4228 10.8756 14.4228 10.5487C14.418 10.2026 14.5142 9.84682 14.2641 9.54395ZM11.6578 10.5583C11.7443 10.6737 11.778 10.7939 11.7011 10.9237C11.6386 11.0246 11.5424 11.0631 11.427 11.0535C11.2106 11.0343 11.124 10.842 11.2202 10.592C11.3596 10.467 11.5039 10.4429 11.6578 10.5583Z" fill="#17A3FE"/>
<path d="M13.4919 12.7846C12.7129 12.7894 11.9339 12.7894 11.1549 12.7846C11.0154 12.7846 10.8808 12.7798 10.7413 12.7653C10.3807 12.7221 10.0777 12.5394 9.78437 12.3423C9.68339 12.3759 9.57759 12.3856 9.46699 12.3856C8.94765 12.3807 8.42349 12.3856 7.90415 12.3856C7.89934 12.7798 7.89453 13.1788 7.89453 13.573C7.89934 13.6595 7.90415 13.7412 7.90896 13.8278C7.90896 14.0057 7.90896 14.1883 7.89934 14.3662C7.89453 14.4816 7.92819 14.5201 8.04841 14.5201C9.57759 14.5152 11.1116 14.5201 12.6408 14.5152C13.0928 14.5152 13.4054 14.2749 13.5881 13.8662C13.6121 13.8037 13.6362 13.7461 13.6602 13.6836C13.665 13.4432 13.6602 13.2028 13.6747 12.9673C13.6843 12.8134 13.6314 12.7846 13.4919 12.7846Z" fill="#17A3FE"/>
<path d="M9.17292 11.4815C9.07193 11.1258 9.01423 10.77 9.08636 10.4047C9.1104 10.3326 9.13445 10.2604 9.15849 10.1883C9.24986 9.81816 9.46625 9.52491 9.73073 9.2605C10.1972 8.87591 10.7358 8.73649 11.332 8.75091C12.0437 8.76534 12.7602 8.75091 13.4719 8.76053C13.6451 8.76534 13.6883 8.70765 13.6739 8.549C13.6595 8.39036 13.6691 8.2269 13.6643 8.06345C13.6595 8.00576 13.6595 7.94327 13.6499 7.88558C13.5345 7.35195 13.1161 7.02505 12.5439 7.02505C10.2934 7.02505 8.03805 7.02505 5.78755 7.02505C5.60482 7.02505 5.46537 6.98659 5.40766 6.7991C5.42209 6.7366 5.39324 6.6693 5.44613 6.61641C5.51345 6.45296 5.65772 6.44335 5.80679 6.44335C7.71586 6.44335 9.62494 6.44335 11.534 6.44335C11.7552 6.44335 11.76 6.43854 11.6927 6.2222C11.5677 5.80876 11.1782 5.49628 10.7406 5.49628C8.53335 5.49147 6.32133 5.49147 4.1093 5.49628C3.69575 5.49628 3.3976 5.71262 3.20525 6.07798C3.07542 6.31835 3.09465 6.57795 3.10427 6.83275C3.09946 6.95293 3.09465 7.07312 3.08984 7.19331C3.09465 7.49617 3.09946 7.79423 3.10908 8.0971C3.10908 8.47208 3.10908 8.84225 3.10908 9.21723C3.10427 9.57779 3.09946 9.93835 3.09465 10.2989C3.09946 10.3374 3.10427 10.371 3.11389 10.4095C3.11389 10.77 3.11389 11.1306 3.11389 11.4912C3.11389 11.8757 3.11389 12.2603 3.11389 12.6449C4.51804 12.6449 5.9222 12.6449 7.32635 12.6449C7.32635 12.27 7.32635 11.895 7.32635 11.4623C7.08592 11.7075 6.88876 11.919 6.68198 12.1257C6.55695 12.2459 6.38865 12.2459 6.27805 12.1402C6.16745 12.0296 6.15783 11.8421 6.26362 11.7171C6.31652 11.6546 6.37903 11.5969 6.43193 11.5344C6.76373 11.2844 7.03302 10.9671 7.32155 10.6739C7.54275 10.4527 7.67258 10.4383 7.8986 10.6643C8.20155 10.9623 8.5045 11.2604 8.80745 11.5585C8.90843 11.4142 9.0527 11.5152 9.17292 11.4815Z" fill="#17A3FE"/>
<path d="M17.5294 9.67953C17.4717 9.60261 17.4092 9.55934 17.337 9.5305C17.4092 9.55934 17.4765 9.60261 17.5294 9.67953C17.515 9.16033 17.5294 8.64112 17.5053 8.11711C17.4813 7.62675 17.4428 7.1412 17.4572 6.64604C17.4717 6.01626 17.414 5.3913 17.3755 4.76633C17.3563 4.425 17.2889 4.07887 17.1303 3.76158C17.0341 3.43467 16.8562 3.15103 16.6542 2.88182C16.2695 2.38184 15.7982 1.99244 15.2212 1.71361C14.6201 1.42517 13.9805 1.3819 13.3361 1.34825C12.7976 1.3194 12.259 1.30498 11.7252 1.27613C11.1866 1.2521 10.6481 1.2521 10.1095 1.24248C8.87843 1.22325 7.64739 1.22325 6.42116 1.27133C6.17591 1.28094 5.93067 1.29056 5.68542 1.29536C5.02662 1.30979 4.36782 1.35305 3.71383 1.37709C3.14159 1.39632 2.60782 1.55016 2.1029 1.81937C1.61241 2.07898 1.20847 2.43953 0.87186 2.87701C0.665083 3.16065 0.472733 3.4539 0.400602 3.80484C0.328471 3.87215 0.323662 3.96349 0.29481 4.04522C0.164973 4.45385 0.140929 4.8769 0.116886 5.29515C0.0784157 5.98742 0.0639894 6.67969 0.0399457 7.37196C0.0159019 8.45363 -0.0129506 9.53531 0.00628441 10.617C-0.00333309 11.5064 0.0303282 12.3957 0.0784157 13.2851C0.0832244 13.5832 0.0880332 13.8812 0.107268 14.1793C0.131312 14.612 0.131312 15.0494 0.193826 15.4821C0.237104 15.7705 0.285192 16.059 0.439072 16.3138C0.467925 16.4772 0.559291 16.6118 0.64104 16.7513C1.21328 17.7079 2.03077 18.3137 3.12716 18.5492C3.6946 18.6694 4.27165 18.6454 4.84389 18.6839C5.66138 18.7367 6.48367 18.756 7.30597 18.7608C8.88324 18.7752 10.4653 18.78 12.0426 18.6983C12.5042 18.6742 12.9659 18.679 13.4275 18.6502C13.6343 18.6358 13.8459 18.6406 14.0526 18.6117C15.0192 18.4916 15.8415 18.0877 16.4811 17.3426C16.7311 17.0493 16.9571 16.7272 17.0725 16.3474C17.1447 16.3042 17.1591 16.2224 17.188 16.1503C17.4765 15.3715 17.3947 14.5495 17.4669 13.7466C17.5005 12.3957 17.5486 11.04 17.5294 9.67953ZM13.6776 12.963C13.6631 13.2034 13.6679 13.4437 13.6631 13.6793C13.6391 13.7418 13.6151 13.7995 13.591 13.862C13.4083 14.2754 13.0957 14.511 12.6437 14.511C11.1145 14.5206 9.58051 14.511 8.05133 14.5158C7.93111 14.5158 7.89745 14.4773 7.90226 14.362C7.91187 14.1841 7.90706 14.0014 7.91187 13.8235C7.90706 13.737 7.90225 13.6553 7.89745 13.5687C7.90225 13.1745 7.90706 12.7755 7.90706 12.3813C7.90706 12.0929 7.90706 11.7996 7.90706 11.5112C7.92149 11.5015 7.93111 11.4919 7.94553 11.4823C8.1475 11.6938 8.33985 11.9054 8.54663 12.1073C8.72936 12.2804 8.9698 12.2082 9.03712 11.9775C9.06597 11.8765 9.02269 11.8044 8.96499 11.7323C8.91209 11.6698 8.8592 11.6073 8.80149 11.54C8.49854 11.2419 8.19559 10.9439 7.89264 10.6458C7.66663 10.4199 7.53679 10.4343 7.31559 10.6554C7.02225 10.9487 6.75777 11.266 6.42597 11.516C6.36826 11.5785 6.31056 11.6362 6.25766 11.6987C6.15187 11.8236 6.16149 12.0111 6.27209 12.1217C6.38269 12.2275 6.551 12.2275 6.67602 12.1073C6.8828 11.9054 7.08477 11.689 7.3204 11.4439C7.3204 11.8765 7.3204 12.2515 7.3204 12.6265C7.3252 12.939 7.33001 13.2515 7.33001 13.5639C7.3252 13.6024 7.3204 13.636 7.31559 13.6745C7.31559 13.9101 7.31559 14.1408 7.3252 14.3764C7.33001 14.4773 7.30116 14.511 7.19537 14.511C6.15187 14.5062 5.10837 14.511 4.06487 14.5062C3.68498 14.5062 3.18968 14.1552 3.12716 13.6793C3.07427 13.5495 3.12236 13.4101 3.08869 13.2755C3.0935 13.0592 3.09831 12.8428 3.10312 12.6265C3.10312 12.2419 3.10312 11.8573 3.10312 11.4727C3.10312 11.1121 3.10312 10.7516 3.10312 10.391C3.09831 10.3526 3.0935 10.3189 3.08389 10.2805C2.62705 10.2805 2.16541 10.2805 1.70858 10.2805C2.16541 10.2805 2.62705 10.2805 3.08389 10.2805C3.08869 9.9199 3.0935 9.55934 3.09831 9.19879C3.09831 8.82381 3.09831 8.45363 3.09831 8.07865C3.0935 7.77578 3.08869 7.47772 3.07908 7.17486C3.08389 7.05467 3.08869 6.93448 3.0935 6.8143C3.08389 6.5547 3.06465 6.2999 3.19449 6.05953C3.38684 5.69417 3.68498 5.47783 4.09853 5.47783C6.30575 5.47302 8.51778 5.47302 10.7298 5.47783C11.1674 5.47783 11.5569 5.78551 11.6819 6.20375C11.7493 6.42009 11.7444 6.4249 11.5232 6.4249C9.61417 6.4249 7.7051 6.4249 5.79602 6.4249C5.64695 6.4249 5.50269 6.4297 5.43537 6.59796C5.44498 6.60277 5.4546 6.60277 5.46903 6.60758C5.45941 6.60277 5.44979 6.60277 5.43537 6.59796C5.38247 6.65085 5.41132 6.71815 5.3969 6.78065C5.45941 6.96814 5.59886 7.0066 5.77679 7.0066C8.02728 7.00179 10.2826 7.00179 12.5331 7.0066C13.1053 7.0066 13.5285 7.3335 13.6391 7.86713C13.6535 7.92481 13.6487 7.98731 13.6535 8.045C13.6535 8.20845 13.6487 8.3671 13.6631 8.53055C13.6776 8.6892 13.6343 8.74208 13.4612 8.74208C12.7495 8.73246 12.033 8.75169 11.3213 8.73246C10.725 8.71804 10.1864 8.86226 9.71996 9.24205C9.45548 9.50646 9.23909 9.79491 9.14772 10.1699C9.17177 10.1795 9.19581 10.1891 9.22466 10.1939C9.20062 10.1891 9.17657 10.1795 9.14772 10.1699C9.12368 10.242 9.09963 10.3141 9.07559 10.3862C9.00827 10.7516 9.06597 11.1121 9.16215 11.4631C9.28718 11.8092 9.518 12.0784 9.77767 12.3284C10.071 12.5255 10.374 12.7034 10.7346 12.7515C10.8693 12.7659 11.0087 12.7707 11.1482 12.7707C11.9272 12.7707 12.7062 12.7755 13.4852 12.7707C13.6343 12.7851 13.6872 12.814 13.6776 12.963ZM14.4325 10.5449C14.4325 10.8718 14.4325 11.1939 14.4325 11.5208C14.4373 11.9054 14.1777 12.2082 13.8074 12.2082C12.8457 12.213 11.8887 12.2227 10.927 12.1986C10.4749 12.189 10.1287 11.9438 9.88346 11.5592C9.67188 11.2516 9.58532 10.915 9.67188 10.5449C9.65745 10.4295 9.72958 10.3285 9.74401 10.218C10.0614 9.57857 10.5855 9.30936 11.2924 9.31897C12.0714 9.33339 12.8505 9.32378 13.6295 9.31897C13.8747 9.31897 14.0911 9.37185 14.2739 9.54011C14.2979 9.5305 14.3219 9.52569 14.346 9.52088C14.3219 9.52569 14.2979 9.5305 14.2739 9.54011C14.5191 9.84779 14.4229 10.2035 14.4325 10.5449Z" fill="#C8E7FE"/>
<path d="M11.2216 10.5926C11.1206 10.8426 11.2071 11.0397 11.4283 11.0541C11.5438 11.0638 11.6399 11.0253 11.7024 10.9243C11.7842 10.7945 11.7505 10.6744 11.6592 10.559C11.5053 10.4436 11.361 10.4676 11.2216 10.5926Z" fill="#C8E7FE"/>
</svg>
