<svg width="45" height="43" viewBox="0 0 45 43" fill="none" xmlns="http://www.w3.org/2000/svg">
<path d="M14.3727 15.222C15.1359 14.1537 15.8889 13.1058 16.6318 12.0681C18.1073 10.0131 19.5726 7.94781 21.038 5.89274C21.8928 4.70242 23.1241 4.70242 23.9687 5.89274C26.1158 8.89396 28.2528 11.885 30.3999 14.8862C30.4712 14.988 30.5526 15.0897 30.6441 15.2118C30.7764 15.1304 30.8884 15.0592 31.0003 14.988C33.1271 13.5738 35.2539 12.1495 37.3807 10.7354C38.1337 10.2369 38.9681 10.2979 39.538 10.8778C39.9145 11.2542 40.0468 11.7222 39.9857 12.2411C39.8229 13.6959 39.6499 15.1406 39.4769 16.5954C39.1818 19.0778 38.8969 21.5703 38.6018 24.0527C38.2863 26.769 37.9607 29.4752 37.6452 32.1916C37.5435 33.0869 37.4417 33.9821 37.3196 34.8774C37.1873 35.8439 36.5666 36.3831 35.5795 36.3831C31.6007 36.3831 27.6219 36.3831 23.643 36.3831C18.9417 36.3831 14.2302 36.3831 9.52889 36.3831C8.38918 36.3831 7.79898 35.8948 7.65651 34.7655C7.35123 32.2832 7.0663 29.7906 6.77119 27.3082C6.45574 24.5919 6.1301 21.8857 5.81464 19.1693C5.53989 16.8497 5.25497 14.5302 5.01075 12.2004C4.90899 11.2339 5.53989 10.5014 6.47609 10.3997C6.93401 10.3488 7.3207 10.5217 7.68703 10.7659C9.79347 12.1699 11.8897 13.5738 13.9962 14.9778C14.1183 15.0592 14.22 15.1304 14.3727 15.222ZM22.5237 20.1256C20.7327 20.1155 19.2673 21.55 19.247 23.3507C19.2266 25.1209 20.692 26.6164 22.4728 26.6266C24.274 26.647 25.7597 25.1819 25.7698 23.3812C25.7698 21.5907 24.3147 20.1358 22.5237 20.1256Z" fill="white"/>
</svg>
