<svg width="25" height="28" viewBox="0 0 25 28" fill="none" xmlns="http://www.w3.org/2000/svg">
<path d="M18.981 10.2222C18.981 8.57199 18.2982 6.98934 17.0827 5.82245C15.8672 4.65555 14.2186 4 12.4996 4C10.7806 4 9.13198 4.65555 7.91647 5.82245C6.70095 6.98934 6.01808 8.57199 6.01808 10.2222C6.01808 17.4815 2.77734 19.5556 2.77734 19.5556H22.2218C22.2218 19.5556 18.981 17.4815 18.981 10.2222Z" stroke="#B92025" stroke-width="2" stroke-linecap="round" stroke-linejoin="round"/>
<path d="M14.4446 24.2227C14.2469 24.4592 13.9633 24.6556 13.6221 24.7921C13.2808 24.9286 12.8939 25.0004 12.5001 25.0004C12.1063 25.0004 11.7194 24.9286 11.3781 24.7921C11.0369 24.6556 10.7533 24.4592 10.5557 24.2227" stroke="#B92025" stroke-width="2" stroke-linecap="round" stroke-linejoin="round"/>
<path d="M2 10.2222C2 7.94074 2.81667 5.76296 4.33333 4" stroke="#B92025" stroke-width="2" stroke-linecap="round" stroke-linejoin="round"/>
<path d="M23.0003 10.2222C23.0003 7.97838 22.1816 5.79507 20.667 4" stroke="#B92025" stroke-width="2" stroke-linecap="round" stroke-linejoin="round"/>
</svg>
