<svg width="38" height="40" viewBox="0 0 38 40" fill="none" xmlns="http://www.w3.org/2000/svg">
<path d="M28.8612 33.4029C27.7212 33.4029 26.6413 33.4029 25.5613 33.4029C25.2213 33.4029 24.9613 33.6733 25.0213 33.9798C25.2413 35.1876 25.4613 36.4136 25.6813 37.6214C25.7013 37.6755 25.7012 37.7296 25.7012 37.8197C25.3012 37.8738 24.9212 37.9459 24.5012 38C24.3013 36.9183 24.1013 35.8727 23.9013 34.755C23.7613 34.8632 23.6613 34.9353 23.5813 35.0254C22.7413 35.7826 21.9214 36.5398 21.0614 37.2789C20.3214 37.9279 19.3014 38.0721 18.3814 37.6936C17.5014 37.315 16.9414 36.5037 17.0014 35.6203C17.0414 35.0254 17.3215 34.5387 17.7815 34.124C18.6614 33.3488 19.5414 32.5556 20.4614 31.7263C16.7615 31.7263 13.1216 31.7263 9.40166 31.7263C9.02167 33.7815 8.64171 35.8547 8.24172 37.964C7.84173 37.9099 7.44171 37.8558 7.02172 37.8017C7.28171 36.3234 7.56169 34.8812 7.82168 33.4029C6.50172 33.4029 5.22177 33.4029 3.9018 33.4029C3.9018 34.8812 3.9018 36.3595 3.9018 37.8738C3.46181 37.8738 3.06181 37.8738 2.64182 37.8738C2.64182 36.3955 2.64182 34.9172 2.64182 33.4209C2.12184 33.3308 1.98182 33.0243 2.00182 32.5917C2.04182 31.3117 1.94186 29.9957 2.10186 28.7337C2.38185 26.282 3.78184 24.4431 6.12178 23.1811C6.32177 23.073 6.46173 22.9828 6.40174 22.7304C6.34174 22.442 6.56175 22.2256 6.86175 22.1535C7.68173 21.9552 8.5217 21.7569 9.36168 21.5947C9.52168 21.5586 9.74167 21.6127 9.86167 21.7028C10.0417 21.8471 10.1816 21.8471 10.3816 21.775C11.0416 21.5767 11.7016 21.3964 12.3616 21.2342C12.5816 21.1801 12.6216 21.0899 12.6416 20.8916C12.7016 20.2967 12.5216 19.9001 11.9816 19.5034C11.3616 19.0708 10.9216 18.4218 10.4217 17.863C10.2817 17.7007 10.1816 17.6286 9.96164 17.6286C9.62165 17.6286 9.28166 17.6286 8.96167 17.5745C8.02169 17.3942 7.40174 16.8534 7.12175 16.0241C6.84176 15.1768 7.08172 14.4197 7.78171 13.8067C8.0017 13.6084 8.06169 13.4641 7.96169 13.2118C7.48171 11.9138 7.6417 10.6157 7.9017 9.31775C8.0217 8.68677 8.10168 8.05578 8.26167 7.44284C8.94166 4.86486 11.4816 3.02604 14.4216 3.00801C15.7015 2.98998 16.9815 3.00801 18.2415 3.00801C21.5214 3.02604 24.1813 5.11728 24.6413 8.03779C24.7613 8.77693 24.8813 9.51609 25.0213 10.2552C25.2013 11.2648 24.9813 12.2383 24.7813 13.2118C24.7213 13.4641 24.7613 13.6084 24.9813 13.7887C25.7213 14.4016 25.9412 15.3751 25.5812 16.2224C25.2212 17.0697 24.3213 17.6827 23.3213 17.6286C22.7013 17.6106 22.4014 17.8089 22.0614 18.2415C21.6014 18.8184 20.9814 19.3232 20.4214 19.8099C20.2414 19.9722 20.1014 20.0804 20.1214 20.3328C20.1414 20.6032 20.1214 20.8736 20.1214 21.162C20.9414 21.3964 21.7414 21.6127 22.5413 21.8291C22.6013 21.8471 22.7213 21.811 22.7813 21.775C23.0213 21.5586 23.2813 21.5587 23.5813 21.6308C24.3013 21.811 25.0213 21.9553 25.7413 22.1175C26.2613 22.2437 26.3812 22.3879 26.3612 22.8566C26.3612 22.9288 26.4012 23.0369 26.4812 23.073C26.6612 23.1992 26.8812 23.2893 27.1012 23.4155C27.1812 23.2172 27.2412 23.055 27.3012 22.8747C28.1212 20.7835 30.5411 19.5395 32.9611 19.9722C33.281 20.0263 33.581 20.0984 33.701 20.4229C33.801 20.7474 33.6011 20.9457 33.3611 21.162C32.8011 21.6488 32.2611 22.1716 31.7011 22.6403C31.4811 22.8206 31.4411 22.9828 31.5211 23.2172C31.6411 23.5597 31.7011 23.9023 31.8211 24.2268C31.8611 24.353 32.0211 24.4972 32.1611 24.5332C32.5611 24.6594 32.9811 24.7496 33.401 24.8217C33.541 24.8397 33.7611 24.8037 33.8611 24.7135C34.441 24.2087 35.021 23.6859 35.581 23.1811C35.801 22.9828 36.041 22.7846 36.401 22.8747C36.761 22.9648 36.841 23.2533 36.901 23.5237C37.6009 26.6605 34.481 29.4548 31.0011 28.8058C30.9211 28.7878 30.8211 28.7698 30.7411 28.7698C30.7411 30.0678 30.7411 31.3658 30.7411 32.6457C30.7411 33.1505 30.6611 33.2587 30.1212 33.439C30.1212 34.9172 30.1212 36.3955 30.1212 37.8918C29.7012 37.8918 29.3211 37.8918 28.8811 37.8918C28.8611 36.4136 28.8612 34.9173 28.8612 33.4029ZM10.9016 13.2478C10.3016 15.6816 11.2616 17.9351 13.4415 19.1429C15.4615 20.2606 18.1015 20.0984 19.9214 18.7283C21.7614 17.3582 22.3613 15.2669 21.7813 13.2298C18.1614 12.3645 14.5415 12.3644 10.9016 13.2478ZM31.6411 21.126C29.2611 21.2522 27.6812 23.3614 28.4012 25.3625C28.5612 25.8312 28.4612 26.1197 28.1012 26.4442C25.0013 29.2204 21.9213 32.0148 18.8214 34.7911C18.7014 34.8992 18.5814 35.0074 18.4814 35.1155C18.2015 35.4581 18.1415 35.8186 18.3615 36.1972C18.5814 36.5758 18.9214 36.7561 19.4014 36.7561C19.8014 36.7561 20.0814 36.5578 20.3414 36.3234C23.4813 33.4931 26.6212 30.6627 29.7412 27.8323C30.0812 27.5259 30.4011 27.4357 30.8811 27.5799C33.121 28.247 35.561 26.7687 35.681 24.6053C35.201 25.056 34.801 25.4346 34.381 25.8132C34.161 26.0295 33.9011 26.1017 33.5611 26.0115C32.8211 25.8312 32.0811 25.669 31.3411 25.5067C30.9811 25.4346 30.7811 25.2543 30.7011 24.9298C30.5411 24.2808 30.3611 23.6319 30.1611 22.9829C30.0411 22.6223 30.1411 22.3699 30.4411 22.1355C30.8411 21.8291 31.2411 21.4685 31.6411 21.126ZM9.04168 9.94873C10.4416 9.69634 11.8216 9.44396 13.2416 9.17355C13.2416 9.11946 13.2416 8.99326 13.2416 8.8851C13.2416 8.27215 13.2416 7.64118 13.2416 7.02823C13.2416 6.63162 13.4616 6.39725 13.8616 6.39725C15.5215 6.37922 17.2015 6.37922 18.8614 6.39725C19.2614 6.39725 19.4814 6.63162 19.4814 7.02823C19.4814 7.62315 19.4814 8.21807 19.4814 8.83101C19.4814 8.97524 19.4814 9.11943 19.4814 9.19154C20.9214 9.46196 22.3014 9.71439 23.6813 9.96678C23.5813 9.38989 23.4813 8.77694 23.3813 8.16399C22.9813 5.83841 20.8814 4.1618 18.2614 4.14377C16.9415 4.12575 15.6415 4.12575 14.3215 4.14377C12.7016 4.17983 11.3816 4.82885 10.3617 5.9646C9.30168 7.13641 9.30168 8.57862 9.04168 9.94873ZM8.02169 32.2672C8.10169 31.8706 8.16172 31.51 8.24172 31.1314C8.28172 30.9872 8.34168 30.8069 8.46168 30.7348C8.68168 30.6086 8.64169 30.4644 8.60169 30.2841C8.02171 28.3551 7.46171 26.4442 6.90172 24.5152C6.86172 24.389 6.82171 24.2808 6.76171 24.1366C6.62172 24.2087 6.52175 24.2448 6.42176 24.2989C4.8218 25.2543 3.72182 26.5704 3.42183 28.283C3.20184 29.563 3.30184 30.879 3.24184 32.177C3.24184 32.195 3.26182 32.2131 3.28182 32.2491C4.86178 32.2672 6.42173 32.2672 8.02169 32.2672ZM22.3413 22.9648C22.2813 22.9468 22.2213 22.9288 22.1613 22.9107C21.8014 23.4876 21.4614 24.0645 21.1014 24.6594C20.5414 25.5788 20.0014 26.4982 19.4414 27.3996C19.1614 27.8684 18.6814 27.9044 18.3015 27.4898C18.1415 27.3276 18.0014 27.1473 17.8414 26.967C17.5815 26.6605 17.3014 26.3721 17.0014 26.0296C17.0014 27.58 17.0014 29.0762 17.0014 30.5726C18.0814 30.5726 19.1414 30.5726 20.2414 30.5726C20.9414 28.0306 21.6413 25.4887 22.3413 22.9648ZM15.7215 30.5726C15.7215 29.0582 15.7215 27.58 15.7215 26.0296C15.2815 26.5163 14.9015 26.949 14.5015 27.3816C14.0015 27.9405 13.5615 27.9044 13.2016 27.2915C12.3816 25.9394 11.5616 24.5873 10.7417 23.2172C10.6817 23.109 10.6016 23.0189 10.5216 22.8747C10.4016 23.1451 12.2416 30.0317 12.5416 30.5726C13.5816 30.5726 14.6215 30.5726 15.7215 30.5726ZM9.42168 11.1205C10.0417 11.8957 10.8416 12.1301 11.8616 11.9318C12.7616 11.7515 13.7016 11.6253 14.6216 11.5352C16.7415 11.3369 18.8614 11.4991 20.9413 11.9498C21.9413 12.1661 22.6813 11.8597 23.2813 11.1386C20.7614 10.0208 12.1016 10.0028 9.42168 11.1205ZM9.04168 22.8206C8.5817 22.9288 8.18168 23.0189 7.76169 23.109C8.50167 25.6149 9.24166 28.0847 9.96164 30.5545C10.3816 30.5545 10.7617 30.5545 11.1816 30.5545C10.4617 27.9765 9.76167 25.4166 9.04168 22.8206ZM21.5414 30.5545C21.5614 30.5725 21.6014 30.5906 21.6214 30.6086C21.7214 30.5365 21.8213 30.4824 21.9013 30.4103C22.2013 30.1399 22.5213 29.8875 22.8013 29.581C22.9813 29.4008 23.1413 29.1664 23.2213 28.932C23.4413 28.283 23.6213 27.616 23.8213 26.967C24.2013 25.687 24.5813 24.407 24.9613 23.109C24.5213 23.0189 24.1213 22.9108 23.6813 22.8206C22.9613 25.4346 22.2613 27.9946 21.5414 30.5545ZM18.8014 20.6032C17.1615 21.144 15.5215 21.144 13.8415 20.5851C13.8615 20.9096 13.7816 21.2341 13.9216 21.4324C14.5615 22.3338 15.4015 23.073 16.4415 23.74C17.1014 23.1451 17.7414 22.5502 18.3814 21.9553C18.7814 21.5947 18.9814 21.162 18.8014 20.6032ZM14.5015 9.17355C15.7615 9.17355 16.9815 9.17355 18.2014 9.17355C18.2014 8.61469 18.2014 8.05582 18.2014 7.53301C16.9615 7.53301 15.7415 7.53301 14.5015 7.53301C14.5015 8.07384 14.5015 8.61469 14.5015 9.17355ZM18.7614 26.1918C19.5014 24.9659 20.2214 23.7761 20.9413 22.5682C20.5614 22.46 20.2214 22.3519 19.8614 22.2797C19.7814 22.2617 19.6214 22.3338 19.5614 22.406C19.1614 22.8026 18.8014 23.2172 18.4014 23.5778C18.0614 23.9023 17.6614 24.1907 17.2614 24.4972C17.7614 25.0741 18.2414 25.6149 18.7614 26.1918ZM11.7616 22.5862C12.5016 23.7941 13.2215 24.9839 13.9415 26.1918C14.4615 25.5969 14.9415 25.0741 15.3615 24.5873C14.5815 23.8301 13.8216 23.091 13.0616 22.3519C13.0016 22.2978 12.8616 22.2617 12.7616 22.2797C12.4616 22.3699 12.1416 22.4781 11.7616 22.5862ZM29.4611 29.8334C28.5612 30.6447 27.6612 31.4559 26.7812 32.2491C27.6412 32.2491 28.5612 32.2491 29.4611 32.2491C29.4611 31.4198 29.4611 30.5906 29.4611 29.8334ZM24.9213 27.5799C24.9413 27.598 24.9613 27.5979 24.9813 27.616C25.0813 27.5439 25.1612 27.4718 25.2612 27.3816C25.8012 26.8949 26.3412 26.4081 26.8812 25.9213C27.1412 25.687 27.1812 24.9479 26.9012 24.7316C26.6212 24.5152 26.3012 24.3349 25.9612 24.1186C25.6012 25.3084 25.2613 26.4442 24.9213 27.5799ZM9.44164 14.2754C8.72166 14.2934 8.18168 14.8342 8.26167 15.5013C8.34167 16.1503 9.00166 16.583 9.70164 16.4748C9.60164 15.7356 9.52163 15.0145 9.44164 14.2754ZM23.0413 16.4928C23.5413 16.5469 23.9613 16.4027 24.2613 16.006C24.5413 15.6455 24.5613 15.2309 24.3213 14.8523C24.0813 14.4737 23.7413 14.2754 23.2813 14.2754C23.2013 15.0145 23.1213 15.7537 23.0413 16.4928ZM9.20165 13.1396C9.36165 13.1216 9.50169 13.1216 9.62169 13.1036C9.70168 12.7611 9.60165 12.671 9.02166 12.4546C9.08166 12.689 9.14165 12.9053 9.20165 13.1396ZM23.5213 13.1216C23.5613 12.8873 23.6013 12.689 23.6413 12.5087C23.4013 12.689 22.8813 12.6709 23.1013 13.1216C23.2413 13.1216 23.3613 13.1216 23.5213 13.1216Z" fill="#937878"/>
</svg>
