<svg width="38" height="40" viewBox="0 0 38 40" fill="none" xmlns="http://www.w3.org/2000/svg">
<path d="M22.5625 31.2485V24.4985C22.5625 24.2001 22.4374 23.914 22.2147 23.703C21.992 23.492 21.6899 23.3735 21.375 23.3735H16.625C16.3101 23.3735 16.008 23.492 15.7853 23.703C15.5626 23.914 15.4375 24.2001 15.4375 24.4985V31.2485C15.4375 31.5468 15.3124 31.833 15.0897 32.044C14.867 32.2549 14.5649 32.3735 14.25 32.3735H7.125C6.81006 32.3735 6.50801 32.2549 6.28531 32.044C6.06261 31.833 5.9375 31.5468 5.9375 31.2485V18.2407C5.94016 18.085 5.97567 17.9314 6.04196 17.7889C6.10824 17.6464 6.20394 17.5179 6.32344 17.411L18.1984 7.18753C18.4173 6.9978 18.7033 6.89258 19 6.89258C19.2967 6.89258 19.5827 6.9978 19.8016 7.18753L31.6766 17.411C31.7961 17.5179 31.8918 17.6464 31.958 17.7889C32.0243 17.9314 32.0598 18.085 32.0625 18.2407V31.2485C32.0625 31.5468 31.9374 31.833 31.7147 32.044C31.492 32.2549 31.1899 32.3735 30.875 32.3735H23.75C23.4351 32.3735 23.133 32.2549 22.9103 32.044C22.6876 31.833 22.5625 31.5468 22.5625 31.2485Z" stroke="#937878" stroke-width="2" stroke-linecap="round" stroke-linejoin="round"/>
</svg>
