<svg width="25" height="28" viewBox="0 0 25 28" fill="none" xmlns="http://www.w3.org/2000/svg">
<path d="M17.2489 18.5002C20.2756 13.825 19.895 14.408 19.9822 14.286C21.0844 12.7559 21.6667 10.955 21.6667 9.07812C21.6667 4.10047 17.5633 0 12.5 0C7.45333 0 3.33333 4.09227 3.33333 9.07812C3.33333 10.9539 3.92778 12.8018 5.06611 14.3527L7.75111 18.5002C4.88056 18.9345 0 20.2284 0 23.0781C0 24.1166 0.688889 25.5976 3.97 26.7509C6.26111 27.5565 9.29056 28 12.5 28C18.5011 28 25 26.3337 25 23.0781C25 20.2278 20.1256 18.935 17.2489 18.5002ZM6.45833 13.4504C6.44944 13.4362 6.43944 13.4225 6.42944 13.4088C5.48222 12.1264 5 10.6061 5 9.07812C5 4.97547 8.35611 1.64062 12.5 1.64062C16.6356 1.64062 20 4.97711 20 9.07812C20 10.6088 19.5267 12.0772 18.6306 13.3257C18.55 13.4302 18.9689 12.7892 12.5 22.7823L6.45833 13.4504ZM12.5 26.3594C5.945 26.3594 1.66667 24.4628 1.66667 23.0781C1.66667 22.1473 3.865 20.6177 8.73611 20.0211L11.7972 24.7494C11.95 24.9856 12.215 25.1289 12.5 25.1289C12.785 25.1289 13.05 24.9856 13.2028 24.7494L16.2639 20.0211C21.135 20.6177 23.3333 22.1473 23.3333 23.0781C23.3333 24.4508 19.0939 26.3594 12.5 26.3594Z" fill="#BB242A"/>
<path d="M12.5007 4.97656C10.2034 4.97656 8.33398 6.8168 8.33398 9.07813C8.33398 11.3395 10.2034 13.1797 12.5007 13.1797C14.7979 13.1797 16.6673 11.3395 16.6673 9.07813C16.6673 6.8168 14.7984 4.97656 12.5007 4.97656ZM12.5007 11.5391C11.1223 11.5391 10.0007 10.4349 10.0007 9.07813C10.0007 7.72133 11.1223 6.61719 12.5007 6.61719C13.879 6.61719 15.0007 7.72133 15.0007 9.07813C15.0007 10.4349 13.879 11.5391 12.5007 11.5391Z" fill="#BB242A"/>
</svg>
