<svg width="38" height="40" viewBox="0 0 38 40" fill="none" xmlns="http://www.w3.org/2000/svg">
<path d="M34.4835 32.7687C34.2854 33.3603 33.9717 33.8368 33.3278 34.0011C33.1297 34.0504 32.8986 34.0669 32.6839 34.0669C24.099 34.0669 15.5142 34.0669 6.92925 34.0669C4.99765 34.0669 3.51179 32.933 3.09905 31.1255C3.03301 30.8298 3 30.5176 3 30.2218C3 23.419 3 16.6161 3 9.81332C3 7.72647 4.55186 6.08326 6.58252 6.0011C7.09431 5.98467 7.29246 6.149 7.29246 6.67482C7.29246 8.48233 7.29246 10.2899 7.29246 12.0974C7.29246 12.2124 7.29246 12.3438 7.29246 12.4917C7.60614 12.4917 7.90328 12.4917 8.18394 12.4917C8.74526 12.4917 9.29008 12.4917 9.85141 12.4917C10.3137 12.4917 10.5613 12.656 10.5613 12.9847C10.5613 13.3133 10.3302 13.4941 9.86793 13.4941C9.12501 13.4941 8.3986 13.4941 7.65567 13.4941C7.55662 13.4941 7.45752 13.4941 7.30894 13.4941C7.30894 13.6419 7.30894 13.7734 7.30894 13.9049C7.30894 18.1772 7.30894 22.4495 7.30894 26.7218C7.30894 27.4284 7.20991 27.5434 6.51652 27.6091C5.16274 27.7406 4.13912 28.8086 4.05658 30.1889C3.97403 31.5035 4.91506 32.7359 6.21931 32.9988C6.48346 33.0481 6.74763 33.0645 7.01178 33.0645C15.5637 33.0645 24.099 33.0645 32.6509 33.0645C33.3113 33.0645 33.4764 32.8838 33.4764 32.2265C33.4764 26.2617 33.4764 20.2969 33.4764 14.3321C33.4764 13.7241 33.4104 13.6255 32.816 13.4941C32.5189 13.4283 32.3703 13.2147 32.4033 12.9354C32.4363 12.6725 32.6344 12.5082 32.9481 12.5082C33.5589 12.5082 34.1533 12.919 34.3844 13.527C34.4174 13.6255 34.467 13.7077 34.5 13.8063C34.4835 20.1326 34.4835 26.4589 34.4835 32.7687ZM6.25236 7.10206C6.20283 7.10206 6.1698 7.10206 6.13678 7.10206C4.84905 7.39784 4.00705 8.46592 4.00705 9.87906C4.00705 15.7288 4.00705 21.595 4.00705 27.4448C4.00705 27.527 4.02359 27.6091 4.0401 27.7406C4.60142 27.1983 5.19572 26.8368 5.90563 26.7053C6.18629 26.656 6.25236 26.5246 6.25236 26.2617C6.23585 19.9847 6.25236 13.7077 6.25236 7.44712C6.25236 7.31567 6.25236 7.21709 6.25236 7.10206Z" fill="#B18A8A"/>
<path d="M11.7001 18.9332C11.7001 16.0247 11.7001 13.0998 11.7001 10.1914C11.7001 10.1092 11.7001 10.0271 11.7001 9.94489C11.6836 9.66555 11.7166 9.4026 12.0303 9.28757C12.344 9.17255 12.5421 9.35334 12.7237 9.58339C13.4336 10.52 14.16 11.4566 14.8864 12.4097C18.7827 17.4871 22.6789 22.5646 26.5916 27.6421C26.6576 27.7242 26.7402 27.8228 26.7898 27.9214C26.9714 28.2336 26.7898 28.6115 26.4266 28.6608C26.3275 28.6773 26.2284 28.6773 26.1129 28.6773C21.5563 28.6773 17.0161 28.6773 12.4595 28.6773C11.8322 28.6773 11.6836 28.5458 11.6836 27.905C11.7001 24.9144 11.7001 21.9238 11.7001 18.9332ZM25.3039 27.6421C21.094 22.1702 16.9336 16.7477 12.7402 11.2759C12.7402 16.7806 12.7402 22.2031 12.7402 27.6421C16.9171 27.6421 21.0775 27.6421 25.3039 27.6421Z" fill="#B18A8A"/>
<path d="M28.0117 20.1165C28.0117 16.9287 28.0117 13.7573 28.0117 10.5695C28.0117 10.3395 28.0612 10.0766 28.1438 9.86294C28.4409 9.09064 28.7547 8.33478 29.0518 7.56248C29.1509 7.316 29.2829 7.10237 29.5966 7.08594C29.8938 7.08594 30.0424 7.29955 30.1415 7.54603C30.4551 8.33476 30.7853 9.13995 31.0825 9.92868C31.1485 10.1094 31.198 10.323 31.198 10.5202C31.198 16.8794 31.198 23.2221 31.198 29.5812C31.198 30.4357 30.8018 30.8301 29.9433 30.8301C29.6627 30.8301 29.382 30.8301 29.1179 30.8301C28.4245 30.8137 28.0117 30.4029 28.0117 29.7127C28.0117 28.8911 28.0117 28.0531 28.0117 27.2315C28.0117 24.8653 28.0117 22.4827 28.0117 20.1165ZM29.0518 11.3582C29.0518 16.7972 29.0518 22.2033 29.0518 27.6258C29.4315 27.6258 29.7947 27.6258 30.1579 27.6258C30.1579 22.1869 30.1579 16.7808 30.1579 11.3582C29.7947 11.3582 29.448 11.3582 29.0518 11.3582ZM29.0353 28.6939C29.0353 29.039 29.0353 29.3512 29.0353 29.6634C29.0353 29.7292 29.1343 29.8277 29.1839 29.8277C29.5141 29.8441 29.8277 29.8277 30.1579 29.8277C30.1579 29.4169 30.1579 29.0554 30.1579 28.6939C29.7947 28.6939 29.448 28.6939 29.0353 28.6939ZM29.6131 8.9592C29.415 9.45216 29.2499 9.86297 29.0683 10.3066C29.448 10.3066 29.7782 10.3066 30.1579 10.3066C29.9763 9.86297 29.8112 9.45216 29.6131 8.9592Z" fill="#B18A8A"/>
<path d="M22.0021 12.5078C23.3724 12.5078 24.7262 12.5078 26.0964 12.5078C26.212 12.5078 26.3276 12.5078 26.4267 12.5242C26.6908 12.5735 26.8394 12.7378 26.8559 13.0008C26.8724 13.2637 26.6908 13.4608 26.4101 13.4937C26.3111 13.5101 26.212 13.5101 26.0964 13.5101C23.3559 13.5101 20.6318 13.5101 17.8913 13.5101C17.3795 13.5101 17.1318 13.3458 17.1318 13.0008C17.1318 12.6557 17.3795 12.5078 17.9078 12.5078C19.2781 12.5078 20.6318 12.5078 22.0021 12.5078Z" fill="#B18A8A"/>
<path d="M14.4248 21.5782C14.4248 20.3623 14.4248 19.1299 14.4248 17.9139C14.4248 17.6346 14.4744 17.4046 14.7715 17.2895C15.0852 17.1745 15.2668 17.3552 15.4484 17.5853C17.3635 20.0665 19.2621 22.5642 21.1772 25.0454C21.3257 25.2426 21.4414 25.4397 21.3258 25.6862C21.2102 25.9491 20.9626 25.982 20.6984 25.982C18.8494 25.982 16.9838 25.982 15.1347 25.982C14.6064 25.982 14.4413 25.8177 14.4413 25.2919C14.4248 24.043 14.4248 22.8106 14.4248 21.5782ZM19.7904 24.9304C18.3375 23.0407 16.9178 21.1839 15.498 19.3435C15.4814 19.36 15.4649 19.3764 15.4484 19.3928C15.4484 21.2332 15.4484 23.0736 15.4484 24.9304C16.8847 24.9304 18.321 24.9304 19.7904 24.9304Z" fill="#B18A8A"/>
</svg>
