<svg width="38" height="40" viewBox="0 0 38 40" fill="none" xmlns="http://www.w3.org/2000/svg">
<path d="M2.01839 19.6735C2.18369 19.3322 2.31226 18.9708 2.53267 18.6696C2.88165 18.2078 3.3592 18.027 3.91022 18.027C4.3694 18.027 4.82856 18.027 5.26938 18.027C6.48162 18.027 7.19794 18.79 7.27141 20.0952C7.27141 20.1554 7.27143 20.2156 7.28979 20.3562C7.67551 20.3562 8.06121 20.3361 8.42856 20.3562C8.81427 20.3763 9.20001 20.4164 9.60409 20.4566C9.60409 18.8904 9.60409 17.3443 9.60409 15.6978C9.45715 15.8384 9.36531 15.9388 9.25511 16.0392C8.88776 16.4207 8.52039 16.8022 8.13467 17.1837C7.32651 17.9868 6.26122 17.9668 5.56326 17.1636C4.88367 16.3605 4.92042 15.1959 5.69185 14.3927C6.94082 13.0876 8.20816 11.7824 9.47551 10.4974C9.64081 10.3167 9.71429 10.136 9.71429 9.87494C9.69592 8.32885 9.69591 6.78277 9.69591 5.23668C9.69591 4.3532 9.97141 4.05202 10.7796 4.05202C11.5326 4.05202 12.2857 4.05202 13.0388 4.05202C13.8837 4.05202 14.1591 4.3331 14.1591 5.27682C14.1591 5.35713 14.1591 5.45751 14.1591 5.63822C14.2877 5.51775 14.3612 5.43746 14.4346 5.35715C15.6102 4.15241 16.7857 2.92759 17.9612 1.72285C18.8979 0.759051 19.8346 0.759051 20.753 1.72285C23.0673 4.09217 25.3816 6.46146 27.6958 8.83079C27.7326 8.87094 27.7693 8.89106 27.7877 8.93122C28.0816 9.2324 28.1183 9.57375 27.9163 9.8147C27.7143 10.0556 27.402 10.0355 27.1081 9.71427C24.7755 7.32486 22.4428 4.9355 20.0918 2.54609C19.5224 1.9638 19.1918 1.9638 18.6224 2.54609C14.5816 6.72254 10.5224 10.8789 6.48163 15.0553C6.37142 15.1758 6.2612 15.2963 6.16936 15.4569C6.00405 15.7581 6.05919 16.1797 6.26123 16.4207C6.48164 16.7018 6.8857 16.7821 7.16121 16.6014C7.32651 16.501 7.47345 16.3605 7.62039 16.1998C11.3306 12.3848 15.0592 8.5497 18.7694 4.7146C19.2836 4.17247 19.4122 4.17247 19.9265 4.7146C23.6918 8.56978 27.4387 12.4049 31.204 16.2601C31.4244 16.501 31.6632 16.7018 32.0122 16.6416C32.5816 16.5412 32.8387 15.8785 32.5265 15.3565C32.453 15.2159 32.3428 15.1155 32.2326 14.9951C31.3877 14.1317 30.5428 13.2683 29.6979 12.3848C29.6061 12.2844 29.5142 12.2041 29.4408 12.0836C29.2938 11.8427 29.3122 11.6017 29.4959 11.4009C29.6612 11.2202 29.8632 11.1801 30.0836 11.3206C30.1387 11.3407 30.1754 11.3808 30.2305 11.421C31.2224 12.445 32.2142 13.4289 33.1877 14.473C33.8673 15.2159 33.8489 16.3605 33.2244 17.1034C32.5999 17.8463 31.553 17.9467 30.8183 17.3041C30.3408 16.8825 29.9183 16.4006 29.4591 15.9388C29.3857 15.8585 29.2938 15.7781 29.1836 15.6777C29.1836 19.0711 29.1836 22.3841 29.1836 25.7775C29.3305 25.6771 29.4407 25.5968 29.5326 25.5366C30.8734 24.5527 32.1959 23.5688 33.5367 22.605C34.7122 21.7617 36.1265 22.1232 36.751 23.4283C37.1734 24.3118 37.0632 25.4161 36.3836 26.1189C35.3183 27.2232 34.2346 28.2673 33.1509 29.3315C32.0856 30.3957 30.9652 31.4197 29.9367 32.504C28.8346 33.6686 27.5489 34.2509 26.0428 34.4517C22.9204 34.8934 19.8163 35.4155 16.7122 35.9175C15.7204 36.0781 14.7837 36.0178 13.8469 35.6162C11.6796 34.6725 9.49387 33.8091 7.28979 32.8855C7.27143 33.0261 7.23468 33.1264 7.21631 33.2469C7.08774 34.1706 6.44491 34.8533 5.58165 34.9135C4.97553 34.9537 4.36937 34.9536 3.76325 34.9336C2.89998 34.8934 2.34899 34.3914 2.07348 33.508C2.05512 33.4477 2.01837 33.4076 2 33.3474C2 32.8454 2 32.3434 2 31.8615C2.14694 31.6004 2.33062 31.3997 2.64287 31.5C2.97348 31.6004 3.01018 31.9017 3.01018 32.2229C3.01018 32.4438 3.01018 32.6445 3.01018 32.8654C3.02855 33.528 3.34081 33.8694 3.94693 33.8895C4.38775 33.8895 4.81018 33.8895 5.25099 33.8895C5.93058 33.8895 6.24284 33.5281 6.24284 32.7851C6.24284 31.5603 6.24284 30.3355 6.24284 29.1307C6.24284 26.1791 6.24284 23.2275 6.24284 20.2759C6.24284 19.4928 5.94899 19.1715 5.23266 19.1715C4.86532 19.1715 4.49796 19.1715 4.13061 19.1715C3.26735 19.1715 3.01018 19.4526 3.01018 20.3963C3.01018 23.0669 3.01018 25.7173 3.01018 28.3878C3.01018 28.689 2.99183 29.0103 2.67958 29.1307C2.3857 29.2512 2.18369 29.0705 2.01839 28.8296C2.01839 25.7575 2.01839 22.7255 2.01839 19.6735ZM7.28979 21.4806C7.28979 21.5609 7.27141 21.6011 7.27141 21.6613C7.27141 24.9342 7.27141 28.2071 7.27141 31.48C7.27141 31.741 7.39999 31.7811 7.56529 31.8615C9.93467 32.8453 12.2857 33.8292 14.6551 34.7729C15.0592 34.9336 15.5551 35.0139 15.9775 34.9336C19.4122 34.4316 22.8469 33.8694 26.2816 33.3474C27.3102 33.1867 28.2102 32.765 29 32.002C30.7816 30.2351 32.5632 28.4882 34.3632 26.7212C34.804 26.2795 35.2449 25.8578 35.6673 25.4161C36.0163 25.0346 36.1081 24.4724 35.906 24.0105C35.704 23.5286 35.2632 23.2275 34.7857 23.2877C34.5285 23.3279 34.253 23.4484 34.0326 23.609C31.8101 25.2153 29.6061 26.8417 27.3836 28.4481C27.1816 28.5886 26.9061 28.689 26.6673 28.6689C24.8305 28.5283 22.9938 28.3878 21.1571 28.2071C18.7142 27.9862 16.2714 27.7452 13.8469 27.5244C13.4612 27.4842 13.2408 27.2634 13.2592 26.9421C13.2775 26.6008 13.5347 26.4 13.9204 26.4201C14.7469 26.5004 15.5734 26.5807 16.4 26.661C18.8795 26.9019 21.3408 27.1429 23.8204 27.3839C23.9673 27.4039 24.1143 27.3839 24.2428 27.3839C24.2428 26.2193 23.453 25.2153 22.4061 25.0747C21.0102 24.894 19.6326 24.6933 18.2367 24.5527C16.253 24.3519 14.3979 23.8299 12.6714 22.7456C11.0183 21.6814 9.19999 21.3802 7.28979 21.4806ZM16.1245 23.1673C16.1245 22.9062 16.1245 22.7857 16.1245 22.6452C16.1245 20.7979 16.1245 18.9306 16.1245 17.0833C16.1245 16.3404 16.4551 15.9388 17.0612 15.9388C18.6224 15.9388 20.1836 15.9388 21.7449 15.9388C22.1489 15.9388 22.4428 16.1396 22.6081 16.5411C22.6816 16.7218 22.6816 16.9428 22.6816 17.1636C22.7 19.3322 22.6999 21.5007 22.6999 23.6692C22.6999 23.8499 22.6816 24.0306 22.9204 24.0909C24.353 24.5527 25.0877 25.637 25.253 27.2232C25.2714 27.4039 25.3081 27.5043 25.5101 27.5244C26.704 27.6448 26.704 27.665 27.6775 26.9421C27.7694 26.8819 27.8428 26.8016 27.9346 26.7614C28.155 26.6409 28.2101 26.4803 28.2101 26.2192C28.1918 22.4645 28.1918 18.7298 28.1918 14.975C28.1918 14.734 28.1183 14.5734 27.953 14.3927C25.1612 11.5415 22.3877 8.69025 19.5959 5.83903C19.5408 5.77879 19.4673 5.71854 19.3938 5.63822C19.3204 5.69846 19.2653 5.73865 19.2285 5.79889C16.4183 8.69027 13.6082 11.5816 10.798 14.4931C10.7061 14.5935 10.6327 14.7943 10.6327 14.9348C10.6143 16.5412 10.6327 18.1475 10.6327 19.7538C10.6327 20.055 10.6327 20.3762 10.6327 20.6975C11.8633 20.9987 12.9286 21.6413 14.0122 22.2436C14.6551 22.6051 15.3714 22.846 16.1245 23.1673ZM21.6714 23.8499C21.6714 21.5609 21.6714 19.292 21.6714 17.0231C20.1469 17.0231 18.6408 17.0231 17.1346 17.0231C17.1346 19.1113 17.1346 21.1794 17.1346 23.2877C18.6591 23.4885 20.1653 23.6692 21.6714 23.8499ZM10.7245 9.23239C11.551 8.38907 12.3224 7.58593 13.0755 6.80284C13.1122 6.76268 13.149 6.68238 13.1674 6.62214C13.1674 6.16032 13.1674 5.6784 13.1674 5.21658C12.3225 5.21658 11.5326 5.21658 10.7245 5.21658C10.7245 6.52172 10.7245 7.82686 10.7245 9.23239Z" fill="#937878"/>
</svg>
