<svg width="18" height="18" viewBox="0 0 18 18" fill="none" xmlns="http://www.w3.org/2000/svg">
<path d="M14.3598 14.9998C14.0309 14.8995 13.9182 14.6973 13.9187 14.4094C13.9246 11.4073 13.9221 8.40516 13.9223 5.40305C13.9223 4.79461 13.6085 4.34081 12.9569 4.08052C12.7466 3.99641 12.4958 3.95073 12.2625 3.94768C11.1936 3.93409 10.1243 3.93925 9.05517 3.94229C8.128 3.94487 7.39305 4.56853 7.38861 5.35127C7.38611 5.77298 7.38805 6.19446 7.38833 6.61617C7.38833 6.65061 7.39194 6.68505 7.39416 6.72394C8.04162 6.80969 8.62964 7.0093 9.1421 7.34666C10.1207 7.99071 10.6312 8.83928 10.6639 9.8877C10.6734 10.1911 10.4406 10.3891 10.0801 10.3893C7.91413 10.3905 5.74788 10.3907 3.58192 10.3893C3.22333 10.3893 2.99834 10.1902 3.00001 9.88559C3.00834 8.37306 4.32298 7.04116 6.09231 6.75229C6.15036 6.74268 6.20841 6.73237 6.27702 6.72066C6.27702 6.28114 6.27202 5.84467 6.27951 5.40797C6.28229 5.23718 6.29674 5.06428 6.33284 4.89629C6.56061 3.83686 7.70081 3.01781 8.97628 3.00727C10.0962 2.99813 11.2164 2.99696 12.3363 3.0075C13.7729 3.02109 14.9845 4.03483 15.0298 5.24444C15.0328 5.32644 15.0331 5.40844 15.0331 5.49044C15.0334 8.4574 15.03 11.4244 15.0381 14.3913C15.0389 14.6828 14.9401 14.8908 14.6095 15C14.5265 14.9998 14.4431 14.9998 14.3598 14.9998ZM4.17799 9.44655C5.95398 9.44655 7.71886 9.44655 9.48514 9.44655C9.32098 8.63475 8.39354 7.64139 6.85559 7.62898C5.36235 7.61703 4.37075 8.56119 4.17799 9.44655Z" fill="#535353"/>
<path d="M8.88775 14.9991C8.55638 14.9028 8.42306 14.7039 8.44223 14.4137C8.45472 14.223 8.44223 14.0313 8.44528 13.8399C8.44972 13.5651 8.69082 13.3587 9.00247 13.3594C9.3155 13.3601 9.55188 13.5653 9.55521 13.8425C9.55743 14.0376 9.54604 14.2333 9.55799 14.4279C9.57576 14.7159 9.43605 14.9073 9.11024 14.9991C9.03608 14.9991 8.96191 14.9991 8.88775 14.9991Z" fill="#535353"/>
<path d="M4.52746 14.9991C4.19915 14.9005 4.0661 14.7011 4.08471 14.4123C4.09665 14.2258 4.08471 14.0381 4.08749 13.8511C4.09193 13.567 4.32914 13.3591 4.64495 13.3594C4.96271 13.3596 5.19436 13.5653 5.19742 13.8521C5.19936 14.0313 5.18492 14.2115 5.20075 14.3898C5.2263 14.6803 5.10576 14.8883 4.77744 14.9991C4.69412 14.9991 4.61079 14.9991 4.52746 14.9991Z" fill="#535353"/>
<path d="M6.69396 15.001C6.66257 14.987 6.63146 14.972 6.59952 14.9589C6.39481 14.8745 6.27898 14.7379 6.2751 14.5444C6.2701 14.3068 6.27065 14.069 6.27454 13.8312C6.27871 13.5676 6.51064 13.3676 6.81145 13.3615C7.11198 13.3554 7.36558 13.5445 7.37974 13.8059C7.39307 14.0547 7.39169 14.305 7.3803 14.554C7.36919 14.7892 7.19142 14.9226 6.94449 15.001C6.86061 15.001 6.77728 15.001 6.69396 15.001Z" fill="#535353"/>
<path d="M6.27775 11.8876C6.27775 11.7667 6.27414 11.6458 6.27858 11.5251C6.28775 11.2686 6.53357 11.0666 6.83244 11.0664C7.13186 11.0662 7.38018 11.2667 7.38657 11.5242C7.39268 11.7657 7.39268 12.0075 7.38657 12.2491C7.38018 12.5084 7.13658 12.7048 6.83327 12.705C6.52996 12.7052 6.28803 12.5087 6.27858 12.25C6.27414 12.1294 6.27775 12.0085 6.27775 11.8876Z" fill="#535353"/>
<path d="M9.55812 11.8927C9.55812 12.0174 9.56339 12.1422 9.55701 12.2666C9.54478 12.4993 9.32452 12.6888 9.05565 12.7043C8.76789 12.7209 8.49679 12.5712 8.47318 12.336C8.44346 12.0389 8.4443 11.7367 8.47291 11.4394C8.49513 11.21 8.77205 11.0512 9.04093 11.0676C9.32285 11.0847 9.54451 11.2705 9.55701 11.5073C9.56367 11.6352 9.55812 11.7641 9.55812 11.8927Z" fill="#535353"/>
<path d="M5.20314 11.8916C5.20314 12.0123 5.20897 12.1334 5.20203 12.2538C5.18675 12.5129 4.9551 12.7025 4.65873 12.7048C4.35903 12.7074 4.11571 12.527 4.10071 12.2676C4.08599 12.0151 4.08655 11.7611 4.10043 11.5085C4.1146 11.2508 4.36264 11.0636 4.65595 11.0664C4.95621 11.0692 5.18953 11.2644 5.20258 11.5294C5.20869 11.6498 5.20369 11.7709 5.20369 11.8916C5.20342 11.8916 5.20342 11.8916 5.20314 11.8916Z" fill="#535353"/>
</svg>
