<svg width="15" height="18" viewBox="0 0 15 18" fill="none" xmlns="http://www.w3.org/2000/svg">
<g clip-path="url(#clip0_1709_9)">
<path d="M7.51137 15.114C8.598 15.114 9.68498 15.0977 10.7709 15.1191C11.7095 15.1374 12.518 14.3334 12.4984 13.4008C12.4759 12.344 12.4926 11.2862 12.4936 10.229C12.4939 9.95629 12.623 9.77309 12.8325 9.71236C13.0749 9.64213 13.3812 9.83755 13.3792 10.2179C13.3762 10.8852 13.3782 11.5522 13.3782 12.2195C13.3782 12.5984 13.3809 12.977 13.3775 13.356C13.3714 14.0705 13.1249 14.6984 12.6264 15.2036C12.1883 15.6473 11.6515 15.9289 11.0124 15.971C10.8161 15.9839 10.6191 15.9975 10.4225 15.9978C8.37388 15.9998 6.32523 16.0036 4.27658 15.9964C3.63581 15.9941 3.06023 15.7905 2.56547 15.3695C1.93794 14.8355 1.63538 14.1519 1.62858 13.3384C1.62009 12.3036 1.62587 11.2689 1.62689 10.2345C1.62723 9.96104 1.75253 9.76902 1.96171 9.71473C2.25815 9.63772 2.50808 9.86129 2.51114 10.2134C2.51453 10.6375 2.51216 11.0616 2.51216 11.4857C2.51216 12.136 2.52166 12.7864 2.50978 13.4364C2.49348 14.332 3.27688 15.1242 4.18388 15.1171C5.29293 15.1072 6.40198 15.114 7.51137 15.114Z" fill="#B92025" stroke="#B92025" stroke-width="0.3"/>
<path d="M0.489793 8.9505C0.255826 8.91488 0.116601 8.83142 0.0395176 8.66416C-0.037226 8.49793 0.00216452 8.34831 0.119997 8.21532C0.142409 8.18988 0.167537 8.16715 0.191647 8.14306C2.50822 5.82898 4.82479 3.51455 7.14136 1.20013C7.40691 0.934827 7.59673 0.93347 7.85854 1.19504C10.187 3.52134 12.5158 5.84764 14.8439 8.17461C15.118 8.44839 15.0191 8.83515 14.6415 8.91691C14.5383 8.9393 14.4123 8.87315 14.3016 8.83379C14.2582 8.81853 14.2279 8.7656 14.1919 8.72964C12.0316 6.57128 9.87086 4.41257 7.71049 2.25421C7.52372 2.06761 7.48128 2.06693 7.29927 2.24878C5.12701 4.41868 2.95544 6.58993 0.779789 8.75746C0.689462 8.8477 0.56382 8.90232 0.489793 8.9505Z" fill="#B92025" stroke="#B92025" stroke-width="0.3"/>
</g>
<defs>
<clipPath id="clip0_1709_9">
<rect width="15" height="18" fill="white"/>
</clipPath>
</defs>
</svg>
